%TF.GenerationSoftware,KiCad,Pcbnew,9.0.7+1*%
%TF.CreationDate,Date%
%TF.ProjectId,proalbmlb,70726f61-6c62-46d6-9c62-2e6b69636164,+ (Unreleased)*%
%TF.SameCoordinates,Original*%
%TF.FileFunction,Legend,Top*%
%TF.FilePolarity,Positive*%
%FSLAX46Y46*%
G04 Gerber Fmt 4.6, Leading zero omitted, Abs format (unit mm)*
G04 Created by KiCad*
%MOMM*%
%LPD*%
G01*
G04 APERTURE LIST*
G04 Aperture macros list*
%AMRoundRect*
0 Rectangle with rounded corners*
0 $1 Rounding radius*
0 $2 $3 $4 $5 $6 $7 $8 $9 X,Y pos of 4 corners*
0 Add a 4 corners polygon primitive as box body*
4,1,4,$2,$3,$4,$5,$6,$7,$8,$9,$2,$3,0*
0 Add four circle primitives for the rounded corners*
1,1,$1+$1,$2,$3*
1,1,$1+$1,$4,$5*
1,1,$1+$1,$6,$7*
1,1,$1+$1,$8,$9*
0 Add four rect primitives between the rounded corners*
20,1,$1+$1,$2,$3,$4,$5,0*
20,1,$1+$1,$4,$5,$6,$7,0*
20,1,$1+$1,$6,$7,$8,$9,0*
20,1,$1+$1,$8,$9,$2,$3,0*%
%AMFreePoly0*
4,1,30,0.787703,0.889811,0.802348,0.854458,0.802399,-0.406398,0.787756,-0.441754,0.752401,-0.456400,0.447599,-0.456400,0.412244,-0.441755,0.397599,-0.406400,0.397599,0.356400,0.202400,0.356400,0.202400,-0.406400,0.187755,-0.441755,0.152400,-0.456400,-0.152400,-0.456400,-0.187755,-0.441755,-0.202400,-0.406400,-0.202400,0.356400,-0.397599,0.356400,-0.397599,-0.406400,-0.412244,-0.441755,
-0.447599,-0.456400,-0.752399,-0.456400,-0.787754,-0.441755,-0.802399,-0.406400,-0.802399,-0.406398,-0.802348,0.854458,-0.787702,0.889813,-0.752348,0.904456,0.752348,0.904456,0.787703,0.889811,0.787703,0.889811,$1*%
%AMFreePoly1*
4,1,31,-0.407723,0.445207,-0.393078,0.409852,-0.393078,-0.352948,-0.202400,-0.352948,-0.202400,0.406400,-0.187755,0.441755,-0.184023,0.443300,-0.183234,0.445207,-0.147879,0.459852,0.156921,0.459852,0.192276,0.445207,0.206921,0.409852,0.206921,-0.352948,0.402120,-0.352948,0.402120,0.409852,0.416765,0.445207,0.452120,0.459852,0.756920,0.459852,0.792275,0.445207,0.806920,0.409852,
0.806920,-0.852941,0.792275,-0.888296,0.756920,-0.902941,-0.747878,-0.902941,-0.783233,-0.888296,-0.797878,-0.852941,-0.797878,0.409852,-0.783233,0.445207,-0.747878,0.459852,-0.443078,0.459852,-0.407723,0.445207,-0.407723,0.445207,$1*%
%AMFreePoly2*
4,1,29,-0.412244,0.441755,-0.397599,0.406400,-0.397599,-0.356400,-0.202400,-0.356400,-0.202400,0.406400,-0.187755,0.441755,-0.152400,0.456400,0.152400,0.456400,0.187755,0.441755,0.202400,0.406400,0.202400,-0.356400,0.397599,-0.356400,0.397599,0.406400,0.412244,0.441755,0.447599,0.456400,0.752399,0.456400,0.787754,0.441755,0.802399,0.406400,0.802399,-0.856393,0.787754,-0.891748,
0.752399,-0.906393,-0.752399,-0.906393,-0.787754,-0.891748,-0.802399,-0.856393,-0.802399,0.406400,-0.787754,0.441755,-0.752399,0.456400,-0.447599,0.456400,-0.412244,0.441755,-0.412244,0.441755,$1*%
G04 Aperture macros list end*
%ADD10C,0.150000*%
%ADD11C,0.125000*%
%ADD12C,0.170000*%
%ADD13C,0.120000*%
%ADD14C,0.050000*%
%ADD15C,0.152400*%
%ADD16C,0.000000*%
%ADD17C,2.000000*%
%ADD18RoundRect,0.272124X0.342876X-0.342876X0.342876X0.342876X-0.342876X0.342876X-0.342876X-0.342876X0*%
%ADD19RoundRect,0.087500X0.087500X-0.400000X0.087500X0.400000X-0.087500X0.400000X-0.087500X-0.400000X0*%
%ADD20RoundRect,0.087500X0.400000X-0.087500X0.400000X0.087500X-0.400000X0.087500X-0.400000X-0.087500X0*%
%ADD21RoundRect,0.050000X1.300000X-1.300000X1.300000X1.300000X-1.300000X1.300000X-1.300000X-1.300000X0*%
%ADD22RoundRect,0.262500X-0.325000X-0.262500X0.325000X-0.262500X0.325000X0.262500X-0.325000X0.262500X0*%
%ADD23C,4.100000*%
%ADD24RoundRect,0.050000X0.800000X-0.800000X0.800000X0.800000X-0.800000X0.800000X-0.800000X-0.800000X0*%
%ADD25C,1.700000*%
%ADD26RoundRect,0.050000X-0.850000X0.850000X-0.850000X-0.850000X0.850000X-0.850000X0.850000X0.850000X0*%
%ADD27C,3.200000*%
%ADD28C,4.800000*%
%ADD29RoundRect,0.050000X-1.400000X-1.400000X1.400000X-1.400000X1.400000X1.400000X-1.400000X1.400000X0*%
%ADD30O,1.800000X1.800000*%
%ADD31C,2.900000*%
%ADD32C,3.300000*%
%ADD33RoundRect,0.262500X0.262500X-0.325000X0.262500X0.325000X-0.262500X0.325000X-0.262500X-0.325000X0*%
%ADD34RoundRect,0.262500X0.325000X0.262500X-0.325000X0.262500X-0.325000X-0.262500X0.325000X-0.262500X0*%
%ADD35RoundRect,0.050000X0.850000X-0.850000X0.850000X0.850000X-0.850000X0.850000X-0.850000X-0.850000X0*%
%ADD36C,1.800000*%
%ADD37RoundRect,0.262500X-0.262500X0.325000X-0.262500X-0.325000X0.262500X-0.325000X0.262500X0.325000X0*%
%ADD38RoundRect,0.050000X-0.406400X0.152400X-0.406400X-0.152400X0.406400X-0.152400X0.406400X0.152400X0*%
%ADD39FreePoly0,180.000000*%
%ADD40FreePoly1,180.000000*%
%ADD41RoundRect,0.050000X0.330200X0.127000X-0.330200X0.127000X-0.330200X-0.127000X0.330200X-0.127000X0*%
%ADD42RoundRect,0.050000X0.952500X0.876300X-0.952500X0.876300X-0.952500X-0.876300X0.952500X-0.876300X0*%
%ADD43RoundRect,0.087500X-0.400000X-0.087500X0.400000X-0.087500X0.400000X0.087500X-0.400000X0.087500X0*%
%ADD44RoundRect,0.087500X-0.087500X-0.400000X0.087500X-0.400000X0.087500X0.400000X-0.087500X0.400000X0*%
%ADD45RoundRect,0.050000X-1.300000X-1.300000X1.300000X-1.300000X1.300000X1.300000X-1.300000X1.300000X0*%
%ADD46RoundRect,0.050000X-0.152400X-0.406400X0.152400X-0.406400X0.152400X0.406400X-0.152400X0.406400X0*%
%ADD47FreePoly0,270.000000*%
%ADD48FreePoly2,270.000000*%
%ADD49RoundRect,0.225000X0.475000X-0.225000X0.475000X0.225000X-0.475000X0.225000X-0.475000X-0.225000X0*%
%ADD50O,1.400000X0.900000*%
%ADD51RoundRect,0.050000X1.400000X1.400000X-1.400000X1.400000X-1.400000X-1.400000X1.400000X-1.400000X0*%
%ADD52RoundRect,0.050000X-0.666750X-0.215900X0.666750X-0.215900X0.666750X0.215900X-0.666750X0.215900X0*%
%ADD53RoundRect,0.225000X-0.225000X-0.475000X0.225000X-0.475000X0.225000X0.475000X-0.225000X0.475000X0*%
%ADD54O,0.900000X1.400000*%
G04 APERTURE END LIST*
D10*
X162788600Y-107600000D02*
X174200000Y-107600000D01*
X174200000Y-115400000D01*
X162788600Y-115400000D01*
X162788600Y-107600000D01*
X149700000Y-101300000D02*
X158700000Y-101300000D01*
X158700000Y-113800000D01*
X149700000Y-113800000D01*
X149700000Y-101300000D01*
X125636779Y-99569819D02*
X125636779Y-98903152D01*
X125636779Y-99093628D02*
X125684398Y-98998390D01*
X125684398Y-98998390D02*
X125732017Y-98950771D01*
X125732017Y-98950771D02*
X125827255Y-98903152D01*
X125827255Y-98903152D02*
X125922493Y-98903152D01*
X126398684Y-99569819D02*
X126303446Y-99522200D01*
X126303446Y-99522200D02*
X126255827Y-99474580D01*
X126255827Y-99474580D02*
X126208208Y-99379342D01*
X126208208Y-99379342D02*
X126208208Y-99093628D01*
X126208208Y-99093628D02*
X126255827Y-98998390D01*
X126255827Y-98998390D02*
X126303446Y-98950771D01*
X126303446Y-98950771D02*
X126398684Y-98903152D01*
X126398684Y-98903152D02*
X126541541Y-98903152D01*
X126541541Y-98903152D02*
X126636779Y-98950771D01*
X126636779Y-98950771D02*
X126684398Y-98998390D01*
X126684398Y-98998390D02*
X126732017Y-99093628D01*
X126732017Y-99093628D02*
X126732017Y-99379342D01*
X126732017Y-99379342D02*
X126684398Y-99474580D01*
X126684398Y-99474580D02*
X126636779Y-99522200D01*
X126636779Y-99522200D02*
X126541541Y-99569819D01*
X126541541Y-99569819D02*
X126398684Y-99569819D01*
X127017732Y-98903152D02*
X127398684Y-98903152D01*
X127160589Y-98569819D02*
X127160589Y-99426961D01*
X127160589Y-99426961D02*
X127208208Y-99522200D01*
X127208208Y-99522200D02*
X127303446Y-99569819D01*
X127303446Y-99569819D02*
X127398684Y-99569819D01*
X127874875Y-99569819D02*
X127779637Y-99522200D01*
X127779637Y-99522200D02*
X127732018Y-99474580D01*
X127732018Y-99474580D02*
X127684399Y-99379342D01*
X127684399Y-99379342D02*
X127684399Y-99093628D01*
X127684399Y-99093628D02*
X127732018Y-98998390D01*
X127732018Y-98998390D02*
X127779637Y-98950771D01*
X127779637Y-98950771D02*
X127874875Y-98903152D01*
X127874875Y-98903152D02*
X128017732Y-98903152D01*
X128017732Y-98903152D02*
X128112970Y-98950771D01*
X128112970Y-98950771D02*
X128160589Y-98998390D01*
X128160589Y-98998390D02*
X128208208Y-99093628D01*
X128208208Y-99093628D02*
X128208208Y-99379342D01*
X128208208Y-99379342D02*
X128160589Y-99474580D01*
X128160589Y-99474580D02*
X128112970Y-99522200D01*
X128112970Y-99522200D02*
X128017732Y-99569819D01*
X128017732Y-99569819D02*
X127874875Y-99569819D01*
X128398685Y-99665057D02*
X129160589Y-99665057D01*
X129398685Y-98903152D02*
X129398685Y-99903152D01*
X129398685Y-98950771D02*
X129493923Y-98903152D01*
X129493923Y-98903152D02*
X129684399Y-98903152D01*
X129684399Y-98903152D02*
X129779637Y-98950771D01*
X129779637Y-98950771D02*
X129827256Y-98998390D01*
X129827256Y-98998390D02*
X129874875Y-99093628D01*
X129874875Y-99093628D02*
X129874875Y-99379342D01*
X129874875Y-99379342D02*
X129827256Y-99474580D01*
X129827256Y-99474580D02*
X129779637Y-99522200D01*
X129779637Y-99522200D02*
X129684399Y-99569819D01*
X129684399Y-99569819D02*
X129493923Y-99569819D01*
X129493923Y-99569819D02*
X129398685Y-99522200D01*
X130732018Y-99569819D02*
X130732018Y-98569819D01*
X130732018Y-99522200D02*
X130636780Y-99569819D01*
X130636780Y-99569819D02*
X130446304Y-99569819D01*
X130446304Y-99569819D02*
X130351066Y-99522200D01*
X130351066Y-99522200D02*
X130303447Y-99474580D01*
X130303447Y-99474580D02*
X130255828Y-99379342D01*
X130255828Y-99379342D02*
X130255828Y-99093628D01*
X130255828Y-99093628D02*
X130303447Y-98998390D01*
X130303447Y-98998390D02*
X130351066Y-98950771D01*
X130351066Y-98950771D02*
X130446304Y-98903152D01*
X130446304Y-98903152D02*
X130636780Y-98903152D01*
X130636780Y-98903152D02*
X130732018Y-98950771D01*
D11*
G36*
X179625839Y-119855018D02*
G01*
X179667715Y-119869262D01*
X179703643Y-119892460D01*
X179734603Y-119925376D01*
X179757835Y-119963866D01*
X179775449Y-120010888D01*
X179786851Y-120068136D01*
X179790963Y-120137623D01*
X179786860Y-120206699D01*
X179775473Y-120263724D01*
X179757861Y-120310670D01*
X179734603Y-120349199D01*
X179703647Y-120382085D01*
X179667721Y-120405265D01*
X179625843Y-120419499D01*
X179576456Y-120424487D01*
X179527462Y-120419513D01*
X179485821Y-120405302D01*
X179450001Y-120382125D01*
X179419042Y-120349199D01*
X179395785Y-120310670D01*
X179378172Y-120263724D01*
X179366785Y-120206699D01*
X179362683Y-120137623D01*
X179366794Y-120068136D01*
X179378196Y-120010888D01*
X179395811Y-119963866D01*
X179419042Y-119925376D01*
X179450005Y-119892420D01*
X179485826Y-119869225D01*
X179527467Y-119855004D01*
X179576456Y-119850027D01*
X179625839Y-119855018D01*
G37*
G36*
X178418934Y-119857226D02*
G01*
X178467904Y-119877767D01*
X178508993Y-119911699D01*
X178539643Y-119955821D01*
X178559129Y-120009927D01*
X178566695Y-120076685D01*
X178118571Y-120077356D01*
X178131721Y-120007965D01*
X178156175Y-119953027D01*
X178191294Y-119909623D01*
X178236676Y-119877250D01*
X178291901Y-119857167D01*
X178359699Y-119850027D01*
X178418934Y-119857226D01*
G37*
G36*
X181991718Y-119857226D02*
G01*
X182040688Y-119877767D01*
X182081777Y-119911699D01*
X182112427Y-119955821D01*
X182131913Y-120009927D01*
X182139480Y-120076685D01*
X181691355Y-120077356D01*
X181704506Y-120007965D01*
X181728960Y-119953027D01*
X181764078Y-119909623D01*
X181809461Y-119877250D01*
X181864685Y-119857167D01*
X181932484Y-119850027D01*
X181991718Y-119857226D01*
G37*
G36*
X177510421Y-119629191D02*
G01*
X177559394Y-119644904D01*
X177596013Y-119668982D01*
X177623361Y-119702650D01*
X177640642Y-119746716D01*
X177646938Y-119804415D01*
X177640658Y-119862130D01*
X177623387Y-119906446D01*
X177596013Y-119940519D01*
X177559338Y-119964979D01*
X177510363Y-119980908D01*
X177445376Y-119986803D01*
X177271903Y-119986803D01*
X177271903Y-119623370D01*
X177445376Y-119623370D01*
X177510421Y-119629191D01*
G37*
G36*
X183025940Y-120930294D02*
G01*
X174926214Y-120930294D01*
X174926214Y-120530000D01*
X175037325Y-120530000D01*
X175171170Y-120530000D01*
X175171170Y-119634483D01*
X175434220Y-120334605D01*
X175572889Y-120334605D01*
X175835877Y-119634483D01*
X175835877Y-120530000D01*
X175970455Y-120530000D01*
X176257135Y-120530000D01*
X176401299Y-120530000D01*
X176401299Y-120358053D01*
X176257135Y-120358053D01*
X176257135Y-120530000D01*
X175970455Y-120530000D01*
X175970455Y-119986803D01*
X177133906Y-119986803D01*
X177133906Y-120530000D01*
X177271903Y-120530000D01*
X177271903Y-120100132D01*
X177422173Y-120100132D01*
X177475938Y-120104330D01*
X177518294Y-120115822D01*
X177551561Y-120133532D01*
X177579780Y-120159113D01*
X177612227Y-120202253D01*
X177649624Y-120269087D01*
X177780111Y-120530000D01*
X177928367Y-120530000D01*
X177788293Y-120252051D01*
X177743810Y-120171915D01*
X177730655Y-120153866D01*
X177983321Y-120153866D01*
X177988045Y-120227087D01*
X178001549Y-120291394D01*
X178023154Y-120348094D01*
X178052636Y-120398273D01*
X178090239Y-120442744D01*
X178134734Y-120480264D01*
X178185021Y-120509708D01*
X178241925Y-120531302D01*
X178306548Y-120544810D01*
X178380216Y-120549539D01*
X178452846Y-120545777D01*
X178524319Y-120534518D01*
X178541585Y-120530000D01*
X178898682Y-120530000D01*
X179024406Y-120530000D01*
X179024406Y-120137623D01*
X179232868Y-120137623D01*
X179238864Y-120226384D01*
X179255803Y-120302124D01*
X179282606Y-120366923D01*
X179318902Y-120422472D01*
X179365793Y-120469860D01*
X179418337Y-120502964D01*
X179477705Y-120523048D01*
X179545743Y-120530000D01*
X179601402Y-120526057D01*
X179649476Y-120514849D01*
X179691189Y-120496966D01*
X179728745Y-120471653D01*
X179761910Y-120438693D01*
X179790963Y-120397131D01*
X179790963Y-120457398D01*
X179786448Y-120522432D01*
X179774023Y-120574698D01*
X179754874Y-120616566D01*
X179729474Y-120649923D01*
X179696963Y-120676480D01*
X179656519Y-120696294D01*
X179606411Y-120709055D01*
X179544399Y-120713670D01*
X179488894Y-120710081D01*
X179434429Y-120699321D01*
X179380930Y-120681438D01*
X179325130Y-120655052D01*
X179325130Y-120776196D01*
X179381283Y-120795225D01*
X179439192Y-120808620D01*
X179498990Y-120816472D01*
X179564183Y-120819183D01*
X179653848Y-120812304D01*
X179725898Y-120793313D01*
X179783729Y-120763829D01*
X179829919Y-120724234D01*
X179865479Y-120674892D01*
X179892541Y-120612307D01*
X179910231Y-120533488D01*
X179910459Y-120530000D01*
X180170821Y-120530000D01*
X180297217Y-120530000D01*
X180297217Y-120095919D01*
X180301316Y-120039986D01*
X180312861Y-119992778D01*
X180331128Y-119952807D01*
X180355957Y-119918904D01*
X180387387Y-119890925D01*
X180423883Y-119870824D01*
X180466446Y-119858331D01*
X180516486Y-119853935D01*
X180570360Y-119860489D01*
X180611681Y-119878639D01*
X180643492Y-119907913D01*
X180665561Y-119946316D01*
X180680319Y-119999082D01*
X180685868Y-120070579D01*
X180685868Y-120530000D01*
X180811592Y-120530000D01*
X180811592Y-120066427D01*
X180806594Y-119985909D01*
X180792833Y-119920756D01*
X180771705Y-119868269D01*
X180743937Y-119826214D01*
X180707399Y-119791411D01*
X180663157Y-119766139D01*
X180656152Y-119764054D01*
X180968396Y-119764054D01*
X180968396Y-119861751D01*
X181060659Y-119861751D01*
X181060659Y-120277452D01*
X181065113Y-120351832D01*
X181076900Y-120406989D01*
X181094186Y-120447109D01*
X181115980Y-120475594D01*
X181144808Y-120496968D01*
X181185452Y-120513981D01*
X181241377Y-120525604D01*
X181316809Y-120530000D01*
X181445891Y-120530000D01*
X181445891Y-120424487D01*
X181316809Y-120424487D01*
X181264624Y-120420615D01*
X181231903Y-120411035D01*
X181212578Y-120397803D01*
X181200276Y-120377656D01*
X181190901Y-120340433D01*
X181186994Y-120277452D01*
X181186994Y-120153866D01*
X181556106Y-120153866D01*
X181560830Y-120227087D01*
X181574333Y-120291394D01*
X181595938Y-120348094D01*
X181625421Y-120398273D01*
X181663023Y-120442744D01*
X181707518Y-120480264D01*
X181757805Y-120509708D01*
X181814710Y-120531302D01*
X181879333Y-120544810D01*
X181953000Y-120549539D01*
X182025630Y-120545777D01*
X182097103Y-120534518D01*
X182167229Y-120516168D01*
X182235833Y-120490921D01*
X182235833Y-120373684D01*
X182168033Y-120404694D01*
X182100889Y-120426441D01*
X182032076Y-120439597D01*
X181960511Y-120444026D01*
X181898316Y-120439217D01*
X181846206Y-120425691D01*
X181802386Y-120404283D01*
X181765483Y-120375088D01*
X181735668Y-120338721D01*
X181712437Y-120294249D01*
X181696018Y-120240128D01*
X181687264Y-120174382D01*
X182265204Y-120174382D01*
X182265204Y-120113321D01*
X182258949Y-120028341D01*
X182241315Y-119956496D01*
X182213386Y-119895547D01*
X182175383Y-119843738D01*
X182127324Y-119800954D01*
X182071696Y-119770259D01*
X182050624Y-119764054D01*
X182466704Y-119764054D01*
X182466704Y-120530000D01*
X182593100Y-120530000D01*
X182593100Y-120125411D01*
X182597257Y-120059942D01*
X182608769Y-120006344D01*
X182626568Y-119962577D01*
X182650130Y-119926964D01*
X182680990Y-119897287D01*
X182717670Y-119875926D01*
X182761345Y-119862575D01*
X182813712Y-119857843D01*
X182868728Y-119863583D01*
X182914829Y-119881290D01*
X182914157Y-119752330D01*
X182879291Y-119746468D01*
X182850593Y-119744515D01*
X182790823Y-119748578D01*
X182739841Y-119760056D01*
X182696231Y-119778220D01*
X182657095Y-119804178D01*
X182622826Y-119838194D01*
X182593100Y-119881290D01*
X182593100Y-119764054D01*
X182466704Y-119764054D01*
X182050624Y-119764054D01*
X182007004Y-119751209D01*
X181931140Y-119744515D01*
X181862447Y-119749320D01*
X181801872Y-119763102D01*
X181748155Y-119785283D01*
X181700280Y-119815798D01*
X181657527Y-119855095D01*
X181614499Y-119912938D01*
X181582978Y-119980661D01*
X181563131Y-120060159D01*
X181561842Y-120077356D01*
X181556106Y-120153866D01*
X181186994Y-120153866D01*
X181186994Y-119861751D01*
X181445891Y-119861751D01*
X181445891Y-119764054D01*
X181186994Y-119764054D01*
X181186994Y-119545212D01*
X181060659Y-119545212D01*
X181060659Y-119764054D01*
X180968396Y-119764054D01*
X180656152Y-119764054D01*
X180609614Y-119750203D01*
X180544513Y-119744515D01*
X180492115Y-119748480D01*
X180445392Y-119759928D01*
X180403401Y-119778525D01*
X180365357Y-119804311D01*
X180330021Y-119838211D01*
X180297217Y-119881290D01*
X180297217Y-119467055D01*
X180170821Y-119467055D01*
X180170821Y-120530000D01*
X179910459Y-120530000D01*
X179916687Y-120434745D01*
X179916687Y-119764054D01*
X179790963Y-119764054D01*
X179790963Y-119877383D01*
X179761910Y-119835821D01*
X179728745Y-119802861D01*
X179691189Y-119777548D01*
X179649476Y-119759665D01*
X179601402Y-119748457D01*
X179545743Y-119744515D01*
X179477705Y-119751466D01*
X179418337Y-119771550D01*
X179365793Y-119804654D01*
X179318902Y-119852042D01*
X179282632Y-119907582D01*
X179255827Y-119972484D01*
X179238873Y-120048461D01*
X179232868Y-120137623D01*
X179024406Y-120137623D01*
X179024406Y-119764054D01*
X178898682Y-119764054D01*
X178898682Y-120530000D01*
X178541585Y-120530000D01*
X178594444Y-120516168D01*
X178663049Y-120490921D01*
X178663049Y-120373684D01*
X178595249Y-120404694D01*
X178528105Y-120426441D01*
X178459292Y-120439597D01*
X178387726Y-120444026D01*
X178325532Y-120439217D01*
X178273422Y-120425691D01*
X178229601Y-120404283D01*
X178192698Y-120375088D01*
X178162883Y-120338721D01*
X178139652Y-120294249D01*
X178123234Y-120240128D01*
X178114480Y-120174382D01*
X178692419Y-120174382D01*
X178692419Y-120113321D01*
X178686165Y-120028341D01*
X178668530Y-119956496D01*
X178640602Y-119895547D01*
X178602599Y-119843738D01*
X178554540Y-119800954D01*
X178498911Y-119770259D01*
X178434219Y-119751209D01*
X178358356Y-119744515D01*
X178289663Y-119749320D01*
X178229088Y-119763102D01*
X178175371Y-119785283D01*
X178127496Y-119815798D01*
X178084743Y-119855095D01*
X178041715Y-119912938D01*
X178010193Y-119980661D01*
X177990346Y-120060159D01*
X177989057Y-120077356D01*
X177983321Y-120153866D01*
X177730655Y-120153866D01*
X177703907Y-120117168D01*
X177659504Y-120075274D01*
X177617506Y-120053054D01*
X177671176Y-120031601D01*
X177713980Y-120002208D01*
X177747627Y-119964699D01*
X177771831Y-119920228D01*
X177787005Y-119867464D01*
X177792384Y-119804476D01*
X177786277Y-119730994D01*
X177769294Y-119671311D01*
X177745115Y-119627278D01*
X178898682Y-119627278D01*
X179024406Y-119627278D01*
X179024406Y-119467055D01*
X178898682Y-119467055D01*
X178898682Y-119627278D01*
X177745115Y-119627278D01*
X177742622Y-119622737D01*
X177706289Y-119583314D01*
X177661912Y-119553431D01*
X177605529Y-119530544D01*
X177534441Y-119515529D01*
X177445376Y-119510041D01*
X177133906Y-119510041D01*
X177133906Y-119986803D01*
X175970455Y-119986803D01*
X175970455Y-119510041D01*
X175764802Y-119510041D01*
X175503218Y-120204729D01*
X175242916Y-119510041D01*
X175037325Y-119510041D01*
X175037325Y-120530000D01*
X174926214Y-120530000D01*
X174926214Y-119355944D01*
X183025940Y-119355944D01*
X183025940Y-120930294D01*
G37*
D10*
X150665350Y-113169819D02*
X150665350Y-112646009D01*
X150665350Y-112646009D02*
X150617731Y-112550771D01*
X150617731Y-112550771D02*
X150522493Y-112503152D01*
X150522493Y-112503152D02*
X150332017Y-112503152D01*
X150332017Y-112503152D02*
X150236779Y-112550771D01*
X150665350Y-113122200D02*
X150570112Y-113169819D01*
X150570112Y-113169819D02*
X150332017Y-113169819D01*
X150332017Y-113169819D02*
X150236779Y-113122200D01*
X150236779Y-113122200D02*
X150189160Y-113026961D01*
X150189160Y-113026961D02*
X150189160Y-112931723D01*
X150189160Y-112931723D02*
X150236779Y-112836485D01*
X150236779Y-112836485D02*
X150332017Y-112788866D01*
X150332017Y-112788866D02*
X150570112Y-112788866D01*
X150570112Y-112788866D02*
X150665350Y-112741247D01*
X151284398Y-113169819D02*
X151189160Y-113122200D01*
X151189160Y-113122200D02*
X151141541Y-113026961D01*
X151141541Y-113026961D02*
X151141541Y-112169819D01*
X151665351Y-113169819D02*
X151665351Y-112169819D01*
X151665351Y-112550771D02*
X151760589Y-112503152D01*
X151760589Y-112503152D02*
X151951065Y-112503152D01*
X151951065Y-112503152D02*
X152046303Y-112550771D01*
X152046303Y-112550771D02*
X152093922Y-112598390D01*
X152093922Y-112598390D02*
X152141541Y-112693628D01*
X152141541Y-112693628D02*
X152141541Y-112979342D01*
X152141541Y-112979342D02*
X152093922Y-113074580D01*
X152093922Y-113074580D02*
X152046303Y-113122200D01*
X152046303Y-113122200D02*
X151951065Y-113169819D01*
X151951065Y-113169819D02*
X151760589Y-113169819D01*
X151760589Y-113169819D02*
X151665351Y-113122200D01*
X152332018Y-113265057D02*
X153093922Y-113265057D01*
X153332018Y-113169819D02*
X153332018Y-112503152D01*
X153332018Y-112598390D02*
X153379637Y-112550771D01*
X153379637Y-112550771D02*
X153474875Y-112503152D01*
X153474875Y-112503152D02*
X153617732Y-112503152D01*
X153617732Y-112503152D02*
X153712970Y-112550771D01*
X153712970Y-112550771D02*
X153760589Y-112646009D01*
X153760589Y-112646009D02*
X153760589Y-113169819D01*
X153760589Y-112646009D02*
X153808208Y-112550771D01*
X153808208Y-112550771D02*
X153903446Y-112503152D01*
X153903446Y-112503152D02*
X154046303Y-112503152D01*
X154046303Y-112503152D02*
X154141542Y-112550771D01*
X154141542Y-112550771D02*
X154189161Y-112646009D01*
X154189161Y-112646009D02*
X154189161Y-113169819D01*
X154808208Y-113169819D02*
X154712970Y-113122200D01*
X154712970Y-113122200D02*
X154665351Y-113026961D01*
X154665351Y-113026961D02*
X154665351Y-112169819D01*
X155189161Y-113169819D02*
X155189161Y-112169819D01*
X155189161Y-112550771D02*
X155284399Y-112503152D01*
X155284399Y-112503152D02*
X155474875Y-112503152D01*
X155474875Y-112503152D02*
X155570113Y-112550771D01*
X155570113Y-112550771D02*
X155617732Y-112598390D01*
X155617732Y-112598390D02*
X155665351Y-112693628D01*
X155665351Y-112693628D02*
X155665351Y-112979342D01*
X155665351Y-112979342D02*
X155617732Y-113074580D01*
X155617732Y-113074580D02*
X155570113Y-113122200D01*
X155570113Y-113122200D02*
X155474875Y-113169819D01*
X155474875Y-113169819D02*
X155284399Y-113169819D01*
X155284399Y-113169819D02*
X155189161Y-113122200D01*
X156808209Y-113122200D02*
X156903447Y-113169819D01*
X156903447Y-113169819D02*
X157093923Y-113169819D01*
X157093923Y-113169819D02*
X157189161Y-113122200D01*
X157189161Y-113122200D02*
X157236780Y-113026961D01*
X157236780Y-113026961D02*
X157236780Y-112979342D01*
X157236780Y-112979342D02*
X157189161Y-112884104D01*
X157189161Y-112884104D02*
X157093923Y-112836485D01*
X157093923Y-112836485D02*
X156951066Y-112836485D01*
X156951066Y-112836485D02*
X156855828Y-112788866D01*
X156855828Y-112788866D02*
X156808209Y-112693628D01*
X156808209Y-112693628D02*
X156808209Y-112646009D01*
X156808209Y-112646009D02*
X156855828Y-112550771D01*
X156855828Y-112550771D02*
X156951066Y-112503152D01*
X156951066Y-112503152D02*
X157093923Y-112503152D01*
X157093923Y-112503152D02*
X157189161Y-112550771D01*
X157570114Y-112503152D02*
X157760590Y-113169819D01*
X157760590Y-113169819D02*
X157951066Y-112693628D01*
X157951066Y-112693628D02*
X158141542Y-113169819D01*
X158141542Y-113169819D02*
X158332018Y-112503152D01*
X134236779Y-84946009D02*
X134570112Y-84946009D01*
X134712969Y-85469819D02*
X134236779Y-85469819D01*
X134236779Y-85469819D02*
X134236779Y-84469819D01*
X134236779Y-84469819D02*
X134712969Y-84469819D01*
X135141541Y-84803152D02*
X135141541Y-85469819D01*
X135141541Y-84898390D02*
X135189160Y-84850771D01*
X135189160Y-84850771D02*
X135284398Y-84803152D01*
X135284398Y-84803152D02*
X135427255Y-84803152D01*
X135427255Y-84803152D02*
X135522493Y-84850771D01*
X135522493Y-84850771D02*
X135570112Y-84946009D01*
X135570112Y-84946009D02*
X135570112Y-85469819D01*
X136474874Y-84803152D02*
X136474874Y-85612676D01*
X136474874Y-85612676D02*
X136427255Y-85707914D01*
X136427255Y-85707914D02*
X136379636Y-85755533D01*
X136379636Y-85755533D02*
X136284398Y-85803152D01*
X136284398Y-85803152D02*
X136141541Y-85803152D01*
X136141541Y-85803152D02*
X136046303Y-85755533D01*
X136474874Y-85422200D02*
X136379636Y-85469819D01*
X136379636Y-85469819D02*
X136189160Y-85469819D01*
X136189160Y-85469819D02*
X136093922Y-85422200D01*
X136093922Y-85422200D02*
X136046303Y-85374580D01*
X136046303Y-85374580D02*
X135998684Y-85279342D01*
X135998684Y-85279342D02*
X135998684Y-84993628D01*
X135998684Y-84993628D02*
X136046303Y-84898390D01*
X136046303Y-84898390D02*
X136093922Y-84850771D01*
X136093922Y-84850771D02*
X136189160Y-84803152D01*
X136189160Y-84803152D02*
X136379636Y-84803152D01*
X136379636Y-84803152D02*
X136474874Y-84850771D01*
X136951065Y-85469819D02*
X136951065Y-84803152D01*
X136951065Y-84469819D02*
X136903446Y-84517438D01*
X136903446Y-84517438D02*
X136951065Y-84565057D01*
X136951065Y-84565057D02*
X136998684Y-84517438D01*
X136998684Y-84517438D02*
X136951065Y-84469819D01*
X136951065Y-84469819D02*
X136951065Y-84565057D01*
X137427255Y-84803152D02*
X137427255Y-85469819D01*
X137427255Y-84898390D02*
X137474874Y-84850771D01*
X137474874Y-84850771D02*
X137570112Y-84803152D01*
X137570112Y-84803152D02*
X137712969Y-84803152D01*
X137712969Y-84803152D02*
X137808207Y-84850771D01*
X137808207Y-84850771D02*
X137855826Y-84946009D01*
X137855826Y-84946009D02*
X137855826Y-85469819D01*
X138712969Y-85422200D02*
X138617731Y-85469819D01*
X138617731Y-85469819D02*
X138427255Y-85469819D01*
X138427255Y-85469819D02*
X138332017Y-85422200D01*
X138332017Y-85422200D02*
X138284398Y-85326961D01*
X138284398Y-85326961D02*
X138284398Y-84946009D01*
X138284398Y-84946009D02*
X138332017Y-84850771D01*
X138332017Y-84850771D02*
X138427255Y-84803152D01*
X138427255Y-84803152D02*
X138617731Y-84803152D01*
X138617731Y-84803152D02*
X138712969Y-84850771D01*
X138712969Y-84850771D02*
X138760588Y-84946009D01*
X138760588Y-84946009D02*
X138760588Y-85041247D01*
X138760588Y-85041247D02*
X138284398Y-85136485D01*
X139570112Y-85422200D02*
X139474874Y-85469819D01*
X139474874Y-85469819D02*
X139284398Y-85469819D01*
X139284398Y-85469819D02*
X139189160Y-85422200D01*
X139189160Y-85422200D02*
X139141541Y-85326961D01*
X139141541Y-85326961D02*
X139141541Y-84946009D01*
X139141541Y-84946009D02*
X139189160Y-84850771D01*
X139189160Y-84850771D02*
X139284398Y-84803152D01*
X139284398Y-84803152D02*
X139474874Y-84803152D01*
X139474874Y-84803152D02*
X139570112Y-84850771D01*
X139570112Y-84850771D02*
X139617731Y-84946009D01*
X139617731Y-84946009D02*
X139617731Y-85041247D01*
X139617731Y-85041247D02*
X139141541Y-85136485D01*
X140046303Y-85469819D02*
X140046303Y-84803152D01*
X140046303Y-84993628D02*
X140093922Y-84898390D01*
X140093922Y-84898390D02*
X140141541Y-84850771D01*
X140141541Y-84850771D02*
X140236779Y-84803152D01*
X140236779Y-84803152D02*
X140332017Y-84803152D01*
X140665351Y-85469819D02*
X140665351Y-84803152D01*
X140665351Y-84469819D02*
X140617732Y-84517438D01*
X140617732Y-84517438D02*
X140665351Y-84565057D01*
X140665351Y-84565057D02*
X140712970Y-84517438D01*
X140712970Y-84517438D02*
X140665351Y-84469819D01*
X140665351Y-84469819D02*
X140665351Y-84565057D01*
X141141541Y-84803152D02*
X141141541Y-85469819D01*
X141141541Y-84898390D02*
X141189160Y-84850771D01*
X141189160Y-84850771D02*
X141284398Y-84803152D01*
X141284398Y-84803152D02*
X141427255Y-84803152D01*
X141427255Y-84803152D02*
X141522493Y-84850771D01*
X141522493Y-84850771D02*
X141570112Y-84946009D01*
X141570112Y-84946009D02*
X141570112Y-85469819D01*
X142474874Y-84803152D02*
X142474874Y-85612676D01*
X142474874Y-85612676D02*
X142427255Y-85707914D01*
X142427255Y-85707914D02*
X142379636Y-85755533D01*
X142379636Y-85755533D02*
X142284398Y-85803152D01*
X142284398Y-85803152D02*
X142141541Y-85803152D01*
X142141541Y-85803152D02*
X142046303Y-85755533D01*
X142474874Y-85422200D02*
X142379636Y-85469819D01*
X142379636Y-85469819D02*
X142189160Y-85469819D01*
X142189160Y-85469819D02*
X142093922Y-85422200D01*
X142093922Y-85422200D02*
X142046303Y-85374580D01*
X142046303Y-85374580D02*
X141998684Y-85279342D01*
X141998684Y-85279342D02*
X141998684Y-84993628D01*
X141998684Y-84993628D02*
X142046303Y-84898390D01*
X142046303Y-84898390D02*
X142093922Y-84850771D01*
X142093922Y-84850771D02*
X142189160Y-84803152D01*
X142189160Y-84803152D02*
X142379636Y-84803152D01*
X142379636Y-84803152D02*
X142474874Y-84850771D01*
X143665351Y-85422200D02*
X143808208Y-85469819D01*
X143808208Y-85469819D02*
X144046303Y-85469819D01*
X144046303Y-85469819D02*
X144141541Y-85422200D01*
X144141541Y-85422200D02*
X144189160Y-85374580D01*
X144189160Y-85374580D02*
X144236779Y-85279342D01*
X144236779Y-85279342D02*
X144236779Y-85184104D01*
X144236779Y-85184104D02*
X144189160Y-85088866D01*
X144189160Y-85088866D02*
X144141541Y-85041247D01*
X144141541Y-85041247D02*
X144046303Y-84993628D01*
X144046303Y-84993628D02*
X143855827Y-84946009D01*
X143855827Y-84946009D02*
X143760589Y-84898390D01*
X143760589Y-84898390D02*
X143712970Y-84850771D01*
X143712970Y-84850771D02*
X143665351Y-84755533D01*
X143665351Y-84755533D02*
X143665351Y-84660295D01*
X143665351Y-84660295D02*
X143712970Y-84565057D01*
X143712970Y-84565057D02*
X143760589Y-84517438D01*
X143760589Y-84517438D02*
X143855827Y-84469819D01*
X143855827Y-84469819D02*
X144093922Y-84469819D01*
X144093922Y-84469819D02*
X144236779Y-84517438D01*
X145093922Y-85469819D02*
X145093922Y-84946009D01*
X145093922Y-84946009D02*
X145046303Y-84850771D01*
X145046303Y-84850771D02*
X144951065Y-84803152D01*
X144951065Y-84803152D02*
X144760589Y-84803152D01*
X144760589Y-84803152D02*
X144665351Y-84850771D01*
X145093922Y-85422200D02*
X144998684Y-85469819D01*
X144998684Y-85469819D02*
X144760589Y-85469819D01*
X144760589Y-85469819D02*
X144665351Y-85422200D01*
X144665351Y-85422200D02*
X144617732Y-85326961D01*
X144617732Y-85326961D02*
X144617732Y-85231723D01*
X144617732Y-85231723D02*
X144665351Y-85136485D01*
X144665351Y-85136485D02*
X144760589Y-85088866D01*
X144760589Y-85088866D02*
X144998684Y-85088866D01*
X144998684Y-85088866D02*
X145093922Y-85041247D01*
X145570113Y-85469819D02*
X145570113Y-84803152D01*
X145570113Y-84898390D02*
X145617732Y-84850771D01*
X145617732Y-84850771D02*
X145712970Y-84803152D01*
X145712970Y-84803152D02*
X145855827Y-84803152D01*
X145855827Y-84803152D02*
X145951065Y-84850771D01*
X145951065Y-84850771D02*
X145998684Y-84946009D01*
X145998684Y-84946009D02*
X145998684Y-85469819D01*
X145998684Y-84946009D02*
X146046303Y-84850771D01*
X146046303Y-84850771D02*
X146141541Y-84803152D01*
X146141541Y-84803152D02*
X146284398Y-84803152D01*
X146284398Y-84803152D02*
X146379637Y-84850771D01*
X146379637Y-84850771D02*
X146427256Y-84946009D01*
X146427256Y-84946009D02*
X146427256Y-85469819D01*
X146903446Y-84803152D02*
X146903446Y-85803152D01*
X146903446Y-84850771D02*
X146998684Y-84803152D01*
X146998684Y-84803152D02*
X147189160Y-84803152D01*
X147189160Y-84803152D02*
X147284398Y-84850771D01*
X147284398Y-84850771D02*
X147332017Y-84898390D01*
X147332017Y-84898390D02*
X147379636Y-84993628D01*
X147379636Y-84993628D02*
X147379636Y-85279342D01*
X147379636Y-85279342D02*
X147332017Y-85374580D01*
X147332017Y-85374580D02*
X147284398Y-85422200D01*
X147284398Y-85422200D02*
X147189160Y-85469819D01*
X147189160Y-85469819D02*
X146998684Y-85469819D01*
X146998684Y-85469819D02*
X146903446Y-85422200D01*
X147951065Y-85469819D02*
X147855827Y-85422200D01*
X147855827Y-85422200D02*
X147808208Y-85326961D01*
X147808208Y-85326961D02*
X147808208Y-84469819D01*
X148712970Y-85422200D02*
X148617732Y-85469819D01*
X148617732Y-85469819D02*
X148427256Y-85469819D01*
X148427256Y-85469819D02*
X148332018Y-85422200D01*
X148332018Y-85422200D02*
X148284399Y-85326961D01*
X148284399Y-85326961D02*
X148284399Y-84946009D01*
X148284399Y-84946009D02*
X148332018Y-84850771D01*
X148332018Y-84850771D02*
X148427256Y-84803152D01*
X148427256Y-84803152D02*
X148617732Y-84803152D01*
X148617732Y-84803152D02*
X148712970Y-84850771D01*
X148712970Y-84850771D02*
X148760589Y-84946009D01*
X148760589Y-84946009D02*
X148760589Y-85041247D01*
X148760589Y-85041247D02*
X148284399Y-85136485D01*
X164589160Y-114922200D02*
X164684398Y-114969819D01*
X164684398Y-114969819D02*
X164874874Y-114969819D01*
X164874874Y-114969819D02*
X164970112Y-114922200D01*
X164970112Y-114922200D02*
X165017731Y-114826961D01*
X165017731Y-114826961D02*
X165017731Y-114779342D01*
X165017731Y-114779342D02*
X164970112Y-114684104D01*
X164970112Y-114684104D02*
X164874874Y-114636485D01*
X164874874Y-114636485D02*
X164732017Y-114636485D01*
X164732017Y-114636485D02*
X164636779Y-114588866D01*
X164636779Y-114588866D02*
X164589160Y-114493628D01*
X164589160Y-114493628D02*
X164589160Y-114446009D01*
X164589160Y-114446009D02*
X164636779Y-114350771D01*
X164636779Y-114350771D02*
X164732017Y-114303152D01*
X164732017Y-114303152D02*
X164874874Y-114303152D01*
X164874874Y-114303152D02*
X164970112Y-114350771D01*
X165827255Y-114922200D02*
X165732017Y-114969819D01*
X165732017Y-114969819D02*
X165541541Y-114969819D01*
X165541541Y-114969819D02*
X165446303Y-114922200D01*
X165446303Y-114922200D02*
X165398684Y-114826961D01*
X165398684Y-114826961D02*
X165398684Y-114446009D01*
X165398684Y-114446009D02*
X165446303Y-114350771D01*
X165446303Y-114350771D02*
X165541541Y-114303152D01*
X165541541Y-114303152D02*
X165732017Y-114303152D01*
X165732017Y-114303152D02*
X165827255Y-114350771D01*
X165827255Y-114350771D02*
X165874874Y-114446009D01*
X165874874Y-114446009D02*
X165874874Y-114541247D01*
X165874874Y-114541247D02*
X165398684Y-114636485D01*
X166446303Y-114969819D02*
X166351065Y-114922200D01*
X166351065Y-114922200D02*
X166303446Y-114826961D01*
X166303446Y-114826961D02*
X166303446Y-113969819D01*
X166589161Y-115065057D02*
X167351065Y-115065057D01*
X167589161Y-114969819D02*
X167589161Y-114303152D01*
X167589161Y-114398390D02*
X167636780Y-114350771D01*
X167636780Y-114350771D02*
X167732018Y-114303152D01*
X167732018Y-114303152D02*
X167874875Y-114303152D01*
X167874875Y-114303152D02*
X167970113Y-114350771D01*
X167970113Y-114350771D02*
X168017732Y-114446009D01*
X168017732Y-114446009D02*
X168017732Y-114969819D01*
X168017732Y-114446009D02*
X168065351Y-114350771D01*
X168065351Y-114350771D02*
X168160589Y-114303152D01*
X168160589Y-114303152D02*
X168303446Y-114303152D01*
X168303446Y-114303152D02*
X168398685Y-114350771D01*
X168398685Y-114350771D02*
X168446304Y-114446009D01*
X168446304Y-114446009D02*
X168446304Y-114969819D01*
X169065351Y-114969819D02*
X168970113Y-114922200D01*
X168970113Y-114922200D02*
X168922494Y-114874580D01*
X168922494Y-114874580D02*
X168874875Y-114779342D01*
X168874875Y-114779342D02*
X168874875Y-114493628D01*
X168874875Y-114493628D02*
X168922494Y-114398390D01*
X168922494Y-114398390D02*
X168970113Y-114350771D01*
X168970113Y-114350771D02*
X169065351Y-114303152D01*
X169065351Y-114303152D02*
X169208208Y-114303152D01*
X169208208Y-114303152D02*
X169303446Y-114350771D01*
X169303446Y-114350771D02*
X169351065Y-114398390D01*
X169351065Y-114398390D02*
X169398684Y-114493628D01*
X169398684Y-114493628D02*
X169398684Y-114779342D01*
X169398684Y-114779342D02*
X169351065Y-114874580D01*
X169351065Y-114874580D02*
X169303446Y-114922200D01*
X169303446Y-114922200D02*
X169208208Y-114969819D01*
X169208208Y-114969819D02*
X169065351Y-114969819D01*
X170255827Y-114969819D02*
X170255827Y-113969819D01*
X170255827Y-114922200D02*
X170160589Y-114969819D01*
X170160589Y-114969819D02*
X169970113Y-114969819D01*
X169970113Y-114969819D02*
X169874875Y-114922200D01*
X169874875Y-114922200D02*
X169827256Y-114874580D01*
X169827256Y-114874580D02*
X169779637Y-114779342D01*
X169779637Y-114779342D02*
X169779637Y-114493628D01*
X169779637Y-114493628D02*
X169827256Y-114398390D01*
X169827256Y-114398390D02*
X169874875Y-114350771D01*
X169874875Y-114350771D02*
X169970113Y-114303152D01*
X169970113Y-114303152D02*
X170160589Y-114303152D01*
X170160589Y-114303152D02*
X170255827Y-114350771D01*
X171112970Y-114922200D02*
X171017732Y-114969819D01*
X171017732Y-114969819D02*
X170827256Y-114969819D01*
X170827256Y-114969819D02*
X170732018Y-114922200D01*
X170732018Y-114922200D02*
X170684399Y-114826961D01*
X170684399Y-114826961D02*
X170684399Y-114446009D01*
X170684399Y-114446009D02*
X170732018Y-114350771D01*
X170732018Y-114350771D02*
X170827256Y-114303152D01*
X170827256Y-114303152D02*
X171017732Y-114303152D01*
X171017732Y-114303152D02*
X171112970Y-114350771D01*
X171112970Y-114350771D02*
X171160589Y-114446009D01*
X171160589Y-114446009D02*
X171160589Y-114541247D01*
X171160589Y-114541247D02*
X170684399Y-114636485D01*
X172303447Y-114922200D02*
X172398685Y-114969819D01*
X172398685Y-114969819D02*
X172589161Y-114969819D01*
X172589161Y-114969819D02*
X172684399Y-114922200D01*
X172684399Y-114922200D02*
X172732018Y-114826961D01*
X172732018Y-114826961D02*
X172732018Y-114779342D01*
X172732018Y-114779342D02*
X172684399Y-114684104D01*
X172684399Y-114684104D02*
X172589161Y-114636485D01*
X172589161Y-114636485D02*
X172446304Y-114636485D01*
X172446304Y-114636485D02*
X172351066Y-114588866D01*
X172351066Y-114588866D02*
X172303447Y-114493628D01*
X172303447Y-114493628D02*
X172303447Y-114446009D01*
X172303447Y-114446009D02*
X172351066Y-114350771D01*
X172351066Y-114350771D02*
X172446304Y-114303152D01*
X172446304Y-114303152D02*
X172589161Y-114303152D01*
X172589161Y-114303152D02*
X172684399Y-114350771D01*
X173065352Y-114303152D02*
X173255828Y-114969819D01*
X173255828Y-114969819D02*
X173446304Y-114493628D01*
X173446304Y-114493628D02*
X173636780Y-114969819D01*
X173636780Y-114969819D02*
X173827256Y-114303152D01*
G36*
X126737325Y-83110041D02*
G01*
X126875322Y-83110041D01*
X126875322Y-84012763D01*
X127371929Y-84012763D01*
X127371929Y-84130000D01*
X126737325Y-84130000D01*
X126737325Y-83110041D01*
G37*
G36*
X127511453Y-83364054D02*
G01*
X127637177Y-83364054D01*
X127637177Y-84130000D01*
X127511453Y-84130000D01*
X127511453Y-83364054D01*
G37*
G36*
X127511453Y-83067055D02*
G01*
X127637177Y-83067055D01*
X127637177Y-83227278D01*
X127511453Y-83227278D01*
X127511453Y-83067055D01*
G37*
G36*
X128214173Y-83348457D02*
G01*
X128262247Y-83359665D01*
X128303960Y-83377548D01*
X128341516Y-83402861D01*
X128374681Y-83435821D01*
X128403733Y-83477383D01*
X128403733Y-83364054D01*
X128529457Y-83364054D01*
X128529457Y-84034745D01*
X128523001Y-84133488D01*
X128505312Y-84212307D01*
X128478249Y-84274892D01*
X128442690Y-84324234D01*
X128396500Y-84363829D01*
X128338669Y-84393313D01*
X128266618Y-84412304D01*
X128176953Y-84419183D01*
X128111760Y-84416472D01*
X128051962Y-84408620D01*
X127994054Y-84395225D01*
X127937901Y-84376196D01*
X127937901Y-84255052D01*
X127993700Y-84281438D01*
X128047199Y-84299321D01*
X128101664Y-84310081D01*
X128157170Y-84313670D01*
X128219181Y-84309055D01*
X128269289Y-84296294D01*
X128309734Y-84276480D01*
X128342245Y-84249923D01*
X128367645Y-84216566D01*
X128386793Y-84174698D01*
X128399219Y-84122432D01*
X128403733Y-84057398D01*
X128403733Y-83997131D01*
X128374681Y-84038693D01*
X128341516Y-84071653D01*
X128303960Y-84096966D01*
X128262247Y-84114849D01*
X128214173Y-84126057D01*
X128158513Y-84130000D01*
X128090476Y-84123048D01*
X128031108Y-84102964D01*
X127978563Y-84069860D01*
X127931673Y-84022472D01*
X127895376Y-83966923D01*
X127868573Y-83902124D01*
X127851634Y-83826384D01*
X127845638Y-83737623D01*
X127975453Y-83737623D01*
X127979556Y-83806699D01*
X127990942Y-83863724D01*
X128008555Y-83910670D01*
X128031812Y-83949199D01*
X128062771Y-83982125D01*
X128098591Y-84005302D01*
X128140233Y-84019513D01*
X128189227Y-84024487D01*
X128238613Y-84019499D01*
X128280491Y-84005265D01*
X128316418Y-83982085D01*
X128347374Y-83949199D01*
X128370631Y-83910670D01*
X128388244Y-83863724D01*
X128399631Y-83806699D01*
X128403733Y-83737623D01*
X128399621Y-83668136D01*
X128388220Y-83610888D01*
X128370605Y-83563866D01*
X128347374Y-83525376D01*
X128316414Y-83492460D01*
X128280486Y-83469262D01*
X128238609Y-83455018D01*
X128189227Y-83450027D01*
X128140237Y-83455004D01*
X128098597Y-83469225D01*
X128062775Y-83492420D01*
X128031812Y-83525376D01*
X128008581Y-83563866D01*
X127990966Y-83610888D01*
X127979565Y-83668136D01*
X127975453Y-83737623D01*
X127845638Y-83737623D01*
X127851644Y-83648461D01*
X127868598Y-83572484D01*
X127895403Y-83507582D01*
X127931673Y-83452042D01*
X127978563Y-83404654D01*
X128031108Y-83371550D01*
X128090476Y-83351466D01*
X128158513Y-83344515D01*
X128214173Y-83348457D01*
G37*
G36*
X129424363Y-83666427D02*
G01*
X129424363Y-84130000D01*
X129298639Y-84130000D01*
X129298639Y-83670579D01*
X129293090Y-83599082D01*
X129278331Y-83546316D01*
X129256263Y-83507913D01*
X129224451Y-83478639D01*
X129183130Y-83460489D01*
X129129256Y-83453935D01*
X129079217Y-83458331D01*
X129036653Y-83470824D01*
X129000157Y-83490925D01*
X128968728Y-83518904D01*
X128943899Y-83552807D01*
X128925632Y-83592778D01*
X128914086Y-83639986D01*
X128909987Y-83695919D01*
X128909987Y-84130000D01*
X128783592Y-84130000D01*
X128783592Y-83067055D01*
X128909987Y-83067055D01*
X128909987Y-83481290D01*
X128942791Y-83438211D01*
X128978128Y-83404311D01*
X129016172Y-83378525D01*
X129058163Y-83359928D01*
X129104885Y-83348480D01*
X129157283Y-83344515D01*
X129222385Y-83350203D01*
X129275927Y-83366139D01*
X129320170Y-83391411D01*
X129356707Y-83426214D01*
X129384476Y-83468269D01*
X129405603Y-83520756D01*
X129419365Y-83585909D01*
X129424363Y-83666427D01*
G37*
G36*
X129799764Y-83145212D02*
G01*
X129799764Y-83364054D01*
X130058661Y-83364054D01*
X130058661Y-83461751D01*
X129799764Y-83461751D01*
X129799764Y-83877452D01*
X129803671Y-83940433D01*
X129813046Y-83977656D01*
X129825348Y-83997803D01*
X129844674Y-84011035D01*
X129877395Y-84020615D01*
X129929579Y-84024487D01*
X130058661Y-84024487D01*
X130058661Y-84130000D01*
X129929579Y-84130000D01*
X129854147Y-84125604D01*
X129798223Y-84113981D01*
X129757578Y-84096968D01*
X129728750Y-84075594D01*
X129706956Y-84047109D01*
X129689671Y-84006989D01*
X129677884Y-83951832D01*
X129673429Y-83877452D01*
X129673429Y-83461751D01*
X129581167Y-83461751D01*
X129581167Y-83364054D01*
X129673429Y-83364054D01*
X129673429Y-83145212D01*
X129799764Y-83145212D01*
G37*
G36*
X130661546Y-83114857D02*
G01*
X130727232Y-83128187D01*
X130780933Y-83148754D01*
X130824668Y-83175865D01*
X130861720Y-83211851D01*
X130888058Y-83254108D01*
X130904352Y-83303880D01*
X130910092Y-83363077D01*
X130904703Y-83424330D01*
X130889782Y-83473335D01*
X130866372Y-83512615D01*
X130833746Y-83544188D01*
X130791671Y-83567337D01*
X130737901Y-83581857D01*
X130802467Y-83602416D01*
X130854471Y-83632737D01*
X130896048Y-83672777D01*
X130926833Y-83721557D01*
X130945769Y-83778404D01*
X130952407Y-83845396D01*
X130946130Y-83911989D01*
X130928332Y-83967964D01*
X130899650Y-84015433D01*
X130859473Y-84055811D01*
X130811717Y-84086463D01*
X130753261Y-84109626D01*
X130681940Y-84124599D01*
X130595141Y-84130000D01*
X130229021Y-84130000D01*
X130229021Y-84016671D01*
X130367018Y-84016671D01*
X130588302Y-84016671D01*
X130661357Y-84010672D01*
X130714781Y-83994742D01*
X130753288Y-83970875D01*
X130782006Y-83936737D01*
X130800223Y-83891224D01*
X130806899Y-83830680D01*
X130800189Y-83769695D01*
X130781946Y-83724260D01*
X130753288Y-83690546D01*
X130714838Y-83667054D01*
X130661418Y-83651344D01*
X130588302Y-83645422D01*
X130367018Y-83645422D01*
X130367018Y-84016671D01*
X130229021Y-84016671D01*
X130229021Y-83532093D01*
X130367018Y-83532093D01*
X130571266Y-83532093D01*
X130637908Y-83527075D01*
X130686721Y-83513789D01*
X130721903Y-83494052D01*
X130748706Y-83465284D01*
X130765380Y-83427486D01*
X130771423Y-83377732D01*
X130765405Y-83328421D01*
X130748752Y-83290711D01*
X130721903Y-83261777D01*
X130686690Y-83241838D01*
X130637875Y-83228430D01*
X130571266Y-83223370D01*
X130367018Y-83223370D01*
X130367018Y-83532093D01*
X130229021Y-83532093D01*
X130229021Y-83110041D01*
X130581463Y-83110041D01*
X130661546Y-83114857D01*
G37*
G36*
X131535601Y-83350753D02*
G01*
X131602773Y-83367990D01*
X131656883Y-83394745D01*
X131700279Y-83430610D01*
X131734082Y-83475621D01*
X131759630Y-83532282D01*
X131776241Y-83603187D01*
X131782283Y-83691584D01*
X131782283Y-84130000D01*
X131656620Y-84130000D01*
X131656620Y-84012763D01*
X131624765Y-84056332D01*
X131589098Y-84090452D01*
X131549337Y-84116200D01*
X131505340Y-84134117D01*
X131453474Y-84145495D01*
X131392227Y-84149539D01*
X131333933Y-84144998D01*
X131284308Y-84132135D01*
X131241843Y-84111623D01*
X131205382Y-84083471D01*
X131175533Y-84048305D01*
X131154073Y-84007829D01*
X131140753Y-83961003D01*
X131136078Y-83906395D01*
X131136889Y-83897725D01*
X131261802Y-83897725D01*
X131266982Y-83940620D01*
X131281678Y-83975607D01*
X131305826Y-84004520D01*
X131337376Y-84025800D01*
X131376645Y-84039206D01*
X131425750Y-84044026D01*
X131476583Y-84039130D01*
X131520639Y-84025059D01*
X131559283Y-84002059D01*
X131593422Y-83969471D01*
X131620180Y-83930744D01*
X131639846Y-83885642D01*
X131652239Y-83832979D01*
X131656620Y-83771268D01*
X131656620Y-83743119D01*
X131531629Y-83743119D01*
X131429026Y-83748218D01*
X131361978Y-83760934D01*
X131320542Y-83778168D01*
X131295409Y-83798179D01*
X131277354Y-83823851D01*
X131265932Y-83856384D01*
X131261802Y-83897725D01*
X131136889Y-83897725D01*
X131142015Y-83842902D01*
X131158706Y-83790582D01*
X131185369Y-83747179D01*
X131222479Y-83711184D01*
X131266579Y-83684493D01*
X131322463Y-83663912D01*
X131392718Y-83650371D01*
X131480399Y-83645422D01*
X131656620Y-83645422D01*
X131656620Y-83632965D01*
X131649828Y-83577403D01*
X131630743Y-83533257D01*
X131599590Y-83497838D01*
X131558943Y-83472399D01*
X131506616Y-83456014D01*
X131439366Y-83450027D01*
X131374467Y-83453957D01*
X131311627Y-83465659D01*
X131250798Y-83485144D01*
X131192070Y-83512554D01*
X131192070Y-83395317D01*
X131260945Y-83372836D01*
X131325976Y-83357215D01*
X131390586Y-83347632D01*
X131452311Y-83344515D01*
X131535601Y-83350753D01*
G37*
G36*
X132677677Y-83666427D02*
G01*
X132677677Y-84130000D01*
X132551953Y-84130000D01*
X132551953Y-83670579D01*
X132546405Y-83599082D01*
X132531646Y-83546316D01*
X132509577Y-83507913D01*
X132477766Y-83478639D01*
X132436445Y-83460489D01*
X132382571Y-83453935D01*
X132332531Y-83458331D01*
X132289968Y-83470824D01*
X132253472Y-83490925D01*
X132222042Y-83518904D01*
X132197213Y-83552807D01*
X132178946Y-83592778D01*
X132167401Y-83639986D01*
X132163302Y-83695919D01*
X132163302Y-84130000D01*
X132036906Y-84130000D01*
X132036906Y-83364054D01*
X132163302Y-83364054D01*
X132163302Y-83481290D01*
X132196106Y-83438211D01*
X132231442Y-83404311D01*
X132269487Y-83378525D01*
X132311478Y-83359928D01*
X132358200Y-83348480D01*
X132410598Y-83344515D01*
X132475699Y-83350203D01*
X132529242Y-83366139D01*
X132573484Y-83391411D01*
X132610022Y-83426214D01*
X132637791Y-83468269D01*
X132658918Y-83520756D01*
X132672679Y-83585909D01*
X132677677Y-83666427D01*
G37*
G36*
X133557929Y-84130000D02*
G01*
X133432205Y-84130000D01*
X133432205Y-84016671D01*
X133402718Y-84058693D01*
X133369441Y-84091746D01*
X133332126Y-84116871D01*
X133290631Y-84134539D01*
X133242665Y-84145632D01*
X133186985Y-84149539D01*
X133120258Y-84142473D01*
X133061452Y-84121941D01*
X133008791Y-84087845D01*
X132961182Y-84038653D01*
X132924424Y-83981445D01*
X132897293Y-83914952D01*
X132880165Y-83837497D01*
X132874110Y-83747027D01*
X133003925Y-83747027D01*
X133008048Y-83817400D01*
X133019531Y-83875988D01*
X133037357Y-83924664D01*
X133060956Y-83965013D01*
X133092471Y-83999871D01*
X133128415Y-84024151D01*
X133169667Y-84038899D01*
X133217698Y-84044026D01*
X133265762Y-84038902D01*
X133307091Y-84024158D01*
X133343148Y-83999876D01*
X133374808Y-83965013D01*
X133398569Y-83924640D01*
X133416507Y-83875956D01*
X133428058Y-83817376D01*
X133432205Y-83747027D01*
X133428057Y-83676675D01*
X133416505Y-83618107D01*
X133398567Y-83569444D01*
X133374808Y-83529101D01*
X133343145Y-83494208D01*
X133307086Y-83469909D01*
X133265758Y-83455154D01*
X133217698Y-83450027D01*
X133169671Y-83455158D01*
X133128421Y-83469915D01*
X133092474Y-83494213D01*
X133060956Y-83529101D01*
X133037359Y-83569421D01*
X133019534Y-83618075D01*
X133008049Y-83676651D01*
X133003925Y-83747027D01*
X132874110Y-83747027D01*
X132880165Y-83656556D01*
X132897293Y-83579102D01*
X132924424Y-83512609D01*
X132961182Y-83455401D01*
X133008791Y-83406208D01*
X133061452Y-83372112D01*
X133120258Y-83351581D01*
X133186985Y-83344515D01*
X133242661Y-83348429D01*
X133290627Y-83359541D01*
X133332126Y-83377243D01*
X133369439Y-83402333D01*
X133402716Y-83435364D01*
X133432205Y-83477383D01*
X133432205Y-83067055D01*
X133557929Y-83067055D01*
X133557929Y-84130000D01*
G37*
G36*
X133816826Y-83364054D02*
G01*
X133942550Y-83364054D01*
X133942550Y-84130000D01*
X133816826Y-84130000D01*
X133816826Y-83364054D01*
G37*
G36*
X133816826Y-83067055D02*
G01*
X133942550Y-83067055D01*
X133942550Y-83227278D01*
X133816826Y-83227278D01*
X133816826Y-83067055D01*
G37*
G36*
X134329980Y-83145212D02*
G01*
X134329980Y-83364054D01*
X134588878Y-83364054D01*
X134588878Y-83461751D01*
X134329980Y-83461751D01*
X134329980Y-83877452D01*
X134333888Y-83940433D01*
X134343262Y-83977656D01*
X134355565Y-83997803D01*
X134374890Y-84011035D01*
X134407611Y-84020615D01*
X134459795Y-84024487D01*
X134588878Y-84024487D01*
X134588878Y-84130000D01*
X134459795Y-84130000D01*
X134384363Y-84125604D01*
X134328439Y-84113981D01*
X134287794Y-84096968D01*
X134258967Y-84075594D01*
X134237173Y-84047109D01*
X134219887Y-84006989D01*
X134208100Y-83951832D01*
X134203646Y-83877452D01*
X134203646Y-83461751D01*
X134111383Y-83461751D01*
X134111383Y-83364054D01*
X134203646Y-83364054D01*
X134203646Y-83145212D01*
X134329980Y-83145212D01*
G37*
G36*
X135335101Y-84360565D02*
G01*
X135335101Y-84458262D01*
X134608234Y-84458262D01*
X134608234Y-84360565D01*
X135335101Y-84360565D01*
G37*
G36*
X135833368Y-83096268D02*
G01*
X135891795Y-83112792D01*
X135943028Y-83139565D01*
X135988243Y-83176968D01*
X136028079Y-83226240D01*
X136064763Y-83294726D01*
X136093150Y-83380718D01*
X136111823Y-83487866D01*
X136118632Y-83620387D01*
X136111831Y-83752492D01*
X136093171Y-83859416D01*
X136064786Y-83945336D01*
X136028079Y-84013862D01*
X135988246Y-84063109D01*
X135943033Y-84100495D01*
X135891800Y-84127256D01*
X135833371Y-84143775D01*
X135766128Y-84149539D01*
X135698886Y-84143775D01*
X135640451Y-84127258D01*
X135589204Y-84100497D01*
X135543972Y-84063110D01*
X135504117Y-84013862D01*
X135467436Y-83945340D01*
X135439070Y-83859422D01*
X135420422Y-83752496D01*
X135413625Y-83620387D01*
X135552294Y-83620387D01*
X135556487Y-83729571D01*
X135567836Y-83815970D01*
X135584726Y-83883386D01*
X135605905Y-83935216D01*
X135637415Y-83982703D01*
X135673926Y-84014625D01*
X135716196Y-84033573D01*
X135766128Y-84040118D01*
X135816414Y-84033555D01*
X135858888Y-84014578D01*
X135895479Y-83982651D01*
X135926962Y-83935216D01*
X135948167Y-83883383D01*
X135965076Y-83815965D01*
X135976437Y-83729568D01*
X135980635Y-83620387D01*
X135976431Y-83510786D01*
X135965060Y-83424169D01*
X135948150Y-83356680D01*
X135926962Y-83304886D01*
X135895476Y-83257419D01*
X135858883Y-83225475D01*
X135816410Y-83206489D01*
X135766128Y-83199923D01*
X135716200Y-83206471D01*
X135673931Y-83225427D01*
X135637418Y-83257367D01*
X135605905Y-83304886D01*
X135584742Y-83356677D01*
X135567851Y-83424164D01*
X135556493Y-83510783D01*
X135552294Y-83620387D01*
X135413625Y-83620387D01*
X135420430Y-83487861D01*
X135439091Y-83380713D01*
X135467458Y-83294722D01*
X135504117Y-83226240D01*
X135543976Y-83176967D01*
X135589210Y-83139563D01*
X135640456Y-83112791D01*
X135698890Y-83096268D01*
X135766128Y-83090502D01*
X135833368Y-83096268D01*
G37*
G36*
X136361043Y-83958053D02*
G01*
X136505207Y-83958053D01*
X136505207Y-84130000D01*
X136361043Y-84130000D01*
X136361043Y-83958053D01*
G37*
G36*
X137167910Y-83096268D02*
G01*
X137226338Y-83112792D01*
X137277571Y-83139565D01*
X137322786Y-83176968D01*
X137362622Y-83226240D01*
X137399306Y-83294726D01*
X137427693Y-83380718D01*
X137446365Y-83487866D01*
X137453175Y-83620387D01*
X137446374Y-83752492D01*
X137427714Y-83859416D01*
X137399329Y-83945336D01*
X137362622Y-84013862D01*
X137322789Y-84063109D01*
X137277576Y-84100495D01*
X137226343Y-84127256D01*
X137167914Y-84143775D01*
X137100671Y-84149539D01*
X137033429Y-84143775D01*
X136974994Y-84127258D01*
X136923747Y-84100497D01*
X136878515Y-84063110D01*
X136838660Y-84013862D01*
X136801979Y-83945340D01*
X136773613Y-83859422D01*
X136754965Y-83752496D01*
X136748168Y-83620387D01*
X136886837Y-83620387D01*
X136891030Y-83729571D01*
X136902379Y-83815970D01*
X136919269Y-83883386D01*
X136940448Y-83935216D01*
X136971958Y-83982703D01*
X137008469Y-84014625D01*
X137050739Y-84033573D01*
X137100671Y-84040118D01*
X137150957Y-84033555D01*
X137193431Y-84014578D01*
X137230022Y-83982651D01*
X137261505Y-83935216D01*
X137282710Y-83883383D01*
X137299619Y-83815965D01*
X137310979Y-83729568D01*
X137315177Y-83620387D01*
X137310974Y-83510786D01*
X137299603Y-83424169D01*
X137282693Y-83356680D01*
X137261505Y-83304886D01*
X137230019Y-83257419D01*
X137193426Y-83225475D01*
X137150953Y-83206489D01*
X137100671Y-83199923D01*
X137050743Y-83206471D01*
X137008474Y-83225427D01*
X136971961Y-83257367D01*
X136940448Y-83304886D01*
X136919285Y-83356677D01*
X136902394Y-83424164D01*
X136891036Y-83510783D01*
X136886837Y-83620387D01*
X136748168Y-83620387D01*
X136754973Y-83487861D01*
X136773634Y-83380713D01*
X136802001Y-83294722D01*
X136838660Y-83226240D01*
X136878519Y-83176967D01*
X136923753Y-83139563D01*
X136974999Y-83112791D01*
X137033433Y-83096268D01*
X137100671Y-83090502D01*
X137167910Y-83096268D01*
G37*
G36*
X137695586Y-83958053D02*
G01*
X137839750Y-83958053D01*
X137839750Y-84130000D01*
X137695586Y-84130000D01*
X137695586Y-83958053D01*
G37*
G36*
X138164043Y-84012763D02*
G01*
X138389480Y-84012763D01*
X138389480Y-83235094D01*
X138144199Y-83285896D01*
X138144199Y-83160844D01*
X138388075Y-83110041D01*
X138526072Y-83110041D01*
X138526072Y-84012763D01*
X138751509Y-84012763D01*
X138751509Y-84130000D01*
X138164043Y-84130000D01*
X138164043Y-84012763D01*
G37*
X121680953Y-118288152D02*
X122061905Y-118288152D01*
X121823810Y-118954819D02*
X121823810Y-118097676D01*
X121823810Y-118097676D02*
X121871429Y-118002438D01*
X121871429Y-118002438D02*
X121966667Y-117954819D01*
X121966667Y-117954819D02*
X122061905Y-117954819D01*
X122395239Y-118954819D02*
X122395239Y-118288152D01*
X122395239Y-117954819D02*
X122347620Y-118002438D01*
X122347620Y-118002438D02*
X122395239Y-118050057D01*
X122395239Y-118050057D02*
X122442858Y-118002438D01*
X122442858Y-118002438D02*
X122395239Y-117954819D01*
X122395239Y-117954819D02*
X122395239Y-118050057D01*
X123300000Y-118954819D02*
X123300000Y-117954819D01*
X123300000Y-118907200D02*
X123204762Y-118954819D01*
X123204762Y-118954819D02*
X123014286Y-118954819D01*
X123014286Y-118954819D02*
X122919048Y-118907200D01*
X122919048Y-118907200D02*
X122871429Y-118859580D01*
X122871429Y-118859580D02*
X122823810Y-118764342D01*
X122823810Y-118764342D02*
X122823810Y-118478628D01*
X122823810Y-118478628D02*
X122871429Y-118383390D01*
X122871429Y-118383390D02*
X122919048Y-118335771D01*
X122919048Y-118335771D02*
X123014286Y-118288152D01*
X123014286Y-118288152D02*
X123204762Y-118288152D01*
X123204762Y-118288152D02*
X123300000Y-118335771D01*
X123776191Y-118859580D02*
X123823810Y-118907200D01*
X123823810Y-118907200D02*
X123776191Y-118954819D01*
X123776191Y-118954819D02*
X123728572Y-118907200D01*
X123728572Y-118907200D02*
X123776191Y-118859580D01*
X123776191Y-118859580D02*
X123776191Y-118954819D01*
X124823809Y-118859580D02*
X124776190Y-118907200D01*
X124776190Y-118907200D02*
X124633333Y-118954819D01*
X124633333Y-118954819D02*
X124538095Y-118954819D01*
X124538095Y-118954819D02*
X124395238Y-118907200D01*
X124395238Y-118907200D02*
X124300000Y-118811961D01*
X124300000Y-118811961D02*
X124252381Y-118716723D01*
X124252381Y-118716723D02*
X124204762Y-118526247D01*
X124204762Y-118526247D02*
X124204762Y-118383390D01*
X124204762Y-118383390D02*
X124252381Y-118192914D01*
X124252381Y-118192914D02*
X124300000Y-118097676D01*
X124300000Y-118097676D02*
X124395238Y-118002438D01*
X124395238Y-118002438D02*
X124538095Y-117954819D01*
X124538095Y-117954819D02*
X124633333Y-117954819D01*
X124633333Y-117954819D02*
X124776190Y-118002438D01*
X124776190Y-118002438D02*
X124823809Y-118050057D01*
X143454819Y-105738094D02*
X144264342Y-105738094D01*
X144264342Y-105738094D02*
X144359580Y-105690475D01*
X144359580Y-105690475D02*
X144407200Y-105642856D01*
X144407200Y-105642856D02*
X144454819Y-105547618D01*
X144454819Y-105547618D02*
X144454819Y-105357142D01*
X144454819Y-105357142D02*
X144407200Y-105261904D01*
X144407200Y-105261904D02*
X144359580Y-105214285D01*
X144359580Y-105214285D02*
X144264342Y-105166666D01*
X144264342Y-105166666D02*
X143454819Y-105166666D01*
X144454819Y-104166666D02*
X144454819Y-104738094D01*
X144454819Y-104452380D02*
X143454819Y-104452380D01*
X143454819Y-104452380D02*
X143597676Y-104547618D01*
X143597676Y-104547618D02*
X143692914Y-104642856D01*
X143692914Y-104642856D02*
X143740533Y-104738094D01*
X143550057Y-103785713D02*
X143502438Y-103738094D01*
X143502438Y-103738094D02*
X143454819Y-103642856D01*
X143454819Y-103642856D02*
X143454819Y-103404761D01*
X143454819Y-103404761D02*
X143502438Y-103309523D01*
X143502438Y-103309523D02*
X143550057Y-103261904D01*
X143550057Y-103261904D02*
X143645295Y-103214285D01*
X143645295Y-103214285D02*
X143740533Y-103214285D01*
X143740533Y-103214285D02*
X143883390Y-103261904D01*
X143883390Y-103261904D02*
X144454819Y-103833332D01*
X144454819Y-103833332D02*
X144454819Y-103214285D01*
X119280953Y-73688152D02*
X119661905Y-73688152D01*
X119423810Y-74354819D02*
X119423810Y-73497676D01*
X119423810Y-73497676D02*
X119471429Y-73402438D01*
X119471429Y-73402438D02*
X119566667Y-73354819D01*
X119566667Y-73354819D02*
X119661905Y-73354819D01*
X119995239Y-74354819D02*
X119995239Y-73688152D01*
X119995239Y-73354819D02*
X119947620Y-73402438D01*
X119947620Y-73402438D02*
X119995239Y-73450057D01*
X119995239Y-73450057D02*
X120042858Y-73402438D01*
X120042858Y-73402438D02*
X119995239Y-73354819D01*
X119995239Y-73354819D02*
X119995239Y-73450057D01*
X120900000Y-74354819D02*
X120900000Y-73354819D01*
X120900000Y-74307200D02*
X120804762Y-74354819D01*
X120804762Y-74354819D02*
X120614286Y-74354819D01*
X120614286Y-74354819D02*
X120519048Y-74307200D01*
X120519048Y-74307200D02*
X120471429Y-74259580D01*
X120471429Y-74259580D02*
X120423810Y-74164342D01*
X120423810Y-74164342D02*
X120423810Y-73878628D01*
X120423810Y-73878628D02*
X120471429Y-73783390D01*
X120471429Y-73783390D02*
X120519048Y-73735771D01*
X120519048Y-73735771D02*
X120614286Y-73688152D01*
X120614286Y-73688152D02*
X120804762Y-73688152D01*
X120804762Y-73688152D02*
X120900000Y-73735771D01*
X121376191Y-74259580D02*
X121423810Y-74307200D01*
X121423810Y-74307200D02*
X121376191Y-74354819D01*
X121376191Y-74354819D02*
X121328572Y-74307200D01*
X121328572Y-74307200D02*
X121376191Y-74259580D01*
X121376191Y-74259580D02*
X121376191Y-74354819D01*
X122185714Y-73831009D02*
X122328571Y-73878628D01*
X122328571Y-73878628D02*
X122376190Y-73926247D01*
X122376190Y-73926247D02*
X122423809Y-74021485D01*
X122423809Y-74021485D02*
X122423809Y-74164342D01*
X122423809Y-74164342D02*
X122376190Y-74259580D01*
X122376190Y-74259580D02*
X122328571Y-74307200D01*
X122328571Y-74307200D02*
X122233333Y-74354819D01*
X122233333Y-74354819D02*
X121852381Y-74354819D01*
X121852381Y-74354819D02*
X121852381Y-73354819D01*
X121852381Y-73354819D02*
X122185714Y-73354819D01*
X122185714Y-73354819D02*
X122280952Y-73402438D01*
X122280952Y-73402438D02*
X122328571Y-73450057D01*
X122328571Y-73450057D02*
X122376190Y-73545295D01*
X122376190Y-73545295D02*
X122376190Y-73640533D01*
X122376190Y-73640533D02*
X122328571Y-73735771D01*
X122328571Y-73735771D02*
X122280952Y-73783390D01*
X122280952Y-73783390D02*
X122185714Y-73831009D01*
X122185714Y-73831009D02*
X121852381Y-73831009D01*
X138568133Y-100841980D02*
X138520514Y-100889600D01*
X138520514Y-100889600D02*
X138377657Y-100937219D01*
X138377657Y-100937219D02*
X138282419Y-100937219D01*
X138282419Y-100937219D02*
X138139562Y-100889600D01*
X138139562Y-100889600D02*
X138044324Y-100794361D01*
X138044324Y-100794361D02*
X137996705Y-100699123D01*
X137996705Y-100699123D02*
X137949086Y-100508647D01*
X137949086Y-100508647D02*
X137949086Y-100365790D01*
X137949086Y-100365790D02*
X137996705Y-100175314D01*
X137996705Y-100175314D02*
X138044324Y-100080076D01*
X138044324Y-100080076D02*
X138139562Y-99984838D01*
X138139562Y-99984838D02*
X138282419Y-99937219D01*
X138282419Y-99937219D02*
X138377657Y-99937219D01*
X138377657Y-99937219D02*
X138520514Y-99984838D01*
X138520514Y-99984838D02*
X138568133Y-100032457D01*
X138949086Y-100032457D02*
X138996705Y-99984838D01*
X138996705Y-99984838D02*
X139091943Y-99937219D01*
X139091943Y-99937219D02*
X139330038Y-99937219D01*
X139330038Y-99937219D02*
X139425276Y-99984838D01*
X139425276Y-99984838D02*
X139472895Y-100032457D01*
X139472895Y-100032457D02*
X139520514Y-100127695D01*
X139520514Y-100127695D02*
X139520514Y-100222933D01*
X139520514Y-100222933D02*
X139472895Y-100365790D01*
X139472895Y-100365790D02*
X138901467Y-100937219D01*
X138901467Y-100937219D02*
X139520514Y-100937219D01*
X158740893Y-92990459D02*
X158693274Y-93038079D01*
X158693274Y-93038079D02*
X158550417Y-93085698D01*
X158550417Y-93085698D02*
X158455179Y-93085698D01*
X158455179Y-93085698D02*
X158312322Y-93038079D01*
X158312322Y-93038079D02*
X158217084Y-92942840D01*
X158217084Y-92942840D02*
X158169465Y-92847602D01*
X158169465Y-92847602D02*
X158121846Y-92657126D01*
X158121846Y-92657126D02*
X158121846Y-92514269D01*
X158121846Y-92514269D02*
X158169465Y-92323793D01*
X158169465Y-92323793D02*
X158217084Y-92228555D01*
X158217084Y-92228555D02*
X158312322Y-92133317D01*
X158312322Y-92133317D02*
X158455179Y-92085698D01*
X158455179Y-92085698D02*
X158550417Y-92085698D01*
X158550417Y-92085698D02*
X158693274Y-92133317D01*
X158693274Y-92133317D02*
X158740893Y-92180936D01*
X159121846Y-92180936D02*
X159169465Y-92133317D01*
X159169465Y-92133317D02*
X159264703Y-92085698D01*
X159264703Y-92085698D02*
X159502798Y-92085698D01*
X159502798Y-92085698D02*
X159598036Y-92133317D01*
X159598036Y-92133317D02*
X159645655Y-92180936D01*
X159645655Y-92180936D02*
X159693274Y-92276174D01*
X159693274Y-92276174D02*
X159693274Y-92371412D01*
X159693274Y-92371412D02*
X159645655Y-92514269D01*
X159645655Y-92514269D02*
X159074227Y-93085698D01*
X159074227Y-93085698D02*
X159693274Y-93085698D01*
X160169465Y-93085698D02*
X160359941Y-93085698D01*
X160359941Y-93085698D02*
X160455179Y-93038079D01*
X160455179Y-93038079D02*
X160502798Y-92990459D01*
X160502798Y-92990459D02*
X160598036Y-92847602D01*
X160598036Y-92847602D02*
X160645655Y-92657126D01*
X160645655Y-92657126D02*
X160645655Y-92276174D01*
X160645655Y-92276174D02*
X160598036Y-92180936D01*
X160598036Y-92180936D02*
X160550417Y-92133317D01*
X160550417Y-92133317D02*
X160455179Y-92085698D01*
X160455179Y-92085698D02*
X160264703Y-92085698D01*
X160264703Y-92085698D02*
X160169465Y-92133317D01*
X160169465Y-92133317D02*
X160121846Y-92180936D01*
X160121846Y-92180936D02*
X160074227Y-92276174D01*
X160074227Y-92276174D02*
X160074227Y-92514269D01*
X160074227Y-92514269D02*
X160121846Y-92609507D01*
X160121846Y-92609507D02*
X160169465Y-92657126D01*
X160169465Y-92657126D02*
X160264703Y-92704745D01*
X160264703Y-92704745D02*
X160455179Y-92704745D01*
X160455179Y-92704745D02*
X160550417Y-92657126D01*
X160550417Y-92657126D02*
X160598036Y-92609507D01*
X160598036Y-92609507D02*
X160645655Y-92514269D01*
X138385465Y-102239868D02*
X138337846Y-102287488D01*
X138337846Y-102287488D02*
X138194989Y-102335107D01*
X138194989Y-102335107D02*
X138099751Y-102335107D01*
X138099751Y-102335107D02*
X137956894Y-102287488D01*
X137956894Y-102287488D02*
X137861656Y-102192249D01*
X137861656Y-102192249D02*
X137814037Y-102097011D01*
X137814037Y-102097011D02*
X137766418Y-101906535D01*
X137766418Y-101906535D02*
X137766418Y-101763678D01*
X137766418Y-101763678D02*
X137814037Y-101573202D01*
X137814037Y-101573202D02*
X137861656Y-101477964D01*
X137861656Y-101477964D02*
X137956894Y-101382726D01*
X137956894Y-101382726D02*
X138099751Y-101335107D01*
X138099751Y-101335107D02*
X138194989Y-101335107D01*
X138194989Y-101335107D02*
X138337846Y-101382726D01*
X138337846Y-101382726D02*
X138385465Y-101430345D01*
X139337846Y-102335107D02*
X138766418Y-102335107D01*
X139052132Y-102335107D02*
X139052132Y-101335107D01*
X139052132Y-101335107D02*
X138956894Y-101477964D01*
X138956894Y-101477964D02*
X138861656Y-101573202D01*
X138861656Y-101573202D02*
X138766418Y-101620821D01*
X180658419Y-95786533D02*
X181372704Y-95786533D01*
X181372704Y-95786533D02*
X181515561Y-95834152D01*
X181515561Y-95834152D02*
X181610800Y-95929390D01*
X181610800Y-95929390D02*
X181658419Y-96072247D01*
X181658419Y-96072247D02*
X181658419Y-96167485D01*
X181658419Y-94786533D02*
X181658419Y-95357961D01*
X181658419Y-95072247D02*
X180658419Y-95072247D01*
X180658419Y-95072247D02*
X180801276Y-95167485D01*
X180801276Y-95167485D02*
X180896514Y-95262723D01*
X180896514Y-95262723D02*
X180944133Y-95357961D01*
D12*
X148400293Y-90758253D02*
X148400293Y-89920158D01*
X148819340Y-90339205D02*
X147981245Y-90339205D01*
X148400293Y-95758253D02*
X148400293Y-94920158D01*
D10*
X150692401Y-94960507D02*
X150740021Y-95008126D01*
X150740021Y-95008126D02*
X150787640Y-95150983D01*
X150787640Y-95150983D02*
X150787640Y-95246221D01*
X150787640Y-95246221D02*
X150740021Y-95389078D01*
X150740021Y-95389078D02*
X150644782Y-95484316D01*
X150644782Y-95484316D02*
X150549544Y-95531935D01*
X150549544Y-95531935D02*
X150359068Y-95579554D01*
X150359068Y-95579554D02*
X150216211Y-95579554D01*
X150216211Y-95579554D02*
X150025735Y-95531935D01*
X150025735Y-95531935D02*
X149930497Y-95484316D01*
X149930497Y-95484316D02*
X149835259Y-95389078D01*
X149835259Y-95389078D02*
X149787640Y-95246221D01*
X149787640Y-95246221D02*
X149787640Y-95150983D01*
X149787640Y-95150983D02*
X149835259Y-95008126D01*
X149835259Y-95008126D02*
X149882878Y-94960507D01*
X149882878Y-94579554D02*
X149835259Y-94531935D01*
X149835259Y-94531935D02*
X149787640Y-94436697D01*
X149787640Y-94436697D02*
X149787640Y-94198602D01*
X149787640Y-94198602D02*
X149835259Y-94103364D01*
X149835259Y-94103364D02*
X149882878Y-94055745D01*
X149882878Y-94055745D02*
X149978116Y-94008126D01*
X149978116Y-94008126D02*
X150073354Y-94008126D01*
X150073354Y-94008126D02*
X150216211Y-94055745D01*
X150216211Y-94055745D02*
X150787640Y-94627173D01*
X150787640Y-94627173D02*
X150787640Y-94008126D01*
X149787640Y-93674792D02*
X149787640Y-93055745D01*
X149787640Y-93055745D02*
X150168592Y-93389078D01*
X150168592Y-93389078D02*
X150168592Y-93246221D01*
X150168592Y-93246221D02*
X150216211Y-93150983D01*
X150216211Y-93150983D02*
X150263830Y-93103364D01*
X150263830Y-93103364D02*
X150359068Y-93055745D01*
X150359068Y-93055745D02*
X150597163Y-93055745D01*
X150597163Y-93055745D02*
X150692401Y-93103364D01*
X150692401Y-93103364D02*
X150740021Y-93150983D01*
X150740021Y-93150983D02*
X150787640Y-93246221D01*
X150787640Y-93246221D02*
X150787640Y-93531935D01*
X150787640Y-93531935D02*
X150740021Y-93627173D01*
X150740021Y-93627173D02*
X150692401Y-93674792D01*
X159815265Y-111958224D02*
X159767646Y-112005844D01*
X159767646Y-112005844D02*
X159624789Y-112053463D01*
X159624789Y-112053463D02*
X159529551Y-112053463D01*
X159529551Y-112053463D02*
X159386694Y-112005844D01*
X159386694Y-112005844D02*
X159291456Y-111910605D01*
X159291456Y-111910605D02*
X159243837Y-111815367D01*
X159243837Y-111815367D02*
X159196218Y-111624891D01*
X159196218Y-111624891D02*
X159196218Y-111482034D01*
X159196218Y-111482034D02*
X159243837Y-111291558D01*
X159243837Y-111291558D02*
X159291456Y-111196320D01*
X159291456Y-111196320D02*
X159386694Y-111101082D01*
X159386694Y-111101082D02*
X159529551Y-111053463D01*
X159529551Y-111053463D02*
X159624789Y-111053463D01*
X159624789Y-111053463D02*
X159767646Y-111101082D01*
X159767646Y-111101082D02*
X159815265Y-111148701D01*
X160767646Y-112053463D02*
X160196218Y-112053463D01*
X160481932Y-112053463D02*
X160481932Y-111053463D01*
X160481932Y-111053463D02*
X160386694Y-111196320D01*
X160386694Y-111196320D02*
X160291456Y-111291558D01*
X160291456Y-111291558D02*
X160196218Y-111339177D01*
X161339075Y-111482034D02*
X161243837Y-111434415D01*
X161243837Y-111434415D02*
X161196218Y-111386796D01*
X161196218Y-111386796D02*
X161148599Y-111291558D01*
X161148599Y-111291558D02*
X161148599Y-111243939D01*
X161148599Y-111243939D02*
X161196218Y-111148701D01*
X161196218Y-111148701D02*
X161243837Y-111101082D01*
X161243837Y-111101082D02*
X161339075Y-111053463D01*
X161339075Y-111053463D02*
X161529551Y-111053463D01*
X161529551Y-111053463D02*
X161624789Y-111101082D01*
X161624789Y-111101082D02*
X161672408Y-111148701D01*
X161672408Y-111148701D02*
X161720027Y-111243939D01*
X161720027Y-111243939D02*
X161720027Y-111291558D01*
X161720027Y-111291558D02*
X161672408Y-111386796D01*
X161672408Y-111386796D02*
X161624789Y-111434415D01*
X161624789Y-111434415D02*
X161529551Y-111482034D01*
X161529551Y-111482034D02*
X161339075Y-111482034D01*
X161339075Y-111482034D02*
X161243837Y-111529653D01*
X161243837Y-111529653D02*
X161196218Y-111577272D01*
X161196218Y-111577272D02*
X161148599Y-111672510D01*
X161148599Y-111672510D02*
X161148599Y-111862986D01*
X161148599Y-111862986D02*
X161196218Y-111958224D01*
X161196218Y-111958224D02*
X161243837Y-112005844D01*
X161243837Y-112005844D02*
X161339075Y-112053463D01*
X161339075Y-112053463D02*
X161529551Y-112053463D01*
X161529551Y-112053463D02*
X161624789Y-112005844D01*
X161624789Y-112005844D02*
X161672408Y-111958224D01*
X161672408Y-111958224D02*
X161720027Y-111862986D01*
X161720027Y-111862986D02*
X161720027Y-111672510D01*
X161720027Y-111672510D02*
X161672408Y-111577272D01*
X161672408Y-111577272D02*
X161624789Y-111529653D01*
X161624789Y-111529653D02*
X161529551Y-111482034D01*
X144645142Y-108411180D02*
X144597523Y-108458800D01*
X144597523Y-108458800D02*
X144454666Y-108506419D01*
X144454666Y-108506419D02*
X144359428Y-108506419D01*
X144359428Y-108506419D02*
X144216571Y-108458800D01*
X144216571Y-108458800D02*
X144121333Y-108363561D01*
X144121333Y-108363561D02*
X144073714Y-108268323D01*
X144073714Y-108268323D02*
X144026095Y-108077847D01*
X144026095Y-108077847D02*
X144026095Y-107934990D01*
X144026095Y-107934990D02*
X144073714Y-107744514D01*
X144073714Y-107744514D02*
X144121333Y-107649276D01*
X144121333Y-107649276D02*
X144216571Y-107554038D01*
X144216571Y-107554038D02*
X144359428Y-107506419D01*
X144359428Y-107506419D02*
X144454666Y-107506419D01*
X144454666Y-107506419D02*
X144597523Y-107554038D01*
X144597523Y-107554038D02*
X144645142Y-107601657D01*
X144978476Y-107506419D02*
X145597523Y-107506419D01*
X145597523Y-107506419D02*
X145264190Y-107887371D01*
X145264190Y-107887371D02*
X145407047Y-107887371D01*
X145407047Y-107887371D02*
X145502285Y-107934990D01*
X145502285Y-107934990D02*
X145549904Y-107982609D01*
X145549904Y-107982609D02*
X145597523Y-108077847D01*
X145597523Y-108077847D02*
X145597523Y-108315942D01*
X145597523Y-108315942D02*
X145549904Y-108411180D01*
X145549904Y-108411180D02*
X145502285Y-108458800D01*
X145502285Y-108458800D02*
X145407047Y-108506419D01*
X145407047Y-108506419D02*
X145121333Y-108506419D01*
X145121333Y-108506419D02*
X145026095Y-108458800D01*
X145026095Y-108458800D02*
X144978476Y-108411180D01*
X146454666Y-107839752D02*
X146454666Y-108506419D01*
X146216571Y-107458800D02*
X145978476Y-108173085D01*
X145978476Y-108173085D02*
X146597523Y-108173085D01*
X140068799Y-72489219D02*
X139735466Y-72013028D01*
X139497371Y-72489219D02*
X139497371Y-71489219D01*
X139497371Y-71489219D02*
X139878323Y-71489219D01*
X139878323Y-71489219D02*
X139973561Y-71536838D01*
X139973561Y-71536838D02*
X140021180Y-71584457D01*
X140021180Y-71584457D02*
X140068799Y-71679695D01*
X140068799Y-71679695D02*
X140068799Y-71822552D01*
X140068799Y-71822552D02*
X140021180Y-71917790D01*
X140021180Y-71917790D02*
X139973561Y-71965409D01*
X139973561Y-71965409D02*
X139878323Y-72013028D01*
X139878323Y-72013028D02*
X139497371Y-72013028D01*
X140925942Y-72489219D02*
X140925942Y-71965409D01*
X140925942Y-71965409D02*
X140878323Y-71870171D01*
X140878323Y-71870171D02*
X140783085Y-71822552D01*
X140783085Y-71822552D02*
X140592609Y-71822552D01*
X140592609Y-71822552D02*
X140497371Y-71870171D01*
X140925942Y-72441600D02*
X140830704Y-72489219D01*
X140830704Y-72489219D02*
X140592609Y-72489219D01*
X140592609Y-72489219D02*
X140497371Y-72441600D01*
X140497371Y-72441600D02*
X140449752Y-72346361D01*
X140449752Y-72346361D02*
X140449752Y-72251123D01*
X140449752Y-72251123D02*
X140497371Y-72155885D01*
X140497371Y-72155885D02*
X140592609Y-72108266D01*
X140592609Y-72108266D02*
X140830704Y-72108266D01*
X140830704Y-72108266D02*
X140925942Y-72060647D01*
X141354514Y-72441600D02*
X141449752Y-72489219D01*
X141449752Y-72489219D02*
X141640228Y-72489219D01*
X141640228Y-72489219D02*
X141735466Y-72441600D01*
X141735466Y-72441600D02*
X141783085Y-72346361D01*
X141783085Y-72346361D02*
X141783085Y-72298742D01*
X141783085Y-72298742D02*
X141735466Y-72203504D01*
X141735466Y-72203504D02*
X141640228Y-72155885D01*
X141640228Y-72155885D02*
X141497371Y-72155885D01*
X141497371Y-72155885D02*
X141402133Y-72108266D01*
X141402133Y-72108266D02*
X141354514Y-72013028D01*
X141354514Y-72013028D02*
X141354514Y-71965409D01*
X141354514Y-71965409D02*
X141402133Y-71870171D01*
X141402133Y-71870171D02*
X141497371Y-71822552D01*
X141497371Y-71822552D02*
X141640228Y-71822552D01*
X141640228Y-71822552D02*
X141735466Y-71870171D01*
X142211657Y-71822552D02*
X142211657Y-72822552D01*
X142211657Y-71870171D02*
X142306895Y-71822552D01*
X142306895Y-71822552D02*
X142497371Y-71822552D01*
X142497371Y-71822552D02*
X142592609Y-71870171D01*
X142592609Y-71870171D02*
X142640228Y-71917790D01*
X142640228Y-71917790D02*
X142687847Y-72013028D01*
X142687847Y-72013028D02*
X142687847Y-72298742D01*
X142687847Y-72298742D02*
X142640228Y-72393980D01*
X142640228Y-72393980D02*
X142592609Y-72441600D01*
X142592609Y-72441600D02*
X142497371Y-72489219D01*
X142497371Y-72489219D02*
X142306895Y-72489219D01*
X142306895Y-72489219D02*
X142211657Y-72441600D01*
X143116419Y-72489219D02*
X143116419Y-71489219D01*
X143116419Y-71870171D02*
X143211657Y-71822552D01*
X143211657Y-71822552D02*
X143402133Y-71822552D01*
X143402133Y-71822552D02*
X143497371Y-71870171D01*
X143497371Y-71870171D02*
X143544990Y-71917790D01*
X143544990Y-71917790D02*
X143592609Y-72013028D01*
X143592609Y-72013028D02*
X143592609Y-72298742D01*
X143592609Y-72298742D02*
X143544990Y-72393980D01*
X143544990Y-72393980D02*
X143497371Y-72441600D01*
X143497371Y-72441600D02*
X143402133Y-72489219D01*
X143402133Y-72489219D02*
X143211657Y-72489219D01*
X143211657Y-72489219D02*
X143116419Y-72441600D01*
X144402133Y-72441600D02*
X144306895Y-72489219D01*
X144306895Y-72489219D02*
X144116419Y-72489219D01*
X144116419Y-72489219D02*
X144021181Y-72441600D01*
X144021181Y-72441600D02*
X143973562Y-72346361D01*
X143973562Y-72346361D02*
X143973562Y-71965409D01*
X143973562Y-71965409D02*
X144021181Y-71870171D01*
X144021181Y-71870171D02*
X144116419Y-71822552D01*
X144116419Y-71822552D02*
X144306895Y-71822552D01*
X144306895Y-71822552D02*
X144402133Y-71870171D01*
X144402133Y-71870171D02*
X144449752Y-71965409D01*
X144449752Y-71965409D02*
X144449752Y-72060647D01*
X144449752Y-72060647D02*
X143973562Y-72155885D01*
X144878324Y-72489219D02*
X144878324Y-71822552D01*
X144878324Y-72013028D02*
X144925943Y-71917790D01*
X144925943Y-71917790D02*
X144973562Y-71870171D01*
X144973562Y-71870171D02*
X145068800Y-71822552D01*
X145068800Y-71822552D02*
X145164038Y-71822552D01*
X145497372Y-72489219D02*
X145497372Y-71822552D01*
X145497372Y-72013028D02*
X145544991Y-71917790D01*
X145544991Y-71917790D02*
X145592610Y-71870171D01*
X145592610Y-71870171D02*
X145687848Y-71822552D01*
X145687848Y-71822552D02*
X145783086Y-71822552D01*
X146021182Y-71822552D02*
X146259277Y-72489219D01*
X146497372Y-71822552D02*
X146259277Y-72489219D01*
X146259277Y-72489219D02*
X146164039Y-72727314D01*
X146164039Y-72727314D02*
X146116420Y-72774933D01*
X146116420Y-72774933D02*
X146021182Y-72822552D01*
X147640230Y-72489219D02*
X147640230Y-71489219D01*
X147640230Y-71489219D02*
X148021182Y-71489219D01*
X148021182Y-71489219D02*
X148116420Y-71536838D01*
X148116420Y-71536838D02*
X148164039Y-71584457D01*
X148164039Y-71584457D02*
X148211658Y-71679695D01*
X148211658Y-71679695D02*
X148211658Y-71822552D01*
X148211658Y-71822552D02*
X148164039Y-71917790D01*
X148164039Y-71917790D02*
X148116420Y-71965409D01*
X148116420Y-71965409D02*
X148021182Y-72013028D01*
X148021182Y-72013028D02*
X147640230Y-72013028D01*
X148640230Y-72489219D02*
X148640230Y-71822552D01*
X148640230Y-71489219D02*
X148592611Y-71536838D01*
X148592611Y-71536838D02*
X148640230Y-71584457D01*
X148640230Y-71584457D02*
X148687849Y-71536838D01*
X148687849Y-71536838D02*
X148640230Y-71489219D01*
X148640230Y-71489219D02*
X148640230Y-71584457D01*
X118909619Y-110315333D02*
X119623904Y-110315333D01*
X119623904Y-110315333D02*
X119766761Y-110362952D01*
X119766761Y-110362952D02*
X119862000Y-110458190D01*
X119862000Y-110458190D02*
X119909619Y-110601047D01*
X119909619Y-110601047D02*
X119909619Y-110696285D01*
X119004857Y-109886761D02*
X118957238Y-109839142D01*
X118957238Y-109839142D02*
X118909619Y-109743904D01*
X118909619Y-109743904D02*
X118909619Y-109505809D01*
X118909619Y-109505809D02*
X118957238Y-109410571D01*
X118957238Y-109410571D02*
X119004857Y-109362952D01*
X119004857Y-109362952D02*
X119100095Y-109315333D01*
X119100095Y-109315333D02*
X119195333Y-109315333D01*
X119195333Y-109315333D02*
X119338190Y-109362952D01*
X119338190Y-109362952D02*
X119909619Y-109934380D01*
X119909619Y-109934380D02*
X119909619Y-109315333D01*
X168202780Y-93251257D02*
X168250400Y-93298876D01*
X168250400Y-93298876D02*
X168298019Y-93441733D01*
X168298019Y-93441733D02*
X168298019Y-93536971D01*
X168298019Y-93536971D02*
X168250400Y-93679828D01*
X168250400Y-93679828D02*
X168155161Y-93775066D01*
X168155161Y-93775066D02*
X168059923Y-93822685D01*
X168059923Y-93822685D02*
X167869447Y-93870304D01*
X167869447Y-93870304D02*
X167726590Y-93870304D01*
X167726590Y-93870304D02*
X167536114Y-93822685D01*
X167536114Y-93822685D02*
X167440876Y-93775066D01*
X167440876Y-93775066D02*
X167345638Y-93679828D01*
X167345638Y-93679828D02*
X167298019Y-93536971D01*
X167298019Y-93536971D02*
X167298019Y-93441733D01*
X167298019Y-93441733D02*
X167345638Y-93298876D01*
X167345638Y-93298876D02*
X167393257Y-93251257D01*
X167298019Y-92917923D02*
X167298019Y-92298876D01*
X167298019Y-92298876D02*
X167678971Y-92632209D01*
X167678971Y-92632209D02*
X167678971Y-92489352D01*
X167678971Y-92489352D02*
X167726590Y-92394114D01*
X167726590Y-92394114D02*
X167774209Y-92346495D01*
X167774209Y-92346495D02*
X167869447Y-92298876D01*
X167869447Y-92298876D02*
X168107542Y-92298876D01*
X168107542Y-92298876D02*
X168202780Y-92346495D01*
X168202780Y-92346495D02*
X168250400Y-92394114D01*
X168250400Y-92394114D02*
X168298019Y-92489352D01*
X168298019Y-92489352D02*
X168298019Y-92775066D01*
X168298019Y-92775066D02*
X168250400Y-92870304D01*
X168250400Y-92870304D02*
X168202780Y-92917923D01*
X168298019Y-91346495D02*
X168298019Y-91917923D01*
X168298019Y-91632209D02*
X167298019Y-91632209D01*
X167298019Y-91632209D02*
X167440876Y-91727447D01*
X167440876Y-91727447D02*
X167536114Y-91822685D01*
X167536114Y-91822685D02*
X167583733Y-91917923D01*
X161155142Y-98149580D02*
X161107523Y-98197200D01*
X161107523Y-98197200D02*
X160964666Y-98244819D01*
X160964666Y-98244819D02*
X160869428Y-98244819D01*
X160869428Y-98244819D02*
X160726571Y-98197200D01*
X160726571Y-98197200D02*
X160631333Y-98101961D01*
X160631333Y-98101961D02*
X160583714Y-98006723D01*
X160583714Y-98006723D02*
X160536095Y-97816247D01*
X160536095Y-97816247D02*
X160536095Y-97673390D01*
X160536095Y-97673390D02*
X160583714Y-97482914D01*
X160583714Y-97482914D02*
X160631333Y-97387676D01*
X160631333Y-97387676D02*
X160726571Y-97292438D01*
X160726571Y-97292438D02*
X160869428Y-97244819D01*
X160869428Y-97244819D02*
X160964666Y-97244819D01*
X160964666Y-97244819D02*
X161107523Y-97292438D01*
X161107523Y-97292438D02*
X161155142Y-97340057D01*
X161536095Y-97340057D02*
X161583714Y-97292438D01*
X161583714Y-97292438D02*
X161678952Y-97244819D01*
X161678952Y-97244819D02*
X161917047Y-97244819D01*
X161917047Y-97244819D02*
X162012285Y-97292438D01*
X162012285Y-97292438D02*
X162059904Y-97340057D01*
X162059904Y-97340057D02*
X162107523Y-97435295D01*
X162107523Y-97435295D02*
X162107523Y-97530533D01*
X162107523Y-97530533D02*
X162059904Y-97673390D01*
X162059904Y-97673390D02*
X161488476Y-98244819D01*
X161488476Y-98244819D02*
X162107523Y-98244819D01*
X162726571Y-97244819D02*
X162821809Y-97244819D01*
X162821809Y-97244819D02*
X162917047Y-97292438D01*
X162917047Y-97292438D02*
X162964666Y-97340057D01*
X162964666Y-97340057D02*
X163012285Y-97435295D01*
X163012285Y-97435295D02*
X163059904Y-97625771D01*
X163059904Y-97625771D02*
X163059904Y-97863866D01*
X163059904Y-97863866D02*
X163012285Y-98054342D01*
X163012285Y-98054342D02*
X162964666Y-98149580D01*
X162964666Y-98149580D02*
X162917047Y-98197200D01*
X162917047Y-98197200D02*
X162821809Y-98244819D01*
X162821809Y-98244819D02*
X162726571Y-98244819D01*
X162726571Y-98244819D02*
X162631333Y-98197200D01*
X162631333Y-98197200D02*
X162583714Y-98149580D01*
X162583714Y-98149580D02*
X162536095Y-98054342D01*
X162536095Y-98054342D02*
X162488476Y-97863866D01*
X162488476Y-97863866D02*
X162488476Y-97625771D01*
X162488476Y-97625771D02*
X162536095Y-97435295D01*
X162536095Y-97435295D02*
X162583714Y-97340057D01*
X162583714Y-97340057D02*
X162631333Y-97292438D01*
X162631333Y-97292438D02*
X162726571Y-97244819D01*
X161859580Y-86842857D02*
X161907200Y-86890476D01*
X161907200Y-86890476D02*
X161954819Y-87033333D01*
X161954819Y-87033333D02*
X161954819Y-87128571D01*
X161954819Y-87128571D02*
X161907200Y-87271428D01*
X161907200Y-87271428D02*
X161811961Y-87366666D01*
X161811961Y-87366666D02*
X161716723Y-87414285D01*
X161716723Y-87414285D02*
X161526247Y-87461904D01*
X161526247Y-87461904D02*
X161383390Y-87461904D01*
X161383390Y-87461904D02*
X161192914Y-87414285D01*
X161192914Y-87414285D02*
X161097676Y-87366666D01*
X161097676Y-87366666D02*
X161002438Y-87271428D01*
X161002438Y-87271428D02*
X160954819Y-87128571D01*
X160954819Y-87128571D02*
X160954819Y-87033333D01*
X160954819Y-87033333D02*
X161002438Y-86890476D01*
X161002438Y-86890476D02*
X161050057Y-86842857D01*
X161050057Y-86461904D02*
X161002438Y-86414285D01*
X161002438Y-86414285D02*
X160954819Y-86319047D01*
X160954819Y-86319047D02*
X160954819Y-86080952D01*
X160954819Y-86080952D02*
X161002438Y-85985714D01*
X161002438Y-85985714D02*
X161050057Y-85938095D01*
X161050057Y-85938095D02*
X161145295Y-85890476D01*
X161145295Y-85890476D02*
X161240533Y-85890476D01*
X161240533Y-85890476D02*
X161383390Y-85938095D01*
X161383390Y-85938095D02*
X161954819Y-86509523D01*
X161954819Y-86509523D02*
X161954819Y-85890476D01*
X161288152Y-85033333D02*
X161954819Y-85033333D01*
X160907200Y-85271428D02*
X161621485Y-85509523D01*
X161621485Y-85509523D02*
X161621485Y-84890476D01*
X144848342Y-109884380D02*
X144800723Y-109932000D01*
X144800723Y-109932000D02*
X144657866Y-109979619D01*
X144657866Y-109979619D02*
X144562628Y-109979619D01*
X144562628Y-109979619D02*
X144419771Y-109932000D01*
X144419771Y-109932000D02*
X144324533Y-109836761D01*
X144324533Y-109836761D02*
X144276914Y-109741523D01*
X144276914Y-109741523D02*
X144229295Y-109551047D01*
X144229295Y-109551047D02*
X144229295Y-109408190D01*
X144229295Y-109408190D02*
X144276914Y-109217714D01*
X144276914Y-109217714D02*
X144324533Y-109122476D01*
X144324533Y-109122476D02*
X144419771Y-109027238D01*
X144419771Y-109027238D02*
X144562628Y-108979619D01*
X144562628Y-108979619D02*
X144657866Y-108979619D01*
X144657866Y-108979619D02*
X144800723Y-109027238D01*
X144800723Y-109027238D02*
X144848342Y-109074857D01*
X145181676Y-108979619D02*
X145800723Y-108979619D01*
X145800723Y-108979619D02*
X145467390Y-109360571D01*
X145467390Y-109360571D02*
X145610247Y-109360571D01*
X145610247Y-109360571D02*
X145705485Y-109408190D01*
X145705485Y-109408190D02*
X145753104Y-109455809D01*
X145753104Y-109455809D02*
X145800723Y-109551047D01*
X145800723Y-109551047D02*
X145800723Y-109789142D01*
X145800723Y-109789142D02*
X145753104Y-109884380D01*
X145753104Y-109884380D02*
X145705485Y-109932000D01*
X145705485Y-109932000D02*
X145610247Y-109979619D01*
X145610247Y-109979619D02*
X145324533Y-109979619D01*
X145324533Y-109979619D02*
X145229295Y-109932000D01*
X145229295Y-109932000D02*
X145181676Y-109884380D01*
X146705485Y-108979619D02*
X146229295Y-108979619D01*
X146229295Y-108979619D02*
X146181676Y-109455809D01*
X146181676Y-109455809D02*
X146229295Y-109408190D01*
X146229295Y-109408190D02*
X146324533Y-109360571D01*
X146324533Y-109360571D02*
X146562628Y-109360571D01*
X146562628Y-109360571D02*
X146657866Y-109408190D01*
X146657866Y-109408190D02*
X146705485Y-109455809D01*
X146705485Y-109455809D02*
X146753104Y-109551047D01*
X146753104Y-109551047D02*
X146753104Y-109789142D01*
X146753104Y-109789142D02*
X146705485Y-109884380D01*
X146705485Y-109884380D02*
X146657866Y-109932000D01*
X146657866Y-109932000D02*
X146562628Y-109979619D01*
X146562628Y-109979619D02*
X146324533Y-109979619D01*
X146324533Y-109979619D02*
X146229295Y-109932000D01*
X146229295Y-109932000D02*
X146181676Y-109884380D01*
X156738095Y-96071469D02*
X156738095Y-96880992D01*
X156738095Y-96880992D02*
X156785714Y-96976230D01*
X156785714Y-96976230D02*
X156833333Y-97023850D01*
X156833333Y-97023850D02*
X156928571Y-97071469D01*
X156928571Y-97071469D02*
X157119047Y-97071469D01*
X157119047Y-97071469D02*
X157214285Y-97023850D01*
X157214285Y-97023850D02*
X157261904Y-96976230D01*
X157261904Y-96976230D02*
X157309523Y-96880992D01*
X157309523Y-96880992D02*
X157309523Y-96071469D01*
X157833333Y-97071469D02*
X158023809Y-97071469D01*
X158023809Y-97071469D02*
X158119047Y-97023850D01*
X158119047Y-97023850D02*
X158166666Y-96976230D01*
X158166666Y-96976230D02*
X158261904Y-96833373D01*
X158261904Y-96833373D02*
X158309523Y-96642897D01*
X158309523Y-96642897D02*
X158309523Y-96261945D01*
X158309523Y-96261945D02*
X158261904Y-96166707D01*
X158261904Y-96166707D02*
X158214285Y-96119088D01*
X158214285Y-96119088D02*
X158119047Y-96071469D01*
X158119047Y-96071469D02*
X157928571Y-96071469D01*
X157928571Y-96071469D02*
X157833333Y-96119088D01*
X157833333Y-96119088D02*
X157785714Y-96166707D01*
X157785714Y-96166707D02*
X157738095Y-96261945D01*
X157738095Y-96261945D02*
X157738095Y-96500040D01*
X157738095Y-96500040D02*
X157785714Y-96595278D01*
X157785714Y-96595278D02*
X157833333Y-96642897D01*
X157833333Y-96642897D02*
X157928571Y-96690516D01*
X157928571Y-96690516D02*
X158119047Y-96690516D01*
X158119047Y-96690516D02*
X158214285Y-96642897D01*
X158214285Y-96642897D02*
X158261904Y-96595278D01*
X158261904Y-96595278D02*
X158309523Y-96500040D01*
X156057599Y-99300380D02*
X156057599Y-99062285D01*
X156295694Y-99157523D02*
X156057599Y-99062285D01*
X156057599Y-99062285D02*
X155819504Y-99157523D01*
X156200456Y-98871809D02*
X156057599Y-99062285D01*
X156057599Y-99062285D02*
X155914742Y-98871809D01*
X156041978Y-98712630D02*
X156041978Y-98474535D01*
X156280073Y-98569773D02*
X156041978Y-98474535D01*
X156041978Y-98474535D02*
X155803883Y-98569773D01*
X156184835Y-98284059D02*
X156041978Y-98474535D01*
X156041978Y-98474535D02*
X155899121Y-98284059D01*
X141223904Y-104536717D02*
X141223904Y-103727194D01*
X141223904Y-103727194D02*
X141176285Y-103631956D01*
X141176285Y-103631956D02*
X141128666Y-103584337D01*
X141128666Y-103584337D02*
X141033428Y-103536717D01*
X141033428Y-103536717D02*
X140842952Y-103536717D01*
X140842952Y-103536717D02*
X140747714Y-103584337D01*
X140747714Y-103584337D02*
X140700095Y-103631956D01*
X140700095Y-103631956D02*
X140652476Y-103727194D01*
X140652476Y-103727194D02*
X140652476Y-104536717D01*
X140271523Y-104536717D02*
X139652476Y-104536717D01*
X139652476Y-104536717D02*
X139985809Y-104155765D01*
X139985809Y-104155765D02*
X139842952Y-104155765D01*
X139842952Y-104155765D02*
X139747714Y-104108146D01*
X139747714Y-104108146D02*
X139700095Y-104060527D01*
X139700095Y-104060527D02*
X139652476Y-103965289D01*
X139652476Y-103965289D02*
X139652476Y-103727194D01*
X139652476Y-103727194D02*
X139700095Y-103631956D01*
X139700095Y-103631956D02*
X139747714Y-103584337D01*
X139747714Y-103584337D02*
X139842952Y-103536717D01*
X139842952Y-103536717D02*
X140128666Y-103536717D01*
X140128666Y-103536717D02*
X140223904Y-103584337D01*
X140223904Y-103584337D02*
X140271523Y-103631956D01*
X156861905Y-88254819D02*
X156861905Y-89064342D01*
X156861905Y-89064342D02*
X156909524Y-89159580D01*
X156909524Y-89159580D02*
X156957143Y-89207200D01*
X156957143Y-89207200D02*
X157052381Y-89254819D01*
X157052381Y-89254819D02*
X157242857Y-89254819D01*
X157242857Y-89254819D02*
X157338095Y-89207200D01*
X157338095Y-89207200D02*
X157385714Y-89159580D01*
X157385714Y-89159580D02*
X157433333Y-89064342D01*
X157433333Y-89064342D02*
X157433333Y-88254819D01*
X158433333Y-89254819D02*
X157861905Y-89254819D01*
X158147619Y-89254819D02*
X158147619Y-88254819D01*
X158147619Y-88254819D02*
X158052381Y-88397676D01*
X158052381Y-88397676D02*
X157957143Y-88492914D01*
X157957143Y-88492914D02*
X157861905Y-88540533D01*
X159052381Y-88254819D02*
X159147619Y-88254819D01*
X159147619Y-88254819D02*
X159242857Y-88302438D01*
X159242857Y-88302438D02*
X159290476Y-88350057D01*
X159290476Y-88350057D02*
X159338095Y-88445295D01*
X159338095Y-88445295D02*
X159385714Y-88635771D01*
X159385714Y-88635771D02*
X159385714Y-88873866D01*
X159385714Y-88873866D02*
X159338095Y-89064342D01*
X159338095Y-89064342D02*
X159290476Y-89159580D01*
X159290476Y-89159580D02*
X159242857Y-89207200D01*
X159242857Y-89207200D02*
X159147619Y-89254819D01*
X159147619Y-89254819D02*
X159052381Y-89254819D01*
X159052381Y-89254819D02*
X158957143Y-89207200D01*
X158957143Y-89207200D02*
X158909524Y-89159580D01*
X158909524Y-89159580D02*
X158861905Y-89064342D01*
X158861905Y-89064342D02*
X158814286Y-88873866D01*
X158814286Y-88873866D02*
X158814286Y-88635771D01*
X158814286Y-88635771D02*
X158861905Y-88445295D01*
X158861905Y-88445295D02*
X158909524Y-88350057D01*
X158909524Y-88350057D02*
X158957143Y-88302438D01*
X158957143Y-88302438D02*
X159052381Y-88254819D01*
X139366680Y-107030718D02*
X139414300Y-107078337D01*
X139414300Y-107078337D02*
X139461919Y-107221194D01*
X139461919Y-107221194D02*
X139461919Y-107316432D01*
X139461919Y-107316432D02*
X139414300Y-107459289D01*
X139414300Y-107459289D02*
X139319061Y-107554527D01*
X139319061Y-107554527D02*
X139223823Y-107602146D01*
X139223823Y-107602146D02*
X139033347Y-107649765D01*
X139033347Y-107649765D02*
X138890490Y-107649765D01*
X138890490Y-107649765D02*
X138700014Y-107602146D01*
X138700014Y-107602146D02*
X138604776Y-107554527D01*
X138604776Y-107554527D02*
X138509538Y-107459289D01*
X138509538Y-107459289D02*
X138461919Y-107316432D01*
X138461919Y-107316432D02*
X138461919Y-107221194D01*
X138461919Y-107221194D02*
X138509538Y-107078337D01*
X138509538Y-107078337D02*
X138557157Y-107030718D01*
X138795252Y-106173575D02*
X139461919Y-106173575D01*
X138414300Y-106411670D02*
X139128585Y-106649765D01*
X139128585Y-106649765D02*
X139128585Y-106030718D01*
X170846232Y-106358593D02*
X170798613Y-106406213D01*
X170798613Y-106406213D02*
X170655756Y-106453832D01*
X170655756Y-106453832D02*
X170560518Y-106453832D01*
X170560518Y-106453832D02*
X170417661Y-106406213D01*
X170417661Y-106406213D02*
X170322423Y-106310974D01*
X170322423Y-106310974D02*
X170274804Y-106215736D01*
X170274804Y-106215736D02*
X170227185Y-106025260D01*
X170227185Y-106025260D02*
X170227185Y-105882403D01*
X170227185Y-105882403D02*
X170274804Y-105691927D01*
X170274804Y-105691927D02*
X170322423Y-105596689D01*
X170322423Y-105596689D02*
X170417661Y-105501451D01*
X170417661Y-105501451D02*
X170560518Y-105453832D01*
X170560518Y-105453832D02*
X170655756Y-105453832D01*
X170655756Y-105453832D02*
X170798613Y-105501451D01*
X170798613Y-105501451D02*
X170846232Y-105549070D01*
X171227185Y-105549070D02*
X171274804Y-105501451D01*
X171274804Y-105501451D02*
X171370042Y-105453832D01*
X171370042Y-105453832D02*
X171608137Y-105453832D01*
X171608137Y-105453832D02*
X171703375Y-105501451D01*
X171703375Y-105501451D02*
X171750994Y-105549070D01*
X171750994Y-105549070D02*
X171798613Y-105644308D01*
X171798613Y-105644308D02*
X171798613Y-105739546D01*
X171798613Y-105739546D02*
X171750994Y-105882403D01*
X171750994Y-105882403D02*
X171179566Y-106453832D01*
X171179566Y-106453832D02*
X171798613Y-106453832D01*
X172750994Y-106453832D02*
X172179566Y-106453832D01*
X172465280Y-106453832D02*
X172465280Y-105453832D01*
X172465280Y-105453832D02*
X172370042Y-105596689D01*
X172370042Y-105596689D02*
X172274804Y-105691927D01*
X172274804Y-105691927D02*
X172179566Y-105739546D01*
X159613473Y-103423537D02*
X159613473Y-104233060D01*
X159613473Y-104233060D02*
X159661092Y-104328298D01*
X159661092Y-104328298D02*
X159708711Y-104375918D01*
X159708711Y-104375918D02*
X159803949Y-104423537D01*
X159803949Y-104423537D02*
X159994425Y-104423537D01*
X159994425Y-104423537D02*
X160089663Y-104375918D01*
X160089663Y-104375918D02*
X160137282Y-104328298D01*
X160137282Y-104328298D02*
X160184901Y-104233060D01*
X160184901Y-104233060D02*
X160184901Y-103423537D01*
X160565854Y-103423537D02*
X161232520Y-103423537D01*
X161232520Y-103423537D02*
X160803949Y-104423537D01*
X162154080Y-104698800D02*
X161915985Y-104698800D01*
X162011223Y-104460705D02*
X161915985Y-104698800D01*
X161915985Y-104698800D02*
X162011223Y-104936895D01*
X161725509Y-104555943D02*
X161915985Y-104698800D01*
X161915985Y-104698800D02*
X161725509Y-104841657D01*
X162154080Y-104698800D02*
X161915985Y-104698800D01*
X162011223Y-104460705D02*
X161915985Y-104698800D01*
X161915985Y-104698800D02*
X162011223Y-104936895D01*
X161725509Y-104555943D02*
X161915985Y-104698800D01*
X161915985Y-104698800D02*
X161725509Y-104841657D01*
X170846232Y-107882593D02*
X170798613Y-107930213D01*
X170798613Y-107930213D02*
X170655756Y-107977832D01*
X170655756Y-107977832D02*
X170560518Y-107977832D01*
X170560518Y-107977832D02*
X170417661Y-107930213D01*
X170417661Y-107930213D02*
X170322423Y-107834974D01*
X170322423Y-107834974D02*
X170274804Y-107739736D01*
X170274804Y-107739736D02*
X170227185Y-107549260D01*
X170227185Y-107549260D02*
X170227185Y-107406403D01*
X170227185Y-107406403D02*
X170274804Y-107215927D01*
X170274804Y-107215927D02*
X170322423Y-107120689D01*
X170322423Y-107120689D02*
X170417661Y-107025451D01*
X170417661Y-107025451D02*
X170560518Y-106977832D01*
X170560518Y-106977832D02*
X170655756Y-106977832D01*
X170655756Y-106977832D02*
X170798613Y-107025451D01*
X170798613Y-107025451D02*
X170846232Y-107073070D01*
X171227185Y-107073070D02*
X171274804Y-107025451D01*
X171274804Y-107025451D02*
X171370042Y-106977832D01*
X171370042Y-106977832D02*
X171608137Y-106977832D01*
X171608137Y-106977832D02*
X171703375Y-107025451D01*
X171703375Y-107025451D02*
X171750994Y-107073070D01*
X171750994Y-107073070D02*
X171798613Y-107168308D01*
X171798613Y-107168308D02*
X171798613Y-107263546D01*
X171798613Y-107263546D02*
X171750994Y-107406403D01*
X171750994Y-107406403D02*
X171179566Y-107977832D01*
X171179566Y-107977832D02*
X171798613Y-107977832D01*
X172179566Y-107073070D02*
X172227185Y-107025451D01*
X172227185Y-107025451D02*
X172322423Y-106977832D01*
X172322423Y-106977832D02*
X172560518Y-106977832D01*
X172560518Y-106977832D02*
X172655756Y-107025451D01*
X172655756Y-107025451D02*
X172703375Y-107073070D01*
X172703375Y-107073070D02*
X172750994Y-107168308D01*
X172750994Y-107168308D02*
X172750994Y-107263546D01*
X172750994Y-107263546D02*
X172703375Y-107406403D01*
X172703375Y-107406403D02*
X172131947Y-107977832D01*
X172131947Y-107977832D02*
X172750994Y-107977832D01*
X153066666Y-110054819D02*
X153066666Y-110769104D01*
X153066666Y-110769104D02*
X153019047Y-110911961D01*
X153019047Y-110911961D02*
X152923809Y-111007200D01*
X152923809Y-111007200D02*
X152780952Y-111054819D01*
X152780952Y-111054819D02*
X152685714Y-111054819D01*
X153971428Y-110388152D02*
X153971428Y-111054819D01*
X153733333Y-110007200D02*
X153495238Y-110721485D01*
X153495238Y-110721485D02*
X154114285Y-110721485D01*
X162733919Y-103387703D02*
X163543442Y-103387703D01*
X163543442Y-103387703D02*
X163638680Y-103340084D01*
X163638680Y-103340084D02*
X163686300Y-103292465D01*
X163686300Y-103292465D02*
X163733919Y-103197227D01*
X163733919Y-103197227D02*
X163733919Y-103006751D01*
X163733919Y-103006751D02*
X163686300Y-102911513D01*
X163686300Y-102911513D02*
X163638680Y-102863894D01*
X163638680Y-102863894D02*
X163543442Y-102816275D01*
X163543442Y-102816275D02*
X162733919Y-102816275D01*
X163162490Y-102197227D02*
X163114871Y-102292465D01*
X163114871Y-102292465D02*
X163067252Y-102340084D01*
X163067252Y-102340084D02*
X162972014Y-102387703D01*
X162972014Y-102387703D02*
X162924395Y-102387703D01*
X162924395Y-102387703D02*
X162829157Y-102340084D01*
X162829157Y-102340084D02*
X162781538Y-102292465D01*
X162781538Y-102292465D02*
X162733919Y-102197227D01*
X162733919Y-102197227D02*
X162733919Y-102006751D01*
X162733919Y-102006751D02*
X162781538Y-101911513D01*
X162781538Y-101911513D02*
X162829157Y-101863894D01*
X162829157Y-101863894D02*
X162924395Y-101816275D01*
X162924395Y-101816275D02*
X162972014Y-101816275D01*
X162972014Y-101816275D02*
X163067252Y-101863894D01*
X163067252Y-101863894D02*
X163114871Y-101911513D01*
X163114871Y-101911513D02*
X163162490Y-102006751D01*
X163162490Y-102006751D02*
X163162490Y-102197227D01*
X163162490Y-102197227D02*
X163210109Y-102292465D01*
X163210109Y-102292465D02*
X163257728Y-102340084D01*
X163257728Y-102340084D02*
X163352966Y-102387703D01*
X163352966Y-102387703D02*
X163543442Y-102387703D01*
X163543442Y-102387703D02*
X163638680Y-102340084D01*
X163638680Y-102340084D02*
X163686300Y-102292465D01*
X163686300Y-102292465D02*
X163733919Y-102197227D01*
X163733919Y-102197227D02*
X163733919Y-102006751D01*
X163733919Y-102006751D02*
X163686300Y-101911513D01*
X163686300Y-101911513D02*
X163638680Y-101863894D01*
X163638680Y-101863894D02*
X163543442Y-101816275D01*
X163543442Y-101816275D02*
X163352966Y-101816275D01*
X163352966Y-101816275D02*
X163257728Y-101863894D01*
X163257728Y-101863894D02*
X163210109Y-101911513D01*
X163210109Y-101911513D02*
X163162490Y-102006751D01*
X135150280Y-106725918D02*
X135197900Y-106773537D01*
X135197900Y-106773537D02*
X135245519Y-106916394D01*
X135245519Y-106916394D02*
X135245519Y-107011632D01*
X135245519Y-107011632D02*
X135197900Y-107154489D01*
X135197900Y-107154489D02*
X135102661Y-107249727D01*
X135102661Y-107249727D02*
X135007423Y-107297346D01*
X135007423Y-107297346D02*
X134816947Y-107344965D01*
X134816947Y-107344965D02*
X134674090Y-107344965D01*
X134674090Y-107344965D02*
X134483614Y-107297346D01*
X134483614Y-107297346D02*
X134388376Y-107249727D01*
X134388376Y-107249727D02*
X134293138Y-107154489D01*
X134293138Y-107154489D02*
X134245519Y-107011632D01*
X134245519Y-107011632D02*
X134245519Y-106916394D01*
X134245519Y-106916394D02*
X134293138Y-106773537D01*
X134293138Y-106773537D02*
X134340757Y-106725918D01*
X134245519Y-106392584D02*
X134245519Y-105773537D01*
X134245519Y-105773537D02*
X134626471Y-106106870D01*
X134626471Y-106106870D02*
X134626471Y-105964013D01*
X134626471Y-105964013D02*
X134674090Y-105868775D01*
X134674090Y-105868775D02*
X134721709Y-105821156D01*
X134721709Y-105821156D02*
X134816947Y-105773537D01*
X134816947Y-105773537D02*
X135055042Y-105773537D01*
X135055042Y-105773537D02*
X135150280Y-105821156D01*
X135150280Y-105821156D02*
X135197900Y-105868775D01*
X135197900Y-105868775D02*
X135245519Y-105964013D01*
X135245519Y-105964013D02*
X135245519Y-106249727D01*
X135245519Y-106249727D02*
X135197900Y-106344965D01*
X135197900Y-106344965D02*
X135150280Y-106392584D01*
X169879180Y-93403657D02*
X169926800Y-93451276D01*
X169926800Y-93451276D02*
X169974419Y-93594133D01*
X169974419Y-93594133D02*
X169974419Y-93689371D01*
X169974419Y-93689371D02*
X169926800Y-93832228D01*
X169926800Y-93832228D02*
X169831561Y-93927466D01*
X169831561Y-93927466D02*
X169736323Y-93975085D01*
X169736323Y-93975085D02*
X169545847Y-94022704D01*
X169545847Y-94022704D02*
X169402990Y-94022704D01*
X169402990Y-94022704D02*
X169212514Y-93975085D01*
X169212514Y-93975085D02*
X169117276Y-93927466D01*
X169117276Y-93927466D02*
X169022038Y-93832228D01*
X169022038Y-93832228D02*
X168974419Y-93689371D01*
X168974419Y-93689371D02*
X168974419Y-93594133D01*
X168974419Y-93594133D02*
X169022038Y-93451276D01*
X169022038Y-93451276D02*
X169069657Y-93403657D01*
X168974419Y-93070323D02*
X168974419Y-92451276D01*
X168974419Y-92451276D02*
X169355371Y-92784609D01*
X169355371Y-92784609D02*
X169355371Y-92641752D01*
X169355371Y-92641752D02*
X169402990Y-92546514D01*
X169402990Y-92546514D02*
X169450609Y-92498895D01*
X169450609Y-92498895D02*
X169545847Y-92451276D01*
X169545847Y-92451276D02*
X169783942Y-92451276D01*
X169783942Y-92451276D02*
X169879180Y-92498895D01*
X169879180Y-92498895D02*
X169926800Y-92546514D01*
X169926800Y-92546514D02*
X169974419Y-92641752D01*
X169974419Y-92641752D02*
X169974419Y-92927466D01*
X169974419Y-92927466D02*
X169926800Y-93022704D01*
X169926800Y-93022704D02*
X169879180Y-93070323D01*
X168974419Y-91832228D02*
X168974419Y-91736990D01*
X168974419Y-91736990D02*
X169022038Y-91641752D01*
X169022038Y-91641752D02*
X169069657Y-91594133D01*
X169069657Y-91594133D02*
X169164895Y-91546514D01*
X169164895Y-91546514D02*
X169355371Y-91498895D01*
X169355371Y-91498895D02*
X169593466Y-91498895D01*
X169593466Y-91498895D02*
X169783942Y-91546514D01*
X169783942Y-91546514D02*
X169879180Y-91594133D01*
X169879180Y-91594133D02*
X169926800Y-91641752D01*
X169926800Y-91641752D02*
X169974419Y-91736990D01*
X169974419Y-91736990D02*
X169974419Y-91832228D01*
X169974419Y-91832228D02*
X169926800Y-91927466D01*
X169926800Y-91927466D02*
X169879180Y-91975085D01*
X169879180Y-91975085D02*
X169783942Y-92022704D01*
X169783942Y-92022704D02*
X169593466Y-92070323D01*
X169593466Y-92070323D02*
X169355371Y-92070323D01*
X169355371Y-92070323D02*
X169164895Y-92022704D01*
X169164895Y-92022704D02*
X169069657Y-91975085D01*
X169069657Y-91975085D02*
X169022038Y-91927466D01*
X169022038Y-91927466D02*
X168974419Y-91832228D01*
X140179466Y-92825219D02*
X140179466Y-93539504D01*
X140179466Y-93539504D02*
X140131847Y-93682361D01*
X140131847Y-93682361D02*
X140036609Y-93777600D01*
X140036609Y-93777600D02*
X139893752Y-93825219D01*
X139893752Y-93825219D02*
X139798514Y-93825219D01*
X140560419Y-92825219D02*
X141179466Y-92825219D01*
X141179466Y-92825219D02*
X140846133Y-93206171D01*
X140846133Y-93206171D02*
X140988990Y-93206171D01*
X140988990Y-93206171D02*
X141084228Y-93253790D01*
X141084228Y-93253790D02*
X141131847Y-93301409D01*
X141131847Y-93301409D02*
X141179466Y-93396647D01*
X141179466Y-93396647D02*
X141179466Y-93634742D01*
X141179466Y-93634742D02*
X141131847Y-93729980D01*
X141131847Y-93729980D02*
X141084228Y-93777600D01*
X141084228Y-93777600D02*
X140988990Y-93825219D01*
X140988990Y-93825219D02*
X140703276Y-93825219D01*
X140703276Y-93825219D02*
X140608038Y-93777600D01*
X140608038Y-93777600D02*
X140560419Y-93729980D01*
X161409142Y-99622780D02*
X161361523Y-99670400D01*
X161361523Y-99670400D02*
X161218666Y-99718019D01*
X161218666Y-99718019D02*
X161123428Y-99718019D01*
X161123428Y-99718019D02*
X160980571Y-99670400D01*
X160980571Y-99670400D02*
X160885333Y-99575161D01*
X160885333Y-99575161D02*
X160837714Y-99479923D01*
X160837714Y-99479923D02*
X160790095Y-99289447D01*
X160790095Y-99289447D02*
X160790095Y-99146590D01*
X160790095Y-99146590D02*
X160837714Y-98956114D01*
X160837714Y-98956114D02*
X160885333Y-98860876D01*
X160885333Y-98860876D02*
X160980571Y-98765638D01*
X160980571Y-98765638D02*
X161123428Y-98718019D01*
X161123428Y-98718019D02*
X161218666Y-98718019D01*
X161218666Y-98718019D02*
X161361523Y-98765638D01*
X161361523Y-98765638D02*
X161409142Y-98813257D01*
X162361523Y-99718019D02*
X161790095Y-99718019D01*
X162075809Y-99718019D02*
X162075809Y-98718019D01*
X162075809Y-98718019D02*
X161980571Y-98860876D01*
X161980571Y-98860876D02*
X161885333Y-98956114D01*
X161885333Y-98956114D02*
X161790095Y-99003733D01*
X162837714Y-99718019D02*
X163028190Y-99718019D01*
X163028190Y-99718019D02*
X163123428Y-99670400D01*
X163123428Y-99670400D02*
X163171047Y-99622780D01*
X163171047Y-99622780D02*
X163266285Y-99479923D01*
X163266285Y-99479923D02*
X163313904Y-99289447D01*
X163313904Y-99289447D02*
X163313904Y-98908495D01*
X163313904Y-98908495D02*
X163266285Y-98813257D01*
X163266285Y-98813257D02*
X163218666Y-98765638D01*
X163218666Y-98765638D02*
X163123428Y-98718019D01*
X163123428Y-98718019D02*
X162932952Y-98718019D01*
X162932952Y-98718019D02*
X162837714Y-98765638D01*
X162837714Y-98765638D02*
X162790095Y-98813257D01*
X162790095Y-98813257D02*
X162742476Y-98908495D01*
X162742476Y-98908495D02*
X162742476Y-99146590D01*
X162742476Y-99146590D02*
X162790095Y-99241828D01*
X162790095Y-99241828D02*
X162837714Y-99289447D01*
X162837714Y-99289447D02*
X162932952Y-99337066D01*
X162932952Y-99337066D02*
X163123428Y-99337066D01*
X163123428Y-99337066D02*
X163218666Y-99289447D01*
X163218666Y-99289447D02*
X163266285Y-99241828D01*
X163266285Y-99241828D02*
X163313904Y-99146590D01*
X165508994Y-85603544D02*
X165508994Y-86413067D01*
X165508994Y-86413067D02*
X165556613Y-86508305D01*
X165556613Y-86508305D02*
X165604232Y-86555925D01*
X165604232Y-86555925D02*
X165699470Y-86603544D01*
X165699470Y-86603544D02*
X165889946Y-86603544D01*
X165889946Y-86603544D02*
X165985184Y-86555925D01*
X165985184Y-86555925D02*
X166032803Y-86508305D01*
X166032803Y-86508305D02*
X166080422Y-86413067D01*
X166080422Y-86413067D02*
X166080422Y-85603544D01*
X167080422Y-86603544D02*
X166508994Y-86603544D01*
X166794708Y-86603544D02*
X166794708Y-85603544D01*
X166794708Y-85603544D02*
X166699470Y-85746401D01*
X166699470Y-85746401D02*
X166604232Y-85841639D01*
X166604232Y-85841639D02*
X166508994Y-85889258D01*
X168032803Y-86603544D02*
X167461375Y-86603544D01*
X167747089Y-86603544D02*
X167747089Y-85603544D01*
X167747089Y-85603544D02*
X167651851Y-85746401D01*
X167651851Y-85746401D02*
X167556613Y-85841639D01*
X167556613Y-85841639D02*
X167461375Y-85889258D01*
X154374302Y-90258719D02*
X154374302Y-90496814D01*
X154136207Y-90401576D02*
X154374302Y-90496814D01*
X154374302Y-90496814D02*
X154612397Y-90401576D01*
X154231445Y-90687290D02*
X154374302Y-90496814D01*
X154374302Y-90496814D02*
X154517159Y-90687290D01*
X152375679Y-88487657D02*
X152423299Y-88535276D01*
X152423299Y-88535276D02*
X152470918Y-88678133D01*
X152470918Y-88678133D02*
X152470918Y-88773371D01*
X152470918Y-88773371D02*
X152423299Y-88916228D01*
X152423299Y-88916228D02*
X152328060Y-89011466D01*
X152328060Y-89011466D02*
X152232822Y-89059085D01*
X152232822Y-89059085D02*
X152042346Y-89106704D01*
X152042346Y-89106704D02*
X151899489Y-89106704D01*
X151899489Y-89106704D02*
X151709013Y-89059085D01*
X151709013Y-89059085D02*
X151613775Y-89011466D01*
X151613775Y-89011466D02*
X151518537Y-88916228D01*
X151518537Y-88916228D02*
X151470918Y-88773371D01*
X151470918Y-88773371D02*
X151470918Y-88678133D01*
X151470918Y-88678133D02*
X151518537Y-88535276D01*
X151518537Y-88535276D02*
X151566156Y-88487657D01*
X151566156Y-88106704D02*
X151518537Y-88059085D01*
X151518537Y-88059085D02*
X151470918Y-87963847D01*
X151470918Y-87963847D02*
X151470918Y-87725752D01*
X151470918Y-87725752D02*
X151518537Y-87630514D01*
X151518537Y-87630514D02*
X151566156Y-87582895D01*
X151566156Y-87582895D02*
X151661394Y-87535276D01*
X151661394Y-87535276D02*
X151756632Y-87535276D01*
X151756632Y-87535276D02*
X151899489Y-87582895D01*
X151899489Y-87582895D02*
X152470918Y-88154323D01*
X152470918Y-88154323D02*
X152470918Y-87535276D01*
X151470918Y-87201942D02*
X151470918Y-86535276D01*
X151470918Y-86535276D02*
X152470918Y-86963847D01*
X169052381Y-118988152D02*
X169433333Y-118988152D01*
X169195238Y-119654819D02*
X169195238Y-118797676D01*
X169195238Y-118797676D02*
X169242857Y-118702438D01*
X169242857Y-118702438D02*
X169338095Y-118654819D01*
X169338095Y-118654819D02*
X169433333Y-118654819D01*
X169766667Y-119654819D02*
X169766667Y-118988152D01*
X169766667Y-118654819D02*
X169719048Y-118702438D01*
X169719048Y-118702438D02*
X169766667Y-118750057D01*
X169766667Y-118750057D02*
X169814286Y-118702438D01*
X169814286Y-118702438D02*
X169766667Y-118654819D01*
X169766667Y-118654819D02*
X169766667Y-118750057D01*
X170671428Y-119654819D02*
X170671428Y-118654819D01*
X170671428Y-119607200D02*
X170576190Y-119654819D01*
X170576190Y-119654819D02*
X170385714Y-119654819D01*
X170385714Y-119654819D02*
X170290476Y-119607200D01*
X170290476Y-119607200D02*
X170242857Y-119559580D01*
X170242857Y-119559580D02*
X170195238Y-119464342D01*
X170195238Y-119464342D02*
X170195238Y-119178628D01*
X170195238Y-119178628D02*
X170242857Y-119083390D01*
X170242857Y-119083390D02*
X170290476Y-119035771D01*
X170290476Y-119035771D02*
X170385714Y-118988152D01*
X170385714Y-118988152D02*
X170576190Y-118988152D01*
X170576190Y-118988152D02*
X170671428Y-119035771D01*
X171147619Y-119559580D02*
X171195238Y-119607200D01*
X171195238Y-119607200D02*
X171147619Y-119654819D01*
X171147619Y-119654819D02*
X171100000Y-119607200D01*
X171100000Y-119607200D02*
X171147619Y-119559580D01*
X171147619Y-119559580D02*
X171147619Y-119654819D01*
X171576190Y-119369104D02*
X172052380Y-119369104D01*
X171480952Y-119654819D02*
X171814285Y-118654819D01*
X171814285Y-118654819D02*
X172147618Y-119654819D01*
X164759580Y-85842857D02*
X164807200Y-85890476D01*
X164807200Y-85890476D02*
X164854819Y-86033333D01*
X164854819Y-86033333D02*
X164854819Y-86128571D01*
X164854819Y-86128571D02*
X164807200Y-86271428D01*
X164807200Y-86271428D02*
X164711961Y-86366666D01*
X164711961Y-86366666D02*
X164616723Y-86414285D01*
X164616723Y-86414285D02*
X164426247Y-86461904D01*
X164426247Y-86461904D02*
X164283390Y-86461904D01*
X164283390Y-86461904D02*
X164092914Y-86414285D01*
X164092914Y-86414285D02*
X163997676Y-86366666D01*
X163997676Y-86366666D02*
X163902438Y-86271428D01*
X163902438Y-86271428D02*
X163854819Y-86128571D01*
X163854819Y-86128571D02*
X163854819Y-86033333D01*
X163854819Y-86033333D02*
X163902438Y-85890476D01*
X163902438Y-85890476D02*
X163950057Y-85842857D01*
X163950057Y-85461904D02*
X163902438Y-85414285D01*
X163902438Y-85414285D02*
X163854819Y-85319047D01*
X163854819Y-85319047D02*
X163854819Y-85080952D01*
X163854819Y-85080952D02*
X163902438Y-84985714D01*
X163902438Y-84985714D02*
X163950057Y-84938095D01*
X163950057Y-84938095D02*
X164045295Y-84890476D01*
X164045295Y-84890476D02*
X164140533Y-84890476D01*
X164140533Y-84890476D02*
X164283390Y-84938095D01*
X164283390Y-84938095D02*
X164854819Y-85509523D01*
X164854819Y-85509523D02*
X164854819Y-84890476D01*
X163854819Y-84033333D02*
X163854819Y-84223809D01*
X163854819Y-84223809D02*
X163902438Y-84319047D01*
X163902438Y-84319047D02*
X163950057Y-84366666D01*
X163950057Y-84366666D02*
X164092914Y-84461904D01*
X164092914Y-84461904D02*
X164283390Y-84509523D01*
X164283390Y-84509523D02*
X164664342Y-84509523D01*
X164664342Y-84509523D02*
X164759580Y-84461904D01*
X164759580Y-84461904D02*
X164807200Y-84414285D01*
X164807200Y-84414285D02*
X164854819Y-84319047D01*
X164854819Y-84319047D02*
X164854819Y-84128571D01*
X164854819Y-84128571D02*
X164807200Y-84033333D01*
X164807200Y-84033333D02*
X164759580Y-83985714D01*
X164759580Y-83985714D02*
X164664342Y-83938095D01*
X164664342Y-83938095D02*
X164426247Y-83938095D01*
X164426247Y-83938095D02*
X164331009Y-83985714D01*
X164331009Y-83985714D02*
X164283390Y-84033333D01*
X164283390Y-84033333D02*
X164235771Y-84128571D01*
X164235771Y-84128571D02*
X164235771Y-84319047D01*
X164235771Y-84319047D02*
X164283390Y-84414285D01*
X164283390Y-84414285D02*
X164331009Y-84461904D01*
X164331009Y-84461904D02*
X164426247Y-84509523D01*
X167566666Y-112954819D02*
X167566666Y-113669104D01*
X167566666Y-113669104D02*
X167519047Y-113811961D01*
X167519047Y-113811961D02*
X167423809Y-113907200D01*
X167423809Y-113907200D02*
X167280952Y-113954819D01*
X167280952Y-113954819D02*
X167185714Y-113954819D01*
X168471428Y-112954819D02*
X168280952Y-112954819D01*
X168280952Y-112954819D02*
X168185714Y-113002438D01*
X168185714Y-113002438D02*
X168138095Y-113050057D01*
X168138095Y-113050057D02*
X168042857Y-113192914D01*
X168042857Y-113192914D02*
X167995238Y-113383390D01*
X167995238Y-113383390D02*
X167995238Y-113764342D01*
X167995238Y-113764342D02*
X168042857Y-113859580D01*
X168042857Y-113859580D02*
X168090476Y-113907200D01*
X168090476Y-113907200D02*
X168185714Y-113954819D01*
X168185714Y-113954819D02*
X168376190Y-113954819D01*
X168376190Y-113954819D02*
X168471428Y-113907200D01*
X168471428Y-113907200D02*
X168519047Y-113859580D01*
X168519047Y-113859580D02*
X168566666Y-113764342D01*
X168566666Y-113764342D02*
X168566666Y-113526247D01*
X168566666Y-113526247D02*
X168519047Y-113431009D01*
X168519047Y-113431009D02*
X168471428Y-113383390D01*
X168471428Y-113383390D02*
X168376190Y-113335771D01*
X168376190Y-113335771D02*
X168185714Y-113335771D01*
X168185714Y-113335771D02*
X168090476Y-113383390D01*
X168090476Y-113383390D02*
X168042857Y-113431009D01*
X168042857Y-113431009D02*
X167995238Y-113526247D01*
X158738693Y-91415659D02*
X158691074Y-91463279D01*
X158691074Y-91463279D02*
X158548217Y-91510898D01*
X158548217Y-91510898D02*
X158452979Y-91510898D01*
X158452979Y-91510898D02*
X158310122Y-91463279D01*
X158310122Y-91463279D02*
X158214884Y-91368040D01*
X158214884Y-91368040D02*
X158167265Y-91272802D01*
X158167265Y-91272802D02*
X158119646Y-91082326D01*
X158119646Y-91082326D02*
X158119646Y-90939469D01*
X158119646Y-90939469D02*
X158167265Y-90748993D01*
X158167265Y-90748993D02*
X158214884Y-90653755D01*
X158214884Y-90653755D02*
X158310122Y-90558517D01*
X158310122Y-90558517D02*
X158452979Y-90510898D01*
X158452979Y-90510898D02*
X158548217Y-90510898D01*
X158548217Y-90510898D02*
X158691074Y-90558517D01*
X158691074Y-90558517D02*
X158738693Y-90606136D01*
X159119646Y-90606136D02*
X159167265Y-90558517D01*
X159167265Y-90558517D02*
X159262503Y-90510898D01*
X159262503Y-90510898D02*
X159500598Y-90510898D01*
X159500598Y-90510898D02*
X159595836Y-90558517D01*
X159595836Y-90558517D02*
X159643455Y-90606136D01*
X159643455Y-90606136D02*
X159691074Y-90701374D01*
X159691074Y-90701374D02*
X159691074Y-90796612D01*
X159691074Y-90796612D02*
X159643455Y-90939469D01*
X159643455Y-90939469D02*
X159072027Y-91510898D01*
X159072027Y-91510898D02*
X159691074Y-91510898D01*
X160262503Y-90939469D02*
X160167265Y-90891850D01*
X160167265Y-90891850D02*
X160119646Y-90844231D01*
X160119646Y-90844231D02*
X160072027Y-90748993D01*
X160072027Y-90748993D02*
X160072027Y-90701374D01*
X160072027Y-90701374D02*
X160119646Y-90606136D01*
X160119646Y-90606136D02*
X160167265Y-90558517D01*
X160167265Y-90558517D02*
X160262503Y-90510898D01*
X160262503Y-90510898D02*
X160452979Y-90510898D01*
X160452979Y-90510898D02*
X160548217Y-90558517D01*
X160548217Y-90558517D02*
X160595836Y-90606136D01*
X160595836Y-90606136D02*
X160643455Y-90701374D01*
X160643455Y-90701374D02*
X160643455Y-90748993D01*
X160643455Y-90748993D02*
X160595836Y-90844231D01*
X160595836Y-90844231D02*
X160548217Y-90891850D01*
X160548217Y-90891850D02*
X160452979Y-90939469D01*
X160452979Y-90939469D02*
X160262503Y-90939469D01*
X160262503Y-90939469D02*
X160167265Y-90987088D01*
X160167265Y-90987088D02*
X160119646Y-91034707D01*
X160119646Y-91034707D02*
X160072027Y-91129945D01*
X160072027Y-91129945D02*
X160072027Y-91320421D01*
X160072027Y-91320421D02*
X160119646Y-91415659D01*
X160119646Y-91415659D02*
X160167265Y-91463279D01*
X160167265Y-91463279D02*
X160262503Y-91510898D01*
X160262503Y-91510898D02*
X160452979Y-91510898D01*
X160452979Y-91510898D02*
X160548217Y-91463279D01*
X160548217Y-91463279D02*
X160595836Y-91415659D01*
X160595836Y-91415659D02*
X160643455Y-91320421D01*
X160643455Y-91320421D02*
X160643455Y-91129945D01*
X160643455Y-91129945D02*
X160595836Y-91034707D01*
X160595836Y-91034707D02*
X160548217Y-90987088D01*
X160548217Y-90987088D02*
X160452979Y-90939469D01*
X155147180Y-91040357D02*
X155194800Y-91087976D01*
X155194800Y-91087976D02*
X155242419Y-91230833D01*
X155242419Y-91230833D02*
X155242419Y-91326071D01*
X155242419Y-91326071D02*
X155194800Y-91468928D01*
X155194800Y-91468928D02*
X155099561Y-91564166D01*
X155099561Y-91564166D02*
X155004323Y-91611785D01*
X155004323Y-91611785D02*
X154813847Y-91659404D01*
X154813847Y-91659404D02*
X154670990Y-91659404D01*
X154670990Y-91659404D02*
X154480514Y-91611785D01*
X154480514Y-91611785D02*
X154385276Y-91564166D01*
X154385276Y-91564166D02*
X154290038Y-91468928D01*
X154290038Y-91468928D02*
X154242419Y-91326071D01*
X154242419Y-91326071D02*
X154242419Y-91230833D01*
X154242419Y-91230833D02*
X154290038Y-91087976D01*
X154290038Y-91087976D02*
X154337657Y-91040357D01*
X154337657Y-90659404D02*
X154290038Y-90611785D01*
X154290038Y-90611785D02*
X154242419Y-90516547D01*
X154242419Y-90516547D02*
X154242419Y-90278452D01*
X154242419Y-90278452D02*
X154290038Y-90183214D01*
X154290038Y-90183214D02*
X154337657Y-90135595D01*
X154337657Y-90135595D02*
X154432895Y-90087976D01*
X154432895Y-90087976D02*
X154528133Y-90087976D01*
X154528133Y-90087976D02*
X154670990Y-90135595D01*
X154670990Y-90135595D02*
X155242419Y-90707023D01*
X155242419Y-90707023D02*
X155242419Y-90087976D01*
X154242419Y-89183214D02*
X154242419Y-89659404D01*
X154242419Y-89659404D02*
X154718609Y-89707023D01*
X154718609Y-89707023D02*
X154670990Y-89659404D01*
X154670990Y-89659404D02*
X154623371Y-89564166D01*
X154623371Y-89564166D02*
X154623371Y-89326071D01*
X154623371Y-89326071D02*
X154670990Y-89230833D01*
X154670990Y-89230833D02*
X154718609Y-89183214D01*
X154718609Y-89183214D02*
X154813847Y-89135595D01*
X154813847Y-89135595D02*
X155051942Y-89135595D01*
X155051942Y-89135595D02*
X155147180Y-89183214D01*
X155147180Y-89183214D02*
X155194800Y-89230833D01*
X155194800Y-89230833D02*
X155242419Y-89326071D01*
X155242419Y-89326071D02*
X155242419Y-89564166D01*
X155242419Y-89564166D02*
X155194800Y-89659404D01*
X155194800Y-89659404D02*
X155147180Y-89707023D01*
D13*
%TO.C,U12*%
X144752800Y-102436400D02*
X145727800Y-102436400D01*
X144752800Y-103411400D02*
X144752800Y-102436400D01*
X144752800Y-106656400D02*
X144752800Y-105681400D01*
X145727800Y-106656400D02*
X144752800Y-106656400D01*
X147997800Y-102436400D02*
X148972800Y-102436400D01*
X148972800Y-102436400D02*
X148972800Y-103411400D01*
X148972800Y-105681400D02*
X148972800Y-106656400D01*
X148972800Y-106656400D02*
X147997800Y-106656400D01*
X146352800Y-107516400D02*
X145872800Y-107516400D01*
X146112800Y-107186400D01*
X146352800Y-107516400D01*
G36*
X146352800Y-107516400D02*
G01*
X145872800Y-107516400D01*
X146112800Y-107186400D01*
X146352800Y-107516400D01*
G37*
%TO.C,C2*%
X141187533Y-100118548D02*
X141480067Y-100118548D01*
X141187533Y-101138548D02*
X141480067Y-101138548D01*
%TO.C,C29*%
X162262433Y-92301600D02*
X162554967Y-92301600D01*
X162262433Y-93321600D02*
X162554967Y-93321600D01*
%TO.C,C1*%
X141188633Y-101590648D02*
X141481167Y-101590648D01*
X141188633Y-102610648D02*
X141481167Y-102610648D01*
%TO.C,J1*%
X171843531Y-101708400D02*
X172276544Y-101958400D01*
X171843531Y-102208400D02*
X171843531Y-101708400D01*
X172276544Y-101958400D02*
X171843531Y-102208400D01*
X172737869Y-80933400D02*
X182317869Y-80933400D01*
X172737869Y-111903400D02*
X172737869Y-80933400D01*
X182317869Y-111903400D02*
X172737869Y-111903400D01*
D14*
%TO.C,U1*%
X113862800Y-108882000D02*
X113862800Y-90882000D01*
X117062800Y-87682000D02*
X149662800Y-87682000D01*
X149662800Y-87682000D02*
X149662800Y-112082000D01*
X149662800Y-112082000D02*
X117062800Y-112082000D01*
X113862800Y-90882000D02*
G75*
G02*
X117062800Y-87682000I3200000J0D01*
G01*
X117062800Y-112082000D02*
G75*
G02*
X113862800Y-108882000I-1J3199999D01*
G01*
D13*
%TO.C,C23*%
X149985000Y-97377467D02*
X149985000Y-97084933D01*
X151005000Y-97377467D02*
X151005000Y-97084933D01*
%TO.C,C18*%
X160806490Y-109717044D02*
X160513956Y-109717044D01*
X160806490Y-110737044D02*
X160513956Y-110737044D01*
%TO.C,C34*%
X148298433Y-107432900D02*
X148590967Y-107432900D01*
X148298433Y-108452900D02*
X148590967Y-108452900D01*
%TO.C,Raspberry Pi*%
X122825200Y-73142800D02*
X124155200Y-73142800D01*
X122825200Y-74472800D02*
X122825200Y-73142800D01*
X122825200Y-75742800D02*
X125425200Y-75742800D01*
X122825200Y-78342800D02*
X122825200Y-75742800D01*
X122825200Y-78342800D02*
X173745200Y-78342800D01*
X125425200Y-73142800D02*
X173745200Y-73142800D01*
X125425200Y-75742800D02*
X125425200Y-73142800D01*
X173745200Y-78342800D02*
X173745200Y-73142800D01*
%TO.C,J2*%
X120894800Y-108652000D02*
X122224800Y-108652000D01*
X120894800Y-109982000D02*
X120894800Y-108652000D01*
X123494800Y-108652000D02*
X141334800Y-108652000D01*
X123494800Y-111312000D02*
X123494800Y-108652000D01*
X123494800Y-111312000D02*
X141334800Y-111312000D01*
X141334800Y-111312000D02*
X141334800Y-108652000D01*
%TO.C,C31*%
X167374201Y-89426833D02*
X167374201Y-89719367D01*
X168394201Y-89426833D02*
X168394201Y-89719367D01*
%TO.C,C20*%
X165193267Y-97229200D02*
X164900733Y-97229200D01*
X165193267Y-98249200D02*
X164900733Y-98249200D01*
%TO.C,C24*%
X161062301Y-84589667D02*
X161062301Y-84297133D01*
X162082301Y-84589667D02*
X162082301Y-84297133D01*
%TO.C,C35*%
X148307033Y-108920300D02*
X148599567Y-108920300D01*
X148307033Y-109940300D02*
X148599567Y-109940300D01*
D15*
%TO.C,U9*%
X151723979Y-93987750D02*
X151723979Y-94682310D01*
X151723979Y-98652590D02*
X151723979Y-99347150D01*
X151723979Y-99347150D02*
X152315240Y-99347150D01*
X152315240Y-93987750D02*
X151723979Y-93987750D01*
X154485518Y-99347150D02*
X155076779Y-99347150D01*
X155076779Y-93987750D02*
X154485518Y-93987750D01*
X155076779Y-94682310D02*
X155076779Y-93987750D01*
X155076779Y-99347150D02*
X155076779Y-98652590D01*
D16*
G36*
X151292179Y-95357950D02*
G01*
X151038179Y-95357950D01*
X151038179Y-94976950D01*
X151292179Y-94976950D01*
X151292179Y-95357950D01*
G37*
D15*
%TO.C,U3*%
X142867126Y-104741726D02*
G75*
G02*
X142663926Y-104741726I-101600J0D01*
G01*
X142663926Y-104741726D02*
G75*
G02*
X142867126Y-104741726I101600J0D01*
G01*
D13*
%TO.C,C32*%
X145511567Y-99083400D02*
X145219033Y-99083400D01*
X145511567Y-100103400D02*
X145219033Y-100103400D01*
%TO.C,U10*%
X156071401Y-83856300D02*
X157046401Y-83856300D01*
X156071401Y-84831300D02*
X156071401Y-83856300D01*
X156071401Y-88076300D02*
X156071401Y-87101300D01*
X157046401Y-88076300D02*
X156071401Y-88076300D01*
X159316401Y-83856300D02*
X160291401Y-83856300D01*
X160291401Y-83856300D02*
X160291401Y-84831300D01*
X160291401Y-87101300D02*
X160291401Y-88076300D01*
X160291401Y-88076300D02*
X159316401Y-88076300D01*
X155541401Y-85216300D02*
X155211401Y-85456300D01*
X155211401Y-84976300D01*
X155541401Y-85216300D01*
G36*
X155541401Y-85216300D02*
G01*
X155211401Y-85456300D01*
X155211401Y-84976300D01*
X155541401Y-85216300D01*
G37*
%TO.C,C4*%
X137132600Y-105732967D02*
X137132600Y-105440433D01*
X138152600Y-105732967D02*
X138152600Y-105440433D01*
%TO.C,C21*%
X168147125Y-105384512D02*
X168439659Y-105384512D01*
X168147125Y-106404512D02*
X168439659Y-106404512D01*
%TO.C,C33*%
X145486167Y-100556600D02*
X145193633Y-100556600D01*
X145486167Y-101576600D02*
X145193633Y-101576600D01*
D15*
%TO.C,U7*%
X157429200Y-105664000D02*
X157429200Y-106255261D01*
X157429200Y-108425539D02*
X157429200Y-109016800D01*
X157429200Y-109016800D02*
X158123760Y-109016800D01*
X158123760Y-105664000D02*
X157429200Y-105664000D01*
X162094040Y-109016800D02*
X162788600Y-109016800D01*
X162788600Y-105664000D02*
X162094040Y-105664000D01*
X162788600Y-106255261D02*
X162788600Y-105664000D01*
X162788600Y-109016800D02*
X162788600Y-108425539D01*
D16*
G36*
X158799400Y-109702600D02*
G01*
X158418400Y-109702600D01*
X158418400Y-109448600D01*
X158799400Y-109448600D01*
X158799400Y-109702600D01*
G37*
%TO.C,G\u002A\u002A\u002A*%
G36*
X165025347Y-79979136D02*
G01*
X164986764Y-80130916D01*
X164915560Y-80405208D01*
X164820196Y-80769631D01*
X164709136Y-81191802D01*
X164643221Y-81441439D01*
X164314854Y-82683395D01*
X163687369Y-82706914D01*
X163373956Y-82715514D01*
X163190635Y-82708100D01*
X163107549Y-82678531D01*
X163094841Y-82620662D01*
X163103223Y-82586725D01*
X163136241Y-82464013D01*
X163200434Y-82214512D01*
X163288501Y-81866996D01*
X163393140Y-81450239D01*
X163480251Y-81100903D01*
X163813940Y-79758789D01*
X164446523Y-79758789D01*
X165079106Y-79758789D01*
X165025347Y-79979136D01*
G37*
G36*
X154503710Y-79759867D02*
G01*
X154867425Y-79764570D01*
X155113372Y-79775105D01*
X155262786Y-79793677D01*
X155336908Y-79822494D01*
X155356976Y-79863761D01*
X155350890Y-79899010D01*
X155305594Y-80063460D01*
X155242626Y-80301293D01*
X155223374Y-80375456D01*
X155161898Y-80579824D01*
X155081328Y-80681824D01*
X154928865Y-80722549D01*
X154760120Y-80736024D01*
X154383688Y-80760367D01*
X154133788Y-81721881D01*
X153883888Y-82683395D01*
X153270191Y-82706797D01*
X152940474Y-82712068D01*
X152746423Y-82694921D01*
X152664626Y-82652293D01*
X152658100Y-82626671D01*
X152677968Y-82508188D01*
X152730070Y-82274182D01*
X152805370Y-81963976D01*
X152856810Y-81761944D01*
X152963845Y-81342984D01*
X153027520Y-81054794D01*
X153044268Y-80872910D01*
X153010522Y-80772869D01*
X152922716Y-80730209D01*
X152777283Y-80720464D01*
X152704945Y-80720304D01*
X152352765Y-80720304D01*
X152481577Y-80239546D01*
X152610390Y-79758789D01*
X154000987Y-79758789D01*
X154503710Y-79759867D01*
G37*
G36*
X146167292Y-79759423D02*
G01*
X146346732Y-79777795D01*
X146446103Y-79838613D01*
X146474730Y-79966583D01*
X146441939Y-80186412D01*
X146357057Y-80522807D01*
X146286261Y-80786180D01*
X146200068Y-81115201D01*
X146132504Y-81386992D01*
X146092789Y-81563713D01*
X146086147Y-81607474D01*
X146159402Y-81644507D01*
X146351827Y-81671140D01*
X146622414Y-81681802D01*
X146633676Y-81681818D01*
X146914632Y-81687811D01*
X147126911Y-81703533D01*
X147224972Y-81725593D01*
X147225228Y-81725840D01*
X147227708Y-81819989D01*
X147189273Y-82019348D01*
X147133746Y-82226629D01*
X146998241Y-82683395D01*
X145771091Y-82705567D01*
X145303550Y-82712825D01*
X144973581Y-82713422D01*
X144758562Y-82705073D01*
X144635873Y-82685495D01*
X144582892Y-82652402D01*
X144576999Y-82603510D01*
X144581042Y-82585378D01*
X144612628Y-82463367D01*
X144676821Y-82214807D01*
X144766230Y-81868332D01*
X144873466Y-81452572D01*
X144964140Y-81100903D01*
X145310136Y-79758789D01*
X145898457Y-79758789D01*
X146167292Y-79759423D01*
G37*
G36*
X132255414Y-80419830D02*
G01*
X132344718Y-80839947D01*
X132411138Y-81107701D01*
X132465329Y-81227434D01*
X132517946Y-81203488D01*
X132579641Y-81040205D01*
X132661070Y-80741925D01*
X132697842Y-80600114D01*
X132905390Y-79798852D01*
X133528751Y-79775408D01*
X133840548Y-79765614D01*
X134022794Y-79770993D01*
X134106050Y-79800044D01*
X134120878Y-79861269D01*
X134104902Y-79935660D01*
X134069138Y-80073242D01*
X134000690Y-80335206D01*
X133907571Y-80690937D01*
X133797795Y-81109817D01*
X133721322Y-81401376D01*
X133384952Y-82683395D01*
X132704477Y-82683395D01*
X132024002Y-82683395D01*
X131848457Y-82013739D01*
X131765424Y-81707654D01*
X131694668Y-81466209D01*
X131647520Y-81327325D01*
X131637947Y-81309117D01*
X131605154Y-81365581D01*
X131545832Y-81545984D01*
X131469942Y-81818223D01*
X131423925Y-81998804D01*
X131244870Y-82723458D01*
X130652890Y-82723458D01*
X130332067Y-82712557D01*
X130127343Y-82682008D01*
X130060911Y-82638645D01*
X130079974Y-82529836D01*
X130131751Y-82298711D01*
X130208123Y-81977913D01*
X130300972Y-81600090D01*
X130402180Y-81197887D01*
X130503628Y-80803950D01*
X130597198Y-80450925D01*
X130672468Y-80179452D01*
X130793417Y-79758789D01*
X131455159Y-79758789D01*
X132116900Y-79758789D01*
X132255414Y-80419830D01*
G37*
G36*
X126096710Y-79695390D02*
G01*
X126477313Y-79727461D01*
X126792178Y-79773566D01*
X127004939Y-79828908D01*
X127068384Y-79864476D01*
X127077090Y-79961847D01*
X127049756Y-80161862D01*
X127016201Y-80319318D01*
X126918101Y-80728244D01*
X126385913Y-80675804D01*
X125828981Y-80667441D01*
X125386750Y-80761845D01*
X125063035Y-80957037D01*
X124861649Y-81251042D01*
X124797452Y-81499341D01*
X124792151Y-81756124D01*
X124869926Y-81925995D01*
X124893872Y-81951913D01*
X125070651Y-82064420D01*
X125217489Y-82020100D01*
X125332794Y-81819850D01*
X125373404Y-81681441D01*
X125460887Y-81321250D01*
X126112138Y-81298078D01*
X126763390Y-81274905D01*
X126589280Y-81939087D01*
X126415169Y-82603269D01*
X125974475Y-82695700D01*
X125608378Y-82750141D01*
X125181222Y-82779956D01*
X124747592Y-82784585D01*
X124362072Y-82763463D01*
X124079247Y-82716030D01*
X124076519Y-82715247D01*
X123843539Y-82597635D01*
X123646945Y-82422000D01*
X123551437Y-82277748D01*
X123506046Y-82120410D01*
X123501080Y-81895452D01*
X123515381Y-81681718D01*
X123583602Y-81227775D01*
X123704526Y-80788017D01*
X123862071Y-80407633D01*
X124040155Y-80131816D01*
X124082736Y-80087537D01*
X124390647Y-79893573D01*
X124827007Y-79759273D01*
X125369383Y-79690308D01*
X125686737Y-79682153D01*
X126096710Y-79695390D01*
G37*
G36*
X158013213Y-79758910D02*
G01*
X158375292Y-79888515D01*
X158586412Y-80058168D01*
X158712513Y-80341328D01*
X158740862Y-80734769D01*
X158671489Y-81221810D01*
X158583745Y-81549520D01*
X158407171Y-82008206D01*
X158191716Y-82334374D01*
X157914036Y-82555006D01*
X157603761Y-82682077D01*
X157293936Y-82744385D01*
X156901367Y-82782385D01*
X156484050Y-82794632D01*
X156099983Y-82779679D01*
X155807160Y-82736082D01*
X155776736Y-82727606D01*
X155422628Y-82565962D01*
X155199123Y-82328381D01*
X155099711Y-82002121D01*
X155117144Y-81591756D01*
X156372135Y-81591756D01*
X156404872Y-81776824D01*
X156420315Y-81799464D01*
X156597365Y-81901618D01*
X156833979Y-81909874D01*
X157062167Y-81827347D01*
X157138968Y-81766536D01*
X157287998Y-81557121D01*
X157391407Y-81299875D01*
X157434228Y-81050744D01*
X157401492Y-80865676D01*
X157386049Y-80843035D01*
X157208999Y-80740882D01*
X156972385Y-80732626D01*
X156744196Y-80815152D01*
X156667396Y-80875964D01*
X156518366Y-81085379D01*
X156414956Y-81342625D01*
X156372135Y-81591756D01*
X155117144Y-81591756D01*
X155117880Y-81574435D01*
X155135605Y-81472720D01*
X155278564Y-80883886D01*
X155463400Y-80435797D01*
X155708220Y-80110715D01*
X156031134Y-79890906D01*
X156450251Y-79758632D01*
X156947294Y-79698312D01*
X157531949Y-79694354D01*
X158013213Y-79758910D01*
G37*
G36*
X152175737Y-81241124D02*
G01*
X152175737Y-82723458D01*
X151574791Y-82723458D01*
X151269124Y-82720962D01*
X151089950Y-82705971D01*
X151003511Y-82667235D01*
X150976053Y-82593500D01*
X150973844Y-82523143D01*
X150965313Y-82417497D01*
X150916160Y-82357563D01*
X150791045Y-82330406D01*
X150554629Y-82323093D01*
X150426501Y-82322827D01*
X150131703Y-82327999D01*
X149954098Y-82352277D01*
X149850738Y-82408806D01*
X149778673Y-82510728D01*
X149771952Y-82523143D01*
X149709170Y-82621092D01*
X149624823Y-82680528D01*
X149481607Y-82711012D01*
X149242220Y-82722107D01*
X148990536Y-82723458D01*
X148688582Y-82716344D01*
X148463253Y-82697362D01*
X148349590Y-82670052D01*
X148343035Y-82658050D01*
X148390239Y-82572161D01*
X148506629Y-82370082D01*
X148679592Y-82073425D01*
X148896515Y-81703801D01*
X149003278Y-81522769D01*
X150412961Y-81522769D01*
X150483402Y-81574936D01*
X150656611Y-81601010D01*
X150693403Y-81601692D01*
X150973844Y-81601692D01*
X150973844Y-81120934D01*
X150968817Y-80867333D01*
X150955751Y-80693126D01*
X150940654Y-80640177D01*
X150880513Y-80703244D01*
X150772648Y-80861746D01*
X150644592Y-81069635D01*
X150523875Y-81280862D01*
X150438030Y-81449380D01*
X150412961Y-81522769D01*
X149003278Y-81522769D01*
X149144784Y-81282825D01*
X149208126Y-81175715D01*
X150046509Y-79758789D01*
X151111123Y-79758789D01*
X152175737Y-79758789D01*
X152175737Y-81241124D01*
G37*
G36*
X129397863Y-79761060D02*
G01*
X129800424Y-79767360D01*
X130118874Y-79776925D01*
X130326685Y-79788987D01*
X130396835Y-79800918D01*
X130399994Y-79894719D01*
X130364304Y-80093217D01*
X130316877Y-80281675D01*
X130194791Y-80720304D01*
X129335934Y-80720304D01*
X128953795Y-80722651D01*
X128702482Y-80733128D01*
X128552596Y-80756885D01*
X128474739Y-80799072D01*
X128439510Y-80864842D01*
X128435837Y-80878008D01*
X128427476Y-80947925D01*
X128463796Y-80994641D01*
X128571414Y-81024028D01*
X128776944Y-81041959D01*
X129107004Y-81054305D01*
X129253023Y-81058292D01*
X130111451Y-81080871D01*
X130044525Y-81338587D01*
X129977599Y-81596302D01*
X129118785Y-81619028D01*
X128732996Y-81632375D01*
X128479395Y-81651446D01*
X128329915Y-81681405D01*
X128256492Y-81727416D01*
X128233115Y-81781976D01*
X128235789Y-81846214D01*
X128291872Y-81887313D01*
X128428925Y-81910313D01*
X128674513Y-81920252D01*
X129000041Y-81922196D01*
X129340737Y-81926357D01*
X129617709Y-81937562D01*
X129794325Y-81953893D01*
X129837670Y-81966043D01*
X129843718Y-82062553D01*
X129807375Y-82253979D01*
X129782154Y-82346643D01*
X129682791Y-82683395D01*
X128229264Y-82705234D01*
X127766691Y-82709366D01*
X127364895Y-82707571D01*
X127049055Y-82700407D01*
X126844345Y-82688428D01*
X126775737Y-82673108D01*
X126795031Y-82581926D01*
X126848665Y-82361132D01*
X126930269Y-82036106D01*
X127033472Y-81632231D01*
X127148237Y-81188966D01*
X127520737Y-79758789D01*
X128937722Y-79758789D01*
X129397863Y-79761060D01*
G37*
G36*
X167059716Y-79765775D02*
G01*
X167226853Y-79770206D01*
X167603029Y-79784743D01*
X167917693Y-79803169D01*
X168137981Y-79823124D01*
X168231030Y-79842248D01*
X168231095Y-79842312D01*
X168233118Y-79936049D01*
X168194352Y-80135445D01*
X168137238Y-80348278D01*
X167999938Y-80810785D01*
X167345551Y-80825639D01*
X167004228Y-80839516D01*
X166779217Y-80869255D01*
X166626672Y-80925212D01*
X166502749Y-81017744D01*
X166492686Y-81027105D01*
X166303103Y-81278285D01*
X166253758Y-81528278D01*
X166348805Y-81750385D01*
X166375607Y-81779479D01*
X166492207Y-81870017D01*
X166636627Y-81906481D01*
X166862772Y-81898116D01*
X166987256Y-81884401D01*
X167276397Y-81845740D01*
X167527476Y-81805348D01*
X167633234Y-81784075D01*
X167769677Y-81769671D01*
X167788102Y-81835009D01*
X167778153Y-81864450D01*
X167730842Y-82026998D01*
X167680229Y-82254647D01*
X167675527Y-82279245D01*
X167583294Y-82524009D01*
X167450482Y-82660225D01*
X167302413Y-82701155D01*
X167035358Y-82739532D01*
X166690568Y-82770425D01*
X166398135Y-82786008D01*
X166005366Y-82798302D01*
X165734891Y-82796724D01*
X165548991Y-82776157D01*
X165409946Y-82731480D01*
X165280039Y-82657575D01*
X165236305Y-82628323D01*
X165077510Y-82507407D01*
X164989850Y-82383813D01*
X164948005Y-82202359D01*
X164929444Y-81959517D01*
X164948374Y-81344344D01*
X165072046Y-80809709D01*
X165292983Y-80371546D01*
X165603709Y-80045791D01*
X165905490Y-79879260D01*
X166107870Y-79816688D01*
X166342138Y-79779026D01*
X166646639Y-79763110D01*
X167059716Y-79765775D01*
G37*
G36*
X171118700Y-79715033D02*
G01*
X171661537Y-79773166D01*
X171609633Y-80066451D01*
X171562430Y-80327476D01*
X171510533Y-80494413D01*
X171421235Y-80588216D01*
X171261835Y-80629844D01*
X170999626Y-80640253D01*
X170714281Y-80640177D01*
X170251118Y-80654928D01*
X169917307Y-80697736D01*
X169721953Y-80766441D01*
X169674158Y-80858877D01*
X169685793Y-80884576D01*
X169782878Y-80920448D01*
X169998039Y-80947220D01*
X170289162Y-80960160D01*
X170363294Y-80960682D01*
X170684157Y-80964613D01*
X170887769Y-80984249D01*
X171017080Y-81031356D01*
X171115042Y-81117697D01*
X171166902Y-81180797D01*
X171288139Y-81460231D01*
X171280330Y-81809504D01*
X171144476Y-82204818D01*
X171121931Y-82249756D01*
X170996386Y-82439556D01*
X170828484Y-82578190D01*
X170593116Y-82673524D01*
X170265174Y-82733429D01*
X169819549Y-82765772D01*
X169442929Y-82775937D01*
X169037229Y-82779272D01*
X168679023Y-82776459D01*
X168404460Y-82768177D01*
X168249694Y-82755109D01*
X168241037Y-82753288D01*
X168029375Y-82694859D01*
X167940489Y-82623693D01*
X167945833Y-82488546D01*
X167995207Y-82312000D01*
X168096092Y-81970322D01*
X168873504Y-81992950D01*
X169315670Y-81995277D01*
X169609511Y-81971442D01*
X169764946Y-81920594D01*
X169771063Y-81915865D01*
X169839192Y-81812013D01*
X169754530Y-81739014D01*
X169515425Y-81696239D01*
X169160285Y-81683045D01*
X168767593Y-81661873D01*
X168507572Y-81588783D01*
X168356349Y-81446125D01*
X168290050Y-81216248D01*
X168281100Y-81033073D01*
X168340475Y-80568077D01*
X168514888Y-80203509D01*
X168798773Y-79949187D01*
X168932383Y-79884217D01*
X169259447Y-79793284D01*
X169696276Y-79727750D01*
X170193845Y-79691408D01*
X170703131Y-79688050D01*
X171118700Y-79715033D01*
G37*
G36*
X136824644Y-79762204D02*
G01*
X137089705Y-79779393D01*
X137252288Y-79818387D01*
X137331634Y-79887801D01*
X137346984Y-79996247D01*
X137317579Y-80152340D01*
X137262755Y-80364317D01*
X137173116Y-80720304D01*
X136310586Y-80720304D01*
X135927819Y-80722556D01*
X135675879Y-80732788D01*
X135525361Y-80756207D01*
X135446865Y-80798025D01*
X135410988Y-80863450D01*
X135406148Y-80880556D01*
X135396346Y-80952143D01*
X135429951Y-80998482D01*
X135533986Y-81025041D01*
X135735474Y-81037289D01*
X136061438Y-81040693D01*
X136198065Y-81040808D01*
X136583101Y-81043150D01*
X136832484Y-81058081D01*
X136970815Y-81097462D01*
X137022690Y-81173150D01*
X137012709Y-81297005D01*
X136982072Y-81418785D01*
X136950943Y-81497990D01*
X136888387Y-81550596D01*
X136764462Y-81583274D01*
X136549226Y-81602691D01*
X136212740Y-81615515D01*
X136082696Y-81619100D01*
X135698704Y-81632497D01*
X135446790Y-81651730D01*
X135298779Y-81682022D01*
X135226497Y-81728595D01*
X135204093Y-81781976D01*
X135206656Y-81845448D01*
X135261742Y-81886377D01*
X135396575Y-81909592D01*
X135638376Y-81919921D01*
X135994614Y-81922196D01*
X136811992Y-81922196D01*
X136758760Y-82255090D01*
X136716131Y-82478615D01*
X136674390Y-82632089D01*
X136663664Y-82655721D01*
X136575188Y-82677787D01*
X136360102Y-82695521D01*
X136049040Y-82708842D01*
X135672634Y-82717669D01*
X135261517Y-82721923D01*
X134846322Y-82721523D01*
X134457682Y-82716388D01*
X134126230Y-82706439D01*
X133882598Y-82691596D01*
X133757420Y-82671777D01*
X133747252Y-82663364D01*
X133766641Y-82569913D01*
X133820138Y-82347383D01*
X133901286Y-82021725D01*
X134003626Y-81618894D01*
X134107820Y-81214484D01*
X134223392Y-80766897D01*
X134323572Y-80375522D01*
X134401951Y-80065680D01*
X134452119Y-79862692D01*
X134467851Y-79792244D01*
X134543762Y-79781557D01*
X134754639Y-79772283D01*
X135075198Y-79765007D01*
X135480155Y-79760317D01*
X135910122Y-79758789D01*
X136437863Y-79758207D01*
X136824644Y-79762204D01*
G37*
G36*
X160858062Y-80059263D02*
G01*
X160886608Y-80312243D01*
X160906158Y-80636411D01*
X160911157Y-80840493D01*
X160916129Y-81100859D01*
X160932543Y-81225003D01*
X160969850Y-81236944D01*
X161037273Y-81160998D01*
X161130154Y-81017475D01*
X161270045Y-80775657D01*
X161431421Y-80480144D01*
X161484348Y-80379767D01*
X161808737Y-79758789D01*
X162641133Y-79758789D01*
X163026557Y-79766201D01*
X163304371Y-79787084D01*
X163453639Y-79819411D01*
X163473529Y-79839406D01*
X163453984Y-79939787D01*
X163399759Y-80168397D01*
X163317468Y-80498625D01*
X163213728Y-80903859D01*
X163112961Y-81289927D01*
X162996531Y-81733990D01*
X162895751Y-82121634D01*
X162817162Y-82427430D01*
X162767306Y-82625949D01*
X162752393Y-82691644D01*
X162678800Y-82706852D01*
X162484133Y-82718102D01*
X162207558Y-82723320D01*
X162151447Y-82723458D01*
X161864183Y-82717734D01*
X161651687Y-82702593D01*
X161553121Y-82681081D01*
X161550500Y-82676714D01*
X161569056Y-82582528D01*
X161618434Y-82372845D01*
X161689206Y-82087284D01*
X161714828Y-81986362D01*
X161786432Y-81687347D01*
X161833548Y-81453376D01*
X161848757Y-81322900D01*
X161845477Y-81309077D01*
X161793781Y-81359276D01*
X161680230Y-81521324D01*
X161522927Y-81768190D01*
X161383164Y-81999428D01*
X160954529Y-82723458D01*
X160618341Y-82723458D01*
X160282154Y-82723458D01*
X160231054Y-82102480D01*
X160196781Y-81696876D01*
X160170761Y-81429581D01*
X160149213Y-81279103D01*
X160128360Y-81223952D01*
X160104424Y-81242635D01*
X160086661Y-81281187D01*
X160044203Y-81411055D01*
X159974797Y-81651397D01*
X159891236Y-81957441D01*
X159863470Y-82062417D01*
X159690043Y-82723458D01*
X159097874Y-82723458D01*
X158812943Y-82717538D01*
X158603069Y-82701896D01*
X158507702Y-82679706D01*
X158505706Y-82675788D01*
X158524976Y-82586690D01*
X158578556Y-82367780D01*
X158660094Y-82044257D01*
X158763242Y-81641318D01*
X158879231Y-81193453D01*
X159252756Y-79758789D01*
X160030577Y-79758789D01*
X160808397Y-79758789D01*
X160858062Y-80059263D01*
G37*
G36*
X144403497Y-81241124D02*
G01*
X144403497Y-82723458D01*
X143802551Y-82723458D01*
X143496884Y-82720962D01*
X143317710Y-82705971D01*
X143231271Y-82667235D01*
X143203814Y-82593500D01*
X143201605Y-82523143D01*
X143193165Y-82417817D01*
X143144379Y-82357894D01*
X143020041Y-82330590D01*
X142784949Y-82323123D01*
X142649937Y-82322827D01*
X142351709Y-82328388D01*
X142168899Y-82353878D01*
X142056814Y-82412504D01*
X141970760Y-82517476D01*
X141965786Y-82525022D01*
X141833303Y-82727216D01*
X140454205Y-82705305D01*
X139075106Y-82683395D01*
X138834728Y-82304271D01*
X138694137Y-82096631D01*
X138583367Y-81958300D01*
X138538912Y-81923672D01*
X138487315Y-81992673D01*
X138417050Y-82170367D01*
X138376217Y-82302796D01*
X138268959Y-82683395D01*
X137650424Y-82706797D01*
X137327604Y-82713094D01*
X137136046Y-82699127D01*
X137047575Y-82660766D01*
X137031888Y-82616144D01*
X137051091Y-82511592D01*
X137103353Y-82283789D01*
X137180651Y-81964383D01*
X137274966Y-81585020D01*
X137378276Y-81177349D01*
X137412209Y-81045784D01*
X138720697Y-81045784D01*
X138762298Y-81159390D01*
X138915843Y-81198180D01*
X139033196Y-81201061D01*
X139273955Y-81174936D01*
X139425434Y-81077456D01*
X139480796Y-81004269D01*
X139565299Y-80817973D01*
X139518312Y-80702407D01*
X139331210Y-80647789D01*
X139159849Y-80640177D01*
X138933631Y-80653817D01*
X138817510Y-80709629D01*
X138765041Y-80820461D01*
X138720697Y-81045784D01*
X137412209Y-81045784D01*
X137482560Y-80773016D01*
X137579797Y-80403668D01*
X137661965Y-80100953D01*
X137721044Y-79896517D01*
X137721848Y-79893928D01*
X137749059Y-79841472D01*
X137808120Y-79804138D01*
X137921772Y-79780023D01*
X138112757Y-79767227D01*
X138403815Y-79763848D01*
X138817689Y-79767986D01*
X139159589Y-79773738D01*
X139674211Y-79784857D01*
X140052657Y-79798663D01*
X140319005Y-79817798D01*
X140497334Y-79844899D01*
X140611720Y-79882607D01*
X140686240Y-79933560D01*
X140695006Y-79942044D01*
X140807287Y-80156564D01*
X140836238Y-80451544D01*
X140792486Y-80777628D01*
X140686657Y-81085459D01*
X140529381Y-81325679D01*
X140373303Y-81436145D01*
X140146962Y-81522850D01*
X140015646Y-81572892D01*
X139834419Y-81641755D01*
X140126535Y-82082449D01*
X140285167Y-82318461D01*
X140412510Y-82501945D01*
X140477184Y-82588401D01*
X140533727Y-82542641D01*
X140658681Y-82377738D01*
X140839242Y-82112700D01*
X141062608Y-81766533D01*
X141202617Y-81540918D01*
X142573949Y-81540918D01*
X142627516Y-81578384D01*
X142793806Y-81599772D01*
X142874423Y-81601692D01*
X143201605Y-81601692D01*
X143201605Y-81120934D01*
X143192505Y-80867379D01*
X143168853Y-80693207D01*
X143141510Y-80640259D01*
X143079542Y-80703207D01*
X142966726Y-80863441D01*
X142830034Y-81078159D01*
X142696440Y-81304558D01*
X142592915Y-81499836D01*
X142573949Y-81540918D01*
X141202617Y-81540918D01*
X141315978Y-81358245D01*
X141407936Y-81206575D01*
X142280153Y-79759491D01*
X143341825Y-79759140D01*
X144403497Y-79758789D01*
X144403497Y-81241124D01*
G37*
G36*
X118024948Y-77260654D02*
G01*
X118142945Y-77437318D01*
X118302613Y-77695620D01*
X118486854Y-78005803D01*
X118678565Y-78338109D01*
X118860646Y-78662781D01*
X119015998Y-78950061D01*
X119127519Y-79170193D01*
X119178109Y-79293418D01*
X119178985Y-79306644D01*
X119131343Y-79401972D01*
X119017915Y-79607695D01*
X118854270Y-79896145D01*
X118655981Y-80239654D01*
X118594977Y-80344324D01*
X118394335Y-80692084D01*
X118229004Y-80986772D01*
X118112960Y-81202838D01*
X118060180Y-81314732D01*
X118058922Y-81324352D01*
X118132359Y-81294257D01*
X118319102Y-81196262D01*
X118594439Y-81043899D01*
X118933658Y-80850704D01*
X119106019Y-80750876D01*
X120129992Y-80154759D01*
X121109174Y-80732869D01*
X121465802Y-80944448D01*
X121773640Y-81129011D01*
X122005932Y-81270370D01*
X122135922Y-81352339D01*
X122152107Y-81363841D01*
X122109339Y-81420183D01*
X121949412Y-81540728D01*
X121694453Y-81710435D01*
X121366594Y-81914264D01*
X121168441Y-82032394D01*
X120121024Y-82648087D01*
X119101535Y-82052174D01*
X118741745Y-81844585D01*
X118433894Y-81672116D01*
X118202820Y-81548279D01*
X118073364Y-81486587D01*
X118054813Y-81482761D01*
X118083108Y-81557458D01*
X118179457Y-81744494D01*
X118330084Y-82018422D01*
X118521216Y-82353794D01*
X118595665Y-82481894D01*
X118800874Y-82839178D01*
X118973093Y-83150345D01*
X119097565Y-83387855D01*
X119159531Y-83524165D01*
X119163750Y-83542043D01*
X119125919Y-83638678D01*
X119023968Y-83837922D01*
X118875211Y-84109983D01*
X118696960Y-84425067D01*
X118506527Y-84753382D01*
X118321227Y-85065136D01*
X118158372Y-85330537D01*
X118035274Y-85519790D01*
X117969246Y-85603105D01*
X117965156Y-85604616D01*
X117911379Y-85537993D01*
X117793639Y-85357461D01*
X117627654Y-85088150D01*
X117429141Y-84755189D01*
X117360911Y-84638610D01*
X117155353Y-84283776D01*
X116979646Y-83976609D01*
X116849327Y-83744562D01*
X116779932Y-83615087D01*
X116773333Y-83600397D01*
X116801768Y-83507311D01*
X116898130Y-83303340D01*
X117048657Y-83015465D01*
X117239584Y-82670666D01*
X117314184Y-82540181D01*
X117517783Y-82183402D01*
X117689018Y-81876554D01*
X117813469Y-81646003D01*
X117876719Y-81518113D01*
X117881731Y-81502360D01*
X117816778Y-81521555D01*
X117637837Y-81609803D01*
X117368787Y-81754463D01*
X117033504Y-81942893D01*
X116851984Y-82047540D01*
X115822237Y-82645917D01*
X114771966Y-82027061D01*
X114410146Y-81812412D01*
X114104436Y-81628273D01*
X113878103Y-81488881D01*
X113754415Y-81408476D01*
X113738464Y-81394620D01*
X113809499Y-81351197D01*
X113994012Y-81240629D01*
X114267615Y-81077471D01*
X114605924Y-80876278D01*
X114785988Y-80769369D01*
X115816744Y-80157705D01*
X116849238Y-80756630D01*
X117208948Y-80962222D01*
X117514117Y-81130795D01*
X117740868Y-81249623D01*
X117865324Y-81305982D01*
X117881731Y-81306853D01*
X117843778Y-81223609D01*
X117739480Y-81028014D01*
X117583183Y-80746174D01*
X117389229Y-80404195D01*
X117309671Y-80265698D01*
X117071773Y-79843548D01*
X116912676Y-79536176D01*
X116823781Y-79324041D01*
X116796488Y-79187603D01*
X116808883Y-79127774D01*
X116903870Y-78948218D01*
X117048629Y-78691297D01*
X117225261Y-78386907D01*
X117415870Y-78064943D01*
X117602557Y-77755302D01*
X117767426Y-77487879D01*
X117892578Y-77292572D01*
X117960117Y-77199276D01*
X117965724Y-77195385D01*
X118024948Y-77260654D01*
G37*
D13*
%TO.C,C22*%
X168147125Y-106908512D02*
X168439659Y-106908512D01*
X168147125Y-107928512D02*
X168439659Y-107928512D01*
%TO.C,J4*%
X151713200Y-101818800D02*
X151713200Y-108788800D01*
X151713200Y-108788800D02*
X155133200Y-108788800D01*
X152223200Y-102328800D02*
X152223200Y-105303800D01*
X152223200Y-108278800D02*
X152223200Y-105303800D01*
X153073200Y-102128800D02*
X153073200Y-102328800D01*
X153073200Y-102328800D02*
X152223200Y-102328800D01*
X153073200Y-108278800D02*
X152223200Y-108278800D01*
X153073200Y-108478800D02*
X153073200Y-108278800D01*
X153873200Y-102128800D02*
X153073200Y-102128800D01*
X153873200Y-102328800D02*
X153873200Y-102128800D01*
X153873200Y-108278800D02*
X153873200Y-108478800D01*
X153873200Y-108478800D02*
X153073200Y-108478800D01*
X154623200Y-102328800D02*
X153873200Y-102328800D01*
X154623200Y-105303800D02*
X154623200Y-102328800D01*
X154623200Y-105303800D02*
X154623200Y-108278800D01*
X154623200Y-108278800D02*
X153873200Y-108278800D01*
X155133200Y-101818800D02*
X151713200Y-101818800D01*
X155133200Y-108788800D02*
X155133200Y-101818800D01*
X155423200Y-109078800D02*
X154423200Y-109078800D01*
X155423200Y-109078800D02*
X155423200Y-108078800D01*
%TO.C,U8*%
X164499100Y-100515799D02*
X165474100Y-100515799D01*
X164499100Y-101490799D02*
X164499100Y-100515799D01*
X164499100Y-104735799D02*
X164499100Y-103760799D01*
X165474100Y-104735799D02*
X164499100Y-104735799D01*
X167744100Y-100515799D02*
X168719100Y-100515799D01*
X168719100Y-100515799D02*
X168719100Y-101490799D01*
X168719100Y-103760799D02*
X168719100Y-104735799D01*
X168719100Y-104735799D02*
X167744100Y-104735799D01*
X166099100Y-105595799D02*
X165619100Y-105595799D01*
X165859100Y-105265799D01*
X166099100Y-105595799D01*
G36*
X166099100Y-105595799D02*
G01*
X165619100Y-105595799D01*
X165859100Y-105265799D01*
X166099100Y-105595799D01*
G37*
%TO.C,C3*%
X135638600Y-105732967D02*
X135638600Y-105440433D01*
X136658600Y-105732967D02*
X136658600Y-105440433D01*
%TO.C,C30*%
X168898201Y-89426833D02*
X168898201Y-89719367D01*
X169918201Y-89426833D02*
X169918201Y-89719367D01*
%TO.C,J3*%
X141901400Y-92964000D02*
X141901400Y-87774000D01*
X148471400Y-87774000D02*
X141901400Y-87774000D01*
X148471400Y-92964000D02*
X141901400Y-92964000D01*
X148471400Y-92964000D02*
X148471400Y-87774000D01*
X148471400Y-95504000D02*
X148471400Y-98154000D01*
X148471400Y-98154000D02*
X145186400Y-98154000D01*
%TO.C,C19*%
X165194367Y-98753200D02*
X164901833Y-98753200D01*
X165194367Y-99773200D02*
X164901833Y-99773200D01*
D15*
%TO.C,U11*%
X162327951Y-87093679D02*
X162327951Y-87246460D01*
X162327951Y-90293698D02*
X162327951Y-90446479D01*
X162327951Y-90446479D02*
X165680751Y-90446479D01*
X165680751Y-87093679D02*
X162327951Y-87093679D01*
X165680751Y-87246460D02*
X165680751Y-87093679D01*
X165680751Y-90446479D02*
X165680751Y-90293698D01*
D13*
%TO.C,C27*%
X152753600Y-87355633D02*
X152753600Y-87648167D01*
X153773600Y-87355633D02*
X153773600Y-87648167D01*
%TO.C,C26*%
X162586301Y-84588567D02*
X162586301Y-84296033D01*
X163606301Y-84588567D02*
X163606301Y-84296033D01*
%TO.C,J6*%
X164479200Y-112395600D02*
X164479200Y-111395600D01*
X164479200Y-112395600D02*
X165479200Y-112395600D01*
X164769200Y-108685600D02*
X164769200Y-112105600D01*
X164769200Y-112105600D02*
X171739200Y-112105600D01*
X165079200Y-110045600D02*
X165279200Y-110045600D01*
X165079200Y-110845600D02*
X165079200Y-110045600D01*
X165279200Y-109195600D02*
X168254200Y-109195600D01*
X165279200Y-110045600D02*
X165279200Y-109195600D01*
X165279200Y-110845600D02*
X165079200Y-110845600D01*
X165279200Y-111595600D02*
X165279200Y-110845600D01*
X168254200Y-111595600D02*
X165279200Y-111595600D01*
X168254200Y-111595600D02*
X171229200Y-111595600D01*
X171229200Y-109195600D02*
X168254200Y-109195600D01*
X171229200Y-110045600D02*
X171229200Y-109195600D01*
X171229200Y-110845600D02*
X171429200Y-110845600D01*
X171229200Y-111595600D02*
X171229200Y-110845600D01*
X171429200Y-110045600D02*
X171229200Y-110045600D01*
X171429200Y-110845600D02*
X171429200Y-110045600D01*
X171739200Y-108685600D02*
X164769200Y-108685600D01*
X171739200Y-112105600D02*
X171739200Y-108685600D01*
%TO.C,C28*%
X162261333Y-90828400D02*
X162553867Y-90828400D01*
X162261333Y-91848400D02*
X162553867Y-91848400D01*
%TO.C,C25*%
X154277600Y-87354533D02*
X154277600Y-87647067D01*
X155297600Y-87354533D02*
X155297600Y-87647067D01*
%TD*%
%LPC*%
D16*
%TO.C,U9*%
G36*
X154152727Y-95070806D02*
G01*
X152648031Y-95070806D01*
X152648031Y-94620718D01*
X154152727Y-94620718D01*
X154152727Y-95070806D01*
G37*
G36*
X154152778Y-98712157D02*
G01*
X152647980Y-98712157D01*
X152647980Y-98262157D01*
X154152778Y-98262157D01*
X154152778Y-98712157D01*
G37*
%TO.C,U7*%
G36*
X158512256Y-108092748D02*
G01*
X158062168Y-108092748D01*
X158062168Y-106588052D01*
X158512256Y-106588052D01*
X158512256Y-108092748D01*
G37*
G36*
X162153607Y-108092799D02*
G01*
X161703607Y-108092799D01*
X161703607Y-106588001D01*
X162153607Y-106588001D01*
X162153607Y-108092799D01*
G37*
%TD*%
D17*
%TO.C,fid.C*%
X123500000Y-116600000D03*
%TD*%
D18*
%TO.C,U12*%
X146212800Y-105196400D03*
X147512800Y-105196400D03*
X146212800Y-103896400D03*
X147512800Y-103896400D03*
D19*
X146112800Y-106483900D03*
X146612800Y-106483900D03*
X147112800Y-106483900D03*
X147612800Y-106483900D03*
D20*
X148800300Y-105296400D03*
X148800300Y-104796400D03*
X148800300Y-104296400D03*
X148800300Y-103796400D03*
D19*
X147612800Y-102608900D03*
X147112800Y-102608900D03*
X146612800Y-102608900D03*
X146112800Y-102608900D03*
D20*
X144925300Y-103796400D03*
X144925300Y-104296400D03*
X144925300Y-104796400D03*
X144925300Y-105296400D03*
D21*
X146862800Y-104546400D03*
%TD*%
D17*
%TO.C,fid.B*%
X121000000Y-75800000D03*
%TD*%
D22*
%TO.C,C2*%
X140471300Y-100628548D03*
X142196300Y-100628548D03*
%TD*%
%TO.C,C29*%
X161546200Y-92811600D03*
X163271200Y-92811600D03*
%TD*%
%TO.C,C1*%
X140472400Y-102100648D03*
X142197400Y-102100648D03*
%TD*%
D23*
%TO.C,J1*%
X177437869Y-108918400D03*
X177437869Y-83918400D03*
D24*
X174597869Y-101958400D03*
D25*
X174597869Y-99188400D03*
X174597869Y-96418400D03*
X174597869Y-93648400D03*
X174597869Y-90878400D03*
X177437869Y-100573400D03*
X177437869Y-97803400D03*
X177437869Y-95033400D03*
X177437869Y-92263400D03*
%TD*%
D26*
%TO.C,U1*%
X122224800Y-109982000D03*
D27*
X117093800Y-108843000D03*
D28*
X117093800Y-108843000D03*
D29*
X145223716Y-95515084D03*
D27*
X117093800Y-90843000D03*
D28*
X117093800Y-90843000D03*
D30*
X124764800Y-109982000D03*
D31*
X145223716Y-90435084D03*
D30*
X127304800Y-109982000D03*
X129844800Y-109982000D03*
X132384800Y-109982000D03*
X134924800Y-109982000D03*
X137464800Y-109982000D03*
X140004800Y-109982000D03*
%TD*%
D32*
%TO.C,REF\u002A\u002A*%
X116500000Y-75900000D03*
%TD*%
D33*
%TO.C,C23*%
X150495000Y-98093700D03*
X150495000Y-96368700D03*
%TD*%
D34*
%TO.C,C18*%
X161522723Y-110227044D03*
X159797723Y-110227044D03*
%TD*%
D22*
%TO.C,C34*%
X147582200Y-107942900D03*
X149307200Y-107942900D03*
%TD*%
D35*
%TO.C,Raspberry Pi*%
X124155200Y-74472800D03*
D30*
X124155200Y-77012800D03*
X126695200Y-74472800D03*
X126695200Y-77012800D03*
X129235200Y-74472800D03*
X129235200Y-77012800D03*
X131775200Y-74472800D03*
X131775200Y-77012800D03*
X134315200Y-74472800D03*
X134315200Y-77012800D03*
X136855200Y-74472800D03*
X136855200Y-77012800D03*
X139395200Y-74472800D03*
X139395200Y-77012800D03*
X141935200Y-74472800D03*
X141935200Y-77012800D03*
X144475200Y-74472800D03*
X144475200Y-77012800D03*
X147015200Y-74472800D03*
X147015200Y-77012800D03*
X149555200Y-74472800D03*
X149555200Y-77012800D03*
X152095200Y-74472800D03*
X152095200Y-77012800D03*
X154635200Y-74472800D03*
X154635200Y-77012800D03*
X157175200Y-74472800D03*
X157175200Y-77012800D03*
X159715200Y-74472800D03*
X159715200Y-77012800D03*
X162255200Y-74472800D03*
X162255200Y-77012800D03*
X164795200Y-74472800D03*
X164795200Y-77012800D03*
X167335200Y-74472800D03*
X167335200Y-77012800D03*
X169875200Y-74472800D03*
X169875200Y-77012800D03*
X172415200Y-74472800D03*
X172415200Y-77012800D03*
%TD*%
D35*
%TO.C,J2*%
X122224800Y-109982000D03*
D36*
X124764800Y-109982000D03*
X127304800Y-109982000D03*
X129844800Y-109982000D03*
X132384800Y-109982000D03*
X134924800Y-109982000D03*
X137464800Y-109982000D03*
X140004800Y-109982000D03*
%TD*%
D37*
%TO.C,C31*%
X167884201Y-88710600D03*
X167884201Y-90435600D03*
%TD*%
D34*
%TO.C,C20*%
X165909500Y-97739200D03*
X164184500Y-97739200D03*
%TD*%
D33*
%TO.C,C24*%
X161572301Y-85305900D03*
X161572301Y-83580900D03*
%TD*%
D22*
%TO.C,C35*%
X147590800Y-109430300D03*
X149315800Y-109430300D03*
%TD*%
D38*
%TO.C,U9*%
X154848179Y-98167450D03*
X154848179Y-97567451D03*
X154848179Y-96967449D03*
X154848179Y-96367451D03*
X154848179Y-95767449D03*
X154848179Y-95167450D03*
D39*
X153400379Y-94216350D03*
D38*
X151952579Y-95167450D03*
X151952579Y-95767449D03*
X151952579Y-96367451D03*
X151952579Y-96967449D03*
X151952579Y-97567451D03*
X151952579Y-98167450D03*
D40*
X153404900Y-99115098D03*
%TD*%
D41*
%TO.C,U3*%
X141884400Y-104741726D03*
X141884400Y-104241600D03*
X141884400Y-103741474D03*
X141884400Y-103241348D03*
X139039600Y-103241348D03*
X139039600Y-103741474D03*
X139039600Y-104241600D03*
X139039600Y-104741726D03*
D42*
X140462000Y-103991537D03*
%TD*%
D34*
%TO.C,C32*%
X146227800Y-99593400D03*
X144502800Y-99593400D03*
%TD*%
D43*
%TO.C,U10*%
X156243901Y-85216300D03*
X156243901Y-85716300D03*
X156243901Y-86216300D03*
X156243901Y-86716300D03*
D44*
X157431401Y-87903800D03*
X157931401Y-87903800D03*
X158431401Y-87903800D03*
X158931401Y-87903800D03*
D43*
X160118901Y-86716300D03*
X160118901Y-86216300D03*
X160118901Y-85716300D03*
X160118901Y-85216300D03*
D44*
X158931401Y-84028800D03*
X158431401Y-84028800D03*
X157931401Y-84028800D03*
X157431401Y-84028800D03*
D45*
X158181401Y-85966300D03*
%TD*%
D32*
%TO.C,REF\u002A\u002A*%
X116400000Y-116600000D03*
%TD*%
D33*
%TO.C,C4*%
X137642600Y-106449200D03*
X137642600Y-104724200D03*
%TD*%
D32*
%TO.C,REF\u002A\u002A*%
X177400000Y-75900000D03*
%TD*%
%TO.C,REF\u002A\u002A*%
X177400000Y-116600000D03*
%TD*%
D22*
%TO.C,C21*%
X167430892Y-105894512D03*
X169155892Y-105894512D03*
%TD*%
D34*
%TO.C,C33*%
X146202400Y-101066600D03*
X144477400Y-101066600D03*
%TD*%
D46*
%TO.C,U7*%
X161608900Y-105892600D03*
X161008901Y-105892600D03*
X160408899Y-105892600D03*
X159808901Y-105892600D03*
X159208899Y-105892600D03*
X158608900Y-105892600D03*
D47*
X157657800Y-107340400D03*
D46*
X158608900Y-108788200D03*
X159208899Y-108788200D03*
X159808901Y-108788200D03*
X160408899Y-108788200D03*
X161008901Y-108788200D03*
X161608900Y-108788200D03*
D48*
X162560000Y-107340400D03*
%TD*%
D22*
%TO.C,C22*%
X167430892Y-107418512D03*
X169155892Y-107418512D03*
%TD*%
D49*
%TO.C,J4*%
X153873200Y-107178800D03*
D50*
X153873200Y-105928800D03*
X153873200Y-104678800D03*
X153873200Y-103428800D03*
%TD*%
D19*
%TO.C,U8*%
X165859100Y-104563299D03*
X166359100Y-104563299D03*
X166859100Y-104563299D03*
X167359100Y-104563299D03*
D20*
X168546600Y-103375799D03*
X168546600Y-102875799D03*
X168546600Y-102375799D03*
X168546600Y-101875799D03*
D19*
X167359100Y-100688299D03*
X166859100Y-100688299D03*
X166359100Y-100688299D03*
X165859100Y-100688299D03*
D20*
X164671600Y-101875799D03*
X164671600Y-102375799D03*
X164671600Y-102875799D03*
X164671600Y-103375799D03*
D21*
X166609100Y-102625799D03*
%TD*%
D33*
%TO.C,C3*%
X136148600Y-106449200D03*
X136148600Y-104724200D03*
%TD*%
D37*
%TO.C,C30*%
X169408201Y-88710600D03*
X169408201Y-90435600D03*
%TD*%
D51*
%TO.C,J3*%
X145186400Y-95504000D03*
D31*
X145186400Y-90424000D03*
%TD*%
D34*
%TO.C,C19*%
X165910600Y-99263200D03*
X164185600Y-99263200D03*
%TD*%
D52*
%TO.C,U11*%
X161788201Y-87795100D03*
X161788201Y-88445086D03*
X161788201Y-89095072D03*
X161788201Y-89745058D03*
X166220501Y-89745058D03*
X166220501Y-89095072D03*
X166220501Y-88445086D03*
X166220501Y-87795100D03*
%TD*%
D37*
%TO.C,C27*%
X153263600Y-86639400D03*
X153263600Y-88364400D03*
%TD*%
D17*
%TO.C,fid.A*%
X170500000Y-116600000D03*
%TD*%
D33*
%TO.C,C26*%
X163096301Y-85304800D03*
X163096301Y-83579800D03*
%TD*%
D53*
%TO.C,J6*%
X166379200Y-110845600D03*
D54*
X167629200Y-110845600D03*
X168879200Y-110845600D03*
X170129200Y-110845600D03*
%TD*%
D22*
%TO.C,C28*%
X161545100Y-91338400D03*
X163270100Y-91338400D03*
%TD*%
D37*
%TO.C,C25*%
X154787600Y-86638300D03*
X154787600Y-88363300D03*
%TD*%
%LPD*%
M02*
