%TF.GenerationSoftware,KiCad,Pcbnew,9.0.7+1*%
%TF.CreationDate,Date%
%TF.ProjectId,proalbmlb,70726f61-6c62-46d6-9c62-2e6b69636164,+ (Unreleased)*%
%TF.SameCoordinates,Original*%
%TF.FileFunction,Soldermask,Top*%
%TF.FilePolarity,Negative*%
%FSLAX46Y46*%
G04 Gerber Fmt 4.6, Leading zero omitted, Abs format (unit mm)*
G04 Created by KiCad*
%MOMM*%
%LPD*%
G01*
G04 APERTURE LIST*
G04 Aperture macros list*
%AMRoundRect*
0 Rectangle with rounded corners*
0 $1 Rounding radius*
0 $2 $3 $4 $5 $6 $7 $8 $9 X,Y pos of 4 corners*
0 Add a 4 corners polygon primitive as box body*
4,1,4,$2,$3,$4,$5,$6,$7,$8,$9,$2,$3,0*
0 Add four circle primitives for the rounded corners*
1,1,$1+$1,$2,$3*
1,1,$1+$1,$4,$5*
1,1,$1+$1,$6,$7*
1,1,$1+$1,$8,$9*
0 Add four rect primitives between the rounded corners*
20,1,$1+$1,$2,$3,$4,$5,0*
20,1,$1+$1,$4,$5,$6,$7,0*
20,1,$1+$1,$6,$7,$8,$9,0*
20,1,$1+$1,$8,$9,$2,$3,0*%
%AMFreePoly0*
4,1,30,0.787703,0.889811,0.802348,0.854458,0.802399,-0.406398,0.787756,-0.441754,0.752401,-0.456400,0.447599,-0.456400,0.412244,-0.441755,0.397599,-0.406400,0.397599,0.356400,0.202400,0.356400,0.202400,-0.406400,0.187755,-0.441755,0.152400,-0.456400,-0.152400,-0.456400,-0.187755,-0.441755,-0.202400,-0.406400,-0.202400,0.356400,-0.397599,0.356400,-0.397599,-0.406400,-0.412244,-0.441755,
-0.447599,-0.456400,-0.752399,-0.456400,-0.787754,-0.441755,-0.802399,-0.406400,-0.802399,-0.406398,-0.802348,0.854458,-0.787702,0.889813,-0.752348,0.904456,0.752348,0.904456,0.787703,0.889811,0.787703,0.889811,$1*%
%AMFreePoly1*
4,1,31,-0.407723,0.445207,-0.393078,0.409852,-0.393078,-0.352948,-0.202400,-0.352948,-0.202400,0.406400,-0.187755,0.441755,-0.184023,0.443300,-0.183234,0.445207,-0.147879,0.459852,0.156921,0.459852,0.192276,0.445207,0.206921,0.409852,0.206921,-0.352948,0.402120,-0.352948,0.402120,0.409852,0.416765,0.445207,0.452120,0.459852,0.756920,0.459852,0.792275,0.445207,0.806920,0.409852,
0.806920,-0.852941,0.792275,-0.888296,0.756920,-0.902941,-0.747878,-0.902941,-0.783233,-0.888296,-0.797878,-0.852941,-0.797878,0.409852,-0.783233,0.445207,-0.747878,0.459852,-0.443078,0.459852,-0.407723,0.445207,-0.407723,0.445207,$1*%
%AMFreePoly2*
4,1,29,-0.412244,0.441755,-0.397599,0.406400,-0.397599,-0.356400,-0.202400,-0.356400,-0.202400,0.406400,-0.187755,0.441755,-0.152400,0.456400,0.152400,0.456400,0.187755,0.441755,0.202400,0.406400,0.202400,-0.356400,0.397599,-0.356400,0.397599,0.406400,0.412244,0.441755,0.447599,0.456400,0.752399,0.456400,0.787754,0.441755,0.802399,0.406400,0.802399,-0.856393,0.787754,-0.891748,
0.752399,-0.906393,-0.752399,-0.906393,-0.787754,-0.891748,-0.802399,-0.856393,-0.802399,0.406400,-0.787754,0.441755,-0.752399,0.456400,-0.447599,0.456400,-0.412244,0.441755,-0.412244,0.441755,$1*%
G04 Aperture macros list end*
%ADD10C,0.000000*%
%ADD11RoundRect,0.272124X0.342876X-0.342876X0.342876X0.342876X-0.342876X0.342876X-0.342876X-0.342876X0*%
%ADD12RoundRect,0.087500X0.087500X-0.400000X0.087500X0.400000X-0.087500X0.400000X-0.087500X-0.400000X0*%
%ADD13RoundRect,0.087500X0.400000X-0.087500X0.400000X0.087500X-0.400000X0.087500X-0.400000X-0.087500X0*%
%ADD14RoundRect,0.050000X1.300000X-1.300000X1.300000X1.300000X-1.300000X1.300000X-1.300000X-1.300000X0*%
%ADD15RoundRect,0.262500X-0.325000X-0.262500X0.325000X-0.262500X0.325000X0.262500X-0.325000X0.262500X0*%
%ADD16C,4.100000*%
%ADD17RoundRect,0.050000X0.800000X-0.800000X0.800000X0.800000X-0.800000X0.800000X-0.800000X-0.800000X0*%
%ADD18C,1.700000*%
%ADD19RoundRect,0.225000X-0.225000X-0.475000X0.225000X-0.475000X0.225000X0.475000X-0.225000X0.475000X0*%
%ADD20O,0.900000X1.400000*%
%ADD21RoundRect,0.050000X-0.850000X0.850000X-0.850000X-0.850000X0.850000X-0.850000X0.850000X0.850000X0*%
%ADD22C,3.200000*%
%ADD23C,4.800000*%
%ADD24RoundRect,0.050000X-1.400000X-1.400000X1.400000X-1.400000X1.400000X1.400000X-1.400000X1.400000X0*%
%ADD25O,1.800000X1.800000*%
%ADD26C,2.900000*%
%ADD27RoundRect,0.262500X0.262500X-0.325000X0.262500X0.325000X-0.262500X0.325000X-0.262500X-0.325000X0*%
%ADD28RoundRect,0.262500X0.325000X0.262500X-0.325000X0.262500X-0.325000X-0.262500X0.325000X-0.262500X0*%
%ADD29C,6.000000*%
%ADD30RoundRect,0.050000X0.850000X-0.850000X0.850000X0.850000X-0.850000X0.850000X-0.850000X-0.850000X0*%
%ADD31C,1.800000*%
%ADD32RoundRect,0.262500X-0.262500X0.325000X-0.262500X-0.325000X0.262500X-0.325000X0.262500X0.325000X0*%
%ADD33RoundRect,0.050000X-0.406400X0.152400X-0.406400X-0.152400X0.406400X-0.152400X0.406400X0.152400X0*%
%ADD34FreePoly0,180.000000*%
%ADD35FreePoly1,180.000000*%
%ADD36RoundRect,0.050000X0.330200X0.127000X-0.330200X0.127000X-0.330200X-0.127000X0.330200X-0.127000X0*%
%ADD37RoundRect,0.050000X0.952500X0.876300X-0.952500X0.876300X-0.952500X-0.876300X0.952500X-0.876300X0*%
%ADD38RoundRect,0.087500X-0.400000X-0.087500X0.400000X-0.087500X0.400000X0.087500X-0.400000X0.087500X0*%
%ADD39RoundRect,0.087500X-0.087500X-0.400000X0.087500X-0.400000X0.087500X0.400000X-0.087500X0.400000X0*%
%ADD40RoundRect,0.050000X-1.300000X-1.300000X1.300000X-1.300000X1.300000X1.300000X-1.300000X1.300000X0*%
%ADD41RoundRect,0.050000X-0.152400X-0.406400X0.152400X-0.406400X0.152400X0.406400X-0.152400X0.406400X0*%
%ADD42FreePoly0,270.000000*%
%ADD43FreePoly2,270.000000*%
%ADD44RoundRect,0.225000X0.475000X-0.225000X0.475000X0.225000X-0.475000X0.225000X-0.475000X-0.225000X0*%
%ADD45O,1.400000X0.900000*%
%ADD46RoundRect,0.050000X1.400000X1.400000X-1.400000X1.400000X-1.400000X-1.400000X1.400000X-1.400000X0*%
%ADD47RoundRect,0.050000X-0.666750X-0.215900X0.666750X-0.215900X0.666750X0.215900X-0.666750X0.215900X0*%
%ADD48C,0.650000*%
G04 APERTURE END LIST*
D10*
%TO.C,U9*%
G36*
X154152727Y-95070806D02*
G01*
X152648031Y-95070806D01*
X152648031Y-94620718D01*
X154152727Y-94620718D01*
X154152727Y-95070806D01*
G37*
G36*
X154152778Y-98712157D02*
G01*
X152647980Y-98712157D01*
X152647980Y-98262157D01*
X154152778Y-98262157D01*
X154152778Y-98712157D01*
G37*
%TO.C,U7*%
G36*
X158512256Y-108092748D02*
G01*
X158062168Y-108092748D01*
X158062168Y-106588052D01*
X158512256Y-106588052D01*
X158512256Y-108092748D01*
G37*
G36*
X162153607Y-108092799D02*
G01*
X161703607Y-108092799D01*
X161703607Y-106588001D01*
X162153607Y-106588001D01*
X162153607Y-108092799D01*
G37*
%TD*%
D11*
%TO.C,U12*%
X146212800Y-105196400D03*
X147512800Y-105196400D03*
X146212800Y-103896400D03*
X147512800Y-103896400D03*
D12*
X146112800Y-106483900D03*
X146612800Y-106483900D03*
X147112800Y-106483900D03*
X147612800Y-106483900D03*
D13*
X148800300Y-105296400D03*
X148800300Y-104796400D03*
X148800300Y-104296400D03*
X148800300Y-103796400D03*
D12*
X147612800Y-102608900D03*
X147112800Y-102608900D03*
X146612800Y-102608900D03*
X146112800Y-102608900D03*
D13*
X144925300Y-103796400D03*
X144925300Y-104296400D03*
X144925300Y-104796400D03*
X144925300Y-105296400D03*
D14*
X146862800Y-104546400D03*
%TD*%
D15*
%TO.C,C2*%
X140471300Y-100628548D03*
X142196300Y-100628548D03*
%TD*%
%TO.C,C29*%
X161546200Y-92811600D03*
X163271200Y-92811600D03*
%TD*%
%TO.C,C1*%
X140472400Y-102100648D03*
X142197400Y-102100648D03*
%TD*%
D16*
%TO.C,J1*%
X177437869Y-108918400D03*
X177437869Y-83918400D03*
D17*
X174597869Y-101958400D03*
D18*
X174597869Y-99188400D03*
X174597869Y-96418400D03*
X174597869Y-93648400D03*
X174597869Y-90878400D03*
X177437869Y-100573400D03*
X177437869Y-97803400D03*
X177437869Y-95033400D03*
X177437869Y-92263400D03*
%TD*%
D19*
%TO.C,J8*%
X118333200Y-85344000D03*
D20*
X119583200Y-85344000D03*
%TD*%
D21*
%TO.C,U1*%
X122224800Y-109982000D03*
D22*
X117093800Y-108843000D03*
D23*
X117093800Y-108843000D03*
D24*
X145223716Y-95515084D03*
D22*
X117093800Y-90843000D03*
D23*
X117093800Y-90843000D03*
D25*
X124764800Y-109982000D03*
D26*
X145223716Y-90435084D03*
D25*
X127304800Y-109982000D03*
X129844800Y-109982000D03*
X132384800Y-109982000D03*
X134924800Y-109982000D03*
X137464800Y-109982000D03*
X140004800Y-109982000D03*
%TD*%
D27*
%TO.C,C23*%
X150495000Y-98093700D03*
X150495000Y-96368700D03*
%TD*%
D28*
%TO.C,C18*%
X161522723Y-110227044D03*
X159797723Y-110227044D03*
%TD*%
D15*
%TO.C,C34*%
X147582200Y-107942900D03*
X149307200Y-107942900D03*
%TD*%
D29*
%TO.C,REF\u002A\u002A*%
X119285200Y-75742800D03*
X177285200Y-75742800D03*
X119285200Y-52742800D03*
X177285200Y-52742800D03*
D30*
X124155200Y-74472800D03*
D25*
X124155200Y-77012800D03*
X126695200Y-74472800D03*
X126695200Y-77012800D03*
X129235200Y-74472800D03*
X129235200Y-77012800D03*
X131775200Y-74472800D03*
X131775200Y-77012800D03*
X134315200Y-74472800D03*
X134315200Y-77012800D03*
X136855200Y-74472800D03*
X136855200Y-77012800D03*
X139395200Y-74472800D03*
X139395200Y-77012800D03*
X141935200Y-74472800D03*
X141935200Y-77012800D03*
X144475200Y-74472800D03*
X144475200Y-77012800D03*
X147015200Y-74472800D03*
X147015200Y-77012800D03*
X149555200Y-74472800D03*
X149555200Y-77012800D03*
X152095200Y-74472800D03*
X152095200Y-77012800D03*
X154635200Y-74472800D03*
X154635200Y-77012800D03*
X157175200Y-74472800D03*
X157175200Y-77012800D03*
X159715200Y-74472800D03*
X159715200Y-77012800D03*
X162255200Y-74472800D03*
X162255200Y-77012800D03*
X164795200Y-74472800D03*
X164795200Y-77012800D03*
X167335200Y-74472800D03*
X167335200Y-77012800D03*
X169875200Y-74472800D03*
X169875200Y-77012800D03*
X172415200Y-74472800D03*
X172415200Y-77012800D03*
%TD*%
D30*
%TO.C,J2*%
X122224800Y-109982000D03*
D31*
X124764800Y-109982000D03*
X127304800Y-109982000D03*
X129844800Y-109982000D03*
X132384800Y-109982000D03*
X134924800Y-109982000D03*
X137464800Y-109982000D03*
X140004800Y-109982000D03*
%TD*%
D32*
%TO.C,C31*%
X167884201Y-88710600D03*
X167884201Y-90435600D03*
%TD*%
D28*
%TO.C,C20*%
X165909500Y-97739200D03*
X164184500Y-97739200D03*
%TD*%
D27*
%TO.C,C24*%
X161572301Y-85305900D03*
X161572301Y-83580900D03*
%TD*%
D15*
%TO.C,C35*%
X147590800Y-109430300D03*
X149315800Y-109430300D03*
%TD*%
D33*
%TO.C,U9*%
X154848179Y-98167450D03*
X154848179Y-97567451D03*
X154848179Y-96967449D03*
X154848179Y-96367451D03*
X154848179Y-95767449D03*
X154848179Y-95167450D03*
D34*
X153400379Y-94216350D03*
D33*
X151952579Y-95167450D03*
X151952579Y-95767449D03*
X151952579Y-96367451D03*
X151952579Y-96967449D03*
X151952579Y-97567451D03*
X151952579Y-98167450D03*
D35*
X153404900Y-99115098D03*
%TD*%
D36*
%TO.C,U3*%
X141884400Y-104741726D03*
X141884400Y-104241600D03*
X141884400Y-103741474D03*
X141884400Y-103241348D03*
X139039600Y-103241348D03*
X139039600Y-103741474D03*
X139039600Y-104241600D03*
X139039600Y-104741726D03*
D37*
X140462000Y-103991537D03*
%TD*%
D19*
%TO.C,J10*%
X133699400Y-84325800D03*
D20*
X134949400Y-84325800D03*
X136199400Y-84325800D03*
X137449400Y-84325800D03*
X138699400Y-84325800D03*
X139949400Y-84325800D03*
X141199400Y-84325800D03*
X142449400Y-84325800D03*
%TD*%
D28*
%TO.C,C32*%
X146227800Y-99593400D03*
X144502800Y-99593400D03*
%TD*%
D38*
%TO.C,U10*%
X156243901Y-85216300D03*
X156243901Y-85716300D03*
X156243901Y-86216300D03*
X156243901Y-86716300D03*
D39*
X157431401Y-87903800D03*
X157931401Y-87903800D03*
X158431401Y-87903800D03*
X158931401Y-87903800D03*
D38*
X160118901Y-86716300D03*
X160118901Y-86216300D03*
X160118901Y-85716300D03*
X160118901Y-85216300D03*
D39*
X158931401Y-84028800D03*
X158431401Y-84028800D03*
X157931401Y-84028800D03*
X157431401Y-84028800D03*
D40*
X158181401Y-85966300D03*
%TD*%
D27*
%TO.C,C4*%
X137642600Y-106449200D03*
X137642600Y-104724200D03*
%TD*%
D15*
%TO.C,C21*%
X167430892Y-105894512D03*
X169155892Y-105894512D03*
%TD*%
D28*
%TO.C,C33*%
X146202400Y-101066600D03*
X144477400Y-101066600D03*
%TD*%
D41*
%TO.C,U7*%
X161608900Y-105892600D03*
X161008901Y-105892600D03*
X160408899Y-105892600D03*
X159808901Y-105892600D03*
X159208899Y-105892600D03*
X158608900Y-105892600D03*
D42*
X157657800Y-107340400D03*
D41*
X158608900Y-108788200D03*
X159208899Y-108788200D03*
X159808901Y-108788200D03*
X160408899Y-108788200D03*
X161008901Y-108788200D03*
X161608900Y-108788200D03*
D43*
X162560000Y-107340400D03*
%TD*%
D15*
%TO.C,C22*%
X167430892Y-107418512D03*
X169155892Y-107418512D03*
%TD*%
D44*
%TO.C,J4*%
X153873200Y-107178800D03*
D45*
X153873200Y-105928800D03*
X153873200Y-104678800D03*
X153873200Y-103428800D03*
%TD*%
D12*
%TO.C,U8*%
X165859100Y-104563299D03*
X166359100Y-104563299D03*
X166859100Y-104563299D03*
X167359100Y-104563299D03*
D13*
X168546600Y-103375799D03*
X168546600Y-102875799D03*
X168546600Y-102375799D03*
X168546600Y-101875799D03*
D12*
X167359100Y-100688299D03*
X166859100Y-100688299D03*
X166359100Y-100688299D03*
X165859100Y-100688299D03*
D13*
X164671600Y-101875799D03*
X164671600Y-102375799D03*
X164671600Y-102875799D03*
X164671600Y-103375799D03*
D14*
X166609100Y-102625799D03*
%TD*%
D27*
%TO.C,C3*%
X136148600Y-106449200D03*
X136148600Y-104724200D03*
%TD*%
D32*
%TO.C,C30*%
X169408201Y-88710600D03*
X169408201Y-90435600D03*
%TD*%
D46*
%TO.C,J3*%
X145186400Y-95504000D03*
D26*
X145186400Y-90424000D03*
%TD*%
D28*
%TO.C,C19*%
X165910600Y-99263200D03*
X164185600Y-99263200D03*
%TD*%
D47*
%TO.C,U11*%
X161788201Y-87795100D03*
X161788201Y-88445086D03*
X161788201Y-89095072D03*
X161788201Y-89745058D03*
X166220501Y-89745058D03*
X166220501Y-89095072D03*
X166220501Y-88445086D03*
X166220501Y-87795100D03*
%TD*%
D32*
%TO.C,C27*%
X153263600Y-86639400D03*
X153263600Y-88364400D03*
%TD*%
D27*
%TO.C,C26*%
X163096301Y-85304800D03*
X163096301Y-83579800D03*
%TD*%
D19*
%TO.C,J6*%
X166379200Y-110845600D03*
D20*
X167629200Y-110845600D03*
X168879200Y-110845600D03*
X170129200Y-110845600D03*
%TD*%
D15*
%TO.C,C28*%
X161545100Y-91338400D03*
X163270100Y-91338400D03*
%TD*%
D32*
%TO.C,C25*%
X154787600Y-86638300D03*
X154787600Y-88363300D03*
%TD*%
D48*
X161086800Y-107899200D03*
X160629600Y-107340400D03*
X159461200Y-107340400D03*
X159969200Y-106883200D03*
X159004000Y-106832400D03*
X159969200Y-107746800D03*
X161086800Y-106832400D03*
X159004000Y-107848400D03*
M02*
