%TF.GenerationSoftware,KiCad,Pcbnew,9.0.7+1*%
%TF.CreationDate,Date%
%TF.ProjectId,proalbmlb,70726f61-6c62-46d6-9c62-2e6b69636164,+ (Unreleased)*%
%TF.SameCoordinates,Original*%
%TF.FileFunction,Legend,Bot*%
%TF.FilePolarity,Positive*%
%FSLAX46Y46*%
G04 Gerber Fmt 4.6, Leading zero omitted, Abs format (unit mm)*
G04 Created by KiCad*
%MOMM*%
%LPD*%
G01*
G04 APERTURE LIST*
G04 Aperture macros list*
%AMRoundRect*
0 Rectangle with rounded corners*
0 $1 Rounding radius*
0 $2 $3 $4 $5 $6 $7 $8 $9 X,Y pos of 4 corners*
0 Add a 4 corners polygon primitive as box body*
4,1,4,$2,$3,$4,$5,$6,$7,$8,$9,$2,$3,0*
0 Add four circle primitives for the rounded corners*
1,1,$1+$1,$2,$3*
1,1,$1+$1,$4,$5*
1,1,$1+$1,$6,$7*
1,1,$1+$1,$8,$9*
0 Add four rect primitives between the rounded corners*
20,1,$1+$1,$2,$3,$4,$5,0*
20,1,$1+$1,$4,$5,$6,$7,0*
20,1,$1+$1,$6,$7,$8,$9,0*
20,1,$1+$1,$8,$9,$2,$3,0*%
G04 Aperture macros list end*
%ADD10C,0.170000*%
%ADD11C,4.100000*%
%ADD12RoundRect,0.050000X0.800000X-0.800000X0.800000X0.800000X-0.800000X0.800000X-0.800000X-0.800000X0*%
%ADD13C,1.700000*%
%ADD14RoundRect,0.050000X-0.850000X0.850000X-0.850000X-0.850000X0.850000X-0.850000X0.850000X0.850000X0*%
%ADD15C,3.200000*%
%ADD16C,4.800000*%
%ADD17RoundRect,0.050000X-1.400000X-1.400000X1.400000X-1.400000X1.400000X1.400000X-1.400000X1.400000X0*%
%ADD18O,1.800000X1.800000*%
%ADD19C,2.900000*%
%ADD20C,3.300000*%
%ADD21RoundRect,0.050000X0.850000X-0.850000X0.850000X0.850000X-0.850000X0.850000X-0.850000X-0.850000X0*%
%ADD22C,1.800000*%
%ADD23RoundRect,0.225000X0.475000X-0.225000X0.475000X0.225000X-0.475000X0.225000X-0.475000X-0.225000X0*%
%ADD24O,1.400000X0.900000*%
%ADD25RoundRect,0.050000X1.400000X1.400000X-1.400000X1.400000X-1.400000X-1.400000X1.400000X-1.400000X0*%
%ADD26RoundRect,0.225000X-0.225000X-0.475000X0.225000X-0.475000X0.225000X0.475000X-0.225000X0.475000X0*%
%ADD27O,0.900000X1.400000*%
G04 APERTURE END LIST*
D10*
X147800293Y-90005746D02*
X147800293Y-90843842D01*
X148219340Y-90424794D02*
X147381245Y-90424794D01*
X147800293Y-95005746D02*
X147800293Y-95843842D01*
%LPC*%
D11*
%TO.C,J1*%
X177437869Y-108918400D03*
X177437869Y-83918400D03*
D12*
X174597869Y-101958400D03*
D13*
X174597869Y-99188400D03*
X174597869Y-96418400D03*
X174597869Y-93648400D03*
X174597869Y-90878400D03*
X177437869Y-100573400D03*
X177437869Y-97803400D03*
X177437869Y-95033400D03*
X177437869Y-92263400D03*
%TD*%
D14*
%TO.C,U1*%
X122224800Y-109982000D03*
D15*
X117093800Y-108843000D03*
D16*
X117093800Y-108843000D03*
D17*
X145223716Y-95515084D03*
D15*
X117093800Y-90843000D03*
D16*
X117093800Y-90843000D03*
D18*
X124764800Y-109982000D03*
D19*
X145223716Y-90435084D03*
D18*
X127304800Y-109982000D03*
X129844800Y-109982000D03*
X132384800Y-109982000D03*
X134924800Y-109982000D03*
X137464800Y-109982000D03*
X140004800Y-109982000D03*
%TD*%
D20*
%TO.C,REF\u002A\u002A*%
X116500000Y-75900000D03*
%TD*%
D21*
%TO.C,Raspberry Pi*%
X124155200Y-74472800D03*
D18*
X124155200Y-77012800D03*
X126695200Y-74472800D03*
X126695200Y-77012800D03*
X129235200Y-74472800D03*
X129235200Y-77012800D03*
X131775200Y-74472800D03*
X131775200Y-77012800D03*
X134315200Y-74472800D03*
X134315200Y-77012800D03*
X136855200Y-74472800D03*
X136855200Y-77012800D03*
X139395200Y-74472800D03*
X139395200Y-77012800D03*
X141935200Y-74472800D03*
X141935200Y-77012800D03*
X144475200Y-74472800D03*
X144475200Y-77012800D03*
X147015200Y-74472800D03*
X147015200Y-77012800D03*
X149555200Y-74472800D03*
X149555200Y-77012800D03*
X152095200Y-74472800D03*
X152095200Y-77012800D03*
X154635200Y-74472800D03*
X154635200Y-77012800D03*
X157175200Y-74472800D03*
X157175200Y-77012800D03*
X159715200Y-74472800D03*
X159715200Y-77012800D03*
X162255200Y-74472800D03*
X162255200Y-77012800D03*
X164795200Y-74472800D03*
X164795200Y-77012800D03*
X167335200Y-74472800D03*
X167335200Y-77012800D03*
X169875200Y-74472800D03*
X169875200Y-77012800D03*
X172415200Y-74472800D03*
X172415200Y-77012800D03*
%TD*%
D21*
%TO.C,J2*%
X122224800Y-109982000D03*
D22*
X124764800Y-109982000D03*
X127304800Y-109982000D03*
X129844800Y-109982000D03*
X132384800Y-109982000D03*
X134924800Y-109982000D03*
X137464800Y-109982000D03*
X140004800Y-109982000D03*
%TD*%
D20*
%TO.C,REF\u002A\u002A*%
X116400000Y-116600000D03*
%TD*%
%TO.C,REF\u002A\u002A*%
X177400000Y-75900000D03*
%TD*%
%TO.C,REF\u002A\u002A*%
X177400000Y-116600000D03*
%TD*%
D23*
%TO.C,J4*%
X153873200Y-107178800D03*
D24*
X153873200Y-105928800D03*
X153873200Y-104678800D03*
X153873200Y-103428800D03*
%TD*%
D25*
%TO.C,J3*%
X145186400Y-95504000D03*
D19*
X145186400Y-90424000D03*
%TD*%
D26*
%TO.C,J6*%
X166379200Y-110845600D03*
D27*
X167629200Y-110845600D03*
X168879200Y-110845600D03*
X170129200Y-110845600D03*
%TD*%
%LPD*%
M02*
