M48
; DRILL file {KiCad 9.0.7+1} date 2026-07-01T17:50:30+0000
; FORMAT={-:-/ absolute / metric / decimal}
; #@! TF.CreationDate,2026-07-01T17:50:30+00:00
; #@! TF.GenerationSoftware,Kicad,Pcbnew,9.0.7+1
; #@! TF.FileFunction,Plated,1,4,PTH
FMAT,2
METRIC
; #@! TA.AperFunction,Plated,PTH,ComponentDrill
T1C0.200
; #@! TA.AperFunction,Plated,PTH,ViaDrill
T2C0.250
; #@! TA.AperFunction,Plated,PTH,ComponentDrill
T3C0.500
; #@! TA.AperFunction,Plated,PTH,ComponentDrill
T4C1.000
; #@! TA.AperFunction,Plated,PTH,ComponentDrill
T5C1.750
; #@! TA.AperFunction,Plated,PTH,ComponentDrill
T6C2.700
; #@! TA.AperFunction,Plated,PTH,ComponentDrill
T7C3.200
%
G90
G05
T1
X145.813Y-103.496
X145.813Y-104.546
X145.813Y-105.596
X146.863Y-103.496
X146.863Y-104.546
X146.863Y-105.596
X147.913Y-103.496
X147.913Y-104.546
X147.913Y-105.596
X157.131Y-84.916
X157.131Y-85.966
X157.131Y-87.016
X158.181Y-84.916
X158.181Y-85.966
X158.181Y-87.016
X159.231Y-84.916
X159.231Y-85.966
X159.231Y-87.016
X165.559Y-101.576
X165.559Y-102.626
X165.559Y-103.676
X166.609Y-101.576
X166.609Y-102.626
X166.609Y-103.676
X167.659Y-101.576
X167.659Y-102.626
X167.659Y-103.676
T2
X135.052Y-106.502
X136.144Y-107.518
X137.82Y-107.569
X138.024Y-103.175
X138.709Y-106.68
X139.344Y-101.829
X139.421Y-100.482
X139.497Y-102.565
X140.919Y-99.695
X142.6Y-105.7
X143.284Y-99.037
X143.344Y-101.019
X143.378Y-99.903
X143.942Y-103.911
X144.142Y-102.16
X147.625Y-101.092
X148.463Y-101.473
X149.301Y-96.393
X149.504Y-98.019
X149.987Y-110.465
X150.063Y-104.851
X150.317Y-108.026
X150.495Y-109.449
X150.597Y-95.174
X150.622Y-106.299
X150.8Y-99.263
X152.197Y-88.29
X152.874Y-95.626
X152.908Y-97.688
X152.959Y-96.622
X153.289Y-89.56
X153.375Y-97.199
X153.416Y-96.114
X153.873Y-96.672
X153.873Y-97.688
X153.89Y-95.626
X154.762Y-89.535
X155.982Y-94.398
X156.261Y-88.214
X156.345Y-91.686
X157.483Y-104.561
X157.582Y-89.154
X157.856Y-82.804
X158.25Y-92.033
X158.263Y-90.965
X158.623Y-110.095
X159.843Y-111.39
X160.122Y-87.579
X161.468Y-111.187
X162.713Y-109.892
X163.322Y-104.343
X163.369Y-88.674
X163.369Y-88.674
X163.373Y-102.87
X164.329Y-87.488
X166.037Y-106.155
X167.204Y-99.099
X167.411Y-98.27
X168.272Y-99.951
X169.191Y-99.99
X169.24Y-100.711
X169.638Y-101.585
X170.165Y-102.943
X170.526Y-101.644
T3
X118.333Y-85.344
X119.583Y-85.344
X133.699Y-84.326
X134.949Y-84.326
X136.199Y-84.326
X137.449Y-84.326
X138.699Y-84.326
X139.949Y-84.326
X141.199Y-84.326
X142.449Y-84.326
X153.873Y-103.429
X153.873Y-104.679
X153.873Y-105.929
X153.873Y-107.179
X166.379Y-110.846
X167.629Y-110.846
X168.879Y-110.846
X170.129Y-110.846
T4
X122.225Y-109.982
X122.225Y-109.982
X124.155Y-74.473
X124.155Y-77.013
X124.765Y-109.982
X124.765Y-109.982
X126.695Y-74.473
X126.695Y-77.013
X127.305Y-109.982
X127.305Y-109.982
X129.235Y-74.473
X129.235Y-77.013
X129.845Y-109.982
X129.845Y-109.982
X131.775Y-74.473
X131.775Y-77.013
X132.385Y-109.982
X132.385Y-109.982
X134.315Y-74.473
X134.315Y-77.013
X134.925Y-109.982
X134.925Y-109.982
X136.855Y-74.473
X136.855Y-77.013
X137.465Y-109.982
X137.465Y-109.982
X139.395Y-74.473
X139.395Y-77.013
X140.005Y-109.982
X140.005Y-109.982
X141.935Y-74.473
X141.935Y-77.013
X144.475Y-74.473
X144.475Y-77.013
X147.015Y-74.473
X147.015Y-77.013
X149.555Y-74.473
X149.555Y-77.013
X152.095Y-74.473
X152.095Y-77.013
X154.635Y-74.473
X154.635Y-77.013
X157.175Y-74.473
X157.175Y-77.013
X159.715Y-74.473
X159.715Y-77.013
X162.255Y-74.473
X162.255Y-77.013
X164.795Y-74.473
X164.795Y-77.013
X167.335Y-74.473
X167.335Y-77.013
X169.875Y-74.473
X169.875Y-77.013
X172.415Y-74.473
X172.415Y-77.013
X174.598Y-90.878
X174.598Y-93.648
X174.598Y-96.418
X174.598Y-99.188
X174.598Y-101.958
X177.438Y-92.263
X177.438Y-95.033
X177.438Y-97.803
X177.438Y-100.573
T5
X145.186Y-90.424
X145.186Y-95.504
X145.224Y-90.435
X145.224Y-95.515
T6
X117.094Y-90.843
X117.094Y-108.843
T7
X177.438Y-83.918
X177.438Y-108.918
M30
