M48
; DRILL file {KiCad 9.0.7+1} date 2026-05-07T00:29:42+0000
; FORMAT={-:-/ absolute / metric / decimal}
; #@! TF.CreationDate,2026-05-07T00:29:42+00:00
; #@! TF.GenerationSoftware,Kicad,Pcbnew,9.0.7+1
; #@! TF.FileFunction,Plated,1,2,Blind
FMAT,2
METRIC
; #@! TA.AperFunction,Plated,Buried,ViaDrill
T1C0.250
%
G90
G05
T1
X142.723Y-104.318
X143.84Y-105.537
X144.424Y-106.02
X145.059Y-107.747
X145.669Y-108.331
X150.165Y-102.819
X150.825Y-103.48
X153.43Y-85.245
X154.432Y-85.192
X156.515Y-81.89
X156.557Y-82.683
X159.004Y-106.832
X159.004Y-107.848
X159.461Y-107.34
X159.969Y-106.883
X159.969Y-107.747
X160.528Y-83.261
X160.63Y-107.34
X161.087Y-106.832
X161.087Y-107.899
X161.519Y-82.575
X162.941Y-90.373
X163.087Y-97.549
X163.117Y-99.326
X163.17Y-82.55
X163.246Y-93.853
X164.223Y-83.281
X164.313Y-91.415
X164.316Y-100.333
X164.389Y-92.939
X164.465Y-96.705
X166.772Y-90.592
X167.868Y-91.421
X169.393Y-91.407
X170.322Y-107.238
X170.355Y-90.267
X170.54Y-108.021
M30
