%TF.GenerationSoftware,KiCad,Pcbnew,9.0.7+1*%
%TF.CreationDate,Date%
%TF.ProjectId,proalbmlb,70726f61-6c62-46d6-9c62-2e6b69636164,+ (Unreleased)*%
%TF.SameCoordinates,Original*%
%TF.FileFunction,Legend,Top*%
%TF.FilePolarity,Positive*%
%FSLAX46Y46*%
G04 Gerber Fmt 4.6, Leading zero omitted, Abs format (unit mm)*
G04 Created by KiCad*
%MOMM*%
%LPD*%
G01*
G04 APERTURE LIST*
G04 Aperture macros list*
%AMRoundRect*
0 Rectangle with rounded corners*
0 $1 Rounding radius*
0 $2 $3 $4 $5 $6 $7 $8 $9 X,Y pos of 4 corners*
0 Add a 4 corners polygon primitive as box body*
4,1,4,$2,$3,$4,$5,$6,$7,$8,$9,$2,$3,0*
0 Add four circle primitives for the rounded corners*
1,1,$1+$1,$2,$3*
1,1,$1+$1,$4,$5*
1,1,$1+$1,$6,$7*
1,1,$1+$1,$8,$9*
0 Add four rect primitives between the rounded corners*
20,1,$1+$1,$2,$3,$4,$5,0*
20,1,$1+$1,$4,$5,$6,$7,0*
20,1,$1+$1,$6,$7,$8,$9,0*
20,1,$1+$1,$8,$9,$2,$3,0*%
%AMFreePoly0*
4,1,30,0.787703,0.889811,0.802348,0.854458,0.802399,-0.406398,0.787756,-0.441754,0.752401,-0.456400,0.447599,-0.456400,0.412244,-0.441755,0.397599,-0.406400,0.397599,0.356400,0.202400,0.356400,0.202400,-0.406400,0.187755,-0.441755,0.152400,-0.456400,-0.152400,-0.456400,-0.187755,-0.441755,-0.202400,-0.406400,-0.202400,0.356400,-0.397599,0.356400,-0.397599,-0.406400,-0.412244,-0.441755,
-0.447599,-0.456400,-0.752399,-0.456400,-0.787754,-0.441755,-0.802399,-0.406400,-0.802399,-0.406398,-0.802348,0.854458,-0.787702,0.889813,-0.752348,0.904456,0.752348,0.904456,0.787703,0.889811,0.787703,0.889811,$1*%
%AMFreePoly1*
4,1,31,-0.407723,0.445207,-0.393078,0.409852,-0.393078,-0.352948,-0.202400,-0.352948,-0.202400,0.406400,-0.187755,0.441755,-0.184023,0.443300,-0.183234,0.445207,-0.147879,0.459852,0.156921,0.459852,0.192276,0.445207,0.206921,0.409852,0.206921,-0.352948,0.402120,-0.352948,0.402120,0.409852,0.416765,0.445207,0.452120,0.459852,0.756920,0.459852,0.792275,0.445207,0.806920,0.409852,
0.806920,-0.852941,0.792275,-0.888296,0.756920,-0.902941,-0.747878,-0.902941,-0.783233,-0.888296,-0.797878,-0.852941,-0.797878,0.409852,-0.783233,0.445207,-0.747878,0.459852,-0.443078,0.459852,-0.407723,0.445207,-0.407723,0.445207,$1*%
%AMFreePoly2*
4,1,29,-0.412244,0.441755,-0.397599,0.406400,-0.397599,-0.356400,-0.202400,-0.356400,-0.202400,0.406400,-0.187755,0.441755,-0.152400,0.456400,0.152400,0.456400,0.187755,0.441755,0.202400,0.406400,0.202400,-0.356400,0.397599,-0.356400,0.397599,0.406400,0.412244,0.441755,0.447599,0.456400,0.752399,0.456400,0.787754,0.441755,0.802399,0.406400,0.802399,-0.856393,0.787754,-0.891748,
0.752399,-0.906393,-0.752399,-0.906393,-0.787754,-0.891748,-0.802399,-0.856393,-0.802399,0.406400,-0.787754,0.441755,-0.752399,0.456400,-0.447599,0.456400,-0.412244,0.441755,-0.412244,0.441755,$1*%
G04 Aperture macros list end*
%ADD10C,0.150000*%
%ADD11C,0.170000*%
%ADD12C,0.120000*%
%ADD13C,0.050000*%
%ADD14C,0.152400*%
%ADD15C,0.000000*%
%ADD16C,2.000000*%
%ADD17RoundRect,0.272124X0.342876X-0.342876X0.342876X0.342876X-0.342876X0.342876X-0.342876X-0.342876X0*%
%ADD18RoundRect,0.087500X0.087500X-0.400000X0.087500X0.400000X-0.087500X0.400000X-0.087500X-0.400000X0*%
%ADD19RoundRect,0.087500X0.400000X-0.087500X0.400000X0.087500X-0.400000X0.087500X-0.400000X-0.087500X0*%
%ADD20RoundRect,0.050000X1.300000X-1.300000X1.300000X1.300000X-1.300000X1.300000X-1.300000X-1.300000X0*%
%ADD21RoundRect,0.262500X-0.325000X-0.262500X0.325000X-0.262500X0.325000X0.262500X-0.325000X0.262500X0*%
%ADD22C,4.100000*%
%ADD23RoundRect,0.050000X0.800000X-0.800000X0.800000X0.800000X-0.800000X0.800000X-0.800000X-0.800000X0*%
%ADD24C,1.700000*%
%ADD25RoundRect,0.225000X-0.225000X-0.475000X0.225000X-0.475000X0.225000X0.475000X-0.225000X0.475000X0*%
%ADD26O,0.900000X1.400000*%
%ADD27RoundRect,0.050000X-0.850000X0.850000X-0.850000X-0.850000X0.850000X-0.850000X0.850000X0.850000X0*%
%ADD28C,3.200000*%
%ADD29C,4.800000*%
%ADD30RoundRect,0.050000X-1.400000X-1.400000X1.400000X-1.400000X1.400000X1.400000X-1.400000X1.400000X0*%
%ADD31O,1.800000X1.800000*%
%ADD32C,2.900000*%
%ADD33RoundRect,0.262500X0.262500X-0.325000X0.262500X0.325000X-0.262500X0.325000X-0.262500X-0.325000X0*%
%ADD34RoundRect,0.262500X0.325000X0.262500X-0.325000X0.262500X-0.325000X-0.262500X0.325000X-0.262500X0*%
%ADD35C,6.000000*%
%ADD36RoundRect,0.050000X0.850000X-0.850000X0.850000X0.850000X-0.850000X0.850000X-0.850000X-0.850000X0*%
%ADD37C,1.800000*%
%ADD38RoundRect,0.262500X-0.262500X0.325000X-0.262500X-0.325000X0.262500X-0.325000X0.262500X0.325000X0*%
%ADD39RoundRect,0.050000X-0.406400X0.152400X-0.406400X-0.152400X0.406400X-0.152400X0.406400X0.152400X0*%
%ADD40FreePoly0,180.000000*%
%ADD41FreePoly1,180.000000*%
%ADD42RoundRect,0.050000X0.330200X0.127000X-0.330200X0.127000X-0.330200X-0.127000X0.330200X-0.127000X0*%
%ADD43RoundRect,0.050000X0.952500X0.876300X-0.952500X0.876300X-0.952500X-0.876300X0.952500X-0.876300X0*%
%ADD44RoundRect,0.087500X-0.400000X-0.087500X0.400000X-0.087500X0.400000X0.087500X-0.400000X0.087500X0*%
%ADD45RoundRect,0.087500X-0.087500X-0.400000X0.087500X-0.400000X0.087500X0.400000X-0.087500X0.400000X0*%
%ADD46RoundRect,0.050000X-1.300000X-1.300000X1.300000X-1.300000X1.300000X1.300000X-1.300000X1.300000X0*%
%ADD47RoundRect,0.050000X-0.152400X-0.406400X0.152400X-0.406400X0.152400X0.406400X-0.152400X0.406400X0*%
%ADD48FreePoly0,270.000000*%
%ADD49FreePoly2,270.000000*%
%ADD50RoundRect,0.225000X0.475000X-0.225000X0.475000X0.225000X-0.475000X0.225000X-0.475000X-0.225000X0*%
%ADD51O,1.400000X0.900000*%
%ADD52RoundRect,0.050000X1.400000X1.400000X-1.400000X1.400000X-1.400000X-1.400000X1.400000X-1.400000X0*%
%ADD53RoundRect,0.050000X-0.666750X-0.215900X0.666750X-0.215900X0.666750X0.215900X-0.666750X0.215900X0*%
%ADD54C,0.650000*%
G04 APERTURE END LIST*
D10*
X153508284Y-62846009D02*
X153841617Y-62846009D01*
X153984474Y-63369819D02*
X153508284Y-63369819D01*
X153508284Y-63369819D02*
X153508284Y-62369819D01*
X153508284Y-62369819D02*
X153984474Y-62369819D01*
X154413046Y-62703152D02*
X154413046Y-63369819D01*
X154413046Y-62798390D02*
X154460665Y-62750771D01*
X154460665Y-62750771D02*
X154555903Y-62703152D01*
X154555903Y-62703152D02*
X154698760Y-62703152D01*
X154698760Y-62703152D02*
X154793998Y-62750771D01*
X154793998Y-62750771D02*
X154841617Y-62846009D01*
X154841617Y-62846009D02*
X154841617Y-63369819D01*
X155746379Y-62703152D02*
X155746379Y-63512676D01*
X155746379Y-63512676D02*
X155698760Y-63607914D01*
X155698760Y-63607914D02*
X155651141Y-63655533D01*
X155651141Y-63655533D02*
X155555903Y-63703152D01*
X155555903Y-63703152D02*
X155413046Y-63703152D01*
X155413046Y-63703152D02*
X155317808Y-63655533D01*
X155746379Y-63322200D02*
X155651141Y-63369819D01*
X155651141Y-63369819D02*
X155460665Y-63369819D01*
X155460665Y-63369819D02*
X155365427Y-63322200D01*
X155365427Y-63322200D02*
X155317808Y-63274580D01*
X155317808Y-63274580D02*
X155270189Y-63179342D01*
X155270189Y-63179342D02*
X155270189Y-62893628D01*
X155270189Y-62893628D02*
X155317808Y-62798390D01*
X155317808Y-62798390D02*
X155365427Y-62750771D01*
X155365427Y-62750771D02*
X155460665Y-62703152D01*
X155460665Y-62703152D02*
X155651141Y-62703152D01*
X155651141Y-62703152D02*
X155746379Y-62750771D01*
X156222570Y-63369819D02*
X156222570Y-62703152D01*
X156222570Y-62369819D02*
X156174951Y-62417438D01*
X156174951Y-62417438D02*
X156222570Y-62465057D01*
X156222570Y-62465057D02*
X156270189Y-62417438D01*
X156270189Y-62417438D02*
X156222570Y-62369819D01*
X156222570Y-62369819D02*
X156222570Y-62465057D01*
X156698760Y-62703152D02*
X156698760Y-63369819D01*
X156698760Y-62798390D02*
X156746379Y-62750771D01*
X156746379Y-62750771D02*
X156841617Y-62703152D01*
X156841617Y-62703152D02*
X156984474Y-62703152D01*
X156984474Y-62703152D02*
X157079712Y-62750771D01*
X157079712Y-62750771D02*
X157127331Y-62846009D01*
X157127331Y-62846009D02*
X157127331Y-63369819D01*
X157984474Y-63322200D02*
X157889236Y-63369819D01*
X157889236Y-63369819D02*
X157698760Y-63369819D01*
X157698760Y-63369819D02*
X157603522Y-63322200D01*
X157603522Y-63322200D02*
X157555903Y-63226961D01*
X157555903Y-63226961D02*
X157555903Y-62846009D01*
X157555903Y-62846009D02*
X157603522Y-62750771D01*
X157603522Y-62750771D02*
X157698760Y-62703152D01*
X157698760Y-62703152D02*
X157889236Y-62703152D01*
X157889236Y-62703152D02*
X157984474Y-62750771D01*
X157984474Y-62750771D02*
X158032093Y-62846009D01*
X158032093Y-62846009D02*
X158032093Y-62941247D01*
X158032093Y-62941247D02*
X157555903Y-63036485D01*
X158841617Y-63322200D02*
X158746379Y-63369819D01*
X158746379Y-63369819D02*
X158555903Y-63369819D01*
X158555903Y-63369819D02*
X158460665Y-63322200D01*
X158460665Y-63322200D02*
X158413046Y-63226961D01*
X158413046Y-63226961D02*
X158413046Y-62846009D01*
X158413046Y-62846009D02*
X158460665Y-62750771D01*
X158460665Y-62750771D02*
X158555903Y-62703152D01*
X158555903Y-62703152D02*
X158746379Y-62703152D01*
X158746379Y-62703152D02*
X158841617Y-62750771D01*
X158841617Y-62750771D02*
X158889236Y-62846009D01*
X158889236Y-62846009D02*
X158889236Y-62941247D01*
X158889236Y-62941247D02*
X158413046Y-63036485D01*
X159317808Y-63369819D02*
X159317808Y-62703152D01*
X159317808Y-62893628D02*
X159365427Y-62798390D01*
X159365427Y-62798390D02*
X159413046Y-62750771D01*
X159413046Y-62750771D02*
X159508284Y-62703152D01*
X159508284Y-62703152D02*
X159603522Y-62703152D01*
X159936856Y-63369819D02*
X159936856Y-62703152D01*
X159936856Y-62369819D02*
X159889237Y-62417438D01*
X159889237Y-62417438D02*
X159936856Y-62465057D01*
X159936856Y-62465057D02*
X159984475Y-62417438D01*
X159984475Y-62417438D02*
X159936856Y-62369819D01*
X159936856Y-62369819D02*
X159936856Y-62465057D01*
X160413046Y-62703152D02*
X160413046Y-63369819D01*
X160413046Y-62798390D02*
X160460665Y-62750771D01*
X160460665Y-62750771D02*
X160555903Y-62703152D01*
X160555903Y-62703152D02*
X160698760Y-62703152D01*
X160698760Y-62703152D02*
X160793998Y-62750771D01*
X160793998Y-62750771D02*
X160841617Y-62846009D01*
X160841617Y-62846009D02*
X160841617Y-63369819D01*
X161746379Y-62703152D02*
X161746379Y-63512676D01*
X161746379Y-63512676D02*
X161698760Y-63607914D01*
X161698760Y-63607914D02*
X161651141Y-63655533D01*
X161651141Y-63655533D02*
X161555903Y-63703152D01*
X161555903Y-63703152D02*
X161413046Y-63703152D01*
X161413046Y-63703152D02*
X161317808Y-63655533D01*
X161746379Y-63322200D02*
X161651141Y-63369819D01*
X161651141Y-63369819D02*
X161460665Y-63369819D01*
X161460665Y-63369819D02*
X161365427Y-63322200D01*
X161365427Y-63322200D02*
X161317808Y-63274580D01*
X161317808Y-63274580D02*
X161270189Y-63179342D01*
X161270189Y-63179342D02*
X161270189Y-62893628D01*
X161270189Y-62893628D02*
X161317808Y-62798390D01*
X161317808Y-62798390D02*
X161365427Y-62750771D01*
X161365427Y-62750771D02*
X161460665Y-62703152D01*
X161460665Y-62703152D02*
X161651141Y-62703152D01*
X161651141Y-62703152D02*
X161746379Y-62750771D01*
X162936856Y-63322200D02*
X163079713Y-63369819D01*
X163079713Y-63369819D02*
X163317808Y-63369819D01*
X163317808Y-63369819D02*
X163413046Y-63322200D01*
X163413046Y-63322200D02*
X163460665Y-63274580D01*
X163460665Y-63274580D02*
X163508284Y-63179342D01*
X163508284Y-63179342D02*
X163508284Y-63084104D01*
X163508284Y-63084104D02*
X163460665Y-62988866D01*
X163460665Y-62988866D02*
X163413046Y-62941247D01*
X163413046Y-62941247D02*
X163317808Y-62893628D01*
X163317808Y-62893628D02*
X163127332Y-62846009D01*
X163127332Y-62846009D02*
X163032094Y-62798390D01*
X163032094Y-62798390D02*
X162984475Y-62750771D01*
X162984475Y-62750771D02*
X162936856Y-62655533D01*
X162936856Y-62655533D02*
X162936856Y-62560295D01*
X162936856Y-62560295D02*
X162984475Y-62465057D01*
X162984475Y-62465057D02*
X163032094Y-62417438D01*
X163032094Y-62417438D02*
X163127332Y-62369819D01*
X163127332Y-62369819D02*
X163365427Y-62369819D01*
X163365427Y-62369819D02*
X163508284Y-62417438D01*
X164365427Y-63369819D02*
X164365427Y-62846009D01*
X164365427Y-62846009D02*
X164317808Y-62750771D01*
X164317808Y-62750771D02*
X164222570Y-62703152D01*
X164222570Y-62703152D02*
X164032094Y-62703152D01*
X164032094Y-62703152D02*
X163936856Y-62750771D01*
X164365427Y-63322200D02*
X164270189Y-63369819D01*
X164270189Y-63369819D02*
X164032094Y-63369819D01*
X164032094Y-63369819D02*
X163936856Y-63322200D01*
X163936856Y-63322200D02*
X163889237Y-63226961D01*
X163889237Y-63226961D02*
X163889237Y-63131723D01*
X163889237Y-63131723D02*
X163936856Y-63036485D01*
X163936856Y-63036485D02*
X164032094Y-62988866D01*
X164032094Y-62988866D02*
X164270189Y-62988866D01*
X164270189Y-62988866D02*
X164365427Y-62941247D01*
X164841618Y-63369819D02*
X164841618Y-62703152D01*
X164841618Y-62798390D02*
X164889237Y-62750771D01*
X164889237Y-62750771D02*
X164984475Y-62703152D01*
X164984475Y-62703152D02*
X165127332Y-62703152D01*
X165127332Y-62703152D02*
X165222570Y-62750771D01*
X165222570Y-62750771D02*
X165270189Y-62846009D01*
X165270189Y-62846009D02*
X165270189Y-63369819D01*
X165270189Y-62846009D02*
X165317808Y-62750771D01*
X165317808Y-62750771D02*
X165413046Y-62703152D01*
X165413046Y-62703152D02*
X165555903Y-62703152D01*
X165555903Y-62703152D02*
X165651142Y-62750771D01*
X165651142Y-62750771D02*
X165698761Y-62846009D01*
X165698761Y-62846009D02*
X165698761Y-63369819D01*
X166174951Y-62703152D02*
X166174951Y-63703152D01*
X166174951Y-62750771D02*
X166270189Y-62703152D01*
X166270189Y-62703152D02*
X166460665Y-62703152D01*
X166460665Y-62703152D02*
X166555903Y-62750771D01*
X166555903Y-62750771D02*
X166603522Y-62798390D01*
X166603522Y-62798390D02*
X166651141Y-62893628D01*
X166651141Y-62893628D02*
X166651141Y-63179342D01*
X166651141Y-63179342D02*
X166603522Y-63274580D01*
X166603522Y-63274580D02*
X166555903Y-63322200D01*
X166555903Y-63322200D02*
X166460665Y-63369819D01*
X166460665Y-63369819D02*
X166270189Y-63369819D01*
X166270189Y-63369819D02*
X166174951Y-63322200D01*
X167222570Y-63369819D02*
X167127332Y-63322200D01*
X167127332Y-63322200D02*
X167079713Y-63226961D01*
X167079713Y-63226961D02*
X167079713Y-62369819D01*
X167984475Y-63322200D02*
X167889237Y-63369819D01*
X167889237Y-63369819D02*
X167698761Y-63369819D01*
X167698761Y-63369819D02*
X167603523Y-63322200D01*
X167603523Y-63322200D02*
X167555904Y-63226961D01*
X167555904Y-63226961D02*
X167555904Y-62846009D01*
X167555904Y-62846009D02*
X167603523Y-62750771D01*
X167603523Y-62750771D02*
X167698761Y-62703152D01*
X167698761Y-62703152D02*
X167889237Y-62703152D01*
X167889237Y-62703152D02*
X167984475Y-62750771D01*
X167984475Y-62750771D02*
X168032094Y-62846009D01*
X168032094Y-62846009D02*
X168032094Y-62941247D01*
X168032094Y-62941247D02*
X167555904Y-63036485D01*
X114680953Y-114888152D02*
X115061905Y-114888152D01*
X114823810Y-115554819D02*
X114823810Y-114697676D01*
X114823810Y-114697676D02*
X114871429Y-114602438D01*
X114871429Y-114602438D02*
X114966667Y-114554819D01*
X114966667Y-114554819D02*
X115061905Y-114554819D01*
X115395239Y-115554819D02*
X115395239Y-114888152D01*
X115395239Y-114554819D02*
X115347620Y-114602438D01*
X115347620Y-114602438D02*
X115395239Y-114650057D01*
X115395239Y-114650057D02*
X115442858Y-114602438D01*
X115442858Y-114602438D02*
X115395239Y-114554819D01*
X115395239Y-114554819D02*
X115395239Y-114650057D01*
X116300000Y-115554819D02*
X116300000Y-114554819D01*
X116300000Y-115507200D02*
X116204762Y-115554819D01*
X116204762Y-115554819D02*
X116014286Y-115554819D01*
X116014286Y-115554819D02*
X115919048Y-115507200D01*
X115919048Y-115507200D02*
X115871429Y-115459580D01*
X115871429Y-115459580D02*
X115823810Y-115364342D01*
X115823810Y-115364342D02*
X115823810Y-115078628D01*
X115823810Y-115078628D02*
X115871429Y-114983390D01*
X115871429Y-114983390D02*
X115919048Y-114935771D01*
X115919048Y-114935771D02*
X116014286Y-114888152D01*
X116014286Y-114888152D02*
X116204762Y-114888152D01*
X116204762Y-114888152D02*
X116300000Y-114935771D01*
X116776191Y-115459580D02*
X116823810Y-115507200D01*
X116823810Y-115507200D02*
X116776191Y-115554819D01*
X116776191Y-115554819D02*
X116728572Y-115507200D01*
X116728572Y-115507200D02*
X116776191Y-115459580D01*
X116776191Y-115459580D02*
X116776191Y-115554819D01*
X117823809Y-115459580D02*
X117776190Y-115507200D01*
X117776190Y-115507200D02*
X117633333Y-115554819D01*
X117633333Y-115554819D02*
X117538095Y-115554819D01*
X117538095Y-115554819D02*
X117395238Y-115507200D01*
X117395238Y-115507200D02*
X117300000Y-115411961D01*
X117300000Y-115411961D02*
X117252381Y-115316723D01*
X117252381Y-115316723D02*
X117204762Y-115126247D01*
X117204762Y-115126247D02*
X117204762Y-114983390D01*
X117204762Y-114983390D02*
X117252381Y-114792914D01*
X117252381Y-114792914D02*
X117300000Y-114697676D01*
X117300000Y-114697676D02*
X117395238Y-114602438D01*
X117395238Y-114602438D02*
X117538095Y-114554819D01*
X117538095Y-114554819D02*
X117633333Y-114554819D01*
X117633333Y-114554819D02*
X117776190Y-114602438D01*
X117776190Y-114602438D02*
X117823809Y-114650057D01*
X149703053Y-103014077D02*
X150512576Y-103014077D01*
X150512576Y-103014077D02*
X150607814Y-102966458D01*
X150607814Y-102966458D02*
X150655434Y-102918839D01*
X150655434Y-102918839D02*
X150703053Y-102823601D01*
X150703053Y-102823601D02*
X150703053Y-102633125D01*
X150703053Y-102633125D02*
X150655434Y-102537887D01*
X150655434Y-102537887D02*
X150607814Y-102490268D01*
X150607814Y-102490268D02*
X150512576Y-102442649D01*
X150512576Y-102442649D02*
X149703053Y-102442649D01*
X150703053Y-101442649D02*
X150703053Y-102014077D01*
X150703053Y-101728363D02*
X149703053Y-101728363D01*
X149703053Y-101728363D02*
X149845910Y-101823601D01*
X149845910Y-101823601D02*
X149941148Y-101918839D01*
X149941148Y-101918839D02*
X149988767Y-102014077D01*
X149798291Y-101061696D02*
X149750672Y-101014077D01*
X149750672Y-101014077D02*
X149703053Y-100918839D01*
X149703053Y-100918839D02*
X149703053Y-100680744D01*
X149703053Y-100680744D02*
X149750672Y-100585506D01*
X149750672Y-100585506D02*
X149798291Y-100537887D01*
X149798291Y-100537887D02*
X149893529Y-100490268D01*
X149893529Y-100490268D02*
X149988767Y-100490268D01*
X149988767Y-100490268D02*
X150131624Y-100537887D01*
X150131624Y-100537887D02*
X150703053Y-101109315D01*
X150703053Y-101109315D02*
X150703053Y-100490268D01*
X114880953Y-44838152D02*
X115261905Y-44838152D01*
X115023810Y-45504819D02*
X115023810Y-44647676D01*
X115023810Y-44647676D02*
X115071429Y-44552438D01*
X115071429Y-44552438D02*
X115166667Y-44504819D01*
X115166667Y-44504819D02*
X115261905Y-44504819D01*
X115595239Y-45504819D02*
X115595239Y-44838152D01*
X115595239Y-44504819D02*
X115547620Y-44552438D01*
X115547620Y-44552438D02*
X115595239Y-44600057D01*
X115595239Y-44600057D02*
X115642858Y-44552438D01*
X115642858Y-44552438D02*
X115595239Y-44504819D01*
X115595239Y-44504819D02*
X115595239Y-44600057D01*
X116500000Y-45504819D02*
X116500000Y-44504819D01*
X116500000Y-45457200D02*
X116404762Y-45504819D01*
X116404762Y-45504819D02*
X116214286Y-45504819D01*
X116214286Y-45504819D02*
X116119048Y-45457200D01*
X116119048Y-45457200D02*
X116071429Y-45409580D01*
X116071429Y-45409580D02*
X116023810Y-45314342D01*
X116023810Y-45314342D02*
X116023810Y-45028628D01*
X116023810Y-45028628D02*
X116071429Y-44933390D01*
X116071429Y-44933390D02*
X116119048Y-44885771D01*
X116119048Y-44885771D02*
X116214286Y-44838152D01*
X116214286Y-44838152D02*
X116404762Y-44838152D01*
X116404762Y-44838152D02*
X116500000Y-44885771D01*
X116976191Y-45409580D02*
X117023810Y-45457200D01*
X117023810Y-45457200D02*
X116976191Y-45504819D01*
X116976191Y-45504819D02*
X116928572Y-45457200D01*
X116928572Y-45457200D02*
X116976191Y-45409580D01*
X116976191Y-45409580D02*
X116976191Y-45504819D01*
X117785714Y-44981009D02*
X117928571Y-45028628D01*
X117928571Y-45028628D02*
X117976190Y-45076247D01*
X117976190Y-45076247D02*
X118023809Y-45171485D01*
X118023809Y-45171485D02*
X118023809Y-45314342D01*
X118023809Y-45314342D02*
X117976190Y-45409580D01*
X117976190Y-45409580D02*
X117928571Y-45457200D01*
X117928571Y-45457200D02*
X117833333Y-45504819D01*
X117833333Y-45504819D02*
X117452381Y-45504819D01*
X117452381Y-45504819D02*
X117452381Y-44504819D01*
X117452381Y-44504819D02*
X117785714Y-44504819D01*
X117785714Y-44504819D02*
X117880952Y-44552438D01*
X117880952Y-44552438D02*
X117928571Y-44600057D01*
X117928571Y-44600057D02*
X117976190Y-44695295D01*
X117976190Y-44695295D02*
X117976190Y-44790533D01*
X117976190Y-44790533D02*
X117928571Y-44885771D01*
X117928571Y-44885771D02*
X117880952Y-44933390D01*
X117880952Y-44933390D02*
X117785714Y-44981009D01*
X117785714Y-44981009D02*
X117452381Y-44981009D01*
X138568133Y-100841980D02*
X138520514Y-100889600D01*
X138520514Y-100889600D02*
X138377657Y-100937219D01*
X138377657Y-100937219D02*
X138282419Y-100937219D01*
X138282419Y-100937219D02*
X138139562Y-100889600D01*
X138139562Y-100889600D02*
X138044324Y-100794361D01*
X138044324Y-100794361D02*
X137996705Y-100699123D01*
X137996705Y-100699123D02*
X137949086Y-100508647D01*
X137949086Y-100508647D02*
X137949086Y-100365790D01*
X137949086Y-100365790D02*
X137996705Y-100175314D01*
X137996705Y-100175314D02*
X138044324Y-100080076D01*
X138044324Y-100080076D02*
X138139562Y-99984838D01*
X138139562Y-99984838D02*
X138282419Y-99937219D01*
X138282419Y-99937219D02*
X138377657Y-99937219D01*
X138377657Y-99937219D02*
X138520514Y-99984838D01*
X138520514Y-99984838D02*
X138568133Y-100032457D01*
X138949086Y-100032457D02*
X138996705Y-99984838D01*
X138996705Y-99984838D02*
X139091943Y-99937219D01*
X139091943Y-99937219D02*
X139330038Y-99937219D01*
X139330038Y-99937219D02*
X139425276Y-99984838D01*
X139425276Y-99984838D02*
X139472895Y-100032457D01*
X139472895Y-100032457D02*
X139520514Y-100127695D01*
X139520514Y-100127695D02*
X139520514Y-100222933D01*
X139520514Y-100222933D02*
X139472895Y-100365790D01*
X139472895Y-100365790D02*
X138901467Y-100937219D01*
X138901467Y-100937219D02*
X139520514Y-100937219D01*
X158740893Y-92990459D02*
X158693274Y-93038079D01*
X158693274Y-93038079D02*
X158550417Y-93085698D01*
X158550417Y-93085698D02*
X158455179Y-93085698D01*
X158455179Y-93085698D02*
X158312322Y-93038079D01*
X158312322Y-93038079D02*
X158217084Y-92942840D01*
X158217084Y-92942840D02*
X158169465Y-92847602D01*
X158169465Y-92847602D02*
X158121846Y-92657126D01*
X158121846Y-92657126D02*
X158121846Y-92514269D01*
X158121846Y-92514269D02*
X158169465Y-92323793D01*
X158169465Y-92323793D02*
X158217084Y-92228555D01*
X158217084Y-92228555D02*
X158312322Y-92133317D01*
X158312322Y-92133317D02*
X158455179Y-92085698D01*
X158455179Y-92085698D02*
X158550417Y-92085698D01*
X158550417Y-92085698D02*
X158693274Y-92133317D01*
X158693274Y-92133317D02*
X158740893Y-92180936D01*
X159121846Y-92180936D02*
X159169465Y-92133317D01*
X159169465Y-92133317D02*
X159264703Y-92085698D01*
X159264703Y-92085698D02*
X159502798Y-92085698D01*
X159502798Y-92085698D02*
X159598036Y-92133317D01*
X159598036Y-92133317D02*
X159645655Y-92180936D01*
X159645655Y-92180936D02*
X159693274Y-92276174D01*
X159693274Y-92276174D02*
X159693274Y-92371412D01*
X159693274Y-92371412D02*
X159645655Y-92514269D01*
X159645655Y-92514269D02*
X159074227Y-93085698D01*
X159074227Y-93085698D02*
X159693274Y-93085698D01*
X160169465Y-93085698D02*
X160359941Y-93085698D01*
X160359941Y-93085698D02*
X160455179Y-93038079D01*
X160455179Y-93038079D02*
X160502798Y-92990459D01*
X160502798Y-92990459D02*
X160598036Y-92847602D01*
X160598036Y-92847602D02*
X160645655Y-92657126D01*
X160645655Y-92657126D02*
X160645655Y-92276174D01*
X160645655Y-92276174D02*
X160598036Y-92180936D01*
X160598036Y-92180936D02*
X160550417Y-92133317D01*
X160550417Y-92133317D02*
X160455179Y-92085698D01*
X160455179Y-92085698D02*
X160264703Y-92085698D01*
X160264703Y-92085698D02*
X160169465Y-92133317D01*
X160169465Y-92133317D02*
X160121846Y-92180936D01*
X160121846Y-92180936D02*
X160074227Y-92276174D01*
X160074227Y-92276174D02*
X160074227Y-92514269D01*
X160074227Y-92514269D02*
X160121846Y-92609507D01*
X160121846Y-92609507D02*
X160169465Y-92657126D01*
X160169465Y-92657126D02*
X160264703Y-92704745D01*
X160264703Y-92704745D02*
X160455179Y-92704745D01*
X160455179Y-92704745D02*
X160550417Y-92657126D01*
X160550417Y-92657126D02*
X160598036Y-92609507D01*
X160598036Y-92609507D02*
X160645655Y-92514269D01*
X138385465Y-102239868D02*
X138337846Y-102287488D01*
X138337846Y-102287488D02*
X138194989Y-102335107D01*
X138194989Y-102335107D02*
X138099751Y-102335107D01*
X138099751Y-102335107D02*
X137956894Y-102287488D01*
X137956894Y-102287488D02*
X137861656Y-102192249D01*
X137861656Y-102192249D02*
X137814037Y-102097011D01*
X137814037Y-102097011D02*
X137766418Y-101906535D01*
X137766418Y-101906535D02*
X137766418Y-101763678D01*
X137766418Y-101763678D02*
X137814037Y-101573202D01*
X137814037Y-101573202D02*
X137861656Y-101477964D01*
X137861656Y-101477964D02*
X137956894Y-101382726D01*
X137956894Y-101382726D02*
X138099751Y-101335107D01*
X138099751Y-101335107D02*
X138194989Y-101335107D01*
X138194989Y-101335107D02*
X138337846Y-101382726D01*
X138337846Y-101382726D02*
X138385465Y-101430345D01*
X139337846Y-102335107D02*
X138766418Y-102335107D01*
X139052132Y-102335107D02*
X139052132Y-101335107D01*
X139052132Y-101335107D02*
X138956894Y-101477964D01*
X138956894Y-101477964D02*
X138861656Y-101573202D01*
X138861656Y-101573202D02*
X138766418Y-101620821D01*
X180658419Y-95786533D02*
X181372704Y-95786533D01*
X181372704Y-95786533D02*
X181515561Y-95834152D01*
X181515561Y-95834152D02*
X181610800Y-95929390D01*
X181610800Y-95929390D02*
X181658419Y-96072247D01*
X181658419Y-96072247D02*
X181658419Y-96167485D01*
X181658419Y-94786533D02*
X181658419Y-95357961D01*
X181658419Y-95072247D02*
X180658419Y-95072247D01*
X180658419Y-95072247D02*
X180801276Y-95167485D01*
X180801276Y-95167485D02*
X180896514Y-95262723D01*
X180896514Y-95262723D02*
X180944133Y-95357961D01*
X118619866Y-81538819D02*
X118619866Y-82253104D01*
X118619866Y-82253104D02*
X118572247Y-82395961D01*
X118572247Y-82395961D02*
X118477009Y-82491200D01*
X118477009Y-82491200D02*
X118334152Y-82538819D01*
X118334152Y-82538819D02*
X118238914Y-82538819D01*
X119238914Y-81967390D02*
X119143676Y-81919771D01*
X119143676Y-81919771D02*
X119096057Y-81872152D01*
X119096057Y-81872152D02*
X119048438Y-81776914D01*
X119048438Y-81776914D02*
X119048438Y-81729295D01*
X119048438Y-81729295D02*
X119096057Y-81634057D01*
X119096057Y-81634057D02*
X119143676Y-81586438D01*
X119143676Y-81586438D02*
X119238914Y-81538819D01*
X119238914Y-81538819D02*
X119429390Y-81538819D01*
X119429390Y-81538819D02*
X119524628Y-81586438D01*
X119524628Y-81586438D02*
X119572247Y-81634057D01*
X119572247Y-81634057D02*
X119619866Y-81729295D01*
X119619866Y-81729295D02*
X119619866Y-81776914D01*
X119619866Y-81776914D02*
X119572247Y-81872152D01*
X119572247Y-81872152D02*
X119524628Y-81919771D01*
X119524628Y-81919771D02*
X119429390Y-81967390D01*
X119429390Y-81967390D02*
X119238914Y-81967390D01*
X119238914Y-81967390D02*
X119143676Y-82015009D01*
X119143676Y-82015009D02*
X119096057Y-82062628D01*
X119096057Y-82062628D02*
X119048438Y-82157866D01*
X119048438Y-82157866D02*
X119048438Y-82348342D01*
X119048438Y-82348342D02*
X119096057Y-82443580D01*
X119096057Y-82443580D02*
X119143676Y-82491200D01*
X119143676Y-82491200D02*
X119238914Y-82538819D01*
X119238914Y-82538819D02*
X119429390Y-82538819D01*
X119429390Y-82538819D02*
X119524628Y-82491200D01*
X119524628Y-82491200D02*
X119572247Y-82443580D01*
X119572247Y-82443580D02*
X119619866Y-82348342D01*
X119619866Y-82348342D02*
X119619866Y-82157866D01*
X119619866Y-82157866D02*
X119572247Y-82062628D01*
X119572247Y-82062628D02*
X119524628Y-82015009D01*
X119524628Y-82015009D02*
X119429390Y-81967390D01*
D11*
X148400293Y-90758253D02*
X148400293Y-89920158D01*
X148819340Y-90339205D02*
X147981245Y-90339205D01*
X148400293Y-95758253D02*
X148400293Y-94920158D01*
D10*
X150692401Y-94960507D02*
X150740021Y-95008126D01*
X150740021Y-95008126D02*
X150787640Y-95150983D01*
X150787640Y-95150983D02*
X150787640Y-95246221D01*
X150787640Y-95246221D02*
X150740021Y-95389078D01*
X150740021Y-95389078D02*
X150644782Y-95484316D01*
X150644782Y-95484316D02*
X150549544Y-95531935D01*
X150549544Y-95531935D02*
X150359068Y-95579554D01*
X150359068Y-95579554D02*
X150216211Y-95579554D01*
X150216211Y-95579554D02*
X150025735Y-95531935D01*
X150025735Y-95531935D02*
X149930497Y-95484316D01*
X149930497Y-95484316D02*
X149835259Y-95389078D01*
X149835259Y-95389078D02*
X149787640Y-95246221D01*
X149787640Y-95246221D02*
X149787640Y-95150983D01*
X149787640Y-95150983D02*
X149835259Y-95008126D01*
X149835259Y-95008126D02*
X149882878Y-94960507D01*
X149882878Y-94579554D02*
X149835259Y-94531935D01*
X149835259Y-94531935D02*
X149787640Y-94436697D01*
X149787640Y-94436697D02*
X149787640Y-94198602D01*
X149787640Y-94198602D02*
X149835259Y-94103364D01*
X149835259Y-94103364D02*
X149882878Y-94055745D01*
X149882878Y-94055745D02*
X149978116Y-94008126D01*
X149978116Y-94008126D02*
X150073354Y-94008126D01*
X150073354Y-94008126D02*
X150216211Y-94055745D01*
X150216211Y-94055745D02*
X150787640Y-94627173D01*
X150787640Y-94627173D02*
X150787640Y-94008126D01*
X149787640Y-93674792D02*
X149787640Y-93055745D01*
X149787640Y-93055745D02*
X150168592Y-93389078D01*
X150168592Y-93389078D02*
X150168592Y-93246221D01*
X150168592Y-93246221D02*
X150216211Y-93150983D01*
X150216211Y-93150983D02*
X150263830Y-93103364D01*
X150263830Y-93103364D02*
X150359068Y-93055745D01*
X150359068Y-93055745D02*
X150597163Y-93055745D01*
X150597163Y-93055745D02*
X150692401Y-93103364D01*
X150692401Y-93103364D02*
X150740021Y-93150983D01*
X150740021Y-93150983D02*
X150787640Y-93246221D01*
X150787640Y-93246221D02*
X150787640Y-93531935D01*
X150787640Y-93531935D02*
X150740021Y-93627173D01*
X150740021Y-93627173D02*
X150692401Y-93674792D01*
X159815265Y-111958224D02*
X159767646Y-112005844D01*
X159767646Y-112005844D02*
X159624789Y-112053463D01*
X159624789Y-112053463D02*
X159529551Y-112053463D01*
X159529551Y-112053463D02*
X159386694Y-112005844D01*
X159386694Y-112005844D02*
X159291456Y-111910605D01*
X159291456Y-111910605D02*
X159243837Y-111815367D01*
X159243837Y-111815367D02*
X159196218Y-111624891D01*
X159196218Y-111624891D02*
X159196218Y-111482034D01*
X159196218Y-111482034D02*
X159243837Y-111291558D01*
X159243837Y-111291558D02*
X159291456Y-111196320D01*
X159291456Y-111196320D02*
X159386694Y-111101082D01*
X159386694Y-111101082D02*
X159529551Y-111053463D01*
X159529551Y-111053463D02*
X159624789Y-111053463D01*
X159624789Y-111053463D02*
X159767646Y-111101082D01*
X159767646Y-111101082D02*
X159815265Y-111148701D01*
X160767646Y-112053463D02*
X160196218Y-112053463D01*
X160481932Y-112053463D02*
X160481932Y-111053463D01*
X160481932Y-111053463D02*
X160386694Y-111196320D01*
X160386694Y-111196320D02*
X160291456Y-111291558D01*
X160291456Y-111291558D02*
X160196218Y-111339177D01*
X161339075Y-111482034D02*
X161243837Y-111434415D01*
X161243837Y-111434415D02*
X161196218Y-111386796D01*
X161196218Y-111386796D02*
X161148599Y-111291558D01*
X161148599Y-111291558D02*
X161148599Y-111243939D01*
X161148599Y-111243939D02*
X161196218Y-111148701D01*
X161196218Y-111148701D02*
X161243837Y-111101082D01*
X161243837Y-111101082D02*
X161339075Y-111053463D01*
X161339075Y-111053463D02*
X161529551Y-111053463D01*
X161529551Y-111053463D02*
X161624789Y-111101082D01*
X161624789Y-111101082D02*
X161672408Y-111148701D01*
X161672408Y-111148701D02*
X161720027Y-111243939D01*
X161720027Y-111243939D02*
X161720027Y-111291558D01*
X161720027Y-111291558D02*
X161672408Y-111386796D01*
X161672408Y-111386796D02*
X161624789Y-111434415D01*
X161624789Y-111434415D02*
X161529551Y-111482034D01*
X161529551Y-111482034D02*
X161339075Y-111482034D01*
X161339075Y-111482034D02*
X161243837Y-111529653D01*
X161243837Y-111529653D02*
X161196218Y-111577272D01*
X161196218Y-111577272D02*
X161148599Y-111672510D01*
X161148599Y-111672510D02*
X161148599Y-111862986D01*
X161148599Y-111862986D02*
X161196218Y-111958224D01*
X161196218Y-111958224D02*
X161243837Y-112005844D01*
X161243837Y-112005844D02*
X161339075Y-112053463D01*
X161339075Y-112053463D02*
X161529551Y-112053463D01*
X161529551Y-112053463D02*
X161624789Y-112005844D01*
X161624789Y-112005844D02*
X161672408Y-111958224D01*
X161672408Y-111958224D02*
X161720027Y-111862986D01*
X161720027Y-111862986D02*
X161720027Y-111672510D01*
X161720027Y-111672510D02*
X161672408Y-111577272D01*
X161672408Y-111577272D02*
X161624789Y-111529653D01*
X161624789Y-111529653D02*
X161529551Y-111482034D01*
X144645142Y-108411180D02*
X144597523Y-108458800D01*
X144597523Y-108458800D02*
X144454666Y-108506419D01*
X144454666Y-108506419D02*
X144359428Y-108506419D01*
X144359428Y-108506419D02*
X144216571Y-108458800D01*
X144216571Y-108458800D02*
X144121333Y-108363561D01*
X144121333Y-108363561D02*
X144073714Y-108268323D01*
X144073714Y-108268323D02*
X144026095Y-108077847D01*
X144026095Y-108077847D02*
X144026095Y-107934990D01*
X144026095Y-107934990D02*
X144073714Y-107744514D01*
X144073714Y-107744514D02*
X144121333Y-107649276D01*
X144121333Y-107649276D02*
X144216571Y-107554038D01*
X144216571Y-107554038D02*
X144359428Y-107506419D01*
X144359428Y-107506419D02*
X144454666Y-107506419D01*
X144454666Y-107506419D02*
X144597523Y-107554038D01*
X144597523Y-107554038D02*
X144645142Y-107601657D01*
X144978476Y-107506419D02*
X145597523Y-107506419D01*
X145597523Y-107506419D02*
X145264190Y-107887371D01*
X145264190Y-107887371D02*
X145407047Y-107887371D01*
X145407047Y-107887371D02*
X145502285Y-107934990D01*
X145502285Y-107934990D02*
X145549904Y-107982609D01*
X145549904Y-107982609D02*
X145597523Y-108077847D01*
X145597523Y-108077847D02*
X145597523Y-108315942D01*
X145597523Y-108315942D02*
X145549904Y-108411180D01*
X145549904Y-108411180D02*
X145502285Y-108458800D01*
X145502285Y-108458800D02*
X145407047Y-108506419D01*
X145407047Y-108506419D02*
X145121333Y-108506419D01*
X145121333Y-108506419D02*
X145026095Y-108458800D01*
X145026095Y-108458800D02*
X144978476Y-108411180D01*
X146454666Y-107839752D02*
X146454666Y-108506419D01*
X146216571Y-107458800D02*
X145978476Y-108173085D01*
X145978476Y-108173085D02*
X146597523Y-108173085D01*
X142735466Y-72489219D02*
X142402133Y-72013028D01*
X142164038Y-72489219D02*
X142164038Y-71489219D01*
X142164038Y-71489219D02*
X142544990Y-71489219D01*
X142544990Y-71489219D02*
X142640228Y-71536838D01*
X142640228Y-71536838D02*
X142687847Y-71584457D01*
X142687847Y-71584457D02*
X142735466Y-71679695D01*
X142735466Y-71679695D02*
X142735466Y-71822552D01*
X142735466Y-71822552D02*
X142687847Y-71917790D01*
X142687847Y-71917790D02*
X142640228Y-71965409D01*
X142640228Y-71965409D02*
X142544990Y-72013028D01*
X142544990Y-72013028D02*
X142164038Y-72013028D01*
X143164038Y-71965409D02*
X143497371Y-71965409D01*
X143640228Y-72489219D02*
X143164038Y-72489219D01*
X143164038Y-72489219D02*
X143164038Y-71489219D01*
X143164038Y-71489219D02*
X143640228Y-71489219D01*
X144402133Y-71965409D02*
X144068800Y-71965409D01*
X144068800Y-72489219D02*
X144068800Y-71489219D01*
X144068800Y-71489219D02*
X144544990Y-71489219D01*
X145068800Y-71489219D02*
X145068800Y-71727314D01*
X144830705Y-71632076D02*
X145068800Y-71727314D01*
X145068800Y-71727314D02*
X145306895Y-71632076D01*
X144925943Y-71917790D02*
X145068800Y-71727314D01*
X145068800Y-71727314D02*
X145211657Y-71917790D01*
X145830705Y-71489219D02*
X145830705Y-71727314D01*
X145592610Y-71632076D02*
X145830705Y-71727314D01*
X145830705Y-71727314D02*
X146068800Y-71632076D01*
X145687848Y-71917790D02*
X145830705Y-71727314D01*
X145830705Y-71727314D02*
X145973562Y-71917790D01*
X118909619Y-110315333D02*
X119623904Y-110315333D01*
X119623904Y-110315333D02*
X119766761Y-110362952D01*
X119766761Y-110362952D02*
X119862000Y-110458190D01*
X119862000Y-110458190D02*
X119909619Y-110601047D01*
X119909619Y-110601047D02*
X119909619Y-110696285D01*
X119004857Y-109886761D02*
X118957238Y-109839142D01*
X118957238Y-109839142D02*
X118909619Y-109743904D01*
X118909619Y-109743904D02*
X118909619Y-109505809D01*
X118909619Y-109505809D02*
X118957238Y-109410571D01*
X118957238Y-109410571D02*
X119004857Y-109362952D01*
X119004857Y-109362952D02*
X119100095Y-109315333D01*
X119100095Y-109315333D02*
X119195333Y-109315333D01*
X119195333Y-109315333D02*
X119338190Y-109362952D01*
X119338190Y-109362952D02*
X119909619Y-109934380D01*
X119909619Y-109934380D02*
X119909619Y-109315333D01*
X168202780Y-93251257D02*
X168250400Y-93298876D01*
X168250400Y-93298876D02*
X168298019Y-93441733D01*
X168298019Y-93441733D02*
X168298019Y-93536971D01*
X168298019Y-93536971D02*
X168250400Y-93679828D01*
X168250400Y-93679828D02*
X168155161Y-93775066D01*
X168155161Y-93775066D02*
X168059923Y-93822685D01*
X168059923Y-93822685D02*
X167869447Y-93870304D01*
X167869447Y-93870304D02*
X167726590Y-93870304D01*
X167726590Y-93870304D02*
X167536114Y-93822685D01*
X167536114Y-93822685D02*
X167440876Y-93775066D01*
X167440876Y-93775066D02*
X167345638Y-93679828D01*
X167345638Y-93679828D02*
X167298019Y-93536971D01*
X167298019Y-93536971D02*
X167298019Y-93441733D01*
X167298019Y-93441733D02*
X167345638Y-93298876D01*
X167345638Y-93298876D02*
X167393257Y-93251257D01*
X167298019Y-92917923D02*
X167298019Y-92298876D01*
X167298019Y-92298876D02*
X167678971Y-92632209D01*
X167678971Y-92632209D02*
X167678971Y-92489352D01*
X167678971Y-92489352D02*
X167726590Y-92394114D01*
X167726590Y-92394114D02*
X167774209Y-92346495D01*
X167774209Y-92346495D02*
X167869447Y-92298876D01*
X167869447Y-92298876D02*
X168107542Y-92298876D01*
X168107542Y-92298876D02*
X168202780Y-92346495D01*
X168202780Y-92346495D02*
X168250400Y-92394114D01*
X168250400Y-92394114D02*
X168298019Y-92489352D01*
X168298019Y-92489352D02*
X168298019Y-92775066D01*
X168298019Y-92775066D02*
X168250400Y-92870304D01*
X168250400Y-92870304D02*
X168202780Y-92917923D01*
X168298019Y-91346495D02*
X168298019Y-91917923D01*
X168298019Y-91632209D02*
X167298019Y-91632209D01*
X167298019Y-91632209D02*
X167440876Y-91727447D01*
X167440876Y-91727447D02*
X167536114Y-91822685D01*
X167536114Y-91822685D02*
X167583733Y-91917923D01*
X161155142Y-98149580D02*
X161107523Y-98197200D01*
X161107523Y-98197200D02*
X160964666Y-98244819D01*
X160964666Y-98244819D02*
X160869428Y-98244819D01*
X160869428Y-98244819D02*
X160726571Y-98197200D01*
X160726571Y-98197200D02*
X160631333Y-98101961D01*
X160631333Y-98101961D02*
X160583714Y-98006723D01*
X160583714Y-98006723D02*
X160536095Y-97816247D01*
X160536095Y-97816247D02*
X160536095Y-97673390D01*
X160536095Y-97673390D02*
X160583714Y-97482914D01*
X160583714Y-97482914D02*
X160631333Y-97387676D01*
X160631333Y-97387676D02*
X160726571Y-97292438D01*
X160726571Y-97292438D02*
X160869428Y-97244819D01*
X160869428Y-97244819D02*
X160964666Y-97244819D01*
X160964666Y-97244819D02*
X161107523Y-97292438D01*
X161107523Y-97292438D02*
X161155142Y-97340057D01*
X161536095Y-97340057D02*
X161583714Y-97292438D01*
X161583714Y-97292438D02*
X161678952Y-97244819D01*
X161678952Y-97244819D02*
X161917047Y-97244819D01*
X161917047Y-97244819D02*
X162012285Y-97292438D01*
X162012285Y-97292438D02*
X162059904Y-97340057D01*
X162059904Y-97340057D02*
X162107523Y-97435295D01*
X162107523Y-97435295D02*
X162107523Y-97530533D01*
X162107523Y-97530533D02*
X162059904Y-97673390D01*
X162059904Y-97673390D02*
X161488476Y-98244819D01*
X161488476Y-98244819D02*
X162107523Y-98244819D01*
X162726571Y-97244819D02*
X162821809Y-97244819D01*
X162821809Y-97244819D02*
X162917047Y-97292438D01*
X162917047Y-97292438D02*
X162964666Y-97340057D01*
X162964666Y-97340057D02*
X163012285Y-97435295D01*
X163012285Y-97435295D02*
X163059904Y-97625771D01*
X163059904Y-97625771D02*
X163059904Y-97863866D01*
X163059904Y-97863866D02*
X163012285Y-98054342D01*
X163012285Y-98054342D02*
X162964666Y-98149580D01*
X162964666Y-98149580D02*
X162917047Y-98197200D01*
X162917047Y-98197200D02*
X162821809Y-98244819D01*
X162821809Y-98244819D02*
X162726571Y-98244819D01*
X162726571Y-98244819D02*
X162631333Y-98197200D01*
X162631333Y-98197200D02*
X162583714Y-98149580D01*
X162583714Y-98149580D02*
X162536095Y-98054342D01*
X162536095Y-98054342D02*
X162488476Y-97863866D01*
X162488476Y-97863866D02*
X162488476Y-97625771D01*
X162488476Y-97625771D02*
X162536095Y-97435295D01*
X162536095Y-97435295D02*
X162583714Y-97340057D01*
X162583714Y-97340057D02*
X162631333Y-97292438D01*
X162631333Y-97292438D02*
X162726571Y-97244819D01*
X161881081Y-82037157D02*
X161928701Y-82084776D01*
X161928701Y-82084776D02*
X161976320Y-82227633D01*
X161976320Y-82227633D02*
X161976320Y-82322871D01*
X161976320Y-82322871D02*
X161928701Y-82465728D01*
X161928701Y-82465728D02*
X161833462Y-82560966D01*
X161833462Y-82560966D02*
X161738224Y-82608585D01*
X161738224Y-82608585D02*
X161547748Y-82656204D01*
X161547748Y-82656204D02*
X161404891Y-82656204D01*
X161404891Y-82656204D02*
X161214415Y-82608585D01*
X161214415Y-82608585D02*
X161119177Y-82560966D01*
X161119177Y-82560966D02*
X161023939Y-82465728D01*
X161023939Y-82465728D02*
X160976320Y-82322871D01*
X160976320Y-82322871D02*
X160976320Y-82227633D01*
X160976320Y-82227633D02*
X161023939Y-82084776D01*
X161023939Y-82084776D02*
X161071558Y-82037157D01*
X161071558Y-81656204D02*
X161023939Y-81608585D01*
X161023939Y-81608585D02*
X160976320Y-81513347D01*
X160976320Y-81513347D02*
X160976320Y-81275252D01*
X160976320Y-81275252D02*
X161023939Y-81180014D01*
X161023939Y-81180014D02*
X161071558Y-81132395D01*
X161071558Y-81132395D02*
X161166796Y-81084776D01*
X161166796Y-81084776D02*
X161262034Y-81084776D01*
X161262034Y-81084776D02*
X161404891Y-81132395D01*
X161404891Y-81132395D02*
X161976320Y-81703823D01*
X161976320Y-81703823D02*
X161976320Y-81084776D01*
X161309653Y-80227633D02*
X161976320Y-80227633D01*
X160928701Y-80465728D02*
X161642986Y-80703823D01*
X161642986Y-80703823D02*
X161642986Y-80084776D01*
X144848342Y-109884380D02*
X144800723Y-109932000D01*
X144800723Y-109932000D02*
X144657866Y-109979619D01*
X144657866Y-109979619D02*
X144562628Y-109979619D01*
X144562628Y-109979619D02*
X144419771Y-109932000D01*
X144419771Y-109932000D02*
X144324533Y-109836761D01*
X144324533Y-109836761D02*
X144276914Y-109741523D01*
X144276914Y-109741523D02*
X144229295Y-109551047D01*
X144229295Y-109551047D02*
X144229295Y-109408190D01*
X144229295Y-109408190D02*
X144276914Y-109217714D01*
X144276914Y-109217714D02*
X144324533Y-109122476D01*
X144324533Y-109122476D02*
X144419771Y-109027238D01*
X144419771Y-109027238D02*
X144562628Y-108979619D01*
X144562628Y-108979619D02*
X144657866Y-108979619D01*
X144657866Y-108979619D02*
X144800723Y-109027238D01*
X144800723Y-109027238D02*
X144848342Y-109074857D01*
X145181676Y-108979619D02*
X145800723Y-108979619D01*
X145800723Y-108979619D02*
X145467390Y-109360571D01*
X145467390Y-109360571D02*
X145610247Y-109360571D01*
X145610247Y-109360571D02*
X145705485Y-109408190D01*
X145705485Y-109408190D02*
X145753104Y-109455809D01*
X145753104Y-109455809D02*
X145800723Y-109551047D01*
X145800723Y-109551047D02*
X145800723Y-109789142D01*
X145800723Y-109789142D02*
X145753104Y-109884380D01*
X145753104Y-109884380D02*
X145705485Y-109932000D01*
X145705485Y-109932000D02*
X145610247Y-109979619D01*
X145610247Y-109979619D02*
X145324533Y-109979619D01*
X145324533Y-109979619D02*
X145229295Y-109932000D01*
X145229295Y-109932000D02*
X145181676Y-109884380D01*
X146705485Y-108979619D02*
X146229295Y-108979619D01*
X146229295Y-108979619D02*
X146181676Y-109455809D01*
X146181676Y-109455809D02*
X146229295Y-109408190D01*
X146229295Y-109408190D02*
X146324533Y-109360571D01*
X146324533Y-109360571D02*
X146562628Y-109360571D01*
X146562628Y-109360571D02*
X146657866Y-109408190D01*
X146657866Y-109408190D02*
X146705485Y-109455809D01*
X146705485Y-109455809D02*
X146753104Y-109551047D01*
X146753104Y-109551047D02*
X146753104Y-109789142D01*
X146753104Y-109789142D02*
X146705485Y-109884380D01*
X146705485Y-109884380D02*
X146657866Y-109932000D01*
X146657866Y-109932000D02*
X146562628Y-109979619D01*
X146562628Y-109979619D02*
X146324533Y-109979619D01*
X146324533Y-109979619D02*
X146229295Y-109932000D01*
X146229295Y-109932000D02*
X146181676Y-109884380D01*
X156738095Y-96071469D02*
X156738095Y-96880992D01*
X156738095Y-96880992D02*
X156785714Y-96976230D01*
X156785714Y-96976230D02*
X156833333Y-97023850D01*
X156833333Y-97023850D02*
X156928571Y-97071469D01*
X156928571Y-97071469D02*
X157119047Y-97071469D01*
X157119047Y-97071469D02*
X157214285Y-97023850D01*
X157214285Y-97023850D02*
X157261904Y-96976230D01*
X157261904Y-96976230D02*
X157309523Y-96880992D01*
X157309523Y-96880992D02*
X157309523Y-96071469D01*
X157833333Y-97071469D02*
X158023809Y-97071469D01*
X158023809Y-97071469D02*
X158119047Y-97023850D01*
X158119047Y-97023850D02*
X158166666Y-96976230D01*
X158166666Y-96976230D02*
X158261904Y-96833373D01*
X158261904Y-96833373D02*
X158309523Y-96642897D01*
X158309523Y-96642897D02*
X158309523Y-96261945D01*
X158309523Y-96261945D02*
X158261904Y-96166707D01*
X158261904Y-96166707D02*
X158214285Y-96119088D01*
X158214285Y-96119088D02*
X158119047Y-96071469D01*
X158119047Y-96071469D02*
X157928571Y-96071469D01*
X157928571Y-96071469D02*
X157833333Y-96119088D01*
X157833333Y-96119088D02*
X157785714Y-96166707D01*
X157785714Y-96166707D02*
X157738095Y-96261945D01*
X157738095Y-96261945D02*
X157738095Y-96500040D01*
X157738095Y-96500040D02*
X157785714Y-96595278D01*
X157785714Y-96595278D02*
X157833333Y-96642897D01*
X157833333Y-96642897D02*
X157928571Y-96690516D01*
X157928571Y-96690516D02*
X158119047Y-96690516D01*
X158119047Y-96690516D02*
X158214285Y-96642897D01*
X158214285Y-96642897D02*
X158261904Y-96595278D01*
X158261904Y-96595278D02*
X158309523Y-96500040D01*
X156057599Y-99300380D02*
X156057599Y-99062285D01*
X156295694Y-99157523D02*
X156057599Y-99062285D01*
X156057599Y-99062285D02*
X155819504Y-99157523D01*
X156200456Y-98871809D02*
X156057599Y-99062285D01*
X156057599Y-99062285D02*
X155914742Y-98871809D01*
X156041978Y-98712630D02*
X156041978Y-98474535D01*
X156280073Y-98569773D02*
X156041978Y-98474535D01*
X156041978Y-98474535D02*
X155803883Y-98569773D01*
X156184835Y-98284059D02*
X156041978Y-98474535D01*
X156041978Y-98474535D02*
X155899121Y-98284059D01*
X141223904Y-104536717D02*
X141223904Y-103727194D01*
X141223904Y-103727194D02*
X141176285Y-103631956D01*
X141176285Y-103631956D02*
X141128666Y-103584337D01*
X141128666Y-103584337D02*
X141033428Y-103536717D01*
X141033428Y-103536717D02*
X140842952Y-103536717D01*
X140842952Y-103536717D02*
X140747714Y-103584337D01*
X140747714Y-103584337D02*
X140700095Y-103631956D01*
X140700095Y-103631956D02*
X140652476Y-103727194D01*
X140652476Y-103727194D02*
X140652476Y-104536717D01*
X140271523Y-104536717D02*
X139652476Y-104536717D01*
X139652476Y-104536717D02*
X139985809Y-104155765D01*
X139985809Y-104155765D02*
X139842952Y-104155765D01*
X139842952Y-104155765D02*
X139747714Y-104108146D01*
X139747714Y-104108146D02*
X139700095Y-104060527D01*
X139700095Y-104060527D02*
X139652476Y-103965289D01*
X139652476Y-103965289D02*
X139652476Y-103727194D01*
X139652476Y-103727194D02*
X139700095Y-103631956D01*
X139700095Y-103631956D02*
X139747714Y-103584337D01*
X139747714Y-103584337D02*
X139842952Y-103536717D01*
X139842952Y-103536717D02*
X140128666Y-103536717D01*
X140128666Y-103536717D02*
X140223904Y-103584337D01*
X140223904Y-103584337D02*
X140271523Y-103631956D01*
X137269876Y-80520619D02*
X137269876Y-81234904D01*
X137269876Y-81234904D02*
X137222257Y-81377761D01*
X137222257Y-81377761D02*
X137127019Y-81473000D01*
X137127019Y-81473000D02*
X136984162Y-81520619D01*
X136984162Y-81520619D02*
X136888924Y-81520619D01*
X138269876Y-81520619D02*
X137698448Y-81520619D01*
X137984162Y-81520619D02*
X137984162Y-80520619D01*
X137984162Y-80520619D02*
X137888924Y-80663476D01*
X137888924Y-80663476D02*
X137793686Y-80758714D01*
X137793686Y-80758714D02*
X137698448Y-80806333D01*
X138888924Y-80520619D02*
X138984162Y-80520619D01*
X138984162Y-80520619D02*
X139079400Y-80568238D01*
X139079400Y-80568238D02*
X139127019Y-80615857D01*
X139127019Y-80615857D02*
X139174638Y-80711095D01*
X139174638Y-80711095D02*
X139222257Y-80901571D01*
X139222257Y-80901571D02*
X139222257Y-81139666D01*
X139222257Y-81139666D02*
X139174638Y-81330142D01*
X139174638Y-81330142D02*
X139127019Y-81425380D01*
X139127019Y-81425380D02*
X139079400Y-81473000D01*
X139079400Y-81473000D02*
X138984162Y-81520619D01*
X138984162Y-81520619D02*
X138888924Y-81520619D01*
X138888924Y-81520619D02*
X138793686Y-81473000D01*
X138793686Y-81473000D02*
X138746067Y-81425380D01*
X138746067Y-81425380D02*
X138698448Y-81330142D01*
X138698448Y-81330142D02*
X138650829Y-81139666D01*
X138650829Y-81139666D02*
X138650829Y-80901571D01*
X138650829Y-80901571D02*
X138698448Y-80711095D01*
X138698448Y-80711095D02*
X138746067Y-80615857D01*
X138746067Y-80615857D02*
X138793686Y-80568238D01*
X138793686Y-80568238D02*
X138888924Y-80520619D01*
X156953105Y-81395219D02*
X156953105Y-82204742D01*
X156953105Y-82204742D02*
X157000724Y-82299980D01*
X157000724Y-82299980D02*
X157048343Y-82347600D01*
X157048343Y-82347600D02*
X157143581Y-82395219D01*
X157143581Y-82395219D02*
X157334057Y-82395219D01*
X157334057Y-82395219D02*
X157429295Y-82347600D01*
X157429295Y-82347600D02*
X157476914Y-82299980D01*
X157476914Y-82299980D02*
X157524533Y-82204742D01*
X157524533Y-82204742D02*
X157524533Y-81395219D01*
X158524533Y-82395219D02*
X157953105Y-82395219D01*
X158238819Y-82395219D02*
X158238819Y-81395219D01*
X158238819Y-81395219D02*
X158143581Y-81538076D01*
X158143581Y-81538076D02*
X158048343Y-81633314D01*
X158048343Y-81633314D02*
X157953105Y-81680933D01*
X159143581Y-81395219D02*
X159238819Y-81395219D01*
X159238819Y-81395219D02*
X159334057Y-81442838D01*
X159334057Y-81442838D02*
X159381676Y-81490457D01*
X159381676Y-81490457D02*
X159429295Y-81585695D01*
X159429295Y-81585695D02*
X159476914Y-81776171D01*
X159476914Y-81776171D02*
X159476914Y-82014266D01*
X159476914Y-82014266D02*
X159429295Y-82204742D01*
X159429295Y-82204742D02*
X159381676Y-82299980D01*
X159381676Y-82299980D02*
X159334057Y-82347600D01*
X159334057Y-82347600D02*
X159238819Y-82395219D01*
X159238819Y-82395219D02*
X159143581Y-82395219D01*
X159143581Y-82395219D02*
X159048343Y-82347600D01*
X159048343Y-82347600D02*
X159000724Y-82299980D01*
X159000724Y-82299980D02*
X158953105Y-82204742D01*
X158953105Y-82204742D02*
X158905486Y-82014266D01*
X158905486Y-82014266D02*
X158905486Y-81776171D01*
X158905486Y-81776171D02*
X158953105Y-81585695D01*
X158953105Y-81585695D02*
X159000724Y-81490457D01*
X159000724Y-81490457D02*
X159048343Y-81442838D01*
X159048343Y-81442838D02*
X159143581Y-81395219D01*
X139366680Y-107030718D02*
X139414300Y-107078337D01*
X139414300Y-107078337D02*
X139461919Y-107221194D01*
X139461919Y-107221194D02*
X139461919Y-107316432D01*
X139461919Y-107316432D02*
X139414300Y-107459289D01*
X139414300Y-107459289D02*
X139319061Y-107554527D01*
X139319061Y-107554527D02*
X139223823Y-107602146D01*
X139223823Y-107602146D02*
X139033347Y-107649765D01*
X139033347Y-107649765D02*
X138890490Y-107649765D01*
X138890490Y-107649765D02*
X138700014Y-107602146D01*
X138700014Y-107602146D02*
X138604776Y-107554527D01*
X138604776Y-107554527D02*
X138509538Y-107459289D01*
X138509538Y-107459289D02*
X138461919Y-107316432D01*
X138461919Y-107316432D02*
X138461919Y-107221194D01*
X138461919Y-107221194D02*
X138509538Y-107078337D01*
X138509538Y-107078337D02*
X138557157Y-107030718D01*
X138795252Y-106173575D02*
X139461919Y-106173575D01*
X138414300Y-106411670D02*
X139128585Y-106649765D01*
X139128585Y-106649765D02*
X139128585Y-106030718D01*
X170846232Y-106358593D02*
X170798613Y-106406213D01*
X170798613Y-106406213D02*
X170655756Y-106453832D01*
X170655756Y-106453832D02*
X170560518Y-106453832D01*
X170560518Y-106453832D02*
X170417661Y-106406213D01*
X170417661Y-106406213D02*
X170322423Y-106310974D01*
X170322423Y-106310974D02*
X170274804Y-106215736D01*
X170274804Y-106215736D02*
X170227185Y-106025260D01*
X170227185Y-106025260D02*
X170227185Y-105882403D01*
X170227185Y-105882403D02*
X170274804Y-105691927D01*
X170274804Y-105691927D02*
X170322423Y-105596689D01*
X170322423Y-105596689D02*
X170417661Y-105501451D01*
X170417661Y-105501451D02*
X170560518Y-105453832D01*
X170560518Y-105453832D02*
X170655756Y-105453832D01*
X170655756Y-105453832D02*
X170798613Y-105501451D01*
X170798613Y-105501451D02*
X170846232Y-105549070D01*
X171227185Y-105549070D02*
X171274804Y-105501451D01*
X171274804Y-105501451D02*
X171370042Y-105453832D01*
X171370042Y-105453832D02*
X171608137Y-105453832D01*
X171608137Y-105453832D02*
X171703375Y-105501451D01*
X171703375Y-105501451D02*
X171750994Y-105549070D01*
X171750994Y-105549070D02*
X171798613Y-105644308D01*
X171798613Y-105644308D02*
X171798613Y-105739546D01*
X171798613Y-105739546D02*
X171750994Y-105882403D01*
X171750994Y-105882403D02*
X171179566Y-106453832D01*
X171179566Y-106453832D02*
X171798613Y-106453832D01*
X172750994Y-106453832D02*
X172179566Y-106453832D01*
X172465280Y-106453832D02*
X172465280Y-105453832D01*
X172465280Y-105453832D02*
X172370042Y-105596689D01*
X172370042Y-105596689D02*
X172274804Y-105691927D01*
X172274804Y-105691927D02*
X172179566Y-105739546D01*
X159613473Y-103423537D02*
X159613473Y-104233060D01*
X159613473Y-104233060D02*
X159661092Y-104328298D01*
X159661092Y-104328298D02*
X159708711Y-104375918D01*
X159708711Y-104375918D02*
X159803949Y-104423537D01*
X159803949Y-104423537D02*
X159994425Y-104423537D01*
X159994425Y-104423537D02*
X160089663Y-104375918D01*
X160089663Y-104375918D02*
X160137282Y-104328298D01*
X160137282Y-104328298D02*
X160184901Y-104233060D01*
X160184901Y-104233060D02*
X160184901Y-103423537D01*
X160565854Y-103423537D02*
X161232520Y-103423537D01*
X161232520Y-103423537D02*
X160803949Y-104423537D01*
X162154080Y-104698800D02*
X161915985Y-104698800D01*
X162011223Y-104460705D02*
X161915985Y-104698800D01*
X161915985Y-104698800D02*
X162011223Y-104936895D01*
X161725509Y-104555943D02*
X161915985Y-104698800D01*
X161915985Y-104698800D02*
X161725509Y-104841657D01*
X162154080Y-104698800D02*
X161915985Y-104698800D01*
X162011223Y-104460705D02*
X161915985Y-104698800D01*
X161915985Y-104698800D02*
X162011223Y-104936895D01*
X161725509Y-104555943D02*
X161915985Y-104698800D01*
X161915985Y-104698800D02*
X161725509Y-104841657D01*
X170846232Y-107882593D02*
X170798613Y-107930213D01*
X170798613Y-107930213D02*
X170655756Y-107977832D01*
X170655756Y-107977832D02*
X170560518Y-107977832D01*
X170560518Y-107977832D02*
X170417661Y-107930213D01*
X170417661Y-107930213D02*
X170322423Y-107834974D01*
X170322423Y-107834974D02*
X170274804Y-107739736D01*
X170274804Y-107739736D02*
X170227185Y-107549260D01*
X170227185Y-107549260D02*
X170227185Y-107406403D01*
X170227185Y-107406403D02*
X170274804Y-107215927D01*
X170274804Y-107215927D02*
X170322423Y-107120689D01*
X170322423Y-107120689D02*
X170417661Y-107025451D01*
X170417661Y-107025451D02*
X170560518Y-106977832D01*
X170560518Y-106977832D02*
X170655756Y-106977832D01*
X170655756Y-106977832D02*
X170798613Y-107025451D01*
X170798613Y-107025451D02*
X170846232Y-107073070D01*
X171227185Y-107073070D02*
X171274804Y-107025451D01*
X171274804Y-107025451D02*
X171370042Y-106977832D01*
X171370042Y-106977832D02*
X171608137Y-106977832D01*
X171608137Y-106977832D02*
X171703375Y-107025451D01*
X171703375Y-107025451D02*
X171750994Y-107073070D01*
X171750994Y-107073070D02*
X171798613Y-107168308D01*
X171798613Y-107168308D02*
X171798613Y-107263546D01*
X171798613Y-107263546D02*
X171750994Y-107406403D01*
X171750994Y-107406403D02*
X171179566Y-107977832D01*
X171179566Y-107977832D02*
X171798613Y-107977832D01*
X172179566Y-107073070D02*
X172227185Y-107025451D01*
X172227185Y-107025451D02*
X172322423Y-106977832D01*
X172322423Y-106977832D02*
X172560518Y-106977832D01*
X172560518Y-106977832D02*
X172655756Y-107025451D01*
X172655756Y-107025451D02*
X172703375Y-107073070D01*
X172703375Y-107073070D02*
X172750994Y-107168308D01*
X172750994Y-107168308D02*
X172750994Y-107263546D01*
X172750994Y-107263546D02*
X172703375Y-107406403D01*
X172703375Y-107406403D02*
X172131947Y-107977832D01*
X172131947Y-107977832D02*
X172750994Y-107977832D01*
X153209676Y-110304366D02*
X153923961Y-110304366D01*
X153923961Y-110304366D02*
X154066818Y-110351985D01*
X154066818Y-110351985D02*
X154162057Y-110447223D01*
X154162057Y-110447223D02*
X154209676Y-110590080D01*
X154209676Y-110590080D02*
X154209676Y-110685318D01*
X153543009Y-109399604D02*
X154209676Y-109399604D01*
X153162057Y-109637699D02*
X153876342Y-109875794D01*
X153876342Y-109875794D02*
X153876342Y-109256747D01*
X162733919Y-103387703D02*
X163543442Y-103387703D01*
X163543442Y-103387703D02*
X163638680Y-103340084D01*
X163638680Y-103340084D02*
X163686300Y-103292465D01*
X163686300Y-103292465D02*
X163733919Y-103197227D01*
X163733919Y-103197227D02*
X163733919Y-103006751D01*
X163733919Y-103006751D02*
X163686300Y-102911513D01*
X163686300Y-102911513D02*
X163638680Y-102863894D01*
X163638680Y-102863894D02*
X163543442Y-102816275D01*
X163543442Y-102816275D02*
X162733919Y-102816275D01*
X163162490Y-102197227D02*
X163114871Y-102292465D01*
X163114871Y-102292465D02*
X163067252Y-102340084D01*
X163067252Y-102340084D02*
X162972014Y-102387703D01*
X162972014Y-102387703D02*
X162924395Y-102387703D01*
X162924395Y-102387703D02*
X162829157Y-102340084D01*
X162829157Y-102340084D02*
X162781538Y-102292465D01*
X162781538Y-102292465D02*
X162733919Y-102197227D01*
X162733919Y-102197227D02*
X162733919Y-102006751D01*
X162733919Y-102006751D02*
X162781538Y-101911513D01*
X162781538Y-101911513D02*
X162829157Y-101863894D01*
X162829157Y-101863894D02*
X162924395Y-101816275D01*
X162924395Y-101816275D02*
X162972014Y-101816275D01*
X162972014Y-101816275D02*
X163067252Y-101863894D01*
X163067252Y-101863894D02*
X163114871Y-101911513D01*
X163114871Y-101911513D02*
X163162490Y-102006751D01*
X163162490Y-102006751D02*
X163162490Y-102197227D01*
X163162490Y-102197227D02*
X163210109Y-102292465D01*
X163210109Y-102292465D02*
X163257728Y-102340084D01*
X163257728Y-102340084D02*
X163352966Y-102387703D01*
X163352966Y-102387703D02*
X163543442Y-102387703D01*
X163543442Y-102387703D02*
X163638680Y-102340084D01*
X163638680Y-102340084D02*
X163686300Y-102292465D01*
X163686300Y-102292465D02*
X163733919Y-102197227D01*
X163733919Y-102197227D02*
X163733919Y-102006751D01*
X163733919Y-102006751D02*
X163686300Y-101911513D01*
X163686300Y-101911513D02*
X163638680Y-101863894D01*
X163638680Y-101863894D02*
X163543442Y-101816275D01*
X163543442Y-101816275D02*
X163352966Y-101816275D01*
X163352966Y-101816275D02*
X163257728Y-101863894D01*
X163257728Y-101863894D02*
X163210109Y-101911513D01*
X163210109Y-101911513D02*
X163162490Y-102006751D01*
X135150280Y-106725918D02*
X135197900Y-106773537D01*
X135197900Y-106773537D02*
X135245519Y-106916394D01*
X135245519Y-106916394D02*
X135245519Y-107011632D01*
X135245519Y-107011632D02*
X135197900Y-107154489D01*
X135197900Y-107154489D02*
X135102661Y-107249727D01*
X135102661Y-107249727D02*
X135007423Y-107297346D01*
X135007423Y-107297346D02*
X134816947Y-107344965D01*
X134816947Y-107344965D02*
X134674090Y-107344965D01*
X134674090Y-107344965D02*
X134483614Y-107297346D01*
X134483614Y-107297346D02*
X134388376Y-107249727D01*
X134388376Y-107249727D02*
X134293138Y-107154489D01*
X134293138Y-107154489D02*
X134245519Y-107011632D01*
X134245519Y-107011632D02*
X134245519Y-106916394D01*
X134245519Y-106916394D02*
X134293138Y-106773537D01*
X134293138Y-106773537D02*
X134340757Y-106725918D01*
X134245519Y-106392584D02*
X134245519Y-105773537D01*
X134245519Y-105773537D02*
X134626471Y-106106870D01*
X134626471Y-106106870D02*
X134626471Y-105964013D01*
X134626471Y-105964013D02*
X134674090Y-105868775D01*
X134674090Y-105868775D02*
X134721709Y-105821156D01*
X134721709Y-105821156D02*
X134816947Y-105773537D01*
X134816947Y-105773537D02*
X135055042Y-105773537D01*
X135055042Y-105773537D02*
X135150280Y-105821156D01*
X135150280Y-105821156D02*
X135197900Y-105868775D01*
X135197900Y-105868775D02*
X135245519Y-105964013D01*
X135245519Y-105964013D02*
X135245519Y-106249727D01*
X135245519Y-106249727D02*
X135197900Y-106344965D01*
X135197900Y-106344965D02*
X135150280Y-106392584D01*
X169879180Y-93403657D02*
X169926800Y-93451276D01*
X169926800Y-93451276D02*
X169974419Y-93594133D01*
X169974419Y-93594133D02*
X169974419Y-93689371D01*
X169974419Y-93689371D02*
X169926800Y-93832228D01*
X169926800Y-93832228D02*
X169831561Y-93927466D01*
X169831561Y-93927466D02*
X169736323Y-93975085D01*
X169736323Y-93975085D02*
X169545847Y-94022704D01*
X169545847Y-94022704D02*
X169402990Y-94022704D01*
X169402990Y-94022704D02*
X169212514Y-93975085D01*
X169212514Y-93975085D02*
X169117276Y-93927466D01*
X169117276Y-93927466D02*
X169022038Y-93832228D01*
X169022038Y-93832228D02*
X168974419Y-93689371D01*
X168974419Y-93689371D02*
X168974419Y-93594133D01*
X168974419Y-93594133D02*
X169022038Y-93451276D01*
X169022038Y-93451276D02*
X169069657Y-93403657D01*
X168974419Y-93070323D02*
X168974419Y-92451276D01*
X168974419Y-92451276D02*
X169355371Y-92784609D01*
X169355371Y-92784609D02*
X169355371Y-92641752D01*
X169355371Y-92641752D02*
X169402990Y-92546514D01*
X169402990Y-92546514D02*
X169450609Y-92498895D01*
X169450609Y-92498895D02*
X169545847Y-92451276D01*
X169545847Y-92451276D02*
X169783942Y-92451276D01*
X169783942Y-92451276D02*
X169879180Y-92498895D01*
X169879180Y-92498895D02*
X169926800Y-92546514D01*
X169926800Y-92546514D02*
X169974419Y-92641752D01*
X169974419Y-92641752D02*
X169974419Y-92927466D01*
X169974419Y-92927466D02*
X169926800Y-93022704D01*
X169926800Y-93022704D02*
X169879180Y-93070323D01*
X168974419Y-91832228D02*
X168974419Y-91736990D01*
X168974419Y-91736990D02*
X169022038Y-91641752D01*
X169022038Y-91641752D02*
X169069657Y-91594133D01*
X169069657Y-91594133D02*
X169164895Y-91546514D01*
X169164895Y-91546514D02*
X169355371Y-91498895D01*
X169355371Y-91498895D02*
X169593466Y-91498895D01*
X169593466Y-91498895D02*
X169783942Y-91546514D01*
X169783942Y-91546514D02*
X169879180Y-91594133D01*
X169879180Y-91594133D02*
X169926800Y-91641752D01*
X169926800Y-91641752D02*
X169974419Y-91736990D01*
X169974419Y-91736990D02*
X169974419Y-91832228D01*
X169974419Y-91832228D02*
X169926800Y-91927466D01*
X169926800Y-91927466D02*
X169879180Y-91975085D01*
X169879180Y-91975085D02*
X169783942Y-92022704D01*
X169783942Y-92022704D02*
X169593466Y-92070323D01*
X169593466Y-92070323D02*
X169355371Y-92070323D01*
X169355371Y-92070323D02*
X169164895Y-92022704D01*
X169164895Y-92022704D02*
X169069657Y-91975085D01*
X169069657Y-91975085D02*
X169022038Y-91927466D01*
X169022038Y-91927466D02*
X168974419Y-91832228D01*
X140179466Y-92825219D02*
X140179466Y-93539504D01*
X140179466Y-93539504D02*
X140131847Y-93682361D01*
X140131847Y-93682361D02*
X140036609Y-93777600D01*
X140036609Y-93777600D02*
X139893752Y-93825219D01*
X139893752Y-93825219D02*
X139798514Y-93825219D01*
X140560419Y-92825219D02*
X141179466Y-92825219D01*
X141179466Y-92825219D02*
X140846133Y-93206171D01*
X140846133Y-93206171D02*
X140988990Y-93206171D01*
X140988990Y-93206171D02*
X141084228Y-93253790D01*
X141084228Y-93253790D02*
X141131847Y-93301409D01*
X141131847Y-93301409D02*
X141179466Y-93396647D01*
X141179466Y-93396647D02*
X141179466Y-93634742D01*
X141179466Y-93634742D02*
X141131847Y-93729980D01*
X141131847Y-93729980D02*
X141084228Y-93777600D01*
X141084228Y-93777600D02*
X140988990Y-93825219D01*
X140988990Y-93825219D02*
X140703276Y-93825219D01*
X140703276Y-93825219D02*
X140608038Y-93777600D01*
X140608038Y-93777600D02*
X140560419Y-93729980D01*
X161409142Y-99622780D02*
X161361523Y-99670400D01*
X161361523Y-99670400D02*
X161218666Y-99718019D01*
X161218666Y-99718019D02*
X161123428Y-99718019D01*
X161123428Y-99718019D02*
X160980571Y-99670400D01*
X160980571Y-99670400D02*
X160885333Y-99575161D01*
X160885333Y-99575161D02*
X160837714Y-99479923D01*
X160837714Y-99479923D02*
X160790095Y-99289447D01*
X160790095Y-99289447D02*
X160790095Y-99146590D01*
X160790095Y-99146590D02*
X160837714Y-98956114D01*
X160837714Y-98956114D02*
X160885333Y-98860876D01*
X160885333Y-98860876D02*
X160980571Y-98765638D01*
X160980571Y-98765638D02*
X161123428Y-98718019D01*
X161123428Y-98718019D02*
X161218666Y-98718019D01*
X161218666Y-98718019D02*
X161361523Y-98765638D01*
X161361523Y-98765638D02*
X161409142Y-98813257D01*
X162361523Y-99718019D02*
X161790095Y-99718019D01*
X162075809Y-99718019D02*
X162075809Y-98718019D01*
X162075809Y-98718019D02*
X161980571Y-98860876D01*
X161980571Y-98860876D02*
X161885333Y-98956114D01*
X161885333Y-98956114D02*
X161790095Y-99003733D01*
X162837714Y-99718019D02*
X163028190Y-99718019D01*
X163028190Y-99718019D02*
X163123428Y-99670400D01*
X163123428Y-99670400D02*
X163171047Y-99622780D01*
X163171047Y-99622780D02*
X163266285Y-99479923D01*
X163266285Y-99479923D02*
X163313904Y-99289447D01*
X163313904Y-99289447D02*
X163313904Y-98908495D01*
X163313904Y-98908495D02*
X163266285Y-98813257D01*
X163266285Y-98813257D02*
X163218666Y-98765638D01*
X163218666Y-98765638D02*
X163123428Y-98718019D01*
X163123428Y-98718019D02*
X162932952Y-98718019D01*
X162932952Y-98718019D02*
X162837714Y-98765638D01*
X162837714Y-98765638D02*
X162790095Y-98813257D01*
X162790095Y-98813257D02*
X162742476Y-98908495D01*
X162742476Y-98908495D02*
X162742476Y-99146590D01*
X162742476Y-99146590D02*
X162790095Y-99241828D01*
X162790095Y-99241828D02*
X162837714Y-99289447D01*
X162837714Y-99289447D02*
X162932952Y-99337066D01*
X162932952Y-99337066D02*
X163123428Y-99337066D01*
X163123428Y-99337066D02*
X163218666Y-99289447D01*
X163218666Y-99289447D02*
X163266285Y-99241828D01*
X163266285Y-99241828D02*
X163313904Y-99146590D01*
X165508994Y-85603544D02*
X165508994Y-86413067D01*
X165508994Y-86413067D02*
X165556613Y-86508305D01*
X165556613Y-86508305D02*
X165604232Y-86555925D01*
X165604232Y-86555925D02*
X165699470Y-86603544D01*
X165699470Y-86603544D02*
X165889946Y-86603544D01*
X165889946Y-86603544D02*
X165985184Y-86555925D01*
X165985184Y-86555925D02*
X166032803Y-86508305D01*
X166032803Y-86508305D02*
X166080422Y-86413067D01*
X166080422Y-86413067D02*
X166080422Y-85603544D01*
X167080422Y-86603544D02*
X166508994Y-86603544D01*
X166794708Y-86603544D02*
X166794708Y-85603544D01*
X166794708Y-85603544D02*
X166699470Y-85746401D01*
X166699470Y-85746401D02*
X166604232Y-85841639D01*
X166604232Y-85841639D02*
X166508994Y-85889258D01*
X168032803Y-86603544D02*
X167461375Y-86603544D01*
X167747089Y-86603544D02*
X167747089Y-85603544D01*
X167747089Y-85603544D02*
X167651851Y-85746401D01*
X167651851Y-85746401D02*
X167556613Y-85841639D01*
X167556613Y-85841639D02*
X167461375Y-85889258D01*
X154374302Y-90258719D02*
X154374302Y-90496814D01*
X154136207Y-90401576D02*
X154374302Y-90496814D01*
X154374302Y-90496814D02*
X154612397Y-90401576D01*
X154231445Y-90687290D02*
X154374302Y-90496814D01*
X154374302Y-90496814D02*
X154517159Y-90687290D01*
X152375679Y-88487657D02*
X152423299Y-88535276D01*
X152423299Y-88535276D02*
X152470918Y-88678133D01*
X152470918Y-88678133D02*
X152470918Y-88773371D01*
X152470918Y-88773371D02*
X152423299Y-88916228D01*
X152423299Y-88916228D02*
X152328060Y-89011466D01*
X152328060Y-89011466D02*
X152232822Y-89059085D01*
X152232822Y-89059085D02*
X152042346Y-89106704D01*
X152042346Y-89106704D02*
X151899489Y-89106704D01*
X151899489Y-89106704D02*
X151709013Y-89059085D01*
X151709013Y-89059085D02*
X151613775Y-89011466D01*
X151613775Y-89011466D02*
X151518537Y-88916228D01*
X151518537Y-88916228D02*
X151470918Y-88773371D01*
X151470918Y-88773371D02*
X151470918Y-88678133D01*
X151470918Y-88678133D02*
X151518537Y-88535276D01*
X151518537Y-88535276D02*
X151566156Y-88487657D01*
X151566156Y-88106704D02*
X151518537Y-88059085D01*
X151518537Y-88059085D02*
X151470918Y-87963847D01*
X151470918Y-87963847D02*
X151470918Y-87725752D01*
X151470918Y-87725752D02*
X151518537Y-87630514D01*
X151518537Y-87630514D02*
X151566156Y-87582895D01*
X151566156Y-87582895D02*
X151661394Y-87535276D01*
X151661394Y-87535276D02*
X151756632Y-87535276D01*
X151756632Y-87535276D02*
X151899489Y-87582895D01*
X151899489Y-87582895D02*
X152470918Y-88154323D01*
X152470918Y-88154323D02*
X152470918Y-87535276D01*
X151470918Y-87201942D02*
X151470918Y-86535276D01*
X151470918Y-86535276D02*
X152470918Y-86963847D01*
X175891952Y-44775345D02*
X176272904Y-44775345D01*
X176034809Y-45442012D02*
X176034809Y-44584869D01*
X176034809Y-44584869D02*
X176082428Y-44489631D01*
X176082428Y-44489631D02*
X176177666Y-44442012D01*
X176177666Y-44442012D02*
X176272904Y-44442012D01*
X176606238Y-45442012D02*
X176606238Y-44775345D01*
X176606238Y-44442012D02*
X176558619Y-44489631D01*
X176558619Y-44489631D02*
X176606238Y-44537250D01*
X176606238Y-44537250D02*
X176653857Y-44489631D01*
X176653857Y-44489631D02*
X176606238Y-44442012D01*
X176606238Y-44442012D02*
X176606238Y-44537250D01*
X177510999Y-45442012D02*
X177510999Y-44442012D01*
X177510999Y-45394393D02*
X177415761Y-45442012D01*
X177415761Y-45442012D02*
X177225285Y-45442012D01*
X177225285Y-45442012D02*
X177130047Y-45394393D01*
X177130047Y-45394393D02*
X177082428Y-45346773D01*
X177082428Y-45346773D02*
X177034809Y-45251535D01*
X177034809Y-45251535D02*
X177034809Y-44965821D01*
X177034809Y-44965821D02*
X177082428Y-44870583D01*
X177082428Y-44870583D02*
X177130047Y-44822964D01*
X177130047Y-44822964D02*
X177225285Y-44775345D01*
X177225285Y-44775345D02*
X177415761Y-44775345D01*
X177415761Y-44775345D02*
X177510999Y-44822964D01*
X177987190Y-45346773D02*
X178034809Y-45394393D01*
X178034809Y-45394393D02*
X177987190Y-45442012D01*
X177987190Y-45442012D02*
X177939571Y-45394393D01*
X177939571Y-45394393D02*
X177987190Y-45346773D01*
X177987190Y-45346773D02*
X177987190Y-45442012D01*
X178415761Y-45156297D02*
X178891951Y-45156297D01*
X178320523Y-45442012D02*
X178653856Y-44442012D01*
X178653856Y-44442012D02*
X178987189Y-45442012D01*
X163608281Y-82086857D02*
X163655901Y-82134476D01*
X163655901Y-82134476D02*
X163703520Y-82277333D01*
X163703520Y-82277333D02*
X163703520Y-82372571D01*
X163703520Y-82372571D02*
X163655901Y-82515428D01*
X163655901Y-82515428D02*
X163560662Y-82610666D01*
X163560662Y-82610666D02*
X163465424Y-82658285D01*
X163465424Y-82658285D02*
X163274948Y-82705904D01*
X163274948Y-82705904D02*
X163132091Y-82705904D01*
X163132091Y-82705904D02*
X162941615Y-82658285D01*
X162941615Y-82658285D02*
X162846377Y-82610666D01*
X162846377Y-82610666D02*
X162751139Y-82515428D01*
X162751139Y-82515428D02*
X162703520Y-82372571D01*
X162703520Y-82372571D02*
X162703520Y-82277333D01*
X162703520Y-82277333D02*
X162751139Y-82134476D01*
X162751139Y-82134476D02*
X162798758Y-82086857D01*
X162798758Y-81705904D02*
X162751139Y-81658285D01*
X162751139Y-81658285D02*
X162703520Y-81563047D01*
X162703520Y-81563047D02*
X162703520Y-81324952D01*
X162703520Y-81324952D02*
X162751139Y-81229714D01*
X162751139Y-81229714D02*
X162798758Y-81182095D01*
X162798758Y-81182095D02*
X162893996Y-81134476D01*
X162893996Y-81134476D02*
X162989234Y-81134476D01*
X162989234Y-81134476D02*
X163132091Y-81182095D01*
X163132091Y-81182095D02*
X163703520Y-81753523D01*
X163703520Y-81753523D02*
X163703520Y-81134476D01*
X162703520Y-80277333D02*
X162703520Y-80467809D01*
X162703520Y-80467809D02*
X162751139Y-80563047D01*
X162751139Y-80563047D02*
X162798758Y-80610666D01*
X162798758Y-80610666D02*
X162941615Y-80705904D01*
X162941615Y-80705904D02*
X163132091Y-80753523D01*
X163132091Y-80753523D02*
X163513043Y-80753523D01*
X163513043Y-80753523D02*
X163608281Y-80705904D01*
X163608281Y-80705904D02*
X163655901Y-80658285D01*
X163655901Y-80658285D02*
X163703520Y-80563047D01*
X163703520Y-80563047D02*
X163703520Y-80372571D01*
X163703520Y-80372571D02*
X163655901Y-80277333D01*
X163655901Y-80277333D02*
X163608281Y-80229714D01*
X163608281Y-80229714D02*
X163513043Y-80182095D01*
X163513043Y-80182095D02*
X163274948Y-80182095D01*
X163274948Y-80182095D02*
X163179710Y-80229714D01*
X163179710Y-80229714D02*
X163132091Y-80277333D01*
X163132091Y-80277333D02*
X163084472Y-80372571D01*
X163084472Y-80372571D02*
X163084472Y-80563047D01*
X163084472Y-80563047D02*
X163132091Y-80658285D01*
X163132091Y-80658285D02*
X163179710Y-80705904D01*
X163179710Y-80705904D02*
X163274948Y-80753523D01*
X164328820Y-107089953D02*
X164328820Y-107804238D01*
X164328820Y-107804238D02*
X164281201Y-107947095D01*
X164281201Y-107947095D02*
X164185963Y-108042334D01*
X164185963Y-108042334D02*
X164043106Y-108089953D01*
X164043106Y-108089953D02*
X163947868Y-108089953D01*
X165233582Y-107089953D02*
X165043106Y-107089953D01*
X165043106Y-107089953D02*
X164947868Y-107137572D01*
X164947868Y-107137572D02*
X164900249Y-107185191D01*
X164900249Y-107185191D02*
X164805011Y-107328048D01*
X164805011Y-107328048D02*
X164757392Y-107518524D01*
X164757392Y-107518524D02*
X164757392Y-107899476D01*
X164757392Y-107899476D02*
X164805011Y-107994714D01*
X164805011Y-107994714D02*
X164852630Y-108042334D01*
X164852630Y-108042334D02*
X164947868Y-108089953D01*
X164947868Y-108089953D02*
X165138344Y-108089953D01*
X165138344Y-108089953D02*
X165233582Y-108042334D01*
X165233582Y-108042334D02*
X165281201Y-107994714D01*
X165281201Y-107994714D02*
X165328820Y-107899476D01*
X165328820Y-107899476D02*
X165328820Y-107661381D01*
X165328820Y-107661381D02*
X165281201Y-107566143D01*
X165281201Y-107566143D02*
X165233582Y-107518524D01*
X165233582Y-107518524D02*
X165138344Y-107470905D01*
X165138344Y-107470905D02*
X164947868Y-107470905D01*
X164947868Y-107470905D02*
X164852630Y-107518524D01*
X164852630Y-107518524D02*
X164805011Y-107566143D01*
X164805011Y-107566143D02*
X164757392Y-107661381D01*
X158738693Y-91415659D02*
X158691074Y-91463279D01*
X158691074Y-91463279D02*
X158548217Y-91510898D01*
X158548217Y-91510898D02*
X158452979Y-91510898D01*
X158452979Y-91510898D02*
X158310122Y-91463279D01*
X158310122Y-91463279D02*
X158214884Y-91368040D01*
X158214884Y-91368040D02*
X158167265Y-91272802D01*
X158167265Y-91272802D02*
X158119646Y-91082326D01*
X158119646Y-91082326D02*
X158119646Y-90939469D01*
X158119646Y-90939469D02*
X158167265Y-90748993D01*
X158167265Y-90748993D02*
X158214884Y-90653755D01*
X158214884Y-90653755D02*
X158310122Y-90558517D01*
X158310122Y-90558517D02*
X158452979Y-90510898D01*
X158452979Y-90510898D02*
X158548217Y-90510898D01*
X158548217Y-90510898D02*
X158691074Y-90558517D01*
X158691074Y-90558517D02*
X158738693Y-90606136D01*
X159119646Y-90606136D02*
X159167265Y-90558517D01*
X159167265Y-90558517D02*
X159262503Y-90510898D01*
X159262503Y-90510898D02*
X159500598Y-90510898D01*
X159500598Y-90510898D02*
X159595836Y-90558517D01*
X159595836Y-90558517D02*
X159643455Y-90606136D01*
X159643455Y-90606136D02*
X159691074Y-90701374D01*
X159691074Y-90701374D02*
X159691074Y-90796612D01*
X159691074Y-90796612D02*
X159643455Y-90939469D01*
X159643455Y-90939469D02*
X159072027Y-91510898D01*
X159072027Y-91510898D02*
X159691074Y-91510898D01*
X160262503Y-90939469D02*
X160167265Y-90891850D01*
X160167265Y-90891850D02*
X160119646Y-90844231D01*
X160119646Y-90844231D02*
X160072027Y-90748993D01*
X160072027Y-90748993D02*
X160072027Y-90701374D01*
X160072027Y-90701374D02*
X160119646Y-90606136D01*
X160119646Y-90606136D02*
X160167265Y-90558517D01*
X160167265Y-90558517D02*
X160262503Y-90510898D01*
X160262503Y-90510898D02*
X160452979Y-90510898D01*
X160452979Y-90510898D02*
X160548217Y-90558517D01*
X160548217Y-90558517D02*
X160595836Y-90606136D01*
X160595836Y-90606136D02*
X160643455Y-90701374D01*
X160643455Y-90701374D02*
X160643455Y-90748993D01*
X160643455Y-90748993D02*
X160595836Y-90844231D01*
X160595836Y-90844231D02*
X160548217Y-90891850D01*
X160548217Y-90891850D02*
X160452979Y-90939469D01*
X160452979Y-90939469D02*
X160262503Y-90939469D01*
X160262503Y-90939469D02*
X160167265Y-90987088D01*
X160167265Y-90987088D02*
X160119646Y-91034707D01*
X160119646Y-91034707D02*
X160072027Y-91129945D01*
X160072027Y-91129945D02*
X160072027Y-91320421D01*
X160072027Y-91320421D02*
X160119646Y-91415659D01*
X160119646Y-91415659D02*
X160167265Y-91463279D01*
X160167265Y-91463279D02*
X160262503Y-91510898D01*
X160262503Y-91510898D02*
X160452979Y-91510898D01*
X160452979Y-91510898D02*
X160548217Y-91463279D01*
X160548217Y-91463279D02*
X160595836Y-91415659D01*
X160595836Y-91415659D02*
X160643455Y-91320421D01*
X160643455Y-91320421D02*
X160643455Y-91129945D01*
X160643455Y-91129945D02*
X160595836Y-91034707D01*
X160595836Y-91034707D02*
X160548217Y-90987088D01*
X160548217Y-90987088D02*
X160452979Y-90939469D01*
X155147180Y-91040357D02*
X155194800Y-91087976D01*
X155194800Y-91087976D02*
X155242419Y-91230833D01*
X155242419Y-91230833D02*
X155242419Y-91326071D01*
X155242419Y-91326071D02*
X155194800Y-91468928D01*
X155194800Y-91468928D02*
X155099561Y-91564166D01*
X155099561Y-91564166D02*
X155004323Y-91611785D01*
X155004323Y-91611785D02*
X154813847Y-91659404D01*
X154813847Y-91659404D02*
X154670990Y-91659404D01*
X154670990Y-91659404D02*
X154480514Y-91611785D01*
X154480514Y-91611785D02*
X154385276Y-91564166D01*
X154385276Y-91564166D02*
X154290038Y-91468928D01*
X154290038Y-91468928D02*
X154242419Y-91326071D01*
X154242419Y-91326071D02*
X154242419Y-91230833D01*
X154242419Y-91230833D02*
X154290038Y-91087976D01*
X154290038Y-91087976D02*
X154337657Y-91040357D01*
X154337657Y-90659404D02*
X154290038Y-90611785D01*
X154290038Y-90611785D02*
X154242419Y-90516547D01*
X154242419Y-90516547D02*
X154242419Y-90278452D01*
X154242419Y-90278452D02*
X154290038Y-90183214D01*
X154290038Y-90183214D02*
X154337657Y-90135595D01*
X154337657Y-90135595D02*
X154432895Y-90087976D01*
X154432895Y-90087976D02*
X154528133Y-90087976D01*
X154528133Y-90087976D02*
X154670990Y-90135595D01*
X154670990Y-90135595D02*
X155242419Y-90707023D01*
X155242419Y-90707023D02*
X155242419Y-90087976D01*
X154242419Y-89183214D02*
X154242419Y-89659404D01*
X154242419Y-89659404D02*
X154718609Y-89707023D01*
X154718609Y-89707023D02*
X154670990Y-89659404D01*
X154670990Y-89659404D02*
X154623371Y-89564166D01*
X154623371Y-89564166D02*
X154623371Y-89326071D01*
X154623371Y-89326071D02*
X154670990Y-89230833D01*
X154670990Y-89230833D02*
X154718609Y-89183214D01*
X154718609Y-89183214D02*
X154813847Y-89135595D01*
X154813847Y-89135595D02*
X155051942Y-89135595D01*
X155051942Y-89135595D02*
X155147180Y-89183214D01*
X155147180Y-89183214D02*
X155194800Y-89230833D01*
X155194800Y-89230833D02*
X155242419Y-89326071D01*
X155242419Y-89326071D02*
X155242419Y-89564166D01*
X155242419Y-89564166D02*
X155194800Y-89659404D01*
X155194800Y-89659404D02*
X155147180Y-89707023D01*
D12*
%TO.C,U12*%
X144752800Y-102436400D02*
X145727800Y-102436400D01*
X144752800Y-103411400D02*
X144752800Y-102436400D01*
X144752800Y-106656400D02*
X144752800Y-105681400D01*
X145727800Y-106656400D02*
X144752800Y-106656400D01*
X147997800Y-102436400D02*
X148972800Y-102436400D01*
X148972800Y-102436400D02*
X148972800Y-103411400D01*
X148972800Y-105681400D02*
X148972800Y-106656400D01*
X148972800Y-106656400D02*
X147997800Y-106656400D01*
X146352800Y-107516400D02*
X145872800Y-107516400D01*
X146112800Y-107186400D01*
X146352800Y-107516400D01*
G36*
X146352800Y-107516400D02*
G01*
X145872800Y-107516400D01*
X146112800Y-107186400D01*
X146352800Y-107516400D01*
G37*
%TO.C,C2*%
X141187533Y-100118548D02*
X141480067Y-100118548D01*
X141187533Y-101138548D02*
X141480067Y-101138548D01*
%TO.C,C29*%
X162262433Y-92301600D02*
X162554967Y-92301600D01*
X162262433Y-93321600D02*
X162554967Y-93321600D01*
%TO.C,C1*%
X141188633Y-101590648D02*
X141481167Y-101590648D01*
X141188633Y-102610648D02*
X141481167Y-102610648D01*
%TO.C,J1*%
X171843531Y-101708400D02*
X172276544Y-101958400D01*
X171843531Y-102208400D02*
X171843531Y-101708400D01*
X172276544Y-101958400D02*
X171843531Y-102208400D01*
X172737869Y-80933400D02*
X182317869Y-80933400D01*
X172737869Y-111903400D02*
X172737869Y-80933400D01*
X182317869Y-111903400D02*
X172737869Y-111903400D01*
%TO.C,J8*%
X116433200Y-86894000D02*
X116433200Y-85894000D01*
X116433200Y-86894000D02*
X117433200Y-86894000D01*
X116723200Y-83184000D02*
X116723200Y-86604000D01*
X116723200Y-86604000D02*
X121193200Y-86604000D01*
X117033200Y-84544000D02*
X117233200Y-84544000D01*
X117033200Y-85344000D02*
X117033200Y-84544000D01*
X117233200Y-83694000D02*
X118958200Y-83694000D01*
X117233200Y-84544000D02*
X117233200Y-83694000D01*
X117233200Y-85344000D02*
X117033200Y-85344000D01*
X117233200Y-86094000D02*
X117233200Y-85344000D01*
X118958200Y-86094000D02*
X117233200Y-86094000D01*
X118958200Y-86094000D02*
X120683200Y-86094000D01*
X120683200Y-83694000D02*
X118958200Y-83694000D01*
X120683200Y-84544000D02*
X120683200Y-83694000D01*
X120683200Y-85344000D02*
X120883200Y-85344000D01*
X120683200Y-86094000D02*
X120683200Y-85344000D01*
X120883200Y-84544000D02*
X120683200Y-84544000D01*
X120883200Y-85344000D02*
X120883200Y-84544000D01*
X121193200Y-83184000D02*
X116723200Y-83184000D01*
X121193200Y-86604000D02*
X121193200Y-83184000D01*
D13*
%TO.C,U1*%
X113862800Y-108882000D02*
X113862800Y-90882000D01*
X117062800Y-87682000D02*
X149662800Y-87682000D01*
X149662800Y-87682000D02*
X149662800Y-112082000D01*
X149662800Y-112082000D02*
X117062800Y-112082000D01*
X113862800Y-90882000D02*
G75*
G02*
X117062800Y-87682000I3200000J0D01*
G01*
X117062800Y-112082000D02*
G75*
G02*
X113862800Y-108882000I-1J3199999D01*
G01*
D12*
%TO.C,C23*%
X149985000Y-97377467D02*
X149985000Y-97084933D01*
X151005000Y-97377467D02*
X151005000Y-97084933D01*
%TO.C,C18*%
X160806490Y-109717044D02*
X160513956Y-109717044D01*
X160806490Y-110737044D02*
X160513956Y-110737044D01*
%TO.C,C34*%
X148298433Y-107432900D02*
X148590967Y-107432900D01*
X148298433Y-108452900D02*
X148590967Y-108452900D01*
%TO.C,REF\u002A\u002A*%
X115725200Y-76242800D02*
X115725200Y-52242800D01*
X122475200Y-48482800D02*
X122475200Y-49182800D01*
X122475200Y-49182800D02*
X118785200Y-49182800D01*
X122825200Y-73142800D02*
X124155200Y-73142800D01*
X122825200Y-74472800D02*
X122825200Y-73142800D01*
X122825200Y-75742800D02*
X125425200Y-75742800D01*
X122825200Y-78342800D02*
X122825200Y-75742800D01*
X122825200Y-78342800D02*
X173745200Y-78342800D01*
X125425200Y-73142800D02*
X173745200Y-73142800D01*
X125425200Y-75742800D02*
X125425200Y-73142800D01*
X133895200Y-48482800D02*
X122475200Y-48482800D01*
X133895200Y-49182800D02*
X133895200Y-48482800D01*
X153125200Y-47382800D02*
X153125200Y-49182800D01*
X153125200Y-49182800D02*
X133895200Y-49182800D01*
X161245200Y-47382800D02*
X153125200Y-47382800D01*
X161245200Y-49182800D02*
X161245200Y-47382800D01*
X165725200Y-47382800D02*
X165725200Y-49182800D01*
X165725200Y-49182800D02*
X161245200Y-49182800D01*
X173745200Y-78342800D02*
X173745200Y-73142800D01*
X173845200Y-47382800D02*
X165725200Y-47382800D01*
X173845200Y-49182800D02*
X173845200Y-47382800D01*
X177785200Y-49182800D02*
X173845200Y-49182800D01*
X177785200Y-79302800D02*
X118785200Y-79302800D01*
X180845200Y-55682800D02*
X180845200Y-52242800D01*
X180845200Y-72802800D02*
X180845200Y-76242800D01*
X180845200Y-72802800D02*
X182045200Y-72802800D01*
X182045200Y-55682800D02*
X180845200Y-55682800D01*
X182045200Y-72802800D02*
X182045200Y-55682800D01*
X115725200Y-52242800D02*
G75*
G02*
X118785200Y-49182800I3060000J0D01*
G01*
X118785200Y-79302800D02*
G75*
G02*
X115725200Y-76242800I-1J3059999D01*
G01*
X177785200Y-49182800D02*
G75*
G02*
X180845200Y-52242800I0J-3060000D01*
G01*
X180845200Y-76242800D02*
G75*
G02*
X177785200Y-79302800I-3059999J-1D01*
G01*
%TO.C,J2*%
X120894800Y-108652000D02*
X122224800Y-108652000D01*
X120894800Y-109982000D02*
X120894800Y-108652000D01*
X123494800Y-108652000D02*
X141334800Y-108652000D01*
X123494800Y-111312000D02*
X123494800Y-108652000D01*
X123494800Y-111312000D02*
X141334800Y-111312000D01*
X141334800Y-111312000D02*
X141334800Y-108652000D01*
%TO.C,C31*%
X167374201Y-89426833D02*
X167374201Y-89719367D01*
X168394201Y-89426833D02*
X168394201Y-89719367D01*
%TO.C,C20*%
X165193267Y-97229200D02*
X164900733Y-97229200D01*
X165193267Y-98249200D02*
X164900733Y-98249200D01*
%TO.C,C24*%
X161062301Y-84589667D02*
X161062301Y-84297133D01*
X162082301Y-84589667D02*
X162082301Y-84297133D01*
%TO.C,C35*%
X148307033Y-108920300D02*
X148599567Y-108920300D01*
X148307033Y-109940300D02*
X148599567Y-109940300D01*
D14*
%TO.C,U9*%
X151723979Y-93987750D02*
X151723979Y-94682310D01*
X151723979Y-98652590D02*
X151723979Y-99347150D01*
X151723979Y-99347150D02*
X152315240Y-99347150D01*
X152315240Y-93987750D02*
X151723979Y-93987750D01*
X154485518Y-99347150D02*
X155076779Y-99347150D01*
X155076779Y-93987750D02*
X154485518Y-93987750D01*
X155076779Y-94682310D02*
X155076779Y-93987750D01*
X155076779Y-99347150D02*
X155076779Y-98652590D01*
D15*
G36*
X151292179Y-95357950D02*
G01*
X151038179Y-95357950D01*
X151038179Y-94976950D01*
X151292179Y-94976950D01*
X151292179Y-95357950D01*
G37*
D14*
%TO.C,U3*%
X142867126Y-104741726D02*
G75*
G02*
X142663926Y-104741726I-101600J0D01*
G01*
X142663926Y-104741726D02*
G75*
G02*
X142867126Y-104741726I101600J0D01*
G01*
D12*
%TO.C,J10*%
X131799400Y-85875800D02*
X131799400Y-84875800D01*
X131799400Y-85875800D02*
X132799400Y-85875800D01*
X132089400Y-82165800D02*
X132089400Y-85585800D01*
X132089400Y-85585800D02*
X144059400Y-85585800D01*
X132399400Y-83525800D02*
X132599400Y-83525800D01*
X132399400Y-84325800D02*
X132399400Y-83525800D01*
X132599400Y-82675800D02*
X138074400Y-82675800D01*
X132599400Y-83525800D02*
X132599400Y-82675800D01*
X132599400Y-84325800D02*
X132399400Y-84325800D01*
X132599400Y-85075800D02*
X132599400Y-84325800D01*
X138074400Y-85075800D02*
X132599400Y-85075800D01*
X138074400Y-85075800D02*
X143549400Y-85075800D01*
X143549400Y-82675800D02*
X138074400Y-82675800D01*
X143549400Y-83525800D02*
X143549400Y-82675800D01*
X143549400Y-84325800D02*
X143749400Y-84325800D01*
X143549400Y-85075800D02*
X143549400Y-84325800D01*
X143749400Y-83525800D02*
X143549400Y-83525800D01*
X143749400Y-84325800D02*
X143749400Y-83525800D01*
X144059400Y-82165800D02*
X132089400Y-82165800D01*
X144059400Y-85585800D02*
X144059400Y-82165800D01*
%TO.C,C32*%
X145511567Y-99083400D02*
X145219033Y-99083400D01*
X145511567Y-100103400D02*
X145219033Y-100103400D01*
%TO.C,U10*%
X156071401Y-83856300D02*
X157046401Y-83856300D01*
X156071401Y-84831300D02*
X156071401Y-83856300D01*
X156071401Y-88076300D02*
X156071401Y-87101300D01*
X157046401Y-88076300D02*
X156071401Y-88076300D01*
X159316401Y-83856300D02*
X160291401Y-83856300D01*
X160291401Y-83856300D02*
X160291401Y-84831300D01*
X160291401Y-87101300D02*
X160291401Y-88076300D01*
X160291401Y-88076300D02*
X159316401Y-88076300D01*
X155541401Y-85216300D02*
X155211401Y-85456300D01*
X155211401Y-84976300D01*
X155541401Y-85216300D01*
G36*
X155541401Y-85216300D02*
G01*
X155211401Y-85456300D01*
X155211401Y-84976300D01*
X155541401Y-85216300D01*
G37*
%TO.C,C4*%
X137132600Y-105732967D02*
X137132600Y-105440433D01*
X138152600Y-105732967D02*
X138152600Y-105440433D01*
%TO.C,C21*%
X168147125Y-105384512D02*
X168439659Y-105384512D01*
X168147125Y-106404512D02*
X168439659Y-106404512D01*
%TO.C,C33*%
X145486167Y-100556600D02*
X145193633Y-100556600D01*
X145486167Y-101576600D02*
X145193633Y-101576600D01*
D14*
%TO.C,U7*%
X157429200Y-105664000D02*
X157429200Y-106255261D01*
X157429200Y-108425539D02*
X157429200Y-109016800D01*
X157429200Y-109016800D02*
X158123760Y-109016800D01*
X158123760Y-105664000D02*
X157429200Y-105664000D01*
X162094040Y-109016800D02*
X162788600Y-109016800D01*
X162788600Y-105664000D02*
X162094040Y-105664000D01*
X162788600Y-106255261D02*
X162788600Y-105664000D01*
X162788600Y-109016800D02*
X162788600Y-108425539D01*
D15*
G36*
X158799400Y-109702600D02*
G01*
X158418400Y-109702600D01*
X158418400Y-109448600D01*
X158799400Y-109448600D01*
X158799400Y-109702600D01*
G37*
%TO.C,G\u002A\u002A\u002A*%
G36*
X169733599Y-58443353D02*
G01*
X169695016Y-58595133D01*
X169623812Y-58869425D01*
X169528448Y-59233848D01*
X169417388Y-59656019D01*
X169351473Y-59905656D01*
X169023106Y-61147612D01*
X168395621Y-61171131D01*
X168082208Y-61179731D01*
X167898887Y-61172317D01*
X167815801Y-61142748D01*
X167803093Y-61084879D01*
X167811475Y-61050942D01*
X167844493Y-60928230D01*
X167908686Y-60678729D01*
X167996753Y-60331213D01*
X168101392Y-59914456D01*
X168188503Y-59565120D01*
X168522192Y-58223006D01*
X169154775Y-58223006D01*
X169787358Y-58223006D01*
X169733599Y-58443353D01*
G37*
G36*
X159211962Y-58224084D02*
G01*
X159575677Y-58228787D01*
X159821624Y-58239322D01*
X159971038Y-58257894D01*
X160045160Y-58286711D01*
X160065228Y-58327978D01*
X160059142Y-58363227D01*
X160013846Y-58527677D01*
X159950878Y-58765510D01*
X159931626Y-58839673D01*
X159870150Y-59044041D01*
X159789580Y-59146041D01*
X159637117Y-59186766D01*
X159468372Y-59200241D01*
X159091940Y-59224584D01*
X158842040Y-60186098D01*
X158592140Y-61147612D01*
X157978443Y-61171014D01*
X157648726Y-61176285D01*
X157454675Y-61159138D01*
X157372878Y-61116510D01*
X157366352Y-61090888D01*
X157386220Y-60972405D01*
X157438322Y-60738399D01*
X157513622Y-60428193D01*
X157565062Y-60226161D01*
X157672097Y-59807201D01*
X157735772Y-59519011D01*
X157752520Y-59337127D01*
X157718774Y-59237086D01*
X157630968Y-59194426D01*
X157485535Y-59184681D01*
X157413197Y-59184521D01*
X157061017Y-59184521D01*
X157189829Y-58703763D01*
X157318642Y-58223006D01*
X158709239Y-58223006D01*
X159211962Y-58224084D01*
G37*
G36*
X150875544Y-58223640D02*
G01*
X151054984Y-58242012D01*
X151154355Y-58302830D01*
X151182982Y-58430800D01*
X151150191Y-58650629D01*
X151065309Y-58987024D01*
X150994513Y-59250397D01*
X150908320Y-59579418D01*
X150840756Y-59851209D01*
X150801041Y-60027930D01*
X150794399Y-60071691D01*
X150867654Y-60108724D01*
X151060079Y-60135357D01*
X151330666Y-60146019D01*
X151341928Y-60146035D01*
X151622884Y-60152028D01*
X151835163Y-60167750D01*
X151933224Y-60189810D01*
X151933480Y-60190057D01*
X151935960Y-60284206D01*
X151897525Y-60483565D01*
X151841998Y-60690846D01*
X151706493Y-61147612D01*
X150479343Y-61169784D01*
X150011802Y-61177042D01*
X149681833Y-61177639D01*
X149466814Y-61169290D01*
X149344125Y-61149712D01*
X149291144Y-61116619D01*
X149285251Y-61067727D01*
X149289294Y-61049595D01*
X149320880Y-60927584D01*
X149385073Y-60679024D01*
X149474482Y-60332549D01*
X149581718Y-59916789D01*
X149672392Y-59565120D01*
X150018388Y-58223006D01*
X150606709Y-58223006D01*
X150875544Y-58223640D01*
G37*
G36*
X136963666Y-58884047D02*
G01*
X137052970Y-59304164D01*
X137119390Y-59571918D01*
X137173581Y-59691651D01*
X137226198Y-59667705D01*
X137287893Y-59504422D01*
X137369322Y-59206142D01*
X137406094Y-59064331D01*
X137613642Y-58263069D01*
X138237003Y-58239625D01*
X138548800Y-58229831D01*
X138731046Y-58235210D01*
X138814302Y-58264261D01*
X138829130Y-58325486D01*
X138813154Y-58399877D01*
X138777390Y-58537459D01*
X138708942Y-58799423D01*
X138615823Y-59155154D01*
X138506047Y-59574034D01*
X138429574Y-59865593D01*
X138093204Y-61147612D01*
X137412729Y-61147612D01*
X136732254Y-61147612D01*
X136556709Y-60477956D01*
X136473676Y-60171871D01*
X136402920Y-59930426D01*
X136355772Y-59791542D01*
X136346199Y-59773334D01*
X136313406Y-59829798D01*
X136254084Y-60010201D01*
X136178194Y-60282440D01*
X136132177Y-60463021D01*
X135953122Y-61187675D01*
X135361142Y-61187675D01*
X135040319Y-61176774D01*
X134835595Y-61146225D01*
X134769163Y-61102862D01*
X134788226Y-60994053D01*
X134840003Y-60762928D01*
X134916375Y-60442130D01*
X135009224Y-60064307D01*
X135110432Y-59662104D01*
X135211880Y-59268167D01*
X135305450Y-58915142D01*
X135380720Y-58643669D01*
X135501669Y-58223006D01*
X136163411Y-58223006D01*
X136825152Y-58223006D01*
X136963666Y-58884047D01*
G37*
G36*
X130804962Y-58159607D02*
G01*
X131185565Y-58191678D01*
X131500430Y-58237783D01*
X131713191Y-58293125D01*
X131776636Y-58328693D01*
X131785342Y-58426064D01*
X131758008Y-58626079D01*
X131724453Y-58783535D01*
X131626353Y-59192461D01*
X131094165Y-59140021D01*
X130537233Y-59131658D01*
X130095002Y-59226062D01*
X129771287Y-59421254D01*
X129569901Y-59715259D01*
X129505704Y-59963558D01*
X129500403Y-60220341D01*
X129578178Y-60390212D01*
X129602124Y-60416130D01*
X129778903Y-60528637D01*
X129925741Y-60484317D01*
X130041046Y-60284067D01*
X130081656Y-60145658D01*
X130169139Y-59785467D01*
X130820390Y-59762295D01*
X131471642Y-59739122D01*
X131297532Y-60403304D01*
X131123421Y-61067486D01*
X130682727Y-61159917D01*
X130316630Y-61214358D01*
X129889474Y-61244173D01*
X129455844Y-61248802D01*
X129070324Y-61227680D01*
X128787499Y-61180247D01*
X128784771Y-61179464D01*
X128551791Y-61061852D01*
X128355197Y-60886217D01*
X128259689Y-60741965D01*
X128214298Y-60584627D01*
X128209332Y-60359669D01*
X128223633Y-60145935D01*
X128291854Y-59691992D01*
X128412778Y-59252234D01*
X128570323Y-58871850D01*
X128748407Y-58596033D01*
X128790988Y-58551754D01*
X129098899Y-58357790D01*
X129535259Y-58223490D01*
X130077635Y-58154525D01*
X130394989Y-58146370D01*
X130804962Y-58159607D01*
G37*
G36*
X162721465Y-58223127D02*
G01*
X163083544Y-58352732D01*
X163294664Y-58522385D01*
X163420765Y-58805545D01*
X163449114Y-59198986D01*
X163379741Y-59686027D01*
X163291997Y-60013737D01*
X163115423Y-60472423D01*
X162899968Y-60798591D01*
X162622288Y-61019223D01*
X162312013Y-61146294D01*
X162002188Y-61208602D01*
X161609619Y-61246602D01*
X161192302Y-61258849D01*
X160808235Y-61243896D01*
X160515412Y-61200299D01*
X160484988Y-61191823D01*
X160130880Y-61030179D01*
X159907375Y-60792598D01*
X159807963Y-60466338D01*
X159825396Y-60055973D01*
X161080387Y-60055973D01*
X161113124Y-60241041D01*
X161128567Y-60263681D01*
X161305617Y-60365835D01*
X161542231Y-60374091D01*
X161770419Y-60291564D01*
X161847220Y-60230753D01*
X161996250Y-60021338D01*
X162099659Y-59764092D01*
X162142480Y-59514961D01*
X162109744Y-59329893D01*
X162094301Y-59307252D01*
X161917251Y-59205099D01*
X161680637Y-59196843D01*
X161452448Y-59279369D01*
X161375648Y-59340181D01*
X161226618Y-59549596D01*
X161123208Y-59806842D01*
X161080387Y-60055973D01*
X159825396Y-60055973D01*
X159826132Y-60038652D01*
X159843857Y-59936937D01*
X159986816Y-59348103D01*
X160171652Y-58900014D01*
X160416472Y-58574932D01*
X160739386Y-58355123D01*
X161158503Y-58222849D01*
X161655546Y-58162529D01*
X162240201Y-58158571D01*
X162721465Y-58223127D01*
G37*
G36*
X156883989Y-59705341D02*
G01*
X156883989Y-61187675D01*
X156283043Y-61187675D01*
X155977376Y-61185179D01*
X155798202Y-61170188D01*
X155711763Y-61131452D01*
X155684305Y-61057717D01*
X155682096Y-60987360D01*
X155673565Y-60881714D01*
X155624412Y-60821780D01*
X155499297Y-60794623D01*
X155262881Y-60787310D01*
X155134753Y-60787044D01*
X154839955Y-60792216D01*
X154662350Y-60816494D01*
X154558990Y-60873023D01*
X154486925Y-60974945D01*
X154480204Y-60987360D01*
X154417422Y-61085309D01*
X154333075Y-61144745D01*
X154189859Y-61175229D01*
X153950472Y-61186324D01*
X153698788Y-61187675D01*
X153396834Y-61180561D01*
X153171505Y-61161579D01*
X153057842Y-61134269D01*
X153051287Y-61122267D01*
X153098491Y-61036378D01*
X153214881Y-60834299D01*
X153387844Y-60537642D01*
X153604767Y-60168018D01*
X153711530Y-59986986D01*
X155121213Y-59986986D01*
X155191654Y-60039153D01*
X155364863Y-60065227D01*
X155401655Y-60065909D01*
X155682096Y-60065909D01*
X155682096Y-59585151D01*
X155677069Y-59331550D01*
X155664003Y-59157343D01*
X155648906Y-59104394D01*
X155588765Y-59167461D01*
X155480900Y-59325963D01*
X155352844Y-59533852D01*
X155232127Y-59745079D01*
X155146282Y-59913597D01*
X155121213Y-59986986D01*
X153711530Y-59986986D01*
X153853036Y-59747042D01*
X153916378Y-59639932D01*
X154754761Y-58223006D01*
X155819375Y-58223006D01*
X156883989Y-58223006D01*
X156883989Y-59705341D01*
G37*
G36*
X134106115Y-58225277D02*
G01*
X134508676Y-58231577D01*
X134827126Y-58241142D01*
X135034937Y-58253204D01*
X135105087Y-58265135D01*
X135108246Y-58358936D01*
X135072556Y-58557434D01*
X135025129Y-58745892D01*
X134903043Y-59184521D01*
X134044186Y-59184521D01*
X133662047Y-59186868D01*
X133410734Y-59197345D01*
X133260848Y-59221102D01*
X133182991Y-59263289D01*
X133147762Y-59329059D01*
X133144089Y-59342225D01*
X133135728Y-59412142D01*
X133172048Y-59458858D01*
X133279666Y-59488245D01*
X133485196Y-59506176D01*
X133815256Y-59518522D01*
X133961275Y-59522509D01*
X134819703Y-59545088D01*
X134752777Y-59802804D01*
X134685851Y-60060519D01*
X133827037Y-60083245D01*
X133441248Y-60096592D01*
X133187647Y-60115663D01*
X133038167Y-60145622D01*
X132964744Y-60191633D01*
X132941367Y-60246193D01*
X132944041Y-60310431D01*
X133000124Y-60351530D01*
X133137177Y-60374530D01*
X133382765Y-60384469D01*
X133708293Y-60386413D01*
X134048989Y-60390574D01*
X134325961Y-60401779D01*
X134502577Y-60418110D01*
X134545922Y-60430260D01*
X134551970Y-60526770D01*
X134515627Y-60718196D01*
X134490406Y-60810860D01*
X134391043Y-61147612D01*
X132937516Y-61169451D01*
X132474943Y-61173583D01*
X132073147Y-61171788D01*
X131757307Y-61164624D01*
X131552597Y-61152645D01*
X131483989Y-61137325D01*
X131503283Y-61046143D01*
X131556917Y-60825349D01*
X131638521Y-60500323D01*
X131741724Y-60096448D01*
X131856489Y-59653183D01*
X132228989Y-58223006D01*
X133645974Y-58223006D01*
X134106115Y-58225277D01*
G37*
G36*
X171767968Y-58229992D02*
G01*
X171935105Y-58234423D01*
X172311281Y-58248960D01*
X172625945Y-58267386D01*
X172846233Y-58287341D01*
X172939282Y-58306465D01*
X172939347Y-58306529D01*
X172941370Y-58400266D01*
X172902604Y-58599662D01*
X172845490Y-58812495D01*
X172708190Y-59275002D01*
X172053803Y-59289856D01*
X171712480Y-59303733D01*
X171487469Y-59333472D01*
X171334924Y-59389429D01*
X171211001Y-59481961D01*
X171200938Y-59491322D01*
X171011355Y-59742502D01*
X170962010Y-59992495D01*
X171057057Y-60214602D01*
X171083859Y-60243696D01*
X171200459Y-60334234D01*
X171344879Y-60370698D01*
X171571024Y-60362333D01*
X171695508Y-60348618D01*
X171984649Y-60309957D01*
X172235728Y-60269565D01*
X172341486Y-60248292D01*
X172477929Y-60233888D01*
X172496354Y-60299226D01*
X172486405Y-60328667D01*
X172439094Y-60491215D01*
X172388481Y-60718864D01*
X172383779Y-60743462D01*
X172291546Y-60988226D01*
X172158734Y-61124442D01*
X172010665Y-61165372D01*
X171743610Y-61203749D01*
X171398820Y-61234642D01*
X171106387Y-61250225D01*
X170713618Y-61262519D01*
X170443143Y-61260941D01*
X170257243Y-61240374D01*
X170118198Y-61195697D01*
X169988291Y-61121792D01*
X169944557Y-61092540D01*
X169785762Y-60971624D01*
X169698102Y-60848030D01*
X169656257Y-60666576D01*
X169637696Y-60423734D01*
X169656626Y-59808561D01*
X169780298Y-59273926D01*
X170001235Y-58835763D01*
X170311961Y-58510008D01*
X170613742Y-58343477D01*
X170816122Y-58280905D01*
X171050390Y-58243243D01*
X171354891Y-58227327D01*
X171767968Y-58229992D01*
G37*
G36*
X175826952Y-58179250D02*
G01*
X176369789Y-58237383D01*
X176317885Y-58530668D01*
X176270682Y-58791693D01*
X176218785Y-58958630D01*
X176129487Y-59052433D01*
X175970087Y-59094061D01*
X175707878Y-59104470D01*
X175422533Y-59104394D01*
X174959370Y-59119145D01*
X174625559Y-59161953D01*
X174430205Y-59230658D01*
X174382410Y-59323094D01*
X174394045Y-59348793D01*
X174491130Y-59384665D01*
X174706291Y-59411437D01*
X174997414Y-59424377D01*
X175071546Y-59424899D01*
X175392409Y-59428830D01*
X175596021Y-59448466D01*
X175725332Y-59495573D01*
X175823294Y-59581914D01*
X175875154Y-59645014D01*
X175996391Y-59924448D01*
X175988582Y-60273721D01*
X175852728Y-60669035D01*
X175830183Y-60713973D01*
X175704638Y-60903773D01*
X175536736Y-61042407D01*
X175301368Y-61137741D01*
X174973426Y-61197646D01*
X174527801Y-61229989D01*
X174151181Y-61240154D01*
X173745481Y-61243489D01*
X173387275Y-61240676D01*
X173112712Y-61232394D01*
X172957946Y-61219326D01*
X172949289Y-61217505D01*
X172737627Y-61159076D01*
X172648741Y-61087910D01*
X172654085Y-60952763D01*
X172703459Y-60776217D01*
X172804344Y-60434539D01*
X173581756Y-60457167D01*
X174023922Y-60459494D01*
X174317763Y-60435659D01*
X174473198Y-60384811D01*
X174479315Y-60380082D01*
X174547444Y-60276230D01*
X174462782Y-60203231D01*
X174223677Y-60160456D01*
X173868537Y-60147262D01*
X173475845Y-60126090D01*
X173215824Y-60053000D01*
X173064601Y-59910342D01*
X172998302Y-59680465D01*
X172989352Y-59497290D01*
X173048727Y-59032294D01*
X173223140Y-58667726D01*
X173507025Y-58413404D01*
X173640635Y-58348434D01*
X173967699Y-58257501D01*
X174404528Y-58191967D01*
X174902097Y-58155625D01*
X175411383Y-58152267D01*
X175826952Y-58179250D01*
G37*
G36*
X141532896Y-58226421D02*
G01*
X141797957Y-58243610D01*
X141960540Y-58282604D01*
X142039886Y-58352018D01*
X142055236Y-58460464D01*
X142025831Y-58616557D01*
X141971007Y-58828534D01*
X141881368Y-59184521D01*
X141018838Y-59184521D01*
X140636071Y-59186773D01*
X140384131Y-59197005D01*
X140233613Y-59220424D01*
X140155117Y-59262242D01*
X140119240Y-59327667D01*
X140114400Y-59344773D01*
X140104598Y-59416360D01*
X140138203Y-59462699D01*
X140242238Y-59489258D01*
X140443726Y-59501506D01*
X140769690Y-59504910D01*
X140906317Y-59505025D01*
X141291353Y-59507367D01*
X141540736Y-59522298D01*
X141679067Y-59561679D01*
X141730942Y-59637367D01*
X141720961Y-59761222D01*
X141690324Y-59883002D01*
X141659195Y-59962207D01*
X141596639Y-60014813D01*
X141472714Y-60047491D01*
X141257478Y-60066908D01*
X140920992Y-60079732D01*
X140790948Y-60083317D01*
X140406956Y-60096714D01*
X140155042Y-60115947D01*
X140007031Y-60146239D01*
X139934749Y-60192812D01*
X139912345Y-60246193D01*
X139914908Y-60309665D01*
X139969994Y-60350594D01*
X140104827Y-60373809D01*
X140346628Y-60384138D01*
X140702866Y-60386413D01*
X141520244Y-60386413D01*
X141467012Y-60719307D01*
X141424383Y-60942832D01*
X141382642Y-61096306D01*
X141371916Y-61119938D01*
X141283440Y-61142004D01*
X141068354Y-61159738D01*
X140757292Y-61173059D01*
X140380886Y-61181886D01*
X139969769Y-61186140D01*
X139554574Y-61185740D01*
X139165934Y-61180605D01*
X138834482Y-61170656D01*
X138590850Y-61155813D01*
X138465672Y-61135994D01*
X138455504Y-61127581D01*
X138474893Y-61034130D01*
X138528390Y-60811600D01*
X138609538Y-60485942D01*
X138711878Y-60083111D01*
X138816072Y-59678701D01*
X138931644Y-59231114D01*
X139031824Y-58839739D01*
X139110203Y-58529897D01*
X139160371Y-58326909D01*
X139176103Y-58256461D01*
X139252014Y-58245774D01*
X139462891Y-58236500D01*
X139783450Y-58229224D01*
X140188407Y-58224534D01*
X140618374Y-58223006D01*
X141146115Y-58222424D01*
X141532896Y-58226421D01*
G37*
G36*
X165566314Y-58523480D02*
G01*
X165594860Y-58776460D01*
X165614410Y-59100628D01*
X165619409Y-59304710D01*
X165624381Y-59565076D01*
X165640795Y-59689220D01*
X165678102Y-59701161D01*
X165745525Y-59625215D01*
X165838406Y-59481692D01*
X165978297Y-59239874D01*
X166139673Y-58944361D01*
X166192600Y-58843984D01*
X166516989Y-58223006D01*
X167349385Y-58223006D01*
X167734809Y-58230418D01*
X168012623Y-58251301D01*
X168161891Y-58283628D01*
X168181781Y-58303623D01*
X168162236Y-58404004D01*
X168108011Y-58632614D01*
X168025720Y-58962842D01*
X167921980Y-59368076D01*
X167821213Y-59754144D01*
X167704783Y-60198207D01*
X167604003Y-60585851D01*
X167525414Y-60891647D01*
X167475558Y-61090166D01*
X167460645Y-61155861D01*
X167387052Y-61171069D01*
X167192385Y-61182319D01*
X166915810Y-61187537D01*
X166859699Y-61187675D01*
X166572435Y-61181951D01*
X166359939Y-61166810D01*
X166261373Y-61145298D01*
X166258752Y-61140931D01*
X166277308Y-61046745D01*
X166326686Y-60837062D01*
X166397458Y-60551501D01*
X166423080Y-60450579D01*
X166494684Y-60151564D01*
X166541800Y-59917593D01*
X166557009Y-59787117D01*
X166553729Y-59773294D01*
X166502033Y-59823493D01*
X166388482Y-59985541D01*
X166231179Y-60232407D01*
X166091416Y-60463645D01*
X165662781Y-61187675D01*
X165326593Y-61187675D01*
X164990406Y-61187675D01*
X164939306Y-60566697D01*
X164905033Y-60161093D01*
X164879013Y-59893798D01*
X164857465Y-59743320D01*
X164836612Y-59688169D01*
X164812676Y-59706852D01*
X164794913Y-59745404D01*
X164752455Y-59875272D01*
X164683049Y-60115614D01*
X164599488Y-60421658D01*
X164571722Y-60526634D01*
X164398295Y-61187675D01*
X163806126Y-61187675D01*
X163521195Y-61181755D01*
X163311321Y-61166113D01*
X163215954Y-61143923D01*
X163213958Y-61140005D01*
X163233228Y-61050907D01*
X163286808Y-60831997D01*
X163368346Y-60508474D01*
X163471494Y-60105535D01*
X163587483Y-59657670D01*
X163961008Y-58223006D01*
X164738829Y-58223006D01*
X165516649Y-58223006D01*
X165566314Y-58523480D01*
G37*
G36*
X149111749Y-59705341D02*
G01*
X149111749Y-61187675D01*
X148510803Y-61187675D01*
X148205136Y-61185179D01*
X148025962Y-61170188D01*
X147939523Y-61131452D01*
X147912066Y-61057717D01*
X147909857Y-60987360D01*
X147901417Y-60882034D01*
X147852631Y-60822111D01*
X147728293Y-60794807D01*
X147493201Y-60787340D01*
X147358189Y-60787044D01*
X147059961Y-60792605D01*
X146877151Y-60818095D01*
X146765066Y-60876721D01*
X146679012Y-60981693D01*
X146674038Y-60989239D01*
X146541555Y-61191433D01*
X145162457Y-61169522D01*
X143783358Y-61147612D01*
X143542980Y-60768488D01*
X143402389Y-60560848D01*
X143291619Y-60422517D01*
X143247164Y-60387889D01*
X143195567Y-60456890D01*
X143125302Y-60634584D01*
X143084469Y-60767013D01*
X142977211Y-61147612D01*
X142358676Y-61171014D01*
X142035856Y-61177311D01*
X141844298Y-61163344D01*
X141755827Y-61124983D01*
X141740140Y-61080361D01*
X141759343Y-60975809D01*
X141811605Y-60748006D01*
X141888903Y-60428600D01*
X141983218Y-60049237D01*
X142086528Y-59641566D01*
X142120461Y-59510001D01*
X143428949Y-59510001D01*
X143470550Y-59623607D01*
X143624095Y-59662397D01*
X143741448Y-59665278D01*
X143982207Y-59639153D01*
X144133686Y-59541673D01*
X144189048Y-59468486D01*
X144273551Y-59282190D01*
X144226564Y-59166624D01*
X144039462Y-59112006D01*
X143868101Y-59104394D01*
X143641883Y-59118034D01*
X143525762Y-59173846D01*
X143473293Y-59284678D01*
X143428949Y-59510001D01*
X142120461Y-59510001D01*
X142190812Y-59237233D01*
X142288049Y-58867885D01*
X142370217Y-58565170D01*
X142429296Y-58360734D01*
X142430100Y-58358145D01*
X142457311Y-58305689D01*
X142516372Y-58268355D01*
X142630024Y-58244240D01*
X142821009Y-58231444D01*
X143112067Y-58228065D01*
X143525941Y-58232203D01*
X143867841Y-58237955D01*
X144382463Y-58249074D01*
X144760909Y-58262880D01*
X145027257Y-58282015D01*
X145205586Y-58309116D01*
X145319972Y-58346824D01*
X145394492Y-58397777D01*
X145403258Y-58406261D01*
X145515539Y-58620781D01*
X145544490Y-58915761D01*
X145500738Y-59241845D01*
X145394909Y-59549676D01*
X145237633Y-59789896D01*
X145081555Y-59900362D01*
X144855214Y-59987067D01*
X144723898Y-60037109D01*
X144542671Y-60105972D01*
X144834787Y-60546666D01*
X144993419Y-60782678D01*
X145120762Y-60966162D01*
X145185436Y-61052618D01*
X145241979Y-61006858D01*
X145366933Y-60841955D01*
X145547494Y-60576917D01*
X145770860Y-60230750D01*
X145910869Y-60005135D01*
X147282201Y-60005135D01*
X147335768Y-60042601D01*
X147502058Y-60063989D01*
X147582675Y-60065909D01*
X147909857Y-60065909D01*
X147909857Y-59585151D01*
X147900757Y-59331596D01*
X147877105Y-59157424D01*
X147849762Y-59104476D01*
X147787794Y-59167424D01*
X147674978Y-59327658D01*
X147538286Y-59542376D01*
X147404692Y-59768775D01*
X147301167Y-59964053D01*
X147282201Y-60005135D01*
X145910869Y-60005135D01*
X146024230Y-59822462D01*
X146116188Y-59670792D01*
X146988405Y-58223708D01*
X148050077Y-58223357D01*
X149111749Y-58223006D01*
X149111749Y-59705341D01*
G37*
G36*
X122733200Y-55724871D02*
G01*
X122851197Y-55901535D01*
X123010865Y-56159837D01*
X123195106Y-56470020D01*
X123386817Y-56802326D01*
X123568898Y-57126998D01*
X123724250Y-57414278D01*
X123835771Y-57634410D01*
X123886361Y-57757635D01*
X123887237Y-57770861D01*
X123839595Y-57866189D01*
X123726167Y-58071912D01*
X123562522Y-58360362D01*
X123364233Y-58703871D01*
X123303229Y-58808541D01*
X123102587Y-59156301D01*
X122937256Y-59450989D01*
X122821212Y-59667055D01*
X122768432Y-59778949D01*
X122767174Y-59788569D01*
X122840611Y-59758474D01*
X123027354Y-59660479D01*
X123302691Y-59508116D01*
X123641910Y-59314921D01*
X123814271Y-59215093D01*
X124838244Y-58618976D01*
X125817426Y-59197086D01*
X126174054Y-59408665D01*
X126481892Y-59593228D01*
X126714184Y-59734587D01*
X126844174Y-59816556D01*
X126860359Y-59828058D01*
X126817591Y-59884400D01*
X126657664Y-60004945D01*
X126402705Y-60174652D01*
X126074846Y-60378481D01*
X125876693Y-60496611D01*
X124829276Y-61112304D01*
X123809787Y-60516391D01*
X123449997Y-60308802D01*
X123142146Y-60136333D01*
X122911072Y-60012496D01*
X122781616Y-59950804D01*
X122763065Y-59946978D01*
X122791360Y-60021675D01*
X122887709Y-60208711D01*
X123038336Y-60482639D01*
X123229468Y-60818011D01*
X123303917Y-60946111D01*
X123509126Y-61303395D01*
X123681345Y-61614562D01*
X123805817Y-61852072D01*
X123867783Y-61988382D01*
X123872002Y-62006260D01*
X123834171Y-62102895D01*
X123732220Y-62302139D01*
X123583463Y-62574200D01*
X123405212Y-62889284D01*
X123214779Y-63217599D01*
X123029479Y-63529353D01*
X122866624Y-63794754D01*
X122743526Y-63984007D01*
X122677498Y-64067322D01*
X122673408Y-64068833D01*
X122619631Y-64002210D01*
X122501891Y-63821678D01*
X122335906Y-63552367D01*
X122137393Y-63219406D01*
X122069163Y-63102827D01*
X121863605Y-62747993D01*
X121687898Y-62440826D01*
X121557579Y-62208779D01*
X121488184Y-62079304D01*
X121481585Y-62064614D01*
X121510020Y-61971528D01*
X121606382Y-61767557D01*
X121756909Y-61479682D01*
X121947836Y-61134883D01*
X122022436Y-61004398D01*
X122226035Y-60647619D01*
X122397270Y-60340771D01*
X122521721Y-60110220D01*
X122584971Y-59982330D01*
X122589983Y-59966577D01*
X122525030Y-59985772D01*
X122346089Y-60074020D01*
X122077039Y-60218680D01*
X121741756Y-60407110D01*
X121560236Y-60511757D01*
X120530489Y-61110134D01*
X119480218Y-60491278D01*
X119118398Y-60276629D01*
X118812688Y-60092490D01*
X118586355Y-59953098D01*
X118462667Y-59872693D01*
X118446716Y-59858837D01*
X118517751Y-59815414D01*
X118702264Y-59704846D01*
X118975867Y-59541688D01*
X119314176Y-59340495D01*
X119494240Y-59233586D01*
X120524996Y-58621922D01*
X121557490Y-59220847D01*
X121917200Y-59426439D01*
X122222369Y-59595012D01*
X122449120Y-59713840D01*
X122573576Y-59770199D01*
X122589983Y-59771070D01*
X122552030Y-59687826D01*
X122447732Y-59492231D01*
X122291435Y-59210391D01*
X122097481Y-58868412D01*
X122017923Y-58729915D01*
X121780025Y-58307765D01*
X121620928Y-58000393D01*
X121532033Y-57788258D01*
X121504740Y-57651820D01*
X121517135Y-57591991D01*
X121612122Y-57412435D01*
X121756881Y-57155514D01*
X121933513Y-56851124D01*
X122124122Y-56529160D01*
X122310809Y-56219519D01*
X122475678Y-55952096D01*
X122600830Y-55756789D01*
X122668369Y-55663493D01*
X122673976Y-55659602D01*
X122733200Y-55724871D01*
G37*
D12*
%TO.C,C22*%
X168147125Y-106908512D02*
X168439659Y-106908512D01*
X168147125Y-107928512D02*
X168439659Y-107928512D01*
%TO.C,J4*%
X151713200Y-101818800D02*
X151713200Y-108788800D01*
X151713200Y-108788800D02*
X155133200Y-108788800D01*
X152223200Y-102328800D02*
X152223200Y-105303800D01*
X152223200Y-108278800D02*
X152223200Y-105303800D01*
X153073200Y-102128800D02*
X153073200Y-102328800D01*
X153073200Y-102328800D02*
X152223200Y-102328800D01*
X153073200Y-108278800D02*
X152223200Y-108278800D01*
X153073200Y-108478800D02*
X153073200Y-108278800D01*
X153873200Y-102128800D02*
X153073200Y-102128800D01*
X153873200Y-102328800D02*
X153873200Y-102128800D01*
X153873200Y-108278800D02*
X153873200Y-108478800D01*
X153873200Y-108478800D02*
X153073200Y-108478800D01*
X154623200Y-102328800D02*
X153873200Y-102328800D01*
X154623200Y-105303800D02*
X154623200Y-102328800D01*
X154623200Y-105303800D02*
X154623200Y-108278800D01*
X154623200Y-108278800D02*
X153873200Y-108278800D01*
X155133200Y-101818800D02*
X151713200Y-101818800D01*
X155133200Y-108788800D02*
X155133200Y-101818800D01*
X155423200Y-109078800D02*
X154423200Y-109078800D01*
X155423200Y-109078800D02*
X155423200Y-108078800D01*
%TO.C,U8*%
X164499100Y-100515799D02*
X165474100Y-100515799D01*
X164499100Y-101490799D02*
X164499100Y-100515799D01*
X164499100Y-104735799D02*
X164499100Y-103760799D01*
X165474100Y-104735799D02*
X164499100Y-104735799D01*
X167744100Y-100515799D02*
X168719100Y-100515799D01*
X168719100Y-100515799D02*
X168719100Y-101490799D01*
X168719100Y-103760799D02*
X168719100Y-104735799D01*
X168719100Y-104735799D02*
X167744100Y-104735799D01*
X166099100Y-105595799D02*
X165619100Y-105595799D01*
X165859100Y-105265799D01*
X166099100Y-105595799D01*
G36*
X166099100Y-105595799D02*
G01*
X165619100Y-105595799D01*
X165859100Y-105265799D01*
X166099100Y-105595799D01*
G37*
%TO.C,C3*%
X135638600Y-105732967D02*
X135638600Y-105440433D01*
X136658600Y-105732967D02*
X136658600Y-105440433D01*
%TO.C,C30*%
X168898201Y-89426833D02*
X168898201Y-89719367D01*
X169918201Y-89426833D02*
X169918201Y-89719367D01*
%TO.C,J3*%
X141901400Y-92964000D02*
X141901400Y-87774000D01*
X148471400Y-87774000D02*
X141901400Y-87774000D01*
X148471400Y-92964000D02*
X141901400Y-92964000D01*
X148471400Y-92964000D02*
X148471400Y-87774000D01*
X148471400Y-95504000D02*
X148471400Y-98154000D01*
X148471400Y-98154000D02*
X145186400Y-98154000D01*
%TO.C,C19*%
X165194367Y-98753200D02*
X164901833Y-98753200D01*
X165194367Y-99773200D02*
X164901833Y-99773200D01*
D14*
%TO.C,U11*%
X162327951Y-87093679D02*
X162327951Y-87246460D01*
X162327951Y-90293698D02*
X162327951Y-90446479D01*
X162327951Y-90446479D02*
X165680751Y-90446479D01*
X165680751Y-87093679D02*
X162327951Y-87093679D01*
X165680751Y-87246460D02*
X165680751Y-87093679D01*
X165680751Y-90446479D02*
X165680751Y-90293698D01*
D12*
%TO.C,C27*%
X152753600Y-87355633D02*
X152753600Y-87648167D01*
X153773600Y-87355633D02*
X153773600Y-87648167D01*
%TO.C,C26*%
X162586301Y-84588567D02*
X162586301Y-84296033D01*
X163606301Y-84588567D02*
X163606301Y-84296033D01*
%TO.C,J6*%
X164479200Y-112395600D02*
X164479200Y-111395600D01*
X164479200Y-112395600D02*
X165479200Y-112395600D01*
X164769200Y-108685600D02*
X164769200Y-112105600D01*
X164769200Y-112105600D02*
X171739200Y-112105600D01*
X165079200Y-110045600D02*
X165279200Y-110045600D01*
X165079200Y-110845600D02*
X165079200Y-110045600D01*
X165279200Y-109195600D02*
X168254200Y-109195600D01*
X165279200Y-110045600D02*
X165279200Y-109195600D01*
X165279200Y-110845600D02*
X165079200Y-110845600D01*
X165279200Y-111595600D02*
X165279200Y-110845600D01*
X168254200Y-111595600D02*
X165279200Y-111595600D01*
X168254200Y-111595600D02*
X171229200Y-111595600D01*
X171229200Y-109195600D02*
X168254200Y-109195600D01*
X171229200Y-110045600D02*
X171229200Y-109195600D01*
X171229200Y-110845600D02*
X171429200Y-110845600D01*
X171229200Y-111595600D02*
X171229200Y-110845600D01*
X171429200Y-110045600D02*
X171229200Y-110045600D01*
X171429200Y-110845600D02*
X171429200Y-110045600D01*
X171739200Y-108685600D02*
X164769200Y-108685600D01*
X171739200Y-112105600D02*
X171739200Y-108685600D01*
%TO.C,C28*%
X162261333Y-90828400D02*
X162553867Y-90828400D01*
X162261333Y-91848400D02*
X162553867Y-91848400D01*
%TO.C,C25*%
X154277600Y-87354533D02*
X154277600Y-87647067D01*
X155297600Y-87354533D02*
X155297600Y-87647067D01*
%TD*%
%LPC*%
D15*
%TO.C,U9*%
G36*
X154152727Y-95070806D02*
G01*
X152648031Y-95070806D01*
X152648031Y-94620718D01*
X154152727Y-94620718D01*
X154152727Y-95070806D01*
G37*
G36*
X154152778Y-98712157D02*
G01*
X152647980Y-98712157D01*
X152647980Y-98262157D01*
X154152778Y-98262157D01*
X154152778Y-98712157D01*
G37*
%TO.C,U7*%
G36*
X158512256Y-108092748D02*
G01*
X158062168Y-108092748D01*
X158062168Y-106588052D01*
X158512256Y-106588052D01*
X158512256Y-108092748D01*
G37*
G36*
X162153607Y-108092799D02*
G01*
X161703607Y-108092799D01*
X161703607Y-106588001D01*
X162153607Y-106588001D01*
X162153607Y-108092799D01*
G37*
%TD*%
D16*
%TO.C,fid.C*%
X116500000Y-113200000D03*
%TD*%
D17*
%TO.C,U12*%
X146212800Y-105196400D03*
X147512800Y-105196400D03*
X146212800Y-103896400D03*
X147512800Y-103896400D03*
D18*
X146112800Y-106483900D03*
X146612800Y-106483900D03*
X147112800Y-106483900D03*
X147612800Y-106483900D03*
D19*
X148800300Y-105296400D03*
X148800300Y-104796400D03*
X148800300Y-104296400D03*
X148800300Y-103796400D03*
D18*
X147612800Y-102608900D03*
X147112800Y-102608900D03*
X146612800Y-102608900D03*
X146112800Y-102608900D03*
D19*
X144925300Y-103796400D03*
X144925300Y-104296400D03*
X144925300Y-104796400D03*
X144925300Y-105296400D03*
D20*
X146862800Y-104546400D03*
%TD*%
D16*
%TO.C,fid.B*%
X116500000Y-47000000D03*
%TD*%
D21*
%TO.C,C2*%
X140471300Y-100628548D03*
X142196300Y-100628548D03*
%TD*%
%TO.C,C29*%
X161546200Y-92811600D03*
X163271200Y-92811600D03*
%TD*%
%TO.C,C1*%
X140472400Y-102100648D03*
X142197400Y-102100648D03*
%TD*%
D22*
%TO.C,J1*%
X177437869Y-108918400D03*
X177437869Y-83918400D03*
D23*
X174597869Y-101958400D03*
D24*
X174597869Y-99188400D03*
X174597869Y-96418400D03*
X174597869Y-93648400D03*
X174597869Y-90878400D03*
X177437869Y-100573400D03*
X177437869Y-97803400D03*
X177437869Y-95033400D03*
X177437869Y-92263400D03*
%TD*%
D25*
%TO.C,J8*%
X118333200Y-85344000D03*
D26*
X119583200Y-85344000D03*
%TD*%
D27*
%TO.C,U1*%
X122224800Y-109982000D03*
D28*
X117093800Y-108843000D03*
D29*
X117093800Y-108843000D03*
D30*
X145223716Y-95515084D03*
D28*
X117093800Y-90843000D03*
D29*
X117093800Y-90843000D03*
D31*
X124764800Y-109982000D03*
D32*
X145223716Y-90435084D03*
D31*
X127304800Y-109982000D03*
X129844800Y-109982000D03*
X132384800Y-109982000D03*
X134924800Y-109982000D03*
X137464800Y-109982000D03*
X140004800Y-109982000D03*
%TD*%
D33*
%TO.C,C23*%
X150495000Y-98093700D03*
X150495000Y-96368700D03*
%TD*%
D34*
%TO.C,C18*%
X161522723Y-110227044D03*
X159797723Y-110227044D03*
%TD*%
D21*
%TO.C,C34*%
X147582200Y-107942900D03*
X149307200Y-107942900D03*
%TD*%
D35*
%TO.C,REF\u002A\u002A*%
X119285200Y-75742800D03*
X177285200Y-75742800D03*
X119285200Y-52742800D03*
X177285200Y-52742800D03*
D36*
X124155200Y-74472800D03*
D31*
X124155200Y-77012800D03*
X126695200Y-74472800D03*
X126695200Y-77012800D03*
X129235200Y-74472800D03*
X129235200Y-77012800D03*
X131775200Y-74472800D03*
X131775200Y-77012800D03*
X134315200Y-74472800D03*
X134315200Y-77012800D03*
X136855200Y-74472800D03*
X136855200Y-77012800D03*
X139395200Y-74472800D03*
X139395200Y-77012800D03*
X141935200Y-74472800D03*
X141935200Y-77012800D03*
X144475200Y-74472800D03*
X144475200Y-77012800D03*
X147015200Y-74472800D03*
X147015200Y-77012800D03*
X149555200Y-74472800D03*
X149555200Y-77012800D03*
X152095200Y-74472800D03*
X152095200Y-77012800D03*
X154635200Y-74472800D03*
X154635200Y-77012800D03*
X157175200Y-74472800D03*
X157175200Y-77012800D03*
X159715200Y-74472800D03*
X159715200Y-77012800D03*
X162255200Y-74472800D03*
X162255200Y-77012800D03*
X164795200Y-74472800D03*
X164795200Y-77012800D03*
X167335200Y-74472800D03*
X167335200Y-77012800D03*
X169875200Y-74472800D03*
X169875200Y-77012800D03*
X172415200Y-74472800D03*
X172415200Y-77012800D03*
%TD*%
D36*
%TO.C,J2*%
X122224800Y-109982000D03*
D37*
X124764800Y-109982000D03*
X127304800Y-109982000D03*
X129844800Y-109982000D03*
X132384800Y-109982000D03*
X134924800Y-109982000D03*
X137464800Y-109982000D03*
X140004800Y-109982000D03*
%TD*%
D38*
%TO.C,C31*%
X167884201Y-88710600D03*
X167884201Y-90435600D03*
%TD*%
D34*
%TO.C,C20*%
X165909500Y-97739200D03*
X164184500Y-97739200D03*
%TD*%
D33*
%TO.C,C24*%
X161572301Y-85305900D03*
X161572301Y-83580900D03*
%TD*%
D21*
%TO.C,C35*%
X147590800Y-109430300D03*
X149315800Y-109430300D03*
%TD*%
D39*
%TO.C,U9*%
X154848179Y-98167450D03*
X154848179Y-97567451D03*
X154848179Y-96967449D03*
X154848179Y-96367451D03*
X154848179Y-95767449D03*
X154848179Y-95167450D03*
D40*
X153400379Y-94216350D03*
D39*
X151952579Y-95167450D03*
X151952579Y-95767449D03*
X151952579Y-96367451D03*
X151952579Y-96967449D03*
X151952579Y-97567451D03*
X151952579Y-98167450D03*
D41*
X153404900Y-99115098D03*
%TD*%
D42*
%TO.C,U3*%
X141884400Y-104741726D03*
X141884400Y-104241600D03*
X141884400Y-103741474D03*
X141884400Y-103241348D03*
X139039600Y-103241348D03*
X139039600Y-103741474D03*
X139039600Y-104241600D03*
X139039600Y-104741726D03*
D43*
X140462000Y-103991537D03*
%TD*%
D25*
%TO.C,J10*%
X133699400Y-84325800D03*
D26*
X134949400Y-84325800D03*
X136199400Y-84325800D03*
X137449400Y-84325800D03*
X138699400Y-84325800D03*
X139949400Y-84325800D03*
X141199400Y-84325800D03*
X142449400Y-84325800D03*
%TD*%
D34*
%TO.C,C32*%
X146227800Y-99593400D03*
X144502800Y-99593400D03*
%TD*%
D44*
%TO.C,U10*%
X156243901Y-85216300D03*
X156243901Y-85716300D03*
X156243901Y-86216300D03*
X156243901Y-86716300D03*
D45*
X157431401Y-87903800D03*
X157931401Y-87903800D03*
X158431401Y-87903800D03*
X158931401Y-87903800D03*
D44*
X160118901Y-86716300D03*
X160118901Y-86216300D03*
X160118901Y-85716300D03*
X160118901Y-85216300D03*
D45*
X158931401Y-84028800D03*
X158431401Y-84028800D03*
X157931401Y-84028800D03*
X157431401Y-84028800D03*
D46*
X158181401Y-85966300D03*
%TD*%
D33*
%TO.C,C4*%
X137642600Y-106449200D03*
X137642600Y-104724200D03*
%TD*%
D21*
%TO.C,C21*%
X167430892Y-105894512D03*
X169155892Y-105894512D03*
%TD*%
D34*
%TO.C,C33*%
X146202400Y-101066600D03*
X144477400Y-101066600D03*
%TD*%
D47*
%TO.C,U7*%
X161608900Y-105892600D03*
X161008901Y-105892600D03*
X160408899Y-105892600D03*
X159808901Y-105892600D03*
X159208899Y-105892600D03*
X158608900Y-105892600D03*
D48*
X157657800Y-107340400D03*
D47*
X158608900Y-108788200D03*
X159208899Y-108788200D03*
X159808901Y-108788200D03*
X160408899Y-108788200D03*
X161008901Y-108788200D03*
X161608900Y-108788200D03*
D49*
X162560000Y-107340400D03*
%TD*%
D21*
%TO.C,C22*%
X167430892Y-107418512D03*
X169155892Y-107418512D03*
%TD*%
D50*
%TO.C,J4*%
X153873200Y-107178800D03*
D51*
X153873200Y-105928800D03*
X153873200Y-104678800D03*
X153873200Y-103428800D03*
%TD*%
D18*
%TO.C,U8*%
X165859100Y-104563299D03*
X166359100Y-104563299D03*
X166859100Y-104563299D03*
X167359100Y-104563299D03*
D19*
X168546600Y-103375799D03*
X168546600Y-102875799D03*
X168546600Y-102375799D03*
X168546600Y-101875799D03*
D18*
X167359100Y-100688299D03*
X166859100Y-100688299D03*
X166359100Y-100688299D03*
X165859100Y-100688299D03*
D19*
X164671600Y-101875799D03*
X164671600Y-102375799D03*
X164671600Y-102875799D03*
X164671600Y-103375799D03*
D20*
X166609100Y-102625799D03*
%TD*%
D33*
%TO.C,C3*%
X136148600Y-106449200D03*
X136148600Y-104724200D03*
%TD*%
D38*
%TO.C,C30*%
X169408201Y-88710600D03*
X169408201Y-90435600D03*
%TD*%
D52*
%TO.C,J3*%
X145186400Y-95504000D03*
D32*
X145186400Y-90424000D03*
%TD*%
D34*
%TO.C,C19*%
X165910600Y-99263200D03*
X164185600Y-99263200D03*
%TD*%
D53*
%TO.C,U11*%
X161788201Y-87795100D03*
X161788201Y-88445086D03*
X161788201Y-89095072D03*
X161788201Y-89745058D03*
X166220501Y-89745058D03*
X166220501Y-89095072D03*
X166220501Y-88445086D03*
X166220501Y-87795100D03*
%TD*%
D38*
%TO.C,C27*%
X153263600Y-86639400D03*
X153263600Y-88364400D03*
%TD*%
D16*
%TO.C,fid.A*%
X177439571Y-46937193D03*
%TD*%
D33*
%TO.C,C26*%
X163096301Y-85304800D03*
X163096301Y-83579800D03*
%TD*%
D25*
%TO.C,J6*%
X166379200Y-110845600D03*
D26*
X167629200Y-110845600D03*
X168879200Y-110845600D03*
X170129200Y-110845600D03*
%TD*%
D21*
%TO.C,C28*%
X161545100Y-91338400D03*
X163270100Y-91338400D03*
%TD*%
D38*
%TO.C,C25*%
X154787600Y-86638300D03*
X154787600Y-88363300D03*
%TD*%
D54*
X161086800Y-107899200D03*
X160629600Y-107340400D03*
X159461200Y-107340400D03*
X159969200Y-106883200D03*
X159004000Y-106832400D03*
X159969200Y-107746800D03*
X161086800Y-106832400D03*
X159004000Y-107848400D03*
%LPD*%
M02*
