M48
; DRILL file {KiCad 9.0.7+1} date 2026-05-07T00:29:42+0000
; FORMAT={-:-/ absolute / metric / decimal}
; #@! TF.CreationDate,2026-05-07T00:29:42+00:00
; #@! TF.GenerationSoftware,Kicad,Pcbnew,9.0.7+1
; #@! TF.FileFunction,Plated,2,3,Buried
FMAT,2
METRIC
; #@! TA.AperFunction,Plated,Buried,ViaDrill
T1C0.250
%
G90
G05
T1
X162.413Y-83.214
X163.514Y-92.085
X163.591Y-90.862
X163.842Y-95.444
X164.266Y-98.427
X165.129Y-94.582
X165.682Y-98.314
X165.907Y-86.014
X165.978Y-82.929
X165.984Y-96.342
X166.177Y-94.218
X166.905Y-95.47
X168.759Y-108.604
X168.919Y-86.168
X169.199Y-93.195
X170.058Y-83.098
X170.965Y-87.5
X171.303Y-104.949
X171.638Y-102.075
X172.239Y-90.338
X172.989Y-103.996
M30
