%TF.GenerationSoftware,KiCad,Pcbnew,9.0.7+1*%
%TF.CreationDate,Date%
%TF.ProjectId,proalbmlb,70726f61-6c62-46d6-9c62-2e6b69636164,+ (Unreleased)*%
%TF.SameCoordinates,Original*%
%TF.FileFunction,Legend,Top*%
%TF.FilePolarity,Positive*%
%FSLAX46Y46*%
G04 Gerber Fmt 4.6, Leading zero omitted, Abs format (unit mm)*
G04 Created by KiCad*
%MOMM*%
%LPD*%
G01*
G04 APERTURE LIST*
G04 Aperture macros list*
%AMRoundRect*
0 Rectangle with rounded corners*
0 $1 Rounding radius*
0 $2 $3 $4 $5 $6 $7 $8 $9 X,Y pos of 4 corners*
0 Add a 4 corners polygon primitive as box body*
4,1,4,$2,$3,$4,$5,$6,$7,$8,$9,$2,$3,0*
0 Add four circle primitives for the rounded corners*
1,1,$1+$1,$2,$3*
1,1,$1+$1,$4,$5*
1,1,$1+$1,$6,$7*
1,1,$1+$1,$8,$9*
0 Add four rect primitives between the rounded corners*
20,1,$1+$1,$2,$3,$4,$5,0*
20,1,$1+$1,$4,$5,$6,$7,0*
20,1,$1+$1,$6,$7,$8,$9,0*
20,1,$1+$1,$8,$9,$2,$3,0*%
%AMFreePoly0*
4,1,30,0.787703,0.889811,0.802348,0.854458,0.802399,-0.406398,0.787756,-0.441754,0.752401,-0.456400,0.447599,-0.456400,0.412244,-0.441755,0.397599,-0.406400,0.397599,0.356400,0.202400,0.356400,0.202400,-0.406400,0.187755,-0.441755,0.152400,-0.456400,-0.152400,-0.456400,-0.187755,-0.441755,-0.202400,-0.406400,-0.202400,0.356400,-0.397599,0.356400,-0.397599,-0.406400,-0.412244,-0.441755,
-0.447599,-0.456400,-0.752399,-0.456400,-0.787754,-0.441755,-0.802399,-0.406400,-0.802399,-0.406398,-0.802348,0.854458,-0.787702,0.889813,-0.752348,0.904456,0.752348,0.904456,0.787703,0.889811,0.787703,0.889811,$1*%
%AMFreePoly1*
4,1,31,-0.407723,0.445207,-0.393078,0.409852,-0.393078,-0.352948,-0.202400,-0.352948,-0.202400,0.406400,-0.187755,0.441755,-0.184023,0.443300,-0.183234,0.445207,-0.147879,0.459852,0.156921,0.459852,0.192276,0.445207,0.206921,0.409852,0.206921,-0.352948,0.402120,-0.352948,0.402120,0.409852,0.416765,0.445207,0.452120,0.459852,0.756920,0.459852,0.792275,0.445207,0.806920,0.409852,
0.806920,-0.852941,0.792275,-0.888296,0.756920,-0.902941,-0.747878,-0.902941,-0.783233,-0.888296,-0.797878,-0.852941,-0.797878,0.409852,-0.783233,0.445207,-0.747878,0.459852,-0.443078,0.459852,-0.407723,0.445207,-0.407723,0.445207,$1*%
%AMFreePoly2*
4,1,29,-0.412244,0.441755,-0.397599,0.406400,-0.397599,-0.356400,-0.202400,-0.356400,-0.202400,0.406400,-0.187755,0.441755,-0.152400,0.456400,0.152400,0.456400,0.187755,0.441755,0.202400,0.406400,0.202400,-0.356400,0.397599,-0.356400,0.397599,0.406400,0.412244,0.441755,0.447599,0.456400,0.752399,0.456400,0.787754,0.441755,0.802399,0.406400,0.802399,-0.856393,0.787754,-0.891748,
0.752399,-0.906393,-0.752399,-0.906393,-0.787754,-0.891748,-0.802399,-0.856393,-0.802399,0.406400,-0.787754,0.441755,-0.752399,0.456400,-0.447599,0.456400,-0.412244,0.441755,-0.412244,0.441755,$1*%
G04 Aperture macros list end*
%ADD10C,0.150000*%
%ADD11C,0.170000*%
%ADD12C,0.120000*%
%ADD13C,0.050000*%
%ADD14C,0.152400*%
%ADD15C,0.000000*%
%ADD16RoundRect,0.272124X0.342876X-0.342876X0.342876X0.342876X-0.342876X0.342876X-0.342876X-0.342876X0*%
%ADD17RoundRect,0.087500X0.087500X-0.400000X0.087500X0.400000X-0.087500X0.400000X-0.087500X-0.400000X0*%
%ADD18RoundRect,0.087500X0.400000X-0.087500X0.400000X0.087500X-0.400000X0.087500X-0.400000X-0.087500X0*%
%ADD19RoundRect,0.050000X1.300000X-1.300000X1.300000X1.300000X-1.300000X1.300000X-1.300000X-1.300000X0*%
%ADD20RoundRect,0.262500X-0.325000X-0.262500X0.325000X-0.262500X0.325000X0.262500X-0.325000X0.262500X0*%
%ADD21C,4.100000*%
%ADD22RoundRect,0.050000X0.800000X-0.800000X0.800000X0.800000X-0.800000X0.800000X-0.800000X-0.800000X0*%
%ADD23C,1.700000*%
%ADD24RoundRect,0.225000X-0.225000X-0.475000X0.225000X-0.475000X0.225000X0.475000X-0.225000X0.475000X0*%
%ADD25O,0.900000X1.400000*%
%ADD26RoundRect,0.050000X-0.850000X0.850000X-0.850000X-0.850000X0.850000X-0.850000X0.850000X0.850000X0*%
%ADD27C,3.200000*%
%ADD28C,4.800000*%
%ADD29RoundRect,0.050000X-1.400000X-1.400000X1.400000X-1.400000X1.400000X1.400000X-1.400000X1.400000X0*%
%ADD30O,1.800000X1.800000*%
%ADD31C,2.900000*%
%ADD32RoundRect,0.262500X0.262500X-0.325000X0.262500X0.325000X-0.262500X0.325000X-0.262500X-0.325000X0*%
%ADD33RoundRect,0.262500X0.325000X0.262500X-0.325000X0.262500X-0.325000X-0.262500X0.325000X-0.262500X0*%
%ADD34C,6.000000*%
%ADD35RoundRect,0.050000X0.850000X-0.850000X0.850000X0.850000X-0.850000X0.850000X-0.850000X-0.850000X0*%
%ADD36C,1.800000*%
%ADD37RoundRect,0.262500X-0.262500X0.325000X-0.262500X-0.325000X0.262500X-0.325000X0.262500X0.325000X0*%
%ADD38RoundRect,0.050000X-0.406400X0.152400X-0.406400X-0.152400X0.406400X-0.152400X0.406400X0.152400X0*%
%ADD39FreePoly0,180.000000*%
%ADD40FreePoly1,180.000000*%
%ADD41RoundRect,0.050000X0.330200X0.127000X-0.330200X0.127000X-0.330200X-0.127000X0.330200X-0.127000X0*%
%ADD42RoundRect,0.050000X0.952500X0.876300X-0.952500X0.876300X-0.952500X-0.876300X0.952500X-0.876300X0*%
%ADD43RoundRect,0.087500X-0.400000X-0.087500X0.400000X-0.087500X0.400000X0.087500X-0.400000X0.087500X0*%
%ADD44RoundRect,0.087500X-0.087500X-0.400000X0.087500X-0.400000X0.087500X0.400000X-0.087500X0.400000X0*%
%ADD45RoundRect,0.050000X-1.300000X-1.300000X1.300000X-1.300000X1.300000X1.300000X-1.300000X1.300000X0*%
%ADD46RoundRect,0.050000X-0.152400X-0.406400X0.152400X-0.406400X0.152400X0.406400X-0.152400X0.406400X0*%
%ADD47FreePoly0,270.000000*%
%ADD48FreePoly2,270.000000*%
%ADD49RoundRect,0.225000X0.475000X-0.225000X0.475000X0.225000X-0.475000X0.225000X-0.475000X-0.225000X0*%
%ADD50O,1.400000X0.900000*%
%ADD51RoundRect,0.050000X1.400000X1.400000X-1.400000X1.400000X-1.400000X-1.400000X1.400000X-1.400000X0*%
%ADD52RoundRect,0.050000X-0.666750X-0.215900X0.666750X-0.215900X0.666750X0.215900X-0.666750X0.215900X0*%
%ADD53C,0.650000*%
G04 APERTURE END LIST*
D10*
X149560987Y-105195626D02*
X150370510Y-105195626D01*
X150370510Y-105195626D02*
X150465748Y-105148007D01*
X150465748Y-105148007D02*
X150513368Y-105100388D01*
X150513368Y-105100388D02*
X150560987Y-105005150D01*
X150560987Y-105005150D02*
X150560987Y-104814674D01*
X150560987Y-104814674D02*
X150513368Y-104719436D01*
X150513368Y-104719436D02*
X150465748Y-104671817D01*
X150465748Y-104671817D02*
X150370510Y-104624198D01*
X150370510Y-104624198D02*
X149560987Y-104624198D01*
X150560987Y-103624198D02*
X150560987Y-104195626D01*
X150560987Y-103909912D02*
X149560987Y-103909912D01*
X149560987Y-103909912D02*
X149703844Y-104005150D01*
X149703844Y-104005150D02*
X149799082Y-104100388D01*
X149799082Y-104100388D02*
X149846701Y-104195626D01*
X149656225Y-103243245D02*
X149608606Y-103195626D01*
X149608606Y-103195626D02*
X149560987Y-103100388D01*
X149560987Y-103100388D02*
X149560987Y-102862293D01*
X149560987Y-102862293D02*
X149608606Y-102767055D01*
X149608606Y-102767055D02*
X149656225Y-102719436D01*
X149656225Y-102719436D02*
X149751463Y-102671817D01*
X149751463Y-102671817D02*
X149846701Y-102671817D01*
X149846701Y-102671817D02*
X149989558Y-102719436D01*
X149989558Y-102719436D02*
X150560987Y-103290864D01*
X150560987Y-103290864D02*
X150560987Y-102671817D01*
X138568133Y-100841980D02*
X138520514Y-100889600D01*
X138520514Y-100889600D02*
X138377657Y-100937219D01*
X138377657Y-100937219D02*
X138282419Y-100937219D01*
X138282419Y-100937219D02*
X138139562Y-100889600D01*
X138139562Y-100889600D02*
X138044324Y-100794361D01*
X138044324Y-100794361D02*
X137996705Y-100699123D01*
X137996705Y-100699123D02*
X137949086Y-100508647D01*
X137949086Y-100508647D02*
X137949086Y-100365790D01*
X137949086Y-100365790D02*
X137996705Y-100175314D01*
X137996705Y-100175314D02*
X138044324Y-100080076D01*
X138044324Y-100080076D02*
X138139562Y-99984838D01*
X138139562Y-99984838D02*
X138282419Y-99937219D01*
X138282419Y-99937219D02*
X138377657Y-99937219D01*
X138377657Y-99937219D02*
X138520514Y-99984838D01*
X138520514Y-99984838D02*
X138568133Y-100032457D01*
X138949086Y-100032457D02*
X138996705Y-99984838D01*
X138996705Y-99984838D02*
X139091943Y-99937219D01*
X139091943Y-99937219D02*
X139330038Y-99937219D01*
X139330038Y-99937219D02*
X139425276Y-99984838D01*
X139425276Y-99984838D02*
X139472895Y-100032457D01*
X139472895Y-100032457D02*
X139520514Y-100127695D01*
X139520514Y-100127695D02*
X139520514Y-100222933D01*
X139520514Y-100222933D02*
X139472895Y-100365790D01*
X139472895Y-100365790D02*
X138901467Y-100937219D01*
X138901467Y-100937219D02*
X139520514Y-100937219D01*
X158740893Y-92990459D02*
X158693274Y-93038079D01*
X158693274Y-93038079D02*
X158550417Y-93085698D01*
X158550417Y-93085698D02*
X158455179Y-93085698D01*
X158455179Y-93085698D02*
X158312322Y-93038079D01*
X158312322Y-93038079D02*
X158217084Y-92942840D01*
X158217084Y-92942840D02*
X158169465Y-92847602D01*
X158169465Y-92847602D02*
X158121846Y-92657126D01*
X158121846Y-92657126D02*
X158121846Y-92514269D01*
X158121846Y-92514269D02*
X158169465Y-92323793D01*
X158169465Y-92323793D02*
X158217084Y-92228555D01*
X158217084Y-92228555D02*
X158312322Y-92133317D01*
X158312322Y-92133317D02*
X158455179Y-92085698D01*
X158455179Y-92085698D02*
X158550417Y-92085698D01*
X158550417Y-92085698D02*
X158693274Y-92133317D01*
X158693274Y-92133317D02*
X158740893Y-92180936D01*
X159121846Y-92180936D02*
X159169465Y-92133317D01*
X159169465Y-92133317D02*
X159264703Y-92085698D01*
X159264703Y-92085698D02*
X159502798Y-92085698D01*
X159502798Y-92085698D02*
X159598036Y-92133317D01*
X159598036Y-92133317D02*
X159645655Y-92180936D01*
X159645655Y-92180936D02*
X159693274Y-92276174D01*
X159693274Y-92276174D02*
X159693274Y-92371412D01*
X159693274Y-92371412D02*
X159645655Y-92514269D01*
X159645655Y-92514269D02*
X159074227Y-93085698D01*
X159074227Y-93085698D02*
X159693274Y-93085698D01*
X160169465Y-93085698D02*
X160359941Y-93085698D01*
X160359941Y-93085698D02*
X160455179Y-93038079D01*
X160455179Y-93038079D02*
X160502798Y-92990459D01*
X160502798Y-92990459D02*
X160598036Y-92847602D01*
X160598036Y-92847602D02*
X160645655Y-92657126D01*
X160645655Y-92657126D02*
X160645655Y-92276174D01*
X160645655Y-92276174D02*
X160598036Y-92180936D01*
X160598036Y-92180936D02*
X160550417Y-92133317D01*
X160550417Y-92133317D02*
X160455179Y-92085698D01*
X160455179Y-92085698D02*
X160264703Y-92085698D01*
X160264703Y-92085698D02*
X160169465Y-92133317D01*
X160169465Y-92133317D02*
X160121846Y-92180936D01*
X160121846Y-92180936D02*
X160074227Y-92276174D01*
X160074227Y-92276174D02*
X160074227Y-92514269D01*
X160074227Y-92514269D02*
X160121846Y-92609507D01*
X160121846Y-92609507D02*
X160169465Y-92657126D01*
X160169465Y-92657126D02*
X160264703Y-92704745D01*
X160264703Y-92704745D02*
X160455179Y-92704745D01*
X160455179Y-92704745D02*
X160550417Y-92657126D01*
X160550417Y-92657126D02*
X160598036Y-92609507D01*
X160598036Y-92609507D02*
X160645655Y-92514269D01*
X138385465Y-102239868D02*
X138337846Y-102287488D01*
X138337846Y-102287488D02*
X138194989Y-102335107D01*
X138194989Y-102335107D02*
X138099751Y-102335107D01*
X138099751Y-102335107D02*
X137956894Y-102287488D01*
X137956894Y-102287488D02*
X137861656Y-102192249D01*
X137861656Y-102192249D02*
X137814037Y-102097011D01*
X137814037Y-102097011D02*
X137766418Y-101906535D01*
X137766418Y-101906535D02*
X137766418Y-101763678D01*
X137766418Y-101763678D02*
X137814037Y-101573202D01*
X137814037Y-101573202D02*
X137861656Y-101477964D01*
X137861656Y-101477964D02*
X137956894Y-101382726D01*
X137956894Y-101382726D02*
X138099751Y-101335107D01*
X138099751Y-101335107D02*
X138194989Y-101335107D01*
X138194989Y-101335107D02*
X138337846Y-101382726D01*
X138337846Y-101382726D02*
X138385465Y-101430345D01*
X139337846Y-102335107D02*
X138766418Y-102335107D01*
X139052132Y-102335107D02*
X139052132Y-101335107D01*
X139052132Y-101335107D02*
X138956894Y-101477964D01*
X138956894Y-101477964D02*
X138861656Y-101573202D01*
X138861656Y-101573202D02*
X138766418Y-101620821D01*
X180658419Y-95786533D02*
X181372704Y-95786533D01*
X181372704Y-95786533D02*
X181515561Y-95834152D01*
X181515561Y-95834152D02*
X181610800Y-95929390D01*
X181610800Y-95929390D02*
X181658419Y-96072247D01*
X181658419Y-96072247D02*
X181658419Y-96167485D01*
X181658419Y-94786533D02*
X181658419Y-95357961D01*
X181658419Y-95072247D02*
X180658419Y-95072247D01*
X180658419Y-95072247D02*
X180801276Y-95167485D01*
X180801276Y-95167485D02*
X180896514Y-95262723D01*
X180896514Y-95262723D02*
X180944133Y-95357961D01*
X118619866Y-81538819D02*
X118619866Y-82253104D01*
X118619866Y-82253104D02*
X118572247Y-82395961D01*
X118572247Y-82395961D02*
X118477009Y-82491200D01*
X118477009Y-82491200D02*
X118334152Y-82538819D01*
X118334152Y-82538819D02*
X118238914Y-82538819D01*
X119238914Y-81967390D02*
X119143676Y-81919771D01*
X119143676Y-81919771D02*
X119096057Y-81872152D01*
X119096057Y-81872152D02*
X119048438Y-81776914D01*
X119048438Y-81776914D02*
X119048438Y-81729295D01*
X119048438Y-81729295D02*
X119096057Y-81634057D01*
X119096057Y-81634057D02*
X119143676Y-81586438D01*
X119143676Y-81586438D02*
X119238914Y-81538819D01*
X119238914Y-81538819D02*
X119429390Y-81538819D01*
X119429390Y-81538819D02*
X119524628Y-81586438D01*
X119524628Y-81586438D02*
X119572247Y-81634057D01*
X119572247Y-81634057D02*
X119619866Y-81729295D01*
X119619866Y-81729295D02*
X119619866Y-81776914D01*
X119619866Y-81776914D02*
X119572247Y-81872152D01*
X119572247Y-81872152D02*
X119524628Y-81919771D01*
X119524628Y-81919771D02*
X119429390Y-81967390D01*
X119429390Y-81967390D02*
X119238914Y-81967390D01*
X119238914Y-81967390D02*
X119143676Y-82015009D01*
X119143676Y-82015009D02*
X119096057Y-82062628D01*
X119096057Y-82062628D02*
X119048438Y-82157866D01*
X119048438Y-82157866D02*
X119048438Y-82348342D01*
X119048438Y-82348342D02*
X119096057Y-82443580D01*
X119096057Y-82443580D02*
X119143676Y-82491200D01*
X119143676Y-82491200D02*
X119238914Y-82538819D01*
X119238914Y-82538819D02*
X119429390Y-82538819D01*
X119429390Y-82538819D02*
X119524628Y-82491200D01*
X119524628Y-82491200D02*
X119572247Y-82443580D01*
X119572247Y-82443580D02*
X119619866Y-82348342D01*
X119619866Y-82348342D02*
X119619866Y-82157866D01*
X119619866Y-82157866D02*
X119572247Y-82062628D01*
X119572247Y-82062628D02*
X119524628Y-82015009D01*
X119524628Y-82015009D02*
X119429390Y-81967390D01*
D11*
X148400293Y-90758253D02*
X148400293Y-89920158D01*
X148819340Y-90339205D02*
X147981245Y-90339205D01*
X148400293Y-95758253D02*
X148400293Y-94920158D01*
D10*
X150692401Y-94960507D02*
X150740021Y-95008126D01*
X150740021Y-95008126D02*
X150787640Y-95150983D01*
X150787640Y-95150983D02*
X150787640Y-95246221D01*
X150787640Y-95246221D02*
X150740021Y-95389078D01*
X150740021Y-95389078D02*
X150644782Y-95484316D01*
X150644782Y-95484316D02*
X150549544Y-95531935D01*
X150549544Y-95531935D02*
X150359068Y-95579554D01*
X150359068Y-95579554D02*
X150216211Y-95579554D01*
X150216211Y-95579554D02*
X150025735Y-95531935D01*
X150025735Y-95531935D02*
X149930497Y-95484316D01*
X149930497Y-95484316D02*
X149835259Y-95389078D01*
X149835259Y-95389078D02*
X149787640Y-95246221D01*
X149787640Y-95246221D02*
X149787640Y-95150983D01*
X149787640Y-95150983D02*
X149835259Y-95008126D01*
X149835259Y-95008126D02*
X149882878Y-94960507D01*
X149882878Y-94579554D02*
X149835259Y-94531935D01*
X149835259Y-94531935D02*
X149787640Y-94436697D01*
X149787640Y-94436697D02*
X149787640Y-94198602D01*
X149787640Y-94198602D02*
X149835259Y-94103364D01*
X149835259Y-94103364D02*
X149882878Y-94055745D01*
X149882878Y-94055745D02*
X149978116Y-94008126D01*
X149978116Y-94008126D02*
X150073354Y-94008126D01*
X150073354Y-94008126D02*
X150216211Y-94055745D01*
X150216211Y-94055745D02*
X150787640Y-94627173D01*
X150787640Y-94627173D02*
X150787640Y-94008126D01*
X149787640Y-93674792D02*
X149787640Y-93055745D01*
X149787640Y-93055745D02*
X150168592Y-93389078D01*
X150168592Y-93389078D02*
X150168592Y-93246221D01*
X150168592Y-93246221D02*
X150216211Y-93150983D01*
X150216211Y-93150983D02*
X150263830Y-93103364D01*
X150263830Y-93103364D02*
X150359068Y-93055745D01*
X150359068Y-93055745D02*
X150597163Y-93055745D01*
X150597163Y-93055745D02*
X150692401Y-93103364D01*
X150692401Y-93103364D02*
X150740021Y-93150983D01*
X150740021Y-93150983D02*
X150787640Y-93246221D01*
X150787640Y-93246221D02*
X150787640Y-93531935D01*
X150787640Y-93531935D02*
X150740021Y-93627173D01*
X150740021Y-93627173D02*
X150692401Y-93674792D01*
X159815265Y-111958224D02*
X159767646Y-112005844D01*
X159767646Y-112005844D02*
X159624789Y-112053463D01*
X159624789Y-112053463D02*
X159529551Y-112053463D01*
X159529551Y-112053463D02*
X159386694Y-112005844D01*
X159386694Y-112005844D02*
X159291456Y-111910605D01*
X159291456Y-111910605D02*
X159243837Y-111815367D01*
X159243837Y-111815367D02*
X159196218Y-111624891D01*
X159196218Y-111624891D02*
X159196218Y-111482034D01*
X159196218Y-111482034D02*
X159243837Y-111291558D01*
X159243837Y-111291558D02*
X159291456Y-111196320D01*
X159291456Y-111196320D02*
X159386694Y-111101082D01*
X159386694Y-111101082D02*
X159529551Y-111053463D01*
X159529551Y-111053463D02*
X159624789Y-111053463D01*
X159624789Y-111053463D02*
X159767646Y-111101082D01*
X159767646Y-111101082D02*
X159815265Y-111148701D01*
X160767646Y-112053463D02*
X160196218Y-112053463D01*
X160481932Y-112053463D02*
X160481932Y-111053463D01*
X160481932Y-111053463D02*
X160386694Y-111196320D01*
X160386694Y-111196320D02*
X160291456Y-111291558D01*
X160291456Y-111291558D02*
X160196218Y-111339177D01*
X161339075Y-111482034D02*
X161243837Y-111434415D01*
X161243837Y-111434415D02*
X161196218Y-111386796D01*
X161196218Y-111386796D02*
X161148599Y-111291558D01*
X161148599Y-111291558D02*
X161148599Y-111243939D01*
X161148599Y-111243939D02*
X161196218Y-111148701D01*
X161196218Y-111148701D02*
X161243837Y-111101082D01*
X161243837Y-111101082D02*
X161339075Y-111053463D01*
X161339075Y-111053463D02*
X161529551Y-111053463D01*
X161529551Y-111053463D02*
X161624789Y-111101082D01*
X161624789Y-111101082D02*
X161672408Y-111148701D01*
X161672408Y-111148701D02*
X161720027Y-111243939D01*
X161720027Y-111243939D02*
X161720027Y-111291558D01*
X161720027Y-111291558D02*
X161672408Y-111386796D01*
X161672408Y-111386796D02*
X161624789Y-111434415D01*
X161624789Y-111434415D02*
X161529551Y-111482034D01*
X161529551Y-111482034D02*
X161339075Y-111482034D01*
X161339075Y-111482034D02*
X161243837Y-111529653D01*
X161243837Y-111529653D02*
X161196218Y-111577272D01*
X161196218Y-111577272D02*
X161148599Y-111672510D01*
X161148599Y-111672510D02*
X161148599Y-111862986D01*
X161148599Y-111862986D02*
X161196218Y-111958224D01*
X161196218Y-111958224D02*
X161243837Y-112005844D01*
X161243837Y-112005844D02*
X161339075Y-112053463D01*
X161339075Y-112053463D02*
X161529551Y-112053463D01*
X161529551Y-112053463D02*
X161624789Y-112005844D01*
X161624789Y-112005844D02*
X161672408Y-111958224D01*
X161672408Y-111958224D02*
X161720027Y-111862986D01*
X161720027Y-111862986D02*
X161720027Y-111672510D01*
X161720027Y-111672510D02*
X161672408Y-111577272D01*
X161672408Y-111577272D02*
X161624789Y-111529653D01*
X161624789Y-111529653D02*
X161529551Y-111482034D01*
X144645142Y-108411180D02*
X144597523Y-108458800D01*
X144597523Y-108458800D02*
X144454666Y-108506419D01*
X144454666Y-108506419D02*
X144359428Y-108506419D01*
X144359428Y-108506419D02*
X144216571Y-108458800D01*
X144216571Y-108458800D02*
X144121333Y-108363561D01*
X144121333Y-108363561D02*
X144073714Y-108268323D01*
X144073714Y-108268323D02*
X144026095Y-108077847D01*
X144026095Y-108077847D02*
X144026095Y-107934990D01*
X144026095Y-107934990D02*
X144073714Y-107744514D01*
X144073714Y-107744514D02*
X144121333Y-107649276D01*
X144121333Y-107649276D02*
X144216571Y-107554038D01*
X144216571Y-107554038D02*
X144359428Y-107506419D01*
X144359428Y-107506419D02*
X144454666Y-107506419D01*
X144454666Y-107506419D02*
X144597523Y-107554038D01*
X144597523Y-107554038D02*
X144645142Y-107601657D01*
X144978476Y-107506419D02*
X145597523Y-107506419D01*
X145597523Y-107506419D02*
X145264190Y-107887371D01*
X145264190Y-107887371D02*
X145407047Y-107887371D01*
X145407047Y-107887371D02*
X145502285Y-107934990D01*
X145502285Y-107934990D02*
X145549904Y-107982609D01*
X145549904Y-107982609D02*
X145597523Y-108077847D01*
X145597523Y-108077847D02*
X145597523Y-108315942D01*
X145597523Y-108315942D02*
X145549904Y-108411180D01*
X145549904Y-108411180D02*
X145502285Y-108458800D01*
X145502285Y-108458800D02*
X145407047Y-108506419D01*
X145407047Y-108506419D02*
X145121333Y-108506419D01*
X145121333Y-108506419D02*
X145026095Y-108458800D01*
X145026095Y-108458800D02*
X144978476Y-108411180D01*
X146454666Y-107839752D02*
X146454666Y-108506419D01*
X146216571Y-107458800D02*
X145978476Y-108173085D01*
X145978476Y-108173085D02*
X146597523Y-108173085D01*
X142735466Y-72489219D02*
X142402133Y-72013028D01*
X142164038Y-72489219D02*
X142164038Y-71489219D01*
X142164038Y-71489219D02*
X142544990Y-71489219D01*
X142544990Y-71489219D02*
X142640228Y-71536838D01*
X142640228Y-71536838D02*
X142687847Y-71584457D01*
X142687847Y-71584457D02*
X142735466Y-71679695D01*
X142735466Y-71679695D02*
X142735466Y-71822552D01*
X142735466Y-71822552D02*
X142687847Y-71917790D01*
X142687847Y-71917790D02*
X142640228Y-71965409D01*
X142640228Y-71965409D02*
X142544990Y-72013028D01*
X142544990Y-72013028D02*
X142164038Y-72013028D01*
X143164038Y-71965409D02*
X143497371Y-71965409D01*
X143640228Y-72489219D02*
X143164038Y-72489219D01*
X143164038Y-72489219D02*
X143164038Y-71489219D01*
X143164038Y-71489219D02*
X143640228Y-71489219D01*
X144402133Y-71965409D02*
X144068800Y-71965409D01*
X144068800Y-72489219D02*
X144068800Y-71489219D01*
X144068800Y-71489219D02*
X144544990Y-71489219D01*
X145068800Y-71489219D02*
X145068800Y-71727314D01*
X144830705Y-71632076D02*
X145068800Y-71727314D01*
X145068800Y-71727314D02*
X145306895Y-71632076D01*
X144925943Y-71917790D02*
X145068800Y-71727314D01*
X145068800Y-71727314D02*
X145211657Y-71917790D01*
X145830705Y-71489219D02*
X145830705Y-71727314D01*
X145592610Y-71632076D02*
X145830705Y-71727314D01*
X145830705Y-71727314D02*
X146068800Y-71632076D01*
X145687848Y-71917790D02*
X145830705Y-71727314D01*
X145830705Y-71727314D02*
X145973562Y-71917790D01*
X118909619Y-110315333D02*
X119623904Y-110315333D01*
X119623904Y-110315333D02*
X119766761Y-110362952D01*
X119766761Y-110362952D02*
X119862000Y-110458190D01*
X119862000Y-110458190D02*
X119909619Y-110601047D01*
X119909619Y-110601047D02*
X119909619Y-110696285D01*
X119004857Y-109886761D02*
X118957238Y-109839142D01*
X118957238Y-109839142D02*
X118909619Y-109743904D01*
X118909619Y-109743904D02*
X118909619Y-109505809D01*
X118909619Y-109505809D02*
X118957238Y-109410571D01*
X118957238Y-109410571D02*
X119004857Y-109362952D01*
X119004857Y-109362952D02*
X119100095Y-109315333D01*
X119100095Y-109315333D02*
X119195333Y-109315333D01*
X119195333Y-109315333D02*
X119338190Y-109362952D01*
X119338190Y-109362952D02*
X119909619Y-109934380D01*
X119909619Y-109934380D02*
X119909619Y-109315333D01*
X168202780Y-93251257D02*
X168250400Y-93298876D01*
X168250400Y-93298876D02*
X168298019Y-93441733D01*
X168298019Y-93441733D02*
X168298019Y-93536971D01*
X168298019Y-93536971D02*
X168250400Y-93679828D01*
X168250400Y-93679828D02*
X168155161Y-93775066D01*
X168155161Y-93775066D02*
X168059923Y-93822685D01*
X168059923Y-93822685D02*
X167869447Y-93870304D01*
X167869447Y-93870304D02*
X167726590Y-93870304D01*
X167726590Y-93870304D02*
X167536114Y-93822685D01*
X167536114Y-93822685D02*
X167440876Y-93775066D01*
X167440876Y-93775066D02*
X167345638Y-93679828D01*
X167345638Y-93679828D02*
X167298019Y-93536971D01*
X167298019Y-93536971D02*
X167298019Y-93441733D01*
X167298019Y-93441733D02*
X167345638Y-93298876D01*
X167345638Y-93298876D02*
X167393257Y-93251257D01*
X167298019Y-92917923D02*
X167298019Y-92298876D01*
X167298019Y-92298876D02*
X167678971Y-92632209D01*
X167678971Y-92632209D02*
X167678971Y-92489352D01*
X167678971Y-92489352D02*
X167726590Y-92394114D01*
X167726590Y-92394114D02*
X167774209Y-92346495D01*
X167774209Y-92346495D02*
X167869447Y-92298876D01*
X167869447Y-92298876D02*
X168107542Y-92298876D01*
X168107542Y-92298876D02*
X168202780Y-92346495D01*
X168202780Y-92346495D02*
X168250400Y-92394114D01*
X168250400Y-92394114D02*
X168298019Y-92489352D01*
X168298019Y-92489352D02*
X168298019Y-92775066D01*
X168298019Y-92775066D02*
X168250400Y-92870304D01*
X168250400Y-92870304D02*
X168202780Y-92917923D01*
X168298019Y-91346495D02*
X168298019Y-91917923D01*
X168298019Y-91632209D02*
X167298019Y-91632209D01*
X167298019Y-91632209D02*
X167440876Y-91727447D01*
X167440876Y-91727447D02*
X167536114Y-91822685D01*
X167536114Y-91822685D02*
X167583733Y-91917923D01*
X161155142Y-98149580D02*
X161107523Y-98197200D01*
X161107523Y-98197200D02*
X160964666Y-98244819D01*
X160964666Y-98244819D02*
X160869428Y-98244819D01*
X160869428Y-98244819D02*
X160726571Y-98197200D01*
X160726571Y-98197200D02*
X160631333Y-98101961D01*
X160631333Y-98101961D02*
X160583714Y-98006723D01*
X160583714Y-98006723D02*
X160536095Y-97816247D01*
X160536095Y-97816247D02*
X160536095Y-97673390D01*
X160536095Y-97673390D02*
X160583714Y-97482914D01*
X160583714Y-97482914D02*
X160631333Y-97387676D01*
X160631333Y-97387676D02*
X160726571Y-97292438D01*
X160726571Y-97292438D02*
X160869428Y-97244819D01*
X160869428Y-97244819D02*
X160964666Y-97244819D01*
X160964666Y-97244819D02*
X161107523Y-97292438D01*
X161107523Y-97292438D02*
X161155142Y-97340057D01*
X161536095Y-97340057D02*
X161583714Y-97292438D01*
X161583714Y-97292438D02*
X161678952Y-97244819D01*
X161678952Y-97244819D02*
X161917047Y-97244819D01*
X161917047Y-97244819D02*
X162012285Y-97292438D01*
X162012285Y-97292438D02*
X162059904Y-97340057D01*
X162059904Y-97340057D02*
X162107523Y-97435295D01*
X162107523Y-97435295D02*
X162107523Y-97530533D01*
X162107523Y-97530533D02*
X162059904Y-97673390D01*
X162059904Y-97673390D02*
X161488476Y-98244819D01*
X161488476Y-98244819D02*
X162107523Y-98244819D01*
X162726571Y-97244819D02*
X162821809Y-97244819D01*
X162821809Y-97244819D02*
X162917047Y-97292438D01*
X162917047Y-97292438D02*
X162964666Y-97340057D01*
X162964666Y-97340057D02*
X163012285Y-97435295D01*
X163012285Y-97435295D02*
X163059904Y-97625771D01*
X163059904Y-97625771D02*
X163059904Y-97863866D01*
X163059904Y-97863866D02*
X163012285Y-98054342D01*
X163012285Y-98054342D02*
X162964666Y-98149580D01*
X162964666Y-98149580D02*
X162917047Y-98197200D01*
X162917047Y-98197200D02*
X162821809Y-98244819D01*
X162821809Y-98244819D02*
X162726571Y-98244819D01*
X162726571Y-98244819D02*
X162631333Y-98197200D01*
X162631333Y-98197200D02*
X162583714Y-98149580D01*
X162583714Y-98149580D02*
X162536095Y-98054342D01*
X162536095Y-98054342D02*
X162488476Y-97863866D01*
X162488476Y-97863866D02*
X162488476Y-97625771D01*
X162488476Y-97625771D02*
X162536095Y-97435295D01*
X162536095Y-97435295D02*
X162583714Y-97340057D01*
X162583714Y-97340057D02*
X162631333Y-97292438D01*
X162631333Y-97292438D02*
X162726571Y-97244819D01*
X161881081Y-82037157D02*
X161928701Y-82084776D01*
X161928701Y-82084776D02*
X161976320Y-82227633D01*
X161976320Y-82227633D02*
X161976320Y-82322871D01*
X161976320Y-82322871D02*
X161928701Y-82465728D01*
X161928701Y-82465728D02*
X161833462Y-82560966D01*
X161833462Y-82560966D02*
X161738224Y-82608585D01*
X161738224Y-82608585D02*
X161547748Y-82656204D01*
X161547748Y-82656204D02*
X161404891Y-82656204D01*
X161404891Y-82656204D02*
X161214415Y-82608585D01*
X161214415Y-82608585D02*
X161119177Y-82560966D01*
X161119177Y-82560966D02*
X161023939Y-82465728D01*
X161023939Y-82465728D02*
X160976320Y-82322871D01*
X160976320Y-82322871D02*
X160976320Y-82227633D01*
X160976320Y-82227633D02*
X161023939Y-82084776D01*
X161023939Y-82084776D02*
X161071558Y-82037157D01*
X161071558Y-81656204D02*
X161023939Y-81608585D01*
X161023939Y-81608585D02*
X160976320Y-81513347D01*
X160976320Y-81513347D02*
X160976320Y-81275252D01*
X160976320Y-81275252D02*
X161023939Y-81180014D01*
X161023939Y-81180014D02*
X161071558Y-81132395D01*
X161071558Y-81132395D02*
X161166796Y-81084776D01*
X161166796Y-81084776D02*
X161262034Y-81084776D01*
X161262034Y-81084776D02*
X161404891Y-81132395D01*
X161404891Y-81132395D02*
X161976320Y-81703823D01*
X161976320Y-81703823D02*
X161976320Y-81084776D01*
X161309653Y-80227633D02*
X161976320Y-80227633D01*
X160928701Y-80465728D02*
X161642986Y-80703823D01*
X161642986Y-80703823D02*
X161642986Y-80084776D01*
X144848342Y-109884380D02*
X144800723Y-109932000D01*
X144800723Y-109932000D02*
X144657866Y-109979619D01*
X144657866Y-109979619D02*
X144562628Y-109979619D01*
X144562628Y-109979619D02*
X144419771Y-109932000D01*
X144419771Y-109932000D02*
X144324533Y-109836761D01*
X144324533Y-109836761D02*
X144276914Y-109741523D01*
X144276914Y-109741523D02*
X144229295Y-109551047D01*
X144229295Y-109551047D02*
X144229295Y-109408190D01*
X144229295Y-109408190D02*
X144276914Y-109217714D01*
X144276914Y-109217714D02*
X144324533Y-109122476D01*
X144324533Y-109122476D02*
X144419771Y-109027238D01*
X144419771Y-109027238D02*
X144562628Y-108979619D01*
X144562628Y-108979619D02*
X144657866Y-108979619D01*
X144657866Y-108979619D02*
X144800723Y-109027238D01*
X144800723Y-109027238D02*
X144848342Y-109074857D01*
X145181676Y-108979619D02*
X145800723Y-108979619D01*
X145800723Y-108979619D02*
X145467390Y-109360571D01*
X145467390Y-109360571D02*
X145610247Y-109360571D01*
X145610247Y-109360571D02*
X145705485Y-109408190D01*
X145705485Y-109408190D02*
X145753104Y-109455809D01*
X145753104Y-109455809D02*
X145800723Y-109551047D01*
X145800723Y-109551047D02*
X145800723Y-109789142D01*
X145800723Y-109789142D02*
X145753104Y-109884380D01*
X145753104Y-109884380D02*
X145705485Y-109932000D01*
X145705485Y-109932000D02*
X145610247Y-109979619D01*
X145610247Y-109979619D02*
X145324533Y-109979619D01*
X145324533Y-109979619D02*
X145229295Y-109932000D01*
X145229295Y-109932000D02*
X145181676Y-109884380D01*
X146705485Y-108979619D02*
X146229295Y-108979619D01*
X146229295Y-108979619D02*
X146181676Y-109455809D01*
X146181676Y-109455809D02*
X146229295Y-109408190D01*
X146229295Y-109408190D02*
X146324533Y-109360571D01*
X146324533Y-109360571D02*
X146562628Y-109360571D01*
X146562628Y-109360571D02*
X146657866Y-109408190D01*
X146657866Y-109408190D02*
X146705485Y-109455809D01*
X146705485Y-109455809D02*
X146753104Y-109551047D01*
X146753104Y-109551047D02*
X146753104Y-109789142D01*
X146753104Y-109789142D02*
X146705485Y-109884380D01*
X146705485Y-109884380D02*
X146657866Y-109932000D01*
X146657866Y-109932000D02*
X146562628Y-109979619D01*
X146562628Y-109979619D02*
X146324533Y-109979619D01*
X146324533Y-109979619D02*
X146229295Y-109932000D01*
X146229295Y-109932000D02*
X146181676Y-109884380D01*
X154162283Y-97161830D02*
X154162283Y-96352307D01*
X154162283Y-96352307D02*
X154114664Y-96257069D01*
X154114664Y-96257069D02*
X154067045Y-96209450D01*
X154067045Y-96209450D02*
X153971807Y-96161830D01*
X153971807Y-96161830D02*
X153781331Y-96161830D01*
X153781331Y-96161830D02*
X153686093Y-96209450D01*
X153686093Y-96209450D02*
X153638474Y-96257069D01*
X153638474Y-96257069D02*
X153590855Y-96352307D01*
X153590855Y-96352307D02*
X153590855Y-97161830D01*
X153067045Y-96161830D02*
X152876569Y-96161830D01*
X152876569Y-96161830D02*
X152781331Y-96209450D01*
X152781331Y-96209450D02*
X152733712Y-96257069D01*
X152733712Y-96257069D02*
X152638474Y-96399926D01*
X152638474Y-96399926D02*
X152590855Y-96590402D01*
X152590855Y-96590402D02*
X152590855Y-96971354D01*
X152590855Y-96971354D02*
X152638474Y-97066592D01*
X152638474Y-97066592D02*
X152686093Y-97114211D01*
X152686093Y-97114211D02*
X152781331Y-97161830D01*
X152781331Y-97161830D02*
X152971807Y-97161830D01*
X152971807Y-97161830D02*
X153067045Y-97114211D01*
X153067045Y-97114211D02*
X153114664Y-97066592D01*
X153114664Y-97066592D02*
X153162283Y-96971354D01*
X153162283Y-96971354D02*
X153162283Y-96733259D01*
X153162283Y-96733259D02*
X153114664Y-96638021D01*
X153114664Y-96638021D02*
X153067045Y-96590402D01*
X153067045Y-96590402D02*
X152971807Y-96542783D01*
X152971807Y-96542783D02*
X152781331Y-96542783D01*
X152781331Y-96542783D02*
X152686093Y-96590402D01*
X152686093Y-96590402D02*
X152638474Y-96638021D01*
X152638474Y-96638021D02*
X152590855Y-96733259D01*
X156057599Y-99300380D02*
X156057599Y-99062285D01*
X156295694Y-99157523D02*
X156057599Y-99062285D01*
X156057599Y-99062285D02*
X155819504Y-99157523D01*
X156200456Y-98871809D02*
X156057599Y-99062285D01*
X156057599Y-99062285D02*
X155914742Y-98871809D01*
X156041978Y-98712630D02*
X156041978Y-98474535D01*
X156280073Y-98569773D02*
X156041978Y-98474535D01*
X156041978Y-98474535D02*
X155803883Y-98569773D01*
X156184835Y-98284059D02*
X156041978Y-98474535D01*
X156041978Y-98474535D02*
X155899121Y-98284059D01*
X141223904Y-104536717D02*
X141223904Y-103727194D01*
X141223904Y-103727194D02*
X141176285Y-103631956D01*
X141176285Y-103631956D02*
X141128666Y-103584337D01*
X141128666Y-103584337D02*
X141033428Y-103536717D01*
X141033428Y-103536717D02*
X140842952Y-103536717D01*
X140842952Y-103536717D02*
X140747714Y-103584337D01*
X140747714Y-103584337D02*
X140700095Y-103631956D01*
X140700095Y-103631956D02*
X140652476Y-103727194D01*
X140652476Y-103727194D02*
X140652476Y-104536717D01*
X140271523Y-104536717D02*
X139652476Y-104536717D01*
X139652476Y-104536717D02*
X139985809Y-104155765D01*
X139985809Y-104155765D02*
X139842952Y-104155765D01*
X139842952Y-104155765D02*
X139747714Y-104108146D01*
X139747714Y-104108146D02*
X139700095Y-104060527D01*
X139700095Y-104060527D02*
X139652476Y-103965289D01*
X139652476Y-103965289D02*
X139652476Y-103727194D01*
X139652476Y-103727194D02*
X139700095Y-103631956D01*
X139700095Y-103631956D02*
X139747714Y-103584337D01*
X139747714Y-103584337D02*
X139842952Y-103536717D01*
X139842952Y-103536717D02*
X140128666Y-103536717D01*
X140128666Y-103536717D02*
X140223904Y-103584337D01*
X140223904Y-103584337D02*
X140271523Y-103631956D01*
X137269876Y-80520619D02*
X137269876Y-81234904D01*
X137269876Y-81234904D02*
X137222257Y-81377761D01*
X137222257Y-81377761D02*
X137127019Y-81473000D01*
X137127019Y-81473000D02*
X136984162Y-81520619D01*
X136984162Y-81520619D02*
X136888924Y-81520619D01*
X138269876Y-81520619D02*
X137698448Y-81520619D01*
X137984162Y-81520619D02*
X137984162Y-80520619D01*
X137984162Y-80520619D02*
X137888924Y-80663476D01*
X137888924Y-80663476D02*
X137793686Y-80758714D01*
X137793686Y-80758714D02*
X137698448Y-80806333D01*
X138888924Y-80520619D02*
X138984162Y-80520619D01*
X138984162Y-80520619D02*
X139079400Y-80568238D01*
X139079400Y-80568238D02*
X139127019Y-80615857D01*
X139127019Y-80615857D02*
X139174638Y-80711095D01*
X139174638Y-80711095D02*
X139222257Y-80901571D01*
X139222257Y-80901571D02*
X139222257Y-81139666D01*
X139222257Y-81139666D02*
X139174638Y-81330142D01*
X139174638Y-81330142D02*
X139127019Y-81425380D01*
X139127019Y-81425380D02*
X139079400Y-81473000D01*
X139079400Y-81473000D02*
X138984162Y-81520619D01*
X138984162Y-81520619D02*
X138888924Y-81520619D01*
X138888924Y-81520619D02*
X138793686Y-81473000D01*
X138793686Y-81473000D02*
X138746067Y-81425380D01*
X138746067Y-81425380D02*
X138698448Y-81330142D01*
X138698448Y-81330142D02*
X138650829Y-81139666D01*
X138650829Y-81139666D02*
X138650829Y-80901571D01*
X138650829Y-80901571D02*
X138698448Y-80711095D01*
X138698448Y-80711095D02*
X138746067Y-80615857D01*
X138746067Y-80615857D02*
X138793686Y-80568238D01*
X138793686Y-80568238D02*
X138888924Y-80520619D01*
X156953105Y-81395219D02*
X156953105Y-82204742D01*
X156953105Y-82204742D02*
X157000724Y-82299980D01*
X157000724Y-82299980D02*
X157048343Y-82347600D01*
X157048343Y-82347600D02*
X157143581Y-82395219D01*
X157143581Y-82395219D02*
X157334057Y-82395219D01*
X157334057Y-82395219D02*
X157429295Y-82347600D01*
X157429295Y-82347600D02*
X157476914Y-82299980D01*
X157476914Y-82299980D02*
X157524533Y-82204742D01*
X157524533Y-82204742D02*
X157524533Y-81395219D01*
X158524533Y-82395219D02*
X157953105Y-82395219D01*
X158238819Y-82395219D02*
X158238819Y-81395219D01*
X158238819Y-81395219D02*
X158143581Y-81538076D01*
X158143581Y-81538076D02*
X158048343Y-81633314D01*
X158048343Y-81633314D02*
X157953105Y-81680933D01*
X159143581Y-81395219D02*
X159238819Y-81395219D01*
X159238819Y-81395219D02*
X159334057Y-81442838D01*
X159334057Y-81442838D02*
X159381676Y-81490457D01*
X159381676Y-81490457D02*
X159429295Y-81585695D01*
X159429295Y-81585695D02*
X159476914Y-81776171D01*
X159476914Y-81776171D02*
X159476914Y-82014266D01*
X159476914Y-82014266D02*
X159429295Y-82204742D01*
X159429295Y-82204742D02*
X159381676Y-82299980D01*
X159381676Y-82299980D02*
X159334057Y-82347600D01*
X159334057Y-82347600D02*
X159238819Y-82395219D01*
X159238819Y-82395219D02*
X159143581Y-82395219D01*
X159143581Y-82395219D02*
X159048343Y-82347600D01*
X159048343Y-82347600D02*
X159000724Y-82299980D01*
X159000724Y-82299980D02*
X158953105Y-82204742D01*
X158953105Y-82204742D02*
X158905486Y-82014266D01*
X158905486Y-82014266D02*
X158905486Y-81776171D01*
X158905486Y-81776171D02*
X158953105Y-81585695D01*
X158953105Y-81585695D02*
X159000724Y-81490457D01*
X159000724Y-81490457D02*
X159048343Y-81442838D01*
X159048343Y-81442838D02*
X159143581Y-81395219D01*
X139366680Y-107030718D02*
X139414300Y-107078337D01*
X139414300Y-107078337D02*
X139461919Y-107221194D01*
X139461919Y-107221194D02*
X139461919Y-107316432D01*
X139461919Y-107316432D02*
X139414300Y-107459289D01*
X139414300Y-107459289D02*
X139319061Y-107554527D01*
X139319061Y-107554527D02*
X139223823Y-107602146D01*
X139223823Y-107602146D02*
X139033347Y-107649765D01*
X139033347Y-107649765D02*
X138890490Y-107649765D01*
X138890490Y-107649765D02*
X138700014Y-107602146D01*
X138700014Y-107602146D02*
X138604776Y-107554527D01*
X138604776Y-107554527D02*
X138509538Y-107459289D01*
X138509538Y-107459289D02*
X138461919Y-107316432D01*
X138461919Y-107316432D02*
X138461919Y-107221194D01*
X138461919Y-107221194D02*
X138509538Y-107078337D01*
X138509538Y-107078337D02*
X138557157Y-107030718D01*
X138795252Y-106173575D02*
X139461919Y-106173575D01*
X138414300Y-106411670D02*
X139128585Y-106649765D01*
X139128585Y-106649765D02*
X139128585Y-106030718D01*
X170846232Y-106358593D02*
X170798613Y-106406213D01*
X170798613Y-106406213D02*
X170655756Y-106453832D01*
X170655756Y-106453832D02*
X170560518Y-106453832D01*
X170560518Y-106453832D02*
X170417661Y-106406213D01*
X170417661Y-106406213D02*
X170322423Y-106310974D01*
X170322423Y-106310974D02*
X170274804Y-106215736D01*
X170274804Y-106215736D02*
X170227185Y-106025260D01*
X170227185Y-106025260D02*
X170227185Y-105882403D01*
X170227185Y-105882403D02*
X170274804Y-105691927D01*
X170274804Y-105691927D02*
X170322423Y-105596689D01*
X170322423Y-105596689D02*
X170417661Y-105501451D01*
X170417661Y-105501451D02*
X170560518Y-105453832D01*
X170560518Y-105453832D02*
X170655756Y-105453832D01*
X170655756Y-105453832D02*
X170798613Y-105501451D01*
X170798613Y-105501451D02*
X170846232Y-105549070D01*
X171227185Y-105549070D02*
X171274804Y-105501451D01*
X171274804Y-105501451D02*
X171370042Y-105453832D01*
X171370042Y-105453832D02*
X171608137Y-105453832D01*
X171608137Y-105453832D02*
X171703375Y-105501451D01*
X171703375Y-105501451D02*
X171750994Y-105549070D01*
X171750994Y-105549070D02*
X171798613Y-105644308D01*
X171798613Y-105644308D02*
X171798613Y-105739546D01*
X171798613Y-105739546D02*
X171750994Y-105882403D01*
X171750994Y-105882403D02*
X171179566Y-106453832D01*
X171179566Y-106453832D02*
X171798613Y-106453832D01*
X172750994Y-106453832D02*
X172179566Y-106453832D01*
X172465280Y-106453832D02*
X172465280Y-105453832D01*
X172465280Y-105453832D02*
X172370042Y-105596689D01*
X172370042Y-105596689D02*
X172274804Y-105691927D01*
X172274804Y-105691927D02*
X172179566Y-105739546D01*
X160654080Y-106578495D02*
X159844557Y-106578495D01*
X159844557Y-106578495D02*
X159749319Y-106626114D01*
X159749319Y-106626114D02*
X159701700Y-106673733D01*
X159701700Y-106673733D02*
X159654080Y-106768971D01*
X159654080Y-106768971D02*
X159654080Y-106959447D01*
X159654080Y-106959447D02*
X159701700Y-107054685D01*
X159701700Y-107054685D02*
X159749319Y-107102304D01*
X159749319Y-107102304D02*
X159844557Y-107149923D01*
X159844557Y-107149923D02*
X160654080Y-107149923D01*
X160654080Y-107530876D02*
X160654080Y-108197542D01*
X160654080Y-108197542D02*
X159654080Y-107768971D01*
X162154080Y-104698800D02*
X161915985Y-104698800D01*
X162011223Y-104460705D02*
X161915985Y-104698800D01*
X161915985Y-104698800D02*
X162011223Y-104936895D01*
X161725509Y-104555943D02*
X161915985Y-104698800D01*
X161915985Y-104698800D02*
X161725509Y-104841657D01*
X162154080Y-104698800D02*
X161915985Y-104698800D01*
X162011223Y-104460705D02*
X161915985Y-104698800D01*
X161915985Y-104698800D02*
X162011223Y-104936895D01*
X161725509Y-104555943D02*
X161915985Y-104698800D01*
X161915985Y-104698800D02*
X161725509Y-104841657D01*
X170846232Y-107882593D02*
X170798613Y-107930213D01*
X170798613Y-107930213D02*
X170655756Y-107977832D01*
X170655756Y-107977832D02*
X170560518Y-107977832D01*
X170560518Y-107977832D02*
X170417661Y-107930213D01*
X170417661Y-107930213D02*
X170322423Y-107834974D01*
X170322423Y-107834974D02*
X170274804Y-107739736D01*
X170274804Y-107739736D02*
X170227185Y-107549260D01*
X170227185Y-107549260D02*
X170227185Y-107406403D01*
X170227185Y-107406403D02*
X170274804Y-107215927D01*
X170274804Y-107215927D02*
X170322423Y-107120689D01*
X170322423Y-107120689D02*
X170417661Y-107025451D01*
X170417661Y-107025451D02*
X170560518Y-106977832D01*
X170560518Y-106977832D02*
X170655756Y-106977832D01*
X170655756Y-106977832D02*
X170798613Y-107025451D01*
X170798613Y-107025451D02*
X170846232Y-107073070D01*
X171227185Y-107073070D02*
X171274804Y-107025451D01*
X171274804Y-107025451D02*
X171370042Y-106977832D01*
X171370042Y-106977832D02*
X171608137Y-106977832D01*
X171608137Y-106977832D02*
X171703375Y-107025451D01*
X171703375Y-107025451D02*
X171750994Y-107073070D01*
X171750994Y-107073070D02*
X171798613Y-107168308D01*
X171798613Y-107168308D02*
X171798613Y-107263546D01*
X171798613Y-107263546D02*
X171750994Y-107406403D01*
X171750994Y-107406403D02*
X171179566Y-107977832D01*
X171179566Y-107977832D02*
X171798613Y-107977832D01*
X172179566Y-107073070D02*
X172227185Y-107025451D01*
X172227185Y-107025451D02*
X172322423Y-106977832D01*
X172322423Y-106977832D02*
X172560518Y-106977832D01*
X172560518Y-106977832D02*
X172655756Y-107025451D01*
X172655756Y-107025451D02*
X172703375Y-107073070D01*
X172703375Y-107073070D02*
X172750994Y-107168308D01*
X172750994Y-107168308D02*
X172750994Y-107263546D01*
X172750994Y-107263546D02*
X172703375Y-107406403D01*
X172703375Y-107406403D02*
X172131947Y-107977832D01*
X172131947Y-107977832D02*
X172750994Y-107977832D01*
X153209676Y-110304366D02*
X153923961Y-110304366D01*
X153923961Y-110304366D02*
X154066818Y-110351985D01*
X154066818Y-110351985D02*
X154162057Y-110447223D01*
X154162057Y-110447223D02*
X154209676Y-110590080D01*
X154209676Y-110590080D02*
X154209676Y-110685318D01*
X153543009Y-109399604D02*
X154209676Y-109399604D01*
X153162057Y-109637699D02*
X153876342Y-109875794D01*
X153876342Y-109875794D02*
X153876342Y-109256747D01*
X162733919Y-103387703D02*
X163543442Y-103387703D01*
X163543442Y-103387703D02*
X163638680Y-103340084D01*
X163638680Y-103340084D02*
X163686300Y-103292465D01*
X163686300Y-103292465D02*
X163733919Y-103197227D01*
X163733919Y-103197227D02*
X163733919Y-103006751D01*
X163733919Y-103006751D02*
X163686300Y-102911513D01*
X163686300Y-102911513D02*
X163638680Y-102863894D01*
X163638680Y-102863894D02*
X163543442Y-102816275D01*
X163543442Y-102816275D02*
X162733919Y-102816275D01*
X163162490Y-102197227D02*
X163114871Y-102292465D01*
X163114871Y-102292465D02*
X163067252Y-102340084D01*
X163067252Y-102340084D02*
X162972014Y-102387703D01*
X162972014Y-102387703D02*
X162924395Y-102387703D01*
X162924395Y-102387703D02*
X162829157Y-102340084D01*
X162829157Y-102340084D02*
X162781538Y-102292465D01*
X162781538Y-102292465D02*
X162733919Y-102197227D01*
X162733919Y-102197227D02*
X162733919Y-102006751D01*
X162733919Y-102006751D02*
X162781538Y-101911513D01*
X162781538Y-101911513D02*
X162829157Y-101863894D01*
X162829157Y-101863894D02*
X162924395Y-101816275D01*
X162924395Y-101816275D02*
X162972014Y-101816275D01*
X162972014Y-101816275D02*
X163067252Y-101863894D01*
X163067252Y-101863894D02*
X163114871Y-101911513D01*
X163114871Y-101911513D02*
X163162490Y-102006751D01*
X163162490Y-102006751D02*
X163162490Y-102197227D01*
X163162490Y-102197227D02*
X163210109Y-102292465D01*
X163210109Y-102292465D02*
X163257728Y-102340084D01*
X163257728Y-102340084D02*
X163352966Y-102387703D01*
X163352966Y-102387703D02*
X163543442Y-102387703D01*
X163543442Y-102387703D02*
X163638680Y-102340084D01*
X163638680Y-102340084D02*
X163686300Y-102292465D01*
X163686300Y-102292465D02*
X163733919Y-102197227D01*
X163733919Y-102197227D02*
X163733919Y-102006751D01*
X163733919Y-102006751D02*
X163686300Y-101911513D01*
X163686300Y-101911513D02*
X163638680Y-101863894D01*
X163638680Y-101863894D02*
X163543442Y-101816275D01*
X163543442Y-101816275D02*
X163352966Y-101816275D01*
X163352966Y-101816275D02*
X163257728Y-101863894D01*
X163257728Y-101863894D02*
X163210109Y-101911513D01*
X163210109Y-101911513D02*
X163162490Y-102006751D01*
X135150280Y-106725918D02*
X135197900Y-106773537D01*
X135197900Y-106773537D02*
X135245519Y-106916394D01*
X135245519Y-106916394D02*
X135245519Y-107011632D01*
X135245519Y-107011632D02*
X135197900Y-107154489D01*
X135197900Y-107154489D02*
X135102661Y-107249727D01*
X135102661Y-107249727D02*
X135007423Y-107297346D01*
X135007423Y-107297346D02*
X134816947Y-107344965D01*
X134816947Y-107344965D02*
X134674090Y-107344965D01*
X134674090Y-107344965D02*
X134483614Y-107297346D01*
X134483614Y-107297346D02*
X134388376Y-107249727D01*
X134388376Y-107249727D02*
X134293138Y-107154489D01*
X134293138Y-107154489D02*
X134245519Y-107011632D01*
X134245519Y-107011632D02*
X134245519Y-106916394D01*
X134245519Y-106916394D02*
X134293138Y-106773537D01*
X134293138Y-106773537D02*
X134340757Y-106725918D01*
X134245519Y-106392584D02*
X134245519Y-105773537D01*
X134245519Y-105773537D02*
X134626471Y-106106870D01*
X134626471Y-106106870D02*
X134626471Y-105964013D01*
X134626471Y-105964013D02*
X134674090Y-105868775D01*
X134674090Y-105868775D02*
X134721709Y-105821156D01*
X134721709Y-105821156D02*
X134816947Y-105773537D01*
X134816947Y-105773537D02*
X135055042Y-105773537D01*
X135055042Y-105773537D02*
X135150280Y-105821156D01*
X135150280Y-105821156D02*
X135197900Y-105868775D01*
X135197900Y-105868775D02*
X135245519Y-105964013D01*
X135245519Y-105964013D02*
X135245519Y-106249727D01*
X135245519Y-106249727D02*
X135197900Y-106344965D01*
X135197900Y-106344965D02*
X135150280Y-106392584D01*
X169879180Y-93403657D02*
X169926800Y-93451276D01*
X169926800Y-93451276D02*
X169974419Y-93594133D01*
X169974419Y-93594133D02*
X169974419Y-93689371D01*
X169974419Y-93689371D02*
X169926800Y-93832228D01*
X169926800Y-93832228D02*
X169831561Y-93927466D01*
X169831561Y-93927466D02*
X169736323Y-93975085D01*
X169736323Y-93975085D02*
X169545847Y-94022704D01*
X169545847Y-94022704D02*
X169402990Y-94022704D01*
X169402990Y-94022704D02*
X169212514Y-93975085D01*
X169212514Y-93975085D02*
X169117276Y-93927466D01*
X169117276Y-93927466D02*
X169022038Y-93832228D01*
X169022038Y-93832228D02*
X168974419Y-93689371D01*
X168974419Y-93689371D02*
X168974419Y-93594133D01*
X168974419Y-93594133D02*
X169022038Y-93451276D01*
X169022038Y-93451276D02*
X169069657Y-93403657D01*
X168974419Y-93070323D02*
X168974419Y-92451276D01*
X168974419Y-92451276D02*
X169355371Y-92784609D01*
X169355371Y-92784609D02*
X169355371Y-92641752D01*
X169355371Y-92641752D02*
X169402990Y-92546514D01*
X169402990Y-92546514D02*
X169450609Y-92498895D01*
X169450609Y-92498895D02*
X169545847Y-92451276D01*
X169545847Y-92451276D02*
X169783942Y-92451276D01*
X169783942Y-92451276D02*
X169879180Y-92498895D01*
X169879180Y-92498895D02*
X169926800Y-92546514D01*
X169926800Y-92546514D02*
X169974419Y-92641752D01*
X169974419Y-92641752D02*
X169974419Y-92927466D01*
X169974419Y-92927466D02*
X169926800Y-93022704D01*
X169926800Y-93022704D02*
X169879180Y-93070323D01*
X168974419Y-91832228D02*
X168974419Y-91736990D01*
X168974419Y-91736990D02*
X169022038Y-91641752D01*
X169022038Y-91641752D02*
X169069657Y-91594133D01*
X169069657Y-91594133D02*
X169164895Y-91546514D01*
X169164895Y-91546514D02*
X169355371Y-91498895D01*
X169355371Y-91498895D02*
X169593466Y-91498895D01*
X169593466Y-91498895D02*
X169783942Y-91546514D01*
X169783942Y-91546514D02*
X169879180Y-91594133D01*
X169879180Y-91594133D02*
X169926800Y-91641752D01*
X169926800Y-91641752D02*
X169974419Y-91736990D01*
X169974419Y-91736990D02*
X169974419Y-91832228D01*
X169974419Y-91832228D02*
X169926800Y-91927466D01*
X169926800Y-91927466D02*
X169879180Y-91975085D01*
X169879180Y-91975085D02*
X169783942Y-92022704D01*
X169783942Y-92022704D02*
X169593466Y-92070323D01*
X169593466Y-92070323D02*
X169355371Y-92070323D01*
X169355371Y-92070323D02*
X169164895Y-92022704D01*
X169164895Y-92022704D02*
X169069657Y-91975085D01*
X169069657Y-91975085D02*
X169022038Y-91927466D01*
X169022038Y-91927466D02*
X168974419Y-91832228D01*
X140179466Y-92825219D02*
X140179466Y-93539504D01*
X140179466Y-93539504D02*
X140131847Y-93682361D01*
X140131847Y-93682361D02*
X140036609Y-93777600D01*
X140036609Y-93777600D02*
X139893752Y-93825219D01*
X139893752Y-93825219D02*
X139798514Y-93825219D01*
X140560419Y-92825219D02*
X141179466Y-92825219D01*
X141179466Y-92825219D02*
X140846133Y-93206171D01*
X140846133Y-93206171D02*
X140988990Y-93206171D01*
X140988990Y-93206171D02*
X141084228Y-93253790D01*
X141084228Y-93253790D02*
X141131847Y-93301409D01*
X141131847Y-93301409D02*
X141179466Y-93396647D01*
X141179466Y-93396647D02*
X141179466Y-93634742D01*
X141179466Y-93634742D02*
X141131847Y-93729980D01*
X141131847Y-93729980D02*
X141084228Y-93777600D01*
X141084228Y-93777600D02*
X140988990Y-93825219D01*
X140988990Y-93825219D02*
X140703276Y-93825219D01*
X140703276Y-93825219D02*
X140608038Y-93777600D01*
X140608038Y-93777600D02*
X140560419Y-93729980D01*
X161409142Y-99622780D02*
X161361523Y-99670400D01*
X161361523Y-99670400D02*
X161218666Y-99718019D01*
X161218666Y-99718019D02*
X161123428Y-99718019D01*
X161123428Y-99718019D02*
X160980571Y-99670400D01*
X160980571Y-99670400D02*
X160885333Y-99575161D01*
X160885333Y-99575161D02*
X160837714Y-99479923D01*
X160837714Y-99479923D02*
X160790095Y-99289447D01*
X160790095Y-99289447D02*
X160790095Y-99146590D01*
X160790095Y-99146590D02*
X160837714Y-98956114D01*
X160837714Y-98956114D02*
X160885333Y-98860876D01*
X160885333Y-98860876D02*
X160980571Y-98765638D01*
X160980571Y-98765638D02*
X161123428Y-98718019D01*
X161123428Y-98718019D02*
X161218666Y-98718019D01*
X161218666Y-98718019D02*
X161361523Y-98765638D01*
X161361523Y-98765638D02*
X161409142Y-98813257D01*
X162361523Y-99718019D02*
X161790095Y-99718019D01*
X162075809Y-99718019D02*
X162075809Y-98718019D01*
X162075809Y-98718019D02*
X161980571Y-98860876D01*
X161980571Y-98860876D02*
X161885333Y-98956114D01*
X161885333Y-98956114D02*
X161790095Y-99003733D01*
X162837714Y-99718019D02*
X163028190Y-99718019D01*
X163028190Y-99718019D02*
X163123428Y-99670400D01*
X163123428Y-99670400D02*
X163171047Y-99622780D01*
X163171047Y-99622780D02*
X163266285Y-99479923D01*
X163266285Y-99479923D02*
X163313904Y-99289447D01*
X163313904Y-99289447D02*
X163313904Y-98908495D01*
X163313904Y-98908495D02*
X163266285Y-98813257D01*
X163266285Y-98813257D02*
X163218666Y-98765638D01*
X163218666Y-98765638D02*
X163123428Y-98718019D01*
X163123428Y-98718019D02*
X162932952Y-98718019D01*
X162932952Y-98718019D02*
X162837714Y-98765638D01*
X162837714Y-98765638D02*
X162790095Y-98813257D01*
X162790095Y-98813257D02*
X162742476Y-98908495D01*
X162742476Y-98908495D02*
X162742476Y-99146590D01*
X162742476Y-99146590D02*
X162790095Y-99241828D01*
X162790095Y-99241828D02*
X162837714Y-99289447D01*
X162837714Y-99289447D02*
X162932952Y-99337066D01*
X162932952Y-99337066D02*
X163123428Y-99337066D01*
X163123428Y-99337066D02*
X163218666Y-99289447D01*
X163218666Y-99289447D02*
X163266285Y-99241828D01*
X163266285Y-99241828D02*
X163313904Y-99146590D01*
X165508994Y-85603544D02*
X165508994Y-86413067D01*
X165508994Y-86413067D02*
X165556613Y-86508305D01*
X165556613Y-86508305D02*
X165604232Y-86555925D01*
X165604232Y-86555925D02*
X165699470Y-86603544D01*
X165699470Y-86603544D02*
X165889946Y-86603544D01*
X165889946Y-86603544D02*
X165985184Y-86555925D01*
X165985184Y-86555925D02*
X166032803Y-86508305D01*
X166032803Y-86508305D02*
X166080422Y-86413067D01*
X166080422Y-86413067D02*
X166080422Y-85603544D01*
X167080422Y-86603544D02*
X166508994Y-86603544D01*
X166794708Y-86603544D02*
X166794708Y-85603544D01*
X166794708Y-85603544D02*
X166699470Y-85746401D01*
X166699470Y-85746401D02*
X166604232Y-85841639D01*
X166604232Y-85841639D02*
X166508994Y-85889258D01*
X168032803Y-86603544D02*
X167461375Y-86603544D01*
X167747089Y-86603544D02*
X167747089Y-85603544D01*
X167747089Y-85603544D02*
X167651851Y-85746401D01*
X167651851Y-85746401D02*
X167556613Y-85841639D01*
X167556613Y-85841639D02*
X167461375Y-85889258D01*
X154374302Y-90258719D02*
X154374302Y-90496814D01*
X154136207Y-90401576D02*
X154374302Y-90496814D01*
X154374302Y-90496814D02*
X154612397Y-90401576D01*
X154231445Y-90687290D02*
X154374302Y-90496814D01*
X154374302Y-90496814D02*
X154517159Y-90687290D01*
X152375679Y-88487657D02*
X152423299Y-88535276D01*
X152423299Y-88535276D02*
X152470918Y-88678133D01*
X152470918Y-88678133D02*
X152470918Y-88773371D01*
X152470918Y-88773371D02*
X152423299Y-88916228D01*
X152423299Y-88916228D02*
X152328060Y-89011466D01*
X152328060Y-89011466D02*
X152232822Y-89059085D01*
X152232822Y-89059085D02*
X152042346Y-89106704D01*
X152042346Y-89106704D02*
X151899489Y-89106704D01*
X151899489Y-89106704D02*
X151709013Y-89059085D01*
X151709013Y-89059085D02*
X151613775Y-89011466D01*
X151613775Y-89011466D02*
X151518537Y-88916228D01*
X151518537Y-88916228D02*
X151470918Y-88773371D01*
X151470918Y-88773371D02*
X151470918Y-88678133D01*
X151470918Y-88678133D02*
X151518537Y-88535276D01*
X151518537Y-88535276D02*
X151566156Y-88487657D01*
X151566156Y-88106704D02*
X151518537Y-88059085D01*
X151518537Y-88059085D02*
X151470918Y-87963847D01*
X151470918Y-87963847D02*
X151470918Y-87725752D01*
X151470918Y-87725752D02*
X151518537Y-87630514D01*
X151518537Y-87630514D02*
X151566156Y-87582895D01*
X151566156Y-87582895D02*
X151661394Y-87535276D01*
X151661394Y-87535276D02*
X151756632Y-87535276D01*
X151756632Y-87535276D02*
X151899489Y-87582895D01*
X151899489Y-87582895D02*
X152470918Y-88154323D01*
X152470918Y-88154323D02*
X152470918Y-87535276D01*
X151470918Y-87201942D02*
X151470918Y-86535276D01*
X151470918Y-86535276D02*
X152470918Y-86963847D01*
X163608281Y-82086857D02*
X163655901Y-82134476D01*
X163655901Y-82134476D02*
X163703520Y-82277333D01*
X163703520Y-82277333D02*
X163703520Y-82372571D01*
X163703520Y-82372571D02*
X163655901Y-82515428D01*
X163655901Y-82515428D02*
X163560662Y-82610666D01*
X163560662Y-82610666D02*
X163465424Y-82658285D01*
X163465424Y-82658285D02*
X163274948Y-82705904D01*
X163274948Y-82705904D02*
X163132091Y-82705904D01*
X163132091Y-82705904D02*
X162941615Y-82658285D01*
X162941615Y-82658285D02*
X162846377Y-82610666D01*
X162846377Y-82610666D02*
X162751139Y-82515428D01*
X162751139Y-82515428D02*
X162703520Y-82372571D01*
X162703520Y-82372571D02*
X162703520Y-82277333D01*
X162703520Y-82277333D02*
X162751139Y-82134476D01*
X162751139Y-82134476D02*
X162798758Y-82086857D01*
X162798758Y-81705904D02*
X162751139Y-81658285D01*
X162751139Y-81658285D02*
X162703520Y-81563047D01*
X162703520Y-81563047D02*
X162703520Y-81324952D01*
X162703520Y-81324952D02*
X162751139Y-81229714D01*
X162751139Y-81229714D02*
X162798758Y-81182095D01*
X162798758Y-81182095D02*
X162893996Y-81134476D01*
X162893996Y-81134476D02*
X162989234Y-81134476D01*
X162989234Y-81134476D02*
X163132091Y-81182095D01*
X163132091Y-81182095D02*
X163703520Y-81753523D01*
X163703520Y-81753523D02*
X163703520Y-81134476D01*
X162703520Y-80277333D02*
X162703520Y-80467809D01*
X162703520Y-80467809D02*
X162751139Y-80563047D01*
X162751139Y-80563047D02*
X162798758Y-80610666D01*
X162798758Y-80610666D02*
X162941615Y-80705904D01*
X162941615Y-80705904D02*
X163132091Y-80753523D01*
X163132091Y-80753523D02*
X163513043Y-80753523D01*
X163513043Y-80753523D02*
X163608281Y-80705904D01*
X163608281Y-80705904D02*
X163655901Y-80658285D01*
X163655901Y-80658285D02*
X163703520Y-80563047D01*
X163703520Y-80563047D02*
X163703520Y-80372571D01*
X163703520Y-80372571D02*
X163655901Y-80277333D01*
X163655901Y-80277333D02*
X163608281Y-80229714D01*
X163608281Y-80229714D02*
X163513043Y-80182095D01*
X163513043Y-80182095D02*
X163274948Y-80182095D01*
X163274948Y-80182095D02*
X163179710Y-80229714D01*
X163179710Y-80229714D02*
X163132091Y-80277333D01*
X163132091Y-80277333D02*
X163084472Y-80372571D01*
X163084472Y-80372571D02*
X163084472Y-80563047D01*
X163084472Y-80563047D02*
X163132091Y-80658285D01*
X163132091Y-80658285D02*
X163179710Y-80705904D01*
X163179710Y-80705904D02*
X163274948Y-80753523D01*
X164328820Y-107089953D02*
X164328820Y-107804238D01*
X164328820Y-107804238D02*
X164281201Y-107947095D01*
X164281201Y-107947095D02*
X164185963Y-108042334D01*
X164185963Y-108042334D02*
X164043106Y-108089953D01*
X164043106Y-108089953D02*
X163947868Y-108089953D01*
X165233582Y-107089953D02*
X165043106Y-107089953D01*
X165043106Y-107089953D02*
X164947868Y-107137572D01*
X164947868Y-107137572D02*
X164900249Y-107185191D01*
X164900249Y-107185191D02*
X164805011Y-107328048D01*
X164805011Y-107328048D02*
X164757392Y-107518524D01*
X164757392Y-107518524D02*
X164757392Y-107899476D01*
X164757392Y-107899476D02*
X164805011Y-107994714D01*
X164805011Y-107994714D02*
X164852630Y-108042334D01*
X164852630Y-108042334D02*
X164947868Y-108089953D01*
X164947868Y-108089953D02*
X165138344Y-108089953D01*
X165138344Y-108089953D02*
X165233582Y-108042334D01*
X165233582Y-108042334D02*
X165281201Y-107994714D01*
X165281201Y-107994714D02*
X165328820Y-107899476D01*
X165328820Y-107899476D02*
X165328820Y-107661381D01*
X165328820Y-107661381D02*
X165281201Y-107566143D01*
X165281201Y-107566143D02*
X165233582Y-107518524D01*
X165233582Y-107518524D02*
X165138344Y-107470905D01*
X165138344Y-107470905D02*
X164947868Y-107470905D01*
X164947868Y-107470905D02*
X164852630Y-107518524D01*
X164852630Y-107518524D02*
X164805011Y-107566143D01*
X164805011Y-107566143D02*
X164757392Y-107661381D01*
X158738693Y-91415659D02*
X158691074Y-91463279D01*
X158691074Y-91463279D02*
X158548217Y-91510898D01*
X158548217Y-91510898D02*
X158452979Y-91510898D01*
X158452979Y-91510898D02*
X158310122Y-91463279D01*
X158310122Y-91463279D02*
X158214884Y-91368040D01*
X158214884Y-91368040D02*
X158167265Y-91272802D01*
X158167265Y-91272802D02*
X158119646Y-91082326D01*
X158119646Y-91082326D02*
X158119646Y-90939469D01*
X158119646Y-90939469D02*
X158167265Y-90748993D01*
X158167265Y-90748993D02*
X158214884Y-90653755D01*
X158214884Y-90653755D02*
X158310122Y-90558517D01*
X158310122Y-90558517D02*
X158452979Y-90510898D01*
X158452979Y-90510898D02*
X158548217Y-90510898D01*
X158548217Y-90510898D02*
X158691074Y-90558517D01*
X158691074Y-90558517D02*
X158738693Y-90606136D01*
X159119646Y-90606136D02*
X159167265Y-90558517D01*
X159167265Y-90558517D02*
X159262503Y-90510898D01*
X159262503Y-90510898D02*
X159500598Y-90510898D01*
X159500598Y-90510898D02*
X159595836Y-90558517D01*
X159595836Y-90558517D02*
X159643455Y-90606136D01*
X159643455Y-90606136D02*
X159691074Y-90701374D01*
X159691074Y-90701374D02*
X159691074Y-90796612D01*
X159691074Y-90796612D02*
X159643455Y-90939469D01*
X159643455Y-90939469D02*
X159072027Y-91510898D01*
X159072027Y-91510898D02*
X159691074Y-91510898D01*
X160262503Y-90939469D02*
X160167265Y-90891850D01*
X160167265Y-90891850D02*
X160119646Y-90844231D01*
X160119646Y-90844231D02*
X160072027Y-90748993D01*
X160072027Y-90748993D02*
X160072027Y-90701374D01*
X160072027Y-90701374D02*
X160119646Y-90606136D01*
X160119646Y-90606136D02*
X160167265Y-90558517D01*
X160167265Y-90558517D02*
X160262503Y-90510898D01*
X160262503Y-90510898D02*
X160452979Y-90510898D01*
X160452979Y-90510898D02*
X160548217Y-90558517D01*
X160548217Y-90558517D02*
X160595836Y-90606136D01*
X160595836Y-90606136D02*
X160643455Y-90701374D01*
X160643455Y-90701374D02*
X160643455Y-90748993D01*
X160643455Y-90748993D02*
X160595836Y-90844231D01*
X160595836Y-90844231D02*
X160548217Y-90891850D01*
X160548217Y-90891850D02*
X160452979Y-90939469D01*
X160452979Y-90939469D02*
X160262503Y-90939469D01*
X160262503Y-90939469D02*
X160167265Y-90987088D01*
X160167265Y-90987088D02*
X160119646Y-91034707D01*
X160119646Y-91034707D02*
X160072027Y-91129945D01*
X160072027Y-91129945D02*
X160072027Y-91320421D01*
X160072027Y-91320421D02*
X160119646Y-91415659D01*
X160119646Y-91415659D02*
X160167265Y-91463279D01*
X160167265Y-91463279D02*
X160262503Y-91510898D01*
X160262503Y-91510898D02*
X160452979Y-91510898D01*
X160452979Y-91510898D02*
X160548217Y-91463279D01*
X160548217Y-91463279D02*
X160595836Y-91415659D01*
X160595836Y-91415659D02*
X160643455Y-91320421D01*
X160643455Y-91320421D02*
X160643455Y-91129945D01*
X160643455Y-91129945D02*
X160595836Y-91034707D01*
X160595836Y-91034707D02*
X160548217Y-90987088D01*
X160548217Y-90987088D02*
X160452979Y-90939469D01*
X155147180Y-91040357D02*
X155194800Y-91087976D01*
X155194800Y-91087976D02*
X155242419Y-91230833D01*
X155242419Y-91230833D02*
X155242419Y-91326071D01*
X155242419Y-91326071D02*
X155194800Y-91468928D01*
X155194800Y-91468928D02*
X155099561Y-91564166D01*
X155099561Y-91564166D02*
X155004323Y-91611785D01*
X155004323Y-91611785D02*
X154813847Y-91659404D01*
X154813847Y-91659404D02*
X154670990Y-91659404D01*
X154670990Y-91659404D02*
X154480514Y-91611785D01*
X154480514Y-91611785D02*
X154385276Y-91564166D01*
X154385276Y-91564166D02*
X154290038Y-91468928D01*
X154290038Y-91468928D02*
X154242419Y-91326071D01*
X154242419Y-91326071D02*
X154242419Y-91230833D01*
X154242419Y-91230833D02*
X154290038Y-91087976D01*
X154290038Y-91087976D02*
X154337657Y-91040357D01*
X154337657Y-90659404D02*
X154290038Y-90611785D01*
X154290038Y-90611785D02*
X154242419Y-90516547D01*
X154242419Y-90516547D02*
X154242419Y-90278452D01*
X154242419Y-90278452D02*
X154290038Y-90183214D01*
X154290038Y-90183214D02*
X154337657Y-90135595D01*
X154337657Y-90135595D02*
X154432895Y-90087976D01*
X154432895Y-90087976D02*
X154528133Y-90087976D01*
X154528133Y-90087976D02*
X154670990Y-90135595D01*
X154670990Y-90135595D02*
X155242419Y-90707023D01*
X155242419Y-90707023D02*
X155242419Y-90087976D01*
X154242419Y-89183214D02*
X154242419Y-89659404D01*
X154242419Y-89659404D02*
X154718609Y-89707023D01*
X154718609Y-89707023D02*
X154670990Y-89659404D01*
X154670990Y-89659404D02*
X154623371Y-89564166D01*
X154623371Y-89564166D02*
X154623371Y-89326071D01*
X154623371Y-89326071D02*
X154670990Y-89230833D01*
X154670990Y-89230833D02*
X154718609Y-89183214D01*
X154718609Y-89183214D02*
X154813847Y-89135595D01*
X154813847Y-89135595D02*
X155051942Y-89135595D01*
X155051942Y-89135595D02*
X155147180Y-89183214D01*
X155147180Y-89183214D02*
X155194800Y-89230833D01*
X155194800Y-89230833D02*
X155242419Y-89326071D01*
X155242419Y-89326071D02*
X155242419Y-89564166D01*
X155242419Y-89564166D02*
X155194800Y-89659404D01*
X155194800Y-89659404D02*
X155147180Y-89707023D01*
D12*
%TO.C,U12*%
X144752800Y-102436400D02*
X145727800Y-102436400D01*
X144752800Y-103411400D02*
X144752800Y-102436400D01*
X144752800Y-106656400D02*
X144752800Y-105681400D01*
X145727800Y-106656400D02*
X144752800Y-106656400D01*
X147997800Y-102436400D02*
X148972800Y-102436400D01*
X148972800Y-102436400D02*
X148972800Y-103411400D01*
X148972800Y-105681400D02*
X148972800Y-106656400D01*
X148972800Y-106656400D02*
X147997800Y-106656400D01*
X146352800Y-107516400D02*
X145872800Y-107516400D01*
X146112800Y-107186400D01*
X146352800Y-107516400D01*
G36*
X146352800Y-107516400D02*
G01*
X145872800Y-107516400D01*
X146112800Y-107186400D01*
X146352800Y-107516400D01*
G37*
%TO.C,C2*%
X141187533Y-100118548D02*
X141480067Y-100118548D01*
X141187533Y-101138548D02*
X141480067Y-101138548D01*
%TO.C,C29*%
X162262433Y-92301600D02*
X162554967Y-92301600D01*
X162262433Y-93321600D02*
X162554967Y-93321600D01*
%TO.C,C1*%
X141188633Y-101590648D02*
X141481167Y-101590648D01*
X141188633Y-102610648D02*
X141481167Y-102610648D01*
%TO.C,J1*%
X171843531Y-101708400D02*
X172276544Y-101958400D01*
X171843531Y-102208400D02*
X171843531Y-101708400D01*
X172276544Y-101958400D02*
X171843531Y-102208400D01*
X172737869Y-80933400D02*
X182317869Y-80933400D01*
X172737869Y-111903400D02*
X172737869Y-80933400D01*
X182317869Y-111903400D02*
X172737869Y-111903400D01*
%TO.C,J8*%
X116433200Y-86894000D02*
X116433200Y-85894000D01*
X116433200Y-86894000D02*
X117433200Y-86894000D01*
X116723200Y-83184000D02*
X116723200Y-86604000D01*
X116723200Y-86604000D02*
X121193200Y-86604000D01*
X117033200Y-84544000D02*
X117233200Y-84544000D01*
X117033200Y-85344000D02*
X117033200Y-84544000D01*
X117233200Y-83694000D02*
X118958200Y-83694000D01*
X117233200Y-84544000D02*
X117233200Y-83694000D01*
X117233200Y-85344000D02*
X117033200Y-85344000D01*
X117233200Y-86094000D02*
X117233200Y-85344000D01*
X118958200Y-86094000D02*
X117233200Y-86094000D01*
X118958200Y-86094000D02*
X120683200Y-86094000D01*
X120683200Y-83694000D02*
X118958200Y-83694000D01*
X120683200Y-84544000D02*
X120683200Y-83694000D01*
X120683200Y-85344000D02*
X120883200Y-85344000D01*
X120683200Y-86094000D02*
X120683200Y-85344000D01*
X120883200Y-84544000D02*
X120683200Y-84544000D01*
X120883200Y-85344000D02*
X120883200Y-84544000D01*
X121193200Y-83184000D02*
X116723200Y-83184000D01*
X121193200Y-86604000D02*
X121193200Y-83184000D01*
D13*
%TO.C,U1*%
X113862800Y-108882000D02*
X113862800Y-90882000D01*
X117062800Y-87682000D02*
X149662800Y-87682000D01*
X149662800Y-87682000D02*
X149662800Y-112082000D01*
X149662800Y-112082000D02*
X117062800Y-112082000D01*
X113862800Y-90882000D02*
G75*
G02*
X117062800Y-87682000I3200000J0D01*
G01*
X117062800Y-112082000D02*
G75*
G02*
X113862800Y-108882000I-1J3199999D01*
G01*
D12*
%TO.C,C23*%
X149985000Y-97377467D02*
X149985000Y-97084933D01*
X151005000Y-97377467D02*
X151005000Y-97084933D01*
%TO.C,C18*%
X160806490Y-109717044D02*
X160513956Y-109717044D01*
X160806490Y-110737044D02*
X160513956Y-110737044D01*
%TO.C,C34*%
X148298433Y-107432900D02*
X148590967Y-107432900D01*
X148298433Y-108452900D02*
X148590967Y-108452900D01*
%TO.C,REF\u002A\u002A*%
X115725200Y-76242800D02*
X115725200Y-52242800D01*
X122475200Y-48482800D02*
X122475200Y-49182800D01*
X122475200Y-49182800D02*
X118785200Y-49182800D01*
X122825200Y-73142800D02*
X124155200Y-73142800D01*
X122825200Y-74472800D02*
X122825200Y-73142800D01*
X122825200Y-75742800D02*
X125425200Y-75742800D01*
X122825200Y-78342800D02*
X122825200Y-75742800D01*
X122825200Y-78342800D02*
X173745200Y-78342800D01*
X125425200Y-73142800D02*
X173745200Y-73142800D01*
X125425200Y-75742800D02*
X125425200Y-73142800D01*
X133895200Y-48482800D02*
X122475200Y-48482800D01*
X133895200Y-49182800D02*
X133895200Y-48482800D01*
X153125200Y-47382800D02*
X153125200Y-49182800D01*
X153125200Y-49182800D02*
X133895200Y-49182800D01*
X161245200Y-47382800D02*
X153125200Y-47382800D01*
X161245200Y-49182800D02*
X161245200Y-47382800D01*
X165725200Y-47382800D02*
X165725200Y-49182800D01*
X165725200Y-49182800D02*
X161245200Y-49182800D01*
X173745200Y-78342800D02*
X173745200Y-73142800D01*
X173845200Y-47382800D02*
X165725200Y-47382800D01*
X173845200Y-49182800D02*
X173845200Y-47382800D01*
X177785200Y-49182800D02*
X173845200Y-49182800D01*
X177785200Y-79302800D02*
X118785200Y-79302800D01*
X180845200Y-55682800D02*
X180845200Y-52242800D01*
X180845200Y-72802800D02*
X180845200Y-76242800D01*
X180845200Y-72802800D02*
X182045200Y-72802800D01*
X182045200Y-55682800D02*
X180845200Y-55682800D01*
X182045200Y-72802800D02*
X182045200Y-55682800D01*
X115725200Y-52242800D02*
G75*
G02*
X118785200Y-49182800I3060000J0D01*
G01*
X118785200Y-79302800D02*
G75*
G02*
X115725200Y-76242800I-1J3059999D01*
G01*
X177785200Y-49182800D02*
G75*
G02*
X180845200Y-52242800I0J-3060000D01*
G01*
X180845200Y-76242800D02*
G75*
G02*
X177785200Y-79302800I-3059999J-1D01*
G01*
%TO.C,J2*%
X120894800Y-108652000D02*
X122224800Y-108652000D01*
X120894800Y-109982000D02*
X120894800Y-108652000D01*
X123494800Y-108652000D02*
X141334800Y-108652000D01*
X123494800Y-111312000D02*
X123494800Y-108652000D01*
X123494800Y-111312000D02*
X141334800Y-111312000D01*
X141334800Y-111312000D02*
X141334800Y-108652000D01*
%TO.C,C31*%
X167374201Y-89426833D02*
X167374201Y-89719367D01*
X168394201Y-89426833D02*
X168394201Y-89719367D01*
%TO.C,C20*%
X165193267Y-97229200D02*
X164900733Y-97229200D01*
X165193267Y-98249200D02*
X164900733Y-98249200D01*
%TO.C,C24*%
X161062301Y-84589667D02*
X161062301Y-84297133D01*
X162082301Y-84589667D02*
X162082301Y-84297133D01*
%TO.C,C35*%
X148307033Y-108920300D02*
X148599567Y-108920300D01*
X148307033Y-109940300D02*
X148599567Y-109940300D01*
D14*
%TO.C,U9*%
X151723979Y-93987750D02*
X151723979Y-94682310D01*
X151723979Y-98652590D02*
X151723979Y-99347150D01*
X151723979Y-99347150D02*
X152315240Y-99347150D01*
X152315240Y-93987750D02*
X151723979Y-93987750D01*
X154485518Y-99347150D02*
X155076779Y-99347150D01*
X155076779Y-93987750D02*
X154485518Y-93987750D01*
X155076779Y-94682310D02*
X155076779Y-93987750D01*
X155076779Y-99347150D02*
X155076779Y-98652590D01*
D15*
G36*
X151292179Y-95357950D02*
G01*
X151038179Y-95357950D01*
X151038179Y-94976950D01*
X151292179Y-94976950D01*
X151292179Y-95357950D01*
G37*
D14*
%TO.C,U3*%
X142867126Y-104741726D02*
G75*
G02*
X142663926Y-104741726I-101600J0D01*
G01*
X142663926Y-104741726D02*
G75*
G02*
X142867126Y-104741726I101600J0D01*
G01*
D12*
%TO.C,J10*%
X131799400Y-85875800D02*
X131799400Y-84875800D01*
X131799400Y-85875800D02*
X132799400Y-85875800D01*
X132089400Y-82165800D02*
X132089400Y-85585800D01*
X132089400Y-85585800D02*
X144059400Y-85585800D01*
X132399400Y-83525800D02*
X132599400Y-83525800D01*
X132399400Y-84325800D02*
X132399400Y-83525800D01*
X132599400Y-82675800D02*
X138074400Y-82675800D01*
X132599400Y-83525800D02*
X132599400Y-82675800D01*
X132599400Y-84325800D02*
X132399400Y-84325800D01*
X132599400Y-85075800D02*
X132599400Y-84325800D01*
X138074400Y-85075800D02*
X132599400Y-85075800D01*
X138074400Y-85075800D02*
X143549400Y-85075800D01*
X143549400Y-82675800D02*
X138074400Y-82675800D01*
X143549400Y-83525800D02*
X143549400Y-82675800D01*
X143549400Y-84325800D02*
X143749400Y-84325800D01*
X143549400Y-85075800D02*
X143549400Y-84325800D01*
X143749400Y-83525800D02*
X143549400Y-83525800D01*
X143749400Y-84325800D02*
X143749400Y-83525800D01*
X144059400Y-82165800D02*
X132089400Y-82165800D01*
X144059400Y-85585800D02*
X144059400Y-82165800D01*
%TO.C,C32*%
X145511567Y-99083400D02*
X145219033Y-99083400D01*
X145511567Y-100103400D02*
X145219033Y-100103400D01*
%TO.C,U10*%
X156071401Y-83856300D02*
X157046401Y-83856300D01*
X156071401Y-84831300D02*
X156071401Y-83856300D01*
X156071401Y-88076300D02*
X156071401Y-87101300D01*
X157046401Y-88076300D02*
X156071401Y-88076300D01*
X159316401Y-83856300D02*
X160291401Y-83856300D01*
X160291401Y-83856300D02*
X160291401Y-84831300D01*
X160291401Y-87101300D02*
X160291401Y-88076300D01*
X160291401Y-88076300D02*
X159316401Y-88076300D01*
X155541401Y-85216300D02*
X155211401Y-85456300D01*
X155211401Y-84976300D01*
X155541401Y-85216300D01*
G36*
X155541401Y-85216300D02*
G01*
X155211401Y-85456300D01*
X155211401Y-84976300D01*
X155541401Y-85216300D01*
G37*
%TO.C,C4*%
X137132600Y-105732967D02*
X137132600Y-105440433D01*
X138152600Y-105732967D02*
X138152600Y-105440433D01*
%TO.C,C21*%
X168147125Y-105384512D02*
X168439659Y-105384512D01*
X168147125Y-106404512D02*
X168439659Y-106404512D01*
%TO.C,C33*%
X145486167Y-100556600D02*
X145193633Y-100556600D01*
X145486167Y-101576600D02*
X145193633Y-101576600D01*
D14*
%TO.C,U7*%
X157429200Y-105664000D02*
X157429200Y-106255261D01*
X157429200Y-108425539D02*
X157429200Y-109016800D01*
X157429200Y-109016800D02*
X158123760Y-109016800D01*
X158123760Y-105664000D02*
X157429200Y-105664000D01*
X162094040Y-109016800D02*
X162788600Y-109016800D01*
X162788600Y-105664000D02*
X162094040Y-105664000D01*
X162788600Y-106255261D02*
X162788600Y-105664000D01*
X162788600Y-109016800D02*
X162788600Y-108425539D01*
D15*
G36*
X158799400Y-109702600D02*
G01*
X158418400Y-109702600D01*
X158418400Y-109448600D01*
X158799400Y-109448600D01*
X158799400Y-109702600D01*
G37*
D12*
%TO.C,C22*%
X168147125Y-106908512D02*
X168439659Y-106908512D01*
X168147125Y-107928512D02*
X168439659Y-107928512D01*
%TO.C,J4*%
X151713200Y-101818800D02*
X151713200Y-108788800D01*
X151713200Y-108788800D02*
X155133200Y-108788800D01*
X152223200Y-102328800D02*
X152223200Y-105303800D01*
X152223200Y-108278800D02*
X152223200Y-105303800D01*
X153073200Y-102128800D02*
X153073200Y-102328800D01*
X153073200Y-102328800D02*
X152223200Y-102328800D01*
X153073200Y-108278800D02*
X152223200Y-108278800D01*
X153073200Y-108478800D02*
X153073200Y-108278800D01*
X153873200Y-102128800D02*
X153073200Y-102128800D01*
X153873200Y-102328800D02*
X153873200Y-102128800D01*
X153873200Y-108278800D02*
X153873200Y-108478800D01*
X153873200Y-108478800D02*
X153073200Y-108478800D01*
X154623200Y-102328800D02*
X153873200Y-102328800D01*
X154623200Y-105303800D02*
X154623200Y-102328800D01*
X154623200Y-105303800D02*
X154623200Y-108278800D01*
X154623200Y-108278800D02*
X153873200Y-108278800D01*
X155133200Y-101818800D02*
X151713200Y-101818800D01*
X155133200Y-108788800D02*
X155133200Y-101818800D01*
X155423200Y-109078800D02*
X154423200Y-109078800D01*
X155423200Y-109078800D02*
X155423200Y-108078800D01*
%TO.C,U8*%
X164499100Y-100515799D02*
X165474100Y-100515799D01*
X164499100Y-101490799D02*
X164499100Y-100515799D01*
X164499100Y-104735799D02*
X164499100Y-103760799D01*
X165474100Y-104735799D02*
X164499100Y-104735799D01*
X167744100Y-100515799D02*
X168719100Y-100515799D01*
X168719100Y-100515799D02*
X168719100Y-101490799D01*
X168719100Y-103760799D02*
X168719100Y-104735799D01*
X168719100Y-104735799D02*
X167744100Y-104735799D01*
X166099100Y-105595799D02*
X165619100Y-105595799D01*
X165859100Y-105265799D01*
X166099100Y-105595799D01*
G36*
X166099100Y-105595799D02*
G01*
X165619100Y-105595799D01*
X165859100Y-105265799D01*
X166099100Y-105595799D01*
G37*
%TO.C,C3*%
X135638600Y-105732967D02*
X135638600Y-105440433D01*
X136658600Y-105732967D02*
X136658600Y-105440433D01*
%TO.C,C30*%
X168898201Y-89426833D02*
X168898201Y-89719367D01*
X169918201Y-89426833D02*
X169918201Y-89719367D01*
%TO.C,J3*%
X141901400Y-92964000D02*
X141901400Y-87774000D01*
X148471400Y-87774000D02*
X141901400Y-87774000D01*
X148471400Y-92964000D02*
X141901400Y-92964000D01*
X148471400Y-92964000D02*
X148471400Y-87774000D01*
X148471400Y-95504000D02*
X148471400Y-98154000D01*
X148471400Y-98154000D02*
X145186400Y-98154000D01*
%TO.C,C19*%
X165194367Y-98753200D02*
X164901833Y-98753200D01*
X165194367Y-99773200D02*
X164901833Y-99773200D01*
D14*
%TO.C,U11*%
X162327951Y-87093679D02*
X162327951Y-87246460D01*
X162327951Y-90293698D02*
X162327951Y-90446479D01*
X162327951Y-90446479D02*
X165680751Y-90446479D01*
X165680751Y-87093679D02*
X162327951Y-87093679D01*
X165680751Y-87246460D02*
X165680751Y-87093679D01*
X165680751Y-90446479D02*
X165680751Y-90293698D01*
D12*
%TO.C,C27*%
X152753600Y-87355633D02*
X152753600Y-87648167D01*
X153773600Y-87355633D02*
X153773600Y-87648167D01*
%TO.C,C26*%
X162586301Y-84588567D02*
X162586301Y-84296033D01*
X163606301Y-84588567D02*
X163606301Y-84296033D01*
%TO.C,J6*%
X164479200Y-112395600D02*
X164479200Y-111395600D01*
X164479200Y-112395600D02*
X165479200Y-112395600D01*
X164769200Y-108685600D02*
X164769200Y-112105600D01*
X164769200Y-112105600D02*
X171739200Y-112105600D01*
X165079200Y-110045600D02*
X165279200Y-110045600D01*
X165079200Y-110845600D02*
X165079200Y-110045600D01*
X165279200Y-109195600D02*
X168254200Y-109195600D01*
X165279200Y-110045600D02*
X165279200Y-109195600D01*
X165279200Y-110845600D02*
X165079200Y-110845600D01*
X165279200Y-111595600D02*
X165279200Y-110845600D01*
X168254200Y-111595600D02*
X165279200Y-111595600D01*
X168254200Y-111595600D02*
X171229200Y-111595600D01*
X171229200Y-109195600D02*
X168254200Y-109195600D01*
X171229200Y-110045600D02*
X171229200Y-109195600D01*
X171229200Y-110845600D02*
X171429200Y-110845600D01*
X171229200Y-111595600D02*
X171229200Y-110845600D01*
X171429200Y-110045600D02*
X171229200Y-110045600D01*
X171429200Y-110845600D02*
X171429200Y-110045600D01*
X171739200Y-108685600D02*
X164769200Y-108685600D01*
X171739200Y-112105600D02*
X171739200Y-108685600D01*
%TO.C,C28*%
X162261333Y-90828400D02*
X162553867Y-90828400D01*
X162261333Y-91848400D02*
X162553867Y-91848400D01*
%TO.C,C25*%
X154277600Y-87354533D02*
X154277600Y-87647067D01*
X155297600Y-87354533D02*
X155297600Y-87647067D01*
%TD*%
%LPC*%
D15*
%TO.C,U9*%
G36*
X154152727Y-95070806D02*
G01*
X152648031Y-95070806D01*
X152648031Y-94620718D01*
X154152727Y-94620718D01*
X154152727Y-95070806D01*
G37*
G36*
X154152778Y-98712157D02*
G01*
X152647980Y-98712157D01*
X152647980Y-98262157D01*
X154152778Y-98262157D01*
X154152778Y-98712157D01*
G37*
%TO.C,U7*%
G36*
X158512256Y-108092748D02*
G01*
X158062168Y-108092748D01*
X158062168Y-106588052D01*
X158512256Y-106588052D01*
X158512256Y-108092748D01*
G37*
G36*
X162153607Y-108092799D02*
G01*
X161703607Y-108092799D01*
X161703607Y-106588001D01*
X162153607Y-106588001D01*
X162153607Y-108092799D01*
G37*
%TD*%
D16*
%TO.C,U12*%
X146212800Y-105196400D03*
X147512800Y-105196400D03*
X146212800Y-103896400D03*
X147512800Y-103896400D03*
D17*
X146112800Y-106483900D03*
X146612800Y-106483900D03*
X147112800Y-106483900D03*
X147612800Y-106483900D03*
D18*
X148800300Y-105296400D03*
X148800300Y-104796400D03*
X148800300Y-104296400D03*
X148800300Y-103796400D03*
D17*
X147612800Y-102608900D03*
X147112800Y-102608900D03*
X146612800Y-102608900D03*
X146112800Y-102608900D03*
D18*
X144925300Y-103796400D03*
X144925300Y-104296400D03*
X144925300Y-104796400D03*
X144925300Y-105296400D03*
D19*
X146862800Y-104546400D03*
%TD*%
D20*
%TO.C,C2*%
X140471300Y-100628548D03*
X142196300Y-100628548D03*
%TD*%
%TO.C,C29*%
X161546200Y-92811600D03*
X163271200Y-92811600D03*
%TD*%
%TO.C,C1*%
X140472400Y-102100648D03*
X142197400Y-102100648D03*
%TD*%
D21*
%TO.C,J1*%
X177437869Y-108918400D03*
X177437869Y-83918400D03*
D22*
X174597869Y-101958400D03*
D23*
X174597869Y-99188400D03*
X174597869Y-96418400D03*
X174597869Y-93648400D03*
X174597869Y-90878400D03*
X177437869Y-100573400D03*
X177437869Y-97803400D03*
X177437869Y-95033400D03*
X177437869Y-92263400D03*
%TD*%
D24*
%TO.C,J8*%
X118333200Y-85344000D03*
D25*
X119583200Y-85344000D03*
%TD*%
D26*
%TO.C,U1*%
X122224800Y-109982000D03*
D27*
X117093800Y-108843000D03*
D28*
X117093800Y-108843000D03*
D29*
X145223716Y-95515084D03*
D27*
X117093800Y-90843000D03*
D28*
X117093800Y-90843000D03*
D30*
X124764800Y-109982000D03*
D31*
X145223716Y-90435084D03*
D30*
X127304800Y-109982000D03*
X129844800Y-109982000D03*
X132384800Y-109982000D03*
X134924800Y-109982000D03*
X137464800Y-109982000D03*
X140004800Y-109982000D03*
%TD*%
D32*
%TO.C,C23*%
X150495000Y-98093700D03*
X150495000Y-96368700D03*
%TD*%
D33*
%TO.C,C18*%
X161522723Y-110227044D03*
X159797723Y-110227044D03*
%TD*%
D20*
%TO.C,C34*%
X147582200Y-107942900D03*
X149307200Y-107942900D03*
%TD*%
D34*
%TO.C,REF\u002A\u002A*%
X119285200Y-75742800D03*
X177285200Y-75742800D03*
X119285200Y-52742800D03*
X177285200Y-52742800D03*
D35*
X124155200Y-74472800D03*
D30*
X124155200Y-77012800D03*
X126695200Y-74472800D03*
X126695200Y-77012800D03*
X129235200Y-74472800D03*
X129235200Y-77012800D03*
X131775200Y-74472800D03*
X131775200Y-77012800D03*
X134315200Y-74472800D03*
X134315200Y-77012800D03*
X136855200Y-74472800D03*
X136855200Y-77012800D03*
X139395200Y-74472800D03*
X139395200Y-77012800D03*
X141935200Y-74472800D03*
X141935200Y-77012800D03*
X144475200Y-74472800D03*
X144475200Y-77012800D03*
X147015200Y-74472800D03*
X147015200Y-77012800D03*
X149555200Y-74472800D03*
X149555200Y-77012800D03*
X152095200Y-74472800D03*
X152095200Y-77012800D03*
X154635200Y-74472800D03*
X154635200Y-77012800D03*
X157175200Y-74472800D03*
X157175200Y-77012800D03*
X159715200Y-74472800D03*
X159715200Y-77012800D03*
X162255200Y-74472800D03*
X162255200Y-77012800D03*
X164795200Y-74472800D03*
X164795200Y-77012800D03*
X167335200Y-74472800D03*
X167335200Y-77012800D03*
X169875200Y-74472800D03*
X169875200Y-77012800D03*
X172415200Y-74472800D03*
X172415200Y-77012800D03*
%TD*%
D35*
%TO.C,J2*%
X122224800Y-109982000D03*
D36*
X124764800Y-109982000D03*
X127304800Y-109982000D03*
X129844800Y-109982000D03*
X132384800Y-109982000D03*
X134924800Y-109982000D03*
X137464800Y-109982000D03*
X140004800Y-109982000D03*
%TD*%
D37*
%TO.C,C31*%
X167884201Y-88710600D03*
X167884201Y-90435600D03*
%TD*%
D33*
%TO.C,C20*%
X165909500Y-97739200D03*
X164184500Y-97739200D03*
%TD*%
D32*
%TO.C,C24*%
X161572301Y-85305900D03*
X161572301Y-83580900D03*
%TD*%
D20*
%TO.C,C35*%
X147590800Y-109430300D03*
X149315800Y-109430300D03*
%TD*%
D38*
%TO.C,U9*%
X154848179Y-98167450D03*
X154848179Y-97567451D03*
X154848179Y-96967449D03*
X154848179Y-96367451D03*
X154848179Y-95767449D03*
X154848179Y-95167450D03*
D39*
X153400379Y-94216350D03*
D38*
X151952579Y-95167450D03*
X151952579Y-95767449D03*
X151952579Y-96367451D03*
X151952579Y-96967449D03*
X151952579Y-97567451D03*
X151952579Y-98167450D03*
D40*
X153404900Y-99115098D03*
%TD*%
D41*
%TO.C,U3*%
X141884400Y-104741726D03*
X141884400Y-104241600D03*
X141884400Y-103741474D03*
X141884400Y-103241348D03*
X139039600Y-103241348D03*
X139039600Y-103741474D03*
X139039600Y-104241600D03*
X139039600Y-104741726D03*
D42*
X140462000Y-103991537D03*
%TD*%
D24*
%TO.C,J10*%
X133699400Y-84325800D03*
D25*
X134949400Y-84325800D03*
X136199400Y-84325800D03*
X137449400Y-84325800D03*
X138699400Y-84325800D03*
X139949400Y-84325800D03*
X141199400Y-84325800D03*
X142449400Y-84325800D03*
%TD*%
D33*
%TO.C,C32*%
X146227800Y-99593400D03*
X144502800Y-99593400D03*
%TD*%
D43*
%TO.C,U10*%
X156243901Y-85216300D03*
X156243901Y-85716300D03*
X156243901Y-86216300D03*
X156243901Y-86716300D03*
D44*
X157431401Y-87903800D03*
X157931401Y-87903800D03*
X158431401Y-87903800D03*
X158931401Y-87903800D03*
D43*
X160118901Y-86716300D03*
X160118901Y-86216300D03*
X160118901Y-85716300D03*
X160118901Y-85216300D03*
D44*
X158931401Y-84028800D03*
X158431401Y-84028800D03*
X157931401Y-84028800D03*
X157431401Y-84028800D03*
D45*
X158181401Y-85966300D03*
%TD*%
D32*
%TO.C,C4*%
X137642600Y-106449200D03*
X137642600Y-104724200D03*
%TD*%
D20*
%TO.C,C21*%
X167430892Y-105894512D03*
X169155892Y-105894512D03*
%TD*%
D33*
%TO.C,C33*%
X146202400Y-101066600D03*
X144477400Y-101066600D03*
%TD*%
D46*
%TO.C,U7*%
X161608900Y-105892600D03*
X161008901Y-105892600D03*
X160408899Y-105892600D03*
X159808901Y-105892600D03*
X159208899Y-105892600D03*
X158608900Y-105892600D03*
D47*
X157657800Y-107340400D03*
D46*
X158608900Y-108788200D03*
X159208899Y-108788200D03*
X159808901Y-108788200D03*
X160408899Y-108788200D03*
X161008901Y-108788200D03*
X161608900Y-108788200D03*
D48*
X162560000Y-107340400D03*
%TD*%
D20*
%TO.C,C22*%
X167430892Y-107418512D03*
X169155892Y-107418512D03*
%TD*%
D49*
%TO.C,J4*%
X153873200Y-107178800D03*
D50*
X153873200Y-105928800D03*
X153873200Y-104678800D03*
X153873200Y-103428800D03*
%TD*%
D17*
%TO.C,U8*%
X165859100Y-104563299D03*
X166359100Y-104563299D03*
X166859100Y-104563299D03*
X167359100Y-104563299D03*
D18*
X168546600Y-103375799D03*
X168546600Y-102875799D03*
X168546600Y-102375799D03*
X168546600Y-101875799D03*
D17*
X167359100Y-100688299D03*
X166859100Y-100688299D03*
X166359100Y-100688299D03*
X165859100Y-100688299D03*
D18*
X164671600Y-101875799D03*
X164671600Y-102375799D03*
X164671600Y-102875799D03*
X164671600Y-103375799D03*
D19*
X166609100Y-102625799D03*
%TD*%
D32*
%TO.C,C3*%
X136148600Y-106449200D03*
X136148600Y-104724200D03*
%TD*%
D37*
%TO.C,C30*%
X169408201Y-88710600D03*
X169408201Y-90435600D03*
%TD*%
D51*
%TO.C,J3*%
X145186400Y-95504000D03*
D31*
X145186400Y-90424000D03*
%TD*%
D33*
%TO.C,C19*%
X165910600Y-99263200D03*
X164185600Y-99263200D03*
%TD*%
D52*
%TO.C,U11*%
X161788201Y-87795100D03*
X161788201Y-88445086D03*
X161788201Y-89095072D03*
X161788201Y-89745058D03*
X166220501Y-89745058D03*
X166220501Y-89095072D03*
X166220501Y-88445086D03*
X166220501Y-87795100D03*
%TD*%
D37*
%TO.C,C27*%
X153263600Y-86639400D03*
X153263600Y-88364400D03*
%TD*%
D32*
%TO.C,C26*%
X163096301Y-85304800D03*
X163096301Y-83579800D03*
%TD*%
D24*
%TO.C,J6*%
X166379200Y-110845600D03*
D25*
X167629200Y-110845600D03*
X168879200Y-110845600D03*
X170129200Y-110845600D03*
%TD*%
D20*
%TO.C,C28*%
X161545100Y-91338400D03*
X163270100Y-91338400D03*
%TD*%
D37*
%TO.C,C25*%
X154787600Y-86638300D03*
X154787600Y-88363300D03*
%TD*%
D53*
X161086800Y-107899200D03*
X160629600Y-107340400D03*
X159461200Y-107340400D03*
X159969200Y-106883200D03*
X159004000Y-106832400D03*
X159969200Y-107746800D03*
X161086800Y-106832400D03*
X159004000Y-107848400D03*
%LPD*%
M02*
