%TF.GenerationSoftware,KiCad,Pcbnew,9.0.7+1*%
%TF.CreationDate,Date%
%TF.ProjectId,proalbmlb,70726f61-6c62-46d6-9c62-2e6b69636164,+ (Unreleased)*%
%TF.SameCoordinates,Original*%
%TF.FileFunction,Copper,L3,Inr*%
%TF.FilePolarity,Positive*%
%FSLAX46Y46*%
G04 Gerber Fmt 4.6, Leading zero omitted, Abs format (unit mm)*
G04 Created by KiCad*
%MOMM*%
%LPD*%
G01*
G04 APERTURE LIST*
%TA.AperFunction,HeatsinkPad*%
%ADD10C,0.500000*%
%TD*%
%TA.AperFunction,ComponentPad*%
%ADD11C,4.000000*%
%TD*%
%TA.AperFunction,ComponentPad*%
%ADD12C,3.100000*%
%TD*%
%TA.AperFunction,ComponentPad*%
%ADD13R,2.800000X2.800000*%
%TD*%
%TA.AperFunction,ComponentPad*%
%ADD14C,2.800000*%
%TD*%
%TA.AperFunction,ComponentPad*%
%ADD15O,1.700000X1.700000*%
%TD*%
%TA.AperFunction,ComponentPad*%
%ADD16C,1.700000*%
%TD*%
%TA.AperFunction,ComponentPad*%
%ADD17O,0.800000X1.300000*%
%TD*%
%TA.AperFunction,ViaPad*%
%ADD18C,0.600000*%
%TD*%
%TA.AperFunction,ViaPad*%
%ADD19C,0.550000*%
%TD*%
%TA.AperFunction,Conductor*%
%ADD20C,0.200000*%
%TD*%
G04 APERTURE END LIST*
D10*
%TO.N,GND*%
%TO.C,U12*%
X145812800Y-105596400D03*
X146862800Y-105596400D03*
X147912800Y-105596400D03*
X145812800Y-104546400D03*
X146862800Y-104546400D03*
X147912800Y-104546400D03*
X145812800Y-103496400D03*
X146862800Y-103496400D03*
X147912800Y-103496400D03*
%TD*%
D11*
%TO.N,GND*%
%TO.C,J1*%
X177437869Y-108918400D03*
X177437869Y-83918400D03*
%TD*%
D12*
%TO.N,GND*%
%TO.C,U1*%
X117093800Y-108843000D03*
D13*
X145223716Y-95515084D03*
D12*
X117093800Y-90843000D03*
D14*
%TO.N,VDD*%
X145223716Y-90435084D03*
D15*
%TO.N,/Project Architecture/Connectors/SDA*%
X129844800Y-109982000D03*
%TO.N,/Project Architecture/Connectors/SDC*%
X132384800Y-109982000D03*
%TO.N,+3.3V*%
X134924800Y-109982000D03*
%TO.N,GND*%
X137464800Y-109982000D03*
%TO.N,+5V*%
X140004800Y-109982000D03*
%TD*%
%TO.N,/Project Architecture/Connectors/SDA*%
%TO.C,Raspberry Pi*%
X129235200Y-74472800D03*
%TO.N,GND*%
X129235200Y-77012800D03*
X134315200Y-74472800D03*
X139395200Y-77012800D03*
X147015200Y-77012800D03*
X154635200Y-74472800D03*
X159715200Y-77012800D03*
%TO.N,/Project Architecture/Raspberrypi/PWM*%
X162255200Y-77012800D03*
%TO.N,GND*%
X164795200Y-77012800D03*
X172415200Y-74472800D03*
%TD*%
D16*
%TO.N,/Project Architecture/Connectors/SDA*%
%TO.C,J2*%
X129844800Y-109982000D03*
%TO.N,/Project Architecture/Connectors/SDC*%
X132384800Y-109982000D03*
%TO.N,+3.3V*%
X134924800Y-109982000D03*
%TO.N,GND*%
X137464800Y-109982000D03*
%TO.N,+5V*%
X140004800Y-109982000D03*
%TD*%
D13*
%TO.N,GND*%
%TO.C,J3*%
X145186400Y-95504000D03*
D14*
%TO.N,VDD*%
X145186400Y-90424000D03*
%TD*%
D17*
%TO.N,GND*%
%TO.C,J6*%
X168879200Y-110845600D03*
%TD*%
D18*
%TO.N,GND*%
X164316447Y-100333019D03*
D19*
X151700000Y-100700000D03*
D18*
X169392903Y-91406685D03*
D19*
X152600000Y-117100000D03*
D18*
X171303093Y-104948520D03*
X170057879Y-83098453D03*
X164464519Y-96705250D03*
X164800000Y-91500000D03*
X136144000Y-107518200D03*
X165900000Y-85300000D03*
X163087448Y-97549261D03*
X166600000Y-90800000D03*
X143100000Y-103200000D03*
X173500000Y-103700000D03*
D19*
X155100000Y-99300000D03*
D18*
X163400000Y-90000000D03*
X143100000Y-99500000D03*
X150500000Y-107900000D03*
X164265639Y-98426637D03*
X148800000Y-102600000D03*
D19*
X156800000Y-96200000D03*
X165100000Y-109400000D03*
D18*
X163169600Y-82550000D03*
D19*
X161200000Y-117000000D03*
D18*
X143100000Y-104500000D03*
D19*
X151300000Y-94000000D03*
D18*
X153416000Y-96113600D03*
X152196800Y-88290400D03*
X161518600Y-82575400D03*
X135051800Y-106502200D03*
X156260800Y-88214200D03*
X169411593Y-104264491D03*
D19*
X152200000Y-101600000D03*
X149100000Y-94400000D03*
D18*
X153873200Y-96672400D03*
X169200000Y-85300000D03*
X168759129Y-108603590D03*
X144500000Y-98400000D03*
D19*
X171000000Y-114800000D03*
D18*
X153289000Y-89560400D03*
D19*
X155300000Y-100100000D03*
D18*
X163245800Y-94200000D03*
D19*
X161500000Y-100700000D03*
D18*
X171637712Y-102075291D03*
X145100000Y-102100000D03*
X139344400Y-101828600D03*
X170322468Y-107237535D03*
X153890140Y-95626326D03*
X153873200Y-97688400D03*
X164000000Y-92084934D03*
X153374979Y-97199450D03*
X164223443Y-83280943D03*
X163117062Y-99326128D03*
X165978117Y-82928998D03*
X140919200Y-99695000D03*
D19*
X178000000Y-104700000D03*
D18*
X169100000Y-93600000D03*
X152958800Y-96621600D03*
D19*
X155200000Y-93800000D03*
D18*
X161468131Y-111187153D03*
X154762200Y-89535000D03*
X164800000Y-92938600D03*
X138709400Y-106680000D03*
D19*
X156900000Y-111000000D03*
D18*
X149504400Y-98018600D03*
X167867760Y-91421493D03*
D19*
X181000000Y-114000000D03*
D18*
X150500000Y-109900000D03*
X160528000Y-83261200D03*
X150622000Y-106299000D03*
D19*
X155100000Y-100900000D03*
D18*
X170539640Y-108020672D03*
D19*
X156600000Y-100400000D03*
D18*
X149300000Y-110600000D03*
X162712731Y-109891753D03*
X139420600Y-100482400D03*
X152874140Y-95626326D03*
X150799800Y-99263200D03*
X170600000Y-90200000D03*
X149300000Y-106400000D03*
X137820400Y-107569000D03*
X162413136Y-83214283D03*
X143500000Y-101400000D03*
X152908000Y-97688400D03*
%TO.N,/Project Architecture/Connectors/SDA*%
X158052802Y-103367915D03*
X157400000Y-94700000D03*
%TO.N,VDD*%
X157200000Y-91000000D03*
X158262554Y-90965247D03*
X157200000Y-92000000D03*
X158249684Y-92033454D03*
%TO.N,/Project Architecture/Raspberrypi/PWM*%
X137800000Y-102951200D03*
%TD*%
D20*
%TO.N,+3.3V*%
X133803110Y-107692986D02*
X133803110Y-107664029D01*
X133803110Y-107664029D02*
X133745196Y-107606115D01*
X133745196Y-107606115D02*
X133745196Y-84371596D01*
X134924800Y-109982000D02*
X134924800Y-108814676D01*
X134924800Y-108814676D02*
X133803110Y-107692986D01*
%TO.N,/Project Architecture/Connectors/SDA*%
X157400000Y-94700000D02*
X157400000Y-102715113D01*
X152013924Y-112104902D02*
X131967702Y-112104902D01*
X130400000Y-75645600D02*
X130400000Y-109426800D01*
X158432854Y-105685972D02*
X152013924Y-112104902D01*
X158432854Y-103747967D02*
X158432854Y-105685972D01*
X129227200Y-74472800D02*
X130400000Y-75645600D01*
X130400000Y-109426800D02*
X129844800Y-109982000D01*
X131967702Y-112104902D02*
X129844800Y-109982000D01*
X158052802Y-103367915D02*
X158432854Y-103747967D01*
X157400000Y-102715113D02*
X158052802Y-103367915D01*
%TO.N,/Project Architecture/Raspberrypi/PWM*%
X146447844Y-87466252D02*
X153701678Y-80212417D01*
X153701678Y-80212417D02*
X160651461Y-80212417D01*
X160651461Y-80212417D02*
X162255200Y-78608678D01*
X137800000Y-88729952D02*
X139063700Y-87466252D01*
X137800000Y-102951200D02*
X137800000Y-88729952D01*
X139063700Y-87466252D02*
X146447844Y-87466252D01*
X162255200Y-78608678D02*
X162255200Y-77012800D01*
%TD*%
%TA.AperFunction,Conductor*%
%TO.N,/Project Architecture/Connectors/SDA*%
G36*
X158346094Y-103313064D02*
G01*
X158350516Y-103318661D01*
X158464620Y-103622834D01*
X158526924Y-103788919D01*
X158526621Y-103797868D01*
X158520078Y-103803983D01*
X158515969Y-103804728D01*
X158335207Y-103804728D01*
X158330682Y-103803817D01*
X157899193Y-103622834D01*
X157892889Y-103616474D01*
X157892929Y-103607520D01*
X157893972Y-103605573D01*
X158050097Y-103370978D01*
X158057533Y-103365990D01*
X158057529Y-103365990D01*
X158337318Y-103311288D01*
X158346094Y-103313064D01*
G37*
%TD.AperFunction*%
%TD*%
%TA.AperFunction,Conductor*%
%TO.N,+3.3V*%
G36*
X134638672Y-108386894D02*
G01*
X134953594Y-108693001D01*
X135033920Y-108770166D01*
X135083602Y-108817892D01*
X135084061Y-108818359D01*
X135296409Y-109046789D01*
X135297098Y-109047603D01*
X135339120Y-109102196D01*
X135444178Y-109238686D01*
X135444531Y-109239170D01*
X135624799Y-109499999D01*
X135626684Y-109508753D01*
X135621826Y-109516276D01*
X135621685Y-109516372D01*
X134929543Y-109980003D01*
X134920763Y-109981760D01*
X134920742Y-109981756D01*
X134103211Y-109818583D01*
X134095769Y-109813603D01*
X134094027Y-109804819D01*
X134094155Y-109804253D01*
X134115953Y-109718287D01*
X134116300Y-109717162D01*
X134149000Y-109627410D01*
X134149612Y-109626024D01*
X134233857Y-109464901D01*
X134234663Y-109463583D01*
X134333838Y-109323585D01*
X134334301Y-109322978D01*
X134436877Y-109198387D01*
X134516575Y-109102196D01*
X134604134Y-108974112D01*
X134642843Y-108870440D01*
X134643446Y-108770165D01*
X134627778Y-108715537D01*
X134599778Y-108658286D01*
X134599778Y-108658285D01*
X134553291Y-108591526D01*
X134537982Y-108574566D01*
X134496427Y-108528529D01*
X134493428Y-108520092D01*
X134496839Y-108512418D01*
X134622246Y-108387011D01*
X134630518Y-108383585D01*
X134638672Y-108386894D01*
G37*
%TD.AperFunction*%
%TD*%
%TA.AperFunction,Conductor*%
%TO.N,/Project Architecture/Connectors/SDA*%
G36*
X130677130Y-109819930D02*
G01*
X130681722Y-109825960D01*
X131103762Y-111094966D01*
X131103121Y-111103898D01*
X131100933Y-111106931D01*
X130969731Y-111238133D01*
X130961458Y-111241560D01*
X130957766Y-111240962D01*
X129688760Y-110818922D01*
X129681991Y-110813060D01*
X129680975Y-110805549D01*
X129842572Y-109988978D01*
X129847539Y-109981527D01*
X129851777Y-109979772D01*
X130668349Y-109818175D01*
X130677130Y-109819930D01*
G37*
%TD.AperFunction*%
%TD*%
%TA.AperFunction,Conductor*%
%TO.N,/Project Architecture/Raspberrypi/PWM*%
G36*
X162262412Y-77016450D02*
G01*
X162953003Y-77479042D01*
X162957970Y-77486494D01*
X162956719Y-77494446D01*
X162271366Y-78727906D01*
X162264353Y-78733473D01*
X162255456Y-78732450D01*
X162252866Y-78730496D01*
X162123708Y-78601338D01*
X162121578Y-78598420D01*
X161553228Y-77494315D01*
X161552489Y-77485391D01*
X161557127Y-77479234D01*
X162249398Y-77016443D01*
X162258180Y-77014695D01*
X162262412Y-77016450D01*
G37*
%TD.AperFunction*%
%TD*%
%TA.AperFunction,Conductor*%
%TO.N,/Project Architecture/Connectors/SDA*%
G36*
X130067365Y-74310762D02*
G01*
X130072014Y-74316969D01*
X130495210Y-75661121D01*
X130494426Y-75670042D01*
X130487564Y-75675795D01*
X130484050Y-75676335D01*
X130301721Y-75676335D01*
X130298353Y-75675840D01*
X129079552Y-75309526D01*
X129072616Y-75303863D01*
X129071444Y-75296041D01*
X129233674Y-74479479D01*
X129238648Y-74472032D01*
X129242879Y-74470281D01*
X130058587Y-74309005D01*
X130067365Y-74310762D01*
G37*
%TD.AperFunction*%
%TD*%
%TA.AperFunction,Conductor*%
%TO.N,/Project Architecture/Raspberrypi/PWM*%
G36*
X137900070Y-102360391D02*
G01*
X137902796Y-102364676D01*
X138089608Y-102879909D01*
X138089207Y-102888855D01*
X138082597Y-102894896D01*
X138080929Y-102895365D01*
X137802320Y-102951730D01*
X137797680Y-102951730D01*
X137519070Y-102895365D01*
X137511641Y-102890365D01*
X137509922Y-102881577D01*
X137510387Y-102879920D01*
X137697204Y-102364676D01*
X137703245Y-102358066D01*
X137708203Y-102356964D01*
X137891797Y-102356964D01*
X137900070Y-102360391D01*
G37*
%TD.AperFunction*%
%TD*%
%TA.AperFunction,Conductor*%
%TO.N,VDD*%
G36*
X145036642Y-88278760D02*
G01*
X145103099Y-88300327D01*
X145147347Y-88354400D01*
X145155337Y-88423811D01*
X145124531Y-88486523D01*
X145064712Y-88522626D01*
X145049330Y-88525650D01*
X144814936Y-88556508D01*
X144574350Y-88620973D01*
X144344251Y-88716283D01*
X144344240Y-88716288D01*
X144128558Y-88840813D01*
X144128542Y-88840824D01*
X144046196Y-88904010D01*
X144046196Y-88904011D01*
X144785252Y-89643067D01*
X144771932Y-89648585D01*
X144628620Y-89744343D01*
X144506743Y-89866220D01*
X144413946Y-90005099D01*
X143677800Y-89268953D01*
X143677799Y-89268953D01*
X143603223Y-89366143D01*
X143478685Y-89581847D01*
X143478683Y-89581851D01*
X143383373Y-89811950D01*
X143318908Y-90052536D01*
X143286400Y-90299466D01*
X143286400Y-90548533D01*
X143318908Y-90795463D01*
X143383373Y-91036049D01*
X143478683Y-91266148D01*
X143478688Y-91266159D01*
X143603213Y-91481841D01*
X143603219Y-91481849D01*
X143677800Y-91579045D01*
X144413946Y-90842899D01*
X144506743Y-90981780D01*
X144628620Y-91103657D01*
X144771932Y-91199415D01*
X144800926Y-91211425D01*
X144058739Y-91953611D01*
X144058739Y-91953612D01*
X144128550Y-92007180D01*
X144128558Y-92007186D01*
X144344240Y-92131711D01*
X144344251Y-92131716D01*
X144574348Y-92227025D01*
X144574360Y-92227029D01*
X144596388Y-92232931D01*
X144607823Y-92236812D01*
X144607825Y-92236807D01*
X144611667Y-92238111D01*
X144852250Y-92302575D01*
X145099182Y-92335084D01*
X145348250Y-92335084D01*
X145595179Y-92302575D01*
X145835765Y-92238110D01*
X146065864Y-92142800D01*
X146065875Y-92142795D01*
X146281561Y-92018267D01*
X146363918Y-91955071D01*
X146363918Y-91955070D01*
X145624863Y-91216016D01*
X145638184Y-91210499D01*
X145781496Y-91114741D01*
X145903373Y-90992864D01*
X145996168Y-90853984D01*
X146732313Y-91590129D01*
X146732316Y-91590129D01*
X146806894Y-91492939D01*
X146931427Y-91277243D01*
X146931432Y-91277232D01*
X147026742Y-91047133D01*
X147091207Y-90806547D01*
X147123716Y-90559617D01*
X147123716Y-90310550D01*
X147091207Y-90063620D01*
X147026742Y-89823034D01*
X146931432Y-89592935D01*
X146931427Y-89592924D01*
X146806902Y-89377242D01*
X146806896Y-89377234D01*
X146732314Y-89280037D01*
X145996168Y-90016182D01*
X145903373Y-89877304D01*
X145781496Y-89755427D01*
X145638184Y-89659669D01*
X145609186Y-89647658D01*
X146351375Y-88905470D01*
X146281565Y-88851903D01*
X146281557Y-88851897D01*
X146065875Y-88727372D01*
X146065864Y-88727367D01*
X145835761Y-88632056D01*
X145813711Y-88626147D01*
X145802296Y-88622271D01*
X145802294Y-88622278D01*
X145798455Y-88620975D01*
X145557863Y-88556508D01*
X145407029Y-88536651D01*
X145343132Y-88508385D01*
X145304661Y-88450060D01*
X145303830Y-88380196D01*
X145340902Y-88320972D01*
X145404108Y-88291193D01*
X145426708Y-88289761D01*
X147306379Y-88342772D01*
X147340049Y-88348423D01*
X152584444Y-89996088D01*
X152642498Y-90034959D01*
X152650376Y-90045494D01*
X152667210Y-90070689D01*
X152778707Y-90182186D01*
X152778711Y-90182189D01*
X152909814Y-90269790D01*
X152909827Y-90269797D01*
X153008215Y-90310550D01*
X153055503Y-90330137D01*
X153210153Y-90360899D01*
X153210156Y-90360900D01*
X153210158Y-90360900D01*
X153367844Y-90360900D01*
X153367845Y-90360899D01*
X153522497Y-90330137D01*
X153534868Y-90325012D01*
X153604335Y-90317543D01*
X153619479Y-90321271D01*
X154881495Y-90717767D01*
X158756176Y-90122110D01*
X158825427Y-90131379D01*
X158878674Y-90176618D01*
X158899010Y-90243463D01*
X158899013Y-90245510D01*
X158881536Y-92824661D01*
X158861398Y-92891566D01*
X158808285Y-92936962D01*
X158757875Y-92947821D01*
X142480965Y-92991909D01*
X142413872Y-92972406D01*
X142367975Y-92919726D01*
X142357073Y-92857428D01*
X142741127Y-88331070D01*
X142766409Y-88265936D01*
X142822892Y-88224809D01*
X142868175Y-88217604D01*
X145036642Y-88278760D01*
G37*
%TD.AperFunction*%
%TD*%
%TA.AperFunction,Conductor*%
%TO.N,/Project Architecture/Connectors/SDA*%
G36*
X157710751Y-102880491D02*
G01*
X158021515Y-103025868D01*
X158207175Y-103112721D01*
X158213216Y-103119331D01*
X158212815Y-103128277D01*
X158211966Y-103129787D01*
X158054817Y-103366649D01*
X158051536Y-103369930D01*
X157814674Y-103527079D01*
X157805886Y-103528798D01*
X157798457Y-103523798D01*
X157797608Y-103522288D01*
X157724799Y-103366649D01*
X157565378Y-103025866D01*
X157564978Y-103016922D01*
X157567702Y-103012639D01*
X157697525Y-102882816D01*
X157705797Y-102879390D01*
X157710751Y-102880491D01*
G37*
%TD.AperFunction*%
%TD*%
%TA.AperFunction,Conductor*%
%TO.N,GND*%
G36*
X182168873Y-71089927D02*
G01*
X182172300Y-71098200D01*
X182172300Y-121215100D01*
X182168873Y-121223373D01*
X182160600Y-121226800D01*
X111717400Y-121226800D01*
X111709127Y-121223373D01*
X111705700Y-121215100D01*
X111705700Y-116481989D01*
X114599500Y-116481989D01*
X114599500Y-116718010D01*
X114630306Y-116952012D01*
X114691393Y-117179991D01*
X114691397Y-117180002D01*
X114781712Y-117398040D01*
X114781716Y-117398049D01*
X114899727Y-117602450D01*
X115043408Y-117789699D01*
X115210301Y-117956592D01*
X115397550Y-118100273D01*
X115601951Y-118218284D01*
X115820007Y-118308606D01*
X116047986Y-118369693D01*
X116281989Y-118400500D01*
X116518011Y-118400500D01*
X116752014Y-118369693D01*
X116979993Y-118308606D01*
X117198049Y-118218284D01*
X117402450Y-118100273D01*
X117589699Y-117956592D01*
X117756592Y-117789699D01*
X117900273Y-117602450D01*
X118018284Y-117398049D01*
X118108606Y-117179993D01*
X118169693Y-116952014D01*
X118200500Y-116718011D01*
X118200500Y-116481989D01*
X175599500Y-116481989D01*
X175599500Y-116718010D01*
X175630306Y-116952012D01*
X175691393Y-117179991D01*
X175691397Y-117180002D01*
X175781712Y-117398040D01*
X175781716Y-117398049D01*
X175899727Y-117602450D01*
X176043408Y-117789699D01*
X176210301Y-117956592D01*
X176397550Y-118100273D01*
X176601951Y-118218284D01*
X176820007Y-118308606D01*
X177047986Y-118369693D01*
X177281989Y-118400500D01*
X177518011Y-118400500D01*
X177752014Y-118369693D01*
X177979993Y-118308606D01*
X178198049Y-118218284D01*
X178402450Y-118100273D01*
X178589699Y-117956592D01*
X178756592Y-117789699D01*
X178900273Y-117602450D01*
X179018284Y-117398049D01*
X179108606Y-117179993D01*
X179169693Y-116952014D01*
X179200500Y-116718011D01*
X179200500Y-116481989D01*
X179169693Y-116247986D01*
X179108606Y-116020007D01*
X179018284Y-115801951D01*
X178900273Y-115597550D01*
X178756592Y-115410301D01*
X178589699Y-115243408D01*
X178402450Y-115099727D01*
X178198049Y-114981716D01*
X178198041Y-114981712D01*
X178198040Y-114981712D01*
X177980002Y-114891397D01*
X177979991Y-114891393D01*
X177752012Y-114830306D01*
X177518011Y-114799500D01*
X177281989Y-114799500D01*
X177047987Y-114830306D01*
X176820008Y-114891393D01*
X176819997Y-114891397D01*
X176601959Y-114981712D01*
X176601954Y-114981714D01*
X176601951Y-114981716D01*
X176397550Y-115099727D01*
X176397549Y-115099727D01*
X176210302Y-115243407D01*
X176210295Y-115243413D01*
X176043413Y-115410295D01*
X176043407Y-115410302D01*
X175899727Y-115597549D01*
X175899727Y-115597550D01*
X175781716Y-115801951D01*
X175781714Y-115801954D01*
X175781712Y-115801959D01*
X175691397Y-116019997D01*
X175691393Y-116020008D01*
X175630306Y-116247987D01*
X175599500Y-116481989D01*
X118200500Y-116481989D01*
X118169693Y-116247986D01*
X118108606Y-116020007D01*
X118018284Y-115801951D01*
X117900273Y-115597550D01*
X117756592Y-115410301D01*
X117589699Y-115243408D01*
X117402450Y-115099727D01*
X117198049Y-114981716D01*
X117198041Y-114981712D01*
X117198040Y-114981712D01*
X116980002Y-114891397D01*
X116979991Y-114891393D01*
X116752012Y-114830306D01*
X116518011Y-114799500D01*
X116281989Y-114799500D01*
X116047987Y-114830306D01*
X115820008Y-114891393D01*
X115819997Y-114891397D01*
X115601959Y-114981712D01*
X115601954Y-114981714D01*
X115601951Y-114981716D01*
X115397550Y-115099727D01*
X115397549Y-115099727D01*
X115210302Y-115243407D01*
X115210295Y-115243413D01*
X115043413Y-115410295D01*
X115043407Y-115410302D01*
X114899727Y-115597549D01*
X114899727Y-115597550D01*
X114781716Y-115801951D01*
X114781714Y-115801954D01*
X114781712Y-115801959D01*
X114691397Y-116019997D01*
X114691393Y-116020008D01*
X114630306Y-116247987D01*
X114599500Y-116481989D01*
X111705700Y-116481989D01*
X111705700Y-109882671D01*
X121216300Y-109882671D01*
X121216300Y-110081329D01*
X121251541Y-110258500D01*
X121255056Y-110276169D01*
X121331078Y-110459702D01*
X121331082Y-110459710D01*
X121441446Y-110624880D01*
X121441449Y-110624884D01*
X121581915Y-110765350D01*
X121581919Y-110765353D01*
X121747089Y-110875717D01*
X121747093Y-110875719D01*
X121747096Y-110875721D01*
X121930631Y-110951744D01*
X122125471Y-110990500D01*
X122125472Y-110990500D01*
X122324128Y-110990500D01*
X122324129Y-110990500D01*
X122518969Y-110951744D01*
X122702504Y-110875721D01*
X122867681Y-110765353D01*
X123008153Y-110624881D01*
X123118521Y-110459704D01*
X123194544Y-110276169D01*
X123233300Y-110081329D01*
X123233300Y-109882671D01*
X123756300Y-109882671D01*
X123756300Y-110081329D01*
X123791541Y-110258500D01*
X123795056Y-110276169D01*
X123871078Y-110459702D01*
X123871082Y-110459710D01*
X123981446Y-110624880D01*
X123981449Y-110624884D01*
X124121915Y-110765350D01*
X124121919Y-110765353D01*
X124287089Y-110875717D01*
X124287093Y-110875719D01*
X124287096Y-110875721D01*
X124470631Y-110951744D01*
X124665471Y-110990500D01*
X124665472Y-110990500D01*
X124864128Y-110990500D01*
X124864129Y-110990500D01*
X125058969Y-110951744D01*
X125242504Y-110875721D01*
X125407681Y-110765353D01*
X125548153Y-110624881D01*
X125658521Y-110459704D01*
X125734544Y-110276169D01*
X125773300Y-110081329D01*
X125773300Y-109882671D01*
X126296300Y-109882671D01*
X126296300Y-110081329D01*
X126331541Y-110258500D01*
X126335056Y-110276169D01*
X126411078Y-110459702D01*
X126411082Y-110459710D01*
X126521446Y-110624880D01*
X126521449Y-110624884D01*
X126661915Y-110765350D01*
X126661919Y-110765353D01*
X126827089Y-110875717D01*
X126827093Y-110875719D01*
X126827096Y-110875721D01*
X127010631Y-110951744D01*
X127205471Y-110990500D01*
X127205472Y-110990500D01*
X127404128Y-110990500D01*
X127404129Y-110990500D01*
X127598969Y-110951744D01*
X127782504Y-110875721D01*
X127947681Y-110765353D01*
X128088153Y-110624881D01*
X128198521Y-110459704D01*
X128274544Y-110276169D01*
X128313300Y-110081329D01*
X128313300Y-109882671D01*
X128274544Y-109687831D01*
X128198521Y-109504296D01*
X128198519Y-109504293D01*
X128198517Y-109504289D01*
X128088153Y-109339119D01*
X128088150Y-109339115D01*
X127947684Y-109198649D01*
X127947680Y-109198646D01*
X127782510Y-109088282D01*
X127782502Y-109088278D01*
X127598969Y-109012256D01*
X127595214Y-109011509D01*
X127404129Y-108973500D01*
X127205471Y-108973500D01*
X127108051Y-108992878D01*
X127010630Y-109012256D01*
X126827097Y-109088278D01*
X126827089Y-109088282D01*
X126661919Y-109198646D01*
X126661915Y-109198649D01*
X126521449Y-109339115D01*
X126521446Y-109339119D01*
X126411082Y-109504289D01*
X126411078Y-109504297D01*
X126335056Y-109687830D01*
X126316118Y-109783037D01*
X126296300Y-109882671D01*
X125773300Y-109882671D01*
X125734544Y-109687831D01*
X125658521Y-109504296D01*
X125658519Y-109504293D01*
X125658517Y-109504289D01*
X125548153Y-109339119D01*
X125548150Y-109339115D01*
X125407684Y-109198649D01*
X125407680Y-109198646D01*
X125242510Y-109088282D01*
X125242502Y-109088278D01*
X125058969Y-109012256D01*
X125055214Y-109011509D01*
X124864129Y-108973500D01*
X124665471Y-108973500D01*
X124568051Y-108992878D01*
X124470630Y-109012256D01*
X124287097Y-109088278D01*
X124287089Y-109088282D01*
X124121919Y-109198646D01*
X124121915Y-109198649D01*
X123981449Y-109339115D01*
X123981446Y-109339119D01*
X123871082Y-109504289D01*
X123871078Y-109504297D01*
X123795056Y-109687830D01*
X123776118Y-109783037D01*
X123756300Y-109882671D01*
X123233300Y-109882671D01*
X123194544Y-109687831D01*
X123118521Y-109504296D01*
X123118519Y-109504293D01*
X123118517Y-109504289D01*
X123008153Y-109339119D01*
X123008150Y-109339115D01*
X122867684Y-109198649D01*
X122867680Y-109198646D01*
X122702510Y-109088282D01*
X122702502Y-109088278D01*
X122518969Y-109012256D01*
X122515214Y-109011509D01*
X122324129Y-108973500D01*
X122125471Y-108973500D01*
X122028051Y-108992878D01*
X121930630Y-109012256D01*
X121747097Y-109088278D01*
X121747089Y-109088282D01*
X121581919Y-109198646D01*
X121581915Y-109198649D01*
X121441449Y-109339115D01*
X121441446Y-109339119D01*
X121331082Y-109504289D01*
X121331078Y-109504297D01*
X121255056Y-109687830D01*
X121236118Y-109783037D01*
X121216300Y-109882671D01*
X111705700Y-109882671D01*
X111705700Y-75781989D01*
X114699500Y-75781989D01*
X114699500Y-76018010D01*
X114730306Y-76252012D01*
X114791393Y-76479991D01*
X114791397Y-76480002D01*
X114880318Y-76694675D01*
X114881716Y-76698049D01*
X114999727Y-76902450D01*
X115143408Y-77089699D01*
X115310301Y-77256592D01*
X115497550Y-77400273D01*
X115701951Y-77518284D01*
X115920007Y-77608606D01*
X116147986Y-77669693D01*
X116381989Y-77700500D01*
X116618011Y-77700500D01*
X116852014Y-77669693D01*
X117079993Y-77608606D01*
X117298049Y-77518284D01*
X117502450Y-77400273D01*
X117689699Y-77256592D01*
X117856592Y-77089699D01*
X117991816Y-76913471D01*
X123146700Y-76913471D01*
X123146700Y-77112128D01*
X123185456Y-77306969D01*
X123261478Y-77490502D01*
X123261482Y-77490510D01*
X123371846Y-77655680D01*
X123371849Y-77655684D01*
X123512315Y-77796150D01*
X123512319Y-77796153D01*
X123677489Y-77906517D01*
X123677493Y-77906519D01*
X123677496Y-77906521D01*
X123861031Y-77982544D01*
X124055871Y-78021300D01*
X124055872Y-78021300D01*
X124254528Y-78021300D01*
X124254529Y-78021300D01*
X124449369Y-77982544D01*
X124632904Y-77906521D01*
X124798081Y-77796153D01*
X124938553Y-77655681D01*
X125048921Y-77490504D01*
X125124944Y-77306969D01*
X125163700Y-77112129D01*
X125163700Y-76913471D01*
X125686700Y-76913471D01*
X125686700Y-77112128D01*
X125725456Y-77306969D01*
X125801478Y-77490502D01*
X125801482Y-77490510D01*
X125911846Y-77655680D01*
X125911849Y-77655684D01*
X126052315Y-77796150D01*
X126052319Y-77796153D01*
X126217489Y-77906517D01*
X126217493Y-77906519D01*
X126217496Y-77906521D01*
X126401031Y-77982544D01*
X126595871Y-78021300D01*
X126595872Y-78021300D01*
X126794528Y-78021300D01*
X126794529Y-78021300D01*
X126989369Y-77982544D01*
X127172904Y-77906521D01*
X127338081Y-77796153D01*
X127478553Y-77655681D01*
X127588921Y-77490504D01*
X127664944Y-77306969D01*
X127703700Y-77112129D01*
X127703700Y-76913471D01*
X127664944Y-76718631D01*
X127588921Y-76535096D01*
X127588919Y-76535093D01*
X127588917Y-76535089D01*
X127478553Y-76369919D01*
X127478550Y-76369915D01*
X127338084Y-76229449D01*
X127338080Y-76229446D01*
X127172910Y-76119082D01*
X127172902Y-76119078D01*
X126989369Y-76043056D01*
X126794529Y-76004300D01*
X126595871Y-76004300D01*
X126526946Y-76018010D01*
X126401030Y-76043056D01*
X126217497Y-76119078D01*
X126217489Y-76119082D01*
X126052319Y-76229446D01*
X126052315Y-76229449D01*
X125911849Y-76369915D01*
X125911846Y-76369919D01*
X125801482Y-76535089D01*
X125801478Y-76535097D01*
X125725456Y-76718630D01*
X125686700Y-76913471D01*
X125163700Y-76913471D01*
X125124944Y-76718631D01*
X125048921Y-76535096D01*
X125048919Y-76535093D01*
X125048917Y-76535089D01*
X124938553Y-76369919D01*
X124938550Y-76369915D01*
X124798084Y-76229449D01*
X124798080Y-76229446D01*
X124632910Y-76119082D01*
X124632902Y-76119078D01*
X124449369Y-76043056D01*
X124254529Y-76004300D01*
X124055871Y-76004300D01*
X123986946Y-76018010D01*
X123861030Y-76043056D01*
X123677497Y-76119078D01*
X123677489Y-76119082D01*
X123512319Y-76229446D01*
X123512315Y-76229449D01*
X123371849Y-76369915D01*
X123371846Y-76369919D01*
X123261482Y-76535089D01*
X123261478Y-76535097D01*
X123185456Y-76718630D01*
X123146700Y-76913471D01*
X117991816Y-76913471D01*
X118000273Y-76902450D01*
X118118284Y-76698049D01*
X118208606Y-76479993D01*
X118269693Y-76252014D01*
X118300500Y-76018011D01*
X118300500Y-75781989D01*
X118269693Y-75547986D01*
X118208606Y-75320007D01*
X118182155Y-75256150D01*
X118123971Y-75115681D01*
X118118284Y-75101951D01*
X118000273Y-74897550D01*
X117856592Y-74710301D01*
X117689699Y-74543408D01*
X117502450Y-74399727D01*
X117502438Y-74399719D01*
X117473531Y-74383029D01*
X117473528Y-74383029D01*
X117456973Y-74373471D01*
X123146700Y-74373471D01*
X123146700Y-74572128D01*
X123185456Y-74766969D01*
X123261478Y-74950502D01*
X123261482Y-74950510D01*
X123371846Y-75115680D01*
X123371849Y-75115684D01*
X123512315Y-75256150D01*
X123512319Y-75256153D01*
X123677489Y-75366517D01*
X123677493Y-75366519D01*
X123677496Y-75366521D01*
X123861031Y-75442544D01*
X124055871Y-75481300D01*
X124055872Y-75481300D01*
X124254528Y-75481300D01*
X124254529Y-75481300D01*
X124449369Y-75442544D01*
X124632904Y-75366521D01*
X124798081Y-75256153D01*
X124938553Y-75115681D01*
X125048921Y-74950504D01*
X125124944Y-74766969D01*
X125163700Y-74572129D01*
X125163700Y-74373471D01*
X125686700Y-74373471D01*
X125686700Y-74572128D01*
X125725456Y-74766969D01*
X125801478Y-74950502D01*
X125801482Y-74950510D01*
X125911846Y-75115680D01*
X125911849Y-75115684D01*
X126052315Y-75256150D01*
X126052319Y-75256153D01*
X126217489Y-75366517D01*
X126217493Y-75366519D01*
X126217496Y-75366521D01*
X126401031Y-75442544D01*
X126595871Y-75481300D01*
X126595872Y-75481300D01*
X126794528Y-75481300D01*
X126794529Y-75481300D01*
X126989369Y-75442544D01*
X127172904Y-75366521D01*
X127338081Y-75256153D01*
X127478553Y-75115681D01*
X127588921Y-74950504D01*
X127664944Y-74766969D01*
X127703700Y-74572129D01*
X127703700Y-74373471D01*
X127702191Y-74365883D01*
X127876700Y-74365883D01*
X127876700Y-74579716D01*
X127910149Y-74790908D01*
X127910153Y-74790924D01*
X127976224Y-74994274D01*
X127976226Y-74994278D01*
X127976228Y-74994283D01*
X128038085Y-75115684D01*
X128073309Y-75184815D01*
X128198986Y-75357794D01*
X128198990Y-75357798D01*
X128198994Y-75357804D01*
X128350196Y-75509006D01*
X128350201Y-75509010D01*
X128350205Y-75509013D01*
X128523184Y-75634690D01*
X128523189Y-75634692D01*
X128523191Y-75634694D01*
X128713717Y-75731772D01*
X128713722Y-75731773D01*
X128713725Y-75731775D01*
X128781599Y-75753828D01*
X128917084Y-75797849D01*
X128926466Y-75799334D01*
X128929558Y-75800277D01*
X128931749Y-75801295D01*
X130091169Y-76149761D01*
X130098104Y-76155423D01*
X130099500Y-76160965D01*
X130099500Y-108633207D01*
X130096073Y-108641480D01*
X130087800Y-108644907D01*
X130085970Y-108644763D01*
X129951717Y-108623500D01*
X129951716Y-108623500D01*
X129737884Y-108623500D01*
X129737883Y-108623500D01*
X129526691Y-108656949D01*
X129526675Y-108656953D01*
X129323325Y-108723024D01*
X129323321Y-108723026D01*
X129132784Y-108820109D01*
X128959805Y-108945786D01*
X128959789Y-108945800D01*
X128808600Y-109096989D01*
X128808586Y-109097005D01*
X128682909Y-109269984D01*
X128585826Y-109460521D01*
X128585824Y-109460525D01*
X128519753Y-109663875D01*
X128519749Y-109663891D01*
X128486300Y-109875083D01*
X128486300Y-110088916D01*
X128519749Y-110300108D01*
X128519753Y-110300124D01*
X128585824Y-110503474D01*
X128585826Y-110503478D01*
X128585828Y-110503483D01*
X128647685Y-110624884D01*
X128682909Y-110694015D01*
X128808586Y-110866994D01*
X128808590Y-110866998D01*
X128808594Y-110867004D01*
X128959796Y-111018206D01*
X128959801Y-111018210D01*
X128959805Y-111018213D01*
X129132784Y-111143890D01*
X129132789Y-111143892D01*
X129132791Y-111143894D01*
X129323317Y-111240972D01*
X129323322Y-111240973D01*
X129323325Y-111240975D01*
X129464412Y-111286816D01*
X129526684Y-111307049D01*
X129530766Y-111307695D01*
X129532615Y-111308146D01*
X130162921Y-111517770D01*
X130795709Y-111728220D01*
X130795711Y-111728220D01*
X130795716Y-111728222D01*
X130875663Y-111747856D01*
X130879355Y-111748454D01*
X131016360Y-111752117D01*
X131148190Y-111718465D01*
X131157054Y-111719739D01*
X131159357Y-111721528D01*
X131727242Y-112289413D01*
X131783191Y-112345362D01*
X131783192Y-112345363D01*
X131783194Y-112345364D01*
X131851710Y-112384922D01*
X131851714Y-112384924D01*
X131911987Y-112401073D01*
X131928137Y-112405401D01*
X131928138Y-112405402D01*
X131928140Y-112405402D01*
X152053488Y-112405402D01*
X152053488Y-112405401D01*
X152091699Y-112395162D01*
X152129911Y-112384924D01*
X152129915Y-112384922D01*
X152152753Y-112371736D01*
X152198435Y-112345362D01*
X152254384Y-112289413D01*
X153218301Y-111325496D01*
X159184031Y-111325496D01*
X159184031Y-111455209D01*
X159209337Y-111582430D01*
X159258975Y-111702268D01*
X159258979Y-111702276D01*
X159331040Y-111810121D01*
X159331043Y-111810125D01*
X159422758Y-111901840D01*
X159422762Y-111901843D01*
X159530607Y-111973904D01*
X159530611Y-111973906D01*
X159530614Y-111973908D01*
X159650454Y-112023547D01*
X159777674Y-112048853D01*
X159777675Y-112048853D01*
X159907387Y-112048853D01*
X159907388Y-112048853D01*
X160034608Y-112023547D01*
X160154448Y-111973908D01*
X160262300Y-111901843D01*
X160354021Y-111810122D01*
X160426086Y-111702270D01*
X160475725Y-111582430D01*
X160501031Y-111455210D01*
X160501031Y-111325496D01*
X160475725Y-111198276D01*
X160426086Y-111078436D01*
X160426084Y-111078433D01*
X160426082Y-111078429D01*
X160354021Y-110970584D01*
X160354018Y-110970580D01*
X160262303Y-110878865D01*
X160262299Y-110878862D01*
X160154454Y-110806801D01*
X160154446Y-110806797D01*
X160092475Y-110781128D01*
X160067768Y-110770894D01*
X165620700Y-110770894D01*
X165620700Y-110920306D01*
X165630700Y-110970580D01*
X165649849Y-111066846D01*
X165707025Y-111204882D01*
X165707029Y-111204890D01*
X165790034Y-111329115D01*
X165790037Y-111329119D01*
X165895680Y-111434762D01*
X165895684Y-111434765D01*
X166019909Y-111517770D01*
X166019913Y-111517772D01*
X166019916Y-111517774D01*
X166157954Y-111574951D01*
X166304494Y-111604100D01*
X166304495Y-111604100D01*
X166453905Y-111604100D01*
X166453906Y-111604100D01*
X166600446Y-111574951D01*
X166738484Y-111517774D01*
X166862716Y-111434765D01*
X166968365Y-111329116D01*
X166994472Y-111290043D01*
X167001917Y-111285069D01*
X167010700Y-111286816D01*
X167013928Y-111290044D01*
X167040034Y-111329115D01*
X167040037Y-111329119D01*
X167145680Y-111434762D01*
X167145684Y-111434765D01*
X167269909Y-111517770D01*
X167269913Y-111517772D01*
X167269916Y-111517774D01*
X167407954Y-111574951D01*
X167554494Y-111604100D01*
X167554495Y-111604100D01*
X167703905Y-111604100D01*
X167703906Y-111604100D01*
X167850446Y-111574951D01*
X167988484Y-111517774D01*
X168112716Y-111434765D01*
X168218365Y-111329116D01*
X168301374Y-111204884D01*
X168358551Y-111066846D01*
X168387700Y-110920306D01*
X168387700Y-110770894D01*
X169370700Y-110770894D01*
X169370700Y-110920306D01*
X169380700Y-110970580D01*
X169399849Y-111066846D01*
X169457025Y-111204882D01*
X169457029Y-111204890D01*
X169540034Y-111329115D01*
X169540037Y-111329119D01*
X169645680Y-111434762D01*
X169645684Y-111434765D01*
X169769909Y-111517770D01*
X169769913Y-111517772D01*
X169769916Y-111517774D01*
X169907954Y-111574951D01*
X170054494Y-111604100D01*
X170054495Y-111604100D01*
X170203905Y-111604100D01*
X170203906Y-111604100D01*
X170350446Y-111574951D01*
X170488484Y-111517774D01*
X170612716Y-111434765D01*
X170718365Y-111329116D01*
X170801374Y-111204884D01*
X170858551Y-111066846D01*
X170887700Y-110920306D01*
X170887700Y-110770894D01*
X170858551Y-110624354D01*
X170801374Y-110486316D01*
X170801372Y-110486313D01*
X170801370Y-110486309D01*
X170718365Y-110362084D01*
X170718362Y-110362080D01*
X170612719Y-110256437D01*
X170612715Y-110256434D01*
X170488490Y-110173429D01*
X170488482Y-110173425D01*
X170350446Y-110116249D01*
X170326506Y-110111487D01*
X170203906Y-110087100D01*
X170054494Y-110087100D01*
X169981224Y-110101674D01*
X169907953Y-110116249D01*
X169769917Y-110173425D01*
X169769909Y-110173429D01*
X169645684Y-110256434D01*
X169645680Y-110256437D01*
X169540037Y-110362080D01*
X169540034Y-110362084D01*
X169457029Y-110486309D01*
X169457025Y-110486317D01*
X169399849Y-110624353D01*
X169385992Y-110694015D01*
X169370700Y-110770894D01*
X168387700Y-110770894D01*
X168358551Y-110624354D01*
X168301374Y-110486316D01*
X168301372Y-110486313D01*
X168301370Y-110486309D01*
X168218365Y-110362084D01*
X168218362Y-110362080D01*
X168112719Y-110256437D01*
X168112715Y-110256434D01*
X167988490Y-110173429D01*
X167988482Y-110173425D01*
X167850446Y-110116249D01*
X167826506Y-110111487D01*
X167703906Y-110087100D01*
X167554494Y-110087100D01*
X167481224Y-110101674D01*
X167407953Y-110116249D01*
X167269917Y-110173425D01*
X167269909Y-110173429D01*
X167145684Y-110256434D01*
X167145680Y-110256437D01*
X167040037Y-110362080D01*
X167040034Y-110362084D01*
X167013928Y-110401155D01*
X167006483Y-110406130D01*
X166997700Y-110404383D01*
X166994472Y-110401155D01*
X166968365Y-110362084D01*
X166968362Y-110362080D01*
X166862719Y-110256437D01*
X166862715Y-110256434D01*
X166738490Y-110173429D01*
X166738482Y-110173425D01*
X166600446Y-110116249D01*
X166576506Y-110111487D01*
X166453906Y-110087100D01*
X166304494Y-110087100D01*
X166231224Y-110101674D01*
X166157953Y-110116249D01*
X166019917Y-110173425D01*
X166019909Y-110173429D01*
X165895684Y-110256434D01*
X165895680Y-110256437D01*
X165790037Y-110362080D01*
X165790034Y-110362084D01*
X165707029Y-110486309D01*
X165707025Y-110486317D01*
X165649849Y-110624353D01*
X165635992Y-110694015D01*
X165620700Y-110770894D01*
X160067768Y-110770894D01*
X160034608Y-110757159D01*
X160015977Y-110753453D01*
X159907388Y-110731853D01*
X159777674Y-110731853D01*
X159714064Y-110744506D01*
X159650453Y-110757159D01*
X159530615Y-110806797D01*
X159530607Y-110806801D01*
X159422762Y-110878862D01*
X159422758Y-110878865D01*
X159331043Y-110970580D01*
X159331040Y-110970584D01*
X159258979Y-111078429D01*
X159258975Y-111078437D01*
X159209337Y-111198275D01*
X159184031Y-111325496D01*
X153218301Y-111325496D01*
X154513701Y-110030096D01*
X157964831Y-110030096D01*
X157964831Y-110159810D01*
X157969554Y-110183555D01*
X157990137Y-110287030D01*
X158039775Y-110406868D01*
X158039779Y-110406876D01*
X158111840Y-110514721D01*
X158111843Y-110514725D01*
X158203558Y-110606440D01*
X158203562Y-110606443D01*
X158311407Y-110678504D01*
X158311411Y-110678506D01*
X158311414Y-110678508D01*
X158431254Y-110728147D01*
X158558474Y-110753453D01*
X158558475Y-110753453D01*
X158688187Y-110753453D01*
X158688188Y-110753453D01*
X158815408Y-110728147D01*
X158935248Y-110678508D01*
X159043100Y-110606443D01*
X159134821Y-110514722D01*
X159206886Y-110406870D01*
X159256525Y-110287030D01*
X159281831Y-110159810D01*
X159281831Y-110030096D01*
X159256525Y-109902876D01*
X159206886Y-109783036D01*
X159206884Y-109783033D01*
X159206882Y-109783029D01*
X159134821Y-109675184D01*
X159134818Y-109675180D01*
X159043103Y-109583465D01*
X159043099Y-109583462D01*
X158935254Y-109511401D01*
X158935246Y-109511397D01*
X158815408Y-109461759D01*
X158809164Y-109460517D01*
X158688188Y-109436453D01*
X158558474Y-109436453D01*
X158494864Y-109449106D01*
X158431253Y-109461759D01*
X158311415Y-109511397D01*
X158311407Y-109511401D01*
X158203562Y-109583462D01*
X158203558Y-109583465D01*
X158111843Y-109675180D01*
X158111840Y-109675184D01*
X158039779Y-109783029D01*
X158039775Y-109783037D01*
X157990137Y-109902875D01*
X157988337Y-109911923D01*
X157964831Y-110030096D01*
X154513701Y-110030096D01*
X157508654Y-107035143D01*
X165241500Y-107035143D01*
X165241500Y-107164857D01*
X165259134Y-107253506D01*
X165266806Y-107292077D01*
X165316444Y-107411915D01*
X165316448Y-107411923D01*
X165388509Y-107519768D01*
X165388512Y-107519772D01*
X165480227Y-107611487D01*
X165480231Y-107611490D01*
X165588076Y-107683551D01*
X165588080Y-107683553D01*
X165588083Y-107683555D01*
X165707923Y-107733194D01*
X165835143Y-107758500D01*
X165835144Y-107758500D01*
X165964856Y-107758500D01*
X165964857Y-107758500D01*
X166092077Y-107733194D01*
X166211917Y-107683555D01*
X166319769Y-107611490D01*
X166411490Y-107519769D01*
X166483555Y-107411917D01*
X166533194Y-107292077D01*
X166558500Y-107164857D01*
X166558500Y-107035143D01*
X166533194Y-106907923D01*
X166483555Y-106788083D01*
X166483553Y-106788080D01*
X166483551Y-106788076D01*
X166425448Y-106701121D01*
X166423701Y-106692339D01*
X166428676Y-106684893D01*
X166435659Y-106680227D01*
X166456274Y-106666453D01*
X166547995Y-106574732D01*
X166620060Y-106466880D01*
X166669699Y-106347040D01*
X166695005Y-106219820D01*
X166695005Y-106090106D01*
X166669699Y-105962886D01*
X166620060Y-105843046D01*
X166620058Y-105843043D01*
X166620056Y-105843039D01*
X166547995Y-105735194D01*
X166547992Y-105735190D01*
X166456277Y-105643475D01*
X166456273Y-105643472D01*
X166348428Y-105571411D01*
X166348420Y-105571407D01*
X166228582Y-105521769D01*
X166101362Y-105496463D01*
X165971648Y-105496463D01*
X165913085Y-105508112D01*
X165844427Y-105521769D01*
X165724589Y-105571407D01*
X165724581Y-105571411D01*
X165616736Y-105643472D01*
X165616732Y-105643475D01*
X165525017Y-105735190D01*
X165525014Y-105735194D01*
X165452953Y-105843039D01*
X165452949Y-105843047D01*
X165403311Y-105962885D01*
X165378005Y-106090106D01*
X165378005Y-106219819D01*
X165403311Y-106347040D01*
X165452949Y-106466878D01*
X165452953Y-106466886D01*
X165511056Y-106553841D01*
X165512803Y-106562623D01*
X165507828Y-106570069D01*
X165480231Y-106588509D01*
X165480227Y-106588512D01*
X165388512Y-106680227D01*
X165388509Y-106680231D01*
X165316448Y-106788076D01*
X165316444Y-106788084D01*
X165266806Y-106907922D01*
X165266806Y-106907923D01*
X165241500Y-107035143D01*
X157508654Y-107035143D01*
X158673314Y-105870483D01*
X158685765Y-105848917D01*
X158712875Y-105801961D01*
X158733353Y-105725536D01*
X158733354Y-105725536D01*
X158733354Y-104276993D01*
X158736781Y-104268720D01*
X158741337Y-104265900D01*
X158750802Y-104262730D01*
X158790374Y-104235143D01*
X160741500Y-104235143D01*
X160741500Y-104364856D01*
X160766806Y-104492077D01*
X160816444Y-104611915D01*
X160816448Y-104611923D01*
X160888509Y-104719768D01*
X160888512Y-104719772D01*
X160980227Y-104811487D01*
X160980231Y-104811490D01*
X161088076Y-104883551D01*
X161088080Y-104883553D01*
X161088083Y-104883555D01*
X161207923Y-104933194D01*
X161335143Y-104958500D01*
X161335144Y-104958500D01*
X161464856Y-104958500D01*
X161464857Y-104958500D01*
X161592077Y-104933194D01*
X161711917Y-104883555D01*
X161819769Y-104811490D01*
X161911490Y-104719769D01*
X161983555Y-104611917D01*
X162033194Y-104492077D01*
X162058500Y-104364857D01*
X162058500Y-104278343D01*
X162663500Y-104278343D01*
X162663500Y-104408057D01*
X162680213Y-104492077D01*
X162688806Y-104535277D01*
X162738444Y-104655115D01*
X162738448Y-104655123D01*
X162810509Y-104762968D01*
X162810512Y-104762972D01*
X162902227Y-104854687D01*
X162902231Y-104854690D01*
X163010076Y-104926751D01*
X163010080Y-104926753D01*
X163010083Y-104926755D01*
X163129923Y-104976394D01*
X163257143Y-105001700D01*
X163257144Y-105001700D01*
X163386856Y-105001700D01*
X163386857Y-105001700D01*
X163514077Y-104976394D01*
X163633917Y-104926755D01*
X163736827Y-104857991D01*
X163745608Y-104856245D01*
X163749824Y-104857991D01*
X163754712Y-104861257D01*
X163788076Y-104883551D01*
X163788080Y-104883553D01*
X163788083Y-104883555D01*
X163907923Y-104933194D01*
X164035143Y-104958500D01*
X164035144Y-104958500D01*
X164164856Y-104958500D01*
X164164857Y-104958500D01*
X164292077Y-104933194D01*
X164411917Y-104883555D01*
X164519769Y-104811490D01*
X164611490Y-104719769D01*
X164683555Y-104611917D01*
X164733194Y-104492077D01*
X164758500Y-104364857D01*
X164758500Y-104235143D01*
X164733194Y-104107923D01*
X164683555Y-103988083D01*
X164683553Y-103988080D01*
X164683551Y-103988076D01*
X164611490Y-103880231D01*
X164611487Y-103880227D01*
X164519772Y-103788512D01*
X164519768Y-103788509D01*
X164411923Y-103716448D01*
X164411915Y-103716444D01*
X164292077Y-103666806D01*
X164164857Y-103641500D01*
X164035143Y-103641500D01*
X163992180Y-103650046D01*
X163907922Y-103666806D01*
X163788084Y-103716444D01*
X163788076Y-103716448D01*
X163685174Y-103785207D01*
X163676392Y-103786954D01*
X163672174Y-103785207D01*
X163633923Y-103759648D01*
X163633915Y-103759644D01*
X163514077Y-103710006D01*
X163386857Y-103684700D01*
X163257143Y-103684700D01*
X163193533Y-103697353D01*
X163129922Y-103710006D01*
X163010084Y-103759644D01*
X163010076Y-103759648D01*
X162902231Y-103831709D01*
X162902227Y-103831712D01*
X162810512Y-103923427D01*
X162810509Y-103923431D01*
X162738448Y-104031276D01*
X162738444Y-104031284D01*
X162688806Y-104151122D01*
X162676528Y-104212848D01*
X162663500Y-104278343D01*
X162058500Y-104278343D01*
X162058500Y-104235143D01*
X162033194Y-104107923D01*
X161983555Y-103988083D01*
X161983553Y-103988080D01*
X161983551Y-103988076D01*
X161911490Y-103880231D01*
X161911487Y-103880227D01*
X161819772Y-103788512D01*
X161819768Y-103788509D01*
X161711923Y-103716448D01*
X161711915Y-103716444D01*
X161592077Y-103666806D01*
X161464857Y-103641500D01*
X161335143Y-103641500D01*
X161292180Y-103650046D01*
X161207922Y-103666806D01*
X161088084Y-103716444D01*
X161088076Y-103716448D01*
X160980231Y-103788509D01*
X160980227Y-103788512D01*
X160888512Y-103880227D01*
X160888509Y-103880231D01*
X160816448Y-103988076D01*
X160816444Y-103988084D01*
X160766806Y-104107922D01*
X160741500Y-104235143D01*
X158790374Y-104235143D01*
X158870700Y-104179145D01*
X158877243Y-104173030D01*
X158948963Y-104089946D01*
X159014143Y-103959127D01*
X159039827Y-103815244D01*
X159040130Y-103806295D01*
X159039046Y-103751321D01*
X159007708Y-103608562D01*
X158831992Y-103140150D01*
X158831473Y-103138325D01*
X158830232Y-103132084D01*
X158813660Y-103092077D01*
X158769285Y-102984947D01*
X158769283Y-102984944D01*
X158769281Y-102984940D01*
X158680805Y-102852526D01*
X158680802Y-102852522D01*
X158568194Y-102739914D01*
X158568190Y-102739911D01*
X158435772Y-102651433D01*
X158411452Y-102641358D01*
X158410972Y-102641147D01*
X158124820Y-102507284D01*
X157928338Y-102415369D01*
X157928335Y-102415368D01*
X157928331Y-102415366D01*
X157856541Y-102390927D01*
X157822156Y-102379221D01*
X157822149Y-102379219D01*
X157822148Y-102379219D01*
X157817206Y-102378120D01*
X157796995Y-102374053D01*
X157796994Y-102374052D01*
X157796990Y-102374052D01*
X157739119Y-102371982D01*
X157711782Y-102371005D01*
X157703636Y-102367284D01*
X157700500Y-102359312D01*
X157700500Y-101495685D01*
X164950600Y-101495685D01*
X164950600Y-101655912D01*
X164992066Y-101810669D01*
X164992068Y-101810673D01*
X165072176Y-101949423D01*
X165072178Y-101949426D01*
X165072179Y-101949427D01*
X165185472Y-102062720D01*
X165185473Y-102062721D01*
X165185475Y-102062722D01*
X165233876Y-102090667D01*
X165239327Y-102097771D01*
X165238158Y-102106649D01*
X165233876Y-102110931D01*
X165185475Y-102138875D01*
X165185470Y-102138879D01*
X165072180Y-102252169D01*
X165072176Y-102252174D01*
X164992068Y-102390924D01*
X164992066Y-102390928D01*
X164950600Y-102545685D01*
X164950600Y-102705912D01*
X164992066Y-102860669D01*
X164992068Y-102860673D01*
X165072176Y-102999423D01*
X165072178Y-102999426D01*
X165072179Y-102999427D01*
X165185472Y-103112720D01*
X165185473Y-103112721D01*
X165185475Y-103112722D01*
X165233876Y-103140667D01*
X165239327Y-103147771D01*
X165238158Y-103156649D01*
X165233876Y-103160931D01*
X165185475Y-103188875D01*
X165185470Y-103188879D01*
X165072180Y-103302169D01*
X165072176Y-103302174D01*
X164992068Y-103440924D01*
X164992066Y-103440928D01*
X164950600Y-103595685D01*
X164950600Y-103755912D01*
X164992066Y-103910669D01*
X164992068Y-103910673D01*
X165072176Y-104049423D01*
X165072178Y-104049426D01*
X165072179Y-104049427D01*
X165185472Y-104162720D01*
X165185473Y-104162721D01*
X165185475Y-104162722D01*
X165324225Y-104242830D01*
X165324229Y-104242832D01*
X165420302Y-104268574D01*
X165478986Y-104284298D01*
X165478988Y-104284299D01*
X165478989Y-104284299D01*
X165639212Y-104284299D01*
X165639212Y-104284298D01*
X165726254Y-104260976D01*
X165793970Y-104242832D01*
X165793974Y-104242830D01*
X165845911Y-104212844D01*
X165932728Y-104162720D01*
X166046021Y-104049427D01*
X166073968Y-104001022D01*
X166081072Y-103995571D01*
X166089950Y-103996740D01*
X166094232Y-104001022D01*
X166122176Y-104049423D01*
X166122178Y-104049426D01*
X166122179Y-104049427D01*
X166235472Y-104162720D01*
X166235473Y-104162721D01*
X166235475Y-104162722D01*
X166374225Y-104242830D01*
X166374229Y-104242832D01*
X166470302Y-104268574D01*
X166528986Y-104284298D01*
X166528988Y-104284299D01*
X166528989Y-104284299D01*
X166689212Y-104284299D01*
X166689212Y-104284298D01*
X166776254Y-104260976D01*
X166843970Y-104242832D01*
X166843974Y-104242830D01*
X166895911Y-104212844D01*
X166982728Y-104162720D01*
X167096021Y-104049427D01*
X167123968Y-104001022D01*
X167131072Y-103995571D01*
X167139950Y-103996740D01*
X167144232Y-104001022D01*
X167172176Y-104049423D01*
X167172178Y-104049426D01*
X167172179Y-104049427D01*
X167285472Y-104162720D01*
X167285473Y-104162721D01*
X167285475Y-104162722D01*
X167424225Y-104242830D01*
X167424229Y-104242832D01*
X167520302Y-104268574D01*
X167578986Y-104284298D01*
X167578988Y-104284299D01*
X167578989Y-104284299D01*
X167739212Y-104284299D01*
X167739212Y-104284298D01*
X167826254Y-104260976D01*
X167893970Y-104242832D01*
X167893974Y-104242830D01*
X167945911Y-104212844D01*
X168032728Y-104162720D01*
X168146021Y-104049427D01*
X168226132Y-103910671D01*
X168226869Y-103907923D01*
X168247290Y-103831709D01*
X168267600Y-103755910D01*
X168267600Y-103595688D01*
X168242900Y-103503505D01*
X168226133Y-103440928D01*
X168226131Y-103440924D01*
X168146023Y-103302174D01*
X168146019Y-103302169D01*
X168032729Y-103188879D01*
X168032724Y-103188875D01*
X167984323Y-103160931D01*
X167978872Y-103153827D01*
X167980041Y-103144949D01*
X167984323Y-103140667D01*
X168013280Y-103123948D01*
X168032728Y-103112720D01*
X168146021Y-102999427D01*
X168215872Y-102878442D01*
X168226131Y-102860673D01*
X168226133Y-102860669D01*
X168257706Y-102742834D01*
X168267600Y-102705910D01*
X168267600Y-102545688D01*
X168247373Y-102470200D01*
X168226133Y-102390928D01*
X168226131Y-102390924D01*
X168146023Y-102252174D01*
X168146019Y-102252169D01*
X168032729Y-102138879D01*
X168032724Y-102138875D01*
X167984323Y-102110931D01*
X167978872Y-102103827D01*
X167980041Y-102094949D01*
X167984323Y-102090667D01*
X168030097Y-102064239D01*
X168032728Y-102062720D01*
X168146021Y-101949427D01*
X168226132Y-101810671D01*
X168233034Y-101784915D01*
X168262337Y-101675551D01*
X168267600Y-101655910D01*
X168267600Y-101495688D01*
X168255999Y-101452393D01*
X168226133Y-101340928D01*
X168226131Y-101340924D01*
X168146023Y-101202174D01*
X168146019Y-101202169D01*
X168032729Y-101088879D01*
X168032724Y-101088875D01*
X167893974Y-101008767D01*
X167893970Y-101008765D01*
X167739213Y-100967299D01*
X167739211Y-100967299D01*
X167578989Y-100967299D01*
X167578986Y-100967299D01*
X167424229Y-101008765D01*
X167424225Y-101008767D01*
X167285475Y-101088875D01*
X167285470Y-101088879D01*
X167172180Y-101202169D01*
X167172176Y-101202174D01*
X167144232Y-101250575D01*
X167137128Y-101256026D01*
X167128250Y-101254857D01*
X167123968Y-101250575D01*
X167096023Y-101202174D01*
X167096019Y-101202169D01*
X166982729Y-101088879D01*
X166982724Y-101088875D01*
X166843974Y-101008767D01*
X166843970Y-101008765D01*
X166689213Y-100967299D01*
X166689211Y-100967299D01*
X166528989Y-100967299D01*
X166528986Y-100967299D01*
X166374229Y-101008765D01*
X166374225Y-101008767D01*
X166235475Y-101088875D01*
X166235470Y-101088879D01*
X166122180Y-101202169D01*
X166122176Y-101202174D01*
X166094232Y-101250575D01*
X166087128Y-101256026D01*
X166078250Y-101254857D01*
X166073968Y-101250575D01*
X166046023Y-101202174D01*
X166046019Y-101202169D01*
X165932729Y-101088879D01*
X165932724Y-101088875D01*
X165793974Y-101008767D01*
X165793970Y-101008765D01*
X165639213Y-100967299D01*
X165639211Y-100967299D01*
X165478989Y-100967299D01*
X165478986Y-100967299D01*
X165324229Y-101008765D01*
X165324225Y-101008767D01*
X165185475Y-101088875D01*
X165185470Y-101088879D01*
X165072180Y-101202169D01*
X165072176Y-101202174D01*
X164992068Y-101340924D01*
X164992066Y-101340928D01*
X164950600Y-101495685D01*
X157700500Y-101495685D01*
X157700500Y-98835143D01*
X167141500Y-98835143D01*
X167141500Y-98964856D01*
X167166806Y-99092077D01*
X167216444Y-99211915D01*
X167216448Y-99211923D01*
X167288509Y-99319768D01*
X167288512Y-99319772D01*
X167380227Y-99411487D01*
X167380231Y-99411490D01*
X167488076Y-99483551D01*
X167488080Y-99483553D01*
X167488083Y-99483555D01*
X167607923Y-99533194D01*
X167724500Y-99556383D01*
X167731944Y-99561357D01*
X167733691Y-99570140D01*
X167731944Y-99574357D01*
X167688939Y-99638718D01*
X167688935Y-99638726D01*
X167639297Y-99758564D01*
X167624833Y-99831280D01*
X167613991Y-99885785D01*
X167613991Y-100015499D01*
X167627242Y-100082117D01*
X167639297Y-100142719D01*
X167688935Y-100262557D01*
X167688939Y-100262565D01*
X167761000Y-100370410D01*
X167761003Y-100370414D01*
X167852718Y-100462129D01*
X167852722Y-100462132D01*
X167960567Y-100534193D01*
X167960571Y-100534195D01*
X167960574Y-100534197D01*
X168080414Y-100583836D01*
X168207634Y-100609142D01*
X168207635Y-100609142D01*
X168337347Y-100609142D01*
X168337348Y-100609142D01*
X168464568Y-100583836D01*
X168584408Y-100534197D01*
X168584408Y-100534196D01*
X168584939Y-100533977D01*
X168585066Y-100534284D01*
X168592954Y-100533481D01*
X168599896Y-100539139D01*
X168601071Y-100546971D01*
X168588705Y-100609142D01*
X168581396Y-100645889D01*
X168581396Y-100775603D01*
X168589133Y-100814500D01*
X168606702Y-100902823D01*
X168656340Y-101022661D01*
X168656344Y-101022669D01*
X168728405Y-101130514D01*
X168728408Y-101130518D01*
X168820123Y-101222233D01*
X168820127Y-101222236D01*
X168927972Y-101294297D01*
X168927976Y-101294299D01*
X168927979Y-101294301D01*
X169047819Y-101343940D01*
X169175039Y-101369246D01*
X169175045Y-101369246D01*
X169175136Y-101369255D01*
X169175166Y-101369271D01*
X169175603Y-101369358D01*
X169175576Y-101369490D01*
X169183034Y-101373475D01*
X169185635Y-101382044D01*
X169183719Y-101387399D01*
X169116448Y-101488076D01*
X169116444Y-101488084D01*
X169077585Y-101581900D01*
X169066806Y-101607923D01*
X169041500Y-101735143D01*
X169041500Y-101864857D01*
X169059707Y-101956386D01*
X169066806Y-101992077D01*
X169116444Y-102111915D01*
X169116448Y-102111923D01*
X169188509Y-102219768D01*
X169188512Y-102219772D01*
X169280227Y-102311487D01*
X169280231Y-102311490D01*
X169388076Y-102383551D01*
X169388080Y-102383553D01*
X169388083Y-102383555D01*
X169507923Y-102433194D01*
X169635143Y-102458500D01*
X169690394Y-102458500D01*
X169698667Y-102461927D01*
X169702094Y-102470200D01*
X169698667Y-102478473D01*
X169653612Y-102523526D01*
X169653609Y-102523530D01*
X169581548Y-102631375D01*
X169581544Y-102631383D01*
X169531906Y-102751221D01*
X169509302Y-102864856D01*
X169506600Y-102878442D01*
X169506600Y-103008156D01*
X169518806Y-103069517D01*
X169531906Y-103135376D01*
X169581544Y-103255214D01*
X169581548Y-103255222D01*
X169653609Y-103363067D01*
X169653612Y-103363071D01*
X169745327Y-103454786D01*
X169745331Y-103454789D01*
X169853176Y-103526850D01*
X169853180Y-103526852D01*
X169853183Y-103526854D01*
X169973023Y-103576493D01*
X170100243Y-103601799D01*
X170100244Y-103601799D01*
X170229956Y-103601799D01*
X170229957Y-103601799D01*
X170357177Y-103576493D01*
X170477017Y-103526854D01*
X170584869Y-103454789D01*
X170676590Y-103363068D01*
X170748655Y-103255216D01*
X170798294Y-103135376D01*
X170823600Y-103008156D01*
X170823600Y-102878442D01*
X170798294Y-102751222D01*
X170748655Y-102631382D01*
X170748653Y-102631379D01*
X170748651Y-102631375D01*
X170676590Y-102523530D01*
X170676587Y-102523526D01*
X170584872Y-102431811D01*
X170584868Y-102431808D01*
X170477023Y-102359747D01*
X170477015Y-102359743D01*
X170357177Y-102310105D01*
X170309267Y-102300575D01*
X170229957Y-102284799D01*
X170229956Y-102284799D01*
X170174706Y-102284799D01*
X170166433Y-102281372D01*
X170163006Y-102273099D01*
X170166433Y-102264826D01*
X170189758Y-102241500D01*
X170201043Y-102230214D01*
X170209315Y-102226788D01*
X170213967Y-102227955D01*
X170214029Y-102227806D01*
X170232955Y-102235645D01*
X170334401Y-102277665D01*
X170461621Y-102302971D01*
X170461622Y-102302971D01*
X170591334Y-102302971D01*
X170591335Y-102302971D01*
X170718555Y-102277665D01*
X170838395Y-102228026D01*
X170946247Y-102155961D01*
X171037968Y-102064240D01*
X171110033Y-101956388D01*
X171150343Y-101859071D01*
X173589369Y-101859071D01*
X173589369Y-102057729D01*
X173621601Y-102219769D01*
X173628125Y-102252569D01*
X173704147Y-102436102D01*
X173704151Y-102436110D01*
X173814515Y-102601280D01*
X173814518Y-102601284D01*
X173954984Y-102741750D01*
X173954988Y-102741753D01*
X174120158Y-102852117D01*
X174120162Y-102852119D01*
X174120165Y-102852121D01*
X174303700Y-102928144D01*
X174498540Y-102966900D01*
X174498541Y-102966900D01*
X174697197Y-102966900D01*
X174697198Y-102966900D01*
X174892038Y-102928144D01*
X175075573Y-102852121D01*
X175240750Y-102741753D01*
X175381222Y-102601281D01*
X175491590Y-102436104D01*
X175567613Y-102252569D01*
X175606369Y-102057729D01*
X175606369Y-101859071D01*
X175567613Y-101664231D01*
X175491590Y-101480696D01*
X175491588Y-101480693D01*
X175491586Y-101480689D01*
X175381222Y-101315519D01*
X175381219Y-101315515D01*
X175240753Y-101175049D01*
X175240749Y-101175046D01*
X175075579Y-101064682D01*
X175075571Y-101064678D01*
X174892038Y-100988656D01*
X174697198Y-100949900D01*
X174498540Y-100949900D01*
X174411069Y-100967299D01*
X174303699Y-100988656D01*
X174120166Y-101064678D01*
X174120158Y-101064682D01*
X173954988Y-101175046D01*
X173954984Y-101175049D01*
X173814518Y-101315515D01*
X173814515Y-101315519D01*
X173704151Y-101480689D01*
X173704147Y-101480697D01*
X173628125Y-101664230D01*
X173604119Y-101784917D01*
X173589369Y-101859071D01*
X171150343Y-101859071D01*
X171159672Y-101836548D01*
X171184978Y-101709328D01*
X171184978Y-101579614D01*
X171159672Y-101452394D01*
X171110033Y-101332554D01*
X171110031Y-101332551D01*
X171110029Y-101332547D01*
X171037968Y-101224702D01*
X171037965Y-101224698D01*
X170946250Y-101132983D01*
X170946246Y-101132980D01*
X170838401Y-101060919D01*
X170838393Y-101060915D01*
X170718555Y-101011277D01*
X170591335Y-100985971D01*
X170461621Y-100985971D01*
X170398011Y-100998624D01*
X170334400Y-101011277D01*
X170214562Y-101060915D01*
X170214554Y-101060919D01*
X170106709Y-101132980D01*
X170106705Y-101132983D01*
X170025434Y-101214254D01*
X170017161Y-101217681D01*
X170012506Y-101216524D01*
X170012448Y-101216665D01*
X169977463Y-101202174D01*
X169892077Y-101166806D01*
X169842056Y-101156856D01*
X169764848Y-101141498D01*
X169764743Y-101141488D01*
X169764711Y-101141471D01*
X169764293Y-101141388D01*
X169764318Y-101141260D01*
X169756851Y-101137258D01*
X169754262Y-101128685D01*
X169756176Y-101123346D01*
X169779207Y-101088879D01*
X169823451Y-101022663D01*
X169873090Y-100902823D01*
X169898396Y-100775603D01*
X169898396Y-100645889D01*
X169873090Y-100518669D01*
X169854617Y-100474071D01*
X176429369Y-100474071D01*
X176429369Y-100672728D01*
X176468125Y-100867569D01*
X176544147Y-101051102D01*
X176544151Y-101051110D01*
X176654515Y-101216280D01*
X176654518Y-101216284D01*
X176794984Y-101356750D01*
X176794988Y-101356753D01*
X176960158Y-101467117D01*
X176960162Y-101467119D01*
X176960165Y-101467121D01*
X177143700Y-101543144D01*
X177338540Y-101581900D01*
X177338541Y-101581900D01*
X177537197Y-101581900D01*
X177537198Y-101581900D01*
X177732038Y-101543144D01*
X177915573Y-101467121D01*
X178080750Y-101356753D01*
X178221222Y-101216281D01*
X178331590Y-101051104D01*
X178407613Y-100867569D01*
X178446369Y-100672729D01*
X178446369Y-100474071D01*
X178407613Y-100279231D01*
X178331590Y-100095696D01*
X178331588Y-100095693D01*
X178331586Y-100095689D01*
X178221222Y-99930519D01*
X178221219Y-99930515D01*
X178080753Y-99790049D01*
X178080749Y-99790046D01*
X177915579Y-99679682D01*
X177915571Y-99679678D01*
X177732038Y-99603656D01*
X177537198Y-99564900D01*
X177338540Y-99564900D01*
X177241120Y-99584278D01*
X177143699Y-99603656D01*
X176960166Y-99679678D01*
X176960158Y-99679682D01*
X176794988Y-99790046D01*
X176794984Y-99790049D01*
X176654518Y-99930515D01*
X176654515Y-99930519D01*
X176544151Y-100095689D01*
X176544147Y-100095697D01*
X176468125Y-100279230D01*
X176429369Y-100474071D01*
X169854617Y-100474071D01*
X169823451Y-100398829D01*
X169823449Y-100398826D01*
X169823447Y-100398822D01*
X169770780Y-100320002D01*
X169769033Y-100311220D01*
X169770779Y-100307003D01*
X169774093Y-100302045D01*
X169823732Y-100182205D01*
X169849038Y-100054985D01*
X169849038Y-99925271D01*
X169823732Y-99798051D01*
X169774093Y-99678211D01*
X169774091Y-99678208D01*
X169774089Y-99678204D01*
X169702028Y-99570359D01*
X169702025Y-99570355D01*
X169610310Y-99478640D01*
X169610306Y-99478637D01*
X169502461Y-99406576D01*
X169502453Y-99406572D01*
X169382615Y-99356934D01*
X169255395Y-99331628D01*
X169125681Y-99331628D01*
X169062071Y-99344281D01*
X168998460Y-99356934D01*
X168878622Y-99406572D01*
X168878614Y-99406576D01*
X168770770Y-99478636D01*
X168759530Y-99489876D01*
X168751256Y-99493302D01*
X168742984Y-99489875D01*
X168692263Y-99439154D01*
X168692259Y-99439151D01*
X168584414Y-99367090D01*
X168584406Y-99367086D01*
X168464568Y-99317448D01*
X168347991Y-99294259D01*
X168340546Y-99289284D01*
X168338799Y-99280501D01*
X168340546Y-99276284D01*
X168383551Y-99211923D01*
X168383551Y-99211922D01*
X168383555Y-99211917D01*
X168433194Y-99092077D01*
X168433792Y-99089071D01*
X173589369Y-99089071D01*
X173589369Y-99287729D01*
X173613009Y-99406576D01*
X173628125Y-99482569D01*
X173704147Y-99666102D01*
X173704151Y-99666110D01*
X173814515Y-99831280D01*
X173814518Y-99831284D01*
X173954984Y-99971750D01*
X173954988Y-99971753D01*
X174120158Y-100082117D01*
X174120162Y-100082119D01*
X174120165Y-100082121D01*
X174303700Y-100158144D01*
X174498540Y-100196900D01*
X174498541Y-100196900D01*
X174697197Y-100196900D01*
X174697198Y-100196900D01*
X174892038Y-100158144D01*
X175075573Y-100082121D01*
X175240750Y-99971753D01*
X175381222Y-99831281D01*
X175491590Y-99666104D01*
X175567613Y-99482569D01*
X175606369Y-99287729D01*
X175606369Y-99089071D01*
X175567613Y-98894231D01*
X175491590Y-98710696D01*
X175491588Y-98710693D01*
X175491586Y-98710689D01*
X175381222Y-98545519D01*
X175381219Y-98545515D01*
X175240753Y-98405049D01*
X175240749Y-98405046D01*
X175075579Y-98294682D01*
X175075571Y-98294678D01*
X174892038Y-98218656D01*
X174697198Y-98179900D01*
X174498540Y-98179900D01*
X174401120Y-98199278D01*
X174303699Y-98218656D01*
X174120166Y-98294678D01*
X174120158Y-98294682D01*
X173954988Y-98405046D01*
X173954984Y-98405049D01*
X173814518Y-98545515D01*
X173814515Y-98545519D01*
X173704151Y-98710689D01*
X173704147Y-98710697D01*
X173652600Y-98835143D01*
X173628125Y-98894231D01*
X173589369Y-99089071D01*
X168433792Y-99089071D01*
X168458500Y-98964857D01*
X168458500Y-98835143D01*
X168433194Y-98707923D01*
X168383555Y-98588083D01*
X168383553Y-98588080D01*
X168383551Y-98588076D01*
X168372715Y-98571860D01*
X168370968Y-98563078D01*
X168374168Y-98557089D01*
X168411490Y-98519769D01*
X168483555Y-98411917D01*
X168533194Y-98292077D01*
X168558500Y-98164857D01*
X168558500Y-98035143D01*
X168533194Y-97907923D01*
X168483555Y-97788083D01*
X168483553Y-97788080D01*
X168483551Y-97788076D01*
X168431379Y-97709996D01*
X168427420Y-97704071D01*
X176429369Y-97704071D01*
X176429369Y-97902728D01*
X176468125Y-98097569D01*
X176544147Y-98281102D01*
X176544151Y-98281110D01*
X176654515Y-98446280D01*
X176654518Y-98446284D01*
X176794984Y-98586750D01*
X176794988Y-98586753D01*
X176960158Y-98697117D01*
X176960162Y-98697119D01*
X176960165Y-98697121D01*
X177143700Y-98773144D01*
X177338540Y-98811900D01*
X177338541Y-98811900D01*
X177537197Y-98811900D01*
X177537198Y-98811900D01*
X177732038Y-98773144D01*
X177915573Y-98697121D01*
X178080750Y-98586753D01*
X178221222Y-98446281D01*
X178331590Y-98281104D01*
X178407613Y-98097569D01*
X178446369Y-97902729D01*
X178446369Y-97704071D01*
X178407613Y-97509231D01*
X178331590Y-97325696D01*
X178331588Y-97325693D01*
X178331586Y-97325689D01*
X178221222Y-97160519D01*
X178221219Y-97160515D01*
X178080753Y-97020049D01*
X178080749Y-97020046D01*
X177915579Y-96909682D01*
X177915571Y-96909678D01*
X177732038Y-96833656D01*
X177537198Y-96794900D01*
X177338540Y-96794900D01*
X177248711Y-96812768D01*
X177143699Y-96833656D01*
X176960166Y-96909678D01*
X176960158Y-96909682D01*
X176794988Y-97020046D01*
X176794984Y-97020049D01*
X176654518Y-97160515D01*
X176654515Y-97160519D01*
X176544151Y-97325689D01*
X176544147Y-97325697D01*
X176468125Y-97509230D01*
X176429369Y-97704071D01*
X168427420Y-97704071D01*
X168411490Y-97680231D01*
X168411487Y-97680227D01*
X168319772Y-97588512D01*
X168319768Y-97588509D01*
X168211923Y-97516448D01*
X168211915Y-97516444D01*
X168092077Y-97466806D01*
X167964857Y-97441500D01*
X167835143Y-97441500D01*
X167771533Y-97454153D01*
X167707922Y-97466806D01*
X167588084Y-97516444D01*
X167588076Y-97516448D01*
X167480231Y-97588509D01*
X167480227Y-97588512D01*
X167388512Y-97680227D01*
X167388509Y-97680231D01*
X167316448Y-97788076D01*
X167316444Y-97788084D01*
X167268957Y-97902729D01*
X167266806Y-97907923D01*
X167241500Y-98035143D01*
X167241500Y-98164857D01*
X167266806Y-98292077D01*
X167316444Y-98411915D01*
X167316448Y-98411923D01*
X167327283Y-98428138D01*
X167329030Y-98436921D01*
X167325828Y-98442911D01*
X167288512Y-98480227D01*
X167288509Y-98480231D01*
X167216448Y-98588076D01*
X167216444Y-98588084D01*
X167166806Y-98707922D01*
X167141500Y-98835143D01*
X157700500Y-98835143D01*
X157700500Y-96319071D01*
X173589369Y-96319071D01*
X173589369Y-96517728D01*
X173628125Y-96712569D01*
X173704147Y-96896102D01*
X173704151Y-96896110D01*
X173814515Y-97061280D01*
X173814518Y-97061284D01*
X173954984Y-97201750D01*
X173954988Y-97201753D01*
X174120158Y-97312117D01*
X174120162Y-97312119D01*
X174120165Y-97312121D01*
X174303700Y-97388144D01*
X174498540Y-97426900D01*
X174498541Y-97426900D01*
X174697197Y-97426900D01*
X174697198Y-97426900D01*
X174892038Y-97388144D01*
X175075573Y-97312121D01*
X175240750Y-97201753D01*
X175381222Y-97061281D01*
X175491590Y-96896104D01*
X175567613Y-96712569D01*
X175606369Y-96517729D01*
X175606369Y-96319071D01*
X175567613Y-96124231D01*
X175491590Y-95940696D01*
X175491588Y-95940693D01*
X175491586Y-95940689D01*
X175381222Y-95775519D01*
X175381219Y-95775515D01*
X175240753Y-95635049D01*
X175240749Y-95635046D01*
X175075579Y-95524682D01*
X175075571Y-95524678D01*
X174892038Y-95448656D01*
X174697198Y-95409900D01*
X174498540Y-95409900D01*
X174401120Y-95429278D01*
X174303699Y-95448656D01*
X174120166Y-95524678D01*
X174120158Y-95524682D01*
X173954988Y-95635046D01*
X173954984Y-95635049D01*
X173814518Y-95775515D01*
X173814515Y-95775519D01*
X173704151Y-95940689D01*
X173704147Y-95940697D01*
X173628125Y-96124230D01*
X173589369Y-96319071D01*
X157700500Y-96319071D01*
X157700500Y-95766554D01*
X157703927Y-95758281D01*
X157707623Y-95755786D01*
X157762851Y-95732310D01*
X157875802Y-95639552D01*
X157881843Y-95632942D01*
X157916677Y-95590473D01*
X157985544Y-95461557D01*
X158167167Y-94960631D01*
X158167327Y-94960218D01*
X158177430Y-94935831D01*
X158177780Y-94934071D01*
X176429369Y-94934071D01*
X176429369Y-95132728D01*
X176468125Y-95327569D01*
X176544147Y-95511102D01*
X176544151Y-95511110D01*
X176654515Y-95676280D01*
X176654518Y-95676284D01*
X176794984Y-95816750D01*
X176794988Y-95816753D01*
X176960158Y-95927117D01*
X176960162Y-95927119D01*
X176960165Y-95927121D01*
X177143700Y-96003144D01*
X177338540Y-96041900D01*
X177338541Y-96041900D01*
X177537197Y-96041900D01*
X177537198Y-96041900D01*
X177732038Y-96003144D01*
X177915573Y-95927121D01*
X178080750Y-95816753D01*
X178221222Y-95676281D01*
X178331590Y-95511104D01*
X178407613Y-95327569D01*
X178446369Y-95132729D01*
X178446369Y-94934071D01*
X178407613Y-94739231D01*
X178331590Y-94555696D01*
X178331588Y-94555693D01*
X178331586Y-94555689D01*
X178221222Y-94390519D01*
X178221219Y-94390515D01*
X178080753Y-94250049D01*
X178080749Y-94250046D01*
X177915579Y-94139682D01*
X177915571Y-94139678D01*
X177732038Y-94063656D01*
X177537198Y-94024900D01*
X177338540Y-94024900D01*
X177241120Y-94044278D01*
X177143699Y-94063656D01*
X176960166Y-94139678D01*
X176960158Y-94139682D01*
X176794988Y-94250046D01*
X176794984Y-94250049D01*
X176654518Y-94390515D01*
X176654515Y-94390519D01*
X176544151Y-94555689D01*
X176544147Y-94555697D01*
X176468125Y-94739230D01*
X176429369Y-94934071D01*
X158177780Y-94934071D01*
X158180062Y-94922593D01*
X158180397Y-94921303D01*
X158183933Y-94910302D01*
X158183939Y-94910284D01*
X158184408Y-94908616D01*
X158201385Y-94817018D01*
X158201385Y-94817014D01*
X158201431Y-94816330D01*
X158201454Y-94816331D01*
X158201603Y-94814298D01*
X158208500Y-94779628D01*
X158208500Y-94620370D01*
X158202508Y-94590245D01*
X158177430Y-94464169D01*
X158116483Y-94317032D01*
X158116481Y-94317029D01*
X158116479Y-94317025D01*
X158028003Y-94184611D01*
X158028000Y-94184607D01*
X157915392Y-94071999D01*
X157915388Y-94071996D01*
X157782974Y-93983520D01*
X157782966Y-93983516D01*
X157635831Y-93922570D01*
X157479630Y-93891500D01*
X157320370Y-93891500D01*
X157242269Y-93907035D01*
X157164168Y-93922570D01*
X157017033Y-93983516D01*
X157017025Y-93983520D01*
X156884611Y-94071996D01*
X156884607Y-94071999D01*
X156771999Y-94184607D01*
X156771996Y-94184611D01*
X156683520Y-94317025D01*
X156683516Y-94317033D01*
X156662542Y-94367669D01*
X156656210Y-94374001D01*
X156647256Y-94374001D01*
X156640924Y-94367669D01*
X156640033Y-94363192D01*
X156640033Y-94333078D01*
X156636840Y-94317025D01*
X156614727Y-94205858D01*
X156565088Y-94086018D01*
X156565086Y-94086015D01*
X156565084Y-94086011D01*
X156493023Y-93978166D01*
X156493020Y-93978162D01*
X156401305Y-93886447D01*
X156401301Y-93886444D01*
X156293456Y-93814383D01*
X156293448Y-93814379D01*
X156173610Y-93764741D01*
X156046390Y-93739435D01*
X155916676Y-93739435D01*
X155874985Y-93747728D01*
X155789455Y-93764741D01*
X155669617Y-93814379D01*
X155669609Y-93814383D01*
X155561764Y-93886444D01*
X155561760Y-93886447D01*
X155470045Y-93978162D01*
X155470042Y-93978166D01*
X155397981Y-94086011D01*
X155397977Y-94086019D01*
X155348339Y-94205857D01*
X155323033Y-94333078D01*
X155323033Y-94462791D01*
X155348339Y-94590012D01*
X155397977Y-94709850D01*
X155397981Y-94709858D01*
X155470039Y-94817699D01*
X155470045Y-94817707D01*
X155561760Y-94909422D01*
X155561764Y-94909425D01*
X155669609Y-94981486D01*
X155669613Y-94981488D01*
X155669616Y-94981490D01*
X155789456Y-95031129D01*
X155916676Y-95056435D01*
X155916677Y-95056435D01*
X156046389Y-95056435D01*
X156046390Y-95056435D01*
X156173610Y-95031129D01*
X156293450Y-94981490D01*
X156401302Y-94909425D01*
X156493023Y-94817704D01*
X156493024Y-94817702D01*
X156493027Y-94817699D01*
X156565084Y-94709858D01*
X156565084Y-94709857D01*
X156565088Y-94709852D01*
X156568991Y-94700428D01*
X156575323Y-94694097D01*
X156584277Y-94694097D01*
X156590609Y-94700429D01*
X156591500Y-94704906D01*
X156591500Y-94779629D01*
X156622570Y-94935831D01*
X156632651Y-94960169D01*
X156632841Y-94960658D01*
X156814456Y-95461560D01*
X156814458Y-95461565D01*
X156863942Y-95562144D01*
X156866677Y-95566444D01*
X156878124Y-95583660D01*
X156977714Y-95690633D01*
X157093770Y-95759495D01*
X157099137Y-95766664D01*
X157099500Y-95769557D01*
X157099500Y-102754677D01*
X157107750Y-102785465D01*
X157107298Y-102792873D01*
X157066307Y-102894409D01*
X157066306Y-102894412D01*
X157051990Y-103039864D01*
X157051990Y-103039866D01*
X157052391Y-103048812D01*
X157052391Y-103048822D01*
X157057794Y-103103592D01*
X157057796Y-103103603D01*
X157100254Y-103243445D01*
X157100256Y-103243450D01*
X157100257Y-103243453D01*
X157186956Y-103428784D01*
X157326027Y-103726067D01*
X157326238Y-103726547D01*
X157336319Y-103750883D01*
X157336320Y-103750884D01*
X157336322Y-103750889D01*
X157343869Y-103762183D01*
X157344545Y-103763331D01*
X157350006Y-103773953D01*
X157350855Y-103775463D01*
X157403338Y-103851766D01*
X157403339Y-103851767D01*
X157403782Y-103852273D01*
X157403767Y-103852285D01*
X157405121Y-103853856D01*
X157425118Y-103883782D01*
X157424935Y-103883903D01*
X157427325Y-103891788D01*
X157423102Y-103899684D01*
X157417965Y-103902113D01*
X157290694Y-103927429D01*
X157170856Y-103977067D01*
X157170848Y-103977071D01*
X157063003Y-104049132D01*
X157062999Y-104049135D01*
X156971284Y-104140850D01*
X156971281Y-104140854D01*
X156899220Y-104248699D01*
X156899216Y-104248707D01*
X156849578Y-104368545D01*
X156847970Y-104376631D01*
X156824272Y-104495766D01*
X156824272Y-104625480D01*
X156842366Y-104716445D01*
X156849578Y-104752700D01*
X156899216Y-104872538D01*
X156899220Y-104872546D01*
X156971281Y-104980391D01*
X156971284Y-104980395D01*
X157062999Y-105072110D01*
X157063003Y-105072113D01*
X157170848Y-105144174D01*
X157170852Y-105144176D01*
X157170855Y-105144178D01*
X157290695Y-105193817D01*
X157417915Y-105219123D01*
X157417916Y-105219123D01*
X157547628Y-105219123D01*
X157547629Y-105219123D01*
X157674849Y-105193817D01*
X157794689Y-105144178D01*
X157902541Y-105072113D01*
X157994262Y-104980392D01*
X158066327Y-104872540D01*
X158109845Y-104767476D01*
X158116177Y-104761145D01*
X158125131Y-104761145D01*
X158131463Y-104767477D01*
X158132354Y-104771954D01*
X158132354Y-105556654D01*
X158128927Y-105564927D01*
X153968267Y-109725586D01*
X153959994Y-109729013D01*
X153951721Y-109725586D01*
X153948294Y-109717313D01*
X153948519Y-109715030D01*
X153956446Y-109675184D01*
X153958500Y-109664857D01*
X153958500Y-109535143D01*
X153933194Y-109407923D01*
X153883555Y-109288083D01*
X153883553Y-109288080D01*
X153883551Y-109288076D01*
X153811490Y-109180231D01*
X153811487Y-109180227D01*
X153719772Y-109088512D01*
X153719768Y-109088509D01*
X153611923Y-109016448D01*
X153611915Y-109016444D01*
X153492077Y-108966806D01*
X153364857Y-108941500D01*
X153235143Y-108941500D01*
X153171533Y-108954153D01*
X153107922Y-108966806D01*
X152988084Y-109016444D01*
X152988076Y-109016448D01*
X152880231Y-109088509D01*
X152880227Y-109088512D01*
X152788512Y-109180227D01*
X152788509Y-109180231D01*
X152716448Y-109288076D01*
X152716446Y-109288081D01*
X152710809Y-109301690D01*
X152704477Y-109308021D01*
X152695522Y-109308021D01*
X152689191Y-109301690D01*
X152683555Y-109288083D01*
X152683552Y-109288078D01*
X152683551Y-109288076D01*
X152611490Y-109180231D01*
X152611487Y-109180227D01*
X152519772Y-109088512D01*
X152519768Y-109088509D01*
X152411923Y-109016448D01*
X152411915Y-109016444D01*
X152292077Y-108966806D01*
X152164857Y-108941500D01*
X152035143Y-108941500D01*
X151971533Y-108954153D01*
X151907922Y-108966806D01*
X151788084Y-109016444D01*
X151788076Y-109016448D01*
X151680231Y-109088509D01*
X151680227Y-109088512D01*
X151588512Y-109180227D01*
X151588509Y-109180231D01*
X151516448Y-109288076D01*
X151516444Y-109288084D01*
X151466806Y-109407922D01*
X151456929Y-109457576D01*
X151441500Y-109535143D01*
X151441500Y-109664857D01*
X151443554Y-109675184D01*
X151466806Y-109792077D01*
X151516444Y-109911915D01*
X151516448Y-109911923D01*
X151588509Y-110019768D01*
X151588512Y-110019772D01*
X151680227Y-110111487D01*
X151680231Y-110111490D01*
X151788076Y-110183551D01*
X151788080Y-110183553D01*
X151788083Y-110183555D01*
X151907923Y-110233194D01*
X152035143Y-110258500D01*
X152035144Y-110258500D01*
X152164856Y-110258500D01*
X152164857Y-110258500D01*
X152292077Y-110233194D01*
X152411917Y-110183555D01*
X152519769Y-110111490D01*
X152611490Y-110019769D01*
X152683555Y-109911917D01*
X152689192Y-109898306D01*
X152695522Y-109891977D01*
X152704477Y-109891976D01*
X152710807Y-109898306D01*
X152716445Y-109911917D01*
X152716446Y-109911919D01*
X152716448Y-109911923D01*
X152788509Y-110019768D01*
X152788512Y-110019772D01*
X152880227Y-110111487D01*
X152880231Y-110111490D01*
X152988076Y-110183551D01*
X152988080Y-110183553D01*
X152988083Y-110183555D01*
X153107923Y-110233194D01*
X153235143Y-110258500D01*
X153235144Y-110258500D01*
X153364856Y-110258500D01*
X153364857Y-110258500D01*
X153415030Y-110248519D01*
X153423813Y-110250266D01*
X153428788Y-110257711D01*
X153427041Y-110266494D01*
X153425586Y-110268267D01*
X151892880Y-111800975D01*
X151884607Y-111804402D01*
X132097019Y-111804402D01*
X132088746Y-111800975D01*
X131585820Y-111298049D01*
X131582393Y-111289776D01*
X131583776Y-111284258D01*
X131584201Y-111283464D01*
X131615304Y-111140655D01*
X131615945Y-111131723D01*
X131616058Y-111125424D01*
X131619633Y-111117216D01*
X131627966Y-111113938D01*
X131634633Y-111116171D01*
X131672784Y-111143890D01*
X131672789Y-111143892D01*
X131672791Y-111143894D01*
X131863317Y-111240972D01*
X131863322Y-111240973D01*
X131863325Y-111240975D01*
X132004412Y-111286816D01*
X132066684Y-111307049D01*
X132152642Y-111320663D01*
X132277883Y-111340500D01*
X132277884Y-111340500D01*
X132491716Y-111340500D01*
X132702916Y-111307049D01*
X132906283Y-111240972D01*
X133096809Y-111143894D01*
X133101268Y-111140655D01*
X133269794Y-111018213D01*
X133269804Y-111018206D01*
X133421006Y-110867004D01*
X133500813Y-110757159D01*
X133546690Y-110694015D01*
X133546690Y-110694013D01*
X133546694Y-110694009D01*
X133643772Y-110503483D01*
X133643775Y-110503471D01*
X133643949Y-110503055D01*
X133644211Y-110503164D01*
X133649473Y-110496986D01*
X133658399Y-110496270D01*
X133665217Y-110502076D01*
X133665626Y-110503065D01*
X133665651Y-110503055D01*
X133665826Y-110503478D01*
X133665828Y-110503483D01*
X133727685Y-110624884D01*
X133762909Y-110694015D01*
X133888586Y-110866994D01*
X133888590Y-110866998D01*
X133888594Y-110867004D01*
X134039796Y-111018206D01*
X134039801Y-111018210D01*
X134039805Y-111018213D01*
X134212784Y-111143890D01*
X134212789Y-111143892D01*
X134212791Y-111143894D01*
X134403317Y-111240972D01*
X134403322Y-111240973D01*
X134403325Y-111240975D01*
X134544412Y-111286816D01*
X134606684Y-111307049D01*
X134692642Y-111320663D01*
X134817883Y-111340500D01*
X134817884Y-111340500D01*
X135031716Y-111340500D01*
X135242916Y-111307049D01*
X135446283Y-111240972D01*
X135636809Y-111143894D01*
X135641268Y-111140655D01*
X135809794Y-111018213D01*
X135809804Y-111018206D01*
X135961006Y-110867004D01*
X136040813Y-110757159D01*
X136086690Y-110694015D01*
X136086690Y-110694013D01*
X136086694Y-110694009D01*
X136183772Y-110503483D01*
X136189350Y-110486317D01*
X136194800Y-110469541D01*
X136249849Y-110300116D01*
X136283300Y-110088916D01*
X136283300Y-109875084D01*
X136283300Y-109875083D01*
X138646300Y-109875083D01*
X138646300Y-110088916D01*
X138679749Y-110300108D01*
X138679753Y-110300124D01*
X138745824Y-110503474D01*
X138745826Y-110503478D01*
X138745828Y-110503483D01*
X138807685Y-110624884D01*
X138842909Y-110694015D01*
X138968586Y-110866994D01*
X138968590Y-110866998D01*
X138968594Y-110867004D01*
X139119796Y-111018206D01*
X139119801Y-111018210D01*
X139119805Y-111018213D01*
X139292784Y-111143890D01*
X139292789Y-111143892D01*
X139292791Y-111143894D01*
X139483317Y-111240972D01*
X139483322Y-111240973D01*
X139483325Y-111240975D01*
X139624412Y-111286816D01*
X139686684Y-111307049D01*
X139772642Y-111320663D01*
X139897883Y-111340500D01*
X139897884Y-111340500D01*
X140111716Y-111340500D01*
X140322916Y-111307049D01*
X140526283Y-111240972D01*
X140716809Y-111143894D01*
X140721268Y-111140655D01*
X140889794Y-111018213D01*
X140889804Y-111018206D01*
X141041006Y-110867004D01*
X141120813Y-110757159D01*
X141166690Y-110694015D01*
X141166690Y-110694013D01*
X141166694Y-110694009D01*
X141263772Y-110503483D01*
X141269350Y-110486317D01*
X141274800Y-110469541D01*
X141329849Y-110300116D01*
X141363300Y-110088916D01*
X141363300Y-109875084D01*
X141362845Y-109872214D01*
X141329850Y-109663891D01*
X141329849Y-109663884D01*
X141277997Y-109504297D01*
X141263775Y-109460525D01*
X141263773Y-109460521D01*
X141263772Y-109460517D01*
X141166694Y-109269991D01*
X141166692Y-109269989D01*
X141166690Y-109269984D01*
X141041013Y-109097005D01*
X141041010Y-109097001D01*
X141041006Y-109096996D01*
X140889804Y-108945794D01*
X140889798Y-108945790D01*
X140889794Y-108945786D01*
X140716815Y-108820109D01*
X140698807Y-108810933D01*
X140526283Y-108723028D01*
X140526280Y-108723027D01*
X140526278Y-108723026D01*
X140526274Y-108723024D01*
X140322924Y-108656953D01*
X140322908Y-108656949D01*
X140111717Y-108623500D01*
X140111716Y-108623500D01*
X139897884Y-108623500D01*
X139897883Y-108623500D01*
X139686691Y-108656949D01*
X139686675Y-108656953D01*
X139483325Y-108723024D01*
X139483321Y-108723026D01*
X139292784Y-108820109D01*
X139119805Y-108945786D01*
X139119789Y-108945800D01*
X138968600Y-109096989D01*
X138968586Y-109097005D01*
X138842909Y-109269984D01*
X138745826Y-109460521D01*
X138745824Y-109460525D01*
X138679753Y-109663875D01*
X138679749Y-109663891D01*
X138646300Y-109875083D01*
X136283300Y-109875083D01*
X136282845Y-109872214D01*
X136249850Y-109663891D01*
X136249849Y-109663884D01*
X136197997Y-109504297D01*
X136183775Y-109460525D01*
X136183773Y-109460521D01*
X136183772Y-109460517D01*
X136086694Y-109269991D01*
X136086692Y-109269989D01*
X136086690Y-109269984D01*
X136059861Y-109233059D01*
X136058852Y-109231397D01*
X136056649Y-109226972D01*
X136047226Y-109208045D01*
X135921929Y-109026754D01*
X135866949Y-108947203D01*
X135859453Y-108936644D01*
X135859409Y-108936583D01*
X135859056Y-108936099D01*
X135858919Y-108935917D01*
X135851100Y-108925480D01*
X135704009Y-108734384D01*
X135694838Y-108723026D01*
X135689042Y-108715847D01*
X135688353Y-108715033D01*
X135672506Y-108697170D01*
X135667776Y-108692082D01*
X135460165Y-108468746D01*
X135455287Y-108463644D01*
X135450284Y-108458410D01*
X135449825Y-108457943D01*
X135439341Y-108447578D01*
X135310323Y-108323638D01*
X134996581Y-108018678D01*
X134957994Y-107984755D01*
X134831763Y-107911081D01*
X134831762Y-107911080D01*
X134831756Y-107911077D01*
X134823609Y-107907771D01*
X134721712Y-107878247D01*
X134692498Y-107877202D01*
X134575647Y-107873025D01*
X134575646Y-107873025D01*
X134575643Y-107873025D01*
X134448633Y-107905436D01*
X134439769Y-107904161D01*
X134437467Y-107902372D01*
X134217038Y-107681943D01*
X144400900Y-107681943D01*
X144400900Y-107811657D01*
X144419554Y-107905436D01*
X144426206Y-107938877D01*
X144475844Y-108058715D01*
X144475848Y-108058723D01*
X144547909Y-108166568D01*
X144547912Y-108166572D01*
X144639627Y-108258287D01*
X144639631Y-108258290D01*
X144747476Y-108330351D01*
X144747480Y-108330353D01*
X144747483Y-108330355D01*
X144867323Y-108379994D01*
X144994543Y-108405300D01*
X144994544Y-108405300D01*
X145124256Y-108405300D01*
X145124257Y-108405300D01*
X145251477Y-108379994D01*
X145371317Y-108330355D01*
X145401305Y-108310316D01*
X145410086Y-108308570D01*
X145417532Y-108313545D01*
X145488509Y-108419768D01*
X145488512Y-108419772D01*
X145580227Y-108511487D01*
X145580231Y-108511490D01*
X145688076Y-108583551D01*
X145688080Y-108583553D01*
X145688083Y-108583555D01*
X145807923Y-108633194D01*
X145935143Y-108658500D01*
X145935144Y-108658500D01*
X146064856Y-108658500D01*
X146064857Y-108658500D01*
X146192077Y-108633194D01*
X146311917Y-108583555D01*
X146419769Y-108511490D01*
X146511490Y-108419769D01*
X146583555Y-108311917D01*
X146633194Y-108192077D01*
X146658500Y-108064857D01*
X146658500Y-107935143D01*
X146633194Y-107807923D01*
X146583555Y-107688083D01*
X146583553Y-107688080D01*
X146583551Y-107688076D01*
X146511490Y-107580231D01*
X146511487Y-107580227D01*
X146419772Y-107488512D01*
X146419768Y-107488509D01*
X146311923Y-107416448D01*
X146311915Y-107416444D01*
X146192077Y-107366806D01*
X146064857Y-107341500D01*
X145935143Y-107341500D01*
X145871533Y-107354153D01*
X145807922Y-107366806D01*
X145688084Y-107416444D01*
X145688076Y-107416448D01*
X145658095Y-107436481D01*
X145649312Y-107438228D01*
X145641867Y-107433253D01*
X145570890Y-107327031D01*
X145570887Y-107327027D01*
X145479172Y-107235312D01*
X145479168Y-107235309D01*
X145371323Y-107163248D01*
X145371315Y-107163244D01*
X145251477Y-107113606D01*
X145124257Y-107088300D01*
X144994543Y-107088300D01*
X144930933Y-107100953D01*
X144867322Y-107113606D01*
X144747484Y-107163244D01*
X144747476Y-107163248D01*
X144639631Y-107235309D01*
X144639627Y-107235312D01*
X144547912Y-107327027D01*
X144547909Y-107327031D01*
X144475848Y-107434876D01*
X144475844Y-107434884D01*
X144426206Y-107554722D01*
X144400900Y-107681943D01*
X134217038Y-107681943D01*
X134084216Y-107549121D01*
X134082356Y-107546698D01*
X134077386Y-107538090D01*
X134047263Y-107485914D01*
X134045696Y-107480064D01*
X134045696Y-105635143D01*
X141941500Y-105635143D01*
X141941500Y-105764857D01*
X141950776Y-105811490D01*
X141966806Y-105892077D01*
X142016444Y-106011915D01*
X142016448Y-106011923D01*
X142088509Y-106119768D01*
X142088512Y-106119772D01*
X142180227Y-106211487D01*
X142180231Y-106211490D01*
X142288076Y-106283551D01*
X142288080Y-106283553D01*
X142288083Y-106283555D01*
X142407923Y-106333194D01*
X142535143Y-106358500D01*
X142535144Y-106358500D01*
X142664856Y-106358500D01*
X142664857Y-106358500D01*
X142792077Y-106333194D01*
X142911917Y-106283555D01*
X143019769Y-106211490D01*
X143111490Y-106119769D01*
X143183555Y-106011917D01*
X143233194Y-105892077D01*
X143239679Y-105859474D01*
X143244653Y-105852030D01*
X143253435Y-105850283D01*
X143260881Y-105855258D01*
X143328709Y-105956768D01*
X143328712Y-105956772D01*
X143420427Y-106048487D01*
X143420431Y-106048490D01*
X143528276Y-106120551D01*
X143528280Y-106120553D01*
X143528283Y-106120555D01*
X143648123Y-106170194D01*
X143775343Y-106195500D01*
X143778386Y-106195500D01*
X143786659Y-106198927D01*
X143789861Y-106204917D01*
X143791206Y-106211677D01*
X143840844Y-106331515D01*
X143840848Y-106331523D01*
X143912909Y-106439368D01*
X143912912Y-106439372D01*
X144004627Y-106531087D01*
X144004631Y-106531090D01*
X144112476Y-106603151D01*
X144112480Y-106603153D01*
X144112483Y-106603155D01*
X144232323Y-106652794D01*
X144359543Y-106678100D01*
X144359544Y-106678100D01*
X144489256Y-106678100D01*
X144489257Y-106678100D01*
X144616477Y-106652794D01*
X144736317Y-106603155D01*
X144844169Y-106531090D01*
X144935890Y-106439369D01*
X145007955Y-106331517D01*
X145057594Y-106211677D01*
X145082900Y-106084457D01*
X145082900Y-105954743D01*
X145057594Y-105827523D01*
X145007955Y-105707683D01*
X145007953Y-105707680D01*
X145007951Y-105707676D01*
X144935890Y-105599831D01*
X144935887Y-105599827D01*
X144844172Y-105508112D01*
X144844168Y-105508109D01*
X144736323Y-105436048D01*
X144736315Y-105436044D01*
X144616477Y-105386406D01*
X144584026Y-105379951D01*
X144489257Y-105361100D01*
X144489256Y-105361100D01*
X144486214Y-105361100D01*
X144477941Y-105357673D01*
X144474739Y-105351683D01*
X144474398Y-105349973D01*
X144473394Y-105344923D01*
X144423755Y-105225083D01*
X144423753Y-105225080D01*
X144423751Y-105225076D01*
X144351690Y-105117231D01*
X144351687Y-105117227D01*
X144259972Y-105025512D01*
X144259968Y-105025509D01*
X144152123Y-104953448D01*
X144152115Y-104953444D01*
X144032277Y-104903806D01*
X144013374Y-104900046D01*
X143905057Y-104878500D01*
X143775343Y-104878500D01*
X143711733Y-104891153D01*
X143648122Y-104903806D01*
X143528284Y-104953444D01*
X143528276Y-104953448D01*
X143420431Y-105025509D01*
X143420427Y-105025512D01*
X143328712Y-105117227D01*
X143328709Y-105117231D01*
X143256648Y-105225076D01*
X143256644Y-105225084D01*
X143207006Y-105344922D01*
X143200520Y-105377523D01*
X143195545Y-105384968D01*
X143186762Y-105386715D01*
X143179317Y-105381740D01*
X143111490Y-105280231D01*
X143111487Y-105280227D01*
X143019772Y-105188512D01*
X143019768Y-105188509D01*
X142911923Y-105116448D01*
X142911915Y-105116444D01*
X142792077Y-105066806D01*
X142664857Y-105041500D01*
X142535143Y-105041500D01*
X142471533Y-105054153D01*
X142407922Y-105066806D01*
X142288084Y-105116444D01*
X142288076Y-105116448D01*
X142180231Y-105188509D01*
X142180227Y-105188512D01*
X142088512Y-105280227D01*
X142088509Y-105280231D01*
X142016448Y-105388076D01*
X142016444Y-105388084D01*
X141966806Y-105507922D01*
X141955467Y-105564927D01*
X141941500Y-105635143D01*
X134045696Y-105635143D01*
X134045696Y-104731543D01*
X149349900Y-104731543D01*
X149349900Y-104861257D01*
X149357616Y-104900046D01*
X149375206Y-104988477D01*
X149424844Y-105108315D01*
X149424848Y-105108323D01*
X149496909Y-105216168D01*
X149496912Y-105216172D01*
X149588627Y-105307887D01*
X149588631Y-105307890D01*
X149696476Y-105379951D01*
X149696480Y-105379953D01*
X149696483Y-105379955D01*
X149816323Y-105429594D01*
X149943543Y-105454900D01*
X149943544Y-105454900D01*
X150073256Y-105454900D01*
X150073257Y-105454900D01*
X150200477Y-105429594D01*
X150320317Y-105379955D01*
X150423300Y-105311142D01*
X150432082Y-105309396D01*
X150439528Y-105314371D01*
X150441500Y-105320871D01*
X150441500Y-105364857D01*
X150445848Y-105386715D01*
X150466806Y-105492077D01*
X150516444Y-105611915D01*
X150516448Y-105611923D01*
X150588509Y-105719768D01*
X150588512Y-105719772D01*
X150680227Y-105811487D01*
X150680231Y-105811490D01*
X150788076Y-105883551D01*
X150788080Y-105883553D01*
X150788083Y-105883555D01*
X150907923Y-105933194D01*
X151035143Y-105958500D01*
X151035144Y-105958500D01*
X151164856Y-105958500D01*
X151164857Y-105958500D01*
X151292077Y-105933194D01*
X151411917Y-105883555D01*
X151519769Y-105811490D01*
X151611490Y-105719769D01*
X151683555Y-105611917D01*
X151733194Y-105492077D01*
X151758500Y-105364857D01*
X151758500Y-105235143D01*
X151733194Y-105107923D01*
X151683555Y-104988083D01*
X151683553Y-104988080D01*
X151683551Y-104988076D01*
X151611490Y-104880231D01*
X151611487Y-104880227D01*
X151519772Y-104788512D01*
X151519768Y-104788509D01*
X151411923Y-104716448D01*
X151411924Y-104716448D01*
X151411917Y-104716445D01*
X151398306Y-104710807D01*
X151391977Y-104704478D01*
X151391976Y-104695523D01*
X151398306Y-104689192D01*
X151411917Y-104683555D01*
X151519769Y-104611490D01*
X151611490Y-104519769D01*
X151683555Y-104411917D01*
X151733194Y-104292077D01*
X151758500Y-104164857D01*
X151758500Y-104035143D01*
X151733194Y-103907923D01*
X151683555Y-103788083D01*
X151683553Y-103788080D01*
X151683551Y-103788076D01*
X151611490Y-103680231D01*
X151611487Y-103680227D01*
X151519772Y-103588512D01*
X151519768Y-103588509D01*
X151411923Y-103516448D01*
X151411915Y-103516444D01*
X151292077Y-103466806D01*
X151207526Y-103449987D01*
X151200081Y-103445012D01*
X151198334Y-103436229D01*
X151203309Y-103428784D01*
X151205326Y-103427705D01*
X151311917Y-103383555D01*
X151311923Y-103383551D01*
X151356008Y-103354094D01*
X153114700Y-103354094D01*
X153114700Y-103503506D01*
X153125639Y-103558500D01*
X153143849Y-103650046D01*
X153201025Y-103788082D01*
X153201029Y-103788090D01*
X153284034Y-103912315D01*
X153284037Y-103912319D01*
X153389680Y-104017962D01*
X153389684Y-104017965D01*
X153428755Y-104044072D01*
X153433730Y-104051517D01*
X153431983Y-104060300D01*
X153428755Y-104063528D01*
X153389684Y-104089634D01*
X153389680Y-104089637D01*
X153284037Y-104195280D01*
X153284034Y-104195284D01*
X153201029Y-104319509D01*
X153201025Y-104319517D01*
X153143849Y-104457553D01*
X153131473Y-104519772D01*
X153114700Y-104604094D01*
X153114700Y-104753506D01*
X153140568Y-104883551D01*
X153143849Y-104900046D01*
X153201025Y-105038082D01*
X153201029Y-105038090D01*
X153284034Y-105162315D01*
X153284037Y-105162319D01*
X153389680Y-105267962D01*
X153389684Y-105267965D01*
X153428755Y-105294072D01*
X153433730Y-105301517D01*
X153431983Y-105310300D01*
X153428755Y-105313528D01*
X153389684Y-105339634D01*
X153389680Y-105339637D01*
X153284037Y-105445280D01*
X153284034Y-105445284D01*
X153201029Y-105569509D01*
X153201025Y-105569517D01*
X153143849Y-105707553D01*
X153125071Y-105801958D01*
X153114700Y-105854094D01*
X153114700Y-106003506D01*
X153123648Y-106048490D01*
X153143849Y-106150046D01*
X153201025Y-106288082D01*
X153201029Y-106288090D01*
X153284034Y-106412315D01*
X153284037Y-106412319D01*
X153389680Y-106517962D01*
X153389684Y-106517965D01*
X153428755Y-106544072D01*
X153433730Y-106551517D01*
X153431983Y-106560300D01*
X153428755Y-106563528D01*
X153389684Y-106589634D01*
X153389680Y-106589637D01*
X153284037Y-106695280D01*
X153284034Y-106695284D01*
X153201029Y-106819509D01*
X153201025Y-106819517D01*
X153143849Y-106957553D01*
X153143849Y-106957554D01*
X153114700Y-107104094D01*
X153114700Y-107253506D01*
X153129325Y-107327031D01*
X153143849Y-107400046D01*
X153201025Y-107538082D01*
X153201029Y-107538090D01*
X153284034Y-107662315D01*
X153284037Y-107662319D01*
X153389680Y-107767962D01*
X153389684Y-107767965D01*
X153513909Y-107850970D01*
X153513913Y-107850972D01*
X153513916Y-107850974D01*
X153651954Y-107908151D01*
X153798494Y-107937300D01*
X153798495Y-107937300D01*
X153947905Y-107937300D01*
X153947906Y-107937300D01*
X154094446Y-107908151D01*
X154232484Y-107850974D01*
X154356716Y-107767965D01*
X154462365Y-107662316D01*
X154545374Y-107538084D01*
X154602551Y-107400046D01*
X154631700Y-107253506D01*
X154631700Y-107104094D01*
X154602551Y-106957554D01*
X154545374Y-106819516D01*
X154545372Y-106819513D01*
X154545370Y-106819509D01*
X154462365Y-106695284D01*
X154462362Y-106695280D01*
X154356719Y-106589637D01*
X154356715Y-106589634D01*
X154317644Y-106563528D01*
X154312669Y-106556083D01*
X154314416Y-106547300D01*
X154317644Y-106544072D01*
X154356716Y-106517965D01*
X154462365Y-106412316D01*
X154545374Y-106288084D01*
X154602551Y-106150046D01*
X154631700Y-106003506D01*
X154631700Y-105854094D01*
X154602551Y-105707554D01*
X154545374Y-105569516D01*
X154545372Y-105569513D01*
X154545370Y-105569509D01*
X154462365Y-105445284D01*
X154462362Y-105445280D01*
X154356719Y-105339637D01*
X154356715Y-105339634D01*
X154317644Y-105313528D01*
X154312669Y-105306083D01*
X154314416Y-105297300D01*
X154317644Y-105294072D01*
X154356716Y-105267965D01*
X154462365Y-105162316D01*
X154545374Y-105038084D01*
X154602551Y-104900046D01*
X154631700Y-104753506D01*
X154631700Y-104604094D01*
X154602551Y-104457554D01*
X154545374Y-104319516D01*
X154545372Y-104319513D01*
X154545370Y-104319509D01*
X154462365Y-104195284D01*
X154462362Y-104195280D01*
X154356719Y-104089637D01*
X154356715Y-104089634D01*
X154317644Y-104063528D01*
X154312669Y-104056083D01*
X154314416Y-104047300D01*
X154317644Y-104044072D01*
X154331007Y-104035143D01*
X154356716Y-104017965D01*
X154462365Y-103912316D01*
X154545374Y-103788084D01*
X154602551Y-103650046D01*
X154631700Y-103503506D01*
X154631700Y-103354094D01*
X154602551Y-103207554D01*
X154545374Y-103069516D01*
X154545372Y-103069513D01*
X154545370Y-103069509D01*
X154462365Y-102945284D01*
X154462362Y-102945280D01*
X154356719Y-102839637D01*
X154356715Y-102839634D01*
X154232490Y-102756629D01*
X154232482Y-102756625D01*
X154094446Y-102699449D01*
X153947906Y-102670300D01*
X153798494Y-102670300D01*
X153725224Y-102684874D01*
X153651953Y-102699449D01*
X153513917Y-102756625D01*
X153513909Y-102756629D01*
X153389684Y-102839634D01*
X153389680Y-102839637D01*
X153284037Y-102945280D01*
X153284034Y-102945284D01*
X153201029Y-103069509D01*
X153201025Y-103069517D01*
X153143849Y-103207553D01*
X153137600Y-103238968D01*
X153114700Y-103354094D01*
X151356008Y-103354094D01*
X151371428Y-103343791D01*
X151397676Y-103326252D01*
X151419769Y-103311490D01*
X151511490Y-103219769D01*
X151583555Y-103111917D01*
X151633194Y-102992077D01*
X151658500Y-102864857D01*
X151658500Y-102735143D01*
X151633194Y-102607923D01*
X151583555Y-102488083D01*
X151583553Y-102488080D01*
X151583551Y-102488076D01*
X151511490Y-102380231D01*
X151511487Y-102380227D01*
X151419772Y-102288512D01*
X151419768Y-102288509D01*
X151311923Y-102216448D01*
X151311915Y-102216444D01*
X151192077Y-102166806D01*
X151064857Y-102141500D01*
X150935143Y-102141500D01*
X150871533Y-102154153D01*
X150807922Y-102166806D01*
X150688084Y-102216444D01*
X150688076Y-102216448D01*
X150580234Y-102288507D01*
X150577246Y-102291494D01*
X150568972Y-102294918D01*
X150562475Y-102292946D01*
X150476723Y-102235648D01*
X150476715Y-102235644D01*
X150356877Y-102186006D01*
X150260353Y-102166806D01*
X150229657Y-102160700D01*
X150099943Y-102160700D01*
X150069247Y-102166806D01*
X149972722Y-102186006D01*
X149852884Y-102235644D01*
X149852876Y-102235648D01*
X149745031Y-102307709D01*
X149745027Y-102307712D01*
X149653312Y-102399427D01*
X149653309Y-102399431D01*
X149581248Y-102507276D01*
X149581244Y-102507284D01*
X149531606Y-102627122D01*
X149508919Y-102741177D01*
X149506300Y-102754343D01*
X149506300Y-102884057D01*
X149518478Y-102945280D01*
X149531606Y-103011277D01*
X149581244Y-103131115D01*
X149581248Y-103131123D01*
X149653309Y-103238968D01*
X149653312Y-103238972D01*
X149745027Y-103330687D01*
X149745031Y-103330690D01*
X149852876Y-103402751D01*
X149852880Y-103402753D01*
X149852883Y-103402755D01*
X149972723Y-103452394D01*
X150099943Y-103477700D01*
X150099944Y-103477700D01*
X150229656Y-103477700D01*
X150229657Y-103477700D01*
X150356877Y-103452394D01*
X150476717Y-103402755D01*
X150584569Y-103330690D01*
X150587551Y-103327707D01*
X150595822Y-103324280D01*
X150602321Y-103326251D01*
X150645133Y-103354857D01*
X150688076Y-103383551D01*
X150688080Y-103383553D01*
X150688083Y-103383555D01*
X150807923Y-103433194D01*
X150892473Y-103450012D01*
X150899918Y-103454987D01*
X150901665Y-103463770D01*
X150896690Y-103471215D01*
X150894667Y-103472296D01*
X150788084Y-103516444D01*
X150788076Y-103516448D01*
X150680231Y-103588509D01*
X150680227Y-103588512D01*
X150588512Y-103680227D01*
X150588509Y-103680231D01*
X150516448Y-103788076D01*
X150516444Y-103788084D01*
X150466806Y-103907922D01*
X150441500Y-104035143D01*
X150441500Y-104164856D01*
X150466805Y-104292075D01*
X150466950Y-104292551D01*
X150466073Y-104301463D01*
X150459151Y-104307144D01*
X150450239Y-104306267D01*
X150447481Y-104304221D01*
X150428172Y-104284912D01*
X150428168Y-104284909D01*
X150320323Y-104212848D01*
X150320315Y-104212844D01*
X150200477Y-104163206D01*
X150198024Y-104162718D01*
X150073257Y-104137900D01*
X149943543Y-104137900D01*
X149879933Y-104150553D01*
X149816322Y-104163206D01*
X149696484Y-104212844D01*
X149696476Y-104212848D01*
X149588631Y-104284909D01*
X149588627Y-104284912D01*
X149496912Y-104376627D01*
X149496909Y-104376631D01*
X149424848Y-104484476D01*
X149424844Y-104484484D01*
X149375206Y-104604322D01*
X149358325Y-104689190D01*
X149349900Y-104731543D01*
X134045696Y-104731543D01*
X134045696Y-102871570D01*
X136991500Y-102871570D01*
X136991500Y-103030830D01*
X137014761Y-103147771D01*
X137022570Y-103187031D01*
X137083516Y-103334166D01*
X137083520Y-103334174D01*
X137171996Y-103466588D01*
X137171999Y-103466592D01*
X137284607Y-103579200D01*
X137284611Y-103579203D01*
X137417025Y-103667679D01*
X137417029Y-103667681D01*
X137417032Y-103667683D01*
X137564169Y-103728630D01*
X137720370Y-103759700D01*
X137720371Y-103759700D01*
X137879629Y-103759700D01*
X137879630Y-103759700D01*
X138035831Y-103728630D01*
X138182968Y-103667683D01*
X138315389Y-103579203D01*
X138428003Y-103466589D01*
X138516483Y-103334168D01*
X138577430Y-103187031D01*
X138608500Y-103030830D01*
X138608500Y-102871570D01*
X138606332Y-102860673D01*
X138601594Y-102836850D01*
X138601254Y-102835143D01*
X143541500Y-102835143D01*
X143541500Y-102964857D01*
X143566806Y-103092077D01*
X143616444Y-103211915D01*
X143616448Y-103211923D01*
X143688509Y-103319768D01*
X143688512Y-103319772D01*
X143780227Y-103411487D01*
X143780231Y-103411490D01*
X143888076Y-103483551D01*
X143888080Y-103483553D01*
X143888083Y-103483555D01*
X144007923Y-103533194D01*
X144135143Y-103558500D01*
X144135144Y-103558500D01*
X144264856Y-103558500D01*
X144264857Y-103558500D01*
X144392077Y-103533194D01*
X144511917Y-103483555D01*
X144619769Y-103411490D01*
X144711490Y-103319769D01*
X144783555Y-103211917D01*
X144833194Y-103092077D01*
X144858500Y-102964857D01*
X144858500Y-102835143D01*
X144833194Y-102707923D01*
X144783555Y-102588083D01*
X144783553Y-102588080D01*
X144783551Y-102588076D01*
X144711490Y-102480231D01*
X144711487Y-102480227D01*
X144619772Y-102388512D01*
X144619768Y-102388509D01*
X144511923Y-102316448D01*
X144511915Y-102316444D01*
X144392077Y-102266806D01*
X144382123Y-102264826D01*
X144264857Y-102241500D01*
X144135143Y-102241500D01*
X144081507Y-102252169D01*
X144007922Y-102266806D01*
X143888084Y-102316444D01*
X143888076Y-102316448D01*
X143780231Y-102388509D01*
X143780227Y-102388512D01*
X143688512Y-102480227D01*
X143688509Y-102480231D01*
X143616448Y-102588076D01*
X143616444Y-102588084D01*
X143566806Y-102707922D01*
X143560193Y-102741169D01*
X143541500Y-102835143D01*
X138601254Y-102835143D01*
X138585182Y-102754343D01*
X138577430Y-102715369D01*
X138567339Y-102691008D01*
X138567167Y-102690566D01*
X138385544Y-102189642D01*
X138385543Y-102189639D01*
X138385541Y-102189634D01*
X138336057Y-102089055D01*
X138336056Y-102089054D01*
X138336054Y-102089049D01*
X138333328Y-102084764D01*
X138321876Y-102067540D01*
X138251621Y-101992077D01*
X138222285Y-101960566D01*
X138106230Y-101891703D01*
X138100863Y-101884534D01*
X138100500Y-101881641D01*
X138100500Y-101027143D01*
X146966300Y-101027143D01*
X146966300Y-101156857D01*
X146979304Y-101222233D01*
X146991606Y-101284077D01*
X147041244Y-101403915D01*
X147041248Y-101403923D01*
X147113309Y-101511768D01*
X147113312Y-101511772D01*
X147205027Y-101603487D01*
X147205031Y-101603490D01*
X147312876Y-101675551D01*
X147312880Y-101675553D01*
X147312883Y-101675555D01*
X147432723Y-101725194D01*
X147559943Y-101750500D01*
X147559944Y-101750500D01*
X147689656Y-101750500D01*
X147689657Y-101750500D01*
X147816877Y-101725194D01*
X147838359Y-101716296D01*
X147847312Y-101716296D01*
X147853644Y-101722627D01*
X147853644Y-101722628D01*
X147879444Y-101784915D01*
X147879448Y-101784923D01*
X147951509Y-101892768D01*
X147951512Y-101892772D01*
X148043227Y-101984487D01*
X148043231Y-101984490D01*
X148151076Y-102056551D01*
X148151080Y-102056553D01*
X148151083Y-102056555D01*
X148270923Y-102106194D01*
X148398143Y-102131500D01*
X148398144Y-102131500D01*
X148527856Y-102131500D01*
X148527857Y-102131500D01*
X148655077Y-102106194D01*
X148774917Y-102056555D01*
X148882769Y-101984490D01*
X148974490Y-101892769D01*
X149046555Y-101784917D01*
X149096194Y-101665077D01*
X149121500Y-101537857D01*
X149121500Y-101408143D01*
X149096194Y-101280923D01*
X149046555Y-101161083D01*
X149046553Y-101161080D01*
X149046551Y-101161076D01*
X148974490Y-101053231D01*
X148974487Y-101053227D01*
X148882772Y-100961512D01*
X148882768Y-100961509D01*
X148774923Y-100889448D01*
X148774915Y-100889444D01*
X148655077Y-100839806D01*
X148655072Y-100839805D01*
X148527857Y-100814500D01*
X148398143Y-100814500D01*
X148366554Y-100820783D01*
X148270925Y-100839805D01*
X148249439Y-100848703D01*
X148240485Y-100848702D01*
X148234154Y-100842370D01*
X148222610Y-100814500D01*
X148208355Y-100780083D01*
X148208353Y-100780080D01*
X148208351Y-100780076D01*
X148136290Y-100672231D01*
X148136287Y-100672227D01*
X148044572Y-100580512D01*
X148044568Y-100580509D01*
X147936723Y-100508448D01*
X147936715Y-100508444D01*
X147816877Y-100458806D01*
X147689657Y-100433500D01*
X147559943Y-100433500D01*
X147496333Y-100446153D01*
X147432722Y-100458806D01*
X147312884Y-100508444D01*
X147312876Y-100508448D01*
X147205031Y-100580509D01*
X147205027Y-100580512D01*
X147113312Y-100672227D01*
X147113309Y-100672231D01*
X147041248Y-100780076D01*
X147041244Y-100780084D01*
X146991606Y-100899922D01*
X146991606Y-100899923D01*
X146966300Y-101027143D01*
X138100500Y-101027143D01*
X138100500Y-96328143D01*
X148642700Y-96328143D01*
X148642700Y-96457857D01*
X148668006Y-96585077D01*
X148717644Y-96704915D01*
X148717648Y-96704923D01*
X148789709Y-96812768D01*
X148789712Y-96812772D01*
X148881427Y-96904487D01*
X148881431Y-96904490D01*
X148989276Y-96976551D01*
X148989280Y-96976553D01*
X148989283Y-96976555D01*
X149109123Y-97026194D01*
X149236343Y-97051500D01*
X149236344Y-97051500D01*
X149366056Y-97051500D01*
X149366057Y-97051500D01*
X149493277Y-97026194D01*
X149613117Y-96976555D01*
X149720969Y-96904490D01*
X149812690Y-96812769D01*
X149884755Y-96704917D01*
X149934394Y-96585077D01*
X149959700Y-96457857D01*
X149959700Y-96328143D01*
X149934394Y-96200923D01*
X149884755Y-96081083D01*
X149884753Y-96081080D01*
X149884751Y-96081076D01*
X149812690Y-95973231D01*
X149812687Y-95973227D01*
X149720972Y-95881512D01*
X149720968Y-95881509D01*
X149613123Y-95809448D01*
X149613115Y-95809444D01*
X149493277Y-95759806D01*
X149473067Y-95755786D01*
X149366057Y-95734500D01*
X149236343Y-95734500D01*
X149172733Y-95747153D01*
X149109122Y-95759806D01*
X148989284Y-95809444D01*
X148989276Y-95809448D01*
X148881431Y-95881509D01*
X148881427Y-95881512D01*
X148789712Y-95973227D01*
X148789709Y-95973231D01*
X148717648Y-96081076D01*
X148717644Y-96081084D01*
X148668006Y-96200922D01*
X148668006Y-96200923D01*
X148642700Y-96328143D01*
X138100500Y-96328143D01*
X138100500Y-95108943D01*
X149938100Y-95108943D01*
X149938100Y-95238656D01*
X149963406Y-95365877D01*
X150013044Y-95485715D01*
X150013048Y-95485723D01*
X150085109Y-95593568D01*
X150085112Y-95593572D01*
X150176827Y-95685287D01*
X150176831Y-95685290D01*
X150284676Y-95757351D01*
X150284680Y-95757353D01*
X150284683Y-95757355D01*
X150404523Y-95806994D01*
X150531743Y-95832300D01*
X150531744Y-95832300D01*
X150661456Y-95832300D01*
X150661457Y-95832300D01*
X150788677Y-95806994D01*
X150908517Y-95757355D01*
X151016369Y-95685290D01*
X151108090Y-95593569D01*
X151180155Y-95485717D01*
X151229794Y-95365877D01*
X151255100Y-95238657D01*
X151255100Y-95108943D01*
X151229794Y-94981723D01*
X151180155Y-94861883D01*
X151180153Y-94861880D01*
X151180151Y-94861876D01*
X151108090Y-94754031D01*
X151108087Y-94754027D01*
X151016372Y-94662312D01*
X151016368Y-94662309D01*
X150908523Y-94590248D01*
X150908515Y-94590244D01*
X150788677Y-94540606D01*
X150661457Y-94515300D01*
X150531743Y-94515300D01*
X150468133Y-94527953D01*
X150404522Y-94540606D01*
X150284684Y-94590244D01*
X150284676Y-94590248D01*
X150176831Y-94662309D01*
X150176827Y-94662312D01*
X150085112Y-94754027D01*
X150085109Y-94754031D01*
X150013048Y-94861876D01*
X150013044Y-94861884D01*
X149963406Y-94981722D01*
X149938100Y-95108943D01*
X138100500Y-95108943D01*
X138100500Y-93549071D01*
X173589369Y-93549071D01*
X173589369Y-93747729D01*
X173602627Y-93814380D01*
X173628125Y-93942569D01*
X173704147Y-94126102D01*
X173704151Y-94126110D01*
X173814515Y-94291280D01*
X173814518Y-94291284D01*
X173954984Y-94431750D01*
X173954988Y-94431753D01*
X174120158Y-94542117D01*
X174120162Y-94542119D01*
X174120165Y-94542121D01*
X174303700Y-94618144D01*
X174498540Y-94656900D01*
X174498541Y-94656900D01*
X174697197Y-94656900D01*
X174697198Y-94656900D01*
X174892038Y-94618144D01*
X175075573Y-94542121D01*
X175240750Y-94431753D01*
X175381222Y-94291281D01*
X175491590Y-94126104D01*
X175567613Y-93942569D01*
X175606369Y-93747729D01*
X175606369Y-93549071D01*
X175567613Y-93354231D01*
X175491590Y-93170696D01*
X175491588Y-93170693D01*
X175491586Y-93170689D01*
X175381222Y-93005519D01*
X175381219Y-93005515D01*
X175240753Y-92865049D01*
X175240749Y-92865046D01*
X175075579Y-92754682D01*
X175075571Y-92754678D01*
X174892038Y-92678656D01*
X174697198Y-92639900D01*
X174498540Y-92639900D01*
X174401120Y-92659278D01*
X174303699Y-92678656D01*
X174120166Y-92754678D01*
X174120158Y-92754682D01*
X173954988Y-92865046D01*
X173954984Y-92865049D01*
X173814518Y-93005515D01*
X173814515Y-93005519D01*
X173704151Y-93170689D01*
X173704147Y-93170697D01*
X173628125Y-93354230D01*
X173617928Y-93405493D01*
X173589369Y-93549071D01*
X138100500Y-93549071D01*
X138100500Y-88859269D01*
X138103927Y-88850996D01*
X139184744Y-87770179D01*
X139193017Y-87766752D01*
X142554668Y-87766752D01*
X142562941Y-87770179D01*
X142566368Y-87778452D01*
X142562941Y-87786725D01*
X142560139Y-87788794D01*
X142520634Y-87809691D01*
X142464151Y-87850818D01*
X142359444Y-87952786D01*
X142287706Y-88080125D01*
X142287705Y-88080127D01*
X142262508Y-88145041D01*
X142262429Y-88145234D01*
X142262422Y-88145262D01*
X142262422Y-88145263D01*
X142246438Y-88214319D01*
X142229464Y-88287659D01*
X142163970Y-89059561D01*
X142055911Y-90333119D01*
X141931844Y-91795334D01*
X141845411Y-92814005D01*
X141845411Y-92814009D01*
X141845411Y-92814014D01*
X141847674Y-92865047D01*
X141851260Y-92945945D01*
X141862161Y-93008240D01*
X141901456Y-93134302D01*
X141901456Y-93134303D01*
X141925893Y-93172102D01*
X141980807Y-93257043D01*
X141993751Y-93271900D01*
X142026424Y-93309402D01*
X142026558Y-93309568D01*
X142026704Y-93309725D01*
X142071488Y-93348318D01*
X142137424Y-93405140D01*
X142270538Y-93465496D01*
X142337631Y-93484999D01*
X142482356Y-93505407D01*
X158759266Y-93461319D01*
X158866009Y-93449806D01*
X158916419Y-93438947D01*
X158916432Y-93438942D01*
X158916435Y-93438942D01*
X159018426Y-93405495D01*
X159018427Y-93405494D01*
X159018427Y-93405493D01*
X159018430Y-93405493D01*
X159141918Y-93327310D01*
X159195031Y-93281914D01*
X159195034Y-93281911D01*
X159291493Y-93172103D01*
X159353107Y-93039567D01*
X159373245Y-92972662D01*
X159395024Y-92828141D01*
X159399524Y-92164071D01*
X176429369Y-92164071D01*
X176429369Y-92362728D01*
X176468125Y-92557569D01*
X176544147Y-92741102D01*
X176544151Y-92741110D01*
X176654515Y-92906280D01*
X176654518Y-92906284D01*
X176794984Y-93046750D01*
X176794988Y-93046753D01*
X176960158Y-93157117D01*
X176960162Y-93157119D01*
X176960165Y-93157121D01*
X177143700Y-93233144D01*
X177338540Y-93271900D01*
X177338541Y-93271900D01*
X177537197Y-93271900D01*
X177537198Y-93271900D01*
X177732038Y-93233144D01*
X177915573Y-93157121D01*
X178080750Y-93046753D01*
X178221222Y-92906281D01*
X178331590Y-92741104D01*
X178407613Y-92557569D01*
X178446369Y-92362729D01*
X178446369Y-92164071D01*
X178407613Y-91969231D01*
X178331590Y-91785696D01*
X178331588Y-91785693D01*
X178331586Y-91785689D01*
X178221222Y-91620519D01*
X178221219Y-91620515D01*
X178080753Y-91480049D01*
X178080749Y-91480046D01*
X177915579Y-91369682D01*
X177915571Y-91369678D01*
X177732038Y-91293656D01*
X177537198Y-91254900D01*
X177338540Y-91254900D01*
X177241120Y-91274278D01*
X177143699Y-91293656D01*
X176960166Y-91369678D01*
X176960158Y-91369682D01*
X176794988Y-91480046D01*
X176794984Y-91480049D01*
X176654518Y-91620515D01*
X176654515Y-91620519D01*
X176544151Y-91785689D01*
X176544147Y-91785697D01*
X176468125Y-91969230D01*
X176429369Y-92164071D01*
X159399524Y-92164071D01*
X159408909Y-90779071D01*
X173589369Y-90779071D01*
X173589369Y-90977728D01*
X173628125Y-91172569D01*
X173704147Y-91356102D01*
X173704151Y-91356110D01*
X173814515Y-91521280D01*
X173814518Y-91521284D01*
X173954984Y-91661750D01*
X173954988Y-91661753D01*
X174120158Y-91772117D01*
X174120162Y-91772119D01*
X174120165Y-91772121D01*
X174303700Y-91848144D01*
X174498540Y-91886900D01*
X174498541Y-91886900D01*
X174697197Y-91886900D01*
X174697198Y-91886900D01*
X174892038Y-91848144D01*
X175075573Y-91772121D01*
X175240750Y-91661753D01*
X175381222Y-91521281D01*
X175491590Y-91356104D01*
X175567613Y-91172569D01*
X175606369Y-90977729D01*
X175606369Y-90779071D01*
X175567613Y-90584231D01*
X175491590Y-90400696D01*
X175491588Y-90400693D01*
X175491586Y-90400689D01*
X175381222Y-90235519D01*
X175381219Y-90235515D01*
X175240753Y-90095049D01*
X175240749Y-90095046D01*
X175075579Y-89984682D01*
X175075571Y-89984678D01*
X174892038Y-89908656D01*
X174822399Y-89894804D01*
X174697198Y-89869900D01*
X174498540Y-89869900D01*
X174401120Y-89889278D01*
X174303699Y-89908656D01*
X174120166Y-89984678D01*
X174120158Y-89984682D01*
X173954988Y-90095046D01*
X173954984Y-90095049D01*
X173814518Y-90235515D01*
X173814515Y-90235519D01*
X173704151Y-90400689D01*
X173704147Y-90400697D01*
X173628125Y-90584230D01*
X173589369Y-90779071D01*
X159408909Y-90779071D01*
X159412501Y-90248990D01*
X159412512Y-90244757D01*
X159412509Y-90242710D01*
X159412486Y-90238467D01*
X159405292Y-90191671D01*
X159390280Y-90094012D01*
X159390277Y-90093997D01*
X159369899Y-90027014D01*
X159369691Y-90026626D01*
X159307935Y-89894808D01*
X159307932Y-89894805D01*
X159307932Y-89894804D01*
X159211163Y-89785297D01*
X159211143Y-89785277D01*
X159158270Y-89740357D01*
X159158113Y-89740212D01*
X159157899Y-89740041D01*
X159034180Y-89662226D01*
X158955600Y-89639983D01*
X158893550Y-89622418D01*
X158824299Y-89613149D01*
X158824296Y-89613149D01*
X158824289Y-89613148D01*
X158678148Y-89614571D01*
X157950245Y-89726472D01*
X157941547Y-89724342D01*
X157936903Y-89716686D01*
X157939033Y-89707988D01*
X157941964Y-89705182D01*
X158001369Y-89665490D01*
X158093090Y-89573769D01*
X158165155Y-89465917D01*
X158214794Y-89346077D01*
X158240100Y-89218857D01*
X158240100Y-89089143D01*
X158214794Y-88961923D01*
X158165155Y-88842083D01*
X158165153Y-88842080D01*
X158165151Y-88842076D01*
X158093090Y-88734231D01*
X158093087Y-88734227D01*
X158001372Y-88642512D01*
X158001368Y-88642509D01*
X157893523Y-88570448D01*
X157893515Y-88570444D01*
X157773677Y-88520806D01*
X157646457Y-88495500D01*
X157516743Y-88495500D01*
X157453133Y-88508153D01*
X157389522Y-88520806D01*
X157269684Y-88570444D01*
X157269676Y-88570448D01*
X157161831Y-88642509D01*
X157161827Y-88642512D01*
X157070112Y-88734227D01*
X157070109Y-88734231D01*
X156998048Y-88842076D01*
X156998044Y-88842084D01*
X156948406Y-88961922D01*
X156923100Y-89089143D01*
X156923100Y-89218856D01*
X156948406Y-89346077D01*
X156998044Y-89465915D01*
X156998048Y-89465923D01*
X157070109Y-89573768D01*
X157070112Y-89573772D01*
X157161827Y-89665487D01*
X157161831Y-89665490D01*
X157269676Y-89737551D01*
X157269680Y-89737553D01*
X157269683Y-89737555D01*
X157389523Y-89787194D01*
X157396662Y-89788614D01*
X157404107Y-89793589D01*
X157405854Y-89802372D01*
X157400879Y-89809817D01*
X157396157Y-89811653D01*
X154924178Y-90191671D01*
X154918893Y-90191269D01*
X153773395Y-89831381D01*
X153742226Y-89822657D01*
X153727066Y-89818925D01*
X153695508Y-89812201D01*
X153695509Y-89812201D01*
X153650562Y-89810596D01*
X153549441Y-89806986D01*
X153549438Y-89806986D01*
X153549432Y-89806986D01*
X153480123Y-89814438D01*
X153479986Y-89814451D01*
X153479944Y-89814458D01*
X153430261Y-89827141D01*
X153423790Y-89826210D01*
X153318398Y-89847175D01*
X153316115Y-89847400D01*
X153261886Y-89847400D01*
X153259603Y-89847175D01*
X153206409Y-89836594D01*
X153204215Y-89835928D01*
X153154118Y-89815177D01*
X153152095Y-89814096D01*
X153107008Y-89783969D01*
X153105235Y-89782514D01*
X153064528Y-89741807D01*
X153063250Y-89740292D01*
X153063072Y-89740041D01*
X153061611Y-89737975D01*
X153053733Y-89727440D01*
X153036831Y-89706046D01*
X152928193Y-89608273D01*
X152870139Y-89569402D01*
X152847408Y-89558500D01*
X152738354Y-89506196D01*
X148408092Y-88145730D01*
X148374394Y-88135143D01*
X159463100Y-88135143D01*
X159463100Y-88264857D01*
X159473362Y-88316445D01*
X159488406Y-88392077D01*
X159538044Y-88511915D01*
X159538048Y-88511923D01*
X159610109Y-88619768D01*
X159610112Y-88619772D01*
X159701827Y-88711487D01*
X159701831Y-88711490D01*
X159809676Y-88783551D01*
X159809680Y-88783553D01*
X159809683Y-88783555D01*
X159929523Y-88833194D01*
X160056743Y-88858500D01*
X160056744Y-88858500D01*
X160186456Y-88858500D01*
X160186457Y-88858500D01*
X160303879Y-88835143D01*
X163141500Y-88835143D01*
X163141500Y-88964856D01*
X163166806Y-89092077D01*
X163216444Y-89211915D01*
X163216448Y-89211923D01*
X163288509Y-89319768D01*
X163288512Y-89319772D01*
X163380227Y-89411487D01*
X163380231Y-89411490D01*
X163488076Y-89483551D01*
X163488080Y-89483553D01*
X163488083Y-89483555D01*
X163607923Y-89533194D01*
X163735143Y-89558500D01*
X163735144Y-89558500D01*
X163864856Y-89558500D01*
X163864857Y-89558500D01*
X163992077Y-89533194D01*
X164111917Y-89483555D01*
X164219769Y-89411490D01*
X164311490Y-89319769D01*
X164383555Y-89211917D01*
X164433194Y-89092077D01*
X164458500Y-88964857D01*
X164458500Y-88835143D01*
X164433194Y-88707923D01*
X164383555Y-88588083D01*
X164383553Y-88588080D01*
X164383551Y-88588076D01*
X164311490Y-88480231D01*
X164311487Y-88480227D01*
X164219772Y-88388512D01*
X164219768Y-88388509D01*
X164111923Y-88316448D01*
X164111915Y-88316444D01*
X163992077Y-88266806D01*
X163982274Y-88264856D01*
X163864857Y-88241500D01*
X163735143Y-88241500D01*
X163671533Y-88254153D01*
X163607922Y-88266806D01*
X163488084Y-88316444D01*
X163488076Y-88316448D01*
X163380231Y-88388509D01*
X163380227Y-88388512D01*
X163288512Y-88480227D01*
X163288509Y-88480231D01*
X163216448Y-88588076D01*
X163216444Y-88588084D01*
X163166806Y-88707922D01*
X163141500Y-88835143D01*
X160303879Y-88835143D01*
X160313677Y-88833194D01*
X160433517Y-88783555D01*
X160541369Y-88711490D01*
X160633090Y-88619769D01*
X160705155Y-88511917D01*
X160754794Y-88392077D01*
X160780100Y-88264857D01*
X160780100Y-88135143D01*
X160754794Y-88007923D01*
X160705155Y-87888083D01*
X160705153Y-87888080D01*
X160705151Y-87888076D01*
X160633090Y-87780231D01*
X160633087Y-87780227D01*
X160541372Y-87688512D01*
X160541368Y-87688509D01*
X160433523Y-87616448D01*
X160433515Y-87616444D01*
X160313677Y-87566806D01*
X160241601Y-87552469D01*
X160186457Y-87541500D01*
X160056743Y-87541500D01*
X160001604Y-87552468D01*
X159929522Y-87566806D01*
X159809684Y-87616444D01*
X159809676Y-87616448D01*
X159701831Y-87688509D01*
X159701827Y-87688512D01*
X159610112Y-87780227D01*
X159610109Y-87780231D01*
X159538048Y-87888076D01*
X159538044Y-87888084D01*
X159488406Y-88007922D01*
X159465952Y-88120805D01*
X159463100Y-88135143D01*
X148374394Y-88135143D01*
X147493969Y-87858534D01*
X147493955Y-87858530D01*
X147425065Y-87842010D01*
X147425047Y-87842007D01*
X147425043Y-87842006D01*
X147391373Y-87836355D01*
X147320855Y-87829476D01*
X147320853Y-87829475D01*
X147320844Y-87829475D01*
X147320828Y-87829474D01*
X145926334Y-87790147D01*
X145918161Y-87786489D01*
X145914969Y-87778122D01*
X145918627Y-87769949D01*
X145926664Y-87766752D01*
X146487408Y-87766752D01*
X146487408Y-87766751D01*
X146525619Y-87756512D01*
X146563831Y-87746274D01*
X146563835Y-87746272D01*
X146586673Y-87733086D01*
X146632355Y-87706712D01*
X146688304Y-87650763D01*
X146688304Y-87650762D01*
X146689947Y-87649120D01*
X146689949Y-87649117D01*
X149159394Y-85179672D01*
X152771399Y-85179672D01*
X152771399Y-85309385D01*
X152796705Y-85436606D01*
X152846343Y-85556444D01*
X152846347Y-85556452D01*
X152918408Y-85664297D01*
X152918411Y-85664301D01*
X153010126Y-85756016D01*
X153010130Y-85756019D01*
X153117975Y-85828080D01*
X153117979Y-85828082D01*
X153117982Y-85828084D01*
X153237822Y-85877723D01*
X153365042Y-85903029D01*
X153365043Y-85903029D01*
X153494755Y-85903029D01*
X153494756Y-85903029D01*
X153621976Y-85877723D01*
X153741816Y-85828084D01*
X153849668Y-85756019D01*
X153941389Y-85664298D01*
X153946306Y-85656938D01*
X153953749Y-85651964D01*
X153962532Y-85653710D01*
X153964306Y-85655166D01*
X154012227Y-85703087D01*
X154012231Y-85703090D01*
X154120076Y-85775151D01*
X154120080Y-85775153D01*
X154120083Y-85775155D01*
X154239923Y-85824794D01*
X154367143Y-85850100D01*
X154367144Y-85850100D01*
X154496856Y-85850100D01*
X154496857Y-85850100D01*
X154624077Y-85824794D01*
X154743917Y-85775155D01*
X154851769Y-85703090D01*
X154943490Y-85611369D01*
X155015555Y-85503517D01*
X155065194Y-85383677D01*
X155090500Y-85256457D01*
X155090500Y-85126743D01*
X155065194Y-84999523D01*
X155015555Y-84879683D01*
X155015553Y-84879680D01*
X155015551Y-84879676D01*
X154990324Y-84841922D01*
X154986491Y-84836186D01*
X156522901Y-84836186D01*
X156522901Y-84996413D01*
X156564367Y-85151170D01*
X156564369Y-85151174D01*
X156644477Y-85289924D01*
X156644479Y-85289927D01*
X156644480Y-85289928D01*
X156757773Y-85403221D01*
X156757774Y-85403222D01*
X156757776Y-85403223D01*
X156806177Y-85431168D01*
X156811628Y-85438272D01*
X156810459Y-85447150D01*
X156806177Y-85451432D01*
X156757776Y-85479376D01*
X156757771Y-85479380D01*
X156644481Y-85592670D01*
X156644477Y-85592675D01*
X156564369Y-85731425D01*
X156564367Y-85731429D01*
X156522901Y-85886186D01*
X156522901Y-86046413D01*
X156564367Y-86201170D01*
X156564369Y-86201174D01*
X156644477Y-86339924D01*
X156644479Y-86339927D01*
X156644480Y-86339928D01*
X156757773Y-86453221D01*
X156757774Y-86453222D01*
X156757776Y-86453223D01*
X156806177Y-86481168D01*
X156811628Y-86488272D01*
X156810459Y-86497150D01*
X156806177Y-86501432D01*
X156757776Y-86529376D01*
X156757771Y-86529380D01*
X156644481Y-86642670D01*
X156644477Y-86642675D01*
X156564369Y-86781425D01*
X156564367Y-86781429D01*
X156522901Y-86936186D01*
X156522901Y-87096413D01*
X156564367Y-87251170D01*
X156564369Y-87251174D01*
X156644477Y-87389924D01*
X156644479Y-87389927D01*
X156644480Y-87389928D01*
X156757773Y-87503221D01*
X156757774Y-87503222D01*
X156757776Y-87503223D01*
X156896526Y-87583331D01*
X156896530Y-87583333D01*
X157018582Y-87616036D01*
X157051287Y-87624799D01*
X157051289Y-87624800D01*
X157051290Y-87624800D01*
X157211513Y-87624800D01*
X157211513Y-87624799D01*
X157288892Y-87604066D01*
X157366271Y-87583333D01*
X157366275Y-87583331D01*
X157438728Y-87541500D01*
X157505029Y-87503221D01*
X157618322Y-87389928D01*
X157646269Y-87341523D01*
X157653373Y-87336072D01*
X157662251Y-87337241D01*
X157666533Y-87341523D01*
X157694477Y-87389924D01*
X157694479Y-87389927D01*
X157694480Y-87389928D01*
X157807773Y-87503221D01*
X157807774Y-87503222D01*
X157807776Y-87503223D01*
X157946526Y-87583331D01*
X157946530Y-87583333D01*
X158068582Y-87616036D01*
X158101287Y-87624799D01*
X158101289Y-87624800D01*
X158101290Y-87624800D01*
X158261513Y-87624800D01*
X158261513Y-87624799D01*
X158338892Y-87604066D01*
X158416271Y-87583333D01*
X158416275Y-87583331D01*
X158488728Y-87541500D01*
X158555029Y-87503221D01*
X158668322Y-87389928D01*
X158696269Y-87341523D01*
X158703373Y-87336072D01*
X158712251Y-87337241D01*
X158716533Y-87341523D01*
X158744477Y-87389924D01*
X158744479Y-87389927D01*
X158744480Y-87389928D01*
X158857773Y-87503221D01*
X158857774Y-87503222D01*
X158857776Y-87503223D01*
X158996526Y-87583331D01*
X158996530Y-87583333D01*
X159118582Y-87616036D01*
X159151287Y-87624799D01*
X159151289Y-87624800D01*
X159151290Y-87624800D01*
X159311513Y-87624800D01*
X159311513Y-87624799D01*
X159388892Y-87604066D01*
X159466271Y-87583333D01*
X159466275Y-87583331D01*
X159538728Y-87541500D01*
X159605029Y-87503221D01*
X159685495Y-87422755D01*
X163670239Y-87422755D01*
X163670239Y-87552468D01*
X163695545Y-87679689D01*
X163745183Y-87799527D01*
X163745187Y-87799535D01*
X163817248Y-87907380D01*
X163817251Y-87907384D01*
X163908966Y-87999099D01*
X163908970Y-87999102D01*
X164016815Y-88071163D01*
X164016819Y-88071165D01*
X164016822Y-88071167D01*
X164136662Y-88120806D01*
X164263882Y-88146112D01*
X164263883Y-88146112D01*
X164393595Y-88146112D01*
X164393596Y-88146112D01*
X164520816Y-88120806D01*
X164640656Y-88071167D01*
X164748508Y-87999102D01*
X164840229Y-87907381D01*
X164912294Y-87799529D01*
X164961933Y-87679689D01*
X164987239Y-87552469D01*
X164987239Y-87422755D01*
X164961933Y-87295535D01*
X164912294Y-87175695D01*
X164912292Y-87175692D01*
X164912290Y-87175688D01*
X164840229Y-87067843D01*
X164840226Y-87067839D01*
X164748511Y-86976124D01*
X164748507Y-86976121D01*
X164640662Y-86904060D01*
X164640654Y-86904056D01*
X164520816Y-86854418D01*
X164393596Y-86829112D01*
X164263882Y-86829112D01*
X164200272Y-86841765D01*
X164136661Y-86854418D01*
X164016823Y-86904056D01*
X164016815Y-86904060D01*
X163908970Y-86976121D01*
X163908966Y-86976124D01*
X163817251Y-87067839D01*
X163817248Y-87067843D01*
X163745187Y-87175688D01*
X163745183Y-87175696D01*
X163695545Y-87295534D01*
X163670239Y-87422755D01*
X159685495Y-87422755D01*
X159718322Y-87389928D01*
X159798433Y-87251172D01*
X159805234Y-87225793D01*
X159839900Y-87096413D01*
X159839901Y-87096412D01*
X159839901Y-86936188D01*
X159839900Y-86936186D01*
X159798434Y-86781429D01*
X159798432Y-86781425D01*
X159718324Y-86642675D01*
X159718320Y-86642670D01*
X159605030Y-86529380D01*
X159605025Y-86529376D01*
X159556624Y-86501432D01*
X159551173Y-86494328D01*
X159552342Y-86485450D01*
X159556624Y-86481168D01*
X159585581Y-86464449D01*
X159605029Y-86453221D01*
X159718322Y-86339928D01*
X159798433Y-86201172D01*
X159839901Y-86046411D01*
X159839901Y-85886189D01*
X159810149Y-85775151D01*
X159798434Y-85731429D01*
X159798432Y-85731425D01*
X159718324Y-85592675D01*
X159718320Y-85592670D01*
X159605030Y-85479380D01*
X159605025Y-85479376D01*
X159556624Y-85451432D01*
X159551173Y-85444328D01*
X159552342Y-85435450D01*
X159556624Y-85431168D01*
X159585581Y-85414449D01*
X159605029Y-85403221D01*
X159718322Y-85289928D01*
X159771729Y-85197424D01*
X159798432Y-85151174D01*
X159798434Y-85151170D01*
X159839900Y-84996413D01*
X159839901Y-84996412D01*
X159839901Y-84836188D01*
X159839900Y-84836186D01*
X159836838Y-84824760D01*
X159824628Y-84779190D01*
X159798434Y-84681429D01*
X159798432Y-84681425D01*
X159718324Y-84542675D01*
X159718320Y-84542670D01*
X159605030Y-84429380D01*
X159605025Y-84429376D01*
X159466275Y-84349268D01*
X159466271Y-84349266D01*
X159311514Y-84307800D01*
X159311512Y-84307800D01*
X159151290Y-84307800D01*
X159151287Y-84307800D01*
X158996530Y-84349266D01*
X158996526Y-84349268D01*
X158857776Y-84429376D01*
X158857771Y-84429380D01*
X158744481Y-84542670D01*
X158744477Y-84542675D01*
X158716533Y-84591076D01*
X158709429Y-84596527D01*
X158700551Y-84595358D01*
X158696269Y-84591076D01*
X158668324Y-84542675D01*
X158668320Y-84542670D01*
X158555030Y-84429380D01*
X158555025Y-84429376D01*
X158416275Y-84349268D01*
X158416271Y-84349266D01*
X158261514Y-84307800D01*
X158261512Y-84307800D01*
X158101290Y-84307800D01*
X158101287Y-84307800D01*
X157946530Y-84349266D01*
X157946526Y-84349268D01*
X157807776Y-84429376D01*
X157807771Y-84429380D01*
X157694481Y-84542670D01*
X157694477Y-84542675D01*
X157666533Y-84591076D01*
X157659429Y-84596527D01*
X157650551Y-84595358D01*
X157646269Y-84591076D01*
X157618324Y-84542675D01*
X157618320Y-84542670D01*
X157505030Y-84429380D01*
X157505025Y-84429376D01*
X157366275Y-84349268D01*
X157366271Y-84349266D01*
X157211514Y-84307800D01*
X157211512Y-84307800D01*
X157051290Y-84307800D01*
X157051287Y-84307800D01*
X156896530Y-84349266D01*
X156896526Y-84349268D01*
X156757776Y-84429376D01*
X156757771Y-84429380D01*
X156644481Y-84542670D01*
X156644477Y-84542675D01*
X156564369Y-84681425D01*
X156564367Y-84681429D01*
X156522901Y-84836186D01*
X154986491Y-84836186D01*
X154943490Y-84771831D01*
X154943487Y-84771827D01*
X154851772Y-84680112D01*
X154851768Y-84680109D01*
X154743923Y-84608048D01*
X154743915Y-84608044D01*
X154624077Y-84558406D01*
X154496857Y-84533100D01*
X154367143Y-84533100D01*
X154319032Y-84542670D01*
X154239922Y-84558406D01*
X154120084Y-84608044D01*
X154120076Y-84608048D01*
X154012231Y-84680109D01*
X154012227Y-84680112D01*
X153920512Y-84771827D01*
X153915592Y-84779190D01*
X153908145Y-84784164D01*
X153899363Y-84782417D01*
X153897591Y-84780962D01*
X153849671Y-84733041D01*
X153849667Y-84733038D01*
X153741822Y-84660977D01*
X153741814Y-84660973D01*
X153621976Y-84611335D01*
X153541655Y-84595358D01*
X153494756Y-84586029D01*
X153365042Y-84586029D01*
X153318143Y-84595358D01*
X153237821Y-84611335D01*
X153117983Y-84660973D01*
X153117975Y-84660977D01*
X153010130Y-84733038D01*
X153010126Y-84733041D01*
X152918411Y-84824756D01*
X152918408Y-84824760D01*
X152846347Y-84932605D01*
X152846343Y-84932613D01*
X152796705Y-85052451D01*
X152771399Y-85179672D01*
X149159394Y-85179672D01*
X152514323Y-81824743D01*
X155856300Y-81824743D01*
X155856300Y-81954456D01*
X155881606Y-82081677D01*
X155931244Y-82201515D01*
X155931248Y-82201523D01*
X156003309Y-82309368D01*
X156003312Y-82309372D01*
X156003679Y-82309739D01*
X156007106Y-82318012D01*
X156005134Y-82324512D01*
X155973749Y-82371481D01*
X155973745Y-82371489D01*
X155924107Y-82491327D01*
X155898801Y-82618548D01*
X155898801Y-82748261D01*
X155924107Y-82875482D01*
X155973745Y-82995320D01*
X155973749Y-82995328D01*
X156045810Y-83103173D01*
X156045813Y-83103177D01*
X156137528Y-83194892D01*
X156137532Y-83194895D01*
X156245377Y-83266956D01*
X156245381Y-83266958D01*
X156245384Y-83266960D01*
X156365224Y-83316599D01*
X156492444Y-83341905D01*
X156492445Y-83341905D01*
X156622157Y-83341905D01*
X156622158Y-83341905D01*
X156749378Y-83316599D01*
X156869218Y-83266960D01*
X156977070Y-83194895D01*
X157068791Y-83103174D01*
X157140856Y-82995322D01*
X157181628Y-82896887D01*
X157187960Y-82890556D01*
X157196914Y-82890556D01*
X157203246Y-82896888D01*
X157203912Y-82899082D01*
X157223206Y-82996077D01*
X157272844Y-83115915D01*
X157272848Y-83115923D01*
X157344909Y-83223768D01*
X157344912Y-83223772D01*
X157436627Y-83315487D01*
X157436631Y-83315490D01*
X157544476Y-83387551D01*
X157544480Y-83387553D01*
X157544483Y-83387555D01*
X157664323Y-83437194D01*
X157791543Y-83462500D01*
X157791544Y-83462500D01*
X157921256Y-83462500D01*
X157921257Y-83462500D01*
X158048477Y-83437194D01*
X158168317Y-83387555D01*
X158276169Y-83315490D01*
X158367890Y-83223769D01*
X158439955Y-83115917D01*
X158489594Y-82996077D01*
X158514900Y-82868857D01*
X158514900Y-82739143D01*
X158489594Y-82611923D01*
X158439955Y-82492083D01*
X158439953Y-82492080D01*
X158439951Y-82492076D01*
X158367890Y-82384231D01*
X158367887Y-82384227D01*
X158276172Y-82292512D01*
X158276168Y-82292509D01*
X158168323Y-82220448D01*
X158168315Y-82220444D01*
X158048477Y-82170806D01*
X157921257Y-82145500D01*
X157791543Y-82145500D01*
X157727933Y-82158153D01*
X157664322Y-82170806D01*
X157544484Y-82220444D01*
X157544476Y-82220448D01*
X157436631Y-82292509D01*
X157436627Y-82292512D01*
X157344912Y-82384227D01*
X157344909Y-82384231D01*
X157272848Y-82492076D01*
X157272844Y-82492084D01*
X157232072Y-82590516D01*
X157225740Y-82596848D01*
X157216786Y-82596848D01*
X157210454Y-82590516D01*
X157209789Y-82588327D01*
X157190495Y-82491328D01*
X157140856Y-82371488D01*
X157140854Y-82371485D01*
X157140852Y-82371481D01*
X157068791Y-82263636D01*
X157068425Y-82263270D01*
X157064993Y-82255000D01*
X157066964Y-82248494D01*
X157098355Y-82201517D01*
X157147994Y-82081677D01*
X157173300Y-81954457D01*
X157173300Y-81824743D01*
X157147994Y-81697523D01*
X157098355Y-81577683D01*
X157098353Y-81577680D01*
X157098351Y-81577676D01*
X157026290Y-81469831D01*
X157026287Y-81469827D01*
X156934572Y-81378112D01*
X156934568Y-81378109D01*
X156826723Y-81306048D01*
X156826715Y-81306044D01*
X156706877Y-81256406D01*
X156579657Y-81231100D01*
X156449943Y-81231100D01*
X156386333Y-81243753D01*
X156322722Y-81256406D01*
X156202884Y-81306044D01*
X156202876Y-81306048D01*
X156095031Y-81378109D01*
X156095027Y-81378112D01*
X156003312Y-81469827D01*
X156003309Y-81469831D01*
X155931248Y-81577676D01*
X155931244Y-81577684D01*
X155881606Y-81697522D01*
X155856300Y-81824743D01*
X152514323Y-81824743D01*
X153822722Y-80516344D01*
X153830995Y-80512917D01*
X160691025Y-80512917D01*
X160691025Y-80512916D01*
X160729236Y-80502677D01*
X160767448Y-80492439D01*
X160767452Y-80492437D01*
X160790290Y-80479251D01*
X160835972Y-80452877D01*
X160891921Y-80396928D01*
X162072866Y-79215981D01*
X162081138Y-79212555D01*
X162084109Y-79212939D01*
X162196799Y-79242589D01*
X162196803Y-79242589D01*
X162196811Y-79242591D01*
X162200974Y-79243069D01*
X162205696Y-79243612D01*
X162315494Y-79244420D01*
X162457372Y-79209315D01*
X162583614Y-79135660D01*
X162590627Y-79130093D01*
X162631783Y-79093668D01*
X162720231Y-78977311D01*
X163405584Y-77743851D01*
X163410779Y-77733732D01*
X163411710Y-77732217D01*
X163417094Y-77724809D01*
X163514172Y-77534283D01*
X163580249Y-77330916D01*
X163613700Y-77119716D01*
X163613700Y-76913471D01*
X166326700Y-76913471D01*
X166326700Y-77112128D01*
X166365456Y-77306969D01*
X166441478Y-77490502D01*
X166441482Y-77490510D01*
X166551846Y-77655680D01*
X166551849Y-77655684D01*
X166692315Y-77796150D01*
X166692319Y-77796153D01*
X166857489Y-77906517D01*
X166857493Y-77906519D01*
X166857496Y-77906521D01*
X167041031Y-77982544D01*
X167235871Y-78021300D01*
X167235872Y-78021300D01*
X167434528Y-78021300D01*
X167434529Y-78021300D01*
X167629369Y-77982544D01*
X167812904Y-77906521D01*
X167978081Y-77796153D01*
X168118553Y-77655681D01*
X168228921Y-77490504D01*
X168304944Y-77306969D01*
X168343700Y-77112129D01*
X168343700Y-76913471D01*
X168866700Y-76913471D01*
X168866700Y-77112128D01*
X168905456Y-77306969D01*
X168981478Y-77490502D01*
X168981482Y-77490510D01*
X169091846Y-77655680D01*
X169091849Y-77655684D01*
X169232315Y-77796150D01*
X169232319Y-77796153D01*
X169397489Y-77906517D01*
X169397493Y-77906519D01*
X169397496Y-77906521D01*
X169581031Y-77982544D01*
X169775871Y-78021300D01*
X169775872Y-78021300D01*
X169974528Y-78021300D01*
X169974529Y-78021300D01*
X170169369Y-77982544D01*
X170352904Y-77906521D01*
X170518081Y-77796153D01*
X170658553Y-77655681D01*
X170768921Y-77490504D01*
X170844944Y-77306969D01*
X170883700Y-77112129D01*
X170883700Y-76913471D01*
X171406700Y-76913471D01*
X171406700Y-77112128D01*
X171445456Y-77306969D01*
X171521478Y-77490502D01*
X171521482Y-77490510D01*
X171631846Y-77655680D01*
X171631849Y-77655684D01*
X171772315Y-77796150D01*
X171772319Y-77796153D01*
X171937489Y-77906517D01*
X171937493Y-77906519D01*
X171937496Y-77906521D01*
X172121031Y-77982544D01*
X172315871Y-78021300D01*
X172315872Y-78021300D01*
X172514528Y-78021300D01*
X172514529Y-78021300D01*
X172709369Y-77982544D01*
X172892904Y-77906521D01*
X173058081Y-77796153D01*
X173198553Y-77655681D01*
X173308921Y-77490504D01*
X173384944Y-77306969D01*
X173423700Y-77112129D01*
X173423700Y-76913471D01*
X173384944Y-76718631D01*
X173308921Y-76535096D01*
X173308919Y-76535093D01*
X173308917Y-76535089D01*
X173198553Y-76369919D01*
X173198550Y-76369915D01*
X173058084Y-76229449D01*
X173058080Y-76229446D01*
X172892910Y-76119082D01*
X172892902Y-76119078D01*
X172709369Y-76043056D01*
X172514529Y-76004300D01*
X172315871Y-76004300D01*
X172246946Y-76018010D01*
X172121030Y-76043056D01*
X171937497Y-76119078D01*
X171937489Y-76119082D01*
X171772319Y-76229446D01*
X171772315Y-76229449D01*
X171631849Y-76369915D01*
X171631846Y-76369919D01*
X171521482Y-76535089D01*
X171521478Y-76535097D01*
X171445456Y-76718630D01*
X171406700Y-76913471D01*
X170883700Y-76913471D01*
X170844944Y-76718631D01*
X170768921Y-76535096D01*
X170768919Y-76535093D01*
X170768917Y-76535089D01*
X170658553Y-76369919D01*
X170658550Y-76369915D01*
X170518084Y-76229449D01*
X170518080Y-76229446D01*
X170352910Y-76119082D01*
X170352902Y-76119078D01*
X170169369Y-76043056D01*
X169974529Y-76004300D01*
X169775871Y-76004300D01*
X169706946Y-76018010D01*
X169581030Y-76043056D01*
X169397497Y-76119078D01*
X169397489Y-76119082D01*
X169232319Y-76229446D01*
X169232315Y-76229449D01*
X169091849Y-76369915D01*
X169091846Y-76369919D01*
X168981482Y-76535089D01*
X168981478Y-76535097D01*
X168905456Y-76718630D01*
X168866700Y-76913471D01*
X168343700Y-76913471D01*
X168304944Y-76718631D01*
X168228921Y-76535096D01*
X168228919Y-76535093D01*
X168228917Y-76535089D01*
X168118553Y-76369919D01*
X168118550Y-76369915D01*
X167978084Y-76229449D01*
X167978080Y-76229446D01*
X167812910Y-76119082D01*
X167812902Y-76119078D01*
X167629369Y-76043056D01*
X167434529Y-76004300D01*
X167235871Y-76004300D01*
X167166946Y-76018010D01*
X167041030Y-76043056D01*
X166857497Y-76119078D01*
X166857489Y-76119082D01*
X166692319Y-76229446D01*
X166692315Y-76229449D01*
X166551849Y-76369915D01*
X166551846Y-76369919D01*
X166441482Y-76535089D01*
X166441478Y-76535097D01*
X166365456Y-76718630D01*
X166326700Y-76913471D01*
X163613700Y-76913471D01*
X163613700Y-76905884D01*
X163613682Y-76905773D01*
X163580782Y-76698049D01*
X163580249Y-76694684D01*
X163528397Y-76535097D01*
X163514175Y-76491325D01*
X163514173Y-76491321D01*
X163514172Y-76491317D01*
X163417094Y-76300791D01*
X163417092Y-76300789D01*
X163417090Y-76300784D01*
X163291413Y-76127805D01*
X163291410Y-76127801D01*
X163291406Y-76127796D01*
X163140204Y-75976594D01*
X163140198Y-75976590D01*
X163140194Y-75976586D01*
X162967215Y-75850909D01*
X162959124Y-75846786D01*
X162831952Y-75781989D01*
X175599500Y-75781989D01*
X175599500Y-76018010D01*
X175630306Y-76252012D01*
X175691393Y-76479991D01*
X175691397Y-76480002D01*
X175780318Y-76694675D01*
X175781716Y-76698049D01*
X175899727Y-76902450D01*
X176043408Y-77089699D01*
X176210301Y-77256592D01*
X176397550Y-77400273D01*
X176601951Y-77518284D01*
X176820007Y-77608606D01*
X177047986Y-77669693D01*
X177281989Y-77700500D01*
X177518011Y-77700500D01*
X177752014Y-77669693D01*
X177979993Y-77608606D01*
X178198049Y-77518284D01*
X178402450Y-77400273D01*
X178589699Y-77256592D01*
X178756592Y-77089699D01*
X178900273Y-76902450D01*
X179018284Y-76698049D01*
X179108606Y-76479993D01*
X179169693Y-76252014D01*
X179200500Y-76018011D01*
X179200500Y-75781989D01*
X179169693Y-75547986D01*
X179108606Y-75320007D01*
X179082155Y-75256150D01*
X179023971Y-75115681D01*
X179018284Y-75101951D01*
X178900273Y-74897550D01*
X178756592Y-74710301D01*
X178589699Y-74543408D01*
X178402450Y-74399727D01*
X178198049Y-74281716D01*
X178198041Y-74281712D01*
X178198040Y-74281712D01*
X177980002Y-74191397D01*
X177979991Y-74191393D01*
X177752012Y-74130306D01*
X177518011Y-74099500D01*
X177281989Y-74099500D01*
X177047987Y-74130306D01*
X176820008Y-74191393D01*
X176819997Y-74191397D01*
X176601959Y-74281712D01*
X176601954Y-74281714D01*
X176601951Y-74281716D01*
X176397550Y-74399727D01*
X176397549Y-74399727D01*
X176210302Y-74543407D01*
X176210295Y-74543413D01*
X176043413Y-74710295D01*
X176043407Y-74710302D01*
X175899727Y-74897549D01*
X175899727Y-74897550D01*
X175781716Y-75101951D01*
X175781714Y-75101954D01*
X175781712Y-75101959D01*
X175691397Y-75319997D01*
X175691393Y-75320008D01*
X175630306Y-75547987D01*
X175599500Y-75781989D01*
X162831952Y-75781989D01*
X162776683Y-75753828D01*
X162776680Y-75753827D01*
X162776678Y-75753826D01*
X162776674Y-75753824D01*
X162573324Y-75687753D01*
X162573308Y-75687749D01*
X162362117Y-75654300D01*
X162362116Y-75654300D01*
X162148284Y-75654300D01*
X162148283Y-75654300D01*
X161937091Y-75687749D01*
X161937075Y-75687753D01*
X161733725Y-75753824D01*
X161733721Y-75753826D01*
X161543184Y-75850909D01*
X161370205Y-75976586D01*
X161370189Y-75976600D01*
X161219000Y-76127789D01*
X161218986Y-76127805D01*
X161093309Y-76300784D01*
X160996226Y-76491321D01*
X160996224Y-76491325D01*
X160930153Y-76694675D01*
X160930149Y-76694691D01*
X160896700Y-76905883D01*
X160896700Y-77119716D01*
X160930149Y-77330908D01*
X160930153Y-77330924D01*
X160996224Y-77534274D01*
X160996226Y-77534278D01*
X160996228Y-77534283D01*
X161093306Y-77724809D01*
X161096317Y-77728954D01*
X161097251Y-77730471D01*
X161640872Y-78786535D01*
X161641611Y-78795459D01*
X161638742Y-78800163D01*
X160530417Y-79908490D01*
X160522144Y-79911917D01*
X153662113Y-79911917D01*
X153585690Y-79932394D01*
X153585686Y-79932396D01*
X153517170Y-79971954D01*
X153517165Y-79971958D01*
X146326800Y-87162325D01*
X146318527Y-87165752D01*
X139024135Y-87165752D01*
X138947713Y-87186228D01*
X138947709Y-87186230D01*
X138879192Y-87225789D01*
X138879187Y-87225793D01*
X137559541Y-88545439D01*
X137559537Y-88545444D01*
X137519979Y-88613960D01*
X137519977Y-88613964D01*
X137499500Y-88690387D01*
X137499500Y-101884645D01*
X137496073Y-101892918D01*
X137492377Y-101895412D01*
X137437154Y-101918887D01*
X137437143Y-101918893D01*
X137324197Y-102011648D01*
X137318153Y-102018261D01*
X137283327Y-102060720D01*
X137283324Y-102060724D01*
X137214454Y-102189645D01*
X137032836Y-102690549D01*
X137032650Y-102691031D01*
X137022570Y-102715369D01*
X137022570Y-102715370D01*
X137022569Y-102715373D01*
X137019927Y-102728650D01*
X137019592Y-102729941D01*
X137015988Y-102741169D01*
X137015986Y-102741177D01*
X137015521Y-102742834D01*
X137012968Y-102756626D01*
X136998613Y-102834185D01*
X136998568Y-102834865D01*
X136998545Y-102834863D01*
X136998395Y-102836899D01*
X136993667Y-102860673D01*
X136991500Y-102871570D01*
X134045696Y-102871570D01*
X134045696Y-84332031D01*
X134025218Y-84255608D01*
X134025216Y-84255604D01*
X133985658Y-84187088D01*
X133985654Y-84187083D01*
X133929708Y-84131137D01*
X133929703Y-84131133D01*
X133861187Y-84091575D01*
X133861183Y-84091573D01*
X133784761Y-84071096D01*
X133784758Y-84071096D01*
X133705634Y-84071096D01*
X133705631Y-84071096D01*
X133629208Y-84091573D01*
X133629204Y-84091575D01*
X133560688Y-84131133D01*
X133560683Y-84131137D01*
X133504737Y-84187083D01*
X133504733Y-84187088D01*
X133465175Y-84255604D01*
X133465173Y-84255608D01*
X133444696Y-84332031D01*
X133444696Y-107645679D01*
X133465173Y-107722102D01*
X133465175Y-107722105D01*
X133471204Y-107732547D01*
X133471204Y-107732548D01*
X133504733Y-107790622D01*
X133504737Y-107790627D01*
X133522005Y-107807895D01*
X133523864Y-107810318D01*
X133545931Y-107848539D01*
X133545931Y-107848540D01*
X133562647Y-107877493D01*
X133562651Y-107877498D01*
X134012149Y-108326996D01*
X134015576Y-108335269D01*
X134014967Y-108338993D01*
X133993413Y-108403187D01*
X133993411Y-108403196D01*
X133983980Y-108511487D01*
X133980731Y-108548797D01*
X134002511Y-108656949D01*
X134009587Y-108692082D01*
X134012580Y-108700504D01*
X134033754Y-108751275D01*
X134076660Y-108815151D01*
X134078429Y-108823930D01*
X134075958Y-108829139D01*
X134041459Y-108870779D01*
X134040452Y-108871998D01*
X134040447Y-108872005D01*
X134002133Y-108918542D01*
X133937835Y-108996638D01*
X133926050Y-109011509D01*
X133925532Y-109012188D01*
X133914816Y-109026762D01*
X133815651Y-109166747D01*
X133796586Y-109195681D01*
X133795784Y-109196993D01*
X133778795Y-109226990D01*
X133694569Y-109388075D01*
X133687214Y-109403350D01*
X133679868Y-109418605D01*
X133679861Y-109418620D01*
X133679859Y-109418625D01*
X133679256Y-109419987D01*
X133666519Y-109451637D01*
X133664355Y-109457576D01*
X133658302Y-109464175D01*
X133649356Y-109464561D01*
X133642938Y-109458881D01*
X133639247Y-109451637D01*
X133546694Y-109269991D01*
X133546692Y-109269989D01*
X133546690Y-109269984D01*
X133421013Y-109097005D01*
X133421010Y-109097001D01*
X133421006Y-109096996D01*
X133269804Y-108945794D01*
X133269798Y-108945790D01*
X133269794Y-108945786D01*
X133096815Y-108820109D01*
X133078807Y-108810933D01*
X132906283Y-108723028D01*
X132906280Y-108723027D01*
X132906278Y-108723026D01*
X132906274Y-108723024D01*
X132702924Y-108656953D01*
X132702908Y-108656949D01*
X132491717Y-108623500D01*
X132491716Y-108623500D01*
X132277884Y-108623500D01*
X132277883Y-108623500D01*
X132066691Y-108656949D01*
X132066675Y-108656953D01*
X131863325Y-108723024D01*
X131863321Y-108723026D01*
X131672784Y-108820109D01*
X131499805Y-108945786D01*
X131499789Y-108945800D01*
X131348600Y-109096989D01*
X131348586Y-109097005D01*
X131222909Y-109269984D01*
X131125826Y-109460521D01*
X131125651Y-109460945D01*
X131125395Y-109460839D01*
X131120104Y-109467025D01*
X131111176Y-109467721D01*
X131104371Y-109461900D01*
X131103971Y-109460935D01*
X131103949Y-109460945D01*
X131103773Y-109460521D01*
X131103772Y-109460517D01*
X131006694Y-109269991D01*
X131006692Y-109269989D01*
X131006690Y-109269984D01*
X130881013Y-109097005D01*
X130881010Y-109097001D01*
X130881006Y-109096996D01*
X130729804Y-108945794D01*
X130729798Y-108945790D01*
X130729794Y-108945786D01*
X130705323Y-108928007D01*
X130700644Y-108920372D01*
X130700500Y-108918542D01*
X130700500Y-76913471D01*
X130766700Y-76913471D01*
X130766700Y-77112128D01*
X130805456Y-77306969D01*
X130881478Y-77490502D01*
X130881482Y-77490510D01*
X130991846Y-77655680D01*
X130991849Y-77655684D01*
X131132315Y-77796150D01*
X131132319Y-77796153D01*
X131297489Y-77906517D01*
X131297493Y-77906519D01*
X131297496Y-77906521D01*
X131481031Y-77982544D01*
X131675871Y-78021300D01*
X131675872Y-78021300D01*
X131874528Y-78021300D01*
X131874529Y-78021300D01*
X132069369Y-77982544D01*
X132252904Y-77906521D01*
X132418081Y-77796153D01*
X132558553Y-77655681D01*
X132668921Y-77490504D01*
X132744944Y-77306969D01*
X132783700Y-77112129D01*
X132783700Y-76913471D01*
X133306700Y-76913471D01*
X133306700Y-77112128D01*
X133345456Y-77306969D01*
X133421478Y-77490502D01*
X133421482Y-77490510D01*
X133531846Y-77655680D01*
X133531849Y-77655684D01*
X133672315Y-77796150D01*
X133672319Y-77796153D01*
X133837489Y-77906517D01*
X133837493Y-77906519D01*
X133837496Y-77906521D01*
X134021031Y-77982544D01*
X134215871Y-78021300D01*
X134215872Y-78021300D01*
X134414528Y-78021300D01*
X134414529Y-78021300D01*
X134609369Y-77982544D01*
X134792904Y-77906521D01*
X134958081Y-77796153D01*
X135098553Y-77655681D01*
X135208921Y-77490504D01*
X135284944Y-77306969D01*
X135323700Y-77112129D01*
X135323700Y-76913471D01*
X135846700Y-76913471D01*
X135846700Y-77112128D01*
X135885456Y-77306969D01*
X135961478Y-77490502D01*
X135961482Y-77490510D01*
X136071846Y-77655680D01*
X136071849Y-77655684D01*
X136212315Y-77796150D01*
X136212319Y-77796153D01*
X136377489Y-77906517D01*
X136377493Y-77906519D01*
X136377496Y-77906521D01*
X136561031Y-77982544D01*
X136755871Y-78021300D01*
X136755872Y-78021300D01*
X136954528Y-78021300D01*
X136954529Y-78021300D01*
X137149369Y-77982544D01*
X137332904Y-77906521D01*
X137498081Y-77796153D01*
X137638553Y-77655681D01*
X137748921Y-77490504D01*
X137824944Y-77306969D01*
X137863700Y-77112129D01*
X137863700Y-76913471D01*
X140926700Y-76913471D01*
X140926700Y-77112128D01*
X140965456Y-77306969D01*
X141041478Y-77490502D01*
X141041482Y-77490510D01*
X141151846Y-77655680D01*
X141151849Y-77655684D01*
X141292315Y-77796150D01*
X141292319Y-77796153D01*
X141457489Y-77906517D01*
X141457493Y-77906519D01*
X141457496Y-77906521D01*
X141641031Y-77982544D01*
X141835871Y-78021300D01*
X141835872Y-78021300D01*
X142034528Y-78021300D01*
X142034529Y-78021300D01*
X142229369Y-77982544D01*
X142412904Y-77906521D01*
X142578081Y-77796153D01*
X142718553Y-77655681D01*
X142828921Y-77490504D01*
X142904944Y-77306969D01*
X142943700Y-77112129D01*
X142943700Y-76913471D01*
X143466700Y-76913471D01*
X143466700Y-77112128D01*
X143505456Y-77306969D01*
X143581478Y-77490502D01*
X143581482Y-77490510D01*
X143691846Y-77655680D01*
X143691849Y-77655684D01*
X143832315Y-77796150D01*
X143832319Y-77796153D01*
X143997489Y-77906517D01*
X143997493Y-77906519D01*
X143997496Y-77906521D01*
X144181031Y-77982544D01*
X144375871Y-78021300D01*
X144375872Y-78021300D01*
X144574528Y-78021300D01*
X144574529Y-78021300D01*
X144769369Y-77982544D01*
X144952904Y-77906521D01*
X145118081Y-77796153D01*
X145258553Y-77655681D01*
X145368921Y-77490504D01*
X145444944Y-77306969D01*
X145483700Y-77112129D01*
X145483700Y-76913471D01*
X148546700Y-76913471D01*
X148546700Y-77112128D01*
X148585456Y-77306969D01*
X148661478Y-77490502D01*
X148661482Y-77490510D01*
X148771846Y-77655680D01*
X148771849Y-77655684D01*
X148912315Y-77796150D01*
X148912319Y-77796153D01*
X149077489Y-77906517D01*
X149077493Y-77906519D01*
X149077496Y-77906521D01*
X149261031Y-77982544D01*
X149455871Y-78021300D01*
X149455872Y-78021300D01*
X149654528Y-78021300D01*
X149654529Y-78021300D01*
X149849369Y-77982544D01*
X150032904Y-77906521D01*
X150198081Y-77796153D01*
X150338553Y-77655681D01*
X150448921Y-77490504D01*
X150524944Y-77306969D01*
X150563700Y-77112129D01*
X150563700Y-76913471D01*
X151086700Y-76913471D01*
X151086700Y-77112128D01*
X151125456Y-77306969D01*
X151201478Y-77490502D01*
X151201482Y-77490510D01*
X151311846Y-77655680D01*
X151311849Y-77655684D01*
X151452315Y-77796150D01*
X151452319Y-77796153D01*
X151617489Y-77906517D01*
X151617493Y-77906519D01*
X151617496Y-77906521D01*
X151801031Y-77982544D01*
X151995871Y-78021300D01*
X151995872Y-78021300D01*
X152194528Y-78021300D01*
X152194529Y-78021300D01*
X152389369Y-77982544D01*
X152572904Y-77906521D01*
X152738081Y-77796153D01*
X152878553Y-77655681D01*
X152988921Y-77490504D01*
X153064944Y-77306969D01*
X153103700Y-77112129D01*
X153103700Y-76913471D01*
X153626700Y-76913471D01*
X153626700Y-77112128D01*
X153665456Y-77306969D01*
X153741478Y-77490502D01*
X153741482Y-77490510D01*
X153851846Y-77655680D01*
X153851849Y-77655684D01*
X153992315Y-77796150D01*
X153992319Y-77796153D01*
X154157489Y-77906517D01*
X154157493Y-77906519D01*
X154157496Y-77906521D01*
X154341031Y-77982544D01*
X154535871Y-78021300D01*
X154535872Y-78021300D01*
X154734528Y-78021300D01*
X154734529Y-78021300D01*
X154929369Y-77982544D01*
X155112904Y-77906521D01*
X155278081Y-77796153D01*
X155418553Y-77655681D01*
X155528921Y-77490504D01*
X155604944Y-77306969D01*
X155643700Y-77112129D01*
X155643700Y-76913471D01*
X156166700Y-76913471D01*
X156166700Y-77112128D01*
X156205456Y-77306969D01*
X156281478Y-77490502D01*
X156281482Y-77490510D01*
X156391846Y-77655680D01*
X156391849Y-77655684D01*
X156532315Y-77796150D01*
X156532319Y-77796153D01*
X156697489Y-77906517D01*
X156697493Y-77906519D01*
X156697496Y-77906521D01*
X156881031Y-77982544D01*
X157075871Y-78021300D01*
X157075872Y-78021300D01*
X157274528Y-78021300D01*
X157274529Y-78021300D01*
X157469369Y-77982544D01*
X157652904Y-77906521D01*
X157818081Y-77796153D01*
X157958553Y-77655681D01*
X158068921Y-77490504D01*
X158144944Y-77306969D01*
X158183700Y-77112129D01*
X158183700Y-76913471D01*
X158144944Y-76718631D01*
X158068921Y-76535096D01*
X158068919Y-76535093D01*
X158068917Y-76535089D01*
X157958553Y-76369919D01*
X157958550Y-76369915D01*
X157818084Y-76229449D01*
X157818080Y-76229446D01*
X157652910Y-76119082D01*
X157652902Y-76119078D01*
X157469369Y-76043056D01*
X157274529Y-76004300D01*
X157075871Y-76004300D01*
X157006946Y-76018010D01*
X156881030Y-76043056D01*
X156697497Y-76119078D01*
X156697489Y-76119082D01*
X156532319Y-76229446D01*
X156532315Y-76229449D01*
X156391849Y-76369915D01*
X156391846Y-76369919D01*
X156281482Y-76535089D01*
X156281478Y-76535097D01*
X156205456Y-76718630D01*
X156166700Y-76913471D01*
X155643700Y-76913471D01*
X155604944Y-76718631D01*
X155528921Y-76535096D01*
X155528919Y-76535093D01*
X155528917Y-76535089D01*
X155418553Y-76369919D01*
X155418550Y-76369915D01*
X155278084Y-76229449D01*
X155278080Y-76229446D01*
X155112910Y-76119082D01*
X155112902Y-76119078D01*
X154929369Y-76043056D01*
X154734529Y-76004300D01*
X154535871Y-76004300D01*
X154466946Y-76018010D01*
X154341030Y-76043056D01*
X154157497Y-76119078D01*
X154157489Y-76119082D01*
X153992319Y-76229446D01*
X153992315Y-76229449D01*
X153851849Y-76369915D01*
X153851846Y-76369919D01*
X153741482Y-76535089D01*
X153741478Y-76535097D01*
X153665456Y-76718630D01*
X153626700Y-76913471D01*
X153103700Y-76913471D01*
X153064944Y-76718631D01*
X152988921Y-76535096D01*
X152988919Y-76535093D01*
X152988917Y-76535089D01*
X152878553Y-76369919D01*
X152878550Y-76369915D01*
X152738084Y-76229449D01*
X152738080Y-76229446D01*
X152572910Y-76119082D01*
X152572902Y-76119078D01*
X152389369Y-76043056D01*
X152194529Y-76004300D01*
X151995871Y-76004300D01*
X151926946Y-76018010D01*
X151801030Y-76043056D01*
X151617497Y-76119078D01*
X151617489Y-76119082D01*
X151452319Y-76229446D01*
X151452315Y-76229449D01*
X151311849Y-76369915D01*
X151311846Y-76369919D01*
X151201482Y-76535089D01*
X151201478Y-76535097D01*
X151125456Y-76718630D01*
X151086700Y-76913471D01*
X150563700Y-76913471D01*
X150524944Y-76718631D01*
X150448921Y-76535096D01*
X150448919Y-76535093D01*
X150448917Y-76535089D01*
X150338553Y-76369919D01*
X150338550Y-76369915D01*
X150198084Y-76229449D01*
X150198080Y-76229446D01*
X150032910Y-76119082D01*
X150032902Y-76119078D01*
X149849369Y-76043056D01*
X149654529Y-76004300D01*
X149455871Y-76004300D01*
X149386946Y-76018010D01*
X149261030Y-76043056D01*
X149077497Y-76119078D01*
X149077489Y-76119082D01*
X148912319Y-76229446D01*
X148912315Y-76229449D01*
X148771849Y-76369915D01*
X148771846Y-76369919D01*
X148661482Y-76535089D01*
X148661478Y-76535097D01*
X148585456Y-76718630D01*
X148546700Y-76913471D01*
X145483700Y-76913471D01*
X145444944Y-76718631D01*
X145368921Y-76535096D01*
X145368919Y-76535093D01*
X145368917Y-76535089D01*
X145258553Y-76369919D01*
X145258550Y-76369915D01*
X145118084Y-76229449D01*
X145118080Y-76229446D01*
X144952910Y-76119082D01*
X144952902Y-76119078D01*
X144769369Y-76043056D01*
X144574529Y-76004300D01*
X144375871Y-76004300D01*
X144306946Y-76018010D01*
X144181030Y-76043056D01*
X143997497Y-76119078D01*
X143997489Y-76119082D01*
X143832319Y-76229446D01*
X143832315Y-76229449D01*
X143691849Y-76369915D01*
X143691846Y-76369919D01*
X143581482Y-76535089D01*
X143581478Y-76535097D01*
X143505456Y-76718630D01*
X143466700Y-76913471D01*
X142943700Y-76913471D01*
X142904944Y-76718631D01*
X142828921Y-76535096D01*
X142828919Y-76535093D01*
X142828917Y-76535089D01*
X142718553Y-76369919D01*
X142718550Y-76369915D01*
X142578084Y-76229449D01*
X142578080Y-76229446D01*
X142412910Y-76119082D01*
X142412902Y-76119078D01*
X142229369Y-76043056D01*
X142034529Y-76004300D01*
X141835871Y-76004300D01*
X141766946Y-76018010D01*
X141641030Y-76043056D01*
X141457497Y-76119078D01*
X141457489Y-76119082D01*
X141292319Y-76229446D01*
X141292315Y-76229449D01*
X141151849Y-76369915D01*
X141151846Y-76369919D01*
X141041482Y-76535089D01*
X141041478Y-76535097D01*
X140965456Y-76718630D01*
X140926700Y-76913471D01*
X137863700Y-76913471D01*
X137824944Y-76718631D01*
X137748921Y-76535096D01*
X137748919Y-76535093D01*
X137748917Y-76535089D01*
X137638553Y-76369919D01*
X137638550Y-76369915D01*
X137498084Y-76229449D01*
X137498080Y-76229446D01*
X137332910Y-76119082D01*
X137332902Y-76119078D01*
X137149369Y-76043056D01*
X136954529Y-76004300D01*
X136755871Y-76004300D01*
X136686946Y-76018010D01*
X136561030Y-76043056D01*
X136377497Y-76119078D01*
X136377489Y-76119082D01*
X136212319Y-76229446D01*
X136212315Y-76229449D01*
X136071849Y-76369915D01*
X136071846Y-76369919D01*
X135961482Y-76535089D01*
X135961478Y-76535097D01*
X135885456Y-76718630D01*
X135846700Y-76913471D01*
X135323700Y-76913471D01*
X135284944Y-76718631D01*
X135208921Y-76535096D01*
X135208919Y-76535093D01*
X135208917Y-76535089D01*
X135098553Y-76369919D01*
X135098550Y-76369915D01*
X134958084Y-76229449D01*
X134958080Y-76229446D01*
X134792910Y-76119082D01*
X134792902Y-76119078D01*
X134609369Y-76043056D01*
X134414529Y-76004300D01*
X134215871Y-76004300D01*
X134146946Y-76018010D01*
X134021030Y-76043056D01*
X133837497Y-76119078D01*
X133837489Y-76119082D01*
X133672319Y-76229446D01*
X133672315Y-76229449D01*
X133531849Y-76369915D01*
X133531846Y-76369919D01*
X133421482Y-76535089D01*
X133421478Y-76535097D01*
X133345456Y-76718630D01*
X133306700Y-76913471D01*
X132783700Y-76913471D01*
X132744944Y-76718631D01*
X132668921Y-76535096D01*
X132668919Y-76535093D01*
X132668917Y-76535089D01*
X132558553Y-76369919D01*
X132558550Y-76369915D01*
X132418084Y-76229449D01*
X132418080Y-76229446D01*
X132252910Y-76119082D01*
X132252902Y-76119078D01*
X132069369Y-76043056D01*
X131874529Y-76004300D01*
X131675871Y-76004300D01*
X131606946Y-76018010D01*
X131481030Y-76043056D01*
X131297497Y-76119078D01*
X131297489Y-76119082D01*
X131132319Y-76229446D01*
X131132315Y-76229449D01*
X130991849Y-76369915D01*
X130991846Y-76369919D01*
X130881482Y-76535089D01*
X130881478Y-76535097D01*
X130805456Y-76718630D01*
X130766700Y-76913471D01*
X130700500Y-76913471D01*
X130700500Y-76148317D01*
X130703927Y-76140044D01*
X130706034Y-76138374D01*
X130817470Y-76069297D01*
X130824332Y-76063544D01*
X130900447Y-75984413D01*
X130972569Y-75857290D01*
X131005954Y-75714996D01*
X131006738Y-75706075D01*
X131007419Y-75686102D01*
X131008613Y-75651157D01*
X131008612Y-75651155D01*
X131008613Y-75651150D01*
X130985008Y-75506912D01*
X130628153Y-74373471D01*
X130766700Y-74373471D01*
X130766700Y-74572128D01*
X130805456Y-74766969D01*
X130881478Y-74950502D01*
X130881482Y-74950510D01*
X130991846Y-75115680D01*
X130991849Y-75115684D01*
X131132315Y-75256150D01*
X131132319Y-75256153D01*
X131297489Y-75366517D01*
X131297493Y-75366519D01*
X131297496Y-75366521D01*
X131481031Y-75442544D01*
X131675871Y-75481300D01*
X131675872Y-75481300D01*
X131874528Y-75481300D01*
X131874529Y-75481300D01*
X132069369Y-75442544D01*
X132252904Y-75366521D01*
X132418081Y-75256153D01*
X132558553Y-75115681D01*
X132668921Y-74950504D01*
X132744944Y-74766969D01*
X132783700Y-74572129D01*
X132783700Y-74373471D01*
X135846700Y-74373471D01*
X135846700Y-74572128D01*
X135885456Y-74766969D01*
X135961478Y-74950502D01*
X135961482Y-74950510D01*
X136071846Y-75115680D01*
X136071849Y-75115684D01*
X136212315Y-75256150D01*
X136212319Y-75256153D01*
X136377489Y-75366517D01*
X136377493Y-75366519D01*
X136377496Y-75366521D01*
X136561031Y-75442544D01*
X136755871Y-75481300D01*
X136755872Y-75481300D01*
X136954528Y-75481300D01*
X136954529Y-75481300D01*
X137149369Y-75442544D01*
X137332904Y-75366521D01*
X137498081Y-75256153D01*
X137638553Y-75115681D01*
X137748921Y-74950504D01*
X137824944Y-74766969D01*
X137863700Y-74572129D01*
X137863700Y-74373471D01*
X138386700Y-74373471D01*
X138386700Y-74572128D01*
X138425456Y-74766969D01*
X138501478Y-74950502D01*
X138501482Y-74950510D01*
X138611846Y-75115680D01*
X138611849Y-75115684D01*
X138752315Y-75256150D01*
X138752319Y-75256153D01*
X138917489Y-75366517D01*
X138917493Y-75366519D01*
X138917496Y-75366521D01*
X139101031Y-75442544D01*
X139295871Y-75481300D01*
X139295872Y-75481300D01*
X139494528Y-75481300D01*
X139494529Y-75481300D01*
X139689369Y-75442544D01*
X139872904Y-75366521D01*
X140038081Y-75256153D01*
X140178553Y-75115681D01*
X140288921Y-74950504D01*
X140364944Y-74766969D01*
X140403700Y-74572129D01*
X140403700Y-74373471D01*
X140926700Y-74373471D01*
X140926700Y-74572128D01*
X140965456Y-74766969D01*
X141041478Y-74950502D01*
X141041482Y-74950510D01*
X141151846Y-75115680D01*
X141151849Y-75115684D01*
X141292315Y-75256150D01*
X141292319Y-75256153D01*
X141457489Y-75366517D01*
X141457493Y-75366519D01*
X141457496Y-75366521D01*
X141641031Y-75442544D01*
X141835871Y-75481300D01*
X141835872Y-75481300D01*
X142034528Y-75481300D01*
X142034529Y-75481300D01*
X142229369Y-75442544D01*
X142412904Y-75366521D01*
X142578081Y-75256153D01*
X142718553Y-75115681D01*
X142828921Y-74950504D01*
X142904944Y-74766969D01*
X142943700Y-74572129D01*
X142943700Y-74373471D01*
X143466700Y-74373471D01*
X143466700Y-74572128D01*
X143505456Y-74766969D01*
X143581478Y-74950502D01*
X143581482Y-74950510D01*
X143691846Y-75115680D01*
X143691849Y-75115684D01*
X143832315Y-75256150D01*
X143832319Y-75256153D01*
X143997489Y-75366517D01*
X143997493Y-75366519D01*
X143997496Y-75366521D01*
X144181031Y-75442544D01*
X144375871Y-75481300D01*
X144375872Y-75481300D01*
X144574528Y-75481300D01*
X144574529Y-75481300D01*
X144769369Y-75442544D01*
X144952904Y-75366521D01*
X145118081Y-75256153D01*
X145258553Y-75115681D01*
X145368921Y-74950504D01*
X145444944Y-74766969D01*
X145483700Y-74572129D01*
X145483700Y-74373471D01*
X146006700Y-74373471D01*
X146006700Y-74572128D01*
X146045456Y-74766969D01*
X146121478Y-74950502D01*
X146121482Y-74950510D01*
X146231846Y-75115680D01*
X146231849Y-75115684D01*
X146372315Y-75256150D01*
X146372319Y-75256153D01*
X146537489Y-75366517D01*
X146537493Y-75366519D01*
X146537496Y-75366521D01*
X146721031Y-75442544D01*
X146915871Y-75481300D01*
X146915872Y-75481300D01*
X147114528Y-75481300D01*
X147114529Y-75481300D01*
X147309369Y-75442544D01*
X147492904Y-75366521D01*
X147658081Y-75256153D01*
X147798553Y-75115681D01*
X147908921Y-74950504D01*
X147984944Y-74766969D01*
X148023700Y-74572129D01*
X148023700Y-74373471D01*
X148546700Y-74373471D01*
X148546700Y-74572128D01*
X148585456Y-74766969D01*
X148661478Y-74950502D01*
X148661482Y-74950510D01*
X148771846Y-75115680D01*
X148771849Y-75115684D01*
X148912315Y-75256150D01*
X148912319Y-75256153D01*
X149077489Y-75366517D01*
X149077493Y-75366519D01*
X149077496Y-75366521D01*
X149261031Y-75442544D01*
X149455871Y-75481300D01*
X149455872Y-75481300D01*
X149654528Y-75481300D01*
X149654529Y-75481300D01*
X149849369Y-75442544D01*
X150032904Y-75366521D01*
X150198081Y-75256153D01*
X150338553Y-75115681D01*
X150448921Y-74950504D01*
X150524944Y-74766969D01*
X150563700Y-74572129D01*
X150563700Y-74373471D01*
X151086700Y-74373471D01*
X151086700Y-74572128D01*
X151125456Y-74766969D01*
X151201478Y-74950502D01*
X151201482Y-74950510D01*
X151311846Y-75115680D01*
X151311849Y-75115684D01*
X151452315Y-75256150D01*
X151452319Y-75256153D01*
X151617489Y-75366517D01*
X151617493Y-75366519D01*
X151617496Y-75366521D01*
X151801031Y-75442544D01*
X151995871Y-75481300D01*
X151995872Y-75481300D01*
X152194528Y-75481300D01*
X152194529Y-75481300D01*
X152389369Y-75442544D01*
X152572904Y-75366521D01*
X152738081Y-75256153D01*
X152878553Y-75115681D01*
X152988921Y-74950504D01*
X153064944Y-74766969D01*
X153103700Y-74572129D01*
X153103700Y-74373471D01*
X156166700Y-74373471D01*
X156166700Y-74572128D01*
X156205456Y-74766969D01*
X156281478Y-74950502D01*
X156281482Y-74950510D01*
X156391846Y-75115680D01*
X156391849Y-75115684D01*
X156532315Y-75256150D01*
X156532319Y-75256153D01*
X156697489Y-75366517D01*
X156697493Y-75366519D01*
X156697496Y-75366521D01*
X156881031Y-75442544D01*
X157075871Y-75481300D01*
X157075872Y-75481300D01*
X157274528Y-75481300D01*
X157274529Y-75481300D01*
X157469369Y-75442544D01*
X157652904Y-75366521D01*
X157818081Y-75256153D01*
X157958553Y-75115681D01*
X158068921Y-74950504D01*
X158144944Y-74766969D01*
X158183700Y-74572129D01*
X158183700Y-74373471D01*
X158706700Y-74373471D01*
X158706700Y-74572128D01*
X158745456Y-74766969D01*
X158821478Y-74950502D01*
X158821482Y-74950510D01*
X158931846Y-75115680D01*
X158931849Y-75115684D01*
X159072315Y-75256150D01*
X159072319Y-75256153D01*
X159237489Y-75366517D01*
X159237493Y-75366519D01*
X159237496Y-75366521D01*
X159421031Y-75442544D01*
X159615871Y-75481300D01*
X159615872Y-75481300D01*
X159814528Y-75481300D01*
X159814529Y-75481300D01*
X160009369Y-75442544D01*
X160192904Y-75366521D01*
X160358081Y-75256153D01*
X160498553Y-75115681D01*
X160608921Y-74950504D01*
X160684944Y-74766969D01*
X160723700Y-74572129D01*
X160723700Y-74373471D01*
X161246700Y-74373471D01*
X161246700Y-74572128D01*
X161285456Y-74766969D01*
X161361478Y-74950502D01*
X161361482Y-74950510D01*
X161471846Y-75115680D01*
X161471849Y-75115684D01*
X161612315Y-75256150D01*
X161612319Y-75256153D01*
X161777489Y-75366517D01*
X161777493Y-75366519D01*
X161777496Y-75366521D01*
X161961031Y-75442544D01*
X162155871Y-75481300D01*
X162155872Y-75481300D01*
X162354528Y-75481300D01*
X162354529Y-75481300D01*
X162549369Y-75442544D01*
X162732904Y-75366521D01*
X162898081Y-75256153D01*
X163038553Y-75115681D01*
X163148921Y-74950504D01*
X163224944Y-74766969D01*
X163263700Y-74572129D01*
X163263700Y-74373471D01*
X163786700Y-74373471D01*
X163786700Y-74572128D01*
X163825456Y-74766969D01*
X163901478Y-74950502D01*
X163901482Y-74950510D01*
X164011846Y-75115680D01*
X164011849Y-75115684D01*
X164152315Y-75256150D01*
X164152319Y-75256153D01*
X164317489Y-75366517D01*
X164317493Y-75366519D01*
X164317496Y-75366521D01*
X164501031Y-75442544D01*
X164695871Y-75481300D01*
X164695872Y-75481300D01*
X164894528Y-75481300D01*
X164894529Y-75481300D01*
X165089369Y-75442544D01*
X165272904Y-75366521D01*
X165438081Y-75256153D01*
X165578553Y-75115681D01*
X165688921Y-74950504D01*
X165764944Y-74766969D01*
X165803700Y-74572129D01*
X165803700Y-74373471D01*
X166326700Y-74373471D01*
X166326700Y-74572128D01*
X166365456Y-74766969D01*
X166441478Y-74950502D01*
X166441482Y-74950510D01*
X166551846Y-75115680D01*
X166551849Y-75115684D01*
X166692315Y-75256150D01*
X166692319Y-75256153D01*
X166857489Y-75366517D01*
X166857493Y-75366519D01*
X166857496Y-75366521D01*
X167041031Y-75442544D01*
X167235871Y-75481300D01*
X167235872Y-75481300D01*
X167434528Y-75481300D01*
X167434529Y-75481300D01*
X167629369Y-75442544D01*
X167812904Y-75366521D01*
X167978081Y-75256153D01*
X168118553Y-75115681D01*
X168228921Y-74950504D01*
X168304944Y-74766969D01*
X168343700Y-74572129D01*
X168343700Y-74373471D01*
X168866700Y-74373471D01*
X168866700Y-74572128D01*
X168905456Y-74766969D01*
X168981478Y-74950502D01*
X168981482Y-74950510D01*
X169091846Y-75115680D01*
X169091849Y-75115684D01*
X169232315Y-75256150D01*
X169232319Y-75256153D01*
X169397489Y-75366517D01*
X169397493Y-75366519D01*
X169397496Y-75366521D01*
X169581031Y-75442544D01*
X169775871Y-75481300D01*
X169775872Y-75481300D01*
X169974528Y-75481300D01*
X169974529Y-75481300D01*
X170169369Y-75442544D01*
X170352904Y-75366521D01*
X170518081Y-75256153D01*
X170658553Y-75115681D01*
X170768921Y-74950504D01*
X170844944Y-74766969D01*
X170883700Y-74572129D01*
X170883700Y-74373471D01*
X170844944Y-74178631D01*
X170768921Y-73995096D01*
X170768919Y-73995093D01*
X170768917Y-73995089D01*
X170658553Y-73829919D01*
X170658550Y-73829915D01*
X170518084Y-73689449D01*
X170518080Y-73689446D01*
X170352910Y-73579082D01*
X170352902Y-73579078D01*
X170169369Y-73503056D01*
X169974529Y-73464300D01*
X169775871Y-73464300D01*
X169678451Y-73483678D01*
X169581030Y-73503056D01*
X169397497Y-73579078D01*
X169397489Y-73579082D01*
X169232319Y-73689446D01*
X169232315Y-73689449D01*
X169091849Y-73829915D01*
X169091846Y-73829919D01*
X168981482Y-73995089D01*
X168981478Y-73995097D01*
X168905456Y-74178630D01*
X168866700Y-74373471D01*
X168343700Y-74373471D01*
X168304944Y-74178631D01*
X168228921Y-73995096D01*
X168228919Y-73995093D01*
X168228917Y-73995089D01*
X168118553Y-73829919D01*
X168118550Y-73829915D01*
X167978084Y-73689449D01*
X167978080Y-73689446D01*
X167812910Y-73579082D01*
X167812902Y-73579078D01*
X167629369Y-73503056D01*
X167434529Y-73464300D01*
X167235871Y-73464300D01*
X167138451Y-73483678D01*
X167041030Y-73503056D01*
X166857497Y-73579078D01*
X166857489Y-73579082D01*
X166692319Y-73689446D01*
X166692315Y-73689449D01*
X166551849Y-73829915D01*
X166551846Y-73829919D01*
X166441482Y-73995089D01*
X166441478Y-73995097D01*
X166365456Y-74178630D01*
X166326700Y-74373471D01*
X165803700Y-74373471D01*
X165764944Y-74178631D01*
X165688921Y-73995096D01*
X165688919Y-73995093D01*
X165688917Y-73995089D01*
X165578553Y-73829919D01*
X165578550Y-73829915D01*
X165438084Y-73689449D01*
X165438080Y-73689446D01*
X165272910Y-73579082D01*
X165272902Y-73579078D01*
X165089369Y-73503056D01*
X164894529Y-73464300D01*
X164695871Y-73464300D01*
X164598451Y-73483678D01*
X164501030Y-73503056D01*
X164317497Y-73579078D01*
X164317489Y-73579082D01*
X164152319Y-73689446D01*
X164152315Y-73689449D01*
X164011849Y-73829915D01*
X164011846Y-73829919D01*
X163901482Y-73995089D01*
X163901478Y-73995097D01*
X163825456Y-74178630D01*
X163786700Y-74373471D01*
X163263700Y-74373471D01*
X163224944Y-74178631D01*
X163148921Y-73995096D01*
X163148919Y-73995093D01*
X163148917Y-73995089D01*
X163038553Y-73829919D01*
X163038550Y-73829915D01*
X162898084Y-73689449D01*
X162898080Y-73689446D01*
X162732910Y-73579082D01*
X162732902Y-73579078D01*
X162549369Y-73503056D01*
X162354529Y-73464300D01*
X162155871Y-73464300D01*
X162058451Y-73483678D01*
X161961030Y-73503056D01*
X161777497Y-73579078D01*
X161777489Y-73579082D01*
X161612319Y-73689446D01*
X161612315Y-73689449D01*
X161471849Y-73829915D01*
X161471846Y-73829919D01*
X161361482Y-73995089D01*
X161361478Y-73995097D01*
X161285456Y-74178630D01*
X161246700Y-74373471D01*
X160723700Y-74373471D01*
X160684944Y-74178631D01*
X160608921Y-73995096D01*
X160608919Y-73995093D01*
X160608917Y-73995089D01*
X160498553Y-73829919D01*
X160498550Y-73829915D01*
X160358084Y-73689449D01*
X160358080Y-73689446D01*
X160192910Y-73579082D01*
X160192902Y-73579078D01*
X160009369Y-73503056D01*
X159814529Y-73464300D01*
X159615871Y-73464300D01*
X159518451Y-73483678D01*
X159421030Y-73503056D01*
X159237497Y-73579078D01*
X159237489Y-73579082D01*
X159072319Y-73689446D01*
X159072315Y-73689449D01*
X158931849Y-73829915D01*
X158931846Y-73829919D01*
X158821482Y-73995089D01*
X158821478Y-73995097D01*
X158745456Y-74178630D01*
X158706700Y-74373471D01*
X158183700Y-74373471D01*
X158144944Y-74178631D01*
X158068921Y-73995096D01*
X158068919Y-73995093D01*
X158068917Y-73995089D01*
X157958553Y-73829919D01*
X157958550Y-73829915D01*
X157818084Y-73689449D01*
X157818080Y-73689446D01*
X157652910Y-73579082D01*
X157652902Y-73579078D01*
X157469369Y-73503056D01*
X157274529Y-73464300D01*
X157075871Y-73464300D01*
X156978451Y-73483678D01*
X156881030Y-73503056D01*
X156697497Y-73579078D01*
X156697489Y-73579082D01*
X156532319Y-73689446D01*
X156532315Y-73689449D01*
X156391849Y-73829915D01*
X156391846Y-73829919D01*
X156281482Y-73995089D01*
X156281478Y-73995097D01*
X156205456Y-74178630D01*
X156166700Y-74373471D01*
X153103700Y-74373471D01*
X153064944Y-74178631D01*
X152988921Y-73995096D01*
X152988919Y-73995093D01*
X152988917Y-73995089D01*
X152878553Y-73829919D01*
X152878550Y-73829915D01*
X152738084Y-73689449D01*
X152738080Y-73689446D01*
X152572910Y-73579082D01*
X152572902Y-73579078D01*
X152389369Y-73503056D01*
X152194529Y-73464300D01*
X151995871Y-73464300D01*
X151898451Y-73483678D01*
X151801030Y-73503056D01*
X151617497Y-73579078D01*
X151617489Y-73579082D01*
X151452319Y-73689446D01*
X151452315Y-73689449D01*
X151311849Y-73829915D01*
X151311846Y-73829919D01*
X151201482Y-73995089D01*
X151201478Y-73995097D01*
X151125456Y-74178630D01*
X151086700Y-74373471D01*
X150563700Y-74373471D01*
X150524944Y-74178631D01*
X150448921Y-73995096D01*
X150448919Y-73995093D01*
X150448917Y-73995089D01*
X150338553Y-73829919D01*
X150338550Y-73829915D01*
X150198084Y-73689449D01*
X150198080Y-73689446D01*
X150032910Y-73579082D01*
X150032902Y-73579078D01*
X149849369Y-73503056D01*
X149654529Y-73464300D01*
X149455871Y-73464300D01*
X149358451Y-73483678D01*
X149261030Y-73503056D01*
X149077497Y-73579078D01*
X149077489Y-73579082D01*
X148912319Y-73689446D01*
X148912315Y-73689449D01*
X148771849Y-73829915D01*
X148771846Y-73829919D01*
X148661482Y-73995089D01*
X148661478Y-73995097D01*
X148585456Y-74178630D01*
X148546700Y-74373471D01*
X148023700Y-74373471D01*
X147984944Y-74178631D01*
X147908921Y-73995096D01*
X147908919Y-73995093D01*
X147908917Y-73995089D01*
X147798553Y-73829919D01*
X147798550Y-73829915D01*
X147658084Y-73689449D01*
X147658080Y-73689446D01*
X147492910Y-73579082D01*
X147492902Y-73579078D01*
X147309369Y-73503056D01*
X147114529Y-73464300D01*
X146915871Y-73464300D01*
X146818451Y-73483678D01*
X146721030Y-73503056D01*
X146537497Y-73579078D01*
X146537489Y-73579082D01*
X146372319Y-73689446D01*
X146372315Y-73689449D01*
X146231849Y-73829915D01*
X146231846Y-73829919D01*
X146121482Y-73995089D01*
X146121478Y-73995097D01*
X146045456Y-74178630D01*
X146006700Y-74373471D01*
X145483700Y-74373471D01*
X145444944Y-74178631D01*
X145368921Y-73995096D01*
X145368919Y-73995093D01*
X145368917Y-73995089D01*
X145258553Y-73829919D01*
X145258550Y-73829915D01*
X145118084Y-73689449D01*
X145118080Y-73689446D01*
X144952910Y-73579082D01*
X144952902Y-73579078D01*
X144769369Y-73503056D01*
X144574529Y-73464300D01*
X144375871Y-73464300D01*
X144278451Y-73483678D01*
X144181030Y-73503056D01*
X143997497Y-73579078D01*
X143997489Y-73579082D01*
X143832319Y-73689446D01*
X143832315Y-73689449D01*
X143691849Y-73829915D01*
X143691846Y-73829919D01*
X143581482Y-73995089D01*
X143581478Y-73995097D01*
X143505456Y-74178630D01*
X143466700Y-74373471D01*
X142943700Y-74373471D01*
X142904944Y-74178631D01*
X142828921Y-73995096D01*
X142828919Y-73995093D01*
X142828917Y-73995089D01*
X142718553Y-73829919D01*
X142718550Y-73829915D01*
X142578084Y-73689449D01*
X142578080Y-73689446D01*
X142412910Y-73579082D01*
X142412902Y-73579078D01*
X142229369Y-73503056D01*
X142034529Y-73464300D01*
X141835871Y-73464300D01*
X141738451Y-73483678D01*
X141641030Y-73503056D01*
X141457497Y-73579078D01*
X141457489Y-73579082D01*
X141292319Y-73689446D01*
X141292315Y-73689449D01*
X141151849Y-73829915D01*
X141151846Y-73829919D01*
X141041482Y-73995089D01*
X141041478Y-73995097D01*
X140965456Y-74178630D01*
X140926700Y-74373471D01*
X140403700Y-74373471D01*
X140364944Y-74178631D01*
X140288921Y-73995096D01*
X140288919Y-73995093D01*
X140288917Y-73995089D01*
X140178553Y-73829919D01*
X140178550Y-73829915D01*
X140038084Y-73689449D01*
X140038080Y-73689446D01*
X139872910Y-73579082D01*
X139872902Y-73579078D01*
X139689369Y-73503056D01*
X139494529Y-73464300D01*
X139295871Y-73464300D01*
X139198451Y-73483678D01*
X139101030Y-73503056D01*
X138917497Y-73579078D01*
X138917489Y-73579082D01*
X138752319Y-73689446D01*
X138752315Y-73689449D01*
X138611849Y-73829915D01*
X138611846Y-73829919D01*
X138501482Y-73995089D01*
X138501478Y-73995097D01*
X138425456Y-74178630D01*
X138386700Y-74373471D01*
X137863700Y-74373471D01*
X137824944Y-74178631D01*
X137748921Y-73995096D01*
X137748919Y-73995093D01*
X137748917Y-73995089D01*
X137638553Y-73829919D01*
X137638550Y-73829915D01*
X137498084Y-73689449D01*
X137498080Y-73689446D01*
X137332910Y-73579082D01*
X137332902Y-73579078D01*
X137149369Y-73503056D01*
X136954529Y-73464300D01*
X136755871Y-73464300D01*
X136658451Y-73483678D01*
X136561030Y-73503056D01*
X136377497Y-73579078D01*
X136377489Y-73579082D01*
X136212319Y-73689446D01*
X136212315Y-73689449D01*
X136071849Y-73829915D01*
X136071846Y-73829919D01*
X135961482Y-73995089D01*
X135961478Y-73995097D01*
X135885456Y-74178630D01*
X135846700Y-74373471D01*
X132783700Y-74373471D01*
X132744944Y-74178631D01*
X132668921Y-73995096D01*
X132668919Y-73995093D01*
X132668917Y-73995089D01*
X132558553Y-73829919D01*
X132558550Y-73829915D01*
X132418084Y-73689449D01*
X132418080Y-73689446D01*
X132252910Y-73579082D01*
X132252902Y-73579078D01*
X132069369Y-73503056D01*
X131874529Y-73464300D01*
X131675871Y-73464300D01*
X131578451Y-73483678D01*
X131481030Y-73503056D01*
X131297497Y-73579078D01*
X131297489Y-73579082D01*
X131132319Y-73689446D01*
X131132315Y-73689449D01*
X130991849Y-73829915D01*
X130991846Y-73829919D01*
X130881482Y-73995089D01*
X130881478Y-73995097D01*
X130805456Y-74178630D01*
X130766700Y-74373471D01*
X130628153Y-74373471D01*
X130561812Y-74162760D01*
X130561614Y-74162186D01*
X130561125Y-74160218D01*
X130561085Y-74159968D01*
X130560249Y-74154684D01*
X130508397Y-73995097D01*
X130494175Y-73951325D01*
X130494173Y-73951321D01*
X130494172Y-73951317D01*
X130397094Y-73760791D01*
X130397092Y-73760789D01*
X130397090Y-73760784D01*
X130271413Y-73587805D01*
X130271410Y-73587801D01*
X130271406Y-73587796D01*
X130120204Y-73436594D01*
X130120198Y-73436590D01*
X130120194Y-73436586D01*
X129947215Y-73310909D01*
X129929207Y-73301733D01*
X129756683Y-73213828D01*
X129756680Y-73213827D01*
X129756678Y-73213826D01*
X129756674Y-73213824D01*
X129553324Y-73147753D01*
X129553308Y-73147749D01*
X129342117Y-73114300D01*
X129342116Y-73114300D01*
X129128284Y-73114300D01*
X129128283Y-73114300D01*
X128917091Y-73147749D01*
X128917075Y-73147753D01*
X128713725Y-73213824D01*
X128713721Y-73213826D01*
X128523184Y-73310909D01*
X128350205Y-73436586D01*
X128350189Y-73436600D01*
X128199000Y-73587789D01*
X128198986Y-73587805D01*
X128073309Y-73760784D01*
X127976226Y-73951321D01*
X127976224Y-73951325D01*
X127910153Y-74154675D01*
X127910149Y-74154691D01*
X127876700Y-74365883D01*
X127702191Y-74365883D01*
X127664944Y-74178631D01*
X127588921Y-73995096D01*
X127588919Y-73995093D01*
X127588917Y-73995089D01*
X127478553Y-73829919D01*
X127478550Y-73829915D01*
X127338084Y-73689449D01*
X127338080Y-73689446D01*
X127172910Y-73579082D01*
X127172902Y-73579078D01*
X126989369Y-73503056D01*
X126794529Y-73464300D01*
X126595871Y-73464300D01*
X126498451Y-73483678D01*
X126401030Y-73503056D01*
X126217497Y-73579078D01*
X126217489Y-73579082D01*
X126052319Y-73689446D01*
X126052315Y-73689449D01*
X125911849Y-73829915D01*
X125911846Y-73829919D01*
X125801482Y-73995089D01*
X125801478Y-73995097D01*
X125725456Y-74178630D01*
X125686700Y-74373471D01*
X125163700Y-74373471D01*
X125124944Y-74178631D01*
X125048921Y-73995096D01*
X125048919Y-73995093D01*
X125048917Y-73995089D01*
X124938553Y-73829919D01*
X124938550Y-73829915D01*
X124798084Y-73689449D01*
X124798080Y-73689446D01*
X124632910Y-73579082D01*
X124632902Y-73579078D01*
X124449369Y-73503056D01*
X124254529Y-73464300D01*
X124055871Y-73464300D01*
X123958451Y-73483678D01*
X123861030Y-73503056D01*
X123677497Y-73579078D01*
X123677489Y-73579082D01*
X123512319Y-73689446D01*
X123512315Y-73689449D01*
X123371849Y-73829915D01*
X123371846Y-73829919D01*
X123261482Y-73995089D01*
X123261478Y-73995097D01*
X123185456Y-74178630D01*
X123146700Y-74373471D01*
X117456973Y-74373471D01*
X117298049Y-74281716D01*
X117298041Y-74281712D01*
X117298040Y-74281712D01*
X117080002Y-74191397D01*
X117079991Y-74191393D01*
X116852012Y-74130306D01*
X116618011Y-74099500D01*
X116381989Y-74099500D01*
X116147987Y-74130306D01*
X115920008Y-74191393D01*
X115919997Y-74191397D01*
X115701959Y-74281712D01*
X115701954Y-74281714D01*
X115701951Y-74281716D01*
X115497550Y-74399727D01*
X115497549Y-74399727D01*
X115310302Y-74543407D01*
X115310295Y-74543413D01*
X115143413Y-74710295D01*
X115143407Y-74710302D01*
X114999727Y-74897549D01*
X114999727Y-74897550D01*
X114881716Y-75101951D01*
X114881714Y-75101954D01*
X114881712Y-75101959D01*
X114791397Y-75319997D01*
X114791393Y-75320008D01*
X114730306Y-75547987D01*
X114699500Y-75781989D01*
X111705700Y-75781989D01*
X111705700Y-71098200D01*
X111709127Y-71089927D01*
X111717400Y-71086500D01*
X182160600Y-71086500D01*
X182168873Y-71089927D01*
G37*
%TD.AperFunction*%
%TD*%
%TA.AperFunction,Conductor*%
%TO.N,/Project Architecture/Connectors/SDA*%
G36*
X157680930Y-94755835D02*
G01*
X157688358Y-94760834D01*
X157690077Y-94769622D01*
X157689608Y-94771290D01*
X157502796Y-95286524D01*
X157496755Y-95293134D01*
X157491797Y-95294236D01*
X157308203Y-95294236D01*
X157299930Y-95290809D01*
X157297204Y-95286524D01*
X157249544Y-95155078D01*
X157110391Y-94771288D01*
X157110792Y-94762344D01*
X157117402Y-94756303D01*
X157119056Y-94755837D01*
X157397682Y-94699469D01*
X157402318Y-94699469D01*
X157680930Y-94755835D01*
G37*
%TD.AperFunction*%
%TD*%
M02*
