%TF.GenerationSoftware,KiCad,Pcbnew,9.0.7+1*%
%TF.CreationDate,Date%
%TF.ProjectId,proalbmlb,70726f61-6c62-46d6-9c62-2e6b69636164,+ (Unreleased)*%
%TF.SameCoordinates,Original*%
%TF.FileFunction,Paste,Top*%
%TF.FilePolarity,Positive*%
%FSLAX46Y46*%
G04 Gerber Fmt 4.6, Leading zero omitted, Abs format (unit mm)*
G04 Created by KiCad*
%MOMM*%
%LPD*%
G01*
G04 APERTURE LIST*
G04 Aperture macros list*
%AMRoundRect*
0 Rectangle with rounded corners*
0 $1 Rounding radius*
0 $2 $3 $4 $5 $6 $7 $8 $9 X,Y pos of 4 corners*
0 Add a 4 corners polygon primitive as box body*
4,1,4,$2,$3,$4,$5,$6,$7,$8,$9,$2,$3,0*
0 Add four circle primitives for the rounded corners*
1,1,$1+$1,$2,$3*
1,1,$1+$1,$4,$5*
1,1,$1+$1,$6,$7*
1,1,$1+$1,$8,$9*
0 Add four rect primitives between the rounded corners*
20,1,$1+$1,$2,$3,$4,$5,0*
20,1,$1+$1,$4,$5,$6,$7,0*
20,1,$1+$1,$6,$7,$8,$9,0*
20,1,$1+$1,$8,$9,$2,$3,0*%
%AMFreePoly0*
4,1,13,0.752399,-0.406400,0.447599,-0.406400,0.447599,0.406400,0.152400,0.406400,0.152400,-0.406400,-0.152400,-0.406400,-0.152400,0.406400,-0.447599,0.406400,-0.447599,-0.406400,-0.752399,-0.406400,-0.752348,0.854456,0.752348,0.854456,0.752399,-0.406400,0.752399,-0.406400,$1*%
%AMFreePoly1*
4,1,15,-0.443078,-0.402948,-0.152400,-0.402948,-0.152400,0.406400,-0.147879,0.406400,-0.147879,0.409852,0.156921,0.409852,0.156921,-0.402948,0.452120,-0.402948,0.452120,0.409852,0.756920,0.409852,0.756920,-0.852941,-0.747878,-0.852941,-0.747878,0.409852,-0.443078,0.409852,-0.443078,-0.402948,-0.443078,-0.402948,$1*%
%AMFreePoly2*
4,1,13,-0.447599,-0.406400,-0.152400,-0.406400,-0.152400,0.406400,0.152400,0.406400,0.152400,-0.406400,0.447599,-0.406400,0.447599,0.406400,0.752399,0.406400,0.752399,-0.856393,-0.752399,-0.856393,-0.752399,0.406400,-0.447599,0.406400,-0.447599,-0.406400,-0.447599,-0.406400,$1*%
G04 Aperture macros list end*
%ADD10C,0.000000*%
%ADD11RoundRect,0.250000X0.315000X-0.315000X0.315000X0.315000X-0.315000X0.315000X-0.315000X-0.315000X0*%
%ADD12RoundRect,0.062500X0.062500X-0.375000X0.062500X0.375000X-0.062500X0.375000X-0.062500X-0.375000X0*%
%ADD13RoundRect,0.062500X0.375000X-0.062500X0.375000X0.062500X-0.375000X0.062500X-0.375000X-0.062500X0*%
%ADD14RoundRect,0.237500X-0.300000X-0.237500X0.300000X-0.237500X0.300000X0.237500X-0.300000X0.237500X0*%
%ADD15RoundRect,0.237500X0.237500X-0.300000X0.237500X0.300000X-0.237500X0.300000X-0.237500X-0.300000X0*%
%ADD16RoundRect,0.237500X0.300000X0.237500X-0.300000X0.237500X-0.300000X-0.237500X0.300000X-0.237500X0*%
%ADD17RoundRect,0.237500X-0.237500X0.300000X-0.237500X-0.300000X0.237500X-0.300000X0.237500X0.300000X0*%
%ADD18R,0.812800X0.304800*%
%ADD19FreePoly0,180.000000*%
%ADD20FreePoly1,180.000000*%
%ADD21R,0.660400X0.254000*%
%ADD22R,1.905000X1.752600*%
%ADD23RoundRect,0.250000X-0.315000X-0.315000X0.315000X-0.315000X0.315000X0.315000X-0.315000X0.315000X0*%
%ADD24RoundRect,0.062500X-0.375000X-0.062500X0.375000X-0.062500X0.375000X0.062500X-0.375000X0.062500X0*%
%ADD25RoundRect,0.062500X-0.062500X-0.375000X0.062500X-0.375000X0.062500X0.375000X-0.062500X0.375000X0*%
%ADD26R,0.304800X0.812800*%
%ADD27FreePoly0,270.000000*%
%ADD28FreePoly2,270.000000*%
%ADD29R,1.333500X0.431800*%
G04 APERTURE END LIST*
D10*
%TO.C,U9*%
G36*
X154152727Y-95070806D02*
G01*
X152648031Y-95070806D01*
X152648031Y-94620718D01*
X154152727Y-94620718D01*
X154152727Y-95070806D01*
G37*
G36*
X154152778Y-98712157D02*
G01*
X152647980Y-98712157D01*
X152647980Y-98262157D01*
X154152778Y-98262157D01*
X154152778Y-98712157D01*
G37*
%TO.C,U7*%
G36*
X158512256Y-108092748D02*
G01*
X158062168Y-108092748D01*
X158062168Y-106588052D01*
X158512256Y-106588052D01*
X158512256Y-108092748D01*
G37*
G36*
X162153607Y-108092799D02*
G01*
X161703607Y-108092799D01*
X161703607Y-106588001D01*
X162153607Y-106588001D01*
X162153607Y-108092799D01*
G37*
%TD*%
D11*
%TO.C,U12*%
X146212800Y-105196400D03*
X147512800Y-105196400D03*
X146212800Y-103896400D03*
X147512800Y-103896400D03*
D12*
X146112800Y-106483900D03*
X146612800Y-106483900D03*
X147112800Y-106483900D03*
X147612800Y-106483900D03*
D13*
X148800300Y-105296400D03*
X148800300Y-104796400D03*
X148800300Y-104296400D03*
X148800300Y-103796400D03*
D12*
X147612800Y-102608900D03*
X147112800Y-102608900D03*
X146612800Y-102608900D03*
X146112800Y-102608900D03*
D13*
X144925300Y-103796400D03*
X144925300Y-104296400D03*
X144925300Y-104796400D03*
X144925300Y-105296400D03*
%TD*%
D14*
%TO.C,C2*%
X140471300Y-100628548D03*
X142196300Y-100628548D03*
%TD*%
%TO.C,C29*%
X161546200Y-92811600D03*
X163271200Y-92811600D03*
%TD*%
%TO.C,C1*%
X140472400Y-102100648D03*
X142197400Y-102100648D03*
%TD*%
D15*
%TO.C,C23*%
X150495000Y-98093700D03*
X150495000Y-96368700D03*
%TD*%
D16*
%TO.C,C18*%
X161522723Y-110227044D03*
X159797723Y-110227044D03*
%TD*%
D14*
%TO.C,C34*%
X147582200Y-107942900D03*
X149307200Y-107942900D03*
%TD*%
D17*
%TO.C,C31*%
X167884201Y-88710600D03*
X167884201Y-90435600D03*
%TD*%
D16*
%TO.C,C20*%
X165909500Y-97739200D03*
X164184500Y-97739200D03*
%TD*%
D15*
%TO.C,C24*%
X161572301Y-85305900D03*
X161572301Y-83580900D03*
%TD*%
D14*
%TO.C,C35*%
X147590800Y-109430300D03*
X149315800Y-109430300D03*
%TD*%
D18*
%TO.C,U9*%
X154848179Y-98167450D03*
X154848179Y-97567451D03*
X154848179Y-96967449D03*
X154848179Y-96367451D03*
X154848179Y-95767449D03*
X154848179Y-95167450D03*
D19*
X153400379Y-94216350D03*
D18*
X151952579Y-95167450D03*
X151952579Y-95767449D03*
X151952579Y-96367451D03*
X151952579Y-96967449D03*
X151952579Y-97567451D03*
X151952579Y-98167450D03*
D20*
X153404900Y-99115098D03*
%TD*%
D21*
%TO.C,U3*%
X141884400Y-104741726D03*
X141884400Y-104241600D03*
X141884400Y-103741474D03*
X141884400Y-103241348D03*
X139039600Y-103241348D03*
X139039600Y-103741474D03*
X139039600Y-104241600D03*
X139039600Y-104741726D03*
D22*
X140462000Y-103991537D03*
%TD*%
D16*
%TO.C,C32*%
X146227800Y-99593400D03*
X144502800Y-99593400D03*
%TD*%
D23*
%TO.C,U10*%
X157531401Y-85316300D03*
X157531401Y-86616300D03*
X158831401Y-85316300D03*
X158831401Y-86616300D03*
D24*
X156243901Y-85216300D03*
X156243901Y-85716300D03*
X156243901Y-86216300D03*
X156243901Y-86716300D03*
D25*
X157431401Y-87903800D03*
X157931401Y-87903800D03*
X158431401Y-87903800D03*
X158931401Y-87903800D03*
D24*
X160118901Y-86716300D03*
X160118901Y-86216300D03*
X160118901Y-85716300D03*
X160118901Y-85216300D03*
D25*
X158931401Y-84028800D03*
X158431401Y-84028800D03*
X157931401Y-84028800D03*
X157431401Y-84028800D03*
%TD*%
D15*
%TO.C,C4*%
X137642600Y-106449200D03*
X137642600Y-104724200D03*
%TD*%
D14*
%TO.C,C21*%
X167430892Y-105894512D03*
X169155892Y-105894512D03*
%TD*%
D16*
%TO.C,C33*%
X146202400Y-101066600D03*
X144477400Y-101066600D03*
%TD*%
D26*
%TO.C,U7*%
X161608900Y-105892600D03*
X161008901Y-105892600D03*
X160408899Y-105892600D03*
X159808901Y-105892600D03*
X159208899Y-105892600D03*
X158608900Y-105892600D03*
D27*
X157657800Y-107340400D03*
D26*
X158608900Y-108788200D03*
X159208899Y-108788200D03*
X159808901Y-108788200D03*
X160408899Y-108788200D03*
X161008901Y-108788200D03*
X161608900Y-108788200D03*
D28*
X162560000Y-107340400D03*
%TD*%
D14*
%TO.C,C22*%
X167430892Y-107418512D03*
X169155892Y-107418512D03*
%TD*%
D11*
%TO.C,U8*%
X165959100Y-103275799D03*
X167259100Y-103275799D03*
X165959100Y-101975799D03*
X167259100Y-101975799D03*
D12*
X165859100Y-104563299D03*
X166359100Y-104563299D03*
X166859100Y-104563299D03*
X167359100Y-104563299D03*
D13*
X168546600Y-103375799D03*
X168546600Y-102875799D03*
X168546600Y-102375799D03*
X168546600Y-101875799D03*
D12*
X167359100Y-100688299D03*
X166859100Y-100688299D03*
X166359100Y-100688299D03*
X165859100Y-100688299D03*
D13*
X164671600Y-101875799D03*
X164671600Y-102375799D03*
X164671600Y-102875799D03*
X164671600Y-103375799D03*
%TD*%
D15*
%TO.C,C3*%
X136148600Y-106449200D03*
X136148600Y-104724200D03*
%TD*%
D17*
%TO.C,C30*%
X169408201Y-88710600D03*
X169408201Y-90435600D03*
%TD*%
D16*
%TO.C,C19*%
X165910600Y-99263200D03*
X164185600Y-99263200D03*
%TD*%
D29*
%TO.C,U11*%
X161788201Y-87795100D03*
X161788201Y-88445086D03*
X161788201Y-89095072D03*
X161788201Y-89745058D03*
X166220501Y-89745058D03*
X166220501Y-89095072D03*
X166220501Y-88445086D03*
X166220501Y-87795100D03*
%TD*%
D17*
%TO.C,C27*%
X153263600Y-86639400D03*
X153263600Y-88364400D03*
%TD*%
D15*
%TO.C,C26*%
X163096301Y-85304800D03*
X163096301Y-83579800D03*
%TD*%
D14*
%TO.C,C28*%
X161545100Y-91338400D03*
X163270100Y-91338400D03*
%TD*%
D17*
%TO.C,C25*%
X154787600Y-86638300D03*
X154787600Y-88363300D03*
%TD*%
M02*
