%TF.GenerationSoftware,KiCad,Pcbnew,9.0.7+1*%
%TF.CreationDate,Date%
%TF.ProjectId,proalbmlb,70726f61-6c62-46d6-9c62-2e6b69636164,+ (Unreleased)*%
%TF.SameCoordinates,Original*%
%TF.FileFunction,Soldermask,Bot*%
%TF.FilePolarity,Negative*%
%FSLAX46Y46*%
G04 Gerber Fmt 4.6, Leading zero omitted, Abs format (unit mm)*
G04 Created by KiCad*
%MOMM*%
%LPD*%
G01*
G04 APERTURE LIST*
G04 Aperture macros list*
%AMRoundRect*
0 Rectangle with rounded corners*
0 $1 Rounding radius*
0 $2 $3 $4 $5 $6 $7 $8 $9 X,Y pos of 4 corners*
0 Add a 4 corners polygon primitive as box body*
4,1,4,$2,$3,$4,$5,$6,$7,$8,$9,$2,$3,0*
0 Add four circle primitives for the rounded corners*
1,1,$1+$1,$2,$3*
1,1,$1+$1,$4,$5*
1,1,$1+$1,$6,$7*
1,1,$1+$1,$8,$9*
0 Add four rect primitives between the rounded corners*
20,1,$1+$1,$2,$3,$4,$5,0*
20,1,$1+$1,$4,$5,$6,$7,0*
20,1,$1+$1,$6,$7,$8,$9,0*
20,1,$1+$1,$8,$9,$2,$3,0*%
G04 Aperture macros list end*
%ADD10C,4.100000*%
%ADD11RoundRect,0.050000X0.800000X-0.800000X0.800000X0.800000X-0.800000X0.800000X-0.800000X-0.800000X0*%
%ADD12C,1.700000*%
%ADD13RoundRect,0.225000X-0.225000X-0.475000X0.225000X-0.475000X0.225000X0.475000X-0.225000X0.475000X0*%
%ADD14O,0.900000X1.400000*%
%ADD15RoundRect,0.050000X-0.850000X0.850000X-0.850000X-0.850000X0.850000X-0.850000X0.850000X0.850000X0*%
%ADD16C,3.200000*%
%ADD17C,4.800000*%
%ADD18RoundRect,0.050000X-1.400000X-1.400000X1.400000X-1.400000X1.400000X1.400000X-1.400000X1.400000X0*%
%ADD19O,1.800000X1.800000*%
%ADD20C,2.900000*%
%ADD21C,6.000000*%
%ADD22RoundRect,0.050000X0.850000X-0.850000X0.850000X0.850000X-0.850000X0.850000X-0.850000X-0.850000X0*%
%ADD23C,1.800000*%
%ADD24RoundRect,0.225000X0.475000X-0.225000X0.475000X0.225000X-0.475000X0.225000X-0.475000X-0.225000X0*%
%ADD25O,1.400000X0.900000*%
%ADD26RoundRect,0.050000X1.400000X1.400000X-1.400000X1.400000X-1.400000X-1.400000X1.400000X-1.400000X0*%
%ADD27C,0.650000*%
G04 APERTURE END LIST*
D10*
%TO.C,J1*%
X177437869Y-108918400D03*
X177437869Y-83918400D03*
D11*
X174597869Y-101958400D03*
D12*
X174597869Y-99188400D03*
X174597869Y-96418400D03*
X174597869Y-93648400D03*
X174597869Y-90878400D03*
X177437869Y-100573400D03*
X177437869Y-97803400D03*
X177437869Y-95033400D03*
X177437869Y-92263400D03*
%TD*%
D13*
%TO.C,J8*%
X118333200Y-85344000D03*
D14*
X119583200Y-85344000D03*
%TD*%
D15*
%TO.C,U1*%
X122224800Y-109982000D03*
D16*
X117093800Y-108843000D03*
D17*
X117093800Y-108843000D03*
D18*
X145223716Y-95515084D03*
D16*
X117093800Y-90843000D03*
D17*
X117093800Y-90843000D03*
D19*
X124764800Y-109982000D03*
D20*
X145223716Y-90435084D03*
D19*
X127304800Y-109982000D03*
X129844800Y-109982000D03*
X132384800Y-109982000D03*
X134924800Y-109982000D03*
X137464800Y-109982000D03*
X140004800Y-109982000D03*
%TD*%
D21*
%TO.C,REF\u002A\u002A*%
X119285200Y-75742800D03*
X177285200Y-75742800D03*
X119285200Y-52742800D03*
X177285200Y-52742800D03*
D22*
X124155200Y-74472800D03*
D19*
X124155200Y-77012800D03*
X126695200Y-74472800D03*
X126695200Y-77012800D03*
X129235200Y-74472800D03*
X129235200Y-77012800D03*
X131775200Y-74472800D03*
X131775200Y-77012800D03*
X134315200Y-74472800D03*
X134315200Y-77012800D03*
X136855200Y-74472800D03*
X136855200Y-77012800D03*
X139395200Y-74472800D03*
X139395200Y-77012800D03*
X141935200Y-74472800D03*
X141935200Y-77012800D03*
X144475200Y-74472800D03*
X144475200Y-77012800D03*
X147015200Y-74472800D03*
X147015200Y-77012800D03*
X149555200Y-74472800D03*
X149555200Y-77012800D03*
X152095200Y-74472800D03*
X152095200Y-77012800D03*
X154635200Y-74472800D03*
X154635200Y-77012800D03*
X157175200Y-74472800D03*
X157175200Y-77012800D03*
X159715200Y-74472800D03*
X159715200Y-77012800D03*
X162255200Y-74472800D03*
X162255200Y-77012800D03*
X164795200Y-74472800D03*
X164795200Y-77012800D03*
X167335200Y-74472800D03*
X167335200Y-77012800D03*
X169875200Y-74472800D03*
X169875200Y-77012800D03*
X172415200Y-74472800D03*
X172415200Y-77012800D03*
%TD*%
D22*
%TO.C,J2*%
X122224800Y-109982000D03*
D23*
X124764800Y-109982000D03*
X127304800Y-109982000D03*
X129844800Y-109982000D03*
X132384800Y-109982000D03*
X134924800Y-109982000D03*
X137464800Y-109982000D03*
X140004800Y-109982000D03*
%TD*%
D13*
%TO.C,J10*%
X133699400Y-84325800D03*
D14*
X134949400Y-84325800D03*
X136199400Y-84325800D03*
X137449400Y-84325800D03*
X138699400Y-84325800D03*
X139949400Y-84325800D03*
X141199400Y-84325800D03*
X142449400Y-84325800D03*
%TD*%
D24*
%TO.C,J4*%
X153873200Y-107178800D03*
D25*
X153873200Y-105928800D03*
X153873200Y-104678800D03*
X153873200Y-103428800D03*
%TD*%
D26*
%TO.C,J3*%
X145186400Y-95504000D03*
D20*
X145186400Y-90424000D03*
%TD*%
D13*
%TO.C,J6*%
X166379200Y-110845600D03*
D14*
X167629200Y-110845600D03*
X168879200Y-110845600D03*
X170129200Y-110845600D03*
%TD*%
D27*
X166036505Y-106154963D03*
X170526478Y-101644471D03*
X169638045Y-101585242D03*
X167411156Y-98269975D03*
X167203855Y-99099179D03*
X136144000Y-107518200D03*
X143378384Y-99903493D03*
X152196800Y-88290400D03*
X135051800Y-106502200D03*
X156260800Y-88214200D03*
X143284004Y-99036915D03*
X153289000Y-89560400D03*
X144142002Y-102160027D03*
X139344400Y-101828600D03*
X140919200Y-99695000D03*
X161468131Y-111187153D03*
X154762200Y-89535000D03*
X138709400Y-106680000D03*
X139496800Y-102565200D03*
X149504400Y-98018600D03*
X150495000Y-109448600D03*
X150622000Y-106299000D03*
X149987000Y-110464600D03*
X139420600Y-100482400D03*
X150799800Y-99263200D03*
X150317200Y-108026200D03*
X137820400Y-107569000D03*
X143344064Y-101018890D03*
X163322000Y-104343200D03*
X149301200Y-96393000D03*
X150596600Y-95173800D03*
X159842531Y-111390353D03*
X158623331Y-110094953D03*
X150063200Y-104851200D03*
X143941800Y-103911400D03*
X163372800Y-102870000D03*
X157581600Y-89154000D03*
X170165100Y-102943299D03*
X168272491Y-99950642D03*
X169239896Y-100710746D03*
X169190538Y-99990128D03*
X160121600Y-87579200D03*
M02*
