%TF.GenerationSoftware,KiCad,Pcbnew,9.0.7+1*%
%TF.CreationDate,Date%
%TF.ProjectId,proalbmlb,70726f61-6c62-46d6-9c62-2e6b69636164,+ (Unreleased)*%
%TF.SameCoordinates,Original*%
%TF.FileFunction,Copper,L2,Inr*%
%TF.FilePolarity,Positive*%
%FSLAX46Y46*%
G04 Gerber Fmt 4.6, Leading zero omitted, Abs format (unit mm)*
G04 Created by KiCad*
%MOMM*%
%LPD*%
G01*
G04 APERTURE LIST*
G04 Aperture macros list*
%AMRoundRect*
0 Rectangle with rounded corners*
0 $1 Rounding radius*
0 $2 $3 $4 $5 $6 $7 $8 $9 X,Y pos of 4 corners*
0 Add a 4 corners polygon primitive as box body*
4,1,4,$2,$3,$4,$5,$6,$7,$8,$9,$2,$3,0*
0 Add four circle primitives for the rounded corners*
1,1,$1+$1,$2,$3*
1,1,$1+$1,$4,$5*
1,1,$1+$1,$6,$7*
1,1,$1+$1,$8,$9*
0 Add four rect primitives between the rounded corners*
20,1,$1+$1,$2,$3,$4,$5,0*
20,1,$1+$1,$4,$5,$6,$7,0*
20,1,$1+$1,$6,$7,$8,$9,0*
20,1,$1+$1,$8,$9,$2,$3,0*%
G04 Aperture macros list end*
%TA.AperFunction,HeatsinkPad*%
%ADD10C,0.500000*%
%TD*%
%TA.AperFunction,ComponentPad*%
%ADD11C,4.000000*%
%TD*%
%TA.AperFunction,ComponentPad*%
%ADD12R,1.600000X1.600000*%
%TD*%
%TA.AperFunction,ComponentPad*%
%ADD13C,1.600000*%
%TD*%
%TA.AperFunction,ComponentPad*%
%ADD14RoundRect,0.200000X-0.200000X-0.450000X0.200000X-0.450000X0.200000X0.450000X-0.200000X0.450000X0*%
%TD*%
%TA.AperFunction,ComponentPad*%
%ADD15O,0.800000X1.300000*%
%TD*%
%TA.AperFunction,ComponentPad*%
%ADD16R,1.700000X1.700000*%
%TD*%
%TA.AperFunction,ComponentPad*%
%ADD17C,3.100000*%
%TD*%
%TA.AperFunction,ComponentPad*%
%ADD18R,2.800000X2.800000*%
%TD*%
%TA.AperFunction,ComponentPad*%
%ADD19O,1.700000X1.700000*%
%TD*%
%TA.AperFunction,ComponentPad*%
%ADD20C,2.800000*%
%TD*%
%TA.AperFunction,ComponentPad*%
%ADD21C,1.700000*%
%TD*%
%TA.AperFunction,ComponentPad*%
%ADD22RoundRect,0.200000X0.450000X-0.200000X0.450000X0.200000X-0.450000X0.200000X-0.450000X-0.200000X0*%
%TD*%
%TA.AperFunction,ComponentPad*%
%ADD23O,1.300000X0.800000*%
%TD*%
%TA.AperFunction,ViaPad*%
%ADD24C,0.550000*%
%TD*%
%TA.AperFunction,Conductor*%
%ADD25C,0.500000*%
%TD*%
%TA.AperFunction,Conductor*%
%ADD26C,0.508000*%
%TD*%
%TA.AperFunction,Conductor*%
%ADD27C,0.200000*%
%TD*%
G04 APERTURE END LIST*
D10*
%TO.N,GND*%
%TO.C,U12*%
X145812800Y-105596400D03*
X146862800Y-105596400D03*
X147912800Y-105596400D03*
X145812800Y-104546400D03*
X146862800Y-104546400D03*
X147912800Y-104546400D03*
X145812800Y-103496400D03*
X146862800Y-103496400D03*
X147912800Y-103496400D03*
%TD*%
D11*
%TO.N,GND*%
%TO.C,J1*%
X177437869Y-108918400D03*
X177437869Y-83918400D03*
D12*
%TO.N,/Project Architecture/Connectors/J1_1*%
X174597869Y-101958400D03*
D13*
%TO.N,/Project Architecture/Connectors/J1_2*%
X174597869Y-99188400D03*
%TO.N,/Project Architecture/Connectors/J1_3*%
X174597869Y-96418400D03*
%TO.N,/Project Architecture/Connectors/J1_4*%
X174597869Y-93648400D03*
%TO.N,/Project Architecture/Connectors/J1_5*%
X174597869Y-90878400D03*
%TO.N,/Project Architecture/Connectors/J1_6*%
X177437869Y-100573400D03*
%TO.N,/Project Architecture/Connectors/J1_7*%
X177437869Y-97803400D03*
%TO.N,/Project Architecture/Connectors/J1_8*%
X177437869Y-95033400D03*
%TO.N,/Project Architecture/Connectors/J1_9*%
X177437869Y-92263400D03*
%TD*%
D14*
%TO.N,+5V*%
%TO.C,J8*%
X118333200Y-85344000D03*
D15*
X119583200Y-85344000D03*
%TD*%
D16*
%TO.N,unconnected-(U12-EPAD-Pad17)_2*%
%TO.C,U1*%
X122224800Y-109982000D03*
D17*
%TO.N,GND*%
X117093800Y-108843000D03*
D18*
X145223716Y-95515084D03*
D17*
X117093800Y-90843000D03*
D19*
%TO.N,unconnected-(U12-EPAD-Pad17)_1*%
X124764800Y-109982000D03*
D20*
%TO.N,VDD*%
X145223716Y-90435084D03*
D19*
%TO.N,unconnected-(U1-PD_INT_3V-Pad3)_6*%
X127304800Y-109982000D03*
%TO.N,/Project Architecture/Connectors/SDA*%
X129844800Y-109982000D03*
%TO.N,/Project Architecture/Connectors/SDC*%
X132384800Y-109982000D03*
%TO.N,+3.3V*%
X134924800Y-109982000D03*
%TO.N,GND*%
X137464800Y-109982000D03*
%TO.N,+5V*%
X140004800Y-109982000D03*
%TD*%
D16*
%TO.N,N/C*%
%TO.C,REF\u002A\u002A*%
X124155200Y-74472800D03*
D19*
X124155200Y-77012800D03*
%TO.N,/Project Architecture/Connectors/SDC*%
X126695200Y-74472800D03*
%TO.N,N/C*%
X126695200Y-77012800D03*
%TO.N,/Project Architecture/Connectors/SDA*%
X129235200Y-74472800D03*
%TO.N,N/C*%
X129235200Y-77012800D03*
X131775200Y-74472800D03*
X131775200Y-77012800D03*
X134315200Y-74472800D03*
X134315200Y-77012800D03*
X136855200Y-74472800D03*
X136855200Y-77012800D03*
X139395200Y-74472800D03*
X139395200Y-77012800D03*
X141935200Y-74472800D03*
X141935200Y-77012800D03*
X144475200Y-74472800D03*
X144475200Y-77012800D03*
X147015200Y-74472800D03*
X147015200Y-77012800D03*
X149555200Y-74472800D03*
X149555200Y-77012800D03*
X152095200Y-74472800D03*
X152095200Y-77012800D03*
X154635200Y-74472800D03*
X154635200Y-77012800D03*
X157175200Y-74472800D03*
X157175200Y-77012800D03*
X159715200Y-74472800D03*
X159715200Y-77012800D03*
X162255200Y-74472800D03*
%TO.N,/Project Architecture/Raspberrypi/PWM*%
X162255200Y-77012800D03*
%TO.N,N/C*%
X164795200Y-74472800D03*
X164795200Y-77012800D03*
X167335200Y-74472800D03*
X167335200Y-77012800D03*
X169875200Y-74472800D03*
X169875200Y-77012800D03*
X172415200Y-74472800D03*
X172415200Y-77012800D03*
%TD*%
D16*
%TO.N,unconnected-(J2-Pin_1-Pad1)*%
%TO.C,J2*%
X122224800Y-109982000D03*
D21*
%TO.N,unconnected-(J2-Pin_2-Pad2)*%
X124764800Y-109982000D03*
%TO.N,unconnected-(J2-Pin_3-Pad3)*%
X127304800Y-109982000D03*
%TO.N,/Project Architecture/Connectors/SDA*%
X129844800Y-109982000D03*
%TO.N,/Project Architecture/Connectors/SDC*%
X132384800Y-109982000D03*
%TO.N,+3.3V*%
X134924800Y-109982000D03*
%TO.N,GND*%
X137464800Y-109982000D03*
%TO.N,+5V*%
X140004800Y-109982000D03*
%TD*%
D14*
%TO.N,+3.3V*%
%TO.C,J10*%
X133699400Y-84325800D03*
D15*
%TO.N,/Project Architecture/Connectors/RE1.A*%
X134949400Y-84325800D03*
%TO.N,/Project Architecture/Connectors/RE1.B*%
X136199400Y-84325800D03*
%TO.N,/Project Architecture/Connectors/RE1.C*%
X137449400Y-84325800D03*
%TO.N,/Project Architecture/Connectors/RE2.A*%
X138699400Y-84325800D03*
%TO.N,/Project Architecture/Connectors/RE2.B*%
X139949400Y-84325800D03*
%TO.N,/Project Architecture/Connectors/RE2.C*%
X141199400Y-84325800D03*
%TO.N,GND*%
X142449400Y-84325800D03*
%TD*%
D10*
%TO.N,unconnected-(U10-EPAD-Pad17)*%
%TO.C,U10*%
X157131401Y-84916300D03*
X157131401Y-85966300D03*
X157131401Y-87016300D03*
X158181401Y-84916300D03*
X158181401Y-85966300D03*
X158181401Y-87016300D03*
X159231401Y-84916300D03*
X159231401Y-85966300D03*
X159231401Y-87016300D03*
%TD*%
D22*
%TO.N,/Project Architecture/Motor A/+M*%
%TO.C,J4*%
X153873200Y-107178800D03*
D23*
%TO.N,/Project Architecture/Motor A/-M*%
X153873200Y-105928800D03*
%TO.N,/Project Architecture/MotorB/-MB*%
X153873200Y-104678800D03*
%TO.N,/Project Architecture/MotorB/+MB*%
X153873200Y-103428800D03*
%TD*%
D10*
%TO.N,unconnected-(U8-EPAD-Pad17)*%
%TO.C,U8*%
X165559100Y-103675799D03*
X166609100Y-103675799D03*
X167659100Y-103675799D03*
X165559100Y-102625799D03*
X166609100Y-102625799D03*
X167659100Y-102625799D03*
X165559100Y-101575799D03*
X166609100Y-101575799D03*
X167659100Y-101575799D03*
%TD*%
D18*
%TO.N,GND*%
%TO.C,J3*%
X145186400Y-95504000D03*
D20*
%TO.N,VDD*%
X145186400Y-90424000D03*
%TD*%
D14*
%TO.N,+5V*%
%TO.C,J6*%
X166379200Y-110845600D03*
D15*
%TO.N,/Project Architecture/Connectors/Stow*%
X167629200Y-110845600D03*
%TO.N,GND*%
X168879200Y-110845600D03*
%TO.N,/Project Architecture/Connectors/SFF*%
X170129200Y-110845600D03*
%TD*%
D24*
%TO.N,/Project Architecture/Connectors/J1_1*%
X166036505Y-106154963D03*
%TO.N,/Project Architecture/Connectors/J1_3*%
X170526478Y-101644471D03*
X169638045Y-101585242D03*
%TO.N,/Project Architecture/Connectors/J1_8*%
X163368740Y-88674393D03*
X163368740Y-88674393D03*
%TO.N,/Project Architecture/Connectors/J1_4*%
X167411156Y-98269975D03*
X167203855Y-99099179D03*
%TO.N,GND*%
X164316447Y-100333019D03*
X169392903Y-91406685D03*
X164464519Y-96705250D03*
X164312600Y-91414600D03*
X136144000Y-107518200D03*
X161086800Y-107899200D03*
X163087448Y-97549261D03*
X166772026Y-90592288D03*
X162941000Y-90373200D03*
X160629600Y-107340400D03*
X143378384Y-99903493D03*
X170394859Y-105454088D03*
X163169600Y-82550000D03*
X142722600Y-104317800D03*
X153416000Y-96113600D03*
X152196800Y-88290400D03*
X161518600Y-82575400D03*
X135051800Y-106502200D03*
X156260800Y-88214200D03*
X169341901Y-104368225D03*
X153873200Y-96672400D03*
X143284004Y-99036915D03*
X153289000Y-89560400D03*
X163245800Y-93853000D03*
X144142002Y-102160027D03*
X139344400Y-101828600D03*
X159461200Y-107340400D03*
X170322468Y-107237535D03*
X153890140Y-95626326D03*
X153873200Y-97688400D03*
X153374979Y-97199450D03*
X164223443Y-83280943D03*
X159969200Y-106883200D03*
X163117062Y-99326128D03*
X140919200Y-99695000D03*
X159004000Y-106832400D03*
X152958800Y-96621600D03*
X161468131Y-111187153D03*
X154762200Y-89535000D03*
X164388800Y-92938600D03*
X159969200Y-107746800D03*
X138709400Y-106680000D03*
X139496800Y-102565200D03*
X149504400Y-98018600D03*
X167867760Y-91421493D03*
X161086800Y-106832400D03*
X150495000Y-109448600D03*
X160528000Y-83261200D03*
X150622000Y-106299000D03*
X170539640Y-108020672D03*
X149987000Y-110464600D03*
X162712731Y-109891753D03*
X139420600Y-100482400D03*
X152874140Y-95626326D03*
X159004000Y-107848400D03*
X150799800Y-99263200D03*
X170355373Y-90266529D03*
X150317200Y-108026200D03*
X137820400Y-107569000D03*
X143344064Y-101018890D03*
X152908000Y-97688400D03*
X171303093Y-104948520D03*
X170057879Y-83098453D03*
X165682108Y-98314034D03*
X165907350Y-86013536D03*
X172989058Y-103996142D03*
X164265639Y-98426637D03*
X163590756Y-90862287D03*
X165128699Y-94581743D03*
X168918886Y-86167940D03*
X168759129Y-108603590D03*
X171637712Y-102075291D03*
X172239374Y-90337845D03*
X165983780Y-96341702D03*
X163513536Y-92084934D03*
X165978117Y-82928998D03*
X169198835Y-93194978D03*
X170965247Y-87500017D03*
X166904755Y-95469771D03*
X163841702Y-95444031D03*
X162413136Y-83214283D03*
X166176829Y-94218158D03*
%TO.N,/Project Architecture/Connectors/J1_5*%
X154432000Y-85191600D03*
X153429899Y-85244529D03*
%TO.N,/Project Architecture/Connectors/J1_2*%
X163322000Y-104343200D03*
%TO.N,/Project Architecture/Connectors/J1_6*%
X156514800Y-81889600D03*
X156557301Y-82683405D03*
%TO.N,/Project Architecture/Connectors/SDC*%
X157482772Y-104560623D03*
X155981533Y-94397935D03*
%TO.N,+5V*%
X149301200Y-96393000D03*
X150596600Y-95173800D03*
X159842531Y-111390353D03*
X158623331Y-110094953D03*
%TO.N,/Project Architecture/Connectors/SDA*%
X158052802Y-103367915D03*
X156749767Y-94730179D03*
%TO.N,/Project Architecture/Connectors/+M*%
X145669000Y-108331000D03*
X145059400Y-107746800D03*
X143840200Y-105537000D03*
X144424400Y-106019600D03*
%TO.N,/Project Architecture/Connectors/-M*%
X150825200Y-103479600D03*
X148463000Y-101473000D03*
X147624800Y-101092000D03*
X150164800Y-102819200D03*
%TO.N,/Project Architecture/Connectors/SFF*%
X164328739Y-87487612D03*
%TO.N,/Project Architecture/Connectors/Stow*%
X150063200Y-104851200D03*
X143941800Y-103911400D03*
X163372800Y-102870000D03*
X157581600Y-89154000D03*
X170165100Y-102943299D03*
X157856400Y-82804000D03*
%TO.N,VDD*%
X158262554Y-90965247D03*
X156344929Y-91685965D03*
X158249684Y-92033454D03*
%TO.N,/Project Architecture/Raspberrypi/PWM*%
X138023600Y-103174800D03*
%TO.N,/Project Architecture/Motor A/-M*%
X168272491Y-99950642D03*
X169239896Y-100710746D03*
X169190538Y-99990128D03*
%TO.N,/Project Architecture/MotorB/-MB*%
X160121600Y-87579200D03*
%TD*%
D25*
%TO.N,/Project Architecture/Connectors/J1_1*%
X173539241Y-105167309D02*
X174568838Y-104137712D01*
X172522514Y-106184036D02*
X173539241Y-105167309D01*
X166067650Y-106184036D02*
X172522514Y-106184036D01*
X166038577Y-106154963D02*
X166067650Y-106184036D01*
X174568838Y-104137712D02*
X174568838Y-102291162D01*
X166036505Y-106154963D02*
X166038577Y-106154963D01*
D26*
%TO.N,/Project Architecture/Connectors/J1_8*%
X163536050Y-88674393D02*
X167088161Y-92226504D01*
X163368740Y-88674393D02*
X163536050Y-88674393D01*
X175260607Y-92249035D02*
X177437869Y-94426297D01*
X172413118Y-92249035D02*
X175260607Y-92249035D01*
X167088161Y-92226504D02*
X172390587Y-92226504D01*
D27*
X172390587Y-92226504D02*
X172413118Y-92249035D01*
D26*
%TO.N,/Project Architecture/Connectors/J1_5*%
X154432000Y-85191600D02*
X155423190Y-84200410D01*
X173278800Y-89559331D02*
X174597869Y-90878400D01*
X155423190Y-84200410D02*
X170560410Y-84200410D01*
X173278800Y-86918800D02*
X173278800Y-89559331D01*
X170560410Y-84200410D02*
X173278800Y-86918800D01*
D25*
%TO.N,/Project Architecture/Connectors/J1_2*%
X174548800Y-99110800D02*
X172618400Y-101041200D01*
X172618400Y-102188550D02*
X169626771Y-105180179D01*
X169626771Y-105180179D02*
X164158979Y-105180179D01*
X164158979Y-105180179D02*
X163322000Y-104343200D01*
X172618400Y-101041200D02*
X172618400Y-102188550D01*
%TO.N,/Project Architecture/Connectors/J1_6*%
X179781200Y-98247200D02*
X179764069Y-98247200D01*
X179764069Y-98247200D02*
X177437869Y-100573400D01*
X156514800Y-81889600D02*
X156699112Y-81705288D01*
X179781200Y-90424000D02*
X179781200Y-98247200D01*
X156699112Y-81705288D02*
X171062488Y-81705288D01*
X171062488Y-81705288D02*
X179781200Y-90424000D01*
D27*
%TO.N,/Project Architecture/MotorB/-MB*%
X153873200Y-104678800D02*
X154299600Y-104678800D01*
%TD*%
%TA.AperFunction,Conductor*%
%TO.N,GND*%
G36*
X172125397Y-100976389D02*
G01*
X172162986Y-101035286D01*
X172167900Y-101069846D01*
X172167900Y-101950585D01*
X172148215Y-102017624D01*
X172131581Y-102038266D01*
X169476487Y-104693360D01*
X169415164Y-104726845D01*
X169388806Y-104729679D01*
X164396944Y-104729679D01*
X164329905Y-104709994D01*
X164309263Y-104693360D01*
X163762335Y-104146432D01*
X163742628Y-104120750D01*
X163702495Y-104051236D01*
X163613965Y-103962706D01*
X163613964Y-103962705D01*
X163568456Y-103936431D01*
X163520241Y-103885865D01*
X163507017Y-103817258D01*
X163532985Y-103752393D01*
X163583846Y-103714138D01*
X165193283Y-103061341D01*
X165193286Y-103061339D01*
X165193295Y-103061336D01*
X165198380Y-103059065D01*
X165206254Y-103055550D01*
X165212337Y-103052578D01*
X165214737Y-103051386D01*
X165222442Y-103045001D01*
X165286622Y-103017385D01*
X165355545Y-103028851D01*
X165363559Y-103033095D01*
X165367916Y-103035611D01*
X165381433Y-103043416D01*
X165429645Y-103093986D01*
X165442864Y-103162594D01*
X165416892Y-103227457D01*
X165381427Y-103258185D01*
X165282493Y-103315306D01*
X165282484Y-103315312D01*
X165198613Y-103399183D01*
X165198611Y-103399186D01*
X165142485Y-103496399D01*
X165139301Y-103501913D01*
X165108600Y-103616490D01*
X165108600Y-103735108D01*
X165139301Y-103849685D01*
X165198611Y-103952412D01*
X165282487Y-104036288D01*
X165385214Y-104095598D01*
X165499791Y-104126299D01*
X165499794Y-104126299D01*
X165618406Y-104126299D01*
X165618409Y-104126299D01*
X165732986Y-104095598D01*
X165835713Y-104036288D01*
X165919589Y-103952412D01*
X165976713Y-103853470D01*
X166027281Y-103805256D01*
X166095888Y-103792034D01*
X166160752Y-103818002D01*
X166191486Y-103853470D01*
X166248611Y-103952412D01*
X166332487Y-104036288D01*
X166435214Y-104095598D01*
X166549791Y-104126299D01*
X166549794Y-104126299D01*
X166668406Y-104126299D01*
X166668409Y-104126299D01*
X166782986Y-104095598D01*
X166885713Y-104036288D01*
X166969589Y-103952412D01*
X167026713Y-103853470D01*
X167077281Y-103805256D01*
X167145888Y-103792034D01*
X167210752Y-103818002D01*
X167241486Y-103853470D01*
X167298611Y-103952412D01*
X167382487Y-104036288D01*
X167485214Y-104095598D01*
X167599791Y-104126299D01*
X167599794Y-104126299D01*
X167718406Y-104126299D01*
X167718409Y-104126299D01*
X167832986Y-104095598D01*
X167935713Y-104036288D01*
X168019589Y-103952412D01*
X168078899Y-103849685D01*
X168109600Y-103735108D01*
X168109600Y-103616490D01*
X168078899Y-103501913D01*
X168019589Y-103399186D01*
X167935713Y-103315310D01*
X167836771Y-103258185D01*
X167788557Y-103207618D01*
X167775335Y-103139011D01*
X167801303Y-103074147D01*
X167836772Y-103043412D01*
X167842531Y-103040087D01*
X167935713Y-102986288D01*
X168019589Y-102902412D01*
X168078899Y-102799685D01*
X168109600Y-102685108D01*
X168109600Y-102566490D01*
X168078899Y-102451913D01*
X168019589Y-102349186D01*
X167935713Y-102265310D01*
X167836771Y-102208185D01*
X167813856Y-102184152D01*
X167790261Y-102160808D01*
X167789852Y-102158976D01*
X167788557Y-102157618D01*
X167782276Y-102125029D01*
X167775043Y-102092616D01*
X167775689Y-102090852D01*
X167775335Y-102089011D01*
X167787667Y-102058206D01*
X167799109Y-102027021D01*
X167800732Y-102025572D01*
X167801303Y-102024147D01*
X167823932Y-102001931D01*
X167831921Y-101995883D01*
X167832986Y-101995598D01*
X167935713Y-101936288D01*
X168013788Y-101858212D01*
X168020586Y-101853067D01*
X168045595Y-101843586D01*
X168069068Y-101830769D01*
X168079171Y-101830857D01*
X168085918Y-101828300D01*
X168098798Y-101831029D01*
X168123905Y-101831249D01*
X168138003Y-101834577D01*
X168175505Y-101834853D01*
X168254257Y-101819791D01*
X168681545Y-101646479D01*
X168751063Y-101639524D01*
X168813310Y-101671258D01*
X168848519Y-101731608D01*
X168845511Y-101801413D01*
X168843274Y-101807454D01*
X168808961Y-101893206D01*
X168808960Y-101893209D01*
X168798916Y-101926022D01*
X168795459Y-101941970D01*
X168791872Y-101964509D01*
X168791872Y-101964512D01*
X168803013Y-102055287D01*
X168803013Y-102055289D01*
X168803014Y-102055290D01*
X168815749Y-102090561D01*
X168849646Y-102150480D01*
X168849646Y-102150481D01*
X168849647Y-102150482D01*
X168849648Y-102150483D01*
X168921713Y-102206793D01*
X168955662Y-102222729D01*
X169033499Y-102241985D01*
X169902450Y-102282134D01*
X169968508Y-102304892D01*
X170011777Y-102359751D01*
X170018518Y-102429295D01*
X169986590Y-102491443D01*
X169958725Y-102513389D01*
X169873139Y-102562801D01*
X169873134Y-102562805D01*
X169784606Y-102651333D01*
X169784604Y-102651336D01*
X169722005Y-102759762D01*
X169712749Y-102794305D01*
X169689600Y-102880698D01*
X169689600Y-103005900D01*
X169722005Y-103126835D01*
X169784605Y-103235263D01*
X169873136Y-103323794D01*
X169981564Y-103386394D01*
X170102499Y-103418799D01*
X170102501Y-103418799D01*
X170227699Y-103418799D01*
X170227701Y-103418799D01*
X170348636Y-103386394D01*
X170457064Y-103323794D01*
X170545595Y-103235263D01*
X170608195Y-103126835D01*
X170640600Y-103005900D01*
X170640600Y-102880698D01*
X170608195Y-102759763D01*
X170545595Y-102651335D01*
X170457064Y-102562804D01*
X170457063Y-102562803D01*
X170457060Y-102562801D01*
X170418168Y-102540347D01*
X170369952Y-102489780D01*
X170356729Y-102421173D01*
X170382697Y-102356308D01*
X170439612Y-102315780D01*
X170485888Y-102309092D01*
X170930597Y-102329640D01*
X170957003Y-102329161D01*
X170969530Y-102328126D01*
X170984325Y-102326362D01*
X171069279Y-102292494D01*
X171100152Y-102271202D01*
X171156009Y-102213677D01*
X171714562Y-101350536D01*
X171939796Y-101002479D01*
X171992744Y-100956890D01*
X172061933Y-100947164D01*
X172125397Y-100976389D01*
G37*
%TD.AperFunction*%
%TA.AperFunction,Conductor*%
G36*
X162910703Y-88845688D02*
G01*
X162936886Y-88877400D01*
X162988245Y-88966357D01*
X163076776Y-89054888D01*
X163185204Y-89117488D01*
X163306139Y-89149893D01*
X163317428Y-89149893D01*
X163384467Y-89169578D01*
X163405109Y-89186212D01*
X166724468Y-92505571D01*
X166724470Y-92505574D01*
X166809091Y-92590195D01*
X166848116Y-92612726D01*
X166912731Y-92650032D01*
X167028325Y-92681005D01*
X167028327Y-92681005D01*
X167155593Y-92681005D01*
X167155609Y-92681004D01*
X172252869Y-92681004D01*
X172284962Y-92685229D01*
X172353282Y-92703535D01*
X172646003Y-92703535D01*
X172713042Y-92723220D01*
X172758797Y-92776024D01*
X172768741Y-92845182D01*
X172739716Y-92908738D01*
X172721525Y-92925884D01*
X171888936Y-93565226D01*
X170706177Y-94473462D01*
X166665051Y-97576626D01*
X166612959Y-97635634D01*
X166594319Y-97667409D01*
X166568228Y-97741676D01*
X166299263Y-99581964D01*
X166299263Y-99581966D01*
X166297104Y-99611517D01*
X166297103Y-99611537D01*
X166297093Y-99625625D01*
X166298036Y-99647365D01*
X166281275Y-99715195D01*
X166230503Y-99763195D01*
X166228774Y-99764061D01*
X163033240Y-101331998D01*
X162602100Y-101543543D01*
X160402297Y-102622908D01*
X159971161Y-102834451D01*
X158706924Y-103454767D01*
X158705161Y-103455070D01*
X158703813Y-103456239D01*
X158670878Y-103460974D01*
X158638068Y-103466625D01*
X158636423Y-103465928D01*
X158634655Y-103466183D01*
X158604365Y-103452350D01*
X158573731Y-103439375D01*
X158572724Y-103437900D01*
X158571099Y-103437158D01*
X158553102Y-103409154D01*
X158534340Y-103381668D01*
X158533982Y-103379402D01*
X158533325Y-103378380D01*
X158528302Y-103343445D01*
X158528302Y-103320869D01*
X158547987Y-103253830D01*
X158585605Y-103217031D01*
X158585594Y-103217016D01*
X158585714Y-103216925D01*
X158587580Y-103215100D01*
X158590440Y-103213348D01*
X158590454Y-103213342D01*
X162604482Y-100178628D01*
X162615514Y-100169672D01*
X162620611Y-100165233D01*
X162622581Y-100163495D01*
X162663437Y-100105913D01*
X162675504Y-100088909D01*
X162681252Y-100075032D01*
X162689857Y-100054259D01*
X162705500Y-99975616D01*
X162705500Y-90571005D01*
X162703741Y-90544178D01*
X162702071Y-90531495D01*
X162696827Y-90505133D01*
X162675225Y-90424514D01*
X162671000Y-90392420D01*
X162671000Y-90353975D01*
X162675226Y-90321879D01*
X162678645Y-90309122D01*
X162696827Y-90241267D01*
X162702071Y-90214905D01*
X162703741Y-90202222D01*
X162705025Y-90182636D01*
X162705500Y-90175400D01*
X162705500Y-88939401D01*
X162725185Y-88872362D01*
X162777989Y-88826607D01*
X162847147Y-88816663D01*
X162910703Y-88845688D01*
G37*
%TD.AperFunction*%
%TA.AperFunction,Conductor*%
G36*
X170387827Y-84674595D02*
G01*
X170408469Y-84691229D01*
X172787981Y-87070741D01*
X172821466Y-87132064D01*
X172824300Y-87158422D01*
X172824300Y-89491882D01*
X172824299Y-89491900D01*
X172824299Y-89619166D01*
X172848726Y-89710331D01*
X172855272Y-89734760D01*
X172855274Y-89734765D01*
X172915106Y-89838397D01*
X172915111Y-89838403D01*
X173006795Y-89930087D01*
X173006801Y-89930092D01*
X173104592Y-90027883D01*
X173129636Y-90063900D01*
X173630617Y-91156989D01*
X173633688Y-91165094D01*
X173711233Y-91352306D01*
X173711239Y-91352317D01*
X173735195Y-91388170D01*
X173735194Y-91388170D01*
X173739579Y-91394733D01*
X173740168Y-91396016D01*
X173747543Y-91410556D01*
X173748440Y-91412163D01*
X173750749Y-91416192D01*
X173761619Y-91427719D01*
X173767385Y-91436348D01*
X173767390Y-91436354D01*
X173820729Y-91516181D01*
X173820732Y-91516185D01*
X173887401Y-91582854D01*
X173920886Y-91644177D01*
X173915902Y-91713869D01*
X173874030Y-91769802D01*
X173808566Y-91794219D01*
X173799720Y-91794535D01*
X172550836Y-91794535D01*
X172518743Y-91790310D01*
X172510733Y-91788164D01*
X172450423Y-91772004D01*
X172450422Y-91772004D01*
X167327783Y-91772004D01*
X167260744Y-91752319D01*
X167240102Y-91735685D01*
X163906811Y-88402394D01*
X163906809Y-88402391D01*
X163815122Y-88310704D01*
X163815116Y-88310699D01*
X163711484Y-88250867D01*
X163711479Y-88250865D01*
X163687053Y-88244319D01*
X163687053Y-88244320D01*
X163641469Y-88232106D01*
X163595886Y-88219892D01*
X163595885Y-88219892D01*
X163526035Y-88219892D01*
X163493942Y-88215667D01*
X163469370Y-88209083D01*
X163431341Y-88198893D01*
X163306139Y-88198893D01*
X163243539Y-88215667D01*
X163185203Y-88231298D01*
X163076777Y-88293897D01*
X163076774Y-88293899D01*
X162988246Y-88382427D01*
X162988242Y-88382432D01*
X162936887Y-88471384D01*
X162886321Y-88519599D01*
X162817714Y-88532823D01*
X162752849Y-88506855D01*
X162712320Y-88449941D01*
X162705500Y-88409384D01*
X162705500Y-87425011D01*
X163853239Y-87425011D01*
X163853239Y-87550213D01*
X163885644Y-87671148D01*
X163948244Y-87779576D01*
X164036775Y-87868107D01*
X164145203Y-87930707D01*
X164266138Y-87963112D01*
X164266140Y-87963112D01*
X164391338Y-87963112D01*
X164391340Y-87963112D01*
X164512275Y-87930707D01*
X164620703Y-87868107D01*
X164709234Y-87779576D01*
X164771834Y-87671148D01*
X164804239Y-87550213D01*
X164804239Y-87425011D01*
X164771834Y-87304076D01*
X164709234Y-87195648D01*
X164620703Y-87107117D01*
X164512275Y-87044517D01*
X164512276Y-87044517D01*
X164471963Y-87033715D01*
X164391340Y-87012112D01*
X164266138Y-87012112D01*
X164185514Y-87033715D01*
X164145202Y-87044517D01*
X164036776Y-87107116D01*
X164036773Y-87107118D01*
X163948245Y-87195646D01*
X163948243Y-87195649D01*
X163885644Y-87304075D01*
X163885644Y-87304076D01*
X163853239Y-87425011D01*
X162705500Y-87425011D01*
X162705500Y-87019993D01*
X162705500Y-87019922D01*
X162705483Y-87017243D01*
X162705466Y-87015939D01*
X162687680Y-86934951D01*
X162672411Y-86900697D01*
X162634246Y-86843402D01*
X162632769Y-86842412D01*
X162558279Y-86792483D01*
X162558277Y-86792482D01*
X162523259Y-86779057D01*
X162523258Y-86779056D01*
X162523259Y-86779056D01*
X162444227Y-86765512D01*
X159723536Y-86837946D01*
X159655997Y-86820053D01*
X159612850Y-86775991D01*
X159591890Y-86739687D01*
X159508014Y-86655811D01*
X159409072Y-86598686D01*
X159360858Y-86548119D01*
X159347636Y-86479512D01*
X159373604Y-86414648D01*
X159409073Y-86383913D01*
X159508014Y-86326789D01*
X159591890Y-86242913D01*
X159651200Y-86140186D01*
X159681901Y-86025609D01*
X159681901Y-85906991D01*
X159651200Y-85792414D01*
X159591890Y-85689687D01*
X159508014Y-85605811D01*
X159409072Y-85548686D01*
X159360858Y-85498119D01*
X159347636Y-85429512D01*
X159373604Y-85364648D01*
X159409073Y-85333913D01*
X159508014Y-85276789D01*
X159591890Y-85192913D01*
X159651200Y-85090186D01*
X159681901Y-84975609D01*
X159681901Y-84856991D01*
X159669578Y-84811001D01*
X159671241Y-84741154D01*
X159710403Y-84683291D01*
X159774632Y-84655787D01*
X159789353Y-84654910D01*
X170320788Y-84654910D01*
X170387827Y-84674595D01*
G37*
%TD.AperFunction*%
%TA.AperFunction,Conductor*%
G36*
X182115339Y-47006185D02*
G01*
X182161094Y-47058989D01*
X182172300Y-47110500D01*
X182172300Y-112452300D01*
X182152615Y-112519339D01*
X182099811Y-112565094D01*
X182048300Y-112576300D01*
X111829700Y-112576300D01*
X111762661Y-112556615D01*
X111716906Y-112503811D01*
X111705700Y-112452300D01*
X111705700Y-111327752D01*
X159367031Y-111327752D01*
X159367031Y-111452954D01*
X159399436Y-111573889D01*
X159462036Y-111682317D01*
X159550567Y-111770848D01*
X159658995Y-111833448D01*
X159779930Y-111865853D01*
X159779932Y-111865853D01*
X159905130Y-111865853D01*
X159905132Y-111865853D01*
X160026067Y-111833448D01*
X160134495Y-111770848D01*
X160223026Y-111682317D01*
X160285626Y-111573889D01*
X160318031Y-111452954D01*
X160318031Y-111327752D01*
X160285626Y-111206817D01*
X160223026Y-111098389D01*
X160134495Y-111009858D01*
X160026067Y-110947258D01*
X160026068Y-110947258D01*
X159982000Y-110935450D01*
X159905132Y-110914853D01*
X159779930Y-110914853D01*
X159703062Y-110935450D01*
X159658994Y-110947258D01*
X159550568Y-111009857D01*
X159550565Y-111009859D01*
X159462037Y-111098387D01*
X159462035Y-111098390D01*
X159399436Y-111206816D01*
X159392395Y-111233095D01*
X159367031Y-111327752D01*
X111705700Y-111327752D01*
X111705700Y-111097269D01*
X136703082Y-111097269D01*
X136703082Y-111097270D01*
X136757249Y-111136624D01*
X136946582Y-111233095D01*
X137148671Y-111298757D01*
X137214800Y-111309231D01*
X137214800Y-111309230D01*
X137714800Y-111309230D01*
X137780926Y-111298757D01*
X137780929Y-111298757D01*
X137983017Y-111233095D01*
X138030034Y-111209139D01*
X138172354Y-111136622D01*
X138226516Y-111097270D01*
X138226517Y-111097270D01*
X137714800Y-110585553D01*
X137714800Y-111309230D01*
X137214800Y-111309230D01*
X137214800Y-110585554D01*
X137214799Y-110585553D01*
X136703082Y-111097269D01*
X111705700Y-111097269D01*
X111705700Y-108708642D01*
X115043800Y-108708642D01*
X115043800Y-108977357D01*
X115043801Y-108977373D01*
X115078875Y-109243791D01*
X115148427Y-109503363D01*
X115251263Y-109751630D01*
X115251267Y-109751640D01*
X115385626Y-109984358D01*
X115478219Y-110105026D01*
X115978528Y-109604716D01*
X116064078Y-109722466D01*
X116214334Y-109872722D01*
X116332081Y-109958270D01*
X115831772Y-110458579D01*
X115952442Y-110551173D01*
X116185159Y-110685532D01*
X116185169Y-110685536D01*
X116433436Y-110788372D01*
X116693008Y-110857924D01*
X116959426Y-110892998D01*
X116959443Y-110893000D01*
X117228157Y-110893000D01*
X117228173Y-110892998D01*
X117494591Y-110857924D01*
X117754163Y-110788372D01*
X118002430Y-110685536D01*
X118002440Y-110685532D01*
X118235156Y-110551173D01*
X118235173Y-110551162D01*
X118355826Y-110458580D01*
X118355826Y-110458578D01*
X117855518Y-109958270D01*
X117973266Y-109872722D01*
X118123522Y-109722466D01*
X118209070Y-109604718D01*
X118709378Y-110105026D01*
X118709380Y-110105026D01*
X118801962Y-109984373D01*
X118801973Y-109984356D01*
X118936332Y-109751640D01*
X118936336Y-109751630D01*
X119039172Y-109503363D01*
X119108723Y-109243791D01*
X119126042Y-109112247D01*
X121174300Y-109112247D01*
X121174300Y-110851752D01*
X121185931Y-110910229D01*
X121185932Y-110910230D01*
X121230247Y-110976552D01*
X121296569Y-111020867D01*
X121296570Y-111020868D01*
X121355047Y-111032499D01*
X121355050Y-111032500D01*
X121355052Y-111032500D01*
X123094550Y-111032500D01*
X123094551Y-111032499D01*
X123109368Y-111029552D01*
X123153029Y-111020868D01*
X123153029Y-111020867D01*
X123153031Y-111020867D01*
X123219352Y-110976552D01*
X123263667Y-110910231D01*
X123263667Y-110910229D01*
X123263668Y-110910229D01*
X123272352Y-110866568D01*
X123275300Y-110851748D01*
X123275300Y-109878530D01*
X123714300Y-109878530D01*
X123714300Y-110085469D01*
X123754668Y-110288412D01*
X123754670Y-110288420D01*
X123833612Y-110479003D01*
X123833859Y-110479598D01*
X123872913Y-110538047D01*
X123948824Y-110651657D01*
X124095142Y-110797975D01*
X124095145Y-110797977D01*
X124267202Y-110912941D01*
X124458380Y-110992130D01*
X124602852Y-111020867D01*
X124661330Y-111032499D01*
X124661334Y-111032500D01*
X124661335Y-111032500D01*
X124868266Y-111032500D01*
X124868267Y-111032499D01*
X125071220Y-110992130D01*
X125262398Y-110912941D01*
X125434455Y-110797977D01*
X125580777Y-110651655D01*
X125695741Y-110479598D01*
X125774930Y-110288420D01*
X125815300Y-110085465D01*
X125815300Y-109878535D01*
X125815299Y-109878530D01*
X126254300Y-109878530D01*
X126254300Y-110085469D01*
X126294668Y-110288412D01*
X126294670Y-110288420D01*
X126373612Y-110479003D01*
X126373859Y-110479598D01*
X126412913Y-110538047D01*
X126488824Y-110651657D01*
X126635142Y-110797975D01*
X126635145Y-110797977D01*
X126807202Y-110912941D01*
X126998380Y-110992130D01*
X127142852Y-111020867D01*
X127201330Y-111032499D01*
X127201334Y-111032500D01*
X127201335Y-111032500D01*
X127408266Y-111032500D01*
X127408267Y-111032499D01*
X127611220Y-110992130D01*
X127802398Y-110912941D01*
X127974455Y-110797977D01*
X128120777Y-110651655D01*
X128235741Y-110479598D01*
X128314930Y-110288420D01*
X128355300Y-110085465D01*
X128355300Y-109878535D01*
X128355299Y-109878530D01*
X128794300Y-109878530D01*
X128794300Y-110085469D01*
X128834668Y-110288412D01*
X128834670Y-110288420D01*
X128913612Y-110479003D01*
X128913859Y-110479598D01*
X128952913Y-110538047D01*
X129028824Y-110651657D01*
X129175142Y-110797975D01*
X129175145Y-110797977D01*
X129347202Y-110912941D01*
X129538380Y-110992130D01*
X129682852Y-111020867D01*
X129741330Y-111032499D01*
X129741334Y-111032500D01*
X129741335Y-111032500D01*
X129948266Y-111032500D01*
X129948267Y-111032499D01*
X130151220Y-110992130D01*
X130342398Y-110912941D01*
X130514455Y-110797977D01*
X130660777Y-110651655D01*
X130775741Y-110479598D01*
X130854930Y-110288420D01*
X130895300Y-110085465D01*
X130895300Y-109878535D01*
X130895299Y-109878530D01*
X131334300Y-109878530D01*
X131334300Y-110085469D01*
X131374668Y-110288412D01*
X131374670Y-110288420D01*
X131453612Y-110479003D01*
X131453859Y-110479598D01*
X131492913Y-110538047D01*
X131568824Y-110651657D01*
X131715142Y-110797975D01*
X131715145Y-110797977D01*
X131887202Y-110912941D01*
X132078380Y-110992130D01*
X132222852Y-111020867D01*
X132281330Y-111032499D01*
X132281334Y-111032500D01*
X132281335Y-111032500D01*
X132488266Y-111032500D01*
X132488267Y-111032499D01*
X132691220Y-110992130D01*
X132882398Y-110912941D01*
X133054455Y-110797977D01*
X133200777Y-110651655D01*
X133315741Y-110479598D01*
X133394930Y-110288420D01*
X133435300Y-110085465D01*
X133435300Y-109878535D01*
X133435299Y-109878530D01*
X133874300Y-109878530D01*
X133874300Y-110085469D01*
X133914668Y-110288412D01*
X133914670Y-110288420D01*
X133993612Y-110479003D01*
X133993859Y-110479598D01*
X134032913Y-110538047D01*
X134108824Y-110651657D01*
X134255142Y-110797975D01*
X134255145Y-110797977D01*
X134427202Y-110912941D01*
X134618380Y-110992130D01*
X134762852Y-111020867D01*
X134821330Y-111032499D01*
X134821334Y-111032500D01*
X134821335Y-111032500D01*
X135028266Y-111032500D01*
X135028267Y-111032499D01*
X135231220Y-110992130D01*
X135422398Y-110912941D01*
X135594455Y-110797977D01*
X135740777Y-110651655D01*
X135855741Y-110479598D01*
X135923965Y-110314889D01*
X135967804Y-110260488D01*
X136034098Y-110238423D01*
X136101798Y-110255702D01*
X136149409Y-110306839D01*
X136156456Y-110324026D01*
X136213704Y-110500216D01*
X136310175Y-110689550D01*
X136349528Y-110743716D01*
X136981837Y-110111408D01*
X136998875Y-110174993D01*
X137064701Y-110289007D01*
X137157793Y-110382099D01*
X137271807Y-110447925D01*
X137398974Y-110482000D01*
X137530626Y-110482000D01*
X137657793Y-110447925D01*
X137771807Y-110382099D01*
X137864899Y-110289007D01*
X137930725Y-110174993D01*
X137947762Y-110111409D01*
X138580070Y-110743717D01*
X138580070Y-110743716D01*
X138619422Y-110689554D01*
X138715895Y-110500217D01*
X138773143Y-110324026D01*
X138812580Y-110266351D01*
X138876939Y-110239152D01*
X138945785Y-110251066D01*
X138997261Y-110298310D01*
X139005633Y-110314887D01*
X139041377Y-110401179D01*
X139073612Y-110479003D01*
X139073859Y-110479598D01*
X139112913Y-110538047D01*
X139188824Y-110651657D01*
X139335142Y-110797975D01*
X139335145Y-110797977D01*
X139507202Y-110912941D01*
X139698380Y-110992130D01*
X139842852Y-111020867D01*
X139901330Y-111032499D01*
X139901334Y-111032500D01*
X139901335Y-111032500D01*
X140108266Y-111032500D01*
X140108267Y-111032499D01*
X140311220Y-110992130D01*
X140502398Y-110912941D01*
X140674455Y-110797977D01*
X140820777Y-110651655D01*
X140935741Y-110479598D01*
X141014930Y-110288420D01*
X141055300Y-110085465D01*
X141055300Y-110032352D01*
X158147831Y-110032352D01*
X158147831Y-110157554D01*
X158180236Y-110278489D01*
X158242836Y-110386917D01*
X158331367Y-110475448D01*
X158439795Y-110538048D01*
X158560730Y-110570453D01*
X158560732Y-110570453D01*
X158685930Y-110570453D01*
X158685932Y-110570453D01*
X158806867Y-110538048D01*
X158915295Y-110475448D01*
X159003826Y-110386917D01*
X159017014Y-110364075D01*
X165778700Y-110364075D01*
X165778700Y-111327117D01*
X165789492Y-111395257D01*
X165793554Y-111420904D01*
X165851150Y-111533942D01*
X165851152Y-111533944D01*
X165851154Y-111533947D01*
X165940852Y-111623645D01*
X165940854Y-111623646D01*
X165940858Y-111623650D01*
X166053894Y-111681245D01*
X166053898Y-111681247D01*
X166147675Y-111696099D01*
X166147681Y-111696100D01*
X166610718Y-111696099D01*
X166704504Y-111681246D01*
X166817542Y-111623650D01*
X166907250Y-111533942D01*
X166935690Y-111478124D01*
X166983663Y-111427330D01*
X167051484Y-111410534D01*
X167117619Y-111433071D01*
X167144548Y-111458931D01*
X167148679Y-111464314D01*
X167148680Y-111464316D01*
X167260484Y-111576120D01*
X167260486Y-111576121D01*
X167260490Y-111576124D01*
X167342809Y-111623650D01*
X167397416Y-111655177D01*
X167550143Y-111696100D01*
X167550145Y-111696100D01*
X167708255Y-111696100D01*
X167708257Y-111696100D01*
X167860984Y-111655177D01*
X167983884Y-111584220D01*
X168051784Y-111567748D01*
X168117811Y-111590601D01*
X168148986Y-111622717D01*
X168180123Y-111669316D01*
X168180126Y-111669320D01*
X168305479Y-111794673D01*
X168305483Y-111794676D01*
X168452883Y-111893166D01*
X168452893Y-111893171D01*
X168616676Y-111961012D01*
X168616683Y-111961015D01*
X168629200Y-111963504D01*
X168629200Y-110895328D01*
X168667260Y-110987214D01*
X168737586Y-111057540D01*
X168829472Y-111095600D01*
X168928928Y-111095600D01*
X169020814Y-111057540D01*
X169091140Y-110987214D01*
X169129200Y-110895328D01*
X169129200Y-111963503D01*
X169141716Y-111961015D01*
X169141723Y-111961012D01*
X169305506Y-111893171D01*
X169305516Y-111893166D01*
X169452916Y-111794676D01*
X169452920Y-111794673D01*
X169578274Y-111669319D01*
X169609412Y-111622718D01*
X169663024Y-111577912D01*
X169732349Y-111569205D01*
X169774514Y-111584221D01*
X169897409Y-111655173D01*
X169897416Y-111655177D01*
X170050143Y-111696100D01*
X170050145Y-111696100D01*
X170208255Y-111696100D01*
X170208257Y-111696100D01*
X170360984Y-111655177D01*
X170497916Y-111576120D01*
X170609720Y-111464316D01*
X170688777Y-111327384D01*
X170729700Y-111174657D01*
X170729700Y-110516543D01*
X170688777Y-110363816D01*
X170688773Y-110363809D01*
X170609724Y-110226890D01*
X170609718Y-110226882D01*
X170497917Y-110115081D01*
X170497909Y-110115075D01*
X170360990Y-110036026D01*
X170360986Y-110036024D01*
X170360984Y-110036023D01*
X170208257Y-109995100D01*
X170050143Y-109995100D01*
X169897416Y-110036023D01*
X169897415Y-110036023D01*
X169774514Y-110106979D01*
X169706613Y-110123450D01*
X169640587Y-110100598D01*
X169609413Y-110068482D01*
X169578276Y-110021883D01*
X169578273Y-110021879D01*
X169452920Y-109896526D01*
X169452916Y-109896523D01*
X169305516Y-109798033D01*
X169305507Y-109798028D01*
X169141719Y-109730185D01*
X169129200Y-109727694D01*
X169129200Y-110795872D01*
X169091140Y-110703986D01*
X169020814Y-110633660D01*
X168928928Y-110595600D01*
X168829472Y-110595600D01*
X168737586Y-110633660D01*
X168667260Y-110703986D01*
X168629200Y-110795872D01*
X168629200Y-109727695D01*
X168629199Y-109727694D01*
X168616680Y-109730185D01*
X168452892Y-109798028D01*
X168452883Y-109798033D01*
X168305483Y-109896523D01*
X168305479Y-109896526D01*
X168180126Y-110021879D01*
X168180121Y-110021885D01*
X168148985Y-110068483D01*
X168095372Y-110113288D01*
X168026047Y-110121994D01*
X167983885Y-110106979D01*
X167860984Y-110036023D01*
X167808220Y-110021885D01*
X167708257Y-109995100D01*
X167550143Y-109995100D01*
X167397416Y-110036023D01*
X167397409Y-110036026D01*
X167260490Y-110115075D01*
X167260482Y-110115081D01*
X167148679Y-110226884D01*
X167144545Y-110232272D01*
X167088114Y-110273471D01*
X167018368Y-110277621D01*
X166957450Y-110243405D01*
X166935691Y-110213077D01*
X166907250Y-110157258D01*
X166907248Y-110157256D01*
X166907245Y-110157252D01*
X166817547Y-110067554D01*
X166817544Y-110067552D01*
X166817542Y-110067550D01*
X166727908Y-110021879D01*
X166704501Y-110009952D01*
X166610724Y-109995100D01*
X166147682Y-109995100D01*
X166066719Y-110007923D01*
X166053896Y-110009954D01*
X165940858Y-110067550D01*
X165940857Y-110067551D01*
X165940852Y-110067554D01*
X165851154Y-110157252D01*
X165851152Y-110157256D01*
X165851150Y-110157258D01*
X165842114Y-110174993D01*
X165793552Y-110270298D01*
X165778700Y-110364075D01*
X159017014Y-110364075D01*
X159066426Y-110278489D01*
X159098831Y-110157554D01*
X159098831Y-110032352D01*
X159066426Y-109911417D01*
X159003826Y-109802989D01*
X158915295Y-109714458D01*
X158806867Y-109651858D01*
X158806868Y-109651858D01*
X158762512Y-109639973D01*
X158685932Y-109619453D01*
X158560730Y-109619453D01*
X158484150Y-109639973D01*
X158439794Y-109651858D01*
X158331368Y-109714457D01*
X158331365Y-109714459D01*
X158242837Y-109802987D01*
X158242835Y-109802990D01*
X158180236Y-109911416D01*
X158180236Y-109911417D01*
X158147831Y-110032352D01*
X141055300Y-110032352D01*
X141055300Y-109878535D01*
X141014930Y-109675580D01*
X140935741Y-109484402D01*
X140820777Y-109312345D01*
X140820775Y-109312342D01*
X140674457Y-109166024D01*
X140560637Y-109089973D01*
X140502398Y-109051059D01*
X140399053Y-109008252D01*
X140311220Y-108971870D01*
X140311212Y-108971868D01*
X140108269Y-108931500D01*
X140108265Y-108931500D01*
X139901335Y-108931500D01*
X139901330Y-108931500D01*
X139698387Y-108971868D01*
X139698379Y-108971870D01*
X139507203Y-109051058D01*
X139335142Y-109166024D01*
X139188824Y-109312342D01*
X139073857Y-109484403D01*
X139005635Y-109649108D01*
X138961794Y-109703511D01*
X138895500Y-109725576D01*
X138827800Y-109708297D01*
X138780190Y-109657159D01*
X138773143Y-109639973D01*
X138715895Y-109463782D01*
X138619424Y-109274449D01*
X138580070Y-109220282D01*
X138580069Y-109220282D01*
X137947762Y-109852590D01*
X137930725Y-109789007D01*
X137864899Y-109674993D01*
X137771807Y-109581901D01*
X137657793Y-109516075D01*
X137530626Y-109482000D01*
X137398974Y-109482000D01*
X137271807Y-109516075D01*
X137157793Y-109581901D01*
X137064701Y-109674993D01*
X136998875Y-109789007D01*
X136981837Y-109852591D01*
X136349528Y-109220282D01*
X136349527Y-109220282D01*
X136310180Y-109274439D01*
X136213705Y-109463781D01*
X136156456Y-109639974D01*
X136117018Y-109697649D01*
X136052659Y-109724847D01*
X135983813Y-109712932D01*
X135932337Y-109665688D01*
X135923964Y-109649107D01*
X135855743Y-109484405D01*
X135740775Y-109312342D01*
X135594457Y-109166024D01*
X135480637Y-109089973D01*
X135422398Y-109051059D01*
X135231220Y-108971870D01*
X135231212Y-108971868D01*
X135028269Y-108931500D01*
X135028265Y-108931500D01*
X134821335Y-108931500D01*
X134821330Y-108931500D01*
X134618387Y-108971868D01*
X134618379Y-108971870D01*
X134427203Y-109051058D01*
X134255142Y-109166024D01*
X134108824Y-109312342D01*
X133993858Y-109484403D01*
X133914670Y-109675579D01*
X133914668Y-109675587D01*
X133874300Y-109878530D01*
X133435299Y-109878530D01*
X133394930Y-109675580D01*
X133315741Y-109484402D01*
X133200777Y-109312345D01*
X133200775Y-109312342D01*
X133054457Y-109166024D01*
X132940637Y-109089973D01*
X132882398Y-109051059D01*
X132779053Y-109008252D01*
X132691220Y-108971870D01*
X132691212Y-108971868D01*
X132488269Y-108931500D01*
X132488265Y-108931500D01*
X132281335Y-108931500D01*
X132281330Y-108931500D01*
X132078387Y-108971868D01*
X132078379Y-108971870D01*
X131887203Y-109051058D01*
X131715142Y-109166024D01*
X131568824Y-109312342D01*
X131453858Y-109484403D01*
X131374670Y-109675579D01*
X131374668Y-109675587D01*
X131334300Y-109878530D01*
X130895299Y-109878530D01*
X130854930Y-109675580D01*
X130775741Y-109484402D01*
X130660777Y-109312345D01*
X130660775Y-109312342D01*
X130514457Y-109166024D01*
X130400637Y-109089973D01*
X130342398Y-109051059D01*
X130239053Y-109008252D01*
X130151220Y-108971870D01*
X130151212Y-108971868D01*
X129948269Y-108931500D01*
X129948265Y-108931500D01*
X129741335Y-108931500D01*
X129741330Y-108931500D01*
X129538387Y-108971868D01*
X129538379Y-108971870D01*
X129347203Y-109051058D01*
X129175142Y-109166024D01*
X129028824Y-109312342D01*
X128913858Y-109484403D01*
X128834670Y-109675579D01*
X128834668Y-109675587D01*
X128794300Y-109878530D01*
X128355299Y-109878530D01*
X128314930Y-109675580D01*
X128235741Y-109484402D01*
X128120777Y-109312345D01*
X128120775Y-109312342D01*
X127974457Y-109166024D01*
X127860637Y-109089973D01*
X127802398Y-109051059D01*
X127699053Y-109008252D01*
X127611220Y-108971870D01*
X127611212Y-108971868D01*
X127408269Y-108931500D01*
X127408265Y-108931500D01*
X127201335Y-108931500D01*
X127201330Y-108931500D01*
X126998387Y-108971868D01*
X126998379Y-108971870D01*
X126807203Y-109051058D01*
X126635142Y-109166024D01*
X126488824Y-109312342D01*
X126373858Y-109484403D01*
X126294670Y-109675579D01*
X126294668Y-109675587D01*
X126254300Y-109878530D01*
X125815299Y-109878530D01*
X125774930Y-109675580D01*
X125695741Y-109484402D01*
X125580777Y-109312345D01*
X125580775Y-109312342D01*
X125434457Y-109166024D01*
X125320637Y-109089973D01*
X125262398Y-109051059D01*
X125159053Y-109008252D01*
X125071220Y-108971870D01*
X125071212Y-108971868D01*
X124868269Y-108931500D01*
X124868265Y-108931500D01*
X124661335Y-108931500D01*
X124661330Y-108931500D01*
X124458387Y-108971868D01*
X124458379Y-108971870D01*
X124267203Y-109051058D01*
X124095142Y-109166024D01*
X123948824Y-109312342D01*
X123833858Y-109484403D01*
X123754670Y-109675579D01*
X123754668Y-109675587D01*
X123714300Y-109878530D01*
X123275300Y-109878530D01*
X123275300Y-109112252D01*
X123275300Y-109112249D01*
X123275299Y-109112247D01*
X123263668Y-109053770D01*
X123263667Y-109053769D01*
X123219352Y-108987447D01*
X123153030Y-108943132D01*
X123153029Y-108943131D01*
X123094552Y-108931500D01*
X123094548Y-108931500D01*
X121355052Y-108931500D01*
X121355047Y-108931500D01*
X121296570Y-108943131D01*
X121296569Y-108943132D01*
X121230247Y-108987447D01*
X121185932Y-109053769D01*
X121185931Y-109053770D01*
X121174300Y-109112247D01*
X119126042Y-109112247D01*
X119128975Y-109089974D01*
X119128975Y-109089973D01*
X119143798Y-108977374D01*
X119143800Y-108977357D01*
X119143800Y-108866727D01*
X136703082Y-108866727D01*
X136703082Y-108866728D01*
X137214799Y-109378446D01*
X137714800Y-109378446D01*
X138226516Y-108866728D01*
X138172350Y-108827375D01*
X137983015Y-108730903D01*
X137780924Y-108665241D01*
X137714800Y-108654768D01*
X137714800Y-109378446D01*
X137214799Y-109378446D01*
X137214800Y-109378445D01*
X137214800Y-108654768D01*
X137214799Y-108654768D01*
X137148675Y-108665241D01*
X136946584Y-108730903D01*
X136757239Y-108827380D01*
X136703082Y-108866727D01*
X119143800Y-108866727D01*
X119143800Y-108708642D01*
X119143798Y-108708626D01*
X119108724Y-108442208D01*
X119039172Y-108182636D01*
X118936336Y-107934369D01*
X118936332Y-107934359D01*
X118801973Y-107701642D01*
X118709379Y-107580972D01*
X118209070Y-108081281D01*
X118123522Y-107963534D01*
X117973266Y-107813278D01*
X117855516Y-107727728D01*
X118355826Y-107227419D01*
X118235158Y-107134826D01*
X118002440Y-107000467D01*
X118002430Y-107000463D01*
X117754163Y-106897627D01*
X117494591Y-106828075D01*
X117228173Y-106793001D01*
X117228157Y-106793000D01*
X116959443Y-106793000D01*
X116959426Y-106793001D01*
X116693008Y-106828075D01*
X116433436Y-106897627D01*
X116185169Y-107000463D01*
X116185159Y-107000467D01*
X115952437Y-107134829D01*
X115831772Y-107227418D01*
X115831772Y-107227419D01*
X116332082Y-107727729D01*
X116214334Y-107813278D01*
X116064078Y-107963534D01*
X115978529Y-108081282D01*
X115478219Y-107580972D01*
X115478218Y-107580972D01*
X115385629Y-107701637D01*
X115251267Y-107934359D01*
X115251263Y-107934369D01*
X115148427Y-108182636D01*
X115078875Y-108442208D01*
X115043801Y-108708626D01*
X115043800Y-108708642D01*
X111705700Y-108708642D01*
X111705700Y-105310223D01*
X143060504Y-105310223D01*
X143060505Y-105310233D01*
X143074170Y-105377640D01*
X143074386Y-105378704D01*
X143094049Y-105433796D01*
X143665335Y-106516233D01*
X144890390Y-108837389D01*
X144891424Y-108839319D01*
X144891488Y-108839439D01*
X144892796Y-108841849D01*
X144929329Y-108890353D01*
X144979149Y-108939340D01*
X144998116Y-108955835D01*
X145081240Y-108993975D01*
X145149635Y-109008251D01*
X145149642Y-109008251D01*
X145149646Y-109008252D01*
X145186383Y-109010568D01*
X145208012Y-109011932D01*
X146382559Y-108917968D01*
X146405555Y-108914813D01*
X146433004Y-108909453D01*
X146455498Y-108903725D01*
X146659087Y-108839439D01*
X146853666Y-108777998D01*
X174937869Y-108777998D01*
X174937869Y-109058801D01*
X174969306Y-109337812D01*
X174969308Y-109337824D01*
X175031790Y-109611578D01*
X175031791Y-109611580D01*
X175124531Y-109876617D01*
X175246361Y-110129600D01*
X175395753Y-110367356D01*
X175502056Y-110500657D01*
X176143616Y-109859097D01*
X176217457Y-109960730D01*
X176395539Y-110138812D01*
X176497169Y-110212651D01*
X175855610Y-110854210D01*
X175855610Y-110854211D01*
X175988912Y-110960515D01*
X176226668Y-111109907D01*
X176479651Y-111231737D01*
X176744688Y-111324477D01*
X176744690Y-111324478D01*
X177018444Y-111386960D01*
X177018456Y-111386962D01*
X177297467Y-111418399D01*
X177297469Y-111418400D01*
X177578269Y-111418400D01*
X177578270Y-111418399D01*
X177857281Y-111386962D01*
X177857293Y-111386960D01*
X178131047Y-111324478D01*
X178131049Y-111324477D01*
X178396086Y-111231737D01*
X178649069Y-111109907D01*
X178886825Y-110960516D01*
X179020126Y-110854210D01*
X178378567Y-110212651D01*
X178480199Y-110138812D01*
X178658281Y-109960730D01*
X178732120Y-109859098D01*
X179373679Y-110500657D01*
X179479985Y-110367356D01*
X179629376Y-110129600D01*
X179751206Y-109876617D01*
X179843946Y-109611580D01*
X179843947Y-109611578D01*
X179906429Y-109337824D01*
X179906431Y-109337812D01*
X179937868Y-109058801D01*
X179937869Y-109058799D01*
X179937869Y-108778000D01*
X179937868Y-108777998D01*
X179906431Y-108498987D01*
X179906429Y-108498975D01*
X179843947Y-108225221D01*
X179843946Y-108225219D01*
X179751206Y-107960182D01*
X179629376Y-107707199D01*
X179479984Y-107469443D01*
X179373679Y-107336141D01*
X178732120Y-107977700D01*
X178658281Y-107876070D01*
X178480199Y-107697988D01*
X178378566Y-107624147D01*
X179020126Y-106982587D01*
X178886825Y-106876284D01*
X178649069Y-106726892D01*
X178396086Y-106605062D01*
X178131049Y-106512322D01*
X178131047Y-106512321D01*
X177857293Y-106449839D01*
X177857281Y-106449837D01*
X177578270Y-106418400D01*
X177297467Y-106418400D01*
X177018456Y-106449837D01*
X177018444Y-106449839D01*
X176744690Y-106512321D01*
X176744688Y-106512322D01*
X176479651Y-106605062D01*
X176226668Y-106726892D01*
X175988912Y-106876284D01*
X175855610Y-106982587D01*
X176497170Y-107624147D01*
X176395539Y-107697988D01*
X176217457Y-107876070D01*
X176143616Y-107977701D01*
X175502056Y-107336141D01*
X175395753Y-107469443D01*
X175246361Y-107707199D01*
X175124531Y-107960182D01*
X175031791Y-108225219D01*
X175031790Y-108225221D01*
X174969308Y-108498975D01*
X174969306Y-108498987D01*
X174937869Y-108777998D01*
X146853666Y-108777998D01*
X147239142Y-108656279D01*
X147239142Y-108656278D01*
X150013447Y-107780254D01*
X150041629Y-107774838D01*
X150046195Y-107774500D01*
X150169978Y-107774500D01*
X150196801Y-107772742D01*
X150228893Y-107768517D01*
X150255257Y-107763273D01*
X150277173Y-107757400D01*
X150288824Y-107756538D01*
X150291326Y-107757075D01*
X150297979Y-107756200D01*
X150336419Y-107756200D01*
X150368511Y-107760424D01*
X150379141Y-107763273D01*
X150405507Y-107768517D01*
X150437600Y-107772742D01*
X150464422Y-107774500D01*
X150464431Y-107774500D01*
X152902636Y-107774500D01*
X152902648Y-107774500D01*
X152904157Y-107774494D01*
X152905927Y-107774481D01*
X152965121Y-107765317D01*
X152965125Y-107765315D01*
X152965130Y-107765315D01*
X153003311Y-107753508D01*
X153031873Y-107744678D01*
X153055393Y-107735796D01*
X153068549Y-107725863D01*
X153133910Y-107701178D01*
X153199559Y-107714340D01*
X153282376Y-107756538D01*
X153297896Y-107764446D01*
X153297898Y-107764447D01*
X153391675Y-107779299D01*
X153391681Y-107779300D01*
X154354718Y-107779299D01*
X154448504Y-107764446D01*
X154561542Y-107706850D01*
X154651250Y-107617142D01*
X154708846Y-107504104D01*
X154708846Y-107504102D01*
X154708847Y-107504101D01*
X154723699Y-107410324D01*
X154723700Y-107410319D01*
X154723699Y-106947282D01*
X154708846Y-106853496D01*
X154708187Y-106852204D01*
X154707292Y-106841576D01*
X154713415Y-106811600D01*
X154717336Y-106781266D01*
X154720342Y-106777694D01*
X154721277Y-106773120D01*
X154742630Y-106751217D01*
X154762332Y-106727814D01*
X154766793Y-106726434D01*
X154770052Y-106723092D01*
X154799858Y-106716211D01*
X154829084Y-106707175D01*
X154830227Y-106707163D01*
X156171227Y-106701069D01*
X156210096Y-106697179D01*
X156228290Y-106693587D01*
X156228299Y-106693584D01*
X156228305Y-106693583D01*
X156252233Y-106686439D01*
X156265727Y-106682411D01*
X162696025Y-104074243D01*
X162765544Y-104067288D01*
X162827791Y-104099022D01*
X162863000Y-104159372D01*
X162862404Y-104221245D01*
X162846500Y-104280599D01*
X162846500Y-104405801D01*
X162863892Y-104470706D01*
X162878905Y-104526736D01*
X162941504Y-104635162D01*
X162941506Y-104635165D01*
X163030036Y-104723695D01*
X163099550Y-104763828D01*
X163125232Y-104783535D01*
X163882365Y-105540668D01*
X163985092Y-105599978D01*
X164009300Y-105606463D01*
X164009303Y-105606465D01*
X164009304Y-105606465D01*
X164039426Y-105614536D01*
X164099670Y-105630679D01*
X164099672Y-105630679D01*
X165588968Y-105630679D01*
X165656007Y-105650364D01*
X165701762Y-105703168D01*
X165711706Y-105772326D01*
X165682681Y-105835882D01*
X165676649Y-105842360D01*
X165656011Y-105862997D01*
X165656009Y-105863000D01*
X165593410Y-105971426D01*
X165593410Y-105971427D01*
X165561005Y-106092362D01*
X165561005Y-106217564D01*
X165593410Y-106338499D01*
X165656010Y-106446927D01*
X165744541Y-106535458D01*
X165852969Y-106598058D01*
X165973904Y-106630463D01*
X165976816Y-106630463D01*
X166000275Y-106633550D01*
X166000285Y-106633475D01*
X166008339Y-106634535D01*
X166008341Y-106634536D01*
X166008343Y-106634536D01*
X172581822Y-106634536D01*
X172581823Y-106634536D01*
X172672187Y-106610322D01*
X172696401Y-106603835D01*
X172799128Y-106544525D01*
X173899730Y-105443923D01*
X174929327Y-104414326D01*
X174988637Y-104311599D01*
X174993917Y-104291893D01*
X174998418Y-104275099D01*
X175012544Y-104222375D01*
X175019338Y-104197021D01*
X175019338Y-103605786D01*
X175020277Y-103590553D01*
X175021700Y-103579055D01*
X175024204Y-103571226D01*
X175041391Y-103419980D01*
X175041462Y-103419414D01*
X175041598Y-103419098D01*
X175044323Y-103404185D01*
X175045589Y-103399192D01*
X175063060Y-103330249D01*
X175066563Y-103318787D01*
X175067812Y-103315312D01*
X175096287Y-103236062D01*
X175101221Y-103224282D01*
X175130989Y-103162406D01*
X175137912Y-103149921D01*
X175171956Y-103096099D01*
X175181324Y-103083207D01*
X175206623Y-103052735D01*
X175218715Y-103040105D01*
X175243772Y-103017395D01*
X175258861Y-103005705D01*
X175273546Y-102996042D01*
X175291043Y-102986453D01*
X175305740Y-102979876D01*
X175325032Y-102973092D01*
X175335405Y-102970382D01*
X175355008Y-102966915D01*
X175377917Y-102964741D01*
X175383497Y-102963226D01*
X175415969Y-102958900D01*
X175417619Y-102958900D01*
X175417620Y-102958899D01*
X175432437Y-102955952D01*
X175476098Y-102947268D01*
X175476098Y-102947267D01*
X175476100Y-102947267D01*
X175542421Y-102902952D01*
X175586736Y-102836631D01*
X175586736Y-102836629D01*
X175586737Y-102836629D01*
X175598368Y-102778152D01*
X175598369Y-102778150D01*
X175598369Y-101138649D01*
X175598368Y-101138647D01*
X175586737Y-101080170D01*
X175586736Y-101080169D01*
X175542421Y-101013847D01*
X175476099Y-100969532D01*
X175476098Y-100969531D01*
X175417621Y-100957900D01*
X175417617Y-100957900D01*
X173778121Y-100957900D01*
X173778116Y-100957900D01*
X173719639Y-100969531D01*
X173719638Y-100969532D01*
X173653316Y-101013847D01*
X173609001Y-101080169D01*
X173609000Y-101080170D01*
X173597369Y-101138647D01*
X173597369Y-102778152D01*
X173609000Y-102836629D01*
X173609001Y-102836630D01*
X173653316Y-102902952D01*
X173719638Y-102947267D01*
X173719639Y-102947268D01*
X173779529Y-102959180D01*
X173788135Y-102960440D01*
X173793219Y-102961431D01*
X173806745Y-102965263D01*
X173817136Y-102966092D01*
X173824003Y-102967431D01*
X173833268Y-102972232D01*
X173858004Y-102979396D01*
X173881066Y-102991526D01*
X173910082Y-103012657D01*
X173942177Y-103044073D01*
X173960599Y-103066982D01*
X174007674Y-103142326D01*
X174018195Y-103163381D01*
X174066500Y-103288532D01*
X174072190Y-103307787D01*
X174105387Y-103466449D01*
X174107430Y-103479818D01*
X174107607Y-103481641D01*
X174113071Y-103561519D01*
X174116846Y-103576455D01*
X174117753Y-103585759D01*
X174117201Y-103588651D01*
X174118338Y-103597785D01*
X174118338Y-103899747D01*
X174098653Y-103966786D01*
X174082019Y-103987428D01*
X172372230Y-105697217D01*
X172310907Y-105730702D01*
X172284549Y-105733536D01*
X170009879Y-105733536D01*
X169942840Y-105713851D01*
X169897085Y-105661047D01*
X169887141Y-105591889D01*
X169916166Y-105528333D01*
X169922198Y-105521855D01*
X171422653Y-104021400D01*
X172978889Y-102465164D01*
X173038198Y-102362437D01*
X173038199Y-102362436D01*
X173068900Y-102247859D01*
X173068900Y-101279164D01*
X173088585Y-101212125D01*
X173105215Y-101191487D01*
X173675333Y-100621368D01*
X173718326Y-100593382D01*
X174818822Y-100168264D01*
X174818822Y-100168263D01*
X174823251Y-100166553D01*
X174823365Y-100166849D01*
X174847375Y-100158870D01*
X174889704Y-100150451D01*
X175071783Y-100075032D01*
X175235651Y-99965539D01*
X175375008Y-99826182D01*
X175484501Y-99662314D01*
X175559920Y-99480235D01*
X175598369Y-99286941D01*
X175598369Y-99089859D01*
X175598369Y-99089856D01*
X175559921Y-98896570D01*
X175559920Y-98896569D01*
X175559920Y-98896565D01*
X175521537Y-98803900D01*
X175484504Y-98714492D01*
X175484497Y-98714479D01*
X175375008Y-98550618D01*
X175375005Y-98550614D01*
X175235654Y-98411263D01*
X175235650Y-98411260D01*
X175071789Y-98301771D01*
X175071776Y-98301764D01*
X174889708Y-98226350D01*
X174889698Y-98226347D01*
X174696412Y-98187900D01*
X174696410Y-98187900D01*
X174673726Y-98187900D01*
X174606687Y-98168215D01*
X174560932Y-98115411D01*
X174550988Y-98046253D01*
X174580013Y-97982697D01*
X174610233Y-97957388D01*
X174703250Y-97901943D01*
X176437368Y-97901943D01*
X176475816Y-98095229D01*
X176475819Y-98095239D01*
X176551233Y-98277307D01*
X176551240Y-98277320D01*
X176660729Y-98441181D01*
X176660732Y-98441185D01*
X176800083Y-98580536D01*
X176800087Y-98580539D01*
X176963948Y-98690028D01*
X176963961Y-98690035D01*
X177146029Y-98765449D01*
X177146034Y-98765451D01*
X177146038Y-98765451D01*
X177146039Y-98765452D01*
X177339325Y-98803900D01*
X177339328Y-98803900D01*
X177536412Y-98803900D01*
X177668859Y-98777554D01*
X177729704Y-98765451D01*
X177911783Y-98690032D01*
X178075651Y-98580539D01*
X178215008Y-98441182D01*
X178324501Y-98277314D01*
X178399920Y-98095235D01*
X178420435Y-97992102D01*
X178438369Y-97901943D01*
X178438369Y-97704856D01*
X178399921Y-97511570D01*
X178399920Y-97511569D01*
X178399920Y-97511565D01*
X178392577Y-97493838D01*
X178324504Y-97329492D01*
X178324497Y-97329479D01*
X178215008Y-97165618D01*
X178215005Y-97165614D01*
X178075654Y-97026263D01*
X178075650Y-97026260D01*
X177911789Y-96916771D01*
X177911776Y-96916764D01*
X177729708Y-96841350D01*
X177729698Y-96841347D01*
X177536412Y-96802900D01*
X177536410Y-96802900D01*
X177339328Y-96802900D01*
X177339326Y-96802900D01*
X177146039Y-96841347D01*
X177146029Y-96841350D01*
X176963961Y-96916764D01*
X176963948Y-96916771D01*
X176800087Y-97026260D01*
X176800083Y-97026263D01*
X176660732Y-97165614D01*
X176660729Y-97165618D01*
X176551240Y-97329479D01*
X176551233Y-97329492D01*
X176475819Y-97511560D01*
X176475816Y-97511570D01*
X176437369Y-97704856D01*
X176437369Y-97704859D01*
X176437369Y-97901941D01*
X176437369Y-97901943D01*
X176437368Y-97901943D01*
X174703250Y-97901943D01*
X175060989Y-97688703D01*
X175111220Y-97646591D01*
X175131403Y-97623248D01*
X175134525Y-97618489D01*
X175135388Y-97617246D01*
X175161398Y-97596247D01*
X175186867Y-97574597D01*
X175189021Y-97573945D01*
X175189752Y-97573356D01*
X175191653Y-97573149D01*
X175216527Y-97565629D01*
X175270766Y-97556412D01*
X175296862Y-97545602D01*
X175323438Y-97532265D01*
X175335837Y-97524874D01*
X175335836Y-97524873D01*
X175387902Y-97493838D01*
X175387902Y-97493837D01*
X175913886Y-97180311D01*
X175957316Y-97145684D01*
X175975437Y-97126700D01*
X176002285Y-97091723D01*
X176031294Y-97004989D01*
X176034977Y-96967667D01*
X176027132Y-96887867D01*
X175922523Y-96542801D01*
X175911636Y-96514567D01*
X175905485Y-96501560D01*
X175896710Y-96485004D01*
X175833880Y-96418546D01*
X175833876Y-96418543D01*
X175802701Y-96397712D01*
X175802696Y-96397709D01*
X175739853Y-96369589D01*
X175706370Y-96368650D01*
X175677759Y-96359369D01*
X175648488Y-96352453D01*
X175644868Y-96348701D01*
X175639909Y-96347093D01*
X175620854Y-96323814D01*
X175599973Y-96302174D01*
X175597574Y-96295373D01*
X175595653Y-96293027D01*
X175588231Y-96268890D01*
X175568530Y-96169847D01*
X175574757Y-96100256D01*
X175602467Y-96057974D01*
X175617230Y-96043209D01*
X175648202Y-96012239D01*
X175672120Y-95983513D01*
X175705945Y-95898541D01*
X175699552Y-95807309D01*
X175665078Y-95693594D01*
X175653344Y-95654889D01*
X175653345Y-95654889D01*
X175484544Y-95098082D01*
X175483934Y-95028218D01*
X175521192Y-94969111D01*
X175539542Y-94955705D01*
X175726311Y-94843947D01*
X175926158Y-94724364D01*
X175981503Y-94675903D01*
X176002982Y-94648884D01*
X176037716Y-94584029D01*
X176121443Y-94324185D01*
X176160738Y-94266416D01*
X176225030Y-94239060D01*
X176293905Y-94250806D01*
X176345496Y-94297924D01*
X176362852Y-94349892D01*
X176434106Y-95063216D01*
X176437369Y-95095879D01*
X176437369Y-95131941D01*
X176444602Y-95168307D01*
X176445199Y-95174284D01*
X176447479Y-95197098D01*
X176448694Y-95206876D01*
X176448857Y-95207978D01*
X176452541Y-95217537D01*
X176458451Y-95237930D01*
X176475816Y-95325229D01*
X176475819Y-95325239D01*
X176551233Y-95507307D01*
X176551240Y-95507320D01*
X176660729Y-95671181D01*
X176660732Y-95671185D01*
X176800083Y-95810536D01*
X176800087Y-95810539D01*
X176963948Y-95920028D01*
X176963961Y-95920035D01*
X177036075Y-95949905D01*
X177146034Y-95995451D01*
X177146038Y-95995451D01*
X177146039Y-95995452D01*
X177339325Y-96033900D01*
X177339328Y-96033900D01*
X177536412Y-96033900D01*
X177666451Y-96008032D01*
X177729704Y-95995451D01*
X177911783Y-95920032D01*
X178075651Y-95810539D01*
X178215008Y-95671182D01*
X178324501Y-95507314D01*
X178399920Y-95325235D01*
X178423462Y-95206885D01*
X178438369Y-95131943D01*
X178438369Y-94934856D01*
X178399921Y-94741570D01*
X178399920Y-94741569D01*
X178399920Y-94741565D01*
X178378520Y-94689900D01*
X178324504Y-94559492D01*
X178324497Y-94559479D01*
X178215008Y-94395618D01*
X178215005Y-94395614D01*
X178075654Y-94256263D01*
X178075645Y-94256256D01*
X178034078Y-94228482D01*
X178013143Y-94209095D01*
X178012380Y-94209827D01*
X178008169Y-94205432D01*
X177607299Y-93861913D01*
X177139114Y-93460709D01*
X177101020Y-93402142D01*
X177100636Y-93332273D01*
X177138087Y-93273289D01*
X177201482Y-93243915D01*
X177243995Y-93244937D01*
X177339325Y-93263900D01*
X177339328Y-93263900D01*
X177536412Y-93263900D01*
X177666451Y-93238032D01*
X177729704Y-93225451D01*
X177878532Y-93163805D01*
X177911776Y-93150035D01*
X177911776Y-93150034D01*
X177911783Y-93150032D01*
X178075651Y-93040539D01*
X178215008Y-92901182D01*
X178324501Y-92737314D01*
X178399920Y-92555235D01*
X178419146Y-92458579D01*
X178438369Y-92361943D01*
X178438369Y-92164856D01*
X178399921Y-91971570D01*
X178399920Y-91971569D01*
X178399920Y-91971565D01*
X178399918Y-91971560D01*
X178324504Y-91789492D01*
X178324497Y-91789479D01*
X178215008Y-91625618D01*
X178215005Y-91625614D01*
X178075654Y-91486263D01*
X178075650Y-91486260D01*
X177911789Y-91376771D01*
X177911776Y-91376764D01*
X177729708Y-91301350D01*
X177729698Y-91301347D01*
X177536412Y-91262900D01*
X177536410Y-91262900D01*
X177339328Y-91262900D01*
X177339326Y-91262900D01*
X177146039Y-91301347D01*
X177146029Y-91301350D01*
X176963961Y-91376764D01*
X176963948Y-91376771D01*
X176800087Y-91486260D01*
X176800083Y-91486263D01*
X176660732Y-91625614D01*
X176660729Y-91625618D01*
X176551240Y-91789479D01*
X176551233Y-91789492D01*
X176475819Y-91971560D01*
X176475816Y-91971570D01*
X176437369Y-92164856D01*
X176437369Y-92361945D01*
X176462180Y-92486678D01*
X176455953Y-92556269D01*
X176413090Y-92611447D01*
X176347200Y-92634691D01*
X176279203Y-92618623D01*
X176252882Y-92598550D01*
X175631368Y-91977036D01*
X175631366Y-91977033D01*
X175539679Y-91885346D01*
X175539673Y-91885341D01*
X175436041Y-91825509D01*
X175436036Y-91825507D01*
X175411610Y-91818961D01*
X175411610Y-91818962D01*
X175351404Y-91802830D01*
X175291743Y-91766465D01*
X175261214Y-91703618D01*
X175269509Y-91634243D01*
X175295813Y-91595376D01*
X175375008Y-91516182D01*
X175484501Y-91352314D01*
X175559920Y-91170235D01*
X175598283Y-90977373D01*
X175598369Y-90976943D01*
X175598369Y-90779856D01*
X175559921Y-90586570D01*
X175559920Y-90586569D01*
X175559920Y-90586565D01*
X175559918Y-90586560D01*
X175484504Y-90404492D01*
X175484497Y-90404479D01*
X175375008Y-90240618D01*
X175375005Y-90240614D01*
X175235653Y-90101262D01*
X175174347Y-90060299D01*
X175120360Y-90024226D01*
X175115480Y-90020697D01*
X175114201Y-90020110D01*
X175109174Y-90016751D01*
X175109173Y-90016750D01*
X175071780Y-89991766D01*
X174884566Y-89914220D01*
X174876452Y-89911146D01*
X173805636Y-89420373D01*
X173752894Y-89374547D01*
X173733300Y-89307648D01*
X173733300Y-86988638D01*
X173733301Y-86988625D01*
X173733301Y-86858965D01*
X173729736Y-86845662D01*
X173702327Y-86743370D01*
X173702327Y-86743369D01*
X173702327Y-86743368D01*
X173675944Y-86697672D01*
X173642491Y-86639730D01*
X173557870Y-86555109D01*
X173557869Y-86555108D01*
X173553539Y-86550778D01*
X173553528Y-86550768D01*
X170931171Y-83928411D01*
X170931169Y-83928408D01*
X170839482Y-83836721D01*
X170839476Y-83836716D01*
X170735844Y-83776884D01*
X170735839Y-83776882D01*
X170711413Y-83770336D01*
X170711413Y-83770337D01*
X170637372Y-83750498D01*
X170620246Y-83745909D01*
X170500574Y-83745909D01*
X170492978Y-83745909D01*
X170492962Y-83745910D01*
X157198081Y-83745910D01*
X157131042Y-83726225D01*
X157085287Y-83673421D01*
X157075343Y-83604263D01*
X157104368Y-83540707D01*
X157140301Y-83512194D01*
X157153327Y-83505334D01*
X157223584Y-83468335D01*
X157276611Y-83422838D01*
X157294653Y-83405332D01*
X157339688Y-83325733D01*
X157359699Y-83258790D01*
X157359699Y-83258785D01*
X157360663Y-83254463D01*
X157361791Y-83254714D01*
X157388924Y-83196032D01*
X157447879Y-83158535D01*
X157517748Y-83158864D01*
X157556243Y-83181826D01*
X157557991Y-83179549D01*
X157564432Y-83184491D01*
X157564436Y-83184495D01*
X157672864Y-83247095D01*
X157793799Y-83279500D01*
X157793801Y-83279500D01*
X157918999Y-83279500D01*
X157919001Y-83279500D01*
X158039936Y-83247095D01*
X158148364Y-83184495D01*
X158236895Y-83095964D01*
X158299495Y-82987536D01*
X158331900Y-82866601D01*
X158331900Y-82741399D01*
X158299495Y-82620464D01*
X158236895Y-82512036D01*
X158148364Y-82423505D01*
X158085438Y-82387175D01*
X158037223Y-82336609D01*
X158023999Y-82268002D01*
X158049967Y-82203137D01*
X158106881Y-82162608D01*
X158147438Y-82155788D01*
X170824523Y-82155788D01*
X170891562Y-82175473D01*
X170912204Y-82192107D01*
X179294381Y-90574284D01*
X179327866Y-90635607D01*
X179330700Y-90661965D01*
X179330700Y-97992102D01*
X179311015Y-98059141D01*
X179294381Y-98079783D01*
X178291437Y-99082726D01*
X178255142Y-99107896D01*
X177163909Y-99604785D01*
X177148532Y-99610590D01*
X177146041Y-99611345D01*
X176963958Y-99686766D01*
X176963946Y-99686773D01*
X176927790Y-99710930D01*
X176927791Y-99710931D01*
X176921353Y-99715233D01*
X176920755Y-99715506D01*
X176905920Y-99723000D01*
X176904288Y-99723909D01*
X176900095Y-99726309D01*
X176888713Y-99737041D01*
X176880082Y-99742809D01*
X176800087Y-99796260D01*
X176800083Y-99796263D01*
X176660732Y-99935614D01*
X176660729Y-99935618D01*
X176551240Y-100099479D01*
X176551233Y-100099492D01*
X176475819Y-100281560D01*
X176475816Y-100281570D01*
X176437369Y-100474856D01*
X176437369Y-100474859D01*
X176437369Y-100671941D01*
X176437369Y-100671943D01*
X176437368Y-100671943D01*
X176475816Y-100865229D01*
X176475819Y-100865239D01*
X176551233Y-101047307D01*
X176551240Y-101047320D01*
X176660729Y-101211181D01*
X176660732Y-101211185D01*
X176800083Y-101350536D01*
X176800087Y-101350539D01*
X176963948Y-101460028D01*
X176963961Y-101460035D01*
X177146029Y-101535449D01*
X177146034Y-101535451D01*
X177146038Y-101535451D01*
X177146039Y-101535452D01*
X177339325Y-101573900D01*
X177339328Y-101573900D01*
X177536412Y-101573900D01*
X177689023Y-101543543D01*
X177729704Y-101535451D01*
X177911783Y-101460032D01*
X178075651Y-101350539D01*
X178215008Y-101211182D01*
X178294025Y-101092924D01*
X178295765Y-101090506D01*
X178296030Y-101089923D01*
X178324501Y-101047314D01*
X178399920Y-100865235D01*
X178399921Y-100865226D01*
X178400675Y-100862744D01*
X178406484Y-100847349D01*
X178903368Y-99756125D01*
X178928534Y-99719836D01*
X180005742Y-98642629D01*
X180031414Y-98622929D01*
X180057813Y-98607689D01*
X180141689Y-98523813D01*
X180200999Y-98421086D01*
X180231700Y-98306509D01*
X180231700Y-90364691D01*
X180200999Y-90250114D01*
X180200999Y-90250113D01*
X180200999Y-90250112D01*
X180141692Y-90147389D01*
X180141688Y-90147384D01*
X176473689Y-86479385D01*
X176440204Y-86418062D01*
X176445188Y-86348370D01*
X176487060Y-86292437D01*
X176552524Y-86268020D01*
X176602325Y-86274663D01*
X176744678Y-86324474D01*
X176744690Y-86324478D01*
X177018444Y-86386960D01*
X177018456Y-86386962D01*
X177297467Y-86418399D01*
X177297469Y-86418400D01*
X177578269Y-86418400D01*
X177578270Y-86418399D01*
X177857281Y-86386962D01*
X177857293Y-86386960D01*
X178131047Y-86324478D01*
X178131049Y-86324477D01*
X178396086Y-86231737D01*
X178649069Y-86109907D01*
X178886825Y-85960516D01*
X179020126Y-85854210D01*
X178378567Y-85212651D01*
X178480199Y-85138812D01*
X178658281Y-84960730D01*
X178732120Y-84859098D01*
X179373679Y-85500657D01*
X179479985Y-85367356D01*
X179629376Y-85129600D01*
X179751206Y-84876617D01*
X179843946Y-84611580D01*
X179843947Y-84611578D01*
X179906429Y-84337824D01*
X179906431Y-84337812D01*
X179937868Y-84058801D01*
X179937869Y-84058799D01*
X179937869Y-83778000D01*
X179937868Y-83777998D01*
X179906431Y-83498987D01*
X179906429Y-83498975D01*
X179843947Y-83225221D01*
X179843946Y-83225219D01*
X179751206Y-82960182D01*
X179629376Y-82707199D01*
X179479984Y-82469443D01*
X179373679Y-82336141D01*
X178732120Y-82977700D01*
X178658281Y-82876070D01*
X178480199Y-82697988D01*
X178378566Y-82624147D01*
X179020126Y-81982587D01*
X178886825Y-81876284D01*
X178649069Y-81726892D01*
X178396086Y-81605062D01*
X178131049Y-81512322D01*
X178131047Y-81512321D01*
X177857293Y-81449839D01*
X177857281Y-81449837D01*
X177578270Y-81418400D01*
X177297467Y-81418400D01*
X177018456Y-81449837D01*
X177018444Y-81449839D01*
X176744690Y-81512321D01*
X176744688Y-81512322D01*
X176479651Y-81605062D01*
X176226668Y-81726892D01*
X175988912Y-81876284D01*
X175855610Y-81982587D01*
X176497170Y-82624147D01*
X176395539Y-82697988D01*
X176217457Y-82876070D01*
X176143616Y-82977701D01*
X175502056Y-82336141D01*
X175395753Y-82469443D01*
X175246361Y-82707199D01*
X175124531Y-82960182D01*
X175031791Y-83225219D01*
X175031790Y-83225221D01*
X174969308Y-83498975D01*
X174969306Y-83498987D01*
X174937869Y-83777998D01*
X174937869Y-84058801D01*
X174969306Y-84337812D01*
X174969308Y-84337824D01*
X175031790Y-84611578D01*
X175031791Y-84611580D01*
X175081606Y-84753944D01*
X175085167Y-84823723D01*
X175050438Y-84884350D01*
X174988445Y-84916577D01*
X174918869Y-84910172D01*
X174876883Y-84882579D01*
X172113018Y-82118715D01*
X171339104Y-81344801D01*
X171339102Y-81344799D01*
X171287738Y-81315144D01*
X171236376Y-81285489D01*
X171224268Y-81282245D01*
X171212161Y-81279001D01*
X171212158Y-81279000D01*
X171160147Y-81265064D01*
X171121797Y-81254788D01*
X171121796Y-81254788D01*
X157325271Y-81254788D01*
X157262238Y-81237572D01*
X157179060Y-81188473D01*
X157112494Y-81167235D01*
X157054804Y-81157567D01*
X156212418Y-81137977D01*
X156212386Y-81137978D01*
X156165335Y-81142320D01*
X156165323Y-81142321D01*
X156109889Y-81153980D01*
X156096443Y-81157284D01*
X156016138Y-81201052D01*
X156016135Y-81201054D01*
X155963774Y-81247296D01*
X155945980Y-81265063D01*
X155945979Y-81265064D01*
X155902087Y-81345298D01*
X155883035Y-81412519D01*
X155875256Y-81470493D01*
X155891355Y-83179066D01*
X155891356Y-83179081D01*
X155895632Y-83218877D01*
X155895636Y-83218908D01*
X155905401Y-83265960D01*
X155906848Y-83272413D01*
X155906849Y-83272417D01*
X155947535Y-83354322D01*
X155947537Y-83354324D01*
X155991766Y-83408413D01*
X155991775Y-83408423D01*
X155991777Y-83408425D01*
X156008836Y-83426862D01*
X156008838Y-83426863D01*
X156008839Y-83426864D01*
X156087350Y-83473771D01*
X156153800Y-83495361D01*
X156153803Y-83495361D01*
X156153804Y-83495362D01*
X156179024Y-83499726D01*
X156241726Y-83530553D01*
X156277808Y-83590385D01*
X156275814Y-83660226D01*
X156236377Y-83717902D01*
X156172019Y-83745101D01*
X156157882Y-83745910D01*
X155363354Y-83745910D01*
X155247759Y-83776883D01*
X155247756Y-83776884D01*
X155144123Y-83836717D01*
X155144117Y-83836721D01*
X155059497Y-83921342D01*
X154440201Y-84540637D01*
X154378878Y-84574122D01*
X154351916Y-84576955D01*
X153252416Y-84571600D01*
X153076275Y-84570743D01*
X153076274Y-84570743D01*
X153076270Y-84570743D01*
X153034421Y-84574843D01*
X152984914Y-84584886D01*
X152976566Y-84586761D01*
X152976564Y-84586762D01*
X152894876Y-84627882D01*
X152894875Y-84627882D01*
X152841024Y-84672394D01*
X152841007Y-84672410D01*
X152822661Y-84689568D01*
X152822656Y-84689574D01*
X152776169Y-84768327D01*
X152754931Y-84834891D01*
X152745264Y-84892580D01*
X152745263Y-84892583D01*
X152725673Y-85734970D01*
X152725674Y-85735002D01*
X152730016Y-85782053D01*
X152730017Y-85782065D01*
X152741676Y-85837499D01*
X152744980Y-85850945D01*
X152788748Y-85931250D01*
X152788750Y-85931253D01*
X152834992Y-85983614D01*
X152834998Y-85983620D01*
X152852759Y-86001409D01*
X152932994Y-86045302D01*
X153000216Y-86064354D01*
X153058188Y-86072132D01*
X154766769Y-86056033D01*
X154806590Y-86051755D01*
X154853692Y-86041980D01*
X154860113Y-86040540D01*
X154942020Y-85999852D01*
X154996109Y-85955623D01*
X155014560Y-85938550D01*
X155061467Y-85860039D01*
X155083057Y-85793589D01*
X155093030Y-85735955D01*
X155108162Y-85206066D01*
X155129752Y-85139619D01*
X155144424Y-85121934D01*
X155575131Y-84691229D01*
X155636454Y-84657744D01*
X155662812Y-84654910D01*
X156573449Y-84654910D01*
X156640488Y-84674595D01*
X156686243Y-84727399D01*
X156696187Y-84796557D01*
X156693226Y-84810992D01*
X156680901Y-84856991D01*
X156680901Y-84975609D01*
X156711602Y-85090186D01*
X156770912Y-85192913D01*
X156854788Y-85276789D01*
X156872202Y-85286843D01*
X156953728Y-85333914D01*
X157001943Y-85384481D01*
X157015165Y-85453088D01*
X156989197Y-85517953D01*
X156953728Y-85548686D01*
X156854794Y-85605807D01*
X156854785Y-85605813D01*
X156770914Y-85689684D01*
X156770912Y-85689687D01*
X156711602Y-85792414D01*
X156680901Y-85906991D01*
X156680901Y-86025609D01*
X156711602Y-86140186D01*
X156770912Y-86242913D01*
X156854788Y-86326789D01*
X156878841Y-86340676D01*
X156953728Y-86383914D01*
X157001943Y-86434481D01*
X157015165Y-86503088D01*
X156989197Y-86567953D01*
X156953728Y-86598686D01*
X156854794Y-86655807D01*
X156854785Y-86655813D01*
X156770914Y-86739684D01*
X156770912Y-86739687D01*
X156714148Y-86838005D01*
X156711602Y-86842414D01*
X156680901Y-86956991D01*
X156680901Y-87075609D01*
X156711602Y-87190186D01*
X156770912Y-87292913D01*
X156854788Y-87376789D01*
X156957515Y-87436099D01*
X157072092Y-87466800D01*
X157072095Y-87466800D01*
X157190707Y-87466800D01*
X157190710Y-87466800D01*
X157305287Y-87436099D01*
X157408014Y-87376789D01*
X157491890Y-87292913D01*
X157549014Y-87193971D01*
X157599582Y-87145757D01*
X157668189Y-87132535D01*
X157733053Y-87158503D01*
X157763787Y-87193971D01*
X157820912Y-87292913D01*
X157904788Y-87376789D01*
X158007515Y-87436099D01*
X158122092Y-87466800D01*
X158122095Y-87466800D01*
X158240707Y-87466800D01*
X158240710Y-87466800D01*
X158355287Y-87436099D01*
X158458014Y-87376789D01*
X158472278Y-87362525D01*
X158533601Y-87329040D01*
X158603293Y-87334024D01*
X158659226Y-87375896D01*
X158683643Y-87441360D01*
X158683959Y-87450206D01*
X158683959Y-90444710D01*
X158664274Y-90511749D01*
X158611470Y-90557504D01*
X158542312Y-90567448D01*
X158497961Y-90552098D01*
X158446094Y-90522154D01*
X158446091Y-90522152D01*
X158382575Y-90505133D01*
X158325155Y-90489747D01*
X158199953Y-90489747D01*
X158142533Y-90505133D01*
X158079017Y-90522152D01*
X157970591Y-90584751D01*
X157970588Y-90584753D01*
X157882060Y-90673281D01*
X157882058Y-90673284D01*
X157819459Y-90781710D01*
X157819459Y-90781711D01*
X157787054Y-90902646D01*
X157787054Y-91027848D01*
X157819459Y-91148783D01*
X157882059Y-91257211D01*
X157970590Y-91345742D01*
X158024335Y-91376771D01*
X158044212Y-91388247D01*
X158092428Y-91438814D01*
X158105652Y-91507421D01*
X158079684Y-91572286D01*
X158044213Y-91603022D01*
X157957723Y-91652956D01*
X157957718Y-91652960D01*
X157869190Y-91741488D01*
X157869188Y-91741491D01*
X157806589Y-91849917D01*
X157797097Y-91885341D01*
X157774184Y-91970853D01*
X157774184Y-92096055D01*
X157806589Y-92216990D01*
X157869189Y-92325418D01*
X157957720Y-92413949D01*
X158066148Y-92476549D01*
X158187083Y-92508954D01*
X158187085Y-92508954D01*
X158312283Y-92508954D01*
X158312285Y-92508954D01*
X158433220Y-92476549D01*
X158497960Y-92439171D01*
X158565859Y-92422699D01*
X158631886Y-92445552D01*
X158675077Y-92500473D01*
X158683959Y-92546559D01*
X158683959Y-99949997D01*
X158664274Y-100017036D01*
X158643199Y-100041905D01*
X154926356Y-103408220D01*
X154863453Y-103438633D01*
X154794093Y-103430210D01*
X154740297Y-103385625D01*
X154723341Y-103348405D01*
X154718478Y-103330255D01*
X154682777Y-103197016D01*
X154649288Y-103139011D01*
X154603724Y-103060090D01*
X154603718Y-103060082D01*
X154491917Y-102948281D01*
X154491909Y-102948275D01*
X154354990Y-102869226D01*
X154354986Y-102869224D01*
X154354984Y-102869223D01*
X154202257Y-102828300D01*
X153544143Y-102828300D01*
X153391416Y-102869223D01*
X153391409Y-102869226D01*
X153254490Y-102948275D01*
X153254482Y-102948281D01*
X153142681Y-103060082D01*
X153142675Y-103060090D01*
X153063626Y-103197009D01*
X153063623Y-103197016D01*
X153022700Y-103349743D01*
X153022700Y-103440601D01*
X153003015Y-103507640D01*
X152950211Y-103553395D01*
X152900976Y-103564580D01*
X152773276Y-103566924D01*
X152759269Y-103567659D01*
X152752575Y-103568241D01*
X152750119Y-103568470D01*
X152750115Y-103568471D01*
X152663398Y-103597520D01*
X152663397Y-103597521D01*
X152631378Y-103617048D01*
X152579436Y-103662230D01*
X152579435Y-103662232D01*
X152538658Y-103744088D01*
X152538657Y-103744090D01*
X152529825Y-103780530D01*
X152526505Y-103860652D01*
X152658899Y-104708322D01*
X152658668Y-104710076D01*
X152659378Y-104711695D01*
X152654134Y-104744574D01*
X152649795Y-104777596D01*
X152648653Y-104778946D01*
X152648375Y-104780692D01*
X152626181Y-104805524D01*
X152604684Y-104830951D01*
X152602994Y-104831469D01*
X152601816Y-104832788D01*
X152569734Y-104841675D01*
X152537889Y-104851448D01*
X152536185Y-104850970D01*
X152534482Y-104851442D01*
X152502679Y-104841571D01*
X152470615Y-104832578D01*
X152468902Y-104831088D01*
X152467752Y-104830732D01*
X152441437Y-104807213D01*
X152308592Y-104649064D01*
X152304780Y-104644292D01*
X151232300Y-103231757D01*
X151223671Y-103218772D01*
X151211106Y-103197009D01*
X151205695Y-103187636D01*
X151183027Y-103164968D01*
X151171949Y-103152271D01*
X151161881Y-103139011D01*
X149222686Y-100584948D01*
X149198533Y-100558335D01*
X149187715Y-100548332D01*
X149166890Y-100529074D01*
X149165013Y-100527358D01*
X149165008Y-100527355D01*
X149085197Y-100482711D01*
X149085192Y-100482709D01*
X149018160Y-100463026D01*
X149018156Y-100463025D01*
X149018155Y-100463025D01*
X148960257Y-100454700D01*
X147138698Y-100454700D01*
X147130906Y-100454848D01*
X147130881Y-100454848D01*
X147130878Y-100454849D01*
X147121500Y-100455204D01*
X147121498Y-100455204D01*
X147056594Y-100468344D01*
X146991243Y-100493059D01*
X146991238Y-100493060D01*
X146968328Y-100503367D01*
X146968322Y-100503371D01*
X146898871Y-100562865D01*
X146898863Y-100562873D01*
X146857253Y-100618987D01*
X146843539Y-100640065D01*
X146817278Y-100727668D01*
X146812612Y-100797374D01*
X146812612Y-100797383D01*
X146812470Y-100822517D01*
X146812471Y-100822519D01*
X146837739Y-100910414D01*
X146871499Y-100971578D01*
X146871508Y-100971593D01*
X146906760Y-101018238D01*
X146906768Y-101018248D01*
X147190364Y-101299278D01*
X147210465Y-101325351D01*
X147225007Y-101350539D01*
X147244304Y-101383963D01*
X147332836Y-101472495D01*
X147396397Y-101509191D01*
X147421680Y-101528500D01*
X150080866Y-104163621D01*
X150114629Y-104224791D01*
X150109962Y-104294505D01*
X150068345Y-104350628D01*
X150008477Y-104373268D01*
X150008658Y-104374639D01*
X150000601Y-104375699D01*
X149879663Y-104408105D01*
X149771237Y-104470704D01*
X149771234Y-104470706D01*
X149682706Y-104559234D01*
X149682704Y-104559237D01*
X149620105Y-104667663D01*
X149605091Y-104723695D01*
X149587700Y-104788599D01*
X149587700Y-104913801D01*
X149620105Y-105034736D01*
X149682705Y-105143164D01*
X149771236Y-105231695D01*
X149879664Y-105294295D01*
X150000599Y-105326700D01*
X150000601Y-105326700D01*
X150125799Y-105326700D01*
X150125801Y-105326700D01*
X150246736Y-105294295D01*
X150355164Y-105231695D01*
X150443695Y-105143164D01*
X150506295Y-105034736D01*
X150538700Y-104913801D01*
X150538700Y-104913798D01*
X150539761Y-104905742D01*
X150541288Y-104905943D01*
X150558385Y-104847721D01*
X150611189Y-104801966D01*
X150680347Y-104792022D01*
X150743903Y-104821047D01*
X150749971Y-104826670D01*
X152243256Y-106306442D01*
X152259565Y-106322603D01*
X152293328Y-106383773D01*
X152288661Y-106453487D01*
X152247044Y-106509610D01*
X152181691Y-106534325D01*
X152169400Y-106534648D01*
X150901038Y-106505151D01*
X150901036Y-106505151D01*
X150845383Y-106511493D01*
X150845382Y-106511493D01*
X150780494Y-106528074D01*
X150730479Y-106548453D01*
X150715787Y-106553393D01*
X150704288Y-106556474D01*
X150673313Y-106564774D01*
X150641220Y-106569000D01*
X150602781Y-106569000D01*
X150570688Y-106564775D01*
X150532816Y-106554627D01*
X150512920Y-106547144D01*
X150512913Y-106547164D01*
X150512311Y-106546915D01*
X150510124Y-106546093D01*
X150509130Y-106545603D01*
X150509126Y-106545601D01*
X150509120Y-106545598D01*
X150509115Y-106545596D01*
X150459098Y-106524948D01*
X150459096Y-106524947D01*
X150459093Y-106524946D01*
X150459091Y-106524945D01*
X150459087Y-106524944D01*
X150431909Y-106517731D01*
X150396511Y-106508336D01*
X150396506Y-106508335D01*
X150396500Y-106508334D01*
X150342822Y-106501461D01*
X150342820Y-106501461D01*
X149459453Y-106505648D01*
X148288096Y-106511199D01*
X148220964Y-106491832D01*
X148174959Y-106439245D01*
X148164688Y-106370135D01*
X148193411Y-106306442D01*
X148236591Y-106275149D01*
X148236824Y-106273977D01*
X147912801Y-105949954D01*
X147912800Y-105949954D01*
X147588775Y-106273977D01*
X147594021Y-106276150D01*
X147648424Y-106319991D01*
X147670489Y-106386285D01*
X147653210Y-106453985D01*
X147602072Y-106501595D01*
X147547156Y-106514710D01*
X147273785Y-106516006D01*
X147225943Y-106516232D01*
X147158812Y-106496866D01*
X147112807Y-106444280D01*
X147102536Y-106375169D01*
X147131259Y-106311477D01*
X147177902Y-106277673D01*
X147186824Y-106273977D01*
X146862801Y-105949954D01*
X146862800Y-105949954D01*
X146538775Y-106273977D01*
X146555899Y-106281070D01*
X146610302Y-106324911D01*
X146632367Y-106391205D01*
X146615088Y-106458905D01*
X146563950Y-106506515D01*
X146509034Y-106519630D01*
X146163791Y-106521266D01*
X146096659Y-106501899D01*
X146050654Y-106449312D01*
X146040383Y-106380202D01*
X146069106Y-106316509D01*
X146115750Y-106282706D01*
X146136823Y-106273976D01*
X145636023Y-105773177D01*
X145495565Y-105632719D01*
X145439355Y-105576509D01*
X145712800Y-105576509D01*
X145712800Y-105616291D01*
X145728024Y-105653045D01*
X145756155Y-105681176D01*
X145792909Y-105696400D01*
X145832691Y-105696400D01*
X145869445Y-105681176D01*
X145897576Y-105653045D01*
X145912800Y-105616291D01*
X145912800Y-105596400D01*
X146166354Y-105596400D01*
X146337800Y-105767846D01*
X146509246Y-105596400D01*
X146489355Y-105576509D01*
X146762800Y-105576509D01*
X146762800Y-105616291D01*
X146778024Y-105653045D01*
X146806155Y-105681176D01*
X146842909Y-105696400D01*
X146882691Y-105696400D01*
X146919445Y-105681176D01*
X146947576Y-105653045D01*
X146962800Y-105616291D01*
X146962800Y-105596400D01*
X147216354Y-105596400D01*
X147387800Y-105767846D01*
X147559246Y-105596400D01*
X147539355Y-105576509D01*
X147812800Y-105576509D01*
X147812800Y-105616291D01*
X147828024Y-105653045D01*
X147856155Y-105681176D01*
X147892909Y-105696400D01*
X147932691Y-105696400D01*
X147969445Y-105681176D01*
X147997576Y-105653045D01*
X148012800Y-105616291D01*
X148012800Y-105596399D01*
X148266354Y-105596399D01*
X148266354Y-105596401D01*
X148590377Y-105920424D01*
X148590378Y-105920424D01*
X148633975Y-105815175D01*
X148633979Y-105815160D01*
X148662799Y-105670273D01*
X148662800Y-105670271D01*
X148662800Y-105522528D01*
X148662799Y-105522526D01*
X148633979Y-105377640D01*
X148633978Y-105377636D01*
X148590377Y-105272375D01*
X148266354Y-105596399D01*
X148012800Y-105596399D01*
X148012800Y-105576509D01*
X147997576Y-105539755D01*
X147969445Y-105511624D01*
X147932691Y-105496400D01*
X147892909Y-105496400D01*
X147856155Y-105511624D01*
X147828024Y-105539755D01*
X147812800Y-105576509D01*
X147539355Y-105576509D01*
X147387800Y-105424954D01*
X147216354Y-105596400D01*
X146962800Y-105596400D01*
X146962800Y-105576509D01*
X146947576Y-105539755D01*
X146919445Y-105511624D01*
X146882691Y-105496400D01*
X146842909Y-105496400D01*
X146806155Y-105511624D01*
X146778024Y-105539755D01*
X146762800Y-105576509D01*
X146489355Y-105576509D01*
X146337800Y-105424954D01*
X146166354Y-105596400D01*
X145912800Y-105596400D01*
X145912800Y-105576509D01*
X145897576Y-105539755D01*
X145869445Y-105511624D01*
X145832691Y-105496400D01*
X145792909Y-105496400D01*
X145756155Y-105511624D01*
X145728024Y-105539755D01*
X145712800Y-105576509D01*
X145439355Y-105576509D01*
X145135221Y-105272374D01*
X145135220Y-105272374D01*
X145091623Y-105377628D01*
X145091620Y-105377637D01*
X145077090Y-105450685D01*
X145044704Y-105512595D01*
X144983988Y-105547169D01*
X144914219Y-105543428D01*
X144857547Y-105502561D01*
X144847495Y-105487457D01*
X144638942Y-105118019D01*
X144620956Y-105093625D01*
X144609407Y-105077961D01*
X144609397Y-105077949D01*
X144603213Y-105071400D01*
X145641354Y-105071400D01*
X145812800Y-105242846D01*
X145984246Y-105071400D01*
X146691354Y-105071400D01*
X146862800Y-105242846D01*
X147034246Y-105071400D01*
X147741354Y-105071400D01*
X147912800Y-105242846D01*
X148084246Y-105071400D01*
X147912800Y-104899954D01*
X147741354Y-105071400D01*
X147034246Y-105071400D01*
X146862800Y-104899954D01*
X146691354Y-105071400D01*
X145984246Y-105071400D01*
X145812800Y-104899954D01*
X145641354Y-105071400D01*
X144603213Y-105071400D01*
X144568456Y-105034594D01*
X144556758Y-105023155D01*
X144498299Y-104990455D01*
X144476943Y-104978510D01*
X144476942Y-104978509D01*
X144476941Y-104978509D01*
X144409909Y-104958826D01*
X144409905Y-104958825D01*
X144409904Y-104958825D01*
X144352006Y-104950500D01*
X143385455Y-104950500D01*
X143350400Y-104953512D01*
X143350396Y-104953512D01*
X143350392Y-104953513D01*
X143350387Y-104953513D01*
X143308722Y-104960727D01*
X143307059Y-104961022D01*
X143307052Y-104961024D01*
X143222971Y-104996972D01*
X143222960Y-104996978D01*
X143166454Y-105038041D01*
X143147051Y-105054043D01*
X143147048Y-105054046D01*
X143095746Y-105129751D01*
X143070399Y-105194874D01*
X143062736Y-105218796D01*
X143062735Y-105218800D01*
X143060504Y-105310223D01*
X111705700Y-105310223D01*
X111705700Y-104472526D01*
X145062800Y-104472526D01*
X145062800Y-104620273D01*
X145091620Y-104765159D01*
X145091622Y-104765167D01*
X145135221Y-104870424D01*
X145459246Y-104546400D01*
X145459246Y-104546399D01*
X145439356Y-104526509D01*
X145712800Y-104526509D01*
X145712800Y-104566291D01*
X145728024Y-104603045D01*
X145756155Y-104631176D01*
X145792909Y-104646400D01*
X145832691Y-104646400D01*
X145869445Y-104631176D01*
X145897576Y-104603045D01*
X145912800Y-104566291D01*
X145912800Y-104546400D01*
X146166354Y-104546400D01*
X146337800Y-104717846D01*
X146509246Y-104546400D01*
X146489355Y-104526509D01*
X146762800Y-104526509D01*
X146762800Y-104566291D01*
X146778024Y-104603045D01*
X146806155Y-104631176D01*
X146842909Y-104646400D01*
X146882691Y-104646400D01*
X146919445Y-104631176D01*
X146947576Y-104603045D01*
X146962800Y-104566291D01*
X146962800Y-104546400D01*
X147216354Y-104546400D01*
X147387800Y-104717846D01*
X147559246Y-104546400D01*
X147539355Y-104526509D01*
X147812800Y-104526509D01*
X147812800Y-104566291D01*
X147828024Y-104603045D01*
X147856155Y-104631176D01*
X147892909Y-104646400D01*
X147932691Y-104646400D01*
X147969445Y-104631176D01*
X147997576Y-104603045D01*
X148012800Y-104566291D01*
X148012800Y-104546399D01*
X148266354Y-104546399D01*
X148266354Y-104546401D01*
X148590377Y-104870424D01*
X148590378Y-104870424D01*
X148633975Y-104765175D01*
X148633979Y-104765160D01*
X148662799Y-104620273D01*
X148662800Y-104620271D01*
X148662800Y-104472528D01*
X148662799Y-104472526D01*
X148633979Y-104327640D01*
X148633978Y-104327636D01*
X148590377Y-104222375D01*
X148266354Y-104546399D01*
X148012800Y-104546399D01*
X148012800Y-104526509D01*
X147997576Y-104489755D01*
X147969445Y-104461624D01*
X147932691Y-104446400D01*
X147892909Y-104446400D01*
X147856155Y-104461624D01*
X147828024Y-104489755D01*
X147812800Y-104526509D01*
X147539355Y-104526509D01*
X147387800Y-104374954D01*
X147216354Y-104546400D01*
X146962800Y-104546400D01*
X146962800Y-104526509D01*
X146947576Y-104489755D01*
X146919445Y-104461624D01*
X146882691Y-104446400D01*
X146842909Y-104446400D01*
X146806155Y-104461624D01*
X146778024Y-104489755D01*
X146762800Y-104526509D01*
X146489355Y-104526509D01*
X146337800Y-104374954D01*
X146166354Y-104546400D01*
X145912800Y-104546400D01*
X145912800Y-104526509D01*
X145897576Y-104489755D01*
X145869445Y-104461624D01*
X145832691Y-104446400D01*
X145792909Y-104446400D01*
X145756155Y-104461624D01*
X145728024Y-104489755D01*
X145712800Y-104526509D01*
X145439356Y-104526509D01*
X145135221Y-104222374D01*
X145135220Y-104222374D01*
X145091623Y-104327628D01*
X145091620Y-104327640D01*
X145062800Y-104472526D01*
X111705700Y-104472526D01*
X111705700Y-103848799D01*
X143466300Y-103848799D01*
X143466300Y-103974001D01*
X143498705Y-104094936D01*
X143561305Y-104203364D01*
X143649836Y-104291895D01*
X143758264Y-104354495D01*
X143879199Y-104386900D01*
X143879201Y-104386900D01*
X144004399Y-104386900D01*
X144004401Y-104386900D01*
X144125336Y-104354495D01*
X144233764Y-104291895D01*
X144322295Y-104203364D01*
X144384895Y-104094936D01*
X144404599Y-104021400D01*
X145641354Y-104021400D01*
X145812800Y-104192846D01*
X145984246Y-104021400D01*
X146691354Y-104021400D01*
X146862800Y-104192846D01*
X147034246Y-104021400D01*
X147741354Y-104021400D01*
X147912800Y-104192846D01*
X148084246Y-104021400D01*
X147912800Y-103849954D01*
X147741354Y-104021400D01*
X147034246Y-104021400D01*
X146862800Y-103849954D01*
X146691354Y-104021400D01*
X145984246Y-104021400D01*
X145812800Y-103849954D01*
X145641354Y-104021400D01*
X144404599Y-104021400D01*
X144417300Y-103974001D01*
X144417300Y-103848799D01*
X144384895Y-103727864D01*
X144322295Y-103619436D01*
X144233764Y-103530905D01*
X144233763Y-103530904D01*
X144221504Y-103523827D01*
X144183547Y-103501913D01*
X144125336Y-103468305D01*
X144125337Y-103468305D01*
X144065792Y-103452350D01*
X144004401Y-103435900D01*
X143879199Y-103435900D01*
X143817808Y-103452350D01*
X143758263Y-103468305D01*
X143649837Y-103530904D01*
X143649834Y-103530906D01*
X143561306Y-103619434D01*
X143561304Y-103619437D01*
X143498705Y-103727863D01*
X143498705Y-103727864D01*
X143466300Y-103848799D01*
X111705700Y-103848799D01*
X111705700Y-103112199D01*
X137548100Y-103112199D01*
X137548100Y-103237401D01*
X137580505Y-103358336D01*
X137643105Y-103466764D01*
X137731636Y-103555295D01*
X137840064Y-103617895D01*
X137960999Y-103650300D01*
X137961001Y-103650300D01*
X138086199Y-103650300D01*
X138086201Y-103650300D01*
X138207136Y-103617895D01*
X138315564Y-103555295D01*
X138404095Y-103466764D01*
X138429635Y-103422526D01*
X145062800Y-103422526D01*
X145062800Y-103570273D01*
X145091620Y-103715159D01*
X145091622Y-103715167D01*
X145135221Y-103820424D01*
X145459246Y-103496400D01*
X145459246Y-103496399D01*
X145439356Y-103476509D01*
X145712800Y-103476509D01*
X145712800Y-103516291D01*
X145728024Y-103553045D01*
X145756155Y-103581176D01*
X145792909Y-103596400D01*
X145832691Y-103596400D01*
X145869445Y-103581176D01*
X145897576Y-103553045D01*
X145912800Y-103516291D01*
X145912800Y-103496400D01*
X146166354Y-103496400D01*
X146337800Y-103667846D01*
X146509246Y-103496400D01*
X146489355Y-103476509D01*
X146762800Y-103476509D01*
X146762800Y-103516291D01*
X146778024Y-103553045D01*
X146806155Y-103581176D01*
X146842909Y-103596400D01*
X146882691Y-103596400D01*
X146919445Y-103581176D01*
X146947576Y-103553045D01*
X146962800Y-103516291D01*
X146962800Y-103496400D01*
X147216354Y-103496400D01*
X147387800Y-103667846D01*
X147559246Y-103496400D01*
X147539355Y-103476509D01*
X147812800Y-103476509D01*
X147812800Y-103516291D01*
X147828024Y-103553045D01*
X147856155Y-103581176D01*
X147892909Y-103596400D01*
X147932691Y-103596400D01*
X147969445Y-103581176D01*
X147997576Y-103553045D01*
X148012800Y-103516291D01*
X148012800Y-103496399D01*
X148266354Y-103496399D01*
X148266354Y-103496401D01*
X148590377Y-103820424D01*
X148590378Y-103820424D01*
X148633975Y-103715175D01*
X148633979Y-103715160D01*
X148662799Y-103570273D01*
X148662800Y-103570271D01*
X148662800Y-103422528D01*
X148662799Y-103422526D01*
X148633979Y-103277640D01*
X148633978Y-103277636D01*
X148590377Y-103172375D01*
X148266354Y-103496399D01*
X148012800Y-103496399D01*
X148012800Y-103476509D01*
X147997576Y-103439755D01*
X147969445Y-103411624D01*
X147932691Y-103396400D01*
X147892909Y-103396400D01*
X147856155Y-103411624D01*
X147828024Y-103439755D01*
X147812800Y-103476509D01*
X147539355Y-103476509D01*
X147387800Y-103324954D01*
X147216354Y-103496400D01*
X146962800Y-103496400D01*
X146962800Y-103476509D01*
X146947576Y-103439755D01*
X146919445Y-103411624D01*
X146882691Y-103396400D01*
X146842909Y-103396400D01*
X146806155Y-103411624D01*
X146778024Y-103439755D01*
X146762800Y-103476509D01*
X146489355Y-103476509D01*
X146337800Y-103324954D01*
X146166354Y-103496400D01*
X145912800Y-103496400D01*
X145912800Y-103476509D01*
X145897576Y-103439755D01*
X145869445Y-103411624D01*
X145832691Y-103396400D01*
X145792909Y-103396400D01*
X145756155Y-103411624D01*
X145728024Y-103439755D01*
X145712800Y-103476509D01*
X145439356Y-103476509D01*
X145135221Y-103172374D01*
X145135220Y-103172374D01*
X145091623Y-103277628D01*
X145091620Y-103277640D01*
X145062800Y-103422526D01*
X138429635Y-103422526D01*
X138466695Y-103358336D01*
X138499100Y-103237401D01*
X138499100Y-103112199D01*
X138466695Y-102991264D01*
X138404095Y-102882836D01*
X138340079Y-102818820D01*
X145488774Y-102818820D01*
X145488774Y-102818821D01*
X145812800Y-103142846D01*
X145812801Y-103142846D01*
X146136824Y-102818821D01*
X146136822Y-102818820D01*
X146538774Y-102818820D01*
X146538774Y-102818821D01*
X146862800Y-103142846D01*
X146862801Y-103142846D01*
X147186824Y-102818821D01*
X147186822Y-102818820D01*
X147588774Y-102818820D01*
X147588774Y-102818821D01*
X147912800Y-103142846D01*
X147912801Y-103142846D01*
X148236824Y-102818821D01*
X148131567Y-102775222D01*
X148131559Y-102775220D01*
X147986672Y-102746400D01*
X147838928Y-102746400D01*
X147694040Y-102775220D01*
X147694028Y-102775223D01*
X147588774Y-102818820D01*
X147186822Y-102818820D01*
X147081567Y-102775222D01*
X147081559Y-102775220D01*
X146936672Y-102746400D01*
X146788928Y-102746400D01*
X146644040Y-102775220D01*
X146644028Y-102775223D01*
X146538774Y-102818820D01*
X146136822Y-102818820D01*
X146031567Y-102775222D01*
X146031559Y-102775220D01*
X145886672Y-102746400D01*
X145738928Y-102746400D01*
X145594040Y-102775220D01*
X145594028Y-102775223D01*
X145488774Y-102818820D01*
X138340079Y-102818820D01*
X138315564Y-102794305D01*
X138207136Y-102731705D01*
X138207137Y-102731705D01*
X138166824Y-102720903D01*
X138086201Y-102699300D01*
X137960999Y-102699300D01*
X137880375Y-102720903D01*
X137840063Y-102731705D01*
X137731637Y-102794304D01*
X137731634Y-102794306D01*
X137643106Y-102882834D01*
X137643104Y-102882837D01*
X137580505Y-102991263D01*
X137573506Y-103017385D01*
X137548100Y-103112199D01*
X111705700Y-103112199D01*
X111705700Y-94056155D01*
X143286400Y-94056155D01*
X143286400Y-95254000D01*
X144343986Y-95254000D01*
X144311400Y-95417820D01*
X144311400Y-95590180D01*
X144345026Y-95759228D01*
X144347452Y-95765084D01*
X143286400Y-95765084D01*
X143286400Y-96951844D01*
X143292801Y-97011372D01*
X143292803Y-97011379D01*
X143343045Y-97146086D01*
X143343049Y-97146093D01*
X143429209Y-97261187D01*
X143429212Y-97261190D01*
X143544306Y-97347350D01*
X143544313Y-97347354D01*
X143679021Y-97397596D01*
X143686573Y-97399381D01*
X143686433Y-97399969D01*
X143704297Y-97404189D01*
X143716343Y-97408682D01*
X143775871Y-97415083D01*
X143775888Y-97415084D01*
X144936400Y-97415084D01*
X144936400Y-96346413D01*
X144951482Y-96349413D01*
X144968488Y-96356458D01*
X145137536Y-96390084D01*
X145309896Y-96390084D01*
X145473716Y-96357497D01*
X145473716Y-97415084D01*
X146671544Y-97415084D01*
X146671560Y-97415083D01*
X146731088Y-97408682D01*
X146731095Y-97408680D01*
X146865802Y-97358438D01*
X146865809Y-97358434D01*
X146980903Y-97272274D01*
X146980906Y-97272271D01*
X147067066Y-97157177D01*
X147067070Y-97157170D01*
X147117312Y-97022463D01*
X147117314Y-97022456D01*
X147123715Y-96962928D01*
X147123716Y-96962911D01*
X147123716Y-96330399D01*
X148825700Y-96330399D01*
X148825700Y-96455601D01*
X148858105Y-96576536D01*
X148920705Y-96684964D01*
X149009236Y-96773495D01*
X149117664Y-96836095D01*
X149238599Y-96868500D01*
X149238601Y-96868500D01*
X149363799Y-96868500D01*
X149363801Y-96868500D01*
X149484736Y-96836095D01*
X149593164Y-96773495D01*
X149681695Y-96684964D01*
X149744295Y-96576536D01*
X149776700Y-96455601D01*
X149776700Y-96330399D01*
X149744295Y-96209464D01*
X149681695Y-96101036D01*
X149593164Y-96012505D01*
X149484736Y-95949905D01*
X149484737Y-95949905D01*
X149444424Y-95939103D01*
X149363801Y-95917500D01*
X149238599Y-95917500D01*
X149157975Y-95939103D01*
X149117663Y-95949905D01*
X149009237Y-96012504D01*
X149009234Y-96012506D01*
X148920706Y-96101034D01*
X148920704Y-96101037D01*
X148858105Y-96209463D01*
X148858105Y-96209464D01*
X148825700Y-96330399D01*
X147123716Y-96330399D01*
X147123716Y-95765084D01*
X146066130Y-95765084D01*
X146098716Y-95601264D01*
X146098716Y-95428904D01*
X146065090Y-95259856D01*
X146062664Y-95254000D01*
X147123716Y-95254000D01*
X147123716Y-95111199D01*
X150121100Y-95111199D01*
X150121100Y-95236401D01*
X150153505Y-95357336D01*
X150216105Y-95465764D01*
X150304636Y-95554295D01*
X150413064Y-95616895D01*
X150533999Y-95649300D01*
X150534001Y-95649300D01*
X150659199Y-95649300D01*
X150659201Y-95649300D01*
X150780136Y-95616895D01*
X150888564Y-95554295D01*
X150977095Y-95465764D01*
X151039695Y-95357336D01*
X151072100Y-95236401D01*
X151072100Y-95111199D01*
X151039695Y-94990264D01*
X150977095Y-94881836D01*
X150888564Y-94793305D01*
X150780136Y-94730705D01*
X150780137Y-94730705D01*
X150739824Y-94719903D01*
X150659201Y-94698300D01*
X150533999Y-94698300D01*
X150453375Y-94719903D01*
X150413063Y-94730705D01*
X150304637Y-94793304D01*
X150304634Y-94793306D01*
X150216106Y-94881834D01*
X150216104Y-94881837D01*
X150153505Y-94990263D01*
X150153505Y-94990264D01*
X150121100Y-95111199D01*
X147123716Y-95111199D01*
X147123716Y-94335334D01*
X155506033Y-94335334D01*
X155506033Y-94460536D01*
X155538438Y-94581471D01*
X155601038Y-94689899D01*
X155689569Y-94778430D01*
X155797997Y-94841030D01*
X155918932Y-94873435D01*
X155918934Y-94873435D01*
X156044132Y-94873435D01*
X156044134Y-94873435D01*
X156160388Y-94842284D01*
X156230235Y-94843947D01*
X156288098Y-94883109D01*
X156302359Y-94906821D01*
X156302609Y-94906677D01*
X156306671Y-94913713D01*
X156306672Y-94913715D01*
X156369272Y-95022143D01*
X156457803Y-95110674D01*
X156566231Y-95173274D01*
X156687166Y-95205679D01*
X156687168Y-95205679D01*
X156812366Y-95205679D01*
X156812368Y-95205679D01*
X156933303Y-95173274D01*
X157041731Y-95110674D01*
X157130262Y-95022143D01*
X157192862Y-94913715D01*
X157225267Y-94792780D01*
X157225267Y-94667578D01*
X157192862Y-94546643D01*
X157130262Y-94438215D01*
X157041731Y-94349684D01*
X156933303Y-94287084D01*
X156933304Y-94287084D01*
X156892991Y-94276282D01*
X156812368Y-94254679D01*
X156687166Y-94254679D01*
X156687165Y-94254679D01*
X156570912Y-94285829D01*
X156501062Y-94284166D01*
X156443200Y-94245003D01*
X156428941Y-94221292D01*
X156428691Y-94221437D01*
X156421988Y-94209827D01*
X156362028Y-94105971D01*
X156273497Y-94017440D01*
X156165069Y-93954840D01*
X156165070Y-93954840D01*
X156124757Y-93944038D01*
X156044134Y-93922435D01*
X155918932Y-93922435D01*
X155838308Y-93944038D01*
X155797996Y-93954840D01*
X155689570Y-94017439D01*
X155689567Y-94017441D01*
X155601039Y-94105969D01*
X155601037Y-94105972D01*
X155538438Y-94214398D01*
X155527645Y-94254679D01*
X155506033Y-94335334D01*
X147123716Y-94335334D01*
X147123716Y-94067256D01*
X147123715Y-94067239D01*
X147117314Y-94007711D01*
X147117312Y-94007704D01*
X147067070Y-93872997D01*
X147067066Y-93872990D01*
X146980906Y-93757896D01*
X146980903Y-93757893D01*
X146865809Y-93671733D01*
X146865802Y-93671729D01*
X146731093Y-93621486D01*
X146723541Y-93619702D01*
X146723679Y-93619116D01*
X146705829Y-93614896D01*
X146693785Y-93610404D01*
X146693772Y-93610401D01*
X146634244Y-93604000D01*
X145473716Y-93604000D01*
X145473716Y-94672670D01*
X145458633Y-94669670D01*
X145441628Y-94662626D01*
X145272580Y-94629000D01*
X145100220Y-94629000D01*
X144936400Y-94661586D01*
X144936400Y-93604000D01*
X143738555Y-93604000D01*
X143679027Y-93610401D01*
X143679020Y-93610403D01*
X143544313Y-93660645D01*
X143544306Y-93660649D01*
X143429212Y-93746809D01*
X143429209Y-93746812D01*
X143343049Y-93861906D01*
X143343045Y-93861913D01*
X143292803Y-93996620D01*
X143292801Y-93996627D01*
X143286400Y-94056155D01*
X111705700Y-94056155D01*
X111705700Y-90708642D01*
X115043800Y-90708642D01*
X115043800Y-90977357D01*
X115043801Y-90977373D01*
X115078875Y-91243791D01*
X115148427Y-91503363D01*
X115251263Y-91751630D01*
X115251267Y-91751640D01*
X115385626Y-91984358D01*
X115478219Y-92105026D01*
X115978528Y-91604716D01*
X116064078Y-91722466D01*
X116214334Y-91872722D01*
X116332081Y-91958270D01*
X115831772Y-92458579D01*
X115952442Y-92551173D01*
X116185159Y-92685532D01*
X116185169Y-92685536D01*
X116433436Y-92788372D01*
X116693008Y-92857924D01*
X116959426Y-92892998D01*
X116959443Y-92893000D01*
X117228157Y-92893000D01*
X117228173Y-92892998D01*
X117494591Y-92857924D01*
X117754163Y-92788372D01*
X118002430Y-92685536D01*
X118002440Y-92685532D01*
X118235156Y-92551173D01*
X118235173Y-92551162D01*
X118355826Y-92458580D01*
X118355826Y-92458578D01*
X117855518Y-91958270D01*
X117973266Y-91872722D01*
X118123522Y-91722466D01*
X118209070Y-91604718D01*
X118709378Y-92105026D01*
X118709380Y-92105026D01*
X118801962Y-91984373D01*
X118801973Y-91984356D01*
X118936332Y-91751640D01*
X118936336Y-91751630D01*
X119039172Y-91503363D01*
X119108724Y-91243791D01*
X119143798Y-90977373D01*
X119143800Y-90977357D01*
X119143800Y-90708642D01*
X119143798Y-90708626D01*
X119108724Y-90442208D01*
X119077388Y-90325259D01*
X119070094Y-90298038D01*
X143585900Y-90298038D01*
X143585900Y-90549962D01*
X143611030Y-90708626D01*
X143625310Y-90798785D01*
X143703160Y-91038383D01*
X143767723Y-91165094D01*
X143814659Y-91257211D01*
X143817532Y-91262848D01*
X143965601Y-91466649D01*
X143965605Y-91466654D01*
X144143745Y-91644794D01*
X144143750Y-91644798D01*
X144315805Y-91769802D01*
X144347555Y-91792870D01*
X144572021Y-91907241D01*
X144811615Y-91985090D01*
X144811621Y-91985091D01*
X144816346Y-91986225D01*
X144816283Y-91986487D01*
X144827150Y-91989097D01*
X144848924Y-91996172D01*
X144848926Y-91996172D01*
X144848931Y-91996174D01*
X145097754Y-92035584D01*
X145097755Y-92035584D01*
X145349677Y-92035584D01*
X145349678Y-92035584D01*
X145598501Y-91996174D01*
X145838095Y-91918325D01*
X146062561Y-91803954D01*
X146266372Y-91655877D01*
X146298885Y-91623364D01*
X155869429Y-91623364D01*
X155869429Y-91748566D01*
X155901834Y-91869501D01*
X155964434Y-91977929D01*
X156052965Y-92066460D01*
X156161393Y-92129060D01*
X156282328Y-92161465D01*
X156282330Y-92161465D01*
X156407528Y-92161465D01*
X156407530Y-92161465D01*
X156528465Y-92129060D01*
X156636893Y-92066460D01*
X156725424Y-91977929D01*
X156788024Y-91869501D01*
X156820429Y-91748566D01*
X156820429Y-91623364D01*
X156788024Y-91502429D01*
X156725424Y-91394001D01*
X156636893Y-91305470D01*
X156528465Y-91242870D01*
X156528466Y-91242870D01*
X156488153Y-91232068D01*
X156407530Y-91210465D01*
X156282328Y-91210465D01*
X156201704Y-91232068D01*
X156161392Y-91242870D01*
X156052966Y-91305469D01*
X156052963Y-91305471D01*
X155964435Y-91393999D01*
X155964433Y-91394002D01*
X155901834Y-91502428D01*
X155900496Y-91507421D01*
X155869429Y-91623364D01*
X146298885Y-91623364D01*
X146444509Y-91477740D01*
X146592586Y-91273929D01*
X146706957Y-91049463D01*
X146784806Y-90809869D01*
X146824216Y-90561046D01*
X146824216Y-90309122D01*
X146784806Y-90060299D01*
X146706957Y-89820705D01*
X146706955Y-89820702D01*
X146706955Y-89820700D01*
X146646289Y-89701637D01*
X146592586Y-89596239D01*
X146573668Y-89570201D01*
X146444514Y-89392434D01*
X146444510Y-89392429D01*
X146266370Y-89214289D01*
X146224115Y-89183589D01*
X146224113Y-89183587D01*
X146097226Y-89091399D01*
X157106100Y-89091399D01*
X157106100Y-89216601D01*
X157138505Y-89337536D01*
X157201105Y-89445964D01*
X157289636Y-89534495D01*
X157398064Y-89597095D01*
X157518999Y-89629500D01*
X157519001Y-89629500D01*
X157644199Y-89629500D01*
X157644201Y-89629500D01*
X157765136Y-89597095D01*
X157873564Y-89534495D01*
X157962095Y-89445964D01*
X158024695Y-89337536D01*
X158057100Y-89216601D01*
X158057100Y-89091399D01*
X158024695Y-88970464D01*
X157962095Y-88862036D01*
X157873564Y-88773505D01*
X157765136Y-88710905D01*
X157765137Y-88710905D01*
X157724824Y-88700103D01*
X157644201Y-88678500D01*
X157518999Y-88678500D01*
X157438375Y-88700103D01*
X157398063Y-88710905D01*
X157289637Y-88773504D01*
X157289634Y-88773506D01*
X157201106Y-88862034D01*
X157201104Y-88862037D01*
X157138505Y-88970463D01*
X157122302Y-89030931D01*
X157106100Y-89091399D01*
X146097226Y-89091399D01*
X146062564Y-89066216D01*
X146062563Y-89066215D01*
X146062561Y-89066214D01*
X145838095Y-88951843D01*
X145671236Y-88897627D01*
X145598493Y-88873991D01*
X145593759Y-88872855D01*
X145593821Y-88872594D01*
X145582974Y-88869989D01*
X145561185Y-88862910D01*
X145561181Y-88862909D01*
X145561180Y-88862909D01*
X145419902Y-88840532D01*
X145312362Y-88823500D01*
X145060438Y-88823500D01*
X144936026Y-88843205D01*
X144811614Y-88862910D01*
X144572016Y-88940760D01*
X144347551Y-89055132D01*
X144143750Y-89203201D01*
X144143745Y-89203205D01*
X143965605Y-89381345D01*
X143965601Y-89381350D01*
X143817532Y-89585151D01*
X143703160Y-89809616D01*
X143625310Y-90049214D01*
X143594892Y-90241267D01*
X143585900Y-90298038D01*
X119070094Y-90298038D01*
X119039171Y-90182634D01*
X118936336Y-89934369D01*
X118936332Y-89934359D01*
X118801973Y-89701642D01*
X118709379Y-89580972D01*
X118209070Y-90081281D01*
X118123522Y-89963534D01*
X117973266Y-89813278D01*
X117855516Y-89727728D01*
X118355826Y-89227419D01*
X118235158Y-89134826D01*
X118002440Y-89000467D01*
X118002430Y-89000463D01*
X117754163Y-88897627D01*
X117494591Y-88828075D01*
X117228173Y-88793001D01*
X117228157Y-88793000D01*
X116959443Y-88793000D01*
X116959426Y-88793001D01*
X116693008Y-88828075D01*
X116433436Y-88897627D01*
X116185169Y-89000463D01*
X116185159Y-89000467D01*
X115952437Y-89134829D01*
X115831772Y-89227418D01*
X115831772Y-89227419D01*
X116332082Y-89727729D01*
X116214334Y-89813278D01*
X116064078Y-89963534D01*
X115978529Y-90081282D01*
X115478219Y-89580972D01*
X115478218Y-89580972D01*
X115385629Y-89701637D01*
X115251267Y-89934359D01*
X115251263Y-89934369D01*
X115148427Y-90182636D01*
X115078875Y-90442208D01*
X115043801Y-90708626D01*
X115043800Y-90708642D01*
X111705700Y-90708642D01*
X111705700Y-84862475D01*
X117732700Y-84862475D01*
X117732700Y-85825517D01*
X117738167Y-85860035D01*
X117747554Y-85919304D01*
X117805150Y-86032342D01*
X117805152Y-86032344D01*
X117805154Y-86032347D01*
X117894852Y-86122045D01*
X117894854Y-86122046D01*
X117894858Y-86122050D01*
X118007894Y-86179645D01*
X118007898Y-86179647D01*
X118101675Y-86194499D01*
X118101681Y-86194500D01*
X118564718Y-86194499D01*
X118658504Y-86179646D01*
X118771542Y-86122050D01*
X118861250Y-86032342D01*
X118889690Y-85976524D01*
X118937663Y-85925730D01*
X119005484Y-85908934D01*
X119071619Y-85931471D01*
X119098548Y-85957331D01*
X119102679Y-85962714D01*
X119102680Y-85962716D01*
X119214484Y-86074520D01*
X119214486Y-86074521D01*
X119214490Y-86074524D01*
X119334779Y-86143972D01*
X119351416Y-86153577D01*
X119504143Y-86194500D01*
X119504145Y-86194500D01*
X119662255Y-86194500D01*
X119662257Y-86194500D01*
X119814984Y-86153577D01*
X119951916Y-86074520D01*
X120063720Y-85962716D01*
X120142777Y-85825784D01*
X120183700Y-85673057D01*
X120183700Y-85014943D01*
X120142777Y-84862216D01*
X120113210Y-84811004D01*
X120063724Y-84725290D01*
X120063718Y-84725282D01*
X119951917Y-84613481D01*
X119951909Y-84613475D01*
X119814990Y-84534426D01*
X119814986Y-84534424D01*
X119814984Y-84534423D01*
X119662257Y-84493500D01*
X119504143Y-84493500D01*
X119351416Y-84534423D01*
X119351409Y-84534426D01*
X119214490Y-84613475D01*
X119214482Y-84613481D01*
X119102679Y-84725284D01*
X119098545Y-84730672D01*
X119042114Y-84771871D01*
X118972368Y-84776021D01*
X118911450Y-84741805D01*
X118889691Y-84711477D01*
X118861250Y-84655658D01*
X118861248Y-84655656D01*
X118861245Y-84655652D01*
X118771547Y-84565954D01*
X118771544Y-84565952D01*
X118771542Y-84565950D01*
X118694717Y-84526805D01*
X118658501Y-84508352D01*
X118564724Y-84493500D01*
X118101682Y-84493500D01*
X118020719Y-84506323D01*
X118007896Y-84508354D01*
X117894858Y-84565950D01*
X117894857Y-84565951D01*
X117894852Y-84565954D01*
X117805154Y-84655652D01*
X117805152Y-84655656D01*
X117805150Y-84655658D01*
X117795501Y-84674595D01*
X117747552Y-84768698D01*
X117732700Y-84862475D01*
X111705700Y-84862475D01*
X111705700Y-83844275D01*
X133098900Y-83844275D01*
X133098900Y-84807317D01*
X133106768Y-84856991D01*
X133113754Y-84901104D01*
X133171350Y-85014142D01*
X133171352Y-85014144D01*
X133171354Y-85014147D01*
X133261052Y-85103845D01*
X133261054Y-85103846D01*
X133261058Y-85103850D01*
X133364956Y-85156789D01*
X133374098Y-85161447D01*
X133467875Y-85176299D01*
X133467881Y-85176300D01*
X133930918Y-85176299D01*
X134024704Y-85161446D01*
X134137742Y-85103850D01*
X134227450Y-85014142D01*
X134255890Y-84958324D01*
X134303863Y-84907530D01*
X134371684Y-84890734D01*
X134437819Y-84913271D01*
X134464748Y-84939131D01*
X134468879Y-84944514D01*
X134468880Y-84944516D01*
X134580684Y-85056320D01*
X134580686Y-85056321D01*
X134580690Y-85056324D01*
X134663009Y-85103850D01*
X134717616Y-85135377D01*
X134870343Y-85176300D01*
X134870345Y-85176300D01*
X135028455Y-85176300D01*
X135028457Y-85176300D01*
X135181184Y-85135377D01*
X135318116Y-85056320D01*
X135429920Y-84944516D01*
X135467013Y-84880267D01*
X135517579Y-84832053D01*
X135586186Y-84818829D01*
X135651051Y-84844797D01*
X135681785Y-84880266D01*
X135718880Y-84944516D01*
X135830684Y-85056320D01*
X135830686Y-85056321D01*
X135830690Y-85056324D01*
X135913009Y-85103850D01*
X135967616Y-85135377D01*
X136120343Y-85176300D01*
X136120345Y-85176300D01*
X136278455Y-85176300D01*
X136278457Y-85176300D01*
X136431184Y-85135377D01*
X136568116Y-85056320D01*
X136679920Y-84944516D01*
X136717013Y-84880267D01*
X136767579Y-84832053D01*
X136836186Y-84818829D01*
X136901051Y-84844797D01*
X136931785Y-84880266D01*
X136968880Y-84944516D01*
X137080684Y-85056320D01*
X137080686Y-85056321D01*
X137080690Y-85056324D01*
X137163009Y-85103850D01*
X137217616Y-85135377D01*
X137370343Y-85176300D01*
X137370345Y-85176300D01*
X137528455Y-85176300D01*
X137528457Y-85176300D01*
X137681184Y-85135377D01*
X137818116Y-85056320D01*
X137929920Y-84944516D01*
X137967013Y-84880267D01*
X138017579Y-84832053D01*
X138086186Y-84818829D01*
X138151051Y-84844797D01*
X138181785Y-84880266D01*
X138218880Y-84944516D01*
X138330684Y-85056320D01*
X138330686Y-85056321D01*
X138330690Y-85056324D01*
X138413009Y-85103850D01*
X138467616Y-85135377D01*
X138620343Y-85176300D01*
X138620345Y-85176300D01*
X138778455Y-85176300D01*
X138778457Y-85176300D01*
X138931184Y-85135377D01*
X139068116Y-85056320D01*
X139179920Y-84944516D01*
X139217013Y-84880267D01*
X139267579Y-84832053D01*
X139336186Y-84818829D01*
X139401051Y-84844797D01*
X139431785Y-84880266D01*
X139468880Y-84944516D01*
X139580684Y-85056320D01*
X139580686Y-85056321D01*
X139580690Y-85056324D01*
X139663009Y-85103850D01*
X139717616Y-85135377D01*
X139870343Y-85176300D01*
X139870345Y-85176300D01*
X140028455Y-85176300D01*
X140028457Y-85176300D01*
X140181184Y-85135377D01*
X140318116Y-85056320D01*
X140429920Y-84944516D01*
X140467013Y-84880267D01*
X140517579Y-84832053D01*
X140586186Y-84818829D01*
X140651051Y-84844797D01*
X140681785Y-84880266D01*
X140718880Y-84944516D01*
X140830684Y-85056320D01*
X140830686Y-85056321D01*
X140830690Y-85056324D01*
X140913009Y-85103850D01*
X140967616Y-85135377D01*
X141120343Y-85176300D01*
X141120345Y-85176300D01*
X141278455Y-85176300D01*
X141278457Y-85176300D01*
X141431184Y-85135377D01*
X141554084Y-85064420D01*
X141621984Y-85047948D01*
X141688011Y-85070801D01*
X141719186Y-85102917D01*
X141750323Y-85149516D01*
X141750326Y-85149520D01*
X141875679Y-85274873D01*
X141875683Y-85274876D01*
X142023083Y-85373366D01*
X142023093Y-85373371D01*
X142186876Y-85441212D01*
X142186883Y-85441215D01*
X142199400Y-85443704D01*
X142199400Y-85443703D01*
X142699400Y-85443703D01*
X142711916Y-85441215D01*
X142711923Y-85441212D01*
X142875706Y-85373371D01*
X142875716Y-85373366D01*
X143023116Y-85274876D01*
X143023120Y-85274873D01*
X143148473Y-85149520D01*
X143148476Y-85149516D01*
X143246966Y-85002116D01*
X143246971Y-85002107D01*
X143314813Y-84838320D01*
X143314815Y-84838312D01*
X143349399Y-84664446D01*
X143349400Y-84664443D01*
X143349400Y-84575800D01*
X142699400Y-84575800D01*
X142699400Y-85443703D01*
X142199400Y-85443703D01*
X142199400Y-84375528D01*
X142237460Y-84467414D01*
X142307786Y-84537740D01*
X142399672Y-84575800D01*
X142499128Y-84575800D01*
X142591014Y-84537740D01*
X142661340Y-84467414D01*
X142699400Y-84375528D01*
X142699400Y-84276072D01*
X142661340Y-84184186D01*
X142591014Y-84113860D01*
X142499128Y-84075800D01*
X142699400Y-84075800D01*
X143349400Y-84075800D01*
X143349400Y-83987157D01*
X143349399Y-83987153D01*
X143314815Y-83813287D01*
X143314813Y-83813279D01*
X143246971Y-83649492D01*
X143246966Y-83649483D01*
X143148476Y-83502083D01*
X143148473Y-83502079D01*
X143023120Y-83376726D01*
X143023116Y-83376723D01*
X142875716Y-83278233D01*
X142875707Y-83278228D01*
X142711919Y-83210385D01*
X142699400Y-83207894D01*
X142699400Y-84075800D01*
X142499128Y-84075800D01*
X142399672Y-84075800D01*
X142307786Y-84113860D01*
X142237460Y-84184186D01*
X142199400Y-84276072D01*
X142199400Y-83207895D01*
X142199399Y-83207894D01*
X142186880Y-83210385D01*
X142023092Y-83278228D01*
X142023083Y-83278233D01*
X141875683Y-83376723D01*
X141875679Y-83376726D01*
X141750326Y-83502079D01*
X141750321Y-83502085D01*
X141719185Y-83548683D01*
X141665572Y-83593488D01*
X141596247Y-83602194D01*
X141554085Y-83587179D01*
X141431184Y-83516223D01*
X141422440Y-83513880D01*
X141278457Y-83475300D01*
X141120343Y-83475300D01*
X140967616Y-83516223D01*
X140967609Y-83516226D01*
X140830690Y-83595275D01*
X140830682Y-83595281D01*
X140718881Y-83707082D01*
X140718877Y-83707087D01*
X140681787Y-83771331D01*
X140631221Y-83819546D01*
X140562614Y-83832770D01*
X140497749Y-83806802D01*
X140467013Y-83771331D01*
X140429922Y-83707087D01*
X140429918Y-83707082D01*
X140318117Y-83595281D01*
X140318109Y-83595275D01*
X140181190Y-83516226D01*
X140181186Y-83516224D01*
X140181184Y-83516223D01*
X140028457Y-83475300D01*
X139870343Y-83475300D01*
X139717616Y-83516223D01*
X139717609Y-83516226D01*
X139580690Y-83595275D01*
X139580682Y-83595281D01*
X139468881Y-83707082D01*
X139468877Y-83707087D01*
X139431787Y-83771331D01*
X139381221Y-83819546D01*
X139312614Y-83832770D01*
X139247749Y-83806802D01*
X139217013Y-83771331D01*
X139179922Y-83707087D01*
X139179918Y-83707082D01*
X139068117Y-83595281D01*
X139068109Y-83595275D01*
X138931190Y-83516226D01*
X138931186Y-83516224D01*
X138931184Y-83516223D01*
X138778457Y-83475300D01*
X138620343Y-83475300D01*
X138467616Y-83516223D01*
X138467609Y-83516226D01*
X138330690Y-83595275D01*
X138330682Y-83595281D01*
X138218881Y-83707082D01*
X138218877Y-83707087D01*
X138181787Y-83771331D01*
X138131221Y-83819546D01*
X138062614Y-83832770D01*
X137997749Y-83806802D01*
X137967013Y-83771331D01*
X137929922Y-83707087D01*
X137929918Y-83707082D01*
X137818117Y-83595281D01*
X137818109Y-83595275D01*
X137681190Y-83516226D01*
X137681186Y-83516224D01*
X137681184Y-83516223D01*
X137528457Y-83475300D01*
X137370343Y-83475300D01*
X137217616Y-83516223D01*
X137217609Y-83516226D01*
X137080690Y-83595275D01*
X137080682Y-83595281D01*
X136968881Y-83707082D01*
X136968877Y-83707087D01*
X136931787Y-83771331D01*
X136881221Y-83819546D01*
X136812614Y-83832770D01*
X136747749Y-83806802D01*
X136717013Y-83771331D01*
X136679922Y-83707087D01*
X136679918Y-83707082D01*
X136568117Y-83595281D01*
X136568109Y-83595275D01*
X136431190Y-83516226D01*
X136431186Y-83516224D01*
X136431184Y-83516223D01*
X136278457Y-83475300D01*
X136120343Y-83475300D01*
X135967616Y-83516223D01*
X135967609Y-83516226D01*
X135830690Y-83595275D01*
X135830682Y-83595281D01*
X135718881Y-83707082D01*
X135718877Y-83707087D01*
X135681787Y-83771331D01*
X135631221Y-83819546D01*
X135562614Y-83832770D01*
X135497749Y-83806802D01*
X135467013Y-83771331D01*
X135429922Y-83707087D01*
X135429918Y-83707082D01*
X135318117Y-83595281D01*
X135318109Y-83595275D01*
X135181190Y-83516226D01*
X135181186Y-83516224D01*
X135181184Y-83516223D01*
X135028457Y-83475300D01*
X134870343Y-83475300D01*
X134717616Y-83516223D01*
X134717609Y-83516226D01*
X134580690Y-83595275D01*
X134580682Y-83595281D01*
X134468879Y-83707084D01*
X134464745Y-83712472D01*
X134408314Y-83753671D01*
X134338568Y-83757821D01*
X134277650Y-83723605D01*
X134255891Y-83693277D01*
X134227450Y-83637458D01*
X134227448Y-83637456D01*
X134227445Y-83637452D01*
X134137747Y-83547754D01*
X134137744Y-83547752D01*
X134137742Y-83547750D01*
X134042040Y-83498987D01*
X134024701Y-83490152D01*
X133930924Y-83475300D01*
X133467882Y-83475300D01*
X133386919Y-83488123D01*
X133374096Y-83490154D01*
X133261058Y-83547750D01*
X133261057Y-83547751D01*
X133261052Y-83547754D01*
X133171354Y-83637452D01*
X133171352Y-83637456D01*
X133171350Y-83637458D01*
X133159749Y-83660226D01*
X133113752Y-83750498D01*
X133098900Y-83844275D01*
X111705700Y-83844275D01*
X111705700Y-75618799D01*
X117709700Y-75618799D01*
X117709700Y-75866800D01*
X117748493Y-76111727D01*
X117748494Y-76111731D01*
X117825127Y-76347582D01*
X117937711Y-76568542D01*
X118083476Y-76769170D01*
X118258830Y-76944524D01*
X118459458Y-77090289D01*
X118680418Y-77202873D01*
X118916269Y-77279506D01*
X119008120Y-77294053D01*
X119161200Y-77318300D01*
X119161205Y-77318300D01*
X119409200Y-77318300D01*
X119545270Y-77296747D01*
X119654131Y-77279506D01*
X119889982Y-77202873D01*
X120110942Y-77090289D01*
X120311570Y-76944524D01*
X120346764Y-76909330D01*
X123104700Y-76909330D01*
X123104700Y-77116269D01*
X123145068Y-77319212D01*
X123145070Y-77319220D01*
X123224258Y-77510396D01*
X123339224Y-77682457D01*
X123485542Y-77828775D01*
X123485545Y-77828777D01*
X123657602Y-77943741D01*
X123848780Y-78022930D01*
X124051730Y-78063299D01*
X124051734Y-78063300D01*
X124051735Y-78063300D01*
X124258666Y-78063300D01*
X124258667Y-78063299D01*
X124461620Y-78022930D01*
X124652798Y-77943741D01*
X124824855Y-77828777D01*
X124971177Y-77682455D01*
X125086141Y-77510398D01*
X125165330Y-77319220D01*
X125205700Y-77116265D01*
X125205700Y-76909335D01*
X125205699Y-76909330D01*
X125644700Y-76909330D01*
X125644700Y-77116269D01*
X125685068Y-77319212D01*
X125685070Y-77319220D01*
X125764258Y-77510396D01*
X125879224Y-77682457D01*
X126025542Y-77828775D01*
X126025545Y-77828777D01*
X126197602Y-77943741D01*
X126388780Y-78022930D01*
X126591730Y-78063299D01*
X126591734Y-78063300D01*
X126591735Y-78063300D01*
X126798666Y-78063300D01*
X126798667Y-78063299D01*
X127001620Y-78022930D01*
X127192798Y-77943741D01*
X127364855Y-77828777D01*
X127511177Y-77682455D01*
X127626141Y-77510398D01*
X127705330Y-77319220D01*
X127745700Y-77116265D01*
X127745700Y-76909335D01*
X127745699Y-76909330D01*
X128184700Y-76909330D01*
X128184700Y-77116269D01*
X128225068Y-77319212D01*
X128225070Y-77319220D01*
X128304258Y-77510396D01*
X128419224Y-77682457D01*
X128565542Y-77828775D01*
X128565545Y-77828777D01*
X128737602Y-77943741D01*
X128928780Y-78022930D01*
X129131730Y-78063299D01*
X129131734Y-78063300D01*
X129131735Y-78063300D01*
X129338666Y-78063300D01*
X129338667Y-78063299D01*
X129541620Y-78022930D01*
X129732798Y-77943741D01*
X129904855Y-77828777D01*
X130051177Y-77682455D01*
X130166141Y-77510398D01*
X130245330Y-77319220D01*
X130285700Y-77116265D01*
X130285700Y-76909335D01*
X130285699Y-76909330D01*
X130724700Y-76909330D01*
X130724700Y-77116269D01*
X130765068Y-77319212D01*
X130765070Y-77319220D01*
X130844258Y-77510396D01*
X130959224Y-77682457D01*
X131105542Y-77828775D01*
X131105545Y-77828777D01*
X131277602Y-77943741D01*
X131468780Y-78022930D01*
X131671730Y-78063299D01*
X131671734Y-78063300D01*
X131671735Y-78063300D01*
X131878666Y-78063300D01*
X131878667Y-78063299D01*
X132081620Y-78022930D01*
X132272798Y-77943741D01*
X132444855Y-77828777D01*
X132591177Y-77682455D01*
X132706141Y-77510398D01*
X132785330Y-77319220D01*
X132825700Y-77116265D01*
X132825700Y-76909335D01*
X132825699Y-76909330D01*
X133264700Y-76909330D01*
X133264700Y-77116269D01*
X133305068Y-77319212D01*
X133305070Y-77319220D01*
X133384258Y-77510396D01*
X133499224Y-77682457D01*
X133645542Y-77828775D01*
X133645545Y-77828777D01*
X133817602Y-77943741D01*
X134008780Y-78022930D01*
X134211730Y-78063299D01*
X134211734Y-78063300D01*
X134211735Y-78063300D01*
X134418666Y-78063300D01*
X134418667Y-78063299D01*
X134621620Y-78022930D01*
X134812798Y-77943741D01*
X134984855Y-77828777D01*
X135131177Y-77682455D01*
X135246141Y-77510398D01*
X135325330Y-77319220D01*
X135365700Y-77116265D01*
X135365700Y-76909335D01*
X135365699Y-76909330D01*
X135804700Y-76909330D01*
X135804700Y-77116269D01*
X135845068Y-77319212D01*
X135845070Y-77319220D01*
X135924258Y-77510396D01*
X136039224Y-77682457D01*
X136185542Y-77828775D01*
X136185545Y-77828777D01*
X136357602Y-77943741D01*
X136548780Y-78022930D01*
X136751730Y-78063299D01*
X136751734Y-78063300D01*
X136751735Y-78063300D01*
X136958666Y-78063300D01*
X136958667Y-78063299D01*
X137161620Y-78022930D01*
X137352798Y-77943741D01*
X137524855Y-77828777D01*
X137671177Y-77682455D01*
X137786141Y-77510398D01*
X137865330Y-77319220D01*
X137905700Y-77116265D01*
X137905700Y-76909335D01*
X137905699Y-76909330D01*
X138344700Y-76909330D01*
X138344700Y-77116269D01*
X138385068Y-77319212D01*
X138385070Y-77319220D01*
X138464258Y-77510396D01*
X138579224Y-77682457D01*
X138725542Y-77828775D01*
X138725545Y-77828777D01*
X138897602Y-77943741D01*
X139088780Y-78022930D01*
X139291730Y-78063299D01*
X139291734Y-78063300D01*
X139291735Y-78063300D01*
X139498666Y-78063300D01*
X139498667Y-78063299D01*
X139701620Y-78022930D01*
X139892798Y-77943741D01*
X140064855Y-77828777D01*
X140211177Y-77682455D01*
X140326141Y-77510398D01*
X140405330Y-77319220D01*
X140445700Y-77116265D01*
X140445700Y-76909335D01*
X140445699Y-76909330D01*
X140884700Y-76909330D01*
X140884700Y-77116269D01*
X140925068Y-77319212D01*
X140925070Y-77319220D01*
X141004258Y-77510396D01*
X141119224Y-77682457D01*
X141265542Y-77828775D01*
X141265545Y-77828777D01*
X141437602Y-77943741D01*
X141628780Y-78022930D01*
X141831730Y-78063299D01*
X141831734Y-78063300D01*
X141831735Y-78063300D01*
X142038666Y-78063300D01*
X142038667Y-78063299D01*
X142241620Y-78022930D01*
X142432798Y-77943741D01*
X142604855Y-77828777D01*
X142751177Y-77682455D01*
X142866141Y-77510398D01*
X142945330Y-77319220D01*
X142985700Y-77116265D01*
X142985700Y-76909335D01*
X142985699Y-76909330D01*
X143424700Y-76909330D01*
X143424700Y-77116269D01*
X143465068Y-77319212D01*
X143465070Y-77319220D01*
X143544258Y-77510396D01*
X143659224Y-77682457D01*
X143805542Y-77828775D01*
X143805545Y-77828777D01*
X143977602Y-77943741D01*
X144168780Y-78022930D01*
X144371730Y-78063299D01*
X144371734Y-78063300D01*
X144371735Y-78063300D01*
X144578666Y-78063300D01*
X144578667Y-78063299D01*
X144781620Y-78022930D01*
X144972798Y-77943741D01*
X145144855Y-77828777D01*
X145291177Y-77682455D01*
X145406141Y-77510398D01*
X145485330Y-77319220D01*
X145525700Y-77116265D01*
X145525700Y-76909335D01*
X145525699Y-76909330D01*
X145964700Y-76909330D01*
X145964700Y-77116269D01*
X146005068Y-77319212D01*
X146005070Y-77319220D01*
X146084258Y-77510396D01*
X146199224Y-77682457D01*
X146345542Y-77828775D01*
X146345545Y-77828777D01*
X146517602Y-77943741D01*
X146708780Y-78022930D01*
X146911730Y-78063299D01*
X146911734Y-78063300D01*
X146911735Y-78063300D01*
X147118666Y-78063300D01*
X147118667Y-78063299D01*
X147321620Y-78022930D01*
X147512798Y-77943741D01*
X147684855Y-77828777D01*
X147831177Y-77682455D01*
X147946141Y-77510398D01*
X148025330Y-77319220D01*
X148065700Y-77116265D01*
X148065700Y-76909335D01*
X148065699Y-76909330D01*
X148504700Y-76909330D01*
X148504700Y-77116269D01*
X148545068Y-77319212D01*
X148545070Y-77319220D01*
X148624258Y-77510396D01*
X148739224Y-77682457D01*
X148885542Y-77828775D01*
X148885545Y-77828777D01*
X149057602Y-77943741D01*
X149248780Y-78022930D01*
X149451730Y-78063299D01*
X149451734Y-78063300D01*
X149451735Y-78063300D01*
X149658666Y-78063300D01*
X149658667Y-78063299D01*
X149861620Y-78022930D01*
X150052798Y-77943741D01*
X150224855Y-77828777D01*
X150371177Y-77682455D01*
X150486141Y-77510398D01*
X150565330Y-77319220D01*
X150605700Y-77116265D01*
X150605700Y-76909335D01*
X150605699Y-76909330D01*
X151044700Y-76909330D01*
X151044700Y-77116269D01*
X151085068Y-77319212D01*
X151085070Y-77319220D01*
X151164258Y-77510396D01*
X151279224Y-77682457D01*
X151425542Y-77828775D01*
X151425545Y-77828777D01*
X151597602Y-77943741D01*
X151788780Y-78022930D01*
X151991730Y-78063299D01*
X151991734Y-78063300D01*
X151991735Y-78063300D01*
X152198666Y-78063300D01*
X152198667Y-78063299D01*
X152401620Y-78022930D01*
X152592798Y-77943741D01*
X152764855Y-77828777D01*
X152911177Y-77682455D01*
X153026141Y-77510398D01*
X153105330Y-77319220D01*
X153145700Y-77116265D01*
X153145700Y-76909335D01*
X153145699Y-76909330D01*
X153584700Y-76909330D01*
X153584700Y-77116269D01*
X153625068Y-77319212D01*
X153625070Y-77319220D01*
X153704258Y-77510396D01*
X153819224Y-77682457D01*
X153965542Y-77828775D01*
X153965545Y-77828777D01*
X154137602Y-77943741D01*
X154328780Y-78022930D01*
X154531730Y-78063299D01*
X154531734Y-78063300D01*
X154531735Y-78063300D01*
X154738666Y-78063300D01*
X154738667Y-78063299D01*
X154941620Y-78022930D01*
X155132798Y-77943741D01*
X155304855Y-77828777D01*
X155451177Y-77682455D01*
X155566141Y-77510398D01*
X155645330Y-77319220D01*
X155685700Y-77116265D01*
X155685700Y-76909335D01*
X155685699Y-76909330D01*
X156124700Y-76909330D01*
X156124700Y-77116269D01*
X156165068Y-77319212D01*
X156165070Y-77319220D01*
X156244258Y-77510396D01*
X156359224Y-77682457D01*
X156505542Y-77828775D01*
X156505545Y-77828777D01*
X156677602Y-77943741D01*
X156868780Y-78022930D01*
X157071730Y-78063299D01*
X157071734Y-78063300D01*
X157071735Y-78063300D01*
X157278666Y-78063300D01*
X157278667Y-78063299D01*
X157481620Y-78022930D01*
X157672798Y-77943741D01*
X157844855Y-77828777D01*
X157991177Y-77682455D01*
X158106141Y-77510398D01*
X158185330Y-77319220D01*
X158225700Y-77116265D01*
X158225700Y-76909335D01*
X158225699Y-76909330D01*
X158664700Y-76909330D01*
X158664700Y-77116269D01*
X158705068Y-77319212D01*
X158705070Y-77319220D01*
X158784258Y-77510396D01*
X158899224Y-77682457D01*
X159045542Y-77828775D01*
X159045545Y-77828777D01*
X159217602Y-77943741D01*
X159408780Y-78022930D01*
X159611730Y-78063299D01*
X159611734Y-78063300D01*
X159611735Y-78063300D01*
X159818666Y-78063300D01*
X159818667Y-78063299D01*
X160021620Y-78022930D01*
X160212798Y-77943741D01*
X160384855Y-77828777D01*
X160531177Y-77682455D01*
X160646141Y-77510398D01*
X160725330Y-77319220D01*
X160765700Y-77116265D01*
X160765700Y-76909335D01*
X160765699Y-76909330D01*
X161204700Y-76909330D01*
X161204700Y-77116269D01*
X161245068Y-77319212D01*
X161245070Y-77319220D01*
X161324258Y-77510396D01*
X161439224Y-77682457D01*
X161585542Y-77828775D01*
X161585545Y-77828777D01*
X161757602Y-77943741D01*
X161948780Y-78022930D01*
X162151730Y-78063299D01*
X162151734Y-78063300D01*
X162151735Y-78063300D01*
X162358666Y-78063300D01*
X162358667Y-78063299D01*
X162561620Y-78022930D01*
X162752798Y-77943741D01*
X162924855Y-77828777D01*
X163071177Y-77682455D01*
X163186141Y-77510398D01*
X163265330Y-77319220D01*
X163305700Y-77116265D01*
X163305700Y-76909335D01*
X163305699Y-76909330D01*
X163744700Y-76909330D01*
X163744700Y-77116269D01*
X163785068Y-77319212D01*
X163785070Y-77319220D01*
X163864258Y-77510396D01*
X163979224Y-77682457D01*
X164125542Y-77828775D01*
X164125545Y-77828777D01*
X164297602Y-77943741D01*
X164488780Y-78022930D01*
X164691730Y-78063299D01*
X164691734Y-78063300D01*
X164691735Y-78063300D01*
X164898666Y-78063300D01*
X164898667Y-78063299D01*
X165101620Y-78022930D01*
X165292798Y-77943741D01*
X165464855Y-77828777D01*
X165611177Y-77682455D01*
X165726141Y-77510398D01*
X165805330Y-77319220D01*
X165845700Y-77116265D01*
X165845700Y-76909335D01*
X165845699Y-76909330D01*
X166284700Y-76909330D01*
X166284700Y-77116269D01*
X166325068Y-77319212D01*
X166325070Y-77319220D01*
X166404258Y-77510396D01*
X166519224Y-77682457D01*
X166665542Y-77828775D01*
X166665545Y-77828777D01*
X166837602Y-77943741D01*
X167028780Y-78022930D01*
X167231730Y-78063299D01*
X167231734Y-78063300D01*
X167231735Y-78063300D01*
X167438666Y-78063300D01*
X167438667Y-78063299D01*
X167641620Y-78022930D01*
X167832798Y-77943741D01*
X168004855Y-77828777D01*
X168151177Y-77682455D01*
X168266141Y-77510398D01*
X168345330Y-77319220D01*
X168385700Y-77116265D01*
X168385700Y-76909335D01*
X168385699Y-76909330D01*
X168824700Y-76909330D01*
X168824700Y-77116269D01*
X168865068Y-77319212D01*
X168865070Y-77319220D01*
X168944258Y-77510396D01*
X169059224Y-77682457D01*
X169205542Y-77828775D01*
X169205545Y-77828777D01*
X169377602Y-77943741D01*
X169568780Y-78022930D01*
X169771730Y-78063299D01*
X169771734Y-78063300D01*
X169771735Y-78063300D01*
X169978666Y-78063300D01*
X169978667Y-78063299D01*
X170181620Y-78022930D01*
X170372798Y-77943741D01*
X170544855Y-77828777D01*
X170691177Y-77682455D01*
X170806141Y-77510398D01*
X170885330Y-77319220D01*
X170925700Y-77116265D01*
X170925700Y-76909335D01*
X170925699Y-76909330D01*
X171364700Y-76909330D01*
X171364700Y-77116269D01*
X171405068Y-77319212D01*
X171405070Y-77319220D01*
X171484258Y-77510396D01*
X171599224Y-77682457D01*
X171745542Y-77828775D01*
X171745545Y-77828777D01*
X171917602Y-77943741D01*
X172108780Y-78022930D01*
X172311730Y-78063299D01*
X172311734Y-78063300D01*
X172311735Y-78063300D01*
X172518666Y-78063300D01*
X172518667Y-78063299D01*
X172721620Y-78022930D01*
X172912798Y-77943741D01*
X173084855Y-77828777D01*
X173231177Y-77682455D01*
X173346141Y-77510398D01*
X173425330Y-77319220D01*
X173465700Y-77116265D01*
X173465700Y-76909335D01*
X173425330Y-76706380D01*
X173346141Y-76515202D01*
X173231177Y-76343145D01*
X173231175Y-76343142D01*
X173084857Y-76196824D01*
X172957499Y-76111727D01*
X172912798Y-76081859D01*
X172721620Y-76002670D01*
X172721612Y-76002668D01*
X172518669Y-75962300D01*
X172518665Y-75962300D01*
X172311735Y-75962300D01*
X172311730Y-75962300D01*
X172108787Y-76002668D01*
X172108779Y-76002670D01*
X171917603Y-76081858D01*
X171745542Y-76196824D01*
X171599224Y-76343142D01*
X171484258Y-76515203D01*
X171405070Y-76706379D01*
X171405068Y-76706387D01*
X171364700Y-76909330D01*
X170925699Y-76909330D01*
X170885330Y-76706380D01*
X170806141Y-76515202D01*
X170691177Y-76343145D01*
X170691175Y-76343142D01*
X170544857Y-76196824D01*
X170417499Y-76111727D01*
X170372798Y-76081859D01*
X170181620Y-76002670D01*
X170181612Y-76002668D01*
X169978669Y-75962300D01*
X169978665Y-75962300D01*
X169771735Y-75962300D01*
X169771730Y-75962300D01*
X169568787Y-76002668D01*
X169568779Y-76002670D01*
X169377603Y-76081858D01*
X169205542Y-76196824D01*
X169059224Y-76343142D01*
X168944258Y-76515203D01*
X168865070Y-76706379D01*
X168865068Y-76706387D01*
X168824700Y-76909330D01*
X168385699Y-76909330D01*
X168345330Y-76706380D01*
X168266141Y-76515202D01*
X168151177Y-76343145D01*
X168151175Y-76343142D01*
X168004857Y-76196824D01*
X167877499Y-76111727D01*
X167832798Y-76081859D01*
X167641620Y-76002670D01*
X167641612Y-76002668D01*
X167438669Y-75962300D01*
X167438665Y-75962300D01*
X167231735Y-75962300D01*
X167231730Y-75962300D01*
X167028787Y-76002668D01*
X167028779Y-76002670D01*
X166837603Y-76081858D01*
X166665542Y-76196824D01*
X166519224Y-76343142D01*
X166404258Y-76515203D01*
X166325070Y-76706379D01*
X166325068Y-76706387D01*
X166284700Y-76909330D01*
X165845699Y-76909330D01*
X165805330Y-76706380D01*
X165726141Y-76515202D01*
X165611177Y-76343145D01*
X165611175Y-76343142D01*
X165464857Y-76196824D01*
X165337499Y-76111727D01*
X165292798Y-76081859D01*
X165101620Y-76002670D01*
X165101612Y-76002668D01*
X164898669Y-75962300D01*
X164898665Y-75962300D01*
X164691735Y-75962300D01*
X164691730Y-75962300D01*
X164488787Y-76002668D01*
X164488779Y-76002670D01*
X164297603Y-76081858D01*
X164125542Y-76196824D01*
X163979224Y-76343142D01*
X163864258Y-76515203D01*
X163785070Y-76706379D01*
X163785068Y-76706387D01*
X163744700Y-76909330D01*
X163305699Y-76909330D01*
X163265330Y-76706380D01*
X163186141Y-76515202D01*
X163071177Y-76343145D01*
X163071175Y-76343142D01*
X162924857Y-76196824D01*
X162797499Y-76111727D01*
X162752798Y-76081859D01*
X162561620Y-76002670D01*
X162561612Y-76002668D01*
X162358669Y-75962300D01*
X162358665Y-75962300D01*
X162151735Y-75962300D01*
X162151730Y-75962300D01*
X161948787Y-76002668D01*
X161948779Y-76002670D01*
X161757603Y-76081858D01*
X161585542Y-76196824D01*
X161439224Y-76343142D01*
X161324258Y-76515203D01*
X161245070Y-76706379D01*
X161245068Y-76706387D01*
X161204700Y-76909330D01*
X160765699Y-76909330D01*
X160725330Y-76706380D01*
X160646141Y-76515202D01*
X160531177Y-76343145D01*
X160531175Y-76343142D01*
X160384857Y-76196824D01*
X160257499Y-76111727D01*
X160212798Y-76081859D01*
X160021620Y-76002670D01*
X160021612Y-76002668D01*
X159818669Y-75962300D01*
X159818665Y-75962300D01*
X159611735Y-75962300D01*
X159611730Y-75962300D01*
X159408787Y-76002668D01*
X159408779Y-76002670D01*
X159217603Y-76081858D01*
X159045542Y-76196824D01*
X158899224Y-76343142D01*
X158784258Y-76515203D01*
X158705070Y-76706379D01*
X158705068Y-76706387D01*
X158664700Y-76909330D01*
X158225699Y-76909330D01*
X158185330Y-76706380D01*
X158106141Y-76515202D01*
X157991177Y-76343145D01*
X157991175Y-76343142D01*
X157844857Y-76196824D01*
X157717499Y-76111727D01*
X157672798Y-76081859D01*
X157481620Y-76002670D01*
X157481612Y-76002668D01*
X157278669Y-75962300D01*
X157278665Y-75962300D01*
X157071735Y-75962300D01*
X157071730Y-75962300D01*
X156868787Y-76002668D01*
X156868779Y-76002670D01*
X156677603Y-76081858D01*
X156505542Y-76196824D01*
X156359224Y-76343142D01*
X156244258Y-76515203D01*
X156165070Y-76706379D01*
X156165068Y-76706387D01*
X156124700Y-76909330D01*
X155685699Y-76909330D01*
X155645330Y-76706380D01*
X155566141Y-76515202D01*
X155451177Y-76343145D01*
X155451175Y-76343142D01*
X155304857Y-76196824D01*
X155177499Y-76111727D01*
X155132798Y-76081859D01*
X154941620Y-76002670D01*
X154941612Y-76002668D01*
X154738669Y-75962300D01*
X154738665Y-75962300D01*
X154531735Y-75962300D01*
X154531730Y-75962300D01*
X154328787Y-76002668D01*
X154328779Y-76002670D01*
X154137603Y-76081858D01*
X153965542Y-76196824D01*
X153819224Y-76343142D01*
X153704258Y-76515203D01*
X153625070Y-76706379D01*
X153625068Y-76706387D01*
X153584700Y-76909330D01*
X153145699Y-76909330D01*
X153105330Y-76706380D01*
X153026141Y-76515202D01*
X152911177Y-76343145D01*
X152911175Y-76343142D01*
X152764857Y-76196824D01*
X152637499Y-76111727D01*
X152592798Y-76081859D01*
X152401620Y-76002670D01*
X152401612Y-76002668D01*
X152198669Y-75962300D01*
X152198665Y-75962300D01*
X151991735Y-75962300D01*
X151991730Y-75962300D01*
X151788787Y-76002668D01*
X151788779Y-76002670D01*
X151597603Y-76081858D01*
X151425542Y-76196824D01*
X151279224Y-76343142D01*
X151164258Y-76515203D01*
X151085070Y-76706379D01*
X151085068Y-76706387D01*
X151044700Y-76909330D01*
X150605699Y-76909330D01*
X150565330Y-76706380D01*
X150486141Y-76515202D01*
X150371177Y-76343145D01*
X150371175Y-76343142D01*
X150224857Y-76196824D01*
X150097499Y-76111727D01*
X150052798Y-76081859D01*
X149861620Y-76002670D01*
X149861612Y-76002668D01*
X149658669Y-75962300D01*
X149658665Y-75962300D01*
X149451735Y-75962300D01*
X149451730Y-75962300D01*
X149248787Y-76002668D01*
X149248779Y-76002670D01*
X149057603Y-76081858D01*
X148885542Y-76196824D01*
X148739224Y-76343142D01*
X148624258Y-76515203D01*
X148545070Y-76706379D01*
X148545068Y-76706387D01*
X148504700Y-76909330D01*
X148065699Y-76909330D01*
X148025330Y-76706380D01*
X147946141Y-76515202D01*
X147831177Y-76343145D01*
X147831175Y-76343142D01*
X147684857Y-76196824D01*
X147557499Y-76111727D01*
X147512798Y-76081859D01*
X147321620Y-76002670D01*
X147321612Y-76002668D01*
X147118669Y-75962300D01*
X147118665Y-75962300D01*
X146911735Y-75962300D01*
X146911730Y-75962300D01*
X146708787Y-76002668D01*
X146708779Y-76002670D01*
X146517603Y-76081858D01*
X146345542Y-76196824D01*
X146199224Y-76343142D01*
X146084258Y-76515203D01*
X146005070Y-76706379D01*
X146005068Y-76706387D01*
X145964700Y-76909330D01*
X145525699Y-76909330D01*
X145485330Y-76706380D01*
X145406141Y-76515202D01*
X145291177Y-76343145D01*
X145291175Y-76343142D01*
X145144857Y-76196824D01*
X145017499Y-76111727D01*
X144972798Y-76081859D01*
X144781620Y-76002670D01*
X144781612Y-76002668D01*
X144578669Y-75962300D01*
X144578665Y-75962300D01*
X144371735Y-75962300D01*
X144371730Y-75962300D01*
X144168787Y-76002668D01*
X144168779Y-76002670D01*
X143977603Y-76081858D01*
X143805542Y-76196824D01*
X143659224Y-76343142D01*
X143544258Y-76515203D01*
X143465070Y-76706379D01*
X143465068Y-76706387D01*
X143424700Y-76909330D01*
X142985699Y-76909330D01*
X142945330Y-76706380D01*
X142866141Y-76515202D01*
X142751177Y-76343145D01*
X142751175Y-76343142D01*
X142604857Y-76196824D01*
X142477499Y-76111727D01*
X142432798Y-76081859D01*
X142241620Y-76002670D01*
X142241612Y-76002668D01*
X142038669Y-75962300D01*
X142038665Y-75962300D01*
X141831735Y-75962300D01*
X141831730Y-75962300D01*
X141628787Y-76002668D01*
X141628779Y-76002670D01*
X141437603Y-76081858D01*
X141265542Y-76196824D01*
X141119224Y-76343142D01*
X141004258Y-76515203D01*
X140925070Y-76706379D01*
X140925068Y-76706387D01*
X140884700Y-76909330D01*
X140445699Y-76909330D01*
X140405330Y-76706380D01*
X140326141Y-76515202D01*
X140211177Y-76343145D01*
X140211175Y-76343142D01*
X140064857Y-76196824D01*
X139937499Y-76111727D01*
X139892798Y-76081859D01*
X139701620Y-76002670D01*
X139701612Y-76002668D01*
X139498669Y-75962300D01*
X139498665Y-75962300D01*
X139291735Y-75962300D01*
X139291730Y-75962300D01*
X139088787Y-76002668D01*
X139088779Y-76002670D01*
X138897603Y-76081858D01*
X138725542Y-76196824D01*
X138579224Y-76343142D01*
X138464258Y-76515203D01*
X138385070Y-76706379D01*
X138385068Y-76706387D01*
X138344700Y-76909330D01*
X137905699Y-76909330D01*
X137865330Y-76706380D01*
X137786141Y-76515202D01*
X137671177Y-76343145D01*
X137671175Y-76343142D01*
X137524857Y-76196824D01*
X137397499Y-76111727D01*
X137352798Y-76081859D01*
X137161620Y-76002670D01*
X137161612Y-76002668D01*
X136958669Y-75962300D01*
X136958665Y-75962300D01*
X136751735Y-75962300D01*
X136751730Y-75962300D01*
X136548787Y-76002668D01*
X136548779Y-76002670D01*
X136357603Y-76081858D01*
X136185542Y-76196824D01*
X136039224Y-76343142D01*
X135924258Y-76515203D01*
X135845070Y-76706379D01*
X135845068Y-76706387D01*
X135804700Y-76909330D01*
X135365699Y-76909330D01*
X135325330Y-76706380D01*
X135246141Y-76515202D01*
X135131177Y-76343145D01*
X135131175Y-76343142D01*
X134984857Y-76196824D01*
X134857499Y-76111727D01*
X134812798Y-76081859D01*
X134621620Y-76002670D01*
X134621612Y-76002668D01*
X134418669Y-75962300D01*
X134418665Y-75962300D01*
X134211735Y-75962300D01*
X134211730Y-75962300D01*
X134008787Y-76002668D01*
X134008779Y-76002670D01*
X133817603Y-76081858D01*
X133645542Y-76196824D01*
X133499224Y-76343142D01*
X133384258Y-76515203D01*
X133305070Y-76706379D01*
X133305068Y-76706387D01*
X133264700Y-76909330D01*
X132825699Y-76909330D01*
X132785330Y-76706380D01*
X132706141Y-76515202D01*
X132591177Y-76343145D01*
X132591175Y-76343142D01*
X132444857Y-76196824D01*
X132317499Y-76111727D01*
X132272798Y-76081859D01*
X132081620Y-76002670D01*
X132081612Y-76002668D01*
X131878669Y-75962300D01*
X131878665Y-75962300D01*
X131671735Y-75962300D01*
X131671730Y-75962300D01*
X131468787Y-76002668D01*
X131468779Y-76002670D01*
X131277603Y-76081858D01*
X131105542Y-76196824D01*
X130959224Y-76343142D01*
X130844258Y-76515203D01*
X130765070Y-76706379D01*
X130765068Y-76706387D01*
X130724700Y-76909330D01*
X130285699Y-76909330D01*
X130245330Y-76706380D01*
X130166141Y-76515202D01*
X130051177Y-76343145D01*
X130051175Y-76343142D01*
X129904857Y-76196824D01*
X129777499Y-76111727D01*
X129732798Y-76081859D01*
X129541620Y-76002670D01*
X129541612Y-76002668D01*
X129338669Y-75962300D01*
X129338665Y-75962300D01*
X129131735Y-75962300D01*
X129131730Y-75962300D01*
X128928787Y-76002668D01*
X128928779Y-76002670D01*
X128737603Y-76081858D01*
X128565542Y-76196824D01*
X128419224Y-76343142D01*
X128304258Y-76515203D01*
X128225070Y-76706379D01*
X128225068Y-76706387D01*
X128184700Y-76909330D01*
X127745699Y-76909330D01*
X127705330Y-76706380D01*
X127626141Y-76515202D01*
X127511177Y-76343145D01*
X127511175Y-76343142D01*
X127364857Y-76196824D01*
X127237499Y-76111727D01*
X127192798Y-76081859D01*
X127001620Y-76002670D01*
X127001612Y-76002668D01*
X126798669Y-75962300D01*
X126798665Y-75962300D01*
X126591735Y-75962300D01*
X126591730Y-75962300D01*
X126388787Y-76002668D01*
X126388779Y-76002670D01*
X126197603Y-76081858D01*
X126025542Y-76196824D01*
X125879224Y-76343142D01*
X125764258Y-76515203D01*
X125685070Y-76706379D01*
X125685068Y-76706387D01*
X125644700Y-76909330D01*
X125205699Y-76909330D01*
X125165330Y-76706380D01*
X125086141Y-76515202D01*
X124971177Y-76343145D01*
X124971175Y-76343142D01*
X124824857Y-76196824D01*
X124697499Y-76111727D01*
X124652798Y-76081859D01*
X124461620Y-76002670D01*
X124461612Y-76002668D01*
X124258669Y-75962300D01*
X124258665Y-75962300D01*
X124051735Y-75962300D01*
X124051730Y-75962300D01*
X123848787Y-76002668D01*
X123848779Y-76002670D01*
X123657603Y-76081858D01*
X123485542Y-76196824D01*
X123339224Y-76343142D01*
X123224258Y-76515203D01*
X123145070Y-76706379D01*
X123145068Y-76706387D01*
X123104700Y-76909330D01*
X120346764Y-76909330D01*
X120486924Y-76769170D01*
X120632689Y-76568542D01*
X120745273Y-76347582D01*
X120821906Y-76111731D01*
X120845574Y-75962300D01*
X120860700Y-75866800D01*
X120860700Y-75618799D01*
X175709700Y-75618799D01*
X175709700Y-75866800D01*
X175748493Y-76111727D01*
X175748494Y-76111731D01*
X175825127Y-76347582D01*
X175937711Y-76568542D01*
X176083476Y-76769170D01*
X176258830Y-76944524D01*
X176459458Y-77090289D01*
X176680418Y-77202873D01*
X176916269Y-77279506D01*
X177008120Y-77294053D01*
X177161200Y-77318300D01*
X177161205Y-77318300D01*
X177409200Y-77318300D01*
X177545270Y-77296747D01*
X177654131Y-77279506D01*
X177889982Y-77202873D01*
X178110942Y-77090289D01*
X178311570Y-76944524D01*
X178486924Y-76769170D01*
X178632689Y-76568542D01*
X178745273Y-76347582D01*
X178821906Y-76111731D01*
X178845574Y-75962300D01*
X178860700Y-75866800D01*
X178860700Y-75618799D01*
X178826208Y-75401030D01*
X178821906Y-75373869D01*
X178745273Y-75138018D01*
X178632689Y-74917058D01*
X178486924Y-74716430D01*
X178311570Y-74541076D01*
X178110942Y-74395311D01*
X177889982Y-74282727D01*
X177654131Y-74206094D01*
X177654129Y-74206093D01*
X177654127Y-74206093D01*
X177409200Y-74167300D01*
X177409195Y-74167300D01*
X177161205Y-74167300D01*
X177161200Y-74167300D01*
X176916272Y-74206093D01*
X176680415Y-74282728D01*
X176459457Y-74395311D01*
X176344992Y-74478475D01*
X176258830Y-74541076D01*
X176258828Y-74541078D01*
X176258827Y-74541078D01*
X176083478Y-74716427D01*
X176083478Y-74716428D01*
X176083476Y-74716430D01*
X176037862Y-74779212D01*
X175937711Y-74917057D01*
X175825128Y-75138015D01*
X175748493Y-75373872D01*
X175709700Y-75618799D01*
X120860700Y-75618799D01*
X120826208Y-75401030D01*
X120821906Y-75373869D01*
X120745273Y-75138018D01*
X120632689Y-74917058D01*
X120486924Y-74716430D01*
X120311570Y-74541076D01*
X120110942Y-74395311D01*
X119889982Y-74282727D01*
X119654131Y-74206094D01*
X119654129Y-74206093D01*
X119654127Y-74206093D01*
X119409200Y-74167300D01*
X119409195Y-74167300D01*
X119161205Y-74167300D01*
X119161200Y-74167300D01*
X118916272Y-74206093D01*
X118680415Y-74282728D01*
X118459457Y-74395311D01*
X118344992Y-74478475D01*
X118258830Y-74541076D01*
X118258828Y-74541078D01*
X118258827Y-74541078D01*
X118083478Y-74716427D01*
X118083478Y-74716428D01*
X118083476Y-74716430D01*
X118037862Y-74779212D01*
X117937711Y-74917057D01*
X117825128Y-75138015D01*
X117748493Y-75373872D01*
X117709700Y-75618799D01*
X111705700Y-75618799D01*
X111705700Y-73603047D01*
X123104700Y-73603047D01*
X123104700Y-75342552D01*
X123116331Y-75401029D01*
X123116332Y-75401030D01*
X123160647Y-75467352D01*
X123226969Y-75511667D01*
X123226970Y-75511668D01*
X123285447Y-75523299D01*
X123285450Y-75523300D01*
X123285452Y-75523300D01*
X125024950Y-75523300D01*
X125024951Y-75523299D01*
X125039768Y-75520352D01*
X125083429Y-75511668D01*
X125083429Y-75511667D01*
X125083431Y-75511667D01*
X125149752Y-75467352D01*
X125194067Y-75401031D01*
X125194067Y-75401029D01*
X125194068Y-75401029D01*
X125205699Y-75342552D01*
X125205700Y-75342550D01*
X125205700Y-74369330D01*
X125644700Y-74369330D01*
X125644700Y-74576269D01*
X125685068Y-74779212D01*
X125685070Y-74779220D01*
X125764258Y-74970396D01*
X125879224Y-75142457D01*
X126025542Y-75288775D01*
X126025545Y-75288777D01*
X126197602Y-75403741D01*
X126388780Y-75482930D01*
X126533252Y-75511667D01*
X126591730Y-75523299D01*
X126591734Y-75523300D01*
X126591735Y-75523300D01*
X126798666Y-75523300D01*
X126798667Y-75523299D01*
X127001620Y-75482930D01*
X127192798Y-75403741D01*
X127364855Y-75288777D01*
X127511177Y-75142455D01*
X127626141Y-74970398D01*
X127705330Y-74779220D01*
X127745700Y-74576265D01*
X127745700Y-74369335D01*
X127745699Y-74369330D01*
X128184700Y-74369330D01*
X128184700Y-74576269D01*
X128225068Y-74779212D01*
X128225070Y-74779220D01*
X128304258Y-74970396D01*
X128419224Y-75142457D01*
X128565542Y-75288775D01*
X128565545Y-75288777D01*
X128737602Y-75403741D01*
X128928780Y-75482930D01*
X129073252Y-75511667D01*
X129131730Y-75523299D01*
X129131734Y-75523300D01*
X129131735Y-75523300D01*
X129338666Y-75523300D01*
X129338667Y-75523299D01*
X129541620Y-75482930D01*
X129732798Y-75403741D01*
X129904855Y-75288777D01*
X130051177Y-75142455D01*
X130166141Y-74970398D01*
X130245330Y-74779220D01*
X130285700Y-74576265D01*
X130285700Y-74369335D01*
X130285699Y-74369330D01*
X130724700Y-74369330D01*
X130724700Y-74576269D01*
X130765068Y-74779212D01*
X130765070Y-74779220D01*
X130844258Y-74970396D01*
X130959224Y-75142457D01*
X131105542Y-75288775D01*
X131105545Y-75288777D01*
X131277602Y-75403741D01*
X131468780Y-75482930D01*
X131613252Y-75511667D01*
X131671730Y-75523299D01*
X131671734Y-75523300D01*
X131671735Y-75523300D01*
X131878666Y-75523300D01*
X131878667Y-75523299D01*
X132081620Y-75482930D01*
X132272798Y-75403741D01*
X132444855Y-75288777D01*
X132591177Y-75142455D01*
X132706141Y-74970398D01*
X132785330Y-74779220D01*
X132825700Y-74576265D01*
X132825700Y-74369335D01*
X132825699Y-74369330D01*
X133264700Y-74369330D01*
X133264700Y-74576269D01*
X133305068Y-74779212D01*
X133305070Y-74779220D01*
X133384258Y-74970396D01*
X133499224Y-75142457D01*
X133645542Y-75288775D01*
X133645545Y-75288777D01*
X133817602Y-75403741D01*
X134008780Y-75482930D01*
X134153252Y-75511667D01*
X134211730Y-75523299D01*
X134211734Y-75523300D01*
X134211735Y-75523300D01*
X134418666Y-75523300D01*
X134418667Y-75523299D01*
X134621620Y-75482930D01*
X134812798Y-75403741D01*
X134984855Y-75288777D01*
X135131177Y-75142455D01*
X135246141Y-74970398D01*
X135325330Y-74779220D01*
X135365700Y-74576265D01*
X135365700Y-74369335D01*
X135365699Y-74369330D01*
X135804700Y-74369330D01*
X135804700Y-74576269D01*
X135845068Y-74779212D01*
X135845070Y-74779220D01*
X135924258Y-74970396D01*
X136039224Y-75142457D01*
X136185542Y-75288775D01*
X136185545Y-75288777D01*
X136357602Y-75403741D01*
X136548780Y-75482930D01*
X136693252Y-75511667D01*
X136751730Y-75523299D01*
X136751734Y-75523300D01*
X136751735Y-75523300D01*
X136958666Y-75523300D01*
X136958667Y-75523299D01*
X137161620Y-75482930D01*
X137352798Y-75403741D01*
X137524855Y-75288777D01*
X137671177Y-75142455D01*
X137786141Y-74970398D01*
X137865330Y-74779220D01*
X137905700Y-74576265D01*
X137905700Y-74369335D01*
X137905699Y-74369330D01*
X138344700Y-74369330D01*
X138344700Y-74576269D01*
X138385068Y-74779212D01*
X138385070Y-74779220D01*
X138464258Y-74970396D01*
X138579224Y-75142457D01*
X138725542Y-75288775D01*
X138725545Y-75288777D01*
X138897602Y-75403741D01*
X139088780Y-75482930D01*
X139233252Y-75511667D01*
X139291730Y-75523299D01*
X139291734Y-75523300D01*
X139291735Y-75523300D01*
X139498666Y-75523300D01*
X139498667Y-75523299D01*
X139701620Y-75482930D01*
X139892798Y-75403741D01*
X140064855Y-75288777D01*
X140211177Y-75142455D01*
X140326141Y-74970398D01*
X140405330Y-74779220D01*
X140445700Y-74576265D01*
X140445700Y-74369335D01*
X140445699Y-74369330D01*
X140884700Y-74369330D01*
X140884700Y-74576269D01*
X140925068Y-74779212D01*
X140925070Y-74779220D01*
X141004258Y-74970396D01*
X141119224Y-75142457D01*
X141265542Y-75288775D01*
X141265545Y-75288777D01*
X141437602Y-75403741D01*
X141628780Y-75482930D01*
X141773252Y-75511667D01*
X141831730Y-75523299D01*
X141831734Y-75523300D01*
X141831735Y-75523300D01*
X142038666Y-75523300D01*
X142038667Y-75523299D01*
X142241620Y-75482930D01*
X142432798Y-75403741D01*
X142604855Y-75288777D01*
X142751177Y-75142455D01*
X142866141Y-74970398D01*
X142945330Y-74779220D01*
X142985700Y-74576265D01*
X142985700Y-74369335D01*
X142985699Y-74369330D01*
X143424700Y-74369330D01*
X143424700Y-74576269D01*
X143465068Y-74779212D01*
X143465070Y-74779220D01*
X143544258Y-74970396D01*
X143659224Y-75142457D01*
X143805542Y-75288775D01*
X143805545Y-75288777D01*
X143977602Y-75403741D01*
X144168780Y-75482930D01*
X144313252Y-75511667D01*
X144371730Y-75523299D01*
X144371734Y-75523300D01*
X144371735Y-75523300D01*
X144578666Y-75523300D01*
X144578667Y-75523299D01*
X144781620Y-75482930D01*
X144972798Y-75403741D01*
X145144855Y-75288777D01*
X145291177Y-75142455D01*
X145406141Y-74970398D01*
X145485330Y-74779220D01*
X145525700Y-74576265D01*
X145525700Y-74369335D01*
X145525699Y-74369330D01*
X145964700Y-74369330D01*
X145964700Y-74576269D01*
X146005068Y-74779212D01*
X146005070Y-74779220D01*
X146084258Y-74970396D01*
X146199224Y-75142457D01*
X146345542Y-75288775D01*
X146345545Y-75288777D01*
X146517602Y-75403741D01*
X146708780Y-75482930D01*
X146853252Y-75511667D01*
X146911730Y-75523299D01*
X146911734Y-75523300D01*
X146911735Y-75523300D01*
X147118666Y-75523300D01*
X147118667Y-75523299D01*
X147321620Y-75482930D01*
X147512798Y-75403741D01*
X147684855Y-75288777D01*
X147831177Y-75142455D01*
X147946141Y-74970398D01*
X148025330Y-74779220D01*
X148065700Y-74576265D01*
X148065700Y-74369335D01*
X148065699Y-74369330D01*
X148504700Y-74369330D01*
X148504700Y-74576269D01*
X148545068Y-74779212D01*
X148545070Y-74779220D01*
X148624258Y-74970396D01*
X148739224Y-75142457D01*
X148885542Y-75288775D01*
X148885545Y-75288777D01*
X149057602Y-75403741D01*
X149248780Y-75482930D01*
X149393252Y-75511667D01*
X149451730Y-75523299D01*
X149451734Y-75523300D01*
X149451735Y-75523300D01*
X149658666Y-75523300D01*
X149658667Y-75523299D01*
X149861620Y-75482930D01*
X150052798Y-75403741D01*
X150224855Y-75288777D01*
X150371177Y-75142455D01*
X150486141Y-74970398D01*
X150565330Y-74779220D01*
X150605700Y-74576265D01*
X150605700Y-74369335D01*
X150605699Y-74369330D01*
X151044700Y-74369330D01*
X151044700Y-74576269D01*
X151085068Y-74779212D01*
X151085070Y-74779220D01*
X151164258Y-74970396D01*
X151279224Y-75142457D01*
X151425542Y-75288775D01*
X151425545Y-75288777D01*
X151597602Y-75403741D01*
X151788780Y-75482930D01*
X151933252Y-75511667D01*
X151991730Y-75523299D01*
X151991734Y-75523300D01*
X151991735Y-75523300D01*
X152198666Y-75523300D01*
X152198667Y-75523299D01*
X152401620Y-75482930D01*
X152592798Y-75403741D01*
X152764855Y-75288777D01*
X152911177Y-75142455D01*
X153026141Y-74970398D01*
X153105330Y-74779220D01*
X153145700Y-74576265D01*
X153145700Y-74369335D01*
X153145699Y-74369330D01*
X153584700Y-74369330D01*
X153584700Y-74576269D01*
X153625068Y-74779212D01*
X153625070Y-74779220D01*
X153704258Y-74970396D01*
X153819224Y-75142457D01*
X153965542Y-75288775D01*
X153965545Y-75288777D01*
X154137602Y-75403741D01*
X154328780Y-75482930D01*
X154473252Y-75511667D01*
X154531730Y-75523299D01*
X154531734Y-75523300D01*
X154531735Y-75523300D01*
X154738666Y-75523300D01*
X154738667Y-75523299D01*
X154941620Y-75482930D01*
X155132798Y-75403741D01*
X155304855Y-75288777D01*
X155451177Y-75142455D01*
X155566141Y-74970398D01*
X155645330Y-74779220D01*
X155685700Y-74576265D01*
X155685700Y-74369335D01*
X155685699Y-74369330D01*
X156124700Y-74369330D01*
X156124700Y-74576269D01*
X156165068Y-74779212D01*
X156165070Y-74779220D01*
X156244258Y-74970396D01*
X156359224Y-75142457D01*
X156505542Y-75288775D01*
X156505545Y-75288777D01*
X156677602Y-75403741D01*
X156868780Y-75482930D01*
X157013252Y-75511667D01*
X157071730Y-75523299D01*
X157071734Y-75523300D01*
X157071735Y-75523300D01*
X157278666Y-75523300D01*
X157278667Y-75523299D01*
X157481620Y-75482930D01*
X157672798Y-75403741D01*
X157844855Y-75288777D01*
X157991177Y-75142455D01*
X158106141Y-74970398D01*
X158185330Y-74779220D01*
X158225700Y-74576265D01*
X158225700Y-74369335D01*
X158225699Y-74369330D01*
X158664700Y-74369330D01*
X158664700Y-74576269D01*
X158705068Y-74779212D01*
X158705070Y-74779220D01*
X158784258Y-74970396D01*
X158899224Y-75142457D01*
X159045542Y-75288775D01*
X159045545Y-75288777D01*
X159217602Y-75403741D01*
X159408780Y-75482930D01*
X159553252Y-75511667D01*
X159611730Y-75523299D01*
X159611734Y-75523300D01*
X159611735Y-75523300D01*
X159818666Y-75523300D01*
X159818667Y-75523299D01*
X160021620Y-75482930D01*
X160212798Y-75403741D01*
X160384855Y-75288777D01*
X160531177Y-75142455D01*
X160646141Y-74970398D01*
X160725330Y-74779220D01*
X160765700Y-74576265D01*
X160765700Y-74369335D01*
X160765699Y-74369330D01*
X161204700Y-74369330D01*
X161204700Y-74576269D01*
X161245068Y-74779212D01*
X161245070Y-74779220D01*
X161324258Y-74970396D01*
X161439224Y-75142457D01*
X161585542Y-75288775D01*
X161585545Y-75288777D01*
X161757602Y-75403741D01*
X161948780Y-75482930D01*
X162093252Y-75511667D01*
X162151730Y-75523299D01*
X162151734Y-75523300D01*
X162151735Y-75523300D01*
X162358666Y-75523300D01*
X162358667Y-75523299D01*
X162561620Y-75482930D01*
X162752798Y-75403741D01*
X162924855Y-75288777D01*
X163071177Y-75142455D01*
X163186141Y-74970398D01*
X163265330Y-74779220D01*
X163305700Y-74576265D01*
X163305700Y-74369335D01*
X163305699Y-74369330D01*
X163744700Y-74369330D01*
X163744700Y-74576269D01*
X163785068Y-74779212D01*
X163785070Y-74779220D01*
X163864258Y-74970396D01*
X163979224Y-75142457D01*
X164125542Y-75288775D01*
X164125545Y-75288777D01*
X164297602Y-75403741D01*
X164488780Y-75482930D01*
X164633252Y-75511667D01*
X164691730Y-75523299D01*
X164691734Y-75523300D01*
X164691735Y-75523300D01*
X164898666Y-75523300D01*
X164898667Y-75523299D01*
X165101620Y-75482930D01*
X165292798Y-75403741D01*
X165464855Y-75288777D01*
X165611177Y-75142455D01*
X165726141Y-74970398D01*
X165805330Y-74779220D01*
X165845700Y-74576265D01*
X165845700Y-74369335D01*
X165845699Y-74369330D01*
X166284700Y-74369330D01*
X166284700Y-74576269D01*
X166325068Y-74779212D01*
X166325070Y-74779220D01*
X166404258Y-74970396D01*
X166519224Y-75142457D01*
X166665542Y-75288775D01*
X166665545Y-75288777D01*
X166837602Y-75403741D01*
X167028780Y-75482930D01*
X167173252Y-75511667D01*
X167231730Y-75523299D01*
X167231734Y-75523300D01*
X167231735Y-75523300D01*
X167438666Y-75523300D01*
X167438667Y-75523299D01*
X167641620Y-75482930D01*
X167832798Y-75403741D01*
X168004855Y-75288777D01*
X168151177Y-75142455D01*
X168266141Y-74970398D01*
X168345330Y-74779220D01*
X168385700Y-74576265D01*
X168385700Y-74369335D01*
X168385699Y-74369330D01*
X168824700Y-74369330D01*
X168824700Y-74576269D01*
X168865068Y-74779212D01*
X168865070Y-74779220D01*
X168944258Y-74970396D01*
X169059224Y-75142457D01*
X169205542Y-75288775D01*
X169205545Y-75288777D01*
X169377602Y-75403741D01*
X169568780Y-75482930D01*
X169713252Y-75511667D01*
X169771730Y-75523299D01*
X169771734Y-75523300D01*
X169771735Y-75523300D01*
X169978666Y-75523300D01*
X169978667Y-75523299D01*
X170181620Y-75482930D01*
X170372798Y-75403741D01*
X170544855Y-75288777D01*
X170691177Y-75142455D01*
X170806141Y-74970398D01*
X170885330Y-74779220D01*
X170925700Y-74576265D01*
X170925700Y-74369335D01*
X170925699Y-74369330D01*
X171364700Y-74369330D01*
X171364700Y-74576269D01*
X171405068Y-74779212D01*
X171405070Y-74779220D01*
X171484258Y-74970396D01*
X171599224Y-75142457D01*
X171745542Y-75288775D01*
X171745545Y-75288777D01*
X171917602Y-75403741D01*
X172108780Y-75482930D01*
X172253252Y-75511667D01*
X172311730Y-75523299D01*
X172311734Y-75523300D01*
X172311735Y-75523300D01*
X172518666Y-75523300D01*
X172518667Y-75523299D01*
X172559294Y-75515218D01*
X172674436Y-75492316D01*
X172697780Y-75487671D01*
X172721620Y-75482930D01*
X172912798Y-75403741D01*
X173084855Y-75288777D01*
X173231177Y-75142455D01*
X173346141Y-74970398D01*
X173425330Y-74779220D01*
X173465700Y-74576265D01*
X173465700Y-74369335D01*
X173425330Y-74166380D01*
X173346141Y-73975202D01*
X173231177Y-73803145D01*
X173231175Y-73803142D01*
X173084857Y-73656824D01*
X172916855Y-73544570D01*
X172912798Y-73541859D01*
X172721620Y-73462670D01*
X172721612Y-73462668D01*
X172518669Y-73422300D01*
X172518665Y-73422300D01*
X172311735Y-73422300D01*
X172311730Y-73422300D01*
X172108787Y-73462668D01*
X172108779Y-73462670D01*
X171917603Y-73541858D01*
X171745542Y-73656824D01*
X171599224Y-73803142D01*
X171484258Y-73975203D01*
X171405070Y-74166379D01*
X171405068Y-74166387D01*
X171364700Y-74369330D01*
X170925699Y-74369330D01*
X170885330Y-74166380D01*
X170806141Y-73975202D01*
X170691177Y-73803145D01*
X170691175Y-73803142D01*
X170544857Y-73656824D01*
X170376855Y-73544570D01*
X170372798Y-73541859D01*
X170181620Y-73462670D01*
X170181612Y-73462668D01*
X169978669Y-73422300D01*
X169978665Y-73422300D01*
X169771735Y-73422300D01*
X169771730Y-73422300D01*
X169568787Y-73462668D01*
X169568779Y-73462670D01*
X169377603Y-73541858D01*
X169205542Y-73656824D01*
X169059224Y-73803142D01*
X168944258Y-73975203D01*
X168865070Y-74166379D01*
X168865068Y-74166387D01*
X168824700Y-74369330D01*
X168385699Y-74369330D01*
X168345330Y-74166380D01*
X168266141Y-73975202D01*
X168151177Y-73803145D01*
X168151175Y-73803142D01*
X168004857Y-73656824D01*
X167836855Y-73544570D01*
X167832798Y-73541859D01*
X167641620Y-73462670D01*
X167641612Y-73462668D01*
X167438669Y-73422300D01*
X167438665Y-73422300D01*
X167231735Y-73422300D01*
X167231730Y-73422300D01*
X167028787Y-73462668D01*
X167028779Y-73462670D01*
X166837603Y-73541858D01*
X166665542Y-73656824D01*
X166519224Y-73803142D01*
X166404258Y-73975203D01*
X166325070Y-74166379D01*
X166325068Y-74166387D01*
X166284700Y-74369330D01*
X165845699Y-74369330D01*
X165805330Y-74166380D01*
X165726141Y-73975202D01*
X165611177Y-73803145D01*
X165611175Y-73803142D01*
X165464857Y-73656824D01*
X165296855Y-73544570D01*
X165292798Y-73541859D01*
X165101620Y-73462670D01*
X165101612Y-73462668D01*
X164898669Y-73422300D01*
X164898665Y-73422300D01*
X164691735Y-73422300D01*
X164691730Y-73422300D01*
X164488787Y-73462668D01*
X164488779Y-73462670D01*
X164297603Y-73541858D01*
X164125542Y-73656824D01*
X163979224Y-73803142D01*
X163864258Y-73975203D01*
X163785070Y-74166379D01*
X163785068Y-74166387D01*
X163744700Y-74369330D01*
X163305699Y-74369330D01*
X163265330Y-74166380D01*
X163186141Y-73975202D01*
X163071177Y-73803145D01*
X163071175Y-73803142D01*
X162924857Y-73656824D01*
X162756855Y-73544570D01*
X162752798Y-73541859D01*
X162561620Y-73462670D01*
X162561612Y-73462668D01*
X162358669Y-73422300D01*
X162358665Y-73422300D01*
X162151735Y-73422300D01*
X162151730Y-73422300D01*
X161948787Y-73462668D01*
X161948779Y-73462670D01*
X161757603Y-73541858D01*
X161585542Y-73656824D01*
X161439224Y-73803142D01*
X161324258Y-73975203D01*
X161245070Y-74166379D01*
X161245068Y-74166387D01*
X161204700Y-74369330D01*
X160765699Y-74369330D01*
X160725330Y-74166380D01*
X160646141Y-73975202D01*
X160531177Y-73803145D01*
X160531175Y-73803142D01*
X160384857Y-73656824D01*
X160216855Y-73544570D01*
X160212798Y-73541859D01*
X160021620Y-73462670D01*
X160021612Y-73462668D01*
X159818669Y-73422300D01*
X159818665Y-73422300D01*
X159611735Y-73422300D01*
X159611730Y-73422300D01*
X159408787Y-73462668D01*
X159408779Y-73462670D01*
X159217603Y-73541858D01*
X159045542Y-73656824D01*
X158899224Y-73803142D01*
X158784258Y-73975203D01*
X158705070Y-74166379D01*
X158705068Y-74166387D01*
X158664700Y-74369330D01*
X158225699Y-74369330D01*
X158185330Y-74166380D01*
X158106141Y-73975202D01*
X157991177Y-73803145D01*
X157991175Y-73803142D01*
X157844857Y-73656824D01*
X157676855Y-73544570D01*
X157672798Y-73541859D01*
X157481620Y-73462670D01*
X157481612Y-73462668D01*
X157278669Y-73422300D01*
X157278665Y-73422300D01*
X157071735Y-73422300D01*
X157071730Y-73422300D01*
X156868787Y-73462668D01*
X156868779Y-73462670D01*
X156677603Y-73541858D01*
X156505542Y-73656824D01*
X156359224Y-73803142D01*
X156244258Y-73975203D01*
X156165070Y-74166379D01*
X156165068Y-74166387D01*
X156124700Y-74369330D01*
X155685699Y-74369330D01*
X155645330Y-74166380D01*
X155566141Y-73975202D01*
X155451177Y-73803145D01*
X155451175Y-73803142D01*
X155304857Y-73656824D01*
X155136855Y-73544570D01*
X155132798Y-73541859D01*
X154941620Y-73462670D01*
X154941612Y-73462668D01*
X154738669Y-73422300D01*
X154738665Y-73422300D01*
X154531735Y-73422300D01*
X154531730Y-73422300D01*
X154328787Y-73462668D01*
X154328779Y-73462670D01*
X154137603Y-73541858D01*
X153965542Y-73656824D01*
X153819224Y-73803142D01*
X153704258Y-73975203D01*
X153625070Y-74166379D01*
X153625068Y-74166387D01*
X153584700Y-74369330D01*
X153145699Y-74369330D01*
X153105330Y-74166380D01*
X153026141Y-73975202D01*
X152911177Y-73803145D01*
X152911175Y-73803142D01*
X152764857Y-73656824D01*
X152596855Y-73544570D01*
X152592798Y-73541859D01*
X152401620Y-73462670D01*
X152401612Y-73462668D01*
X152198669Y-73422300D01*
X152198665Y-73422300D01*
X151991735Y-73422300D01*
X151991730Y-73422300D01*
X151788787Y-73462668D01*
X151788779Y-73462670D01*
X151597603Y-73541858D01*
X151425542Y-73656824D01*
X151279224Y-73803142D01*
X151164258Y-73975203D01*
X151085070Y-74166379D01*
X151085068Y-74166387D01*
X151044700Y-74369330D01*
X150605699Y-74369330D01*
X150565330Y-74166380D01*
X150486141Y-73975202D01*
X150371177Y-73803145D01*
X150371175Y-73803142D01*
X150224857Y-73656824D01*
X150056855Y-73544570D01*
X150052798Y-73541859D01*
X149861620Y-73462670D01*
X149861612Y-73462668D01*
X149658669Y-73422300D01*
X149658665Y-73422300D01*
X149451735Y-73422300D01*
X149451730Y-73422300D01*
X149248787Y-73462668D01*
X149248779Y-73462670D01*
X149057603Y-73541858D01*
X148885542Y-73656824D01*
X148739224Y-73803142D01*
X148624258Y-73975203D01*
X148545070Y-74166379D01*
X148545068Y-74166387D01*
X148504700Y-74369330D01*
X148065699Y-74369330D01*
X148025330Y-74166380D01*
X147946141Y-73975202D01*
X147831177Y-73803145D01*
X147831175Y-73803142D01*
X147684857Y-73656824D01*
X147516855Y-73544570D01*
X147512798Y-73541859D01*
X147321620Y-73462670D01*
X147321612Y-73462668D01*
X147118669Y-73422300D01*
X147118665Y-73422300D01*
X146911735Y-73422300D01*
X146911730Y-73422300D01*
X146708787Y-73462668D01*
X146708779Y-73462670D01*
X146517603Y-73541858D01*
X146345542Y-73656824D01*
X146199224Y-73803142D01*
X146084258Y-73975203D01*
X146005070Y-74166379D01*
X146005068Y-74166387D01*
X145964700Y-74369330D01*
X145525699Y-74369330D01*
X145485330Y-74166380D01*
X145406141Y-73975202D01*
X145291177Y-73803145D01*
X145291175Y-73803142D01*
X145144857Y-73656824D01*
X144976855Y-73544570D01*
X144972798Y-73541859D01*
X144781620Y-73462670D01*
X144781612Y-73462668D01*
X144578669Y-73422300D01*
X144578665Y-73422300D01*
X144371735Y-73422300D01*
X144371730Y-73422300D01*
X144168787Y-73462668D01*
X144168779Y-73462670D01*
X143977603Y-73541858D01*
X143805542Y-73656824D01*
X143659224Y-73803142D01*
X143544258Y-73975203D01*
X143465070Y-74166379D01*
X143465068Y-74166387D01*
X143424700Y-74369330D01*
X142985699Y-74369330D01*
X142945330Y-74166380D01*
X142866141Y-73975202D01*
X142751177Y-73803145D01*
X142751175Y-73803142D01*
X142604857Y-73656824D01*
X142436855Y-73544570D01*
X142432798Y-73541859D01*
X142241620Y-73462670D01*
X142241612Y-73462668D01*
X142038669Y-73422300D01*
X142038665Y-73422300D01*
X141831735Y-73422300D01*
X141831730Y-73422300D01*
X141628787Y-73462668D01*
X141628779Y-73462670D01*
X141437603Y-73541858D01*
X141265542Y-73656824D01*
X141119224Y-73803142D01*
X141004258Y-73975203D01*
X140925070Y-74166379D01*
X140925068Y-74166387D01*
X140884700Y-74369330D01*
X140445699Y-74369330D01*
X140405330Y-74166380D01*
X140326141Y-73975202D01*
X140211177Y-73803145D01*
X140211175Y-73803142D01*
X140064857Y-73656824D01*
X139896855Y-73544570D01*
X139892798Y-73541859D01*
X139701620Y-73462670D01*
X139701612Y-73462668D01*
X139498669Y-73422300D01*
X139498665Y-73422300D01*
X139291735Y-73422300D01*
X139291730Y-73422300D01*
X139088787Y-73462668D01*
X139088779Y-73462670D01*
X138897603Y-73541858D01*
X138725542Y-73656824D01*
X138579224Y-73803142D01*
X138464258Y-73975203D01*
X138385070Y-74166379D01*
X138385068Y-74166387D01*
X138344700Y-74369330D01*
X137905699Y-74369330D01*
X137865330Y-74166380D01*
X137786141Y-73975202D01*
X137671177Y-73803145D01*
X137671175Y-73803142D01*
X137524857Y-73656824D01*
X137356855Y-73544570D01*
X137352798Y-73541859D01*
X137161620Y-73462670D01*
X137161612Y-73462668D01*
X136958669Y-73422300D01*
X136958665Y-73422300D01*
X136751735Y-73422300D01*
X136751730Y-73422300D01*
X136548787Y-73462668D01*
X136548779Y-73462670D01*
X136357603Y-73541858D01*
X136185542Y-73656824D01*
X136039224Y-73803142D01*
X135924258Y-73975203D01*
X135845070Y-74166379D01*
X135845068Y-74166387D01*
X135804700Y-74369330D01*
X135365699Y-74369330D01*
X135325330Y-74166380D01*
X135246141Y-73975202D01*
X135131177Y-73803145D01*
X135131175Y-73803142D01*
X134984857Y-73656824D01*
X134816855Y-73544570D01*
X134812798Y-73541859D01*
X134621620Y-73462670D01*
X134621612Y-73462668D01*
X134418669Y-73422300D01*
X134418665Y-73422300D01*
X134211735Y-73422300D01*
X134211730Y-73422300D01*
X134008787Y-73462668D01*
X134008779Y-73462670D01*
X133817603Y-73541858D01*
X133645542Y-73656824D01*
X133499224Y-73803142D01*
X133384258Y-73975203D01*
X133305070Y-74166379D01*
X133305068Y-74166387D01*
X133264700Y-74369330D01*
X132825699Y-74369330D01*
X132785330Y-74166380D01*
X132706141Y-73975202D01*
X132591177Y-73803145D01*
X132591175Y-73803142D01*
X132444857Y-73656824D01*
X132276855Y-73544570D01*
X132272798Y-73541859D01*
X132081620Y-73462670D01*
X132081612Y-73462668D01*
X131878669Y-73422300D01*
X131878665Y-73422300D01*
X131671735Y-73422300D01*
X131671730Y-73422300D01*
X131468787Y-73462668D01*
X131468779Y-73462670D01*
X131277603Y-73541858D01*
X131105542Y-73656824D01*
X130959224Y-73803142D01*
X130844258Y-73975203D01*
X130765070Y-74166379D01*
X130765068Y-74166387D01*
X130724700Y-74369330D01*
X130285699Y-74369330D01*
X130245330Y-74166380D01*
X130166141Y-73975202D01*
X130051177Y-73803145D01*
X130051175Y-73803142D01*
X129904857Y-73656824D01*
X129736855Y-73544570D01*
X129732798Y-73541859D01*
X129541620Y-73462670D01*
X129541612Y-73462668D01*
X129338669Y-73422300D01*
X129338665Y-73422300D01*
X129131735Y-73422300D01*
X129131730Y-73422300D01*
X128928787Y-73462668D01*
X128928779Y-73462670D01*
X128737603Y-73541858D01*
X128565542Y-73656824D01*
X128419224Y-73803142D01*
X128304258Y-73975203D01*
X128225070Y-74166379D01*
X128225068Y-74166387D01*
X128184700Y-74369330D01*
X127745699Y-74369330D01*
X127705330Y-74166380D01*
X127626141Y-73975202D01*
X127511177Y-73803145D01*
X127511175Y-73803142D01*
X127364857Y-73656824D01*
X127196855Y-73544570D01*
X127192798Y-73541859D01*
X127001620Y-73462670D01*
X127001612Y-73462668D01*
X126798669Y-73422300D01*
X126798665Y-73422300D01*
X126591735Y-73422300D01*
X126591730Y-73422300D01*
X126388787Y-73462668D01*
X126388779Y-73462670D01*
X126197603Y-73541858D01*
X126025542Y-73656824D01*
X125879224Y-73803142D01*
X125764258Y-73975203D01*
X125685070Y-74166379D01*
X125685068Y-74166387D01*
X125644700Y-74369330D01*
X125205700Y-74369330D01*
X125205700Y-73603049D01*
X125205699Y-73603047D01*
X125194068Y-73544570D01*
X125194067Y-73544569D01*
X125149752Y-73478247D01*
X125083430Y-73433932D01*
X125083429Y-73433931D01*
X125024952Y-73422300D01*
X125024948Y-73422300D01*
X123285452Y-73422300D01*
X123285447Y-73422300D01*
X123226970Y-73433931D01*
X123226969Y-73433932D01*
X123160647Y-73478247D01*
X123116332Y-73544569D01*
X123116331Y-73544570D01*
X123104700Y-73603047D01*
X111705700Y-73603047D01*
X111705700Y-52618799D01*
X117709700Y-52618799D01*
X117709700Y-52866800D01*
X117748493Y-53111727D01*
X117748494Y-53111731D01*
X117825127Y-53347582D01*
X117937711Y-53568542D01*
X118083476Y-53769170D01*
X118258830Y-53944524D01*
X118459458Y-54090289D01*
X118680418Y-54202873D01*
X118916269Y-54279506D01*
X119008120Y-54294053D01*
X119161200Y-54318300D01*
X119161205Y-54318300D01*
X119409200Y-54318300D01*
X119545270Y-54296747D01*
X119654131Y-54279506D01*
X119889982Y-54202873D01*
X120110942Y-54090289D01*
X120311570Y-53944524D01*
X120486924Y-53769170D01*
X120632689Y-53568542D01*
X120745273Y-53347582D01*
X120821906Y-53111731D01*
X120839147Y-53002870D01*
X120860700Y-52866800D01*
X120860700Y-52618799D01*
X175709700Y-52618799D01*
X175709700Y-52866800D01*
X175748493Y-53111727D01*
X175748494Y-53111731D01*
X175825127Y-53347582D01*
X175937711Y-53568542D01*
X176083476Y-53769170D01*
X176258830Y-53944524D01*
X176459458Y-54090289D01*
X176680418Y-54202873D01*
X176916269Y-54279506D01*
X177008120Y-54294053D01*
X177161200Y-54318300D01*
X177161205Y-54318300D01*
X177409200Y-54318300D01*
X177545270Y-54296747D01*
X177654131Y-54279506D01*
X177889982Y-54202873D01*
X178110942Y-54090289D01*
X178311570Y-53944524D01*
X178486924Y-53769170D01*
X178632689Y-53568542D01*
X178745273Y-53347582D01*
X178821906Y-53111731D01*
X178839147Y-53002870D01*
X178860700Y-52866800D01*
X178860700Y-52618799D01*
X178821906Y-52373872D01*
X178821906Y-52373869D01*
X178745273Y-52138018D01*
X178632689Y-51917058D01*
X178486924Y-51716430D01*
X178311570Y-51541076D01*
X178110942Y-51395311D01*
X177889982Y-51282727D01*
X177654131Y-51206094D01*
X177654129Y-51206093D01*
X177654127Y-51206093D01*
X177409200Y-51167300D01*
X177409195Y-51167300D01*
X177161205Y-51167300D01*
X177161200Y-51167300D01*
X176916272Y-51206093D01*
X176680415Y-51282728D01*
X176459457Y-51395311D01*
X176344992Y-51478475D01*
X176258830Y-51541076D01*
X176258828Y-51541078D01*
X176258827Y-51541078D01*
X176083478Y-51716427D01*
X176083478Y-51716428D01*
X176083476Y-51716430D01*
X176020875Y-51802592D01*
X175937711Y-51917057D01*
X175825128Y-52138015D01*
X175748493Y-52373872D01*
X175709700Y-52618799D01*
X120860700Y-52618799D01*
X120821906Y-52373872D01*
X120821906Y-52373869D01*
X120745273Y-52138018D01*
X120632689Y-51917058D01*
X120486924Y-51716430D01*
X120311570Y-51541076D01*
X120110942Y-51395311D01*
X119889982Y-51282727D01*
X119654131Y-51206094D01*
X119654129Y-51206093D01*
X119654127Y-51206093D01*
X119409200Y-51167300D01*
X119409195Y-51167300D01*
X119161205Y-51167300D01*
X119161200Y-51167300D01*
X118916272Y-51206093D01*
X118680415Y-51282728D01*
X118459457Y-51395311D01*
X118344992Y-51478475D01*
X118258830Y-51541076D01*
X118258828Y-51541078D01*
X118258827Y-51541078D01*
X118083478Y-51716427D01*
X118083478Y-51716428D01*
X118083476Y-51716430D01*
X118020875Y-51802592D01*
X117937711Y-51917057D01*
X117825128Y-52138015D01*
X117748493Y-52373872D01*
X117709700Y-52618799D01*
X111705700Y-52618799D01*
X111705700Y-47110500D01*
X111725385Y-47043461D01*
X111778189Y-46997706D01*
X111829700Y-46986500D01*
X182048300Y-46986500D01*
X182115339Y-47006185D01*
G37*
%TD.AperFunction*%
%TD*%
%TA.AperFunction,Conductor*%
%TO.N,/Project Architecture/Connectors/J1_1*%
G36*
X174606061Y-101965753D02*
G01*
X174606146Y-101965839D01*
X175365744Y-102740321D01*
X175369090Y-102748627D01*
X175365583Y-102756866D01*
X175358497Y-102760161D01*
X175309163Y-102764844D01*
X175246709Y-102781157D01*
X175246705Y-102781158D01*
X175246704Y-102781159D01*
X175234448Y-102786643D01*
X175182812Y-102809749D01*
X175124634Y-102848031D01*
X175124631Y-102848033D01*
X175063430Y-102903504D01*
X175063419Y-102903515D01*
X175009644Y-102968286D01*
X174954058Y-103056164D01*
X174908655Y-103150540D01*
X174908648Y-103150557D01*
X174867780Y-103264296D01*
X174867779Y-103264299D01*
X174839646Y-103375308D01*
X174820018Y-103548021D01*
X174815679Y-103555854D01*
X174808393Y-103558400D01*
X174329765Y-103558400D01*
X174321492Y-103554973D01*
X174318092Y-103547498D01*
X174311195Y-103446647D01*
X174267854Y-103239504D01*
X174198599Y-103060076D01*
X174114038Y-102924737D01*
X174114037Y-102924735D01*
X174019392Y-102832090D01*
X174019386Y-102832085D01*
X173915143Y-102777257D01*
X173915140Y-102777256D01*
X173901140Y-102773785D01*
X173858675Y-102763256D01*
X173823107Y-102760415D01*
X173815133Y-102756340D01*
X173812376Y-102747820D01*
X173815759Y-102740487D01*
X174589517Y-101965761D01*
X174597786Y-101962331D01*
X174606061Y-101965753D01*
G37*
%TD.AperFunction*%
%TD*%
%TA.AperFunction,Conductor*%
%TO.N,/Project Architecture/Connectors/J1_5*%
G36*
X173664366Y-89581682D02*
G01*
X175029860Y-90207511D01*
X175035952Y-90214072D01*
X175035620Y-90223021D01*
X175034720Y-90224634D01*
X174599874Y-90877157D01*
X174596626Y-90880405D01*
X173944103Y-91315251D01*
X173935318Y-91316987D01*
X173927879Y-91312003D01*
X173926982Y-91310396D01*
X173301151Y-89944898D01*
X173300820Y-89935950D01*
X173303513Y-89931753D01*
X173651221Y-89584045D01*
X173659493Y-89580619D01*
X173664366Y-89581682D01*
G37*
%TD.AperFunction*%
%TD*%
%TA.AperFunction,Conductor*%
%TO.N,/Project Architecture/Connectors/J1_4*%
G36*
X174037940Y-92717887D02*
G01*
X174049983Y-92746961D01*
X174468459Y-93165437D01*
X174404876Y-93182475D01*
X174290862Y-93248301D01*
X174197770Y-93341393D01*
X174131944Y-93455407D01*
X174114906Y-93518990D01*
X173699248Y-93103332D01*
X173699247Y-93103332D01*
X173667369Y-93151041D01*
X173588220Y-93342122D01*
X173588218Y-93342128D01*
X173547869Y-93544987D01*
X173547869Y-93751812D01*
X173588218Y-93954671D01*
X173588220Y-93954677D01*
X173667370Y-94145760D01*
X173699247Y-94193467D01*
X174114906Y-93777808D01*
X174131944Y-93841393D01*
X174197770Y-93955407D01*
X174290862Y-94048499D01*
X174404876Y-94114325D01*
X174468459Y-94131362D01*
X174052800Y-94547021D01*
X174100508Y-94578898D01*
X174291591Y-94658048D01*
X174291597Y-94658050D01*
X174494456Y-94698400D01*
X174701282Y-94698400D01*
X174904140Y-94658050D01*
X174904146Y-94658048D01*
X175095227Y-94578899D01*
X175142935Y-94547020D01*
X174727277Y-94131362D01*
X174790862Y-94114325D01*
X174904876Y-94048499D01*
X174997968Y-93955407D01*
X175063794Y-93841393D01*
X175080831Y-93777808D01*
X175496489Y-94193466D01*
X175528368Y-94145758D01*
X175607517Y-93954677D01*
X175607519Y-93954671D01*
X175647869Y-93751812D01*
X175647869Y-93544987D01*
X175613352Y-93371454D01*
X175620669Y-93334672D01*
X175651852Y-93313836D01*
X175688634Y-93321153D01*
X175696059Y-93327247D01*
X176076265Y-93707453D01*
X176090617Y-93742101D01*
X176088256Y-93757129D01*
X175842119Y-94521004D01*
X175820640Y-94548023D01*
X175275639Y-94874138D01*
X175246853Y-94880957D01*
X175218431Y-94878847D01*
X175208934Y-94878143D01*
X175208933Y-94878143D01*
X175208931Y-94878143D01*
X175208924Y-94878143D01*
X175171855Y-94883758D01*
X175096435Y-94911005D01*
X174729611Y-95132410D01*
X174725508Y-95134952D01*
X174723701Y-95136101D01*
X174723697Y-95136105D01*
X174663118Y-95195330D01*
X174642283Y-95226509D01*
X174642279Y-95226516D01*
X174632324Y-95248761D01*
X174612759Y-95270791D01*
X174298153Y-95459044D01*
X174291745Y-95462267D01*
X174123956Y-95531767D01*
X173960086Y-95641261D01*
X173914385Y-95686961D01*
X173904897Y-95694359D01*
X173564564Y-95898007D01*
X173535779Y-95904826D01*
X173510969Y-95902985D01*
X173510968Y-95902985D01*
X173510967Y-95902985D01*
X173496135Y-95905231D01*
X173473886Y-95908601D01*
X173398472Y-95935847D01*
X171232011Y-97243462D01*
X171016233Y-97373699D01*
X171016231Y-97373700D01*
X170972308Y-97409293D01*
X170954080Y-97428789D01*
X170921968Y-97474365D01*
X170907072Y-97488189D01*
X168536504Y-98906684D01*
X168536500Y-98906686D01*
X167731914Y-99491840D01*
X167710105Y-99500708D01*
X166558100Y-99667263D01*
X166521755Y-99658017D01*
X166502593Y-99625778D01*
X166502603Y-99611687D01*
X166771570Y-97771391D01*
X166790211Y-97739615D01*
X173335296Y-92713670D01*
X173365139Y-92703535D01*
X174003292Y-92703535D01*
X174037940Y-92717887D01*
G37*
%TD.AperFunction*%
%TD*%
%TA.AperFunction,Conductor*%
%TO.N,/Project Architecture/Motor A/-M*%
G36*
X169636573Y-99590145D02*
G01*
X169651439Y-99624576D01*
X169651357Y-99628220D01*
X169630939Y-99970781D01*
X169625585Y-99990308D01*
X169458206Y-100315181D01*
X169449193Y-100335242D01*
X169445420Y-100345007D01*
X169441915Y-100354813D01*
X169438088Y-100395620D01*
X169433375Y-100445871D01*
X169438269Y-100483051D01*
X169449642Y-100516555D01*
X169464044Y-100558984D01*
X169488270Y-100600942D01*
X169493165Y-100612760D01*
X169508226Y-100668964D01*
X169509896Y-100681647D01*
X169509896Y-100739839D01*
X169508226Y-100752523D01*
X169493163Y-100808731D01*
X169488269Y-100820546D01*
X169459171Y-100870947D01*
X169451383Y-100881096D01*
X169410244Y-100922235D01*
X169400096Y-100930022D01*
X169349698Y-100959119D01*
X169337881Y-100964014D01*
X169284987Y-100978187D01*
X169270947Y-100982491D01*
X169264328Y-100984783D01*
X169262944Y-100985274D01*
X169261354Y-100985839D01*
X169261353Y-100985839D01*
X169261349Y-100985841D01*
X169184508Y-101035424D01*
X169158311Y-101062260D01*
X169114570Y-101129462D01*
X169114569Y-101129465D01*
X169065179Y-101252894D01*
X169038982Y-101279731D01*
X169038103Y-101280097D01*
X168177017Y-101629359D01*
X168139515Y-101629083D01*
X168113193Y-101602369D01*
X168109600Y-101583952D01*
X168109600Y-101516487D01*
X168078899Y-101401914D01*
X168078898Y-101401911D01*
X168019588Y-101299185D01*
X167935713Y-101215310D01*
X167832987Y-101156000D01*
X167832984Y-101155999D01*
X167718412Y-101125299D01*
X167718409Y-101125299D01*
X167599791Y-101125299D01*
X167599788Y-101125299D01*
X167485215Y-101155999D01*
X167485212Y-101156000D01*
X167382486Y-101215310D01*
X167382486Y-101215311D01*
X167298612Y-101299185D01*
X167298611Y-101299185D01*
X167239301Y-101401911D01*
X167239300Y-101401914D01*
X167208600Y-101516487D01*
X167208600Y-101635110D01*
X167239300Y-101749683D01*
X167239301Y-101749686D01*
X167298611Y-101852412D01*
X167341128Y-101894929D01*
X167355480Y-101929577D01*
X167341128Y-101964225D01*
X167324897Y-101974984D01*
X166781565Y-102195362D01*
X166750466Y-102197285D01*
X166668412Y-102175299D01*
X166668409Y-102175299D01*
X166549791Y-102175299D01*
X166549788Y-102175299D01*
X166435215Y-102205999D01*
X166435212Y-102206000D01*
X166332486Y-102265310D01*
X166332486Y-102265311D01*
X166248614Y-102349182D01*
X166248609Y-102349189D01*
X166210024Y-102416019D01*
X166186006Y-102436925D01*
X166046972Y-102493318D01*
X166009470Y-102493042D01*
X165983148Y-102466328D01*
X165981225Y-102460593D01*
X165978899Y-102451914D01*
X165978898Y-102451911D01*
X165945751Y-102394500D01*
X165919589Y-102349186D01*
X165835713Y-102265310D01*
X165805489Y-102247860D01*
X165732987Y-102206000D01*
X165732984Y-102205999D01*
X165618412Y-102175299D01*
X165618409Y-102175299D01*
X165499791Y-102175299D01*
X165499788Y-102175299D01*
X165385215Y-102205999D01*
X165385212Y-102206000D01*
X165282486Y-102265310D01*
X165282486Y-102265311D01*
X165198612Y-102349185D01*
X165198611Y-102349185D01*
X165139301Y-102451911D01*
X165139300Y-102451914D01*
X165108600Y-102566487D01*
X165108600Y-102685110D01*
X165139300Y-102799683D01*
X165139301Y-102799687D01*
X165140061Y-102801002D01*
X165140161Y-102801761D01*
X165140531Y-102802655D01*
X165140291Y-102802754D01*
X165144956Y-102838184D01*
X165122126Y-102867937D01*
X165116043Y-102870909D01*
X156188487Y-106491979D01*
X156170293Y-106495571D01*
X152972542Y-106510106D01*
X152937829Y-106495912D01*
X152923320Y-106461330D01*
X152923333Y-106459954D01*
X152945829Y-105503878D01*
X152960991Y-105469579D01*
X152995968Y-105456047D01*
X152998542Y-105456175D01*
X152999169Y-105456222D01*
X152999180Y-105456224D01*
X155620575Y-105398292D01*
X155683540Y-105386938D01*
X155712008Y-105377037D01*
X155768434Y-105346866D01*
X156598953Y-104718970D01*
X156606895Y-104714082D01*
X156936690Y-104552263D01*
X156974115Y-104549886D01*
X157002262Y-104574670D01*
X157007272Y-104596254D01*
X157007272Y-104623224D01*
X157039677Y-104744159D01*
X157102277Y-104852587D01*
X157190808Y-104941118D01*
X157299236Y-105003718D01*
X157371797Y-105023161D01*
X157420169Y-105036123D01*
X157420171Y-105036123D01*
X157545375Y-105036123D01*
X157585684Y-105025321D01*
X157666308Y-105003718D01*
X157774736Y-104941118D01*
X157863267Y-104852587D01*
X157925867Y-104744159D01*
X157958272Y-104623224D01*
X157958272Y-104498022D01*
X157958272Y-104498020D01*
X157945310Y-104449648D01*
X157925867Y-104377087D01*
X157863267Y-104268659D01*
X157796984Y-104202376D01*
X157782632Y-104167728D01*
X157796984Y-104133080D01*
X157810045Y-104123739D01*
X160492819Y-102807397D01*
X162897300Y-102807397D01*
X162897300Y-102807399D01*
X162897300Y-102932601D01*
X162929705Y-103053536D01*
X162992305Y-103161964D01*
X163080836Y-103250495D01*
X163189264Y-103313095D01*
X163261825Y-103332538D01*
X163310197Y-103345500D01*
X163310199Y-103345500D01*
X163435403Y-103345500D01*
X163475712Y-103334698D01*
X163556336Y-103313095D01*
X163664764Y-103250495D01*
X163753295Y-103161964D01*
X163815895Y-103053536D01*
X163848300Y-102932601D01*
X163848300Y-102807399D01*
X163848300Y-102807397D01*
X163835338Y-102759025D01*
X163815895Y-102686464D01*
X163753295Y-102578036D01*
X163664764Y-102489505D01*
X163556336Y-102426905D01*
X163515710Y-102416019D01*
X163435403Y-102394500D01*
X163435401Y-102394500D01*
X163310199Y-102394500D01*
X163310197Y-102394500D01*
X163189267Y-102426904D01*
X163189266Y-102426904D01*
X163189264Y-102426905D01*
X163080836Y-102489505D01*
X163080833Y-102489507D01*
X162992307Y-102578033D01*
X162992305Y-102578036D01*
X162929705Y-102686464D01*
X162929704Y-102686466D01*
X162929704Y-102686467D01*
X162897300Y-102807397D01*
X160492819Y-102807397D01*
X163123762Y-101516487D01*
X165108600Y-101516487D01*
X165108600Y-101635110D01*
X165139300Y-101749683D01*
X165139301Y-101749686D01*
X165150309Y-101768752D01*
X165198611Y-101852412D01*
X165282487Y-101936288D01*
X165385214Y-101995598D01*
X165413858Y-102003273D01*
X165499788Y-102026299D01*
X165499791Y-102026299D01*
X165618411Y-102026299D01*
X165675697Y-102010948D01*
X165732986Y-101995598D01*
X165835713Y-101936288D01*
X165919589Y-101852412D01*
X165978899Y-101749685D01*
X165994249Y-101692396D01*
X166009600Y-101635110D01*
X166009600Y-101516487D01*
X166158600Y-101516487D01*
X166158600Y-101635110D01*
X166189300Y-101749683D01*
X166189301Y-101749686D01*
X166200309Y-101768752D01*
X166248611Y-101852412D01*
X166332487Y-101936288D01*
X166435214Y-101995598D01*
X166463858Y-102003273D01*
X166549788Y-102026299D01*
X166549791Y-102026299D01*
X166668411Y-102026299D01*
X166725697Y-102010948D01*
X166782986Y-101995598D01*
X166885713Y-101936288D01*
X166969589Y-101852412D01*
X167028899Y-101749685D01*
X167044249Y-101692396D01*
X167059600Y-101635110D01*
X167059600Y-101516487D01*
X167028899Y-101401914D01*
X167028898Y-101401911D01*
X166969588Y-101299185D01*
X166885713Y-101215310D01*
X166782987Y-101156000D01*
X166782984Y-101155999D01*
X166668412Y-101125299D01*
X166668409Y-101125299D01*
X166549791Y-101125299D01*
X166549788Y-101125299D01*
X166435215Y-101155999D01*
X166435212Y-101156000D01*
X166332486Y-101215310D01*
X166332486Y-101215311D01*
X166248612Y-101299185D01*
X166248611Y-101299185D01*
X166189301Y-101401911D01*
X166189300Y-101401914D01*
X166158600Y-101516487D01*
X166009600Y-101516487D01*
X165978899Y-101401914D01*
X165978898Y-101401911D01*
X165919588Y-101299185D01*
X165835713Y-101215310D01*
X165732987Y-101156000D01*
X165732984Y-101155999D01*
X165618412Y-101125299D01*
X165618409Y-101125299D01*
X165499791Y-101125299D01*
X165499788Y-101125299D01*
X165385215Y-101155999D01*
X165385212Y-101156000D01*
X165282486Y-101215310D01*
X165282486Y-101215311D01*
X165198612Y-101299185D01*
X165198611Y-101299185D01*
X165139301Y-101401911D01*
X165139300Y-101401914D01*
X165108600Y-101516487D01*
X163123762Y-101516487D01*
X166477820Y-99870770D01*
X166505015Y-99866591D01*
X166505031Y-99866293D01*
X166506463Y-99866368D01*
X166506780Y-99866320D01*
X166507433Y-99866419D01*
X166507435Y-99866420D01*
X166587505Y-99870648D01*
X167739510Y-99704093D01*
X167787511Y-99691072D01*
X167809320Y-99682204D01*
X167838344Y-99666064D01*
X167852773Y-99658041D01*
X167852779Y-99658037D01*
X167852777Y-99658037D01*
X167852783Y-99658035D01*
X167918433Y-99610289D01*
X167946521Y-99600923D01*
X169601717Y-99576310D01*
X169636573Y-99590145D01*
G37*
%TD.AperFunction*%
%TD*%
%TA.AperFunction,Conductor*%
%TO.N,/Project Architecture/Connectors/J1_6*%
G36*
X178387330Y-99281859D02*
G01*
X178729409Y-99623938D01*
X178732836Y-99632211D01*
X178731784Y-99637060D01*
X178108741Y-101005345D01*
X178102194Y-101011454D01*
X178093244Y-101011144D01*
X178091605Y-101010232D01*
X177439111Y-100575405D01*
X177435863Y-100572157D01*
X177001036Y-99919663D01*
X176999300Y-99910878D01*
X177004284Y-99903439D01*
X177005916Y-99902530D01*
X178374209Y-99279483D01*
X178383158Y-99279174D01*
X178387330Y-99281859D01*
G37*
%TD.AperFunction*%
%TD*%
%TA.AperFunction,Conductor*%
%TO.N,/Project Architecture/Connectors/+M*%
G36*
X144419045Y-105175685D02*
G01*
X144459988Y-105219042D01*
X145313399Y-106730799D01*
X145313400Y-106730800D01*
X150343794Y-106706959D01*
X150406376Y-106723569D01*
X150438464Y-106742095D01*
X150559399Y-106774500D01*
X150559401Y-106774500D01*
X150684599Y-106774500D01*
X150684601Y-106774500D01*
X150805536Y-106742095D01*
X150831376Y-106727176D01*
X150896257Y-106710596D01*
X152910472Y-106757438D01*
X152977034Y-106778675D01*
X153021548Y-106832529D01*
X153030061Y-106900800D01*
X153022700Y-106947279D01*
X153022700Y-107410322D01*
X153025121Y-107425602D01*
X153016166Y-107494896D01*
X152971170Y-107548348D01*
X152904418Y-107568987D01*
X152902648Y-107569000D01*
X150464422Y-107569000D01*
X150432329Y-107564775D01*
X150379801Y-107550700D01*
X150254599Y-107550700D01*
X150202070Y-107564775D01*
X150169978Y-107569000D01*
X149999998Y-107569000D01*
X146393620Y-108707762D01*
X146366171Y-108713122D01*
X145191624Y-108807086D01*
X145123229Y-108792810D01*
X145073409Y-108743823D01*
X145072101Y-108741413D01*
X143275790Y-105337877D01*
X143261909Y-105269401D01*
X143287251Y-105204290D01*
X143343773Y-105163216D01*
X143385455Y-105156000D01*
X144352006Y-105156000D01*
X144419045Y-105175685D01*
G37*
%TD.AperFunction*%
%TD*%
%TA.AperFunction,Conductor*%
%TO.N,/Project Architecture/Connectors/-M*%
G36*
X149027296Y-100679885D02*
G01*
X149059016Y-100709216D01*
X152146001Y-104775002D01*
X152146012Y-104775016D01*
X152683824Y-105415268D01*
X152726240Y-105459885D01*
X152739906Y-105519458D01*
X152726025Y-106109375D01*
X152722738Y-106119666D01*
X152723721Y-106130422D01*
X152712296Y-106152361D01*
X152704769Y-106175933D01*
X152696440Y-106182813D01*
X152691452Y-106192393D01*
X152669978Y-106204674D01*
X152650903Y-106220433D01*
X152638579Y-106222632D01*
X152630801Y-106227081D01*
X152595654Y-106230292D01*
X152498062Y-106225244D01*
X152432128Y-106202123D01*
X152417185Y-106189489D01*
X147051416Y-100872279D01*
X147017653Y-100811109D01*
X147022320Y-100741395D01*
X147063937Y-100685272D01*
X147129290Y-100660557D01*
X147138698Y-100660200D01*
X148960257Y-100660200D01*
X149027296Y-100679885D01*
G37*
%TD.AperFunction*%
%TD*%
%TA.AperFunction,Conductor*%
%TO.N,/Project Architecture/MotorB/-MB*%
G36*
X162484714Y-86984364D02*
G01*
X162499983Y-87018618D01*
X162500000Y-87019922D01*
X162500000Y-90175395D01*
X162498330Y-90188078D01*
X162465500Y-90310597D01*
X162465500Y-90435802D01*
X162498330Y-90558322D01*
X162500000Y-90571005D01*
X162500000Y-99975616D01*
X162485648Y-100010264D01*
X162480551Y-100014703D01*
X158466523Y-103049417D01*
X158430229Y-103058864D01*
X158402324Y-103044978D01*
X158344768Y-102987422D01*
X158344766Y-102987420D01*
X158236338Y-102924820D01*
X158222043Y-102920989D01*
X158115405Y-102892415D01*
X158115403Y-102892415D01*
X157990201Y-102892415D01*
X157990199Y-102892415D01*
X157869269Y-102924819D01*
X157869268Y-102924819D01*
X157869266Y-102924820D01*
X157760838Y-102987420D01*
X157760835Y-102987422D01*
X157672309Y-103075948D01*
X157672307Y-103075951D01*
X157609707Y-103184379D01*
X157609706Y-103184381D01*
X157609706Y-103184382D01*
X157577302Y-103305312D01*
X157577302Y-103305314D01*
X157577302Y-103430516D01*
X157609707Y-103551451D01*
X157646642Y-103615425D01*
X157651536Y-103652607D01*
X157633757Y-103679011D01*
X155644503Y-105182941D01*
X155616035Y-105192842D01*
X152994640Y-105250774D01*
X152959683Y-105237191D01*
X152945144Y-105209348D01*
X152729543Y-103828940D01*
X152738376Y-103792495D01*
X152770395Y-103772968D01*
X152777055Y-103772389D01*
X153095604Y-103766544D01*
X153130510Y-103780258D01*
X153138937Y-103791034D01*
X153142676Y-103797510D01*
X153142678Y-103797512D01*
X153142680Y-103797516D01*
X153254484Y-103909320D01*
X153254487Y-103909321D01*
X153254490Y-103909324D01*
X153391413Y-103988376D01*
X153391415Y-103988376D01*
X153391416Y-103988377D01*
X153511865Y-104020651D01*
X153544139Y-104029299D01*
X153544140Y-104029300D01*
X153544143Y-104029300D01*
X154202260Y-104029300D01*
X154202260Y-104029299D01*
X154354984Y-103988377D01*
X154491916Y-103909320D01*
X154603720Y-103797516D01*
X154624094Y-103762226D01*
X154653844Y-103739397D01*
X154665618Y-103737736D01*
X154872855Y-103733934D01*
X158889459Y-100096126D01*
X158889459Y-87423941D01*
X158903811Y-87389293D01*
X158938459Y-87374941D01*
X158962957Y-87381505D01*
X159057515Y-87436099D01*
X159086159Y-87443774D01*
X159172089Y-87466800D01*
X159172092Y-87466800D01*
X159290712Y-87466800D01*
X159347998Y-87451449D01*
X159405287Y-87436099D01*
X159508014Y-87376789D01*
X159591890Y-87292913D01*
X159651200Y-87190186D01*
X159680796Y-87079733D01*
X159703626Y-87049980D01*
X159726820Y-87043432D01*
X162449696Y-86970939D01*
X162484714Y-86984364D01*
G37*
%TD.AperFunction*%
%TD*%
%TA.AperFunction,Conductor*%
%TO.N,/Project Architecture/Connectors/J1_2*%
G36*
X173942453Y-98750524D02*
G01*
X173943503Y-98751148D01*
X174594529Y-99184996D01*
X174599513Y-99192435D01*
X174599519Y-99192461D01*
X174752033Y-99963385D01*
X174750276Y-99972166D01*
X174744771Y-99976570D01*
X173597913Y-100419599D01*
X173588961Y-100419384D01*
X173585424Y-100416958D01*
X173243344Y-100074878D01*
X173239917Y-100066605D01*
X173241257Y-100061167D01*
X173287976Y-99972166D01*
X173926655Y-98755445D01*
X173933535Y-98749714D01*
X173942453Y-98750524D01*
G37*
%TD.AperFunction*%
%TD*%
%TA.AperFunction,Conductor*%
%TO.N,/Project Architecture/Connectors/J1_6*%
G36*
X157050033Y-81363013D02*
G01*
X157116596Y-81384250D01*
X157161111Y-81438104D01*
X157171148Y-81487583D01*
X157162808Y-83199934D01*
X157142797Y-83266877D01*
X157089770Y-83312374D01*
X157035269Y-83323279D01*
X156217301Y-83299918D01*
X156150851Y-83278328D01*
X156106622Y-83224239D01*
X156096847Y-83177137D01*
X156080748Y-81468556D01*
X156099800Y-81401334D01*
X156152170Y-81355084D01*
X156207622Y-81343422D01*
X157050033Y-81363013D01*
G37*
%TD.AperFunction*%
%TD*%
%TA.AperFunction,Conductor*%
%TO.N,/Project Architecture/Connectors/J1_8*%
G36*
X176888772Y-93516814D02*
G01*
X177874453Y-94361478D01*
X177878505Y-94369463D01*
X177876576Y-94376850D01*
X177441272Y-95030060D01*
X177433833Y-95035044D01*
X177433807Y-95035050D01*
X176665873Y-95186972D01*
X176657092Y-95185215D01*
X176652124Y-95177765D01*
X176651962Y-95176675D01*
X176521887Y-93874488D01*
X176524475Y-93865918D01*
X176525246Y-93865065D01*
X176872887Y-93517424D01*
X176881159Y-93513998D01*
X176888772Y-93516814D01*
G37*
%TD.AperFunction*%
%TD*%
%TA.AperFunction,Conductor*%
%TO.N,/Project Architecture/Connectors/J1_3*%
G36*
X173571933Y-96128416D02*
G01*
X173578041Y-96163295D01*
X173547869Y-96314987D01*
X173547869Y-96521812D01*
X173588218Y-96724671D01*
X173588220Y-96724677D01*
X173667370Y-96915760D01*
X173699247Y-96963467D01*
X174114906Y-96547807D01*
X174131944Y-96611393D01*
X174197770Y-96725407D01*
X174290862Y-96818499D01*
X174404876Y-96884325D01*
X174468459Y-96901362D01*
X174052800Y-97317021D01*
X174100508Y-97348898D01*
X174291591Y-97428048D01*
X174291597Y-97428050D01*
X174494456Y-97468400D01*
X174701282Y-97468400D01*
X174904140Y-97428050D01*
X174904147Y-97428048D01*
X174911924Y-97424826D01*
X174949427Y-97424822D01*
X174975948Y-97451338D01*
X174975952Y-97488841D01*
X174955769Y-97512184D01*
X173324364Y-98484632D01*
X170983482Y-102102032D01*
X170952609Y-102123324D01*
X170940082Y-102124359D01*
X169042984Y-102036704D01*
X169009035Y-102020768D01*
X168996298Y-101985494D01*
X168999753Y-101969552D01*
X169305362Y-101205810D01*
X169331558Y-101178975D01*
X169338162Y-101176689D01*
X169423432Y-101153841D01*
X169531860Y-101091241D01*
X169620391Y-101002710D01*
X169682991Y-100894282D01*
X169715396Y-100773347D01*
X169715396Y-100648145D01*
X169715396Y-100648143D01*
X169701699Y-100597029D01*
X169682991Y-100527210D01*
X169682990Y-100527208D01*
X169682990Y-100527207D01*
X169660459Y-100488183D01*
X169642012Y-100456232D01*
X169637118Y-100419052D01*
X169640885Y-100409301D01*
X171104186Y-97569141D01*
X171122420Y-97549639D01*
X173504664Y-96111784D01*
X173541742Y-96106168D01*
X173571933Y-96128416D01*
G37*
%TD.AperFunction*%
%TA.AperFunction,Conductor*%
G36*
X175496489Y-96963466D02*
G01*
X175528368Y-96915758D01*
X175607517Y-96724677D01*
X175607519Y-96724671D01*
X175630909Y-96607077D01*
X175651745Y-96575894D01*
X175688527Y-96568577D01*
X175719710Y-96589413D01*
X175725861Y-96602420D01*
X175830470Y-96947486D01*
X175826787Y-96984808D01*
X175808666Y-97003792D01*
X175230619Y-97348353D01*
X175230618Y-97348354D01*
X175230615Y-97348356D01*
X175218216Y-97355747D01*
X175192120Y-97366557D01*
X175157472Y-97352205D01*
X175143120Y-97317557D01*
X175143136Y-97317221D01*
X174727277Y-96901362D01*
X174790862Y-96884325D01*
X174904876Y-96818499D01*
X174997968Y-96725407D01*
X175063794Y-96611393D01*
X175080831Y-96547808D01*
X175496489Y-96963466D01*
G37*
%TD.AperFunction*%
%TA.AperFunction,Conductor*%
G36*
X175269898Y-95103574D02*
G01*
X175274840Y-95114678D01*
X175456682Y-95714507D01*
X175456683Y-95714508D01*
X175502891Y-95866929D01*
X175493303Y-95876518D01*
X175080831Y-96288990D01*
X175063794Y-96225407D01*
X174997968Y-96111393D01*
X174904876Y-96018301D01*
X174790862Y-95952475D01*
X174727276Y-95935437D01*
X175142936Y-95519778D01*
X175095229Y-95487901D01*
X174904146Y-95408751D01*
X174904132Y-95408747D01*
X174851643Y-95398306D01*
X174820461Y-95377470D01*
X174813145Y-95340688D01*
X174833981Y-95309506D01*
X174835808Y-95308344D01*
X175202627Y-95086942D01*
X175239707Y-95081326D01*
X175269898Y-95103574D01*
G37*
%TD.AperFunction*%
%TD*%
%TA.AperFunction,Conductor*%
%TO.N,/Project Architecture/Connectors/J1_5*%
G36*
X154787632Y-84784581D02*
G01*
X154854573Y-84804592D01*
X154900070Y-84857619D01*
X154910975Y-84912120D01*
X154887614Y-85730088D01*
X154866024Y-85796538D01*
X154811935Y-85840767D01*
X154764833Y-85850542D01*
X153056252Y-85866641D01*
X152989030Y-85847589D01*
X152942780Y-85795219D01*
X152931118Y-85739767D01*
X152950709Y-84897355D01*
X152971946Y-84830793D01*
X153025800Y-84786278D01*
X153075274Y-84776241D01*
X154787632Y-84784581D01*
G37*
%TD.AperFunction*%
%TD*%
M02*
