M48
; DRILL file {KiCad 9.0.7+1} date 2026-08-18T23:08:54+0000
; FORMAT={-:-/ absolute / metric / decimal}
; #@! TF.CreationDate,2026-08-18T23:08:54+00:00
; #@! TF.GenerationSoftware,Kicad,Pcbnew,9.0.7+1
; #@! TF.FileFunction,Plated,1,4,PTH
FMAT,2
METRIC
; #@! TA.AperFunction,Plated,PTH,ComponentDrill
T1C0.200
; #@! TA.AperFunction,Plated,PTH,ViaDrill
T2C0.250
; #@! TA.AperFunction,Plated,PTH,ViaDrill
T3C0.300
; #@! TA.AperFunction,Plated,PTH,ComponentDrill
T4C0.300
; #@! TA.AperFunction,Plated,PTH,ComponentDrill
T5C0.500
; #@! TA.AperFunction,Plated,PTH,ComponentDrill
T6C1.000
; #@! TA.AperFunction,Plated,PTH,ComponentDrill
T7C1.750
; #@! TA.AperFunction,Plated,PTH,ComponentDrill
T8C2.700
; #@! TA.AperFunction,Plated,PTH,ComponentDrill
T9C3.200
%
G90
G05
T1
X145.813Y-103.496
X145.813Y-104.546
X145.813Y-105.596
X146.863Y-103.496
X146.863Y-104.546
X146.863Y-105.596
X147.913Y-103.496
X147.913Y-104.546
X147.913Y-105.596
X157.131Y-84.916
X157.131Y-85.966
X157.131Y-87.016
X158.181Y-84.916
X158.181Y-85.966
X158.181Y-87.016
X159.231Y-84.916
X159.231Y-85.966
X159.231Y-87.016
X165.559Y-101.576
X165.559Y-102.626
X165.559Y-103.676
X166.609Y-101.576
X166.609Y-102.626
X166.609Y-103.676
X167.659Y-101.576
X167.659Y-102.626
X167.659Y-103.676
T2
X149.1Y-94.4
X151.3Y-94.0
X151.7Y-100.7
X152.2Y-101.6
X152.6Y-117.1
X155.1Y-99.3
X155.1Y-100.9
X155.2Y-93.8
X155.3Y-100.1
X156.6Y-100.4
X156.8Y-96.2
X156.9Y-111.0
X161.2Y-117.0
X161.5Y-100.7
X165.1Y-109.4
X171.0Y-114.8
X178.0Y-104.7
X181.0Y-114.0
T3
X135.052Y-106.502
X136.144Y-107.518
X137.8Y-102.951
X137.82Y-107.569
X138.709Y-106.68
X139.344Y-101.829
X139.421Y-100.482
X140.919Y-99.695
X142.6Y-105.7
X143.1Y-99.5
X143.1Y-103.2
X143.1Y-104.5
X143.5Y-101.4
X143.84Y-105.537
X144.2Y-102.9
X144.424Y-106.02
X144.5Y-98.4
X145.059Y-107.747
X145.1Y-102.1
X146.0Y-108.0
X147.625Y-101.092
X148.463Y-101.473
X148.8Y-102.6
X149.3Y-106.4
X149.3Y-110.6
X149.301Y-96.393
X149.504Y-98.019
X150.008Y-104.796
X150.165Y-102.819
X150.5Y-107.9
X150.5Y-109.9
X150.597Y-95.174
X150.622Y-106.299
X150.8Y-99.263
X151.0Y-102.8
X152.197Y-88.29
X152.874Y-95.626
X152.908Y-97.688
X152.959Y-96.622
X153.289Y-89.56
X153.375Y-97.199
X153.416Y-96.114
X153.43Y-85.245
X153.873Y-96.672
X153.873Y-97.688
X153.89Y-95.626
X154.432Y-85.192
X154.762Y-89.535
X155.982Y-94.398
X156.261Y-88.214
X156.515Y-81.89
X156.557Y-82.683
X157.2Y-91.0
X157.2Y-92.0
X157.4Y-94.7
X157.483Y-104.561
X157.582Y-89.154
X157.856Y-82.804
X158.053Y-103.368
X158.25Y-92.033
X158.263Y-90.965
X158.623Y-110.095
X159.843Y-111.39
X160.122Y-88.2
X160.528Y-83.261
X161.4Y-104.3
X161.468Y-111.187
X161.519Y-82.575
X162.413Y-83.214
X162.713Y-109.892
X163.087Y-97.549
X163.117Y-99.326
X163.17Y-82.55
X163.246Y-94.2
X163.322Y-104.343
X163.4Y-90.0
X163.8Y-88.9
X164.0Y-92.085
X164.1Y-104.3
X164.223Y-83.281
X164.266Y-98.427
X164.316Y-100.333
X164.329Y-87.488
X164.465Y-96.705
X164.8Y-91.5
X164.8Y-92.939
X165.9Y-85.3
X165.9Y-107.1
X165.978Y-82.929
X166.037Y-106.155
X166.6Y-90.8
X167.8Y-98.9
X167.868Y-91.421
X167.9Y-98.1
X168.272Y-99.951
X168.759Y-108.604
X169.1Y-93.6
X169.191Y-99.99
X169.2Y-85.3
X169.24Y-100.711
X169.393Y-91.407
X169.412Y-104.264
X169.7Y-101.8
X170.058Y-83.098
X170.165Y-102.943
X170.322Y-107.238
X170.526Y-101.644
X170.54Y-108.021
X170.6Y-90.2
X171.303Y-104.949
X171.638Y-102.075
X173.5Y-103.7
T4
X151.1Y-104.1
X151.1Y-105.3
X152.1Y-109.6
X153.3Y-109.6
T5
X153.873Y-103.429
X153.873Y-104.679
X153.873Y-105.929
X153.873Y-107.179
X166.379Y-110.846
X167.629Y-110.846
X168.879Y-110.846
X170.129Y-110.846
T6
X122.225Y-109.982
X122.225Y-109.982
X124.155Y-74.473
X124.155Y-77.013
X124.765Y-109.982
X124.765Y-109.982
X126.695Y-74.473
X126.695Y-77.013
X127.305Y-109.982
X127.305Y-109.982
X129.235Y-74.473
X129.235Y-77.013
X129.845Y-109.982
X129.845Y-109.982
X131.775Y-74.473
X131.775Y-77.013
X132.385Y-109.982
X132.385Y-109.982
X134.315Y-74.473
X134.315Y-77.013
X134.925Y-109.982
X134.925Y-109.982
X136.855Y-74.473
X136.855Y-77.013
X137.465Y-109.982
X137.465Y-109.982
X139.395Y-74.473
X139.395Y-77.013
X140.005Y-109.982
X140.005Y-109.982
X141.935Y-74.473
X141.935Y-77.013
X144.475Y-74.473
X144.475Y-77.013
X147.015Y-74.473
X147.015Y-77.013
X149.555Y-74.473
X149.555Y-77.013
X152.095Y-74.473
X152.095Y-77.013
X154.635Y-74.473
X154.635Y-77.013
X157.175Y-74.473
X157.175Y-77.013
X159.715Y-74.473
X159.715Y-77.013
X162.255Y-74.473
X162.255Y-77.013
X164.795Y-74.473
X164.795Y-77.013
X167.335Y-74.473
X167.335Y-77.013
X169.875Y-74.473
X169.875Y-77.013
X172.415Y-74.473
X172.415Y-77.013
X174.598Y-90.878
X174.598Y-93.648
X174.598Y-96.418
X174.598Y-99.188
X174.598Y-101.958
X177.438Y-92.263
X177.438Y-95.033
X177.438Y-97.803
X177.438Y-100.573
T7
X145.186Y-90.424
X145.186Y-95.504
X145.224Y-90.435
X145.224Y-95.515
T8
X117.094Y-90.843
X117.094Y-108.843
T9
X177.438Y-83.918
X177.438Y-108.918
M30
