M48
; DRILL file {KiCad 9.0.6} date 2026-03-17T11:39:18-0600
; FORMAT={-:-/ absolute / metric / decimal}
; #@! TF.CreationDate,2026-03-17T11:39:18-06:00
; #@! TF.GenerationSoftware,Kicad,Pcbnew,9.0.6
; #@! TF.FileFunction,Plated,1,4,PTH
FMAT,2
METRIC
; #@! TA.AperFunction,Plated,PTH,ComponentDrill
T1C0.200
; #@! TA.AperFunction,Plated,PTH,ViaDrill
T2C0.250
; #@! TA.AperFunction,Plated,PTH,ComponentDrill
T3C0.500
; #@! TA.AperFunction,Plated,PTH,ComponentDrill
T4C0.889
; #@! TA.AperFunction,Plated,PTH,ComponentDrill
T5C1.000
; #@! TA.AperFunction,Plated,PTH,ComponentDrill
T6C1.750
; #@! TA.AperFunction,Plated,PTH,ComponentDrill
T7C1.850
; #@! TA.AperFunction,Plated,PTH,ComponentDrill
T8C2.057
; #@! TA.AperFunction,Plated,PTH,ComponentDrill
T9C2.700
; #@! TA.AperFunction,Plated,PTH,ComponentDrill
T10C3.200
%
G90
G05
T1
X127.322Y-332.046
X127.322Y-333.096
X127.322Y-334.146
X128.372Y-332.046
X128.372Y-333.096
X128.372Y-334.146
X129.422Y-332.046
X129.422Y-333.096
X129.422Y-334.146
X138.64Y-313.465
X138.64Y-314.515
X138.64Y-315.565
X139.69Y-313.465
X139.69Y-314.515
X139.69Y-315.565
X140.74Y-313.465
X140.74Y-314.515
X140.74Y-315.565
X147.068Y-330.125
X147.068Y-331.175
X147.068Y-332.225
X148.118Y-330.125
X148.118Y-331.175
X148.118Y-332.225
X149.168Y-330.125
X149.168Y-331.175
X149.168Y-332.225
T2
X117.791Y-334.865
X119.285Y-334.865
X119.543Y-331.619
X121.971Y-332.541
X121.98Y-329.178
X121.981Y-330.65
X124.104Y-334.264
X125.476Y-334.366
X127.559Y-336.245
X128.622Y-331.158
X129.759Y-328.168
X129.76Y-329.692
X130.309Y-332.346
X130.816Y-336.492
X130.825Y-337.979
X131.572Y-333.4
X132.039Y-325.19
X132.039Y-326.915
X134.376Y-325.241
X134.376Y-326.358
X134.417Y-324.053
X134.801Y-316.75
X134.884Y-325.749
X134.925Y-319.735
X134.925Y-324.663
X135.433Y-324.053
X135.443Y-325.19
X135.443Y-326.307
X136.325Y-316.748
X136.55Y-313.792
X136.754Y-312.623
X137.516Y-323.748
X138.024Y-310.439
X139.09Y-317.703
X139.09Y-328.473
X139.365Y-311.353
X140.31Y-335.229
X140.31Y-336.398
X140.564Y-331.165
X140.767Y-335.788
X141.174Y-319.504
X141.175Y-320.977
X141.529Y-335.229
X141.529Y-336.347
X141.58Y-338.734
X142.138Y-335.839
X142.748Y-336.448
X142.799Y-335.229
X143.053Y-315.316
X143.081Y-312.13
X143.305Y-338.734
X144.605Y-312.129
X144.831Y-332.892
X144.882Y-331.419
X145.693Y-326.288
X145.694Y-327.812
X145.948Y-317.094
X147.066Y-335.128
X149.393Y-318.985
X149.657Y-329.232
X150.372Y-335.836
X150.422Y-334.363
X150.917Y-318.985
X151.674Y-331.492
T3
X76.556Y-316.138
X76.556Y-317.388
X76.556Y-318.638
X76.556Y-319.888
X76.556Y-321.138
X76.556Y-322.388
X76.556Y-323.638
X76.556Y-324.888
X99.842Y-313.893
X101.092Y-313.893
X108.747Y-346.585
X109.997Y-346.585
X115.208Y-312.875
X116.458Y-312.875
X117.708Y-312.875
X118.958Y-312.875
X120.208Y-312.875
X121.458Y-312.875
X122.708Y-312.875
X123.958Y-312.875
X135.128Y-348.848
X135.128Y-350.098
X135.128Y-351.348
X135.128Y-352.598
X135.382Y-331.978
X135.382Y-333.228
X135.382Y-334.478
X135.382Y-335.728
X147.888Y-339.395
X149.138Y-339.395
X150.141Y-353.369
X150.141Y-354.619
X150.141Y-355.869
X150.141Y-357.119
X150.388Y-339.395
X151.638Y-339.395
T4
X73.025Y-309.675
X73.025Y-312.215
X73.025Y-314.755
X73.025Y-325.842
X73.025Y-328.382
X73.025Y-330.922
X87.528Y-309.675
X87.528Y-314.755
X87.528Y-325.842
X87.528Y-330.922
T5
X103.734Y-338.531
X103.734Y-338.531
X105.664Y-303.022
X105.664Y-305.562
X106.274Y-338.531
X106.274Y-338.531
X108.204Y-303.022
X108.204Y-305.562
X108.814Y-338.531
X108.814Y-338.531
X110.744Y-303.022
X110.744Y-305.562
X111.354Y-338.531
X111.354Y-338.531
X113.284Y-303.022
X113.284Y-305.562
X113.894Y-338.531
X113.894Y-338.531
X115.824Y-303.022
X115.824Y-305.562
X116.434Y-338.531
X116.434Y-338.531
X118.364Y-303.022
X118.364Y-305.562
X118.974Y-338.531
X118.974Y-338.531
X120.904Y-303.022
X120.904Y-305.562
X121.514Y-338.531
X121.514Y-338.531
X123.444Y-303.022
X123.444Y-305.562
X125.984Y-303.022
X125.984Y-305.562
X128.168Y-345.774
X128.168Y-350.774
X128.168Y-355.774
X128.524Y-303.022
X128.524Y-305.562
X131.064Y-303.022
X131.064Y-305.562
X133.168Y-345.774
X133.168Y-350.774
X133.168Y-355.774
X133.604Y-303.022
X133.604Y-305.562
X136.144Y-303.022
X136.144Y-305.562
X138.684Y-303.022
X138.684Y-305.562
X141.224Y-303.022
X141.224Y-305.562
X143.764Y-303.022
X143.764Y-305.562
X146.304Y-303.022
X146.304Y-305.562
X148.844Y-303.022
X148.844Y-305.562
X151.384Y-303.022
X151.384Y-305.562
X153.924Y-303.022
X153.924Y-305.562
X156.107Y-319.428
X156.107Y-322.198
X156.107Y-324.968
X156.107Y-327.738
X156.107Y-330.508
X158.947Y-320.813
X158.947Y-323.583
X158.947Y-326.353
X158.947Y-329.123
T6
X126.695Y-318.973
X126.695Y-324.053
X126.733Y-318.984
X126.733Y-324.064
T7
X142.342Y-354.635
X144.039Y-349.409
X148.484Y-346.18
X153.979Y-346.18
T8
X80.518Y-305.965
X80.518Y-318.465
X80.518Y-322.132
X80.518Y-334.632
T9
X98.603Y-319.392
X98.603Y-337.392
T10
X158.947Y-312.468
X158.947Y-337.468
T3
G00X127.918Y-343.274
M15
G01X128.418Y-343.274
M16
G05
G00X127.918Y-358.274
M15
G01X128.418Y-358.274
M16
G05
G00X132.918Y-343.274
M15
G01X133.418Y-343.274
M16
G05
G00X132.918Y-358.274
M15
G01X133.418Y-358.274
M16
G05
T5
G00X105.207Y-353.627
M15
G01X105.207Y-354.627
M16
G05
G00X109.372Y-349.803
M15
G01X110.372Y-349.803
M16
G05
G00X109.393Y-358.451
M15
G01X110.393Y-358.451
M16
G05
G00X114.397Y-353.587
M15
G01X114.397Y-354.587
M16
G05
M30
